<svg xmlns="http://www.w3.org/2000/svg" viewBox="0 0 103.69 140.43"><defs><style>.cls-1{isolation:isolate;}.cls-2{fill:none;}.cls-18,.cls-3,.cls-4{fill:#3f2d2b;}.cls-10,.cls-16,.cls-4,.cls-6{opacity:0.5;}.cls-18,.cls-4{mix-blend-mode:multiply;}.cls-10,.cls-21,.cls-5{fill:#fac494;}.cls-6{fill:#ed8c72;}.cls-14,.cls-19,.cls-7{fill:#f24469;}.cls-16,.cls-8,.cls-9{fill:#c61443;}.cls-14,.cls-18,.cls-20,.cls-21,.cls-8{opacity:0.2;}.cls-10,.cls-14,.cls-19,.cls-21{mix-blend-mode:screen;}.cls-11{fill:#fff;}.cls-12,.cls-20{fill:#8f705e;}.cls-13{fill:#211313;}.cls-15{fill:#533734;}.cls-17{fill:#ff5a5a;opacity:0.15;}</style></defs><title>Ресурс 1</title><g class="cls-1"><g id="Слой_2" data-name="Слой 2"><g id="Layer_1" data-name="Layer 1"><path class="cls-2" d="M20,65.9a205,205,0,0,0,3.79,25.59h.12c2.16-.54,4-.53,5.71-1.18a98.68,98.68,0,0,1-5-10.45A106.38,106.38,0,0,1,20,65.9Z"/><path class="cls-3" d="M20,65.9a106.38,106.38,0,0,0,4.57,13.95,98.68,98.68,0,0,0,5,10.45A7.33,7.33,0,0,0,32,88.79C29.93,85,27.45,80.43,25.7,76.51A121.89,121.89,0,0,1,16.81,45.4c-.05-.35-.1-.7-.14-1.05-.11-2.5-.1-5,0-7.33,0-.08,0-.15-.05-.23-.81,12.45-.9,33.71,4.92,54.83l2.19-.13A205,205,0,0,1,20,65.9Z"/><path class="cls-3" d="M18.84,24.78h0c.13-.42.25-.83.39-1.25q-.28.82-.52,1.64l.13-.4Z"/><path class="cls-3" d="M22.42,16.12C27.11,9.06,34.22,3.58,42.74,3a12.8,12.8,0,0,0-.7,7.62h0v.08a8.1,8.1,0,0,0,.27.9h0A9.08,9.08,0,0,0,43,13a14.59,14.59,0,0,0,.58,1.85c-1.48-4.41-1.43-10,2-13a15,15,0,0,0-8-.4c-8.1,2.07-14.33,11-17.77,20.23a52.19,52.19,0,0,1,2.25-5.15Z"/><path class="cls-3" d="M19.24,23.51q.28-.85.6-1.7Q19.52,22.66,19.24,23.51Z"/><path class="cls-3" d="M33.73,86.77a14.59,14.59,0,0,0,1.13-2,14.84,14.84,0,0,1-2.8,4A12,12,0,0,0,33.73,86.77Z"/><path class="cls-3" d="M17.45,30.37c.09-.49.19-1,.3-1.49C17.65,29.38,17.54,29.88,17.45,30.37Z"/><path class="cls-3" d="M17.83,28.54c.11-.51.23-1,.37-1.53C18.06,27.53,17.94,28,17.83,28.54Z"/><path class="cls-3" d="M35.71,82.66c.1-.3.18-.6.26-.91s.13-.51.18-.76l.08-.39c.16-.82.28-1.66.37-2.5-2.16-4.35-4.25-9-6-13.15-2.16-2.45-3.06-4.81-3.35-9.15l-.07-1.09a2.11,2.11,0,0,1-.85.28h0a2.74,2.74,0,0,1-.48,0h-.1a3.88,3.88,0,0,1-.6-.11,2.77,2.77,0,0,1-.56-.22l-.17-.1a3.67,3.67,0,0,1-.36-.24l-.18-.15-.33-.31-.16-.17c-.11-.13-.22-.26-.33-.4l-.12-.16q-.21-.28-.4-.59l0,0c-.14-.23-.28-.47-.41-.72a50.27,50.27,0,0,0,1.09,7.61c1.61,7.22,5,13.56,8.91,19.77a25.76,25.76,0,0,0,3.21,4.72c.13-.32.25-.63.36-1Z"/><path class="cls-3" d="M17,33.49c.12-1.07.27-2.11.46-3.13C17.27,31.38,17.12,32.43,17,33.49Z"/><path class="cls-3" d="M16.71,36.86c.05-.88.13-1.75.21-2.61C16.84,35.11,16.76,36,16.71,36.86Z"/><path class="cls-3" d="M18.22,26.94c.13-.51.28-1,.43-1.53C18.49,25.92,18.35,26.43,18.22,26.94Z"/><path class="cls-3" d="M63,85c0-.17.08-.34.12-.51,1.9-7.35,6.15-14.21,6.21-22a38.44,38.44,0,0,0-.63-7l0,.23c0,.49-.08.94-.13,1.38,0,.13,0,.26,0,.39q-.06.47-.14.91c0,.12,0,.25-.06.37-.07.37-.15.73-.24,1.08,0,.09-.05.17-.08.26-.07.26-.15.51-.24.75l-.14.37c-.08.21-.17.41-.26.61l-.15.32c-.13.26-.27.52-.42.76h0c-1.33,2.19-3.48,4.07-6.88,6.91v0c0,.29-.08.58-.11.87,0,.13,0,.26,0,.39-.51,4.68.07,9.5,2.6,13.43l0-.07A7.51,7.51,0,0,0,63,85Z"/><path class="cls-4" d="M63,85c0-.17.08-.34.12-.51,1.9-7.35,6.15-14.21,6.21-22a38.44,38.44,0,0,0-.63-7l0,.23c0,.49-.08.94-.13,1.38,0,.13,0,.26,0,.39q-.06.47-.14.91c0,.12,0,.25-.06.37-.07.37-.15.73-.24,1.08,0,.09-.05.17-.08.26-.07.26-.15.51-.24.75l-.14.37c-.08.21-.17.41-.26.61l-.15.32c-.13.26-.27.52-.42.76h0c-1.33,2.19-3.48,4.07-6.88,6.91v0c0,.29-.08.58-.11.87,0,.13,0,.26,0,.39-.51,4.68.07,9.5,2.6,13.43l0-.07A7.51,7.51,0,0,0,63,85Z"/><path class="cls-3" d="M36.82,70.56a60.17,60.17,0,0,1-6.21-5.61c1.75,4.13,3.84,8.79,6,13.15A73.21,73.21,0,0,0,36.82,70.56Z"/><path class="cls-4" d="M36.82,70.56a60.17,60.17,0,0,1-6.21-5.61c1.75,4.13,3.84,8.79,6,13.15A73.21,73.21,0,0,0,36.82,70.56Z"/><path class="cls-5" d="M5.94,98.16l.21-.31Z"/><path class="cls-5" d="M99.33,104c.24.53.47,1.08.67,1.66C99.8,105.07,99.57,104.53,99.33,104Z"/><path class="cls-5" d="M5.25,99.31,5.44,99Z"/><path class="cls-5" d="M98.41,102.21c.29.49.56,1,.81,1.54C99,103.21,98.7,102.7,98.41,102.21Z"/><path class="cls-5" d="M95.22,102.61l.19,0,.51-.09.19,0,.47-.08.14,0,.53-.08h0l.43-.05h.11l.23,0h.3s.08,0,.09,0h0a16.3,16.3,0,0,0-7.21-6.49,51.81,51.81,0,0,1,1.12,7.46Z"/><path class="cls-5" d="M7,97l.14.12.13.08.23.14.18.1.3.17.21.12.37.2.22.12.46.23.2.1.56.28.14.07.72.35h0c1.6.77,3.13,1.46,3.35,1.56a63.37,63.37,0,0,0,13,4.13,151.23,151.23,0,0,0,32.43,2.8l1.18,0h0c-1.62-7.78-1-13.44.78-20.45.22-.83.46-1.66.73-2.48-2.53-3.92-3.11-8.75-2.6-13.43a25.25,25.25,0,0,0,.2,7.43A115.71,115.71,0,0,0,34.3,85.94a15.12,15.12,0,0,0,.87-1.79l-.31.63a14.59,14.59,0,0,1-1.13,2,12,12,0,0,1-1.67,2l0,0h0a7.33,7.33,0,0,1-2.43,1.52c-1.73.65-3.55.64-5.71,1.18h-.12l-2.19.13c-5.34.39-11.13,1.43-14.64,5.26,0,0,0,.06,0,.11Zm45-1.84a.19.19,0,0,1,.16.27,6,6,0,0,1-4.18,2.58c-2,.13-3-1.26-4.67-2a.13.13,0,0,1,0-.2c.93-1,2-.38,3.11-.08C48.45,96.29,50.14,95.41,52.08,95.2Z"/><path class="cls-5" d="M35.26,83.89h0q.19-.48.35-1C35.51,83.26,35.39,83.58,35.26,83.89Z"/><path class="cls-5" d="M36.24,80.6l-.08.39Z"/><path class="cls-5" d="M36,81.75c-.08.3-.16.61-.26.91C35.8,82.36,35.89,82.06,36,81.75Z"/><path class="cls-5" d="M59.94,70c0,.29-.08.58-.11.87C59.86,70.53,59.9,70.24,59.94,70Z"/><path class="cls-3" d="M35.71,82.66l-.09.28Z"/><path class="cls-6" d="M35.71,82.66l-.09.28Z"/><path class="cls-3" d="M36.15,81c-.06.26-.12.51-.18.76C36,81.5,36.1,81.25,36.15,81Z"/><path class="cls-6" d="M36.15,81c-.06.26-.12.51-.18.76C36,81.5,36.1,81.25,36.15,81Z"/><path class="cls-3" d="M36.24,80.6q.25-1.22.38-2.48v0C36.52,78.94,36.4,79.77,36.24,80.6Z"/><path class="cls-6" d="M36.24,80.6q.25-1.22.38-2.48v0C36.52,78.94,36.4,79.77,36.24,80.6Z"/><path class="cls-3" d="M59.94,70v0h0Z"/><path class="cls-4" d="M59.94,70v0h0Z"/><path class="cls-6" d="M59.94,70v0h0Z"/><path class="cls-3" d="M36.6,78.09v0a69.88,69.88,0,0,0,.23-7.53l0,0A73.21,73.21,0,0,1,36.6,78.09Z"/><path class="cls-4" d="M36.6,78.09v0a69.88,69.88,0,0,0,.23-7.53l0,0A73.21,73.21,0,0,1,36.6,78.09Z"/><path class="cls-6" d="M36.6,78.09v0a69.88,69.88,0,0,0,.23-7.53l0,0A73.21,73.21,0,0,1,36.6,78.09Z"/><path class="cls-3" d="M59.78,71.21c0-.13,0-.26,0-.39C59.81,71,59.79,71.08,59.78,71.21Z"/><path class="cls-4" d="M59.78,71.21c0-.13,0-.26,0-.39C59.81,71,59.79,71.08,59.78,71.21Z"/><path class="cls-6" d="M59.78,71.21c0-.13,0-.26,0-.39C59.81,71,59.79,71.08,59.78,71.21Z"/><path class="cls-5" d="M59.94,70v0c-1.63,1.36-3.53,2.94-5.79,4.91a9.28,9.28,0,0,1-12.33,0c-1.89-1.65-3.53-3-5-4.23a69.88,69.88,0,0,1-.23,7.53q-.13,1.26-.38,2.48l-.08.39c-.06.26-.12.51-.18.76s-.17.61-.26.91l-.09.28q-.16.49-.35,1h0l-.11.23a15.12,15.12,0,0,1-.87,1.79A115.71,115.71,0,0,1,60,78.65a25.25,25.25,0,0,1-.2-7.43c0-.13,0-.26,0-.39C59.86,70.53,59.89,70.24,59.94,70Z"/><path class="cls-6" d="M59.94,70v0c-1.63,1.36-3.53,2.94-5.79,4.91a9.28,9.28,0,0,1-12.33,0c-1.89-1.65-3.53-3-5-4.23a69.88,69.88,0,0,1-.23,7.53q-.13,1.26-.38,2.48l-.08.39c-.06.26-.12.51-.18.76s-.17.61-.26.91l-.09.28q-.16.49-.35,1h0l-.11.23a15.12,15.12,0,0,1-.87,1.79A115.71,115.71,0,0,1,60,78.65a25.25,25.25,0,0,1-.2-7.43c0-.13,0-.26,0-.39C59.86,70.53,59.89,70.24,59.94,70Z"/><path class="cls-7" d="M4.94,100c-.09.19-.18.38-.26.58q-.37,1-.67,1.92.31-1,.67-1.92C4.77,100.34,4.86,100.15,4.94,100Z"/><path class="cls-7" d="M2.09,112.42a50.2,50.2,0,0,1,1.92-10A50.2,50.2,0,0,0,2.09,112.42Z"/><path class="cls-7" d="M97.15,111.33c-.75-2.15-1.49-4.3-2.11-6.49-.2-.69-.38-1.39-.55-2.09l.74-.14-2.9.58v0a50.92,50.92,0,0,1,0,7.33,50.13,50.13,0,0,1-.78,8.12,39.1,39.1,0,0,1-4.18,12.23c.23,1.92.5,3.85.78,5.64,4.83-1,9.77-2.25,14.83-3.75-.53-2.78-1.17-5.58-1.89-8.42C100,119.93,98.65,115.64,97.15,111.33Z"/><path class="cls-7" d="M98.32,102.18s.08,0,.09,0S98.37,102.18,98.32,102.18Z"/><path class="cls-7" d="M61.37,133.72A21.33,21.33,0,0,1,59.68,131a41.49,41.49,0,0,1-18.13-1.18A42.53,42.53,0,0,1,30,125c-3.8-1.5-7.52-3.77-8.14-7.9-1.12-7.46,6.85-8.17,12.1-7.56,7.47.88,15,1.33,22.5,1.51,1.76,0,3.51.06,5.27.07q-.49-1.84-.85-3.54l-1.18,0a151.23,151.23,0,0,1-32.43-2.8,63.37,63.37,0,0,1-13-4.13c-.23-.1-1.75-.79-3.35-1.56-5.18,9.54-7,22.7-8.67,34.23,2.57.83,6.26,1.91,10.93,3a94.21,94.21,0,0,0,1.29-13.14s1.48,5,1,13.65a175.06,175.06,0,0,0,55,2.51A14.79,14.79,0,0,1,61.37,133.72Z"/><path class="cls-7" d="M80.49,138q2.64-.44,5.34-1c-.07-1.29-.11-2.5-.1-3.62A16.32,16.32,0,0,1,80.49,138Z"/><path class="cls-7" d="M98.11,102.17h0Z"/><path class="cls-7" d="M97.79,102.19l.23,0Z"/><path class="cls-7" d="M9.47,98.43l-.2-.1Z"/><path class="cls-7" d="M8.82,98.1,8.59,98Z"/><path class="cls-7" d="M8.22,97.78,8,97.67Z"/><path class="cls-7" d="M1.6,118.57c.09-1.32.18-2.64.29-4C1.78,115.93,1.69,117.25,1.6,118.57Z"/><path class="cls-7" d="M10.17,98.78,10,98.71Z"/><path class="cls-7" d="M97.25,102.26l.43-.05Z"/><path class="cls-7" d="M95.41,102.57l.51-.09Z"/><path class="cls-7" d="M96.11,102.45l.47-.08Z"/><path class="cls-7" d="M7.3,97.25l-.13-.08Z"/><path class="cls-7" d="M7,97,7,97Z"/><path class="cls-7" d="M7.71,97.5l-.18-.1Z"/><path class="cls-7" d="M96.72,102.34l.53-.08Z"/><path class="cls-8" d="M100.73,109l.15.85c-.2-1.18-.39-2.2-.55-3,.08.38.17.83.26,1.33Z"/><path class="cls-8" d="M102.62,121.87c-.1-.76-.2-1.53-.3-2.3C102.42,120.33,102.52,121.11,102.62,121.87Z"/><path class="cls-8" d="M102.9,124.1c-.09-.73-.18-1.48-.28-2.24C102.72,122.62,102.81,123.37,102.9,124.1Z"/><path class="cls-8" d="M102.32,119.56c-.16-1.16-.32-2.32-.48-3.46l.16,1.14C102.11,118,102.21,118.79,102.32,119.56Z"/><path class="cls-8" d="M102.9,124.1c.09.73.17,1.43.25,2.11C103.07,125.53,103,124.83,102.9,124.1Z"/><path class="cls-8" d="M101,110.82c.1.63.21,1.3.32,2C101.24,112.12,101.14,111.45,101,110.82Z"/><path class="cls-8" d="M103.69,132.19c0-1.08-.23-3.28-.54-6,.27,2.36.46,4.34.52,5.52C103.68,131.9,103.69,132.05,103.69,132.19Z"/><polygon class="cls-8" points="98.42 102.21 98.41 102.21 98.42 102.21 98.42 102.21"/><path class="cls-8" d="M100.1,106c.07.25.15.57.23,1a12.08,12.08,0,0,0-.33-1.28h0C100,105.74,100.07,105.85,100.1,106Z"/><path class="cls-8" d="M101.35,112.82c.11.7.22,1.42.32,2.16C101.57,114.24,101.46,113.51,101.35,112.82Z"/><path class="cls-8" d="M103.69,132.55h0c0-.1,0-.22,0-.36,0,.13,0,.25,0,.35Z"/><path class="cls-8" d="M99.33,104h0l-.11-.24h0Z"/><path class="cls-5" d="M100,105.65h0c-.2-.58-.43-1.13-.67-1.66h0C99.57,104.52,99.8,105.07,100,105.65Z"/><path class="cls-8" d="M100,105.65h0c-.2-.58-.43-1.13-.67-1.66h0C99.57,104.52,99.8,105.07,100,105.65Z"/><path class="cls-5" d="M97.68,102.2h0Z"/><path class="cls-8" d="M97.68,102.2h0Z"/><path class="cls-5" d="M97.25,102.26h0Z"/><path class="cls-8" d="M97.25,102.26h0Z"/><path class="cls-5" d="M98,102.17h0Z"/><path class="cls-8" d="M98,102.17h0Z"/><path class="cls-5" d="M96.57,102.37l.14,0Z"/><path class="cls-8" d="M96.57,102.37l.14,0Z"/><path class="cls-5" d="M95.92,102.48l.19,0Z"/><path class="cls-8" d="M95.92,102.48l.19,0Z"/><path class="cls-5" d="M95.22,102.61l.19,0Z"/><path class="cls-8" d="M95.22,102.61l.19,0Z"/><path class="cls-5" d="M98.41,102.21c.29.49.56,1,.81,1.54h0c-.25-.53-.52-1.05-.81-1.54Z"/><path class="cls-8" d="M98.41,102.21c.29.49.56,1,.81,1.54h0c-.25-.53-.52-1.05-.81-1.54Z"/><path class="cls-5" d="M98.26,102.17h0Z"/><path class="cls-8" d="M98.26,102.17h0Z"/><path class="cls-7" d="M100,105.65c-.2-.58-.43-1.13-.67-1.66l-.11-.24c-.25-.54-.52-1.05-.81-1.54h0s0,0-.09,0H98l-.23,0h-.11l-.43.05h0l-.53.08-.14,0-.47.08-.19,0-.51.09-.19,0-.74.14c.17.7.35,1.4.55,2.09.62,2.19,1.37,4.34,2.11,6.49,1.5,4.31,2.81,8.6,3.93,13,.72,2.84,1.36,5.63,1.89,8.42l.71-.22h0c0-.1,0-.22,0-.35s0-.29,0-.46c-.06-1.18-.25-3.16-.52-5.52-.08-.67-.16-1.38-.25-2.11s-.18-1.48-.28-2.24-.2-1.53-.3-2.3-.21-1.55-.32-2.32l-.16-1.14-.16-1.12c-.11-.74-.22-1.47-.32-2.16s-.21-1.36-.32-2l-.15-.92-.15-.85-.14-.78c-.09-.5-.18-.94-.26-1.33s-.16-.71-.23-1S100,105.74,100,105.65Z"/><path class="cls-8" d="M100,105.65c-.2-.58-.43-1.13-.67-1.66l-.11-.24c-.25-.54-.52-1.05-.81-1.54h0s0,0-.09,0H98l-.23,0h-.11l-.43.05h0l-.53.08-.14,0-.47.08-.19,0-.51.09-.19,0-.74.14c.17.7.35,1.4.55,2.09.62,2.19,1.37,4.34,2.11,6.49,1.5,4.31,2.81,8.6,3.93,13,.72,2.84,1.36,5.63,1.89,8.42l.71-.22h0c0-.1,0-.22,0-.35s0-.29,0-.46c-.06-1.18-.25-3.16-.52-5.52-.08-.67-.16-1.38-.25-2.11s-.18-1.48-.28-2.24-.2-1.53-.3-2.3-.21-1.55-.32-2.32l-.16-1.14-.16-1.12c-.11-.74-.22-1.47-.32-2.16s-.21-1.36-.32-2l-.15-.92-.15-.85-.14-.78c-.09-.5-.18-.94-.26-1.33s-.16-.71-.23-1S100,105.74,100,105.65Z"/><path class="cls-8" d="M1.89,114.61c.06-.73.13-1.46.2-2.19C2,113.15,2,113.88,1.89,114.61Z"/><path class="cls-8" d="M5.25,99.31c-.11.21-.21.43-.31.65.1-.22.2-.44.31-.65Z"/><path class="cls-8" d="M5.94,98.16h0q-.26.39-.5.81h0Q5.68,98.55,5.94,98.16Z"/><path class="cls-8" d="M6.93,96.88h0a11.3,11.3,0,0,0-.78,1h0A11.28,11.28,0,0,1,6.93,96.88Z"/><path class="cls-5" d="M9.28,98.34l-.46-.23Z"/><path class="cls-8" d="M9.28,98.34l-.46-.23Z"/><path class="cls-5" d="M10.17,98.78l.72.35h0Z"/><path class="cls-8" d="M10.17,98.78l.72.35h0Z"/><path class="cls-5" d="M10,98.71l-.56-.28Z"/><path class="cls-8" d="M10,98.71l-.56-.28Z"/><path class="cls-5" d="M5.44,99h0l-.19.34h0Z"/><path class="cls-8" d="M5.44,99h0l-.19.34h0Z"/><path class="cls-5" d="M6.16,97.85h0l-.21.31h0Z"/><path class="cls-8" d="M6.16,97.85h0l-.21.31h0Z"/><path class="cls-5" d="M8.59,98l-.37-.2Z"/><path class="cls-8" d="M8.59,98l-.37-.2Z"/><path class="cls-5" d="M7,97s-.06-.08,0-.11h0S6.93,96.94,7,97Z"/><path class="cls-8" d="M7,97s-.06-.08,0-.11h0S6.93,96.94,7,97Z"/><path class="cls-5" d="M7.18,97.16,7,97Z"/><path class="cls-8" d="M7.18,97.16,7,97Z"/><path class="cls-5" d="M7.53,97.39l-.23-.14Z"/><path class="cls-8" d="M7.53,97.39l-.23-.14Z"/><path class="cls-5" d="M8,97.67l-.3-.17Z"/><path class="cls-8" d="M8,97.67l-.3-.17Z"/><path class="cls-7" d="M2.22,133.36c1.69-11.53,3.49-24.69,8.67-34.23l-.72-.35L10,98.71l-.56-.28-.2-.1-.46-.23L8.59,98l-.37-.2L8,97.67l-.3-.17-.18-.1-.23-.14-.13-.08L7,97,7,97s-.06-.08,0-.11h0a11.28,11.28,0,0,0-.78,1l-.21.31q-.26.39-.5.81l-.19.34c-.11.21-.21.43-.31.65s-.18.38-.26.58q-.37,1-.67,1.92a50.2,50.2,0,0,0-1.92,10c-.08.73-.14,1.46-.2,2.19-.11,1.32-.2,2.63-.29,4l-.14,2.05a82,82,0,0,1-1.46,12C.61,132.82,1.35,133.08,2.22,133.36Z"/><path class="cls-8" d="M2.22,133.36c1.69-11.53,3.49-24.69,8.67-34.23l-.72-.35L10,98.71l-.56-.28-.2-.1-.46-.23L8.59,98l-.37-.2L8,97.67l-.3-.17-.18-.1-.23-.14-.13-.08L7,97,7,97s-.06-.08,0-.11h0a11.28,11.28,0,0,0-.78,1l-.21.31q-.26.39-.5.81l-.19.34c-.11.21-.21.43-.31.65s-.18.38-.26.58q-.37,1-.67,1.92a50.2,50.2,0,0,0-1.92,10c-.08.73-.14,1.46-.2,2.19-.11,1.32-.2,2.63-.29,4l-.14,2.05a82,82,0,0,1-1.46,12C.61,132.82,1.35,133.08,2.22,133.36Z"/><path class="cls-9" d="M85.72,133.37c0,1.12,0,2.33.1,3.62l2.32-.47c-.28-1.79-.55-3.71-.78-5.64A23,23,0,0,1,85.72,133.37Z"/><path class="cls-5" d="M26.74,30.05l0,0q-.05.65-.1,1.35Q26.67,30.72,26.74,30.05Z"/><path class="cls-5" d="M68.11,59.92c0,.09-.05.17-.08.26C68.06,60.1,68.09,60,68.11,59.92Z"/><path class="cls-5" d="M68.42,58.48c0,.12,0,.25-.06.37C68.38,58.73,68.4,58.6,68.42,58.48Z"/><path class="cls-5" d="M67.8,60.93l-.14.37Z"/><path class="cls-5" d="M67.4,61.91l-.15.32Z"/><path class="cls-5" d="M68.6,57.18c0,.13,0,.26,0,.39C68.57,57.44,68.59,57.31,68.6,57.18Z"/><path class="cls-3" d="M26.46,34l0-.06q0-1.31.11-2.49C26.55,32.25,26.49,33.1,26.46,34Z"/><path class="cls-6" d="M26.46,34l0-.06q0-1.31.11-2.49C26.55,32.25,26.49,33.1,26.46,34Z"/><path class="cls-5" d="M26.5,33.94A43.26,43.26,0,0,1,39.29,21.32c-.42.2-.81.39-1.16.59-.89.51-1.77,1-2.63,1.44h0A28.2,28.2,0,0,0,28,28.58h0a16.6,16.6,0,0,0-1.23,1.47q-.07.67-.13,1.39Q26.54,32.62,26.5,33.94Z"/><path class="cls-6" d="M26.5,33.94A43.26,43.26,0,0,1,39.29,21.32c-.42.2-.81.39-1.16.59-.89.51-1.77,1-2.63,1.44h0A28.2,28.2,0,0,0,28,28.58h0a16.6,16.6,0,0,0-1.23,1.47q-.07.67-.13,1.39Q26.54,32.62,26.5,33.94Z"/><path class="cls-3" d="M68,60.18q-.11.38-.24.75C67.88,60.69,68,60.44,68,60.18Z"/><path class="cls-4" d="M68,60.18q-.11.38-.24.75C67.88,60.69,68,60.44,68,60.18Z"/><path class="cls-6" d="M68,60.18q-.11.38-.24.75C67.88,60.69,68,60.44,68,60.18Z"/><path class="cls-3" d="M68.35,58.85c-.07.37-.15.73-.24,1.08C68.2,59.58,68.28,59.22,68.35,58.85Z"/><path class="cls-4" d="M68.35,58.85c-.07.37-.15.73-.24,1.08C68.2,59.58,68.28,59.22,68.35,58.85Z"/><path class="cls-6" d="M68.35,58.85c-.07.37-.15.73-.24,1.08C68.2,59.58,68.28,59.22,68.35,58.85Z"/><path class="cls-3" d="M67.66,61.3c-.08.21-.17.41-.26.61C67.49,61.71,67.58,61.51,67.66,61.3Z"/><path class="cls-4" d="M67.66,61.3c-.08.21-.17.41-.26.61C67.49,61.71,67.58,61.51,67.66,61.3Z"/><path class="cls-6" d="M67.66,61.3c-.08.21-.17.41-.26.61C67.49,61.71,67.58,61.51,67.66,61.3Z"/><path class="cls-3" d="M66.83,63c.15-.25.29-.5.42-.76-.13.26-.27.51-.42.76Z"/><path class="cls-4" d="M66.83,63c.15-.25.29-.5.42-.76-.13.26-.27.51-.42.76Z"/><path class="cls-6" d="M66.83,63c.15-.25.29-.5.42-.76-.13.26-.27.51-.42.76Z"/><path class="cls-3" d="M68.55,57.57c0,.31-.09.62-.14.91Q68.49,58,68.55,57.57Z"/><path class="cls-4" d="M68.55,57.57c0,.31-.09.62-.14.91Q68.49,58,68.55,57.57Z"/><path class="cls-6" d="M68.55,57.57c0,.31-.09.62-.14.91Q68.49,58,68.55,57.57Z"/><path class="cls-3" d="M68.73,55.8c0,.49-.08.94-.13,1.38C68.65,56.74,68.69,56.29,68.73,55.8Z"/><path class="cls-4" d="M68.73,55.8c0,.49-.08.94-.13,1.38C68.65,56.74,68.69,56.29,68.73,55.8Z"/><path class="cls-6" d="M68.73,55.8c0,.49-.08.94-.13,1.38C68.65,56.74,68.69,56.29,68.73,55.8Z"/><path class="cls-5" d="M61.08,35.44a53.57,53.57,0,0,0-7.79-8.21,49.74,49.74,0,0,1-4.56-4.44,26.17,26.17,0,0,1-3-3.69c1.68,6.81,7.2,11.48,11.84,16.68A13.9,13.9,0,0,1,61.08,35.44Z"/><path class="cls-6" d="M61.08,35.44a53.57,53.57,0,0,0-7.79-8.21,49.74,49.74,0,0,1-4.56-4.44,26.17,26.17,0,0,1-3-3.69c1.68,6.81,7.2,11.48,11.84,16.68A13.9,13.9,0,0,1,61.08,35.44Z"/><path class="cls-5" d="M65.88,43.25l-.25-.5a4,4,0,0,1-.22.39A2.29,2.29,0,0,0,65.88,43.25Z"/><path class="cls-6" d="M65.88,43.25l-.25-.5a4,4,0,0,1-.22.39A2.29,2.29,0,0,0,65.88,43.25Z"/><path class="cls-5" d="M63.64,39.17c-.46-.74-1-1.48-1.47-2.23a22,22,0,0,0-3.13.57q.71.87,1.37,1.77A7.35,7.35,0,0,1,63.64,39.17Z"/><path class="cls-6" d="M63.64,39.17c-.46-.74-1-1.48-1.47-2.23a22,22,0,0,0-3.13.57q.71.87,1.37,1.77A7.35,7.35,0,0,1,63.64,39.17Z"/><path class="cls-5" d="M64,44.58a4.72,4.72,0,0,1-.55.35A34,34,0,0,1,64.78,49l.39.13a1,1,0,0,1,.46-.21,1.71,1.71,0,0,1,.35,0,.72.72,0,0,1,.38.11h0a.73.73,0,0,1,.5.8.71.71,0,0,1-.13.32,2.57,2.57,0,0,1,.43,3.18,7.94,7.94,0,0,1-1.28,1.81c.21,1.45.4,2.89.58,4.3.15,1.19.26,2.38.31,3.57.15-.25.29-.5.42-.76l.15-.32c.09-.2.18-.4.26-.61l.14-.37q.13-.36.24-.75c0-.09.05-.17.08-.26.09-.34.17-.7.24-1.08,0-.12,0-.24.06-.37,0-.29.1-.59.14-.91,0-.13,0-.26,0-.39,0-.44.09-.89.13-1.38l0-.23C68.07,51.7,67,48,66.1,44.08A3.71,3.71,0,0,1,64,44.58Z"/><path class="cls-6" d="M64,44.58a4.72,4.72,0,0,1-.55.35A34,34,0,0,1,64.78,49l.39.13a1,1,0,0,1,.46-.21,1.71,1.71,0,0,1,.35,0,.72.72,0,0,1,.38.11h0a.73.73,0,0,1,.5.8.71.71,0,0,1-.13.32,2.57,2.57,0,0,1,.43,3.18,7.94,7.94,0,0,1-1.28,1.81c.21,1.45.4,2.89.58,4.3.15,1.19.26,2.38.31,3.57.15-.25.29-.5.42-.76l.15-.32c.09-.2.18-.4.26-.61l.14-.37q.13-.36.24-.75c0-.09.05-.17.08-.26.09-.34.17-.7.24-1.08,0-.12,0-.24.06-.37,0-.29.1-.59.14-.91,0-.13,0-.26,0-.39,0-.44.09-.89.13-1.38l0-.23C68.07,51.7,67,48,66.1,44.08A3.71,3.71,0,0,1,64,44.58Z"/><path class="cls-5" d="M48,58.5a4.88,4.88,0,0,0,3.4-2.1.15.15,0,0,0-.13-.22c-1.57.17-2.94.89-4.56.45-.89-.24-1.77-.72-2.52.06a.11.11,0,0,0,0,.17C45.58,57.48,46.41,58.61,48,58.5Z"/><path class="cls-6" d="M48,58.5a4.88,4.88,0,0,0,3.4-2.1.15.15,0,0,0-.13-.22c-1.57.17-2.94.89-4.56.45-.89-.24-1.77-.72-2.52.06a.11.11,0,0,0,0,.17C45.58,57.48,46.41,58.61,48,58.5Z"/><path class="cls-5" d="M46.46,95.75c-1.1-.3-2.18-.89-3.11.08a.13.13,0,0,0,0,.2c1.67.77,2.69,2.16,4.67,2a6,6,0,0,0,4.18-2.58.19.19,0,0,0-.16-.27C50.14,95.41,48.45,96.29,46.46,95.75Z"/><path class="cls-6" d="M46.46,95.75c-1.1-.3-2.18-.89-3.11.08a.13.13,0,0,0,0,.2c1.67.77,2.69,2.16,4.67,2a6,6,0,0,0,4.18-2.58.19.19,0,0,0-.16-.27C50.14,95.41,48.45,96.29,46.46,95.75Z"/><path class="cls-5" d="M46.45,55.48a2,2,0,0,0,.32.14.72.72,0,0,0,.37,0h.07A.71.71,0,0,0,47.9,55a.73.73,0,0,0-.5-.8h0a.73.73,0,0,0-.38-.11,1.71,1.71,0,0,0-.35,0,.85.85,0,0,0-.57.29.59.59,0,0,0-.08.64A.87.87,0,0,0,46.45,55.48Z"/><path class="cls-10" d="M46.45,55.48a2,2,0,0,0,.32.14.72.72,0,0,0,.37,0h.07A.71.71,0,0,0,47.9,55a.73.73,0,0,0-.5-.8h0a.73.73,0,0,0-.38-.11,1.71,1.71,0,0,0-.35,0,.85.85,0,0,0-.57.29.59.59,0,0,0-.08.64A.87.87,0,0,0,46.45,55.48Z"/><path class="cls-5" d="M31.38,49.21a.74.74,0,0,0-.29-.19h0a.72.72,0,0,0-.38-.11,1.71,1.71,0,0,0-.35,0,.85.85,0,0,0-.57.29.59.59,0,0,0-.08.64.68.68,0,0,0,.23.28A4.31,4.31,0,0,1,31.38,49.21Z"/><path class="cls-10" d="M31.38,49.21a.74.74,0,0,0-.29-.19h0a.72.72,0,0,0-.38-.11,1.71,1.71,0,0,0-.35,0,.85.85,0,0,0-.57.29.59.59,0,0,0-.08.64.68.68,0,0,0,.23.28A4.31,4.31,0,0,1,31.38,49.21Z"/><path class="cls-5" d="M66.79,50.14a.71.71,0,0,0,.13-.32.73.73,0,0,0-.5-.8h0a.72.72,0,0,0-.38-.11,1.71,1.71,0,0,0-.35,0,1,1,0,0,0-.46.21A4.44,4.44,0,0,1,66.79,50.14Z"/><path class="cls-6" d="M66.79,50.14a.71.71,0,0,0,.13-.32.73.73,0,0,0-.5-.8h0a.72.72,0,0,0-.38-.11,1.71,1.71,0,0,0-.35,0,1,1,0,0,0-.46.21A4.44,4.44,0,0,1,66.79,50.14Z"/><path class="cls-10" d="M66.79,50.14a.71.71,0,0,0,.13-.32.73.73,0,0,0-.5-.8h0a.72.72,0,0,0-.38-.11,1.71,1.71,0,0,0-.35,0,1,1,0,0,0-.46.21A4.44,4.44,0,0,1,66.79,50.14Z"/><path class="cls-3" d="M33.12,36.89c3.72.3,6.73,1.71,8.45,2.06s2.48-1.63.83-2.11c-7.09-2.07-7.81-1.46-11.71-.78C25.42,37,32.12,36.81,33.12,36.89Z"/><path class="cls-5" d="M41,45l.08,0L41,44.9Z"/><path class="cls-6" d="M41,45l.08,0L41,44.9Z"/><path class="cls-5" d="M32.13,44.53c-.12,0-.25,0-.37,0a4.7,4.7,0,0,0,.57.36c-.06-.1-.12-.2-.17-.3A1.09,1.09,0,0,1,32.13,44.53Z"/><path class="cls-6" d="M32.13,44.53c-.12,0-.25,0-.37,0a4.7,4.7,0,0,0,.57.36c-.06-.1-.12-.2-.17-.3A1.09,1.09,0,0,1,32.13,44.53Z"/><path class="cls-5" d="M35.79,41.23a6.2,6.2,0,0,1,5.84,3.54.41.41,0,0,1,0,.19.45.45,0,0,0,.28-.58A4.58,4.58,0,0,0,41,42.72c-1.78-2.92-8.69-5.24-10.73-2.41a2.43,2.43,0,0,0,.11,2.82,10.62,10.62,0,0,0,1.6-.85A8.18,8.18,0,0,1,35.79,41.23Z"/><path class="cls-6" d="M35.79,41.23a6.2,6.2,0,0,1,5.84,3.54.41.41,0,0,1,0,.19.45.45,0,0,0,.28-.58A4.58,4.58,0,0,0,41,42.72c-1.78-2.92-8.69-5.24-10.73-2.41a2.43,2.43,0,0,0,.11,2.82,10.62,10.62,0,0,0,1.6-.85A8.18,8.18,0,0,1,35.79,41.23Z"/><path class="cls-11" d="M39.27,43.56a2.43,2.43,0,0,1,.22.48,2.16,2.16,0,0,1-.56,2.14,2.35,2.35,0,0,1-.58.44,3.85,3.85,0,0,1-3.86-.37,2.81,2.81,0,0,1-.41-.36,1.6,1.6,0,0,1-.41-1.83l-.59.23a4,4,0,0,1-.94.24,1.09,1.09,0,0,0,0,.11c0,.1.11.2.17.3a4.72,4.72,0,0,0,3.6,2.31c1.6.16,4.09-.47,4.87-1.82A1.67,1.67,0,0,0,41,45V44.9A4.54,4.54,0,0,0,39.27,43.56Z"/><path class="cls-12" d="M34.07,45.89a2.81,2.81,0,0,0,.41.36,3.85,3.85,0,0,0,3.86.37,2.35,2.35,0,0,0,.58-.44A2.16,2.16,0,0,0,39.49,44a2.43,2.43,0,0,0-.22-.48,4.2,4.2,0,0,0-.93-.27,1.67,1.67,0,0,1,.14.37.41.41,0,0,1,.07.81,1.72,1.72,0,0,1-.37,1.23,1.58,1.58,0,0,1-.39.29,2.58,2.58,0,0,1-2.59-.25,1.17,1.17,0,0,1-.28-.24c-.05-.07-.08-.14-.12-.21a.55.55,0,0,1-.22-.4s0-.05,0-.08a1.51,1.51,0,0,1,.05-1.09l-1,.34A1.6,1.6,0,0,0,34.07,45.89Z"/><path class="cls-3" d="M34.58,44.82a1.22,1.22,0,0,1,.67-1.11c.16-.06.41-.06.49.12a1.68,1.68,0,0,1,0,1.22.61.61,0,0,1-1,.25c0,.07.07.14.12.21a1.17,1.17,0,0,0,.28.24,2.58,2.58,0,0,0,2.59.25,1.58,1.58,0,0,0,.39-.29,1.72,1.72,0,0,0,.37-1.23l-.08,0a.42.42,0,1,1,0-.83h0a1.67,1.67,0,0,0-.14-.37,7.92,7.92,0,0,0-3.71.44A1.51,1.51,0,0,0,34.58,44.82Z"/><path class="cls-13" d="M28.72,43.18a3.48,3.48,0,0,0,3,1.4c.12,0,.25,0,.37,0a4,4,0,0,0,.94-.24l.59-.23,1-.34a7.92,7.92,0,0,1,3.71-.44,4.2,4.2,0,0,1,.93.27A4.54,4.54,0,0,1,41,44.9l.07.08.07.08c.19.25.52.16.53-.1a.41.41,0,0,0,0-.19,6.2,6.2,0,0,0-5.84-3.54A8.18,8.18,0,0,0,32,42.29a10.62,10.62,0,0,1-1.6.85A1.62,1.62,0,0,1,28.79,43a.1.1,0,0,0-.16.08A1.36,1.36,0,0,1,28.72,43.18Z"/><path class="cls-11" d="M35.77,45a1.68,1.68,0,0,0,0-1.22c-.08-.17-.33-.18-.49-.12a1.22,1.22,0,0,0-.67,1.11s0,.05,0,.08a.55.55,0,0,0,.22.4A.61.61,0,0,0,35.77,45Z"/><path class="cls-11" d="M38.46,44.48l.08,0a.41.41,0,0,0-.07-.81h0A.42.42,0,1,0,38.46,44.48Z"/><path class="cls-5" d="M63.48,44.93h0Z"/><path class="cls-6" d="M63.48,44.93h0Z"/><path class="cls-5" d="M54.74,45l.08,0V44.9Z"/><path class="cls-6" d="M54.74,45l.08,0V44.9Z"/><path class="cls-5" d="M54.19,44.77A6.2,6.2,0,0,1,60,41.23a7.87,7.87,0,0,1,1.84.27c-.45-.76-.94-1.5-1.46-2.22-2.32.54-4.67,1.91-5.61,3.44a4.58,4.58,0,0,0-.93,1.66.45.45,0,0,0,.28.58A.4.4,0,0,1,54.19,44.77Z"/><path class="cls-6" d="M54.19,44.77A6.2,6.2,0,0,1,60,41.23a7.87,7.87,0,0,1,1.84.27c-.45-.76-.94-1.5-1.46-2.22-2.32.54-4.67,1.91-5.61,3.44a4.58,4.58,0,0,0-.93,1.66.45.45,0,0,0,.28.58A.4.4,0,0,1,54.19,44.77Z"/><path class="cls-5" d="M63.68,44.53a1.06,1.06,0,0,1,0,.11c0,.09-.1.18-.15.27h0a4.72,4.72,0,0,0,.55-.35C63.92,44.57,63.8,44.54,63.68,44.53Z"/><path class="cls-6" d="M63.68,44.53a1.06,1.06,0,0,1,0,.11c0,.09-.1.18-.15.27h0a4.72,4.72,0,0,0,.55-.35C63.92,44.57,63.8,44.54,63.68,44.53Z"/><path class="cls-6" d="M63.68,44.53a1.06,1.06,0,0,1,0,.11c0,.09-.1.18-.15.27h0a4.72,4.72,0,0,0,.55-.35C63.92,44.57,63.8,44.54,63.68,44.53Z"/><path class="cls-5" d="M60.4,39.29c.52.72,1,1.46,1.46,2.22a8.4,8.4,0,0,1,1.94.78,10.62,10.62,0,0,0,1.6.85,4,4,0,0,0,.22-.39c-.59-1.18-1.24-2.37-2-3.58A7.35,7.35,0,0,0,60.4,39.29Z"/><path class="cls-6" d="M60.4,39.29c.52.72,1,1.46,1.46,2.22a8.4,8.4,0,0,1,1.94.78,10.62,10.62,0,0,0,1.6.85,4,4,0,0,0,.22-.39c-.59-1.18-1.24-2.37-2-3.58A7.35,7.35,0,0,0,60.4,39.29Z"/><path class="cls-6" d="M60.4,39.29c.52.72,1,1.46,1.46,2.22a8.4,8.4,0,0,1,1.94.78,10.62,10.62,0,0,0,1.6.85,4,4,0,0,0,.22-.39c-.59-1.18-1.24-2.37-2-3.58A7.35,7.35,0,0,0,60.4,39.29Z"/><path class="cls-11" d="M63.64,44.63a1.06,1.06,0,0,0,0-.11,4,4,0,0,1-.94-.24l-.59-.23a1.6,1.6,0,0,1-.41,1.83,2.81,2.81,0,0,1-.41.36,3.85,3.85,0,0,1-3.86.37,2.36,2.36,0,0,1-.58-.44A2.16,2.16,0,0,1,56.32,44a2.43,2.43,0,0,1,.22-.48,4.54,4.54,0,0,0-1.73,1.34V45a1.67,1.67,0,0,0,.18.46c.78,1.34,3.28,2,4.87,1.82a4.72,4.72,0,0,0,3.6-2.31v0C63.54,44.82,63.6,44.73,63.64,44.63Z"/><path class="cls-12" d="M56.88,46.18a2.36,2.36,0,0,0,.58.44,3.85,3.85,0,0,0,3.86-.37,2.81,2.81,0,0,0,.41-.36,1.6,1.6,0,0,0,.41-1.83l-1-.34v0a.41.41,0,0,1,.12.67,2,2,0,0,1-.41,1.08,1.17,1.17,0,0,1-.28.24A2.58,2.58,0,0,1,58,46a1.58,1.58,0,0,1-.39-.29,1.08,1.08,0,0,1-.18-.26A.57.57,0,0,1,57.1,45a1.31,1.31,0,0,1,.16-.7,2,2,0,0,1,.21-1,4.21,4.21,0,0,0-.93.27,2.43,2.43,0,0,0-.22.48A2.16,2.16,0,0,0,56.88,46.18Z"/><path class="cls-3" d="M57.78,43.77c.16-.06.41-.06.49.12a1.68,1.68,0,0,1,0,1.22.6.6,0,0,1-.84.33,1.08,1.08,0,0,0,.18.26A1.58,1.58,0,0,0,58,46a2.58,2.58,0,0,0,2.59-.25,1.17,1.17,0,0,0,.28-.24,2,2,0,0,0,.41-1.08.44.44,0,0,1-.32.12.42.42,0,1,1,0-.83.49.49,0,0,1,.2,0v0a7.92,7.92,0,0,0-3.71-.44,2,2,0,0,0-.21,1A1,1,0,0,1,57.78,43.77Z"/><path class="cls-13" d="M63.8,42.29a8.4,8.4,0,0,0-1.94-.78A7.87,7.87,0,0,0,60,41.23a6.2,6.2,0,0,0-5.84,3.54.4.4,0,0,0,0,.19c0,.26.34.35.53.1l.07-.08.07-.08a4.54,4.54,0,0,1,1.73-1.34,4.21,4.21,0,0,1,.93-.27,7.92,7.92,0,0,1,3.71.44l1,.34.59.23a4,4,0,0,0,.94.24c.12,0,.25,0,.37,0a3.71,3.71,0,0,0,2.05-.5c-.05-.24-.11-.47-.17-.71l-.06-.12a2.29,2.29,0,0,1-.47-.11A10.62,10.62,0,0,1,63.8,42.29Z"/><path class="cls-11" d="M58.29,45.11a1.68,1.68,0,0,0,0-1.22c-.08-.17-.33-.18-.49-.12a1,1,0,0,0-.52.49,1.31,1.31,0,0,0-.16.7.57.57,0,0,0,.36.48A.6.6,0,0,0,58.29,45.11Z"/><path class="cls-11" d="M61,44.55a.44.44,0,0,0,.32-.12.41.41,0,0,0-.12-.67.49.49,0,0,0-.2,0A.42.42,0,1,0,61,44.55Z"/><path class="cls-7" d="M61.71,111.1c-1.76,0-3.51,0-5.27-.07-7.52-.19-15-.63-22.5-1.51-5.25-.62-13.23.1-12.1,7.56.62,4.13,4.34,6.4,8.14,7.9a42.53,42.53,0,0,0,11.57,4.83A41.49,41.49,0,0,0,59.68,131a15.76,15.76,0,0,1-.91-2.05c0-.13-.61-2-.14-1.48a4.83,4.83,0,0,0,1.19,1,15.83,15.83,0,0,1-.94-2.12c0-.13-.61-2-.14-1.48,3,3.39,5.38-.3,6-3.4a28.38,28.38,0,0,0-1.72-6C62.51,113.92,62.08,112.48,61.71,111.1Z"/><path class="cls-14" d="M61.71,111.1c-1.76,0-3.51,0-5.27-.07-7.52-.19-15-.63-22.5-1.51-5.25-.62-13.23.1-12.1,7.56.62,4.13,4.34,6.4,8.14,7.9a42.53,42.53,0,0,0,11.57,4.83A41.49,41.49,0,0,0,59.68,131a15.76,15.76,0,0,1-.91-2.05c0-.13-.61-2-.14-1.48a4.83,4.83,0,0,0,1.19,1,15.83,15.83,0,0,1-.94-2.12c0-.13-.61-2-.14-1.48,3,3.39,5.38-.3,6-3.4a28.38,28.38,0,0,0-1.72-6C62.51,113.92,62.08,112.48,61.71,111.1Z"/><path class="cls-15" d="M20.79,19.46c.42.19.86.38,1.3.55a58.26,58.26,0,0,0,7.41,2.24l-.29.34a32,32,0,0,1,2.22-2.3,37.79,37.79,0,0,0-5.1,10.3l.07-.11.3-.4,0,0A16.6,16.6,0,0,1,28,28.58l-.81-.25a41.11,41.11,0,0,1,2.9-5.94c1.8.4,3.62.72,5.45,1,.86-.46,1.74-.93,2.63-1.44.34-.2.74-.39,1.16-.59,1.7-.81,3.94-1.67,6.09-2.7l.31.47a26.17,26.17,0,0,0,3,3.69A58.45,58.45,0,0,0,58,29.94c.49.33,1,.68,1.42,1-.46-.36-.93-.71-1.42-1a67.51,67.51,0,0,1-8.36-6.23,82.29,82.29,0,0,0,17.42-3.28,21,21,0,0,1,5.16,9.45c-1.27-4.47-3.4-8.69-7.43-11.29a9.57,9.57,0,0,1,2.83,1.68,91.68,91.68,0,0,0,10.19-3.81c-.12-.21-.23-.42-.35-.63l-.38-.61q-.54-.88-1.13-1.72l-.45-.64c-.53-.73-1.08-1.45-1.67-2.14A28.33,28.33,0,0,0,70.64,7.5a24.51,24.51,0,0,0-4.12-2.84L65.45,4.1A37.78,37.78,0,0,0,55.2.39C54.79.31,54.38.23,54,.18H53.9l-.8-.09H53a11.8,11.8,0,0,0-5.07.51l-.38.14-.05,0-.09,0a7.81,7.81,0,0,0-.89.47c-.2.12-.38.26-.56.39l-.26.2-.11.08c-3.46,2.93-3.51,8.54-2,13A14.59,14.59,0,0,1,43,13a9.08,9.08,0,0,1-.66-1.43h0a8.1,8.1,0,0,1-.27-.9v-.08h0A12.8,12.8,0,0,1,42.74,3c-8.52.58-15.63,6.06-20.32,13.12l-.3.48a52.19,52.19,0,0,0-2.25,5.15l0,.06q-.32.85-.6,1.7v0c-.14.42-.27.83-.39,1.25A54,54,0,0,1,20.79,19.46Z"/><path class="cls-15" d="M16.67,44.35c0,.35.09.7.14,1.05A121.89,121.89,0,0,0,25.7,76.51C27.45,80.43,29.93,85,32,88.79h0l0,0a14.84,14.84,0,0,0,2.8-4l.31-.63.11-.23h0a25.76,25.76,0,0,1-3.21-4.72C28.15,73,24.76,66.62,23.15,59.4a50.27,50.27,0,0,1-1.09-7.61A20.45,20.45,0,0,1,20.16,46c-.34-2.2-.72-5,1.55-6.11a31.82,31.82,0,0,1,3.82-12.12c-.5-.18-1-.34-1.5-.53s-1.22-.47-1.82-.71l-.53-.28-2.84-1.47-.13.4-.07.23c-.15.51-.29,1-.43,1.53l0,.07c-.13.51-.25,1-.37,1.53l-.07.33c-.11.5-.21,1-.3,1.49-.18,1-.33,2.06-.46,3.13,0,.25,0,.51-.07.76-.09.86-.16,1.72-.21,2.61,0,.05,0,.1,0,.16C16.57,39.39,16.56,41.84,16.67,44.35Z"/><path class="cls-15" d="M27.38,24.89l-.29.42Z"/><path class="cls-15" d="M26.39,26.33l-.17.27Z"/><path class="cls-15" d="M28.09,23.95l.38-.48Z"/><path class="cls-3" d="M63,85a7.51,7.51,0,0,1-.65-.46l0,.07c.18.28.36.55.56.82Z"/><path class="cls-4" d="M63,85a7.51,7.51,0,0,1-.65-.46l0,.07c.18.28.36.55.56.82Z"/><path class="cls-6" d="M63,85a7.51,7.51,0,0,1-.65-.46l0,.07c.18.28.36.55.56.82Z"/><path class="cls-5" d="M62.94,85.46c-.2-.27-.38-.54-.56-.82-.27.82-.52,1.65-.73,2.48-1.81,7-2.4,12.66-.78,20.45l1.14-.05A57.42,57.42,0,0,1,62.94,85.46Z"/><path class="cls-6" d="M62.94,85.46c-.2-.27-.38-.54-.56-.82-.27.82-.52,1.65-.73,2.48-1.81,7-2.4,12.66-.78,20.45l1.14-.05A57.42,57.42,0,0,1,62.94,85.46Z"/><path class="cls-5" d="M62,107.52l-1.14.05h0l1.14,0Z"/><path class="cls-16" d="M62,107.52l-1.14.05h0l1.14,0Z"/><path class="cls-7" d="M91.55,118.65a50.13,50.13,0,0,0,.78-8.12c-.06.81-.11,1.63-.21,2.44v0h0c-.12,1-.27,2-.45,3.05a38.27,38.27,0,0,1-4.51,12.78q.1,1,.22,2A39.1,39.1,0,0,0,91.55,118.65Z"/><path class="cls-16" d="M91.55,118.65a50.13,50.13,0,0,0,.78-8.12c-.06.81-.11,1.63-.21,2.44v0h0c-.12,1-.27,2-.45,3.05a38.27,38.27,0,0,1-4.51,12.78q.1,1,.22,2A39.1,39.1,0,0,0,91.55,118.65Z"/><path class="cls-7" d="M61.71,111.1h1q-.4-1.78-.68-3.58l-1.14,0Q61.21,109.26,61.71,111.1Z"/><path class="cls-16" d="M61.71,111.1h1q-.4-1.78-.68-3.58l-1.14,0Q61.21,109.26,61.71,111.1Z"/><path class="cls-7" d="M85.72,133.37c0-.9,0-1.75.06-2.54a16.16,16.16,0,0,1-5.45,4.67c-.08.06-.15.14-.23.2a3,3,0,0,1-1,.37,14.64,14.64,0,0,1-4.48,1,15.2,15.2,0,0,1-13.11-5.92l-.28-.41-.2,0c-.44.09-.88.15-1.32.23a21.33,21.33,0,0,0,1.69,2.73,14.79,14.79,0,0,0,9.08,5.63q4.91-.54,10-1.39A16.32,16.32,0,0,0,85.72,133.37Z"/><path class="cls-16" d="M85.72,133.37c0-.9,0-1.75.06-2.54a16.16,16.16,0,0,1-5.45,4.67c-.08.06-.15.14-.23.2a3,3,0,0,1-1,.37,14.64,14.64,0,0,1-4.48,1,15.2,15.2,0,0,1-13.11-5.92l-.28-.41-.2,0c-.44.09-.88.15-1.32.23a21.33,21.33,0,0,0,1.69,2.73,14.79,14.79,0,0,0,9.08,5.63q4.91-.54,10-1.39A16.32,16.32,0,0,0,85.72,133.37Z"/><path class="cls-9" d="M85.72,133.37a23,23,0,0,0,1.65-2.49q-.12-1-.22-2a22.45,22.45,0,0,1-1.36,2C85.75,131.62,85.73,132.47,85.72,133.37Z"/><path class="cls-16" d="M85.72,133.37a23,23,0,0,0,1.65-2.49q-.12-1-.22-2a22.45,22.45,0,0,1-1.36,2C85.75,131.62,85.73,132.47,85.72,133.37Z"/><path class="cls-7" d="M61.71,111.1c.37,1.38.8,2.82,1.3,4.36a28.38,28.38,0,0,1,1.72,6,8.47,8.47,0,0,0,.13-.89c.24-2.85-1-5.07-1.74-7.7q-.23-.87-.43-1.76Z"/><path class="cls-14" d="M61.71,111.1c.37,1.38.8,2.82,1.3,4.36a28.38,28.38,0,0,1,1.72,6,8.47,8.47,0,0,0,.13-.89c.24-2.85-1-5.07-1.74-7.7q-.23-.87-.43-1.76Z"/><path class="cls-16" d="M61.71,111.1c.37,1.38.8,2.82,1.3,4.36a28.38,28.38,0,0,1,1.72,6,8.47,8.47,0,0,0,.13-.89c.24-2.85-1-5.07-1.74-7.7q-.23-.87-.43-1.76Z"/><path class="cls-7" d="M58.77,128.93a15.76,15.76,0,0,0,.91,2.05c.44-.07.88-.14,1.32-.23l.2,0a20.9,20.9,0,0,1-1.37-2.25,4.83,4.83,0,0,1-1.19-1C58.16,126.93,58.73,128.8,58.77,128.93Z"/><path class="cls-14" d="M58.77,128.93a15.76,15.76,0,0,0,.91,2.05c.44-.07.88-.14,1.32-.23l.2,0a20.9,20.9,0,0,1-1.37-2.25,4.83,4.83,0,0,1-1.19-1C58.16,126.93,58.73,128.8,58.77,128.93Z"/><path class="cls-16" d="M58.77,128.93a15.76,15.76,0,0,0,.91,2.05c.44-.07.88-.14,1.32-.23l.2,0a20.9,20.9,0,0,1-1.37-2.25,4.83,4.83,0,0,1-1.19-1C58.16,126.93,58.73,128.8,58.77,128.93Z"/><path class="cls-3" d="M21.8,39.84a4.09,4.09,0,0,1,3.54.09,5.38,5.38,0,0,1,1.16.8c-.06-2.53-.06-4.78,0-6.79l0,.06c0-.9.09-1.75.15-2.56q0-.7.1-1.35l-.3.4-.07.11a37.79,37.79,0,0,1,5.1-10.3,32,32,0,0,0-2.22,2.3c-.25.29-.5.57-.74.86l-.38.48c-.24.31-.49.62-.72.94l-.29.42c-.24.34-.47.68-.69,1l-.17.27c-.24.39-.48.78-.7,1.17h0a31.81,31.81,0,0,0-3.82,12.12Z"/><path class="cls-5" d="M26.3,55a2.71,2.71,0,0,1-.48,0A2.74,2.74,0,0,0,26.3,55Z"/><path class="cls-5" d="M24.38,54.57a3.67,3.67,0,0,1-.36-.24A3.67,3.67,0,0,0,24.38,54.57Z"/><path class="cls-5" d="M23.84,54.18l-.33-.31Z"/><path class="cls-5" d="M22.47,52.51a15.07,15.07,0,0,1-1.14-2.33,8.15,8.15,0,0,0,2.92,2.07,5.61,5.61,0,0,0,2.88.42c0,.79.06,1.77.09,2a2.14,2.14,0,0,1-.9.32,2.11,2.11,0,0,0,.85-.28l.07,1.09c.3,4.34,1.19,6.7,3.35,9.15a60.17,60.17,0,0,0,6.21,5.61l0,0c1.45,1.21,3.09,2.58,5,4.23a9.28,9.28,0,0,0,12.33,0c2.26-2,4.16-3.54,5.79-4.91h0c3.4-2.84,5.55-4.72,6.88-6.91,0-1.19-.15-2.38-.31-3.57-.18-1.41-.37-2.85-.58-4.3a8.35,8.35,0,0,1-4.78,2.71A5.7,5.7,0,0,1,59,57.59c-2.78-.31-4.56-3-3.19-5.54,1.27-2.36,4.88-3.33,7.4-3.26a6.15,6.15,0,0,1,1.53.24,34,34,0,0,0-1.29-4.11h0a4.72,4.72,0,0,1-3.6,2.31c-1.6.16-4.09-.47-4.87-1.82a1.67,1.67,0,0,1-.18-.46l-.08,0-.07.08c-.19.25-.52.16-.53-.1a.45.45,0,0,1-.28-.58,4.58,4.58,0,0,1,.93-1.66c.94-1.53,3.29-2.9,5.61-3.44q-.65-.9-1.37-1.77C57,38,55.3,38.73,54.18,39c-1.66.34-2.48-1.63-.83-2.11s3.07-.85,4.18-1.07c-4.65-5.2-10.17-9.87-11.84-16.68l-.31-.47c-2.15,1-4.38,1.89-6.09,2.7A43.26,43.26,0,0,0,26.5,33.94c-.06,2-.06,4.27,0,6.79a5.38,5.38,0,0,0-1.16-.8,4.09,4.09,0,0,0-3.54-.09l-.09,0C19.45,41,19.82,43.81,20.16,46a20.45,20.45,0,0,0,1.9,5.79C22.19,52,22.33,52.28,22.47,52.51Zm13.07,5.33a8.69,8.69,0,0,1-6.06-4.51,2.57,2.57,0,0,1,.4-3.16.68.68,0,0,1-.23-.28.59.59,0,0,1,.08-.64.85.85,0,0,1,.57-.29,1.71,1.71,0,0,1,.35,0A.72.72,0,0,1,31,49h0a.74.74,0,0,1,.29.19,6.1,6.1,0,0,1,2.07-.43c2.52-.07,6.13.9,7.4,3.26,1.37,2.54-.41,5.23-3.19,5.54A5.7,5.7,0,0,1,35.54,57.84ZM48.3,74.37a4.06,4.06,0,0,1-3-.45A1.53,1.53,0,0,1,45,71.57a3.3,3.3,0,0,1,2.33-.79,7.4,7.4,0,0,1,3.23.24,1.37,1.37,0,0,1,.76,1C51.67,73.69,49.48,74.23,48.3,74.37Zm4.29-11.44a7.82,7.82,0,0,0,2.47.07c.06,0,.55-.1.94-.13l.11-.06L56,62.65c-.12-.17.09-.39.27-.33s.61.53.42.85a.26.26,0,0,1-.4,0v0l-.18.12a24.11,24.11,0,0,0-3.23,3.33,6.86,6.86,0,0,1-7.06,1.62,14.27,14.27,0,0,1-3.18-2.35,29.17,29.17,0,0,0-2.87-2.77h0a.43.43,0,0,1-.06.1.26.26,0,0,1-.4,0c-.2-.32.1-.75.42-.85s.39.16.27.33l-.09.13.93.13a5.65,5.65,0,0,0,2.39,0A18,18,0,0,1,45.67,62a3.16,3.16,0,0,1,2.32.71,2.26,2.26,0,0,1,2.39-.64C51.15,62.28,51.8,62.76,52.59,62.93ZM46,54.41a.85.85,0,0,1,.57-.29,1.71,1.71,0,0,1,.35,0,.73.73,0,0,1,.38.11h0a.73.73,0,0,1,.5.8.71.71,0,0,1-.68.63h-.07a.72.72,0,0,1-.37,0,2,2,0,0,1-.32-.14.87.87,0,0,1-.48-.43A.59.59,0,0,1,46,54.41ZM44.2,56.69c.76-.79,1.63-.31,2.52-.06,1.61.44,3-.28,4.56-.45a.15.15,0,0,1,.13.22A4.88,4.88,0,0,1,48,58.5c-1.61.1-2.43-1-3.79-1.65A.11.11,0,0,1,44.2,56.69ZM30.69,36.07c3.9-.68,4.62-1.29,11.71.78,1.65.48.83,2.44-.83,2.11s-4.73-1.76-8.45-2.06C32.12,36.81,25.42,37,30.69,36.07ZM28.79,43a1.62,1.62,0,0,0,1.61.18,2.43,2.43,0,0,1-.11-2.82c2-2.83,8.94-.51,10.73,2.41a4.58,4.58,0,0,1,.93,1.66.45.45,0,0,1-.28.58c0,.26-.34.35-.53.1L41.07,45,41,45a1.67,1.67,0,0,1-.18.46c-.78,1.34-3.28,2-4.87,1.82a4.72,4.72,0,0,1-3.6-2.31,4.7,4.7,0,0,1-.57-.36,3.48,3.48,0,0,1-3-1.4,1.36,1.36,0,0,0-.08-.15A.1.1,0,0,1,28.79,43Zm-6.86-.79a2,2,0,0,1,2.8.74,6.48,6.48,0,0,1,1.16,3.22,4.1,4.1,0,0,1-1,3.15c-.07.1-.23,0-.22-.11a9.87,9.87,0,0,0-.38-3.31,4.34,4.34,0,0,0-.79-1.34c0,.16,0,.31,0,.47a1.21,1.21,0,0,1-2.28.72A2.77,2.77,0,0,1,21.94,42.17Z"/><path class="cls-5" d="M25.11,54.89a2.76,2.76,0,0,1-.56-.22,2.77,2.77,0,0,0,.56.22,3.88,3.88,0,0,0,.6.11A3.74,3.74,0,0,1,25.11,54.89Z"/><path class="cls-5" d="M22.89,53.14c-.14-.19-.27-.38-.4-.59Q22.68,52.86,22.89,53.14Z"/><path class="cls-5" d="M23.34,53.7q-.17-.19-.33-.4C23.12,53.44,23.23,53.57,23.34,53.7Z"/><path class="cls-3" d="M26.32,55h0Z"/><path class="cls-6" d="M26.32,55h0Z"/><path class="cls-3" d="M25.82,55h0Z"/><path class="cls-6" d="M25.82,55h0Z"/><path class="cls-3" d="M23.51,53.87l-.16-.17Z"/><path class="cls-6" d="M23.51,53.87l-.16-.17Z"/><path class="cls-3" d="M22.49,52.55l0,0Z"/><path class="cls-6" d="M22.49,52.55l0,0Z"/><path class="cls-3" d="M24,54.33l-.18-.15Z"/><path class="cls-6" d="M24,54.33l-.18-.15Z"/><path class="cls-3" d="M24.55,54.67l-.17-.1Z"/><path class="cls-6" d="M24.55,54.67l-.17-.1Z"/><path class="cls-3" d="M23,53.3l-.12-.16Z"/><path class="cls-6" d="M23,53.3l-.12-.16Z"/><path class="cls-5" d="M27.22,54.67c0-.23-.07-1.21-.09-2a5.61,5.61,0,0,1-2.88-.42,8.15,8.15,0,0,1-2.92-2.07,15.07,15.07,0,0,0,1.14,2.33l0,0c.13.21.26.4.4.59l.12.16q.16.21.33.4l.16.17.33.31.18.15a3.67,3.67,0,0,0,.36.24l.17.1a2.76,2.76,0,0,0,.56.22,3.74,3.74,0,0,0,.6.11h.1a2.71,2.71,0,0,0,.48,0h0A2.14,2.14,0,0,0,27.22,54.67Z"/><path class="cls-6" d="M27.22,54.67c0-.23-.07-1.21-.09-2a5.61,5.61,0,0,1-2.88-.42,8.15,8.15,0,0,1-2.92-2.07,15.07,15.07,0,0,0,1.14,2.33l0,0c.13.21.26.4.4.59l.12.16q.16.21.33.4l.16.17.33.31.18.15a3.67,3.67,0,0,0,.36.24l.17.1a2.76,2.76,0,0,0,.56.22,3.74,3.74,0,0,0,.6.11h.1a2.71,2.71,0,0,0,.48,0h0A2.14,2.14,0,0,0,27.22,54.67Z"/><path class="cls-5" d="M23.56,45c0-.16,0-.31,0-.47a4.34,4.34,0,0,1,.79,1.34,9.87,9.87,0,0,1,.38,3.31c0,.13.15.2.22.11a4.1,4.1,0,0,0,1-3.15,6.48,6.48,0,0,0-1.16-3.22,2,2,0,0,0-2.8-.74,2.77,2.77,0,0,0-.65,3.54A1.21,1.21,0,0,0,23.56,45Z"/><path class="cls-6" d="M23.56,45c0-.16,0-.31,0-.47a4.34,4.34,0,0,1,.79,1.34,9.87,9.87,0,0,1,.38,3.31c0,.13.15.2.22.11a4.1,4.1,0,0,0,1-3.15,6.48,6.48,0,0,0-1.16-3.22,2,2,0,0,0-2.8-.74,2.77,2.77,0,0,0-.65,3.54A1.21,1.21,0,0,0,23.56,45Z"/><path class="cls-5" d="M40.85,52c-1.27-2.36-4.88-3.33-7.4-3.26a6.1,6.1,0,0,0-2.07.43.72.72,0,0,1,.21.61.71.71,0,0,1-.68.63h-.07a.73.73,0,0,1-.37,0,2,2,0,0,1-.32-.14,1.42,1.42,0,0,1-.25-.15,2.57,2.57,0,0,0-.4,3.16,8.69,8.69,0,0,0,6.06,4.51,5.7,5.7,0,0,0,2.11-.25C40.43,57.28,42.22,54.59,40.85,52Z"/><path class="cls-17" d="M40.85,52c-1.27-2.36-4.88-3.33-7.4-3.26a6.1,6.1,0,0,0-2.07.43.72.72,0,0,1,.21.61.71.71,0,0,1-.68.63h-.07a.73.73,0,0,1-.37,0,2,2,0,0,1-.32-.14,1.42,1.42,0,0,1-.25-.15,2.57,2.57,0,0,0-.4,3.16,8.69,8.69,0,0,0,6.06,4.51,5.7,5.7,0,0,0,2.11-.25C40.43,57.28,42.22,54.59,40.85,52Z"/><path class="cls-5" d="M30.46,50.45a.73.73,0,0,0,.37,0h.07a.71.71,0,0,0,.68-.63.72.72,0,0,0-.21-.61,4.31,4.31,0,0,0-1.49,1,1.42,1.42,0,0,0,.25.15A2,2,0,0,0,30.46,50.45Z"/><path class="cls-10" d="M30.46,50.45a.73.73,0,0,0,.37,0h.07a.71.71,0,0,0,.68-.63.72.72,0,0,0-.21-.61,4.31,4.31,0,0,0-1.49,1,1.42,1.42,0,0,0,.25.15A2,2,0,0,0,30.46,50.45Z"/><path class="cls-17" d="M30.46,50.45a.73.73,0,0,0,.37,0h.07a.71.71,0,0,0,.68-.63.72.72,0,0,0-.21-.61,4.31,4.31,0,0,0-1.49,1,1.42,1.42,0,0,0,.25.15A2,2,0,0,0,30.46,50.45Z"/><path class="cls-5" d="M63.26,48.79c-2.52-.07-6.13.9-7.4,3.26-1.37,2.54.41,5.23,3.19,5.54a5.7,5.7,0,0,0,2.11.25,8.35,8.35,0,0,0,4.78-2.71c-.3-2-.66-4.1-1.16-6.1A6.15,6.15,0,0,0,63.26,48.79Z"/><path class="cls-17" d="M63.26,48.79c-2.52-.07-6.13.9-7.4,3.26-1.37,2.54.41,5.23,3.19,5.54a5.7,5.7,0,0,0,2.11.25,8.35,8.35,0,0,0,4.78-2.71c-.3-2-.66-4.1-1.16-6.1A6.15,6.15,0,0,0,63.26,48.79Z"/><path class="cls-5" d="M66.79,50.14a.72.72,0,0,1-.55.31h-.07a.73.73,0,0,1-.37,0,2,2,0,0,1-.32-.14.87.87,0,0,1-.48-.43.59.59,0,0,1,.08-.64.56.56,0,0,1,.11-.09L64.78,49c.5,2,.86,4.06,1.16,6.1a7.94,7.94,0,0,0,1.28-1.81A2.57,2.57,0,0,0,66.79,50.14Z"/><path class="cls-6" d="M66.79,50.14a.72.72,0,0,1-.55.31h-.07a.73.73,0,0,1-.37,0,2,2,0,0,1-.32-.14.87.87,0,0,1-.48-.43.59.59,0,0,1,.08-.64.56.56,0,0,1,.11-.09L64.78,49c.5,2,.86,4.06,1.16,6.1a7.94,7.94,0,0,0,1.28-1.81A2.57,2.57,0,0,0,66.79,50.14Z"/><path class="cls-17" d="M66.79,50.14a.72.72,0,0,1-.55.31h-.07a.73.73,0,0,1-.37,0,2,2,0,0,1-.32-.14.87.87,0,0,1-.48-.43.59.59,0,0,1,.08-.64.56.56,0,0,1,.11-.09L64.78,49c.5,2,.86,4.06,1.16,6.1a7.94,7.94,0,0,0,1.28-1.81A2.57,2.57,0,0,0,66.79,50.14Z"/><path class="cls-5" d="M65,49.89a.87.87,0,0,0,.48.43,2,2,0,0,0,.32.14.73.73,0,0,0,.37,0h.07a.72.72,0,0,0,.55-.31,4.44,4.44,0,0,0-1.61-1,.56.56,0,0,0-.11.09A.59.59,0,0,0,65,49.89Z"/><path class="cls-6" d="M65,49.89a.87.87,0,0,0,.48.43,2,2,0,0,0,.32.14.73.73,0,0,0,.37,0h.07a.72.72,0,0,0,.55-.31,4.44,4.44,0,0,0-1.61-1,.56.56,0,0,0-.11.09A.59.59,0,0,0,65,49.89Z"/><path class="cls-10" d="M65,49.89a.87.87,0,0,0,.48.43,2,2,0,0,0,.32.14.73.73,0,0,0,.37,0h.07a.72.72,0,0,0,.55-.31,4.44,4.44,0,0,0-1.61-1,.56.56,0,0,0-.11.09A.59.59,0,0,0,65,49.89Z"/><path class="cls-17" d="M65,49.89a.87.87,0,0,0,.48.43,2,2,0,0,0,.32.14.73.73,0,0,0,.37,0h.07a.72.72,0,0,0,.55-.31,4.44,4.44,0,0,0-1.61-1,.56.56,0,0,0-.11.09A.59.59,0,0,0,65,49.89Z"/><path class="cls-3" d="M45.7,1.84l.26-.2Z"/><path class="cls-3" d="M82.76,79.58A38.67,38.67,0,0,0,81,87.77c-.61,7,1.48,13.77,3.22,20.49,1.89,7.26,2.9,15.37-.41,22.33q-.31.65-.67,1.28a12.05,12.05,0,0,1-2.81,3.63,16.16,16.16,0,0,0,5.45-4.67,22.45,22.45,0,0,0,1.36-2,38.27,38.27,0,0,0,4.51-12.78c.18-1,.33-2,.45-3.05a46.53,46.53,0,0,0-1.65-5.88C89,103,87.21,99.07,86.14,94.9c1,4.81,2.78,9.55,3.8,14.51a28.56,28.56,0,0,1-1.75,16.95,13.06,13.06,0,0,1-4.35,5.17,18.3,18.3,0,0,0,3.4-11.25c-.08-5-1.64-9.77-2.78-14.59-1.67-7-1-12.84.82-19.37,0,.07,0,.14,0,.21a32.29,32.29,0,0,1,.93-6.24h0a37.27,37.27,0,0,1-.95-4.14A23.77,23.77,0,0,1,85,72.94l-.21.62A33.92,33.92,0,0,0,82.76,79.58Z"/><path class="cls-3" d="M79.32,19.23c.24.5.48,1,.7,1.5-.36-.83-.74-1.65-1.15-2.46.07.15.14.3.21.45Z"/><path class="cls-3" d="M83.64,33.4C85,44.17,83.2,54.67,80.09,65c-2.82,9.38-6.8,18.4-7.07,28.34a40.59,40.59,0,0,0,1.88,13.46c2.22,6.93,5.44,13.65,1,20.51-2.38,3.69-7.07,7.35-11.36,4.25a6.62,6.62,0,0,1-2-2.13,4.25,4.25,0,0,0,2.61.52,3.38,3.38,0,0,0,2-1.48c2.89-4.18,2.11-9.25.3-13.69-2.27-5.56-4-10.83-3.75-16.94.27-5.79,2.3-11.4,4-16.88,1.12-3.6,2.31-7.18,3.56-10.74a1.8,1.8,0,0,0,.17-.47q1-2.85,2-5.68a61.87,61.87,0,0,0,3.73-15.61c.58-6.28.13-13-2.41-18.84-.06-.14-.13-.26-.19-.4h0q-.39-.86-.81-1.63h0a22.65,22.65,0,0,0-6.12-7.31h0a9.57,9.57,0,0,0-2.83-1.68c4,2.6,6.17,6.82,7.43,11.29h0c.35,1.24.64,2.49.88,3.74a59.52,59.52,0,0,1,0,20.93c-.36,2.18-.82,4.33-1.36,6.46.67-2.68-.2-6.72-.63-9.42a35.71,35.71,0,0,0-2.58-8.93A30.37,30.37,0,0,0,60.75,32q-.63-.54-1.28-1.05c-.47-.36-.94-.71-1.42-1a58.45,58.45,0,0,1-9.32-7.15,49.74,49.74,0,0,0,4.56,4.44,53.57,53.57,0,0,1,7.79,8.21,13.9,13.9,0,0,0-3.54.33c-1.11.22-2.45.57-4.18,1.07s-.83,2.44.83,2.11C55.3,38.73,57,38,59,37.52a22,22,0,0,1,3.13-.57c.52.74,1,1.49,1.47,2.23.74,1.2,1.4,2.4,2,3.58l.25.5.06.12c.05.24.11.48.17.71.88,3.87,2,7.62,2.64,11.49a38.44,38.44,0,0,1,.63,7c-.06,7.77-4.31,14.62-6.21,22,0,.17-.08.34-.12.51l-.1.43A57.42,57.42,0,0,0,62,107.52h0q.28,1.8.68,3.58.2.88.43,1.76c.7,2.64,2,4.85,1.74,7.7a8.47,8.47,0,0,1-.13.89c-.6,3.1-3,6.79-6,3.4-.47-.53.09,1.35.14,1.48a15.83,15.83,0,0,0,.94,2.12,20.9,20.9,0,0,0,1.37,2.25l.28.41A15.2,15.2,0,0,0,74.58,137a14.64,14.64,0,0,0,4.48-1c-1.21.26-2.87.3-3.12.55a16.29,16.29,0,0,0,3-4c2.5-4.85,2.27-10.63,1.63-15.9a45.56,45.56,0,0,0-.84-8.38c-.08-.4-.16-.8-.24-1.19-1.48-4.62-3-9.26-3.27-14.17-.81-12.47,4-24.81,7.4-36.6.67-2.32,1.39-4.71,2-7.13.25,7.11.33,14.08-1.24,21.19.24-.59.49-1.19.72-1.78h0c.18-2.18.45-4.36.57-6.59a118.84,118.84,0,0,0-.3-17.92,95.9,95.9,0,0,0-2.34-14.34q.35,1.39.65,2.8A1.65,1.65,0,0,0,83.64,33.4Z"/><path class="cls-3" d="M82.07,26.31h0c.33,1.05.63,2.12.91,3.19-.48-1.88-1-3.75-1.69-5.57.28.78.54,1.58.79,2.38Z"/><path class="cls-3" d="M46.52,1.25a7.81,7.81,0,0,1,.89-.47A7.16,7.16,0,0,0,46.52,1.25Z"/><path class="cls-3" d="M76,13.49q.59.85,1.13,1.72Q76.59,14.34,76,13.49Z"/><path class="cls-3" d="M47.55.72l.38-.14Z"/><path class="cls-3" d="M73.88,10.72c.59.69,1.14,1.41,1.67,2.14C75,12.12,74.47,11.41,73.88,10.72Z"/><path class="cls-3" d="M54,.18c.41.06.83.13,1.24.21C54.79.31,54.38.23,54,.18Z"/><path class="cls-3" d="M77.87,16.45c.11.19.2.38.3.57.22.4.46.79.66,1.2-.42-.82-.86-1.61-1.33-2.4.12.21.23.42.35.63Z"/><path class="cls-3" d="M53,.07h0Z"/><path class="cls-3" d="M53.9.17h0Z"/><path class="cls-3" d="M80.26,21.32q.46,1.09.87,2.21Q80.72,22.41,80.26,21.32Z"/><path class="cls-3" d="M90,97.25a82,82,0,0,1,2.45,9.4,50.66,50.66,0,0,1-.33,6.31c.1-.81.15-1.62.21-2.44a50.92,50.92,0,0,0,0-7.33v0a51.81,51.81,0,0,0-1.12-7.46,52.23,52.23,0,0,0-1.95-6.61c-1-2.77-2.1-5.55-2.93-8.39C86.08,86.5,88.25,91.78,90,97.25Z"/><path class="cls-3" d="M70.64,7.5a24.5,24.5,0,0,0-4.12-2.84L65.45,4.1l1.07.56A24.51,24.51,0,0,1,70.64,7.5Z"/><path class="cls-3" d="M85.26,87.83s0-.1,0-.15S85.26,87.78,85.26,87.83Z"/><path class="cls-3" d="M77.8,98.35c-.07-.83-.12-1.67-.15-2.51A45.83,45.83,0,0,1,78.88,83.7a94.86,94.86,0,0,1,4-9.62c.54-1.2,1.06-2.41,1.55-3.62C86,63.35,85.9,56.39,85.65,49.27c-.64,2.42-1.36,4.8-2,7.13C80.2,68.19,75.41,80.53,76.22,93c.32,4.91,1.8,9.54,3.27,14.17C78.9,104.23,78.23,101.3,77.8,98.35Z"/><path class="cls-18" d="M77.8,98.35c-.07-.83-.12-1.67-.15-2.51A45.83,45.83,0,0,1,78.88,83.7a94.86,94.86,0,0,1,4-9.62c.54-1.2,1.06-2.41,1.55-3.62C86,63.35,85.9,56.39,85.65,49.27c-.64,2.42-1.36,4.8-2,7.13C80.2,68.19,75.41,80.53,76.22,93c.32,4.91,1.8,9.54,3.27,14.17C78.9,104.23,78.23,101.3,77.8,98.35Z"/><path class="cls-3" d="M85.25,88.84c0-.34,0-.67,0-1,0,0,0-.1,0-.15,0-.38,0-.76,0-1.13,0-.07,0-.14,0-.21-1.85,6.52-2.49,12.32-.82,19.37,1.15,4.82,2.7,9.59,2.78,14.59a18.3,18.3,0,0,1-3.4,11.25,13.06,13.06,0,0,0,4.35-5.17,28.56,28.56,0,0,0,1.75-16.95c-1-5-2.75-9.71-3.8-14.51A27,27,0,0,1,85.25,88.84Z"/><path class="cls-18" d="M85.25,88.84c0-.34,0-.67,0-1,0,0,0-.1,0-.15,0-.38,0-.76,0-1.13,0-.07,0-.14,0-.21-1.85,6.52-2.49,12.32-.82,19.37,1.15,4.82,2.7,9.59,2.78,14.59a18.3,18.3,0,0,1-3.4,11.25,13.06,13.06,0,0,0,4.35-5.17,28.56,28.56,0,0,0,1.75-16.95c-1-5-2.75-9.71-3.8-14.51A27,27,0,0,1,85.25,88.84Z"/><path class="cls-15" d="M85.28,86.55c0,.38,0,.76,0,1.13q0,.07,0,.15c0,.34,0,.67,0,1a27,27,0,0,0,.89,6.07c1.07,4.16,2.88,8.13,4.33,12.22A46.53,46.53,0,0,1,92.12,113h0v0a50.66,50.66,0,0,0,.33-6.31A82,82,0,0,0,90,97.25c-1.76-5.47-3.92-10.75-3.68-16.53v0l-.12-.38h0A32.28,32.28,0,0,0,85.28,86.55Z"/><path class="cls-15" d="M84.41,70.46c-.5,1.21-1,2.42-1.55,3.62a94.86,94.86,0,0,0-4,9.62,45.83,45.83,0,0,0-1.23,12.14c0,.84.08,1.68.15,2.51.43,3,1.1,5.88,1.69,8.82.08.4.16.79.24,1.19a45.56,45.56,0,0,1,.84,8.38c.65,5.27.87,11-1.63,15.9a16.29,16.29,0,0,1-3,4c.24-.25,1.91-.29,3.12-.55a3,3,0,0,0,1-.37c.08-.06.15-.14.23-.2a12.05,12.05,0,0,0,2.81-3.63q.36-.63.67-1.28c3.31-7,2.3-15.07.41-22.33-1.74-6.71-3.83-13.47-3.22-20.49a38.67,38.67,0,0,1,1.76-8.19,33.92,33.92,0,0,1,2-6l.21-.62h0a40.46,40.46,0,0,1,.14-4.26h0C84.9,69.27,84.65,69.87,84.41,70.46Z"/><path class="cls-15" d="M80.23,27.23l-.24.12c-1,.38-2,.74-2.94,1.08-.81.28-1.63.54-2.45.79.06.14.13.26.19.4,2.54,5.83,3,12.56,2.41,18.84a61.87,61.87,0,0,1-3.73,15.61q-1,2.83-2,5.68a1.8,1.8,0,0,1-.17.47C70,73.78,68.83,77.36,67.71,81c-1.71,5.49-3.73,11.1-4,16.88-.29,6.11,1.48,11.38,3.75,16.94,1.81,4.44,2.59,9.5-.3,13.69a3.38,3.38,0,0,1-2,1.48,4.25,4.25,0,0,1-2.61-.52,6.62,6.62,0,0,0,2,2.13c4.29,3.1,9-.56,11.36-4.25,4.43-6.87,1.21-13.58-1-20.51A40.59,40.59,0,0,1,73,93.33c.27-9.94,4.25-19,7.07-28.34C83.2,54.67,85,44.17,83.64,33.4a1.65,1.65,0,0,1,.07-.77q-.3-1.4-.65-2.8L83,29.5c-.27-1.07-.58-2.13-.91-3.19Z"/><path class="cls-15" d="M73.78,27.59h0Z"/><path class="cls-15" d="M82.07,26.31c-.25-.8-.51-1.59-.79-2.38l-.15-.41q-.41-1.12-.87-2.21L80,20.73c-.22-.51-.46-1-.7-1.5A52.49,52.49,0,0,1,82.07,26.31Z"/><path class="cls-15" d="M79.08,18.73c-.07-.15-.13-.3-.21-.45l0-.06c-.21-.41-.44-.8-.66-1.2C78.49,17.58,78.79,18.15,79.08,18.73Z"/><path class="cls-15" d="M65.94,31.34l-1.81.31c1.18-.21-1.19.18-1.71.23L60.75,32h0a30.37,30.37,0,0,1,7.87,10.63,35.71,35.71,0,0,1,2.58,8.93c.43,2.7,1.3,6.74.63,9.42.54-2.13,1-4.29,1.36-6.46a59.52,59.52,0,0,0,0-20.93c-.24-1.25-.53-2.5-.88-3.74C70.18,30.45,68.07,30.94,65.94,31.34Z"/><path class="cls-7" d="M54.08,63.94c-1,.27-2,.48-2.92.8a11.4,11.4,0,0,0-1.17.45,5.19,5.19,0,0,1-2.45.64A7,7,0,0,1,45.26,65a35,35,0,0,0-3.4-1,8.33,8.33,0,0,1-1.24-.48,5.22,5.22,0,0,1-.57-.33l-.26-.22a1.13,1.13,0,0,1-.06.15h0a29.17,29.17,0,0,1,2.87,2.77,14.27,14.27,0,0,0,3.18,2.35,6.86,6.86,0,0,0,7.06-1.62A24.11,24.11,0,0,1,56.1,63.3l.18-.12A.54.54,0,0,1,56.2,63C56,63.41,54.25,63.89,54.08,63.94Zm-4.3,3.75a3.14,3.14,0,0,1-2.55.37.38.38,0,0,1,.09-.76,7.74,7.74,0,0,0,2.14-.35A.42.42,0,0,1,49.78,67.69Z"/><path class="cls-7" d="M48,62.71A3.16,3.16,0,0,0,45.67,62a18,18,0,0,0-2.47.88,5.65,5.65,0,0,1-2.39,0l-.93-.13,0,0a4.31,4.31,0,0,1,1.29.37,10.62,10.62,0,0,0,1.54.48,23.8,23.8,0,0,1,3,.78,7.75,7.75,0,0,0,1.35.46c1.44.27,3.24-.69,4.69-.92A11.94,11.94,0,0,0,56,62.87c-.39,0-.88.12-.94.13a7.82,7.82,0,0,1-2.47-.07c-.79-.17-1.44-.64-2.21-.86A2.26,2.26,0,0,0,48,62.71Z"/><path class="cls-9" d="M51.73,64c-1.45.22-3.25,1.18-4.69.92a7.75,7.75,0,0,1-1.35-.46,23.8,23.8,0,0,0-3-.78,10.62,10.62,0,0,1-1.54-.48,4.31,4.31,0,0,0-1.29-.37l0,0,.09-.13c.12-.17-.09-.39-.27-.33s-.61.53-.42.85a.26.26,0,0,0,.4,0,.43.43,0,0,0,.06-.1,1.13,1.13,0,0,0,.06-.15l.26.22a5.22,5.22,0,0,0,.57.33,8.33,8.33,0,0,0,1.24.48,35,35,0,0,1,3.4,1,7,7,0,0,0,2.27.82A5.19,5.19,0,0,0,50,65.19a11.4,11.4,0,0,1,1.17-.45c1-.31,1.94-.53,2.92-.8.18,0,1.91-.53,2.13-.91a.54.54,0,0,0,.08.15v0a.26.26,0,0,0,.4,0c.2-.32-.1-.75-.42-.85s-.39.16-.27.33l.11.16-.11.06A11.94,11.94,0,0,1,51.73,64Z"/><path class="cls-7" d="M49.45,66.94a7.74,7.74,0,0,1-2.14.35.38.38,0,0,0-.09.76,3.14,3.14,0,0,0,2.55-.37A.42.42,0,0,0,49.45,66.94Z"/><path class="cls-19" d="M49.45,66.94a7.74,7.74,0,0,1-2.14.35.38.38,0,0,0-.09.76,3.14,3.14,0,0,0,2.55-.37A.42.42,0,0,0,49.45,66.94Z"/><path class="cls-9" d="M14.44,123.19a94.21,94.21,0,0,1-1.29,13.14l2.3.5C15.92,128.14,14.44,123.19,14.44,123.19Z"/><polygon class="cls-3" points="72.28 29.88 72.27 29.88 72.28 29.88 72.28 29.88"/><polygon class="cls-20" points="72.28 29.88 72.27 29.88 72.28 29.88 72.28 29.88"/><path class="cls-3" d="M59.47,31q.65.51,1.28,1.05C60.33,31.67,59.91,31.31,59.47,31Z"/><path class="cls-20" d="M59.47,31q.65.51,1.28,1.05C60.33,31.67,59.91,31.31,59.47,31Z"/><path class="cls-15" d="M60.75,32l1.67-.14c.52-.05,2.89-.44,1.71-.23l1.81-.31c2.13-.4,4.24-.89,6.33-1.46h0a21,21,0,0,0-5.16-9.45,82.29,82.29,0,0,1-17.42,3.28A67.51,67.51,0,0,0,58,29.94c.49.33,1,.68,1.42,1s.86.69,1.28,1.05Z"/><path class="cls-20" d="M60.75,32l1.67-.14c.52-.05,2.89-.44,1.71-.23l1.81-.31c2.13-.4,4.24-.89,6.33-1.46h0a21,21,0,0,0-5.16-9.45,82.29,82.29,0,0,1-17.42,3.28A67.51,67.51,0,0,0,58,29.94c.49.33,1,.68,1.42,1s.86.69,1.28,1.05Z"/><path class="cls-3" d="M79.08,18.73l.24.51Z"/><path class="cls-20" d="M79.08,18.73l.24.51Z"/><polygon class="cls-3" points="82.07 26.31 82.07 26.31 82.07 26.31 82.07 26.31"/><polygon class="cls-20" points="82.07 26.31 82.07 26.31 82.07 26.31 82.07 26.31"/><path class="cls-3" d="M74.59,29.22h0q-.39-.86-.81-1.63Q74.2,28.36,74.59,29.22Z"/><path class="cls-20" d="M74.59,29.22h0q-.39-.86-.81-1.63Q74.2,28.36,74.59,29.22Z"/><path class="cls-3" d="M77.87,16.45h0l.31.57C78.07,16.83,78,16.64,77.87,16.45Z"/><path class="cls-20" d="M77.87,16.45h0l.31.57C78.07,16.83,78,16.64,77.87,16.45Z"/><path class="cls-3" d="M73.78,27.58a22.65,22.65,0,0,0-6.11-7.32h0A22.65,22.65,0,0,1,73.78,27.58Z"/><path class="cls-20" d="M73.78,27.58a22.65,22.65,0,0,0-6.11-7.32h0A22.65,22.65,0,0,1,73.78,27.58Z"/><path class="cls-15" d="M73.78,27.58h0q.42.78.81,1.63c.82-.25,1.64-.51,2.45-.79,1-.34,2-.71,2.94-1.08l.24-.12,1.84-.92h0a52.49,52.49,0,0,0-2.76-7.08l-.24-.51c-.28-.58-.59-1.14-.9-1.7l-.31-.57a91.68,91.68,0,0,1-10.19,3.81A22.65,22.65,0,0,1,73.78,27.58Z"/><path class="cls-20" d="M73.78,27.58h0q.42.78.81,1.63c.82-.25,1.64-.51,2.45-.79,1-.34,2-.71,2.94-1.08l.24-.12,1.84-.92h0a52.49,52.49,0,0,0-2.76-7.08l-.24-.51c-.28-.58-.59-1.14-.9-1.7l-.31-.57a91.68,91.68,0,0,1-10.19,3.81A22.65,22.65,0,0,1,73.78,27.58Z"/><polygon class="cls-3" points="18.84 24.78 18.84 24.78 18.84 24.77 18.84 24.78"/><polygon class="cls-20" points="18.84 24.78 18.84 24.78 18.84 24.77 18.84 24.78"/><path class="cls-15" d="M26.39,26.33c.22-.34.45-.68.69-1l.29-.42c.23-.32.47-.63.72-.94l.38-.48c.24-.29.49-.58.74-.86l.29-.34A58.26,58.26,0,0,1,22.1,20c-.45-.17-.88-.35-1.3-.55a54,54,0,0,0-2,5.31h0l2.84,1.47.53.28c.6.24,1.21.49,1.82.71s1,.35,1.5.53c.22-.39.46-.78.7-1.17Z"/><path class="cls-20" d="M26.39,26.33c.22-.34.45-.68.69-1l.29-.42c.23-.32.47-.63.72-.94l.38-.48c.24-.29.49-.58.74-.86l.29-.34A58.26,58.26,0,0,1,22.1,20c-.45-.17-.88-.35-1.3-.55a54,54,0,0,0-2,5.31h0l2.84,1.47.53.28c.6.24,1.21.49,1.82.71s1,.35,1.5.53c.22-.39.46-.78.7-1.17Z"/><path class="cls-3" d="M29.21,22.6c-.25.29-.5.57-.74.86C28.71,23.17,29,22.89,29.21,22.6Z"/><path class="cls-20" d="M29.21,22.6c-.25.29-.5.57-.74.86C28.71,23.17,29,22.89,29.21,22.6Z"/><path class="cls-3" d="M27.08,25.31c-.24.34-.47.68-.69,1C26.61,26,26.85,25.65,27.08,25.31Z"/><path class="cls-20" d="M27.08,25.31c-.24.34-.47.68-.69,1C26.61,26,26.85,25.65,27.08,25.31Z"/><path class="cls-3" d="M26.23,26.6c-.24.39-.48.78-.7,1.17h0C25.75,27.38,26,27,26.23,26.6Z"/><path class="cls-20" d="M26.23,26.6c-.24.39-.48.78-.7,1.17h0C25.75,27.38,26,27,26.23,26.6Z"/><path class="cls-3" d="M27.38,24.89c.23-.32.47-.63.72-.94C27.85,24.26,27.6,24.57,27.38,24.89Z"/><path class="cls-20" d="M27.38,24.89c.23-.32.47-.63.72-.94C27.85,24.26,27.6,24.57,27.38,24.89Z"/><path class="cls-5" d="M35.51,23.35h0A28.15,28.15,0,0,0,28,28.58h0A28.2,28.2,0,0,1,35.51,23.35Z"/><path class="cls-6" d="M35.51,23.35h0A28.15,28.15,0,0,0,28,28.58h0A28.2,28.2,0,0,1,35.51,23.35Z"/><path class="cls-20" d="M35.51,23.35h0A28.15,28.15,0,0,0,28,28.58h0A28.2,28.2,0,0,1,35.51,23.35Z"/><path class="cls-15" d="M35.51,23.35c-1.83-.24-3.65-.56-5.45-1a41.11,41.11,0,0,0-2.9,5.94l.81.25A28.15,28.15,0,0,1,35.51,23.35Z"/><path class="cls-20" d="M35.51,23.35c-1.83-.24-3.65-.56-5.45-1a41.11,41.11,0,0,0-2.9,5.94l.81.25A28.15,28.15,0,0,1,35.51,23.35Z"/><path class="cls-5" d="M50.59,71a7.4,7.4,0,0,0-3.23-.24,3.3,3.3,0,0,0-2.33.79,1.53,1.53,0,0,0,.29,2.36,4.06,4.06,0,0,0,3,.45c1.19-.14,3.38-.69,3.05-2.34A1.37,1.37,0,0,0,50.59,71Z"/><path class="cls-21" d="M50.59,71a7.4,7.4,0,0,0-3.23-.24,3.3,3.3,0,0,0-2.33.79,1.53,1.53,0,0,0,.29,2.36,4.06,4.06,0,0,0,3,.45c1.19-.14,3.38-.69,3.05-2.34A1.37,1.37,0,0,0,50.59,71Z"/></g></g></g></svg>