<svg xmlns="http://www.w3.org/2000/svg" viewBox="0 0 103.67 140.51"><defs><style>.cls-1{isolation:isolate;}.cls-2{fill:none;}.cls-18,.cls-3,.cls-4{fill:#3f2d2b;}.cls-10,.cls-13,.cls-21,.cls-4,.cls-6{opacity:0.5;}.cls-18,.cls-4{mix-blend-mode:multiply;}.cls-10,.cls-20,.cls-5{fill:#fac494;}.cls-6{fill:#ed8c72;}.cls-11,.cls-22,.cls-7{fill:#f24469;}.cls-13,.cls-21,.cls-8,.cls-9{fill:#c61443;}.cls-11,.cls-18,.cls-19,.cls-20,.cls-8{opacity:0.2;}.cls-10,.cls-11,.cls-20,.cls-21,.cls-22{mix-blend-mode:screen;}.cls-12{fill:#533734;}.cls-14{fill:#ff5a5a;opacity:0.15;}.cls-15{fill:#fff;}.cls-16,.cls-19{fill:#8f705e;}.cls-17{fill:#211313;}</style></defs><title>Ресурс 10</title><g class="cls-1"><g id="Слой_2" data-name="Слой 2"><g id="Layer_1" data-name="Layer 1"><path class="cls-2" d="M19.95,65.9a205,205,0,0,0,3.79,25.59h.12c2.16-.54,4-.53,5.71-1.18a98.65,98.65,0,0,1-5-10.45A106.37,106.37,0,0,1,19.95,65.9Z"/><path class="cls-3" d="M19.95,65.9a106.37,106.37,0,0,0,4.57,13.95,98.65,98.65,0,0,0,5,10.45A7.33,7.33,0,0,0,32,88.79c-2.09-3.75-4.57-8.36-6.32-12.28A121.89,121.89,0,0,1,16.79,45.4c-.05-.35-.1-.7-.14-1.05-.11-2.5-.1-5,0-7.33,0-.08,0-.15-.05-.23-.81,12.45-.9,33.71,4.92,54.83l2.19-.13A205,205,0,0,1,19.95,65.9Z"/><path class="cls-3" d="M33.71,86.77a14.59,14.59,0,0,0,1.13-2,14.84,14.84,0,0,1-2.8,4A12,12,0,0,0,33.71,86.77Z"/><path class="cls-3" d="M22.39,16.12C27.09,9.07,34.2,3.58,42.72,3a12.8,12.8,0,0,0-.7,7.62h0v.08a8.1,8.1,0,0,0,.27.9h0A9.08,9.08,0,0,0,43,13a14.61,14.61,0,0,0,.58,1.85c-1.48-4.41-1.43-10,2-13a15,15,0,0,0-8-.4c-8.1,2.07-14.33,11-17.77,20.22a52.2,52.2,0,0,1,2.25-5.15Z"/><path class="cls-3" d="M19.22,23.51q.28-.84.6-1.69Q19.5,22.66,19.22,23.51Z"/><path class="cls-3" d="M18.19,26.93q.2-.76.42-1.52C18.47,25.92,18.33,26.43,18.19,26.93Z"/><path class="cls-3" d="M17,33.49c.12-1.06.27-2.1.45-3.12C17.25,31.39,17.1,32.43,17,33.49Z"/><path class="cls-3" d="M16.69,36.86c.05-.88.13-1.75.21-2.6C16.81,35.11,16.74,36,16.69,36.86Z"/><path class="cls-3" d="M17.81,28.54c.11-.5.23-1,.37-1.52C18,27.53,17.92,28,17.81,28.54Z"/><path class="cls-3" d="M17.43,30.36c.09-.49.19-1,.3-1.48C17.62,29.38,17.52,29.87,17.43,30.36Z"/><path class="cls-3" d="M35.69,82.66c.1-.3.18-.6.26-.91s.13-.51.18-.76l.08-.39c.16-.82.28-1.66.37-2.5-2.16-4.35-4.25-9-6-13.15-2.16-2.45-3.06-4.81-3.35-9.15l-.07-1.09a2.11,2.11,0,0,1-.85.28h0a2.74,2.74,0,0,1-.48,0h-.1a3.88,3.88,0,0,1-.6-.11,2.77,2.77,0,0,1-.56-.22l-.17-.1a3.65,3.65,0,0,1-.36-.24l-.18-.15-.33-.31-.16-.17c-.11-.13-.22-.26-.33-.4l-.12-.16q-.21-.28-.4-.59l0,0c-.14-.23-.28-.47-.41-.72a50.27,50.27,0,0,0,1.09,7.61c1.61,7.22,5,13.56,8.91,19.77a25.77,25.77,0,0,0,3.21,4.72c.13-.32.25-.63.36-1Z"/><path class="cls-3" d="M18.81,24.78h0c.13-.41.25-.83.39-1.24q-.28.82-.52,1.64l.12-.39Z"/><path class="cls-3" d="M36.79,70.56a60.16,60.16,0,0,1-6.21-5.61c1.75,4.13,3.84,8.79,6,13.15A73.21,73.21,0,0,0,36.79,70.56Z"/><path class="cls-4" d="M36.79,70.56a60.16,60.16,0,0,1-6.21-5.61c1.75,4.13,3.84,8.79,6,13.15A73.21,73.21,0,0,0,36.79,70.56Z"/><path class="cls-3" d="M63,85c0-.17.08-.34.12-.51,1.9-7.35,6.15-14.21,6.21-22a38.43,38.43,0,0,0-.63-7l0,.23c0,.49-.08.94-.13,1.38,0,.13,0,.26,0,.39q-.06.47-.14.91c0,.12,0,.25-.06.37-.07.37-.15.73-.24,1.08,0,.09-.05.17-.08.26-.07.26-.15.51-.24.75l-.14.37c-.08.21-.17.41-.26.61l-.15.32c-.13.26-.27.52-.42.76h0c-1.33,2.19-3.48,4.07-6.88,6.91v0c0,.29-.08.58-.11.87,0,.13,0,.26,0,.39-.51,4.68.07,9.5,2.6,13.43l0-.07A7.5,7.5,0,0,0,63,85Z"/><path class="cls-4" d="M63,85c0-.17.08-.34.12-.51,1.9-7.35,6.15-14.21,6.21-22a38.43,38.43,0,0,0-.63-7l0,.23c0,.49-.08.94-.13,1.38,0,.13,0,.26,0,.39q-.06.47-.14.91c0,.12,0,.25-.06.37-.07.37-.15.73-.24,1.08,0,.09-.05.17-.08.26-.07.26-.15.51-.24.75l-.14.37c-.08.21-.17.41-.26.61l-.15.32c-.13.26-.27.52-.42.76h0c-1.33,2.19-3.48,4.07-6.88,6.91v0c0,.29-.08.58-.11.87,0,.13,0,.26,0,.39-.51,4.68.07,9.5,2.6,13.43l0-.07A7.5,7.5,0,0,0,63,85Z"/><path class="cls-5" d="M5.23,99.31,5.42,99Z"/><path class="cls-5" d="M5.92,98.16l.21-.31Z"/><path class="cls-5" d="M99.31,104c.24.53.47,1.08.67,1.66C99.78,105.07,99.55,104.53,99.31,104Z"/><path class="cls-5" d="M7,97l.14.12.13.09.23.14.18.11.3.17.21.12.37.2.23.12.45.23.2.1.55.27.15.07.71.35h0c1.6.77,3.13,1.46,3.35,1.56a63.37,63.37,0,0,0,13,4.13,151.23,151.23,0,0,0,32.43,2.8l1.18,0h0c-1.62-7.78-1-13.44.78-20.45.22-.83.46-1.66.73-2.48-2.53-3.92-3.11-8.75-2.6-13.43a25.24,25.24,0,0,0,.2,7.43,115.7,115.7,0,0,0-25.67,7.29,15.16,15.16,0,0,0,.87-1.79l-.31.63a14.59,14.59,0,0,1-1.13,2,12,12,0,0,1-1.67,2l0,0h0a7.33,7.33,0,0,1-2.43,1.52c-1.73.65-3.55.64-5.71,1.18h-.12l-2.19.13c-5.34.39-11.13,1.43-14.64,5.26,0,0,0,.06,0,.11Zm45-1.84a.19.19,0,0,1,.16.27A6,6,0,0,1,48,98.06c-2,.13-3-1.26-4.67-2a.13.13,0,0,1,0-.2c.93-1,2-.38,3.11-.08C48.43,96.29,50.12,95.41,52.05,95.2Z"/><path class="cls-5" d="M95.2,102.61l.19,0,.5-.09.19,0,.47-.08.14,0,.53-.08h0l.42-.05h.11l.23,0h.3s.08,0,.09,0c.29.49.56,1,.81,1.54a16.29,16.29,0,0,0-8-8,51.82,51.82,0,0,1,1.12,7.46Z"/><path class="cls-5" d="M35.24,83.89h0q.19-.48.35-1C35.49,83.26,35.37,83.58,35.24,83.89Z"/><path class="cls-5" d="M35.95,81.75c-.08.3-.16.61-.26.91C35.78,82.36,35.87,82.06,35.95,81.75Z"/><path class="cls-5" d="M36.21,80.6l-.08.39Z"/><path class="cls-5" d="M59.92,70c0,.29-.08.58-.11.87C59.84,70.53,59.87,70.24,59.92,70Z"/><path class="cls-3" d="M35.69,82.66l-.09.28Z"/><path class="cls-6" d="M35.69,82.66l-.09.28Z"/><path class="cls-3" d="M36.21,80.6q.25-1.22.38-2.48v0C36.5,78.94,36.38,79.77,36.21,80.6Z"/><path class="cls-6" d="M36.21,80.6q.25-1.22.38-2.48v0C36.5,78.94,36.38,79.77,36.21,80.6Z"/><path class="cls-3" d="M36.13,81c-.06.26-.12.51-.18.76C36,81.5,36.07,81.25,36.13,81Z"/><path class="cls-6" d="M36.13,81c-.06.26-.12.51-.18.76C36,81.5,36.07,81.25,36.13,81Z"/><path class="cls-3" d="M36.58,78.09v0a69.82,69.82,0,0,0,.23-7.53l0,0A73.21,73.21,0,0,1,36.58,78.09Z"/><path class="cls-4" d="M36.58,78.09v0a69.82,69.82,0,0,0,.23-7.53l0,0A73.21,73.21,0,0,1,36.58,78.09Z"/><path class="cls-6" d="M36.58,78.09v0a69.82,69.82,0,0,0,.23-7.53l0,0A73.21,73.21,0,0,1,36.58,78.09Z"/><path class="cls-3" d="M59.75,71.21c0-.13,0-.26,0-.39C59.79,71,59.77,71.08,59.75,71.21Z"/><path class="cls-4" d="M59.75,71.21c0-.13,0-.26,0-.39C59.79,71,59.77,71.08,59.75,71.21Z"/><path class="cls-6" d="M59.75,71.21c0-.13,0-.26,0-.39C59.79,71,59.77,71.08,59.75,71.21Z"/><path class="cls-3" d="M59.92,70v0h0Z"/><path class="cls-4" d="M59.92,70v0h0Z"/><path class="cls-6" d="M59.92,70v0h0Z"/><path class="cls-5" d="M59.92,70v0c-1.63,1.36-3.53,2.94-5.79,4.91a9.28,9.28,0,0,1-12.33,0c-1.89-1.65-3.53-3-5-4.23a69.82,69.82,0,0,1-.23,7.53q-.13,1.26-.38,2.48l-.08.39c-.06.26-.12.51-.18.76s-.17.61-.26.91l-.09.28q-.16.49-.35,1h0l-.11.23a15.16,15.16,0,0,1-.87,1.79A115.7,115.7,0,0,1,60,78.65a25.24,25.24,0,0,1-.2-7.43c0-.13,0-.26,0-.39C59.84,70.53,59.87,70.24,59.92,70Z"/><path class="cls-6" d="M59.92,70v0c-1.63,1.36-3.53,2.94-5.79,4.91a9.28,9.28,0,0,1-12.33,0c-1.89-1.65-3.53-3-5-4.23a69.82,69.82,0,0,1-.23,7.53q-.13,1.26-.38,2.48l-.08.39c-.06.26-.12.51-.18.76s-.17.61-.26.91l-.09.28q-.16.49-.35,1h0l-.11.23a15.16,15.16,0,0,1-.87,1.79A115.7,115.7,0,0,1,60,78.65a25.24,25.24,0,0,1-.2-7.43c0-.13,0-.26,0-.39C59.84,70.53,59.87,70.24,59.92,70Z"/><path class="cls-7" d="M98.09,102.17h0Z"/><path class="cls-7" d="M97.76,102.19l.23,0Z"/><path class="cls-7" d="M97.23,102.26l.42-.05Z"/><path class="cls-7" d="M96.7,102.34l.53-.08Z"/><path class="cls-7" d="M96.09,102.45l.47-.08Z"/><path class="cls-7" d="M103.34,132.89l.31-.12-.34.12Z"/><path class="cls-7" d="M7.69,97.5l-.18-.11Z"/><path class="cls-7" d="M7.28,97.25l-.13-.09Z"/><path class="cls-7" d="M9.45,98.44l-.2-.1Z"/><path class="cls-7" d="M97.13,111.33c-.75-2.15-1.49-4.3-2.11-6.49-.2-.69-.38-1.39-.55-2.09l.74-.14-2.89.58v0a50.93,50.93,0,0,1,0,7.33,50.13,50.13,0,0,1-.78,8.12,39.11,39.11,0,0,1-4.18,12.23c.23,2,.52,4,.81,5.82,4.83-1,9.78-2.22,14.84-3.71-.54-2.86-1.2-5.73-1.94-8.64C99.93,119.93,98.62,115.64,97.13,111.33Z"/><path class="cls-7" d="M98.3,102.18s.08,0,.09,0S98.35,102.18,98.3,102.18Z"/><path class="cls-7" d="M80,138.2q2.87-.46,5.81-1c-.08-1.36-.12-2.63-.11-3.8A16.11,16.11,0,0,1,80,138.2Z"/><path class="cls-7" d="M8.8,98.1,8.57,98Z"/><path class="cls-7" d="M8.2,97.79,8,97.67Z"/><path class="cls-7" d="M61.34,133.72A21.31,21.31,0,0,1,59.65,131a41.49,41.49,0,0,1-18.13-1.18A42.52,42.52,0,0,1,30,125c-3.8-1.5-7.52-3.77-8.14-7.9-1.12-7.46,6.85-8.17,12.1-7.56,7.47.88,15,1.33,22.5,1.51,1.76,0,3.51.06,5.27.07q-.49-1.84-.85-3.54l-1.18,0a151.23,151.23,0,0,1-32.43-2.8,63.37,63.37,0,0,1-13-4.13c-.23-.1-1.75-.79-3.35-1.56-5.16,9.51-7,22.63-8.65,34.13,2.48.82,6.18,1.92,10.92,3a94,94,0,0,0,1.28-13.09s1.48,4.94,1,13.61a174.88,174.88,0,0,0,55.46,2.64A14.84,14.84,0,0,1,61.34,133.72Z"/><path class="cls-7" d="M7,97,6.95,97Z"/><path class="cls-7" d="M95.39,102.57l.5-.09Z"/><path class="cls-7" d="M10.15,98.78,10,98.71Z"/><path class="cls-8" d="M100.19,106.41l.12.53a12.08,12.08,0,0,0-.33-1.28h0C100,105.83,100.11,106.09,100.19,106.41Z"/><path class="cls-8" d="M100.71,109l.15.85c-.2-1.18-.39-2.2-.55-3l.13.62C100.52,108,100.61,108.5,100.71,109Z"/><path class="cls-8" d="M101.33,112.82c-.11-.7-.21-1.36-.32-2l.16,1Z"/><path class="cls-8" d="M99.31,104l-.06-.14.06.14Z"/><path class="cls-5" d="M95.89,102.48l.19,0Z"/><path class="cls-8" d="M95.89,102.48l.19,0Z"/><path class="cls-5" d="M100,105.65h0c-.2-.58-.43-1.13-.67-1.66h0C99.55,104.53,99.78,105.07,100,105.65Z"/><path class="cls-8" d="M100,105.65h0c-.2-.58-.43-1.13-.67-1.66h0C99.55,104.53,99.78,105.07,100,105.65Z"/><path class="cls-5" d="M96.55,102.37l.14,0Z"/><path class="cls-8" d="M96.55,102.37l.14,0Z"/><path class="cls-5" d="M95.2,102.61l.19,0Z"/><path class="cls-8" d="M95.2,102.61l.19,0Z"/><path class="cls-5" d="M98.24,102.17h0Z"/><path class="cls-8" d="M98.24,102.17h0Z"/><path class="cls-5" d="M98,102.17h0Z"/><path class="cls-8" d="M98,102.17h0Z"/><path class="cls-5" d="M97.23,102.26h0Z"/><path class="cls-8" d="M97.23,102.26h0Z"/><path class="cls-5" d="M97.66,102.2h0Z"/><path class="cls-8" d="M97.66,102.2h0Z"/><path class="cls-7" d="M98.3,102.18H98l-.23,0h-.11l-.42.05h0l-.53.08-.14,0-.47.08-.19,0-.5.09-.19,0-.74.14c.17.7.35,1.4.55,2.09.62,2.19,1.37,4.34,2.11,6.49,1.5,4.31,2.81,8.6,3.93,13,.74,2.91,1.4,5.78,1.94,8.64l.31-.09.34-.12a50.58,50.58,0,0,0-.52-6.57c-.08-.67-.16-1.38-.25-2.11-.18-1.45-.38-3-.58-4.54-.1-.77-.21-1.55-.32-2.32l-.16-1.14c-.16-1.14-.33-2.24-.49-3.29l-.16-1-.16-1-.15-.92-.15-.85c-.1-.55-.19-1-.28-1.49l-.13-.62-.12-.53c-.08-.32-.15-.57-.21-.75-.2-.58-.43-1.13-.67-1.66l-.06-.14-.05-.1c-.25-.54-.52-1.05-.81-1.54C98.38,102.19,98.35,102.18,98.3,102.18Z"/><path class="cls-8" d="M98.3,102.18H98l-.23,0h-.11l-.42.05h0l-.53.08-.14,0-.47.08-.19,0-.5.09-.19,0-.74.14c.17.7.35,1.4.55,2.09.62,2.19,1.37,4.34,2.11,6.49,1.5,4.31,2.81,8.6,3.93,13,.74,2.91,1.4,5.78,1.94,8.64l.31-.09.34-.12a50.58,50.58,0,0,0-.52-6.57c-.08-.67-.16-1.38-.25-2.11-.18-1.45-.38-3-.58-4.54-.1-.77-.21-1.55-.32-2.32l-.16-1.14c-.16-1.14-.33-2.24-.49-3.29l-.16-1-.16-1-.15-.92-.15-.85c-.1-.55-.19-1-.28-1.49l-.13-.62-.12-.53c-.08-.32-.15-.57-.21-.75-.2-.58-.43-1.13-.67-1.66l-.06-.14-.05-.1c-.25-.54-.52-1.05-.81-1.54C98.38,102.19,98.35,102.18,98.3,102.18Z"/><path class="cls-8" d="M1.72,116.52c.1-1.37.21-2.73.35-4.09C1.93,113.78,1.82,115.15,1.72,116.52Z"/><path class="cls-8" d="M5.92,98.16h0q-.26.39-.5.81h0Q5.66,98.55,5.92,98.16Z"/><path class="cls-8" d="M6.91,96.88h0a11.3,11.3,0,0,0-.78,1h0A11.31,11.31,0,0,1,6.91,96.88Z"/><path class="cls-8" d="M5.23,99.31h0a12.09,12.09,0,0,0-.56,1.23q-.37,1-.67,1.92.31-1,.67-1.92A12.08,12.08,0,0,1,5.23,99.31Z"/><path class="cls-5" d="M8,97.67l-.3-.17Z"/><path class="cls-8" d="M8,97.67l-.3-.17Z"/><path class="cls-5" d="M8.57,98l-.37-.2Z"/><path class="cls-8" d="M8.57,98l-.37-.2Z"/><path class="cls-5" d="M10,98.71l-.55-.27Z"/><path class="cls-8" d="M10,98.71l-.55-.27Z"/><path class="cls-5" d="M7.51,97.39l-.23-.14Z"/><path class="cls-8" d="M7.51,97.39l-.23-.14Z"/><path class="cls-5" d="M9.25,98.33,8.8,98.1Z"/><path class="cls-8" d="M9.25,98.33,8.8,98.1Z"/><path class="cls-5" d="M6.95,97s-.06-.08,0-.11h0S6.91,96.94,6.95,97Z"/><path class="cls-8" d="M6.95,97s-.06-.08,0-.11h0S6.91,96.94,6.95,97Z"/><path class="cls-5" d="M10.15,98.78l.71.35h0Z"/><path class="cls-8" d="M10.15,98.78l.71.35h0Z"/><path class="cls-5" d="M5.42,99h0l-.19.34h0Z"/><path class="cls-8" d="M5.42,99h0l-.19.34h0Z"/><path class="cls-5" d="M6.13,97.85h0l-.21.31h0Z"/><path class="cls-8" d="M6.13,97.85h0l-.21.31h0Z"/><path class="cls-5" d="M7.15,97.16,7,97Z"/><path class="cls-8" d="M7.15,97.16,7,97Z"/><path class="cls-7" d="M2.21,133.26c1.68-11.5,3.49-24.62,8.65-34.13l-.71-.35L10,98.71l-.55-.27-.2-.1L8.8,98.1,8.57,98l-.37-.2L8,97.67l-.3-.17-.18-.11-.23-.14-.13-.09L7,97,6.95,97s-.06-.08,0-.11h0a11.29,11.29,0,0,0-.78,1l-.21.31q-.26.39-.5.81l-.19.34a12.08,12.08,0,0,0-.56,1.23q-.37,1-.67,1.92a50.2,50.2,0,0,0-1.92,10c-.14,1.36-.25,2.72-.35,4.09q-.07,1-.14,2.05A96.46,96.46,0,0,1,0,132.5C.57,132.71,1.31,133,2.21,133.26Z"/><path class="cls-8" d="M2.21,133.26c1.68-11.5,3.49-24.62,8.65-34.13l-.71-.35L10,98.71l-.55-.27-.2-.1L8.8,98.1,8.57,98l-.37-.2L8,97.67l-.3-.17-.18-.11-.23-.14-.13-.09L7,97,6.95,97s-.06-.08,0-.11h0a11.29,11.29,0,0,0-.78,1l-.21.31q-.26.39-.5.81l-.19.34a12.08,12.08,0,0,0-.56,1.23q-.37,1-.67,1.92a50.2,50.2,0,0,0-1.92,10c-.14,1.36-.25,2.72-.35,4.09q-.07,1-.14,2.05A96.46,96.46,0,0,1,0,132.5C.57,132.71,1.31,133,2.21,133.26Z"/><path class="cls-9" d="M85.7,133.37c0,1.17,0,2.45.11,3.8l2.34-.47c-.29-1.84-.57-3.83-.81-5.82A23,23,0,0,1,85.7,133.37Z"/><path class="cls-5" d="M26.71,30.05l0,0q-.05.65-.1,1.35Q26.64,30.72,26.71,30.05Z"/><path class="cls-5" d="M68.09,59.92c0,.09-.05.17-.08.26C68,60.1,68.07,60,68.09,59.92Z"/><path class="cls-5" d="M68.58,57.18c0,.13,0,.26,0,.39C68.55,57.44,68.56,57.31,68.58,57.18Z"/><path class="cls-5" d="M68.4,58.48c0,.12,0,.25-.06.37C68.36,58.73,68.37,58.6,68.4,58.48Z"/><path class="cls-5" d="M67.37,61.91l-.15.32Z"/><path class="cls-5" d="M67.78,60.93l-.14.37Z"/><path class="cls-5" d="M55.16,62.27l-.26,0,.14,0Z"/><path class="cls-3" d="M26.44,34l0-.06q0-1.31.11-2.49C26.53,32.25,26.47,33.1,26.44,34Z"/><path class="cls-6" d="M26.44,34l0-.06q0-1.31.11-2.49C26.53,32.25,26.47,33.1,26.44,34Z"/><path class="cls-5" d="M26.48,33.94A43.26,43.26,0,0,1,39.27,21.32c-.42.2-.81.39-1.16.59-.89.51-1.77,1-2.63,1.44h0a28.2,28.2,0,0,0-7.54,5.24h0a16.61,16.61,0,0,0-1.23,1.47q-.07.67-.13,1.39Q26.52,32.62,26.48,33.94Z"/><path class="cls-6" d="M26.48,33.94A43.26,43.26,0,0,1,39.27,21.32c-.42.2-.81.39-1.16.59-.89.51-1.77,1-2.63,1.44h0a28.2,28.2,0,0,0-7.54,5.24h0a16.61,16.61,0,0,0-1.23,1.47q-.07.67-.13,1.39Q26.52,32.62,26.48,33.94Z"/><path class="cls-3" d="M67.64,61.3c-.08.21-.17.41-.26.61C67.47,61.71,67.56,61.51,67.64,61.3Z"/><path class="cls-4" d="M67.64,61.3c-.08.21-.17.41-.26.61C67.47,61.71,67.56,61.51,67.64,61.3Z"/><path class="cls-6" d="M67.64,61.3c-.08.21-.17.41-.26.61C67.47,61.71,67.56,61.51,67.64,61.3Z"/><path class="cls-3" d="M68.33,58.85c-.07.37-.15.73-.24,1.08C68.18,59.58,68.26,59.22,68.33,58.85Z"/><path class="cls-4" d="M68.33,58.85c-.07.37-.15.73-.24,1.08C68.18,59.58,68.26,59.22,68.33,58.85Z"/><path class="cls-6" d="M68.33,58.85c-.07.37-.15.73-.24,1.08C68.18,59.58,68.26,59.22,68.33,58.85Z"/><path class="cls-3" d="M68.53,57.57c0,.31-.09.62-.14.91Q68.47,58,68.53,57.57Z"/><path class="cls-4" d="M68.53,57.57c0,.31-.09.62-.14.91Q68.47,58,68.53,57.57Z"/><path class="cls-6" d="M68.53,57.57c0,.31-.09.62-.14.91Q68.47,58,68.53,57.57Z"/><path class="cls-3" d="M68.71,55.8c0,.49-.08.94-.13,1.38C68.63,56.74,68.67,56.29,68.71,55.8Z"/><path class="cls-4" d="M68.71,55.8c0,.49-.08.94-.13,1.38C68.63,56.74,68.67,56.29,68.71,55.8Z"/><path class="cls-6" d="M68.71,55.8c0,.49-.08.94-.13,1.38C68.63,56.74,68.67,56.29,68.71,55.8Z"/><path class="cls-3" d="M68,60.18q-.11.38-.24.75C67.86,60.69,67.94,60.44,68,60.18Z"/><path class="cls-4" d="M68,60.18q-.11.38-.24.75C67.86,60.69,67.94,60.44,68,60.18Z"/><path class="cls-6" d="M68,60.18q-.11.38-.24.75C67.86,60.69,67.94,60.44,68,60.18Z"/><path class="cls-3" d="M66.8,63c.15-.25.29-.5.42-.76-.13.26-.27.51-.42.76Z"/><path class="cls-4" d="M66.8,63c.15-.25.29-.5.42-.76-.13.26-.27.51-.42.76Z"/><path class="cls-6" d="M66.8,63c.15-.25.29-.5.42-.76-.13.26-.27.51-.42.76Z"/><path class="cls-5" d="M59.49,33.5a54.87,54.87,0,0,0-6.23-6.27,49.75,49.75,0,0,1-4.56-4.44,26.17,26.17,0,0,1-3-3.69c1.46,5.93,5.83,10.24,10,14.69A32.27,32.27,0,0,1,59.49,33.5Z"/><path class="cls-6" d="M59.49,33.5a54.87,54.87,0,0,0-6.23-6.27,49.75,49.75,0,0,1-4.56-4.44,26.17,26.17,0,0,1-3-3.69c1.46,5.93,5.83,10.24,10,14.69A32.27,32.27,0,0,1,59.49,33.5Z"/><path class="cls-5" d="M64,46.53c.27.82.51,1.65.72,2.5l.39.13a1,1,0,0,1,.46-.21,1.7,1.7,0,0,1,.35,0,.73.73,0,0,1,.38.11h0a.73.73,0,0,1,.5.8.71.71,0,0,1-.13.32,2.57,2.57,0,0,1,.43,3.18,7.93,7.93,0,0,1-1.28,1.81c.21,1.45.4,2.89.58,4.3.15,1.19.26,2.38.31,3.57.15-.25.29-.5.42-.76l.15-.32c.09-.2.18-.4.26-.61l.14-.37q.13-.36.24-.75c0-.09.05-.17.08-.26.09-.34.17-.7.24-1.08,0-.12,0-.24.06-.37,0-.29.1-.59.14-.91,0-.13,0-.26,0-.39,0-.44.09-.89.13-1.38l0-.23c-.65-3.73-1.68-7.35-2.54-11.07a5.22,5.22,0,0,1-1.13.82A4.57,4.57,0,0,1,64,46.53Z"/><path class="cls-6" d="M64,46.53c.27.82.51,1.65.72,2.5l.39.13a1,1,0,0,1,.46-.21,1.7,1.7,0,0,1,.35,0,.73.73,0,0,1,.38.11h0a.73.73,0,0,1,.5.8.71.71,0,0,1-.13.32,2.57,2.57,0,0,1,.43,3.18,7.93,7.93,0,0,1-1.28,1.81c.21,1.45.4,2.89.58,4.3.15,1.19.26,2.38.31,3.57.15-.25.29-.5.42-.76l.15-.32c.09-.2.18-.4.26-.61l.14-.37q.13-.36.24-.75c0-.09.05-.17.08-.26.09-.34.17-.7.24-1.08,0-.12,0-.24.06-.37,0-.29.1-.59.14-.91,0-.13,0-.26,0-.39,0-.44.09-.89.13-1.38l0-.23c-.65-3.73-1.68-7.35-2.54-11.07a5.22,5.22,0,0,1-1.13.82A4.57,4.57,0,0,1,64,46.53Z"/><path class="cls-5" d="M63.78,39.44A47,47,0,0,0,61,35.36a30.37,30.37,0,0,0-3.5.4A41.84,41.84,0,0,1,60.88,40,9.87,9.87,0,0,1,63.78,39.44Z"/><path class="cls-6" d="M63.78,39.44A47,47,0,0,0,61,35.36a30.37,30.37,0,0,0-3.5.4A41.84,41.84,0,0,1,60.88,40,9.87,9.87,0,0,1,63.78,39.44Z"/><path class="cls-5" d="M48,58.5a4.88,4.88,0,0,0,3.4-2.1.15.15,0,0,0-.13-.22c-1.57.17-2.94.89-4.56.45-.89-.24-1.77-.72-2.52.06a.11.11,0,0,0,0,.17C45.56,57.48,46.39,58.61,48,58.5Z"/><path class="cls-6" d="M48,58.5a4.88,4.88,0,0,0,3.4-2.1.15.15,0,0,0-.13-.22c-1.57.17-2.94.89-4.56.45-.89-.24-1.77-.72-2.52.06a.11.11,0,0,0,0,.17C45.56,57.48,46.39,58.61,48,58.5Z"/><path class="cls-5" d="M46.44,95.75c-1.1-.3-2.18-.89-3.11.08a.13.13,0,0,0,0,.2c1.67.77,2.69,2.16,4.67,2a6,6,0,0,0,4.18-2.58.19.19,0,0,0-.16-.27C50.12,95.41,48.43,96.29,46.44,95.75Z"/><path class="cls-6" d="M46.44,95.75c-1.1-.3-2.18-.89-3.11.08a.13.13,0,0,0,0,.2c1.67.77,2.69,2.16,4.67,2a6,6,0,0,0,4.18-2.58.19.19,0,0,0-.16-.27C50.12,95.41,48.43,96.29,46.44,95.75Z"/><path class="cls-5" d="M46.43,55.48a2,2,0,0,0,.32.14.73.73,0,0,0,.37,0h.07a.71.71,0,0,0,.68-.63.73.73,0,0,0-.5-.8h0a.73.73,0,0,0-.38-.11,1.71,1.71,0,0,0-.35,0,.85.85,0,0,0-.57.29.59.59,0,0,0-.08.64A.87.87,0,0,0,46.43,55.48Z"/><path class="cls-10" d="M46.43,55.48a2,2,0,0,0,.32.14.73.73,0,0,0,.37,0h.07a.71.71,0,0,0,.68-.63.73.73,0,0,0-.5-.8h0a.73.73,0,0,0-.38-.11,1.71,1.71,0,0,0-.35,0,.85.85,0,0,0-.57.29.59.59,0,0,0-.08.64A.87.87,0,0,0,46.43,55.48Z"/><path class="cls-5" d="M31.35,49.21a.74.74,0,0,0-.29-.19h0a.73.73,0,0,0-.38-.11,1.7,1.7,0,0,0-.35,0,.85.85,0,0,0-.57.29.59.59,0,0,0-.08.64.68.68,0,0,0,.23.28A4.31,4.31,0,0,1,31.35,49.21Z"/><path class="cls-10" d="M31.35,49.21a.74.74,0,0,0-.29-.19h0a.73.73,0,0,0-.38-.11,1.7,1.7,0,0,0-.35,0,.85.85,0,0,0-.57.29.59.59,0,0,0-.08.64.68.68,0,0,0,.23.28A4.31,4.31,0,0,1,31.35,49.21Z"/><path class="cls-5" d="M66.77,50.14a.71.71,0,0,0,.13-.32.73.73,0,0,0-.5-.8h0a.73.73,0,0,0-.38-.11,1.7,1.7,0,0,0-.35,0,1,1,0,0,0-.46.21A4.44,4.44,0,0,1,66.77,50.14Z"/><path class="cls-6" d="M66.77,50.14a.71.71,0,0,0,.13-.32.73.73,0,0,0-.5-.8h0a.73.73,0,0,0-.38-.11,1.7,1.7,0,0,0-.35,0,1,1,0,0,0-.46.21A4.44,4.44,0,0,1,66.77,50.14Z"/><path class="cls-10" d="M66.77,50.14a.71.71,0,0,0,.13-.32.73.73,0,0,0-.5-.8h0a.73.73,0,0,0-.38-.11,1.7,1.7,0,0,0-.35,0,1,1,0,0,0-.46.21A4.44,4.44,0,0,1,66.77,50.14Z"/><path class="cls-7" d="M61.69,111.1c-1.76,0-3.51,0-5.27-.07-7.52-.19-15-.63-22.5-1.51-5.25-.62-13.23.1-12.1,7.56.62,4.13,4.34,6.4,8.14,7.9a42.52,42.52,0,0,0,11.57,4.83A41.49,41.49,0,0,0,59.65,131a15.75,15.75,0,0,1-.91-2.05c0-.13-.61-2-.14-1.48a4.83,4.83,0,0,0,1.19,1,15.84,15.84,0,0,1-.94-2.12c0-.13-.61-2-.14-1.48,3,3.39,5.38-.3,6-3.4a28.37,28.37,0,0,0-1.72-6C62.49,113.92,62.06,112.48,61.69,111.1Z"/><path class="cls-11" d="M61.69,111.1c-1.76,0-3.51,0-5.27-.07-7.52-.19-15-.63-22.5-1.51-5.25-.62-13.23.1-12.1,7.56.62,4.13,4.34,6.4,8.14,7.9a42.52,42.52,0,0,0,11.57,4.83A41.49,41.49,0,0,0,59.65,131a15.75,15.75,0,0,1-.91-2.05c0-.13-.61-2-.14-1.48a4.83,4.83,0,0,0,1.19,1,15.84,15.84,0,0,1-.94-2.12c0-.13-.61-2-.14-1.48,3,3.39,5.38-.3,6-3.4a28.37,28.37,0,0,0-1.72-6C62.49,113.92,62.06,112.48,61.69,111.1Z"/><path class="cls-12" d="M20.77,19.46c.42.19.86.38,1.3.55a58.28,58.28,0,0,0,7.41,2.24l-.29.34a32,32,0,0,1,2.23-2.31,37.8,37.8,0,0,0-5.1,10.3l.07-.11.3-.4,0,0a16.61,16.61,0,0,1,1.23-1.47l-.81-.25A41.13,41.13,0,0,1,30,22.39c1.8.4,3.62.72,5.45,1,.86-.46,1.74-.93,2.63-1.44.34-.2.74-.39,1.16-.59,1.7-.81,3.94-1.67,6.09-2.7l.31.47a26.17,26.17,0,0,0,3,3.69A58.45,58.45,0,0,0,58,29.94a67.5,67.5,0,0,1-8.36-6.23,82.28,82.28,0,0,0,17.42-3.28,21,21,0,0,1,5.16,9.45c-1.27-4.47-3.4-8.69-7.43-11.3a9.57,9.57,0,0,1,2.83,1.68,91.65,91.65,0,0,0,10.19-3.81c-.12-.21-.23-.42-.35-.63l-.38-.61q-.54-.88-1.13-1.72l-.45-.64c-.53-.73-1.08-1.45-1.67-2.14a28.26,28.26,0,0,0-3.4-3.37,24.43,24.43,0,0,0-4-2.69h0L65.44,4.1A37.78,37.78,0,0,0,55.18.39c-.41-.08-.83-.15-1.24-.21h-.06l-.8-.09H53a11.8,11.8,0,0,0-5.07.51l-.38.14-.06,0-.09,0a7.79,7.79,0,0,0-.89.47c-.2.12-.38.26-.56.39l-.26.2-.11.08c-3.46,2.93-3.51,8.54-2,13A14.61,14.61,0,0,1,43,13a9.08,9.08,0,0,1-.66-1.43h0a8.1,8.1,0,0,1-.27-.9v-.08h0A12.8,12.8,0,0,1,42.72,3c-8.52.58-15.63,6.06-20.32,13.12l-.3.48a52.2,52.2,0,0,0-2.25,5.15l0,.07q-.32.84-.6,1.69v0c-.14.42-.27.83-.39,1.24A54,54,0,0,1,20.77,19.46Z"/><path class="cls-12" d="M16.65,44.35c0,.35.09.7.14,1.05a121.89,121.89,0,0,0,8.89,31.11C27.43,80.43,29.91,85,32,88.79h0l0,0a14.84,14.84,0,0,0,2.8-4l.31-.63.11-.23h0A25.77,25.77,0,0,1,32,79.17C28.13,73,24.74,66.62,23.12,59.4A50.27,50.27,0,0,1,22,51.79,20.45,20.45,0,0,1,20.14,46c-.34-2.2-.72-5,1.55-6.11a31.82,31.82,0,0,1,3.82-12.12c-.5-.18-1-.34-1.5-.53s-1.22-.47-1.82-.71l-.53-.28-2.84-1.47-.12.39-.07.24q-.23.77-.42,1.52l0,.08c-.13.51-.25,1-.37,1.52l-.07.34c-.11.5-.21,1-.3,1.48h0c-.18,1-.33,2.05-.45,3.12,0,.25,0,.51-.07.77-.09.86-.16,1.72-.21,2.6,0,.05,0,.11,0,.16C16.55,39.39,16.54,41.85,16.65,44.35Z"/><path class="cls-12" d="M27.35,24.89l-.29.42Z"/><path class="cls-12" d="M26.37,26.33l-.17.28Z"/><path class="cls-12" d="M28.07,24l.38-.49Z"/><path class="cls-3" d="M63,85a7.5,7.5,0,0,1-.65-.46l0,.07c.18.28.36.55.56.82Z"/><path class="cls-4" d="M63,85a7.5,7.5,0,0,1-.65-.46l0,.07c.18.28.36.55.56.82Z"/><path class="cls-6" d="M63,85a7.5,7.5,0,0,1-.65-.46l0,.07c.18.28.36.55.56.82Z"/><path class="cls-5" d="M62.92,85.46c-.2-.27-.38-.54-.56-.82-.27.82-.52,1.65-.73,2.48-1.81,7-2.4,12.66-.78,20.45l1.14-.05A57.42,57.42,0,0,1,62.92,85.46Z"/><path class="cls-6" d="M62.92,85.46c-.2-.27-.38-.54-.56-.82-.27.82-.52,1.65-.73,2.48-1.81,7-2.4,12.66-.78,20.45l1.14-.05A57.42,57.42,0,0,1,62.92,85.46Z"/><path class="cls-5" d="M62,107.52l-1.14.05h0l1.14,0Z"/><path class="cls-13" d="M62,107.52l-1.14.05h0l1.14,0Z"/><path class="cls-7" d="M61.69,111.1h1q-.4-1.78-.68-3.58l-1.14,0Q61.19,109.26,61.69,111.1Z"/><path class="cls-13" d="M61.69,111.1h1q-.4-1.78-.68-3.58l-1.14,0Q61.19,109.26,61.69,111.1Z"/><path class="cls-7" d="M85.7,133.37c0-.9,0-1.75.06-2.54a16.17,16.17,0,0,1-5.45,4.67c-.08.06-.15.14-.23.2a3,3,0,0,1-1,.37,14.64,14.64,0,0,1-4.48,1,15.2,15.2,0,0,1-13.11-5.92l-.28-.41-.2,0c-.44.09-.88.15-1.32.23a21.31,21.31,0,0,0,1.69,2.73,14.84,14.84,0,0,0,9.55,5.72q4.46-.49,9.12-1.23A16.11,16.11,0,0,0,85.7,133.37Z"/><path class="cls-13" d="M85.7,133.37c0-.9,0-1.75.06-2.54a16.17,16.17,0,0,1-5.45,4.67c-.08.06-.15.14-.23.2a3,3,0,0,1-1,.37,14.64,14.64,0,0,1-4.48,1,15.2,15.2,0,0,1-13.11-5.92l-.28-.41-.2,0c-.44.09-.88.15-1.32.23a21.31,21.31,0,0,0,1.69,2.73,14.84,14.84,0,0,0,9.55,5.72q4.46-.49,9.12-1.23A16.11,16.11,0,0,0,85.7,133.37Z"/><path class="cls-7" d="M91.53,118.65a50.13,50.13,0,0,0,.78-8.12c-.06.81-.11,1.63-.21,2.44v0h0c-.12,1-.27,2-.45,3.05a38.27,38.27,0,0,1-4.51,12.78q.1,1,.22,2A39.11,39.11,0,0,0,91.53,118.65Z"/><path class="cls-13" d="M91.53,118.65a50.13,50.13,0,0,0,.78-8.12c-.06.81-.11,1.63-.21,2.44v0h0c-.12,1-.27,2-.45,3.05a38.27,38.27,0,0,1-4.51,12.78q.1,1,.22,2A39.11,39.11,0,0,0,91.53,118.65Z"/><path class="cls-9" d="M85.7,133.37a23,23,0,0,0,1.65-2.49q-.12-1-.22-2a22.47,22.47,0,0,1-1.37,2C85.73,131.62,85.7,132.47,85.7,133.37Z"/><path class="cls-13" d="M85.7,133.37a23,23,0,0,0,1.65-2.49q-.12-1-.22-2a22.47,22.47,0,0,1-1.37,2C85.73,131.62,85.7,132.47,85.7,133.37Z"/><path class="cls-7" d="M61.69,111.1c.37,1.38.8,2.82,1.3,4.36a28.37,28.37,0,0,1,1.72,6,8.42,8.42,0,0,0,.13-.89c.24-2.85-1-5.07-1.74-7.7q-.23-.87-.43-1.76Z"/><path class="cls-11" d="M61.69,111.1c.37,1.38.8,2.82,1.3,4.36a28.37,28.37,0,0,1,1.72,6,8.42,8.42,0,0,0,.13-.89c.24-2.85-1-5.07-1.74-7.7q-.23-.87-.43-1.76Z"/><path class="cls-13" d="M61.69,111.1c.37,1.38.8,2.82,1.3,4.36a28.37,28.37,0,0,1,1.72,6,8.42,8.42,0,0,0,.13-.89c.24-2.85-1-5.07-1.74-7.7q-.23-.87-.43-1.76Z"/><path class="cls-7" d="M58.75,128.93a15.75,15.75,0,0,0,.91,2.05c.44-.07.88-.14,1.32-.23l.2,0a20.89,20.89,0,0,1-1.37-2.25,4.83,4.83,0,0,1-1.19-1C58.14,126.93,58.7,128.8,58.75,128.93Z"/><path class="cls-11" d="M58.75,128.93a15.75,15.75,0,0,0,.91,2.05c.44-.07.88-.14,1.32-.23l.2,0a20.89,20.89,0,0,1-1.37-2.25,4.83,4.83,0,0,1-1.19-1C58.14,126.93,58.7,128.8,58.75,128.93Z"/><path class="cls-13" d="M58.75,128.93a15.75,15.75,0,0,0,.91,2.05c.44-.07.88-.14,1.32-.23l.2,0a20.89,20.89,0,0,1-1.37-2.25,4.83,4.83,0,0,1-1.19-1C58.14,126.93,58.7,128.8,58.75,128.93Z"/><path class="cls-3" d="M21.78,39.84a4.09,4.09,0,0,1,3.54.09,5.37,5.37,0,0,1,1.16.8c-.06-2.53-.06-4.78,0-6.79l0,.06c0-.9.09-1.75.15-2.56q0-.7.1-1.35l-.3.4-.07.11a37.8,37.8,0,0,1,5.1-10.3,32,32,0,0,0-2.23,2.31c-.25.29-.5.57-.74.86l-.38.49c-.24.31-.49.62-.71.94l-.29.42c-.24.34-.47.68-.69,1l-.17.28c-.24.39-.48.77-.69,1.16h0a31.81,31.81,0,0,0-3.82,12.12Z"/><path class="cls-5" d="M26.28,55a2.7,2.7,0,0,1-.48,0A2.74,2.74,0,0,0,26.28,55Z"/><path class="cls-5" d="M23.32,53.7q-.17-.19-.33-.4C23.1,53.44,23.21,53.57,23.32,53.7Z"/><path class="cls-5" d="M22.45,52.51a15.07,15.07,0,0,1-1.14-2.33,8.15,8.15,0,0,0,2.92,2.07,5.61,5.61,0,0,0,2.88.42c0,.79.06,1.77.09,2a2.14,2.14,0,0,1-.9.32,2.11,2.11,0,0,0,.85-.28l.07,1.09c.3,4.34,1.19,6.7,3.35,9.15a60.16,60.16,0,0,0,6.21,5.61l0,0c1.45,1.21,3.09,2.58,5,4.23a9.28,9.28,0,0,0,12.33,0c2.26-2,4.16-3.54,5.79-4.91h0c3.4-2.84,5.55-4.71,6.88-6.91,0-1.19-.15-2.38-.31-3.57-.18-1.41-.37-2.85-.58-4.3a8.35,8.35,0,0,1-4.78,2.71A5.7,5.7,0,0,1,59,57.59c-2.78-.31-4.56-3-3.19-5.54,1.27-2.36,4.88-3.33,7.4-3.26a6.15,6.15,0,0,1,1.53.24c-.21-.85-.45-1.68-.72-2.5a4.74,4.74,0,0,1-2.59,1.11c-1.6.16-4.09-.47-4.87-1.82a.89.89,0,0,1-.1-.51c-.44.28-1.22,0-1-.53a4.58,4.58,0,0,1,.93-1.66A5.19,5.19,0,0,1,57.32,42,5.34,5.34,0,0,1,59,40.85,11.74,11.74,0,0,1,60.88,40a41.84,41.84,0,0,0-3.39-4.23c-1.21.2-2.23.41-3,.45-1.69.1-2.23-2-.52-2.2l1.69-.22c-4.18-4.45-8.55-8.75-10-14.69l-.31-.47c-2.15,1-4.38,1.89-6.09,2.7A43.26,43.26,0,0,0,26.48,33.94c-.06,2-.06,4.27,0,6.79a5.37,5.37,0,0,0-1.16-.8,4.09,4.09,0,0,0-3.54-.09l-.09,0C19.42,41,19.8,43.81,20.14,46A20.45,20.45,0,0,0,22,51.79C22.17,52,22.3,52.28,22.45,52.51Zm7.81-9.28a2.31,2.31,0,0,1,.06-2.52c1.45-2,5.35-1.42,8.13.14A5.34,5.34,0,0,1,40.1,42,5.19,5.19,0,0,1,41,43.12,4.58,4.58,0,0,1,42,44.77c.18.56-.56.8-1,.56a1.13,1.13,0,0,1-.13.49c-.78,1.34-3.28,2-4.87,1.82a4.72,4.72,0,0,1-3.6-2.31,5.27,5.27,0,0,1-1.22-.92,2.18,2.18,0,0,1-2.41-1.25c-.05-.12.06-.27.16-.18A1.23,1.23,0,0,0,30.26,43.23Zm5.26,14.61a8.69,8.69,0,0,1-6.06-4.51,2.57,2.57,0,0,1,.4-3.16.68.68,0,0,1-.23-.28.59.59,0,0,1,.08-.64.85.85,0,0,1,.57-.29,1.7,1.7,0,0,1,.35,0A.73.73,0,0,1,31,49h0a.74.74,0,0,1,.29.19,6.1,6.1,0,0,1,2.07-.43c2.52-.07,6.13.9,7.4,3.26,1.37,2.54-.41,5.23-3.19,5.54A5.7,5.7,0,0,1,35.52,57.84Zm23.15,2.42c.56.17,1.07.9.74,1.45a.44.44,0,0,1-.69.08,1.32,1.32,0,0,1-.23-.51,1.82,1.82,0,0,0-.28-.44C58,60.55,58.36,60.17,58.67,60.26Zm-3.93.85a6,6,0,0,0,3.1.14l0,0H58c.1,0,.61-.1.44.13,0,0,0,0,.07,0a.07.07,0,0,0-.08,0h0a1.05,1.05,0,0,1-.39.23,9.59,9.59,0,0,0-.92,1.27c-.66.93-1.29,1.9-1.92,2.89-1.26,2-2.14,4.37-4.36,5.67-.13.08-.27.14-.41.2a2.13,2.13,0,0,1,.3.12,1.37,1.37,0,0,1,.76,1c.32,1.66-1.87,2.2-3.05,2.34a4.06,4.06,0,0,1-3-.45,1.53,1.53,0,0,1-.29-2.36,2.25,2.25,0,0,1,.76-.48,5,5,0,0,1-1.15-.61,13,13,0,0,1-2.79-2.75c-1.25-1.71-2.13-3.45-3.32-5.1h0a.85.85,0,0,1-.26-.35c-.31-.41-.64-.81-1-1.21a.79.79,0,0,1-.13.24.44.44,0,0,1-.69-.06c-.34-.55.15-1.29.7-1.47.3-.1.68.27.47.56a1.83,1.83,0,0,0-.27.45.45.45,0,0,1,.23,0,3.13,3.13,0,0,1,.4,0,8.36,8.36,0,0,0,1.25.1,5.45,5.45,0,0,0,1.39-.25,11.9,11.9,0,0,0,1.37-.53,12.08,12.08,0,0,1,3-1,3.71,3.71,0,0,1,2.72.8,3.71,3.71,0,0,1,2.7-.86A33,33,0,0,1,54.74,61.12ZM46,54.41a.85.85,0,0,1,.57-.29,1.71,1.71,0,0,1,.35,0,.73.73,0,0,1,.38.11h0a.73.73,0,0,1,.5.8.71.71,0,0,1-.68.63h-.07a.73.73,0,0,1-.37,0,2,2,0,0,1-.32-.14.87.87,0,0,1-.48-.43A.59.59,0,0,1,46,54.41Zm-1.85,2.28c.76-.79,1.63-.31,2.52-.06,1.61.44,3-.28,4.56-.45a.15.15,0,0,1,.13.22A4.88,4.88,0,0,1,48,58.5c-1.61.1-2.43-1-3.79-1.65A.11.11,0,0,1,44.18,56.69ZM30.53,34.23c3.85-.92,4.53-1.58,11.74,0,1.68.37,1,2.38-.69,2.16S36.75,35,33,34.89C32,34.88,25.33,35.47,30.53,34.23Zm-8.61,7.94a2,2,0,0,1,2.8.74,6.48,6.48,0,0,1,1.16,3.22,4.1,4.1,0,0,1-1,3.15c-.07.1-.23,0-.22-.11a9.86,9.86,0,0,0-.38-3.31,4.34,4.34,0,0,0-.79-1.34c0,.16,0,.31,0,.47a1.21,1.21,0,0,1-2.28.72A2.77,2.77,0,0,1,21.92,42.17Z"/><path class="cls-5" d="M22.87,53.14q-.2-.28-.4-.59Q22.66,52.86,22.87,53.14Z"/><path class="cls-5" d="M24.36,54.57a3.62,3.62,0,0,1-.36-.24A3.65,3.65,0,0,0,24.36,54.57Z"/><path class="cls-5" d="M25.09,54.89a3.88,3.88,0,0,0,.6.11A3.74,3.74,0,0,1,25.09,54.89Z"/><path class="cls-5" d="M23.81,54.18l-.33-.31Z"/><path class="cls-5" d="M25.09,54.89a2.76,2.76,0,0,1-.56-.22A2.77,2.77,0,0,0,25.09,54.89Z"/><path class="cls-3" d="M25.8,55h0Z"/><path class="cls-6" d="M25.8,55h0Z"/><path class="cls-3" d="M26.3,55h0Z"/><path class="cls-6" d="M26.3,55h0Z"/><path class="cls-3" d="M22.47,52.55l0,0Z"/><path class="cls-6" d="M22.47,52.55l0,0Z"/><path class="cls-3" d="M24,54.33l-.18-.15Z"/><path class="cls-6" d="M24,54.33l-.18-.15Z"/><path class="cls-3" d="M23,53.3l-.12-.16Z"/><path class="cls-6" d="M23,53.3l-.12-.16Z"/><path class="cls-3" d="M24.53,54.67l-.17-.1Z"/><path class="cls-6" d="M24.53,54.67l-.17-.1Z"/><path class="cls-3" d="M23.49,53.87l-.16-.17Z"/><path class="cls-6" d="M23.49,53.87l-.16-.17Z"/><path class="cls-5" d="M27.2,54.67c0-.23-.07-1.21-.09-2a5.61,5.61,0,0,1-2.88-.42,8.15,8.15,0,0,1-2.92-2.07,15.07,15.07,0,0,0,1.14,2.33l0,0q.19.31.4.59l.12.16q.16.21.33.4l.16.17.33.31.18.15a3.62,3.62,0,0,0,.36.24l.17.1a2.76,2.76,0,0,0,.56.22,3.74,3.74,0,0,0,.6.11h.1a2.7,2.7,0,0,0,.48,0h0A2.14,2.14,0,0,0,27.2,54.67Z"/><path class="cls-6" d="M27.2,54.67c0-.23-.07-1.21-.09-2a5.61,5.61,0,0,1-2.88-.42,8.15,8.15,0,0,1-2.92-2.07,15.07,15.07,0,0,0,1.14,2.33l0,0q.19.31.4.59l.12.16q.16.21.33.4l.16.17.33.31.18.15a3.62,3.62,0,0,0,.36.24l.17.1a2.76,2.76,0,0,0,.56.22,3.74,3.74,0,0,0,.6.11h.1a2.7,2.7,0,0,0,.48,0h0A2.14,2.14,0,0,0,27.2,54.67Z"/><path class="cls-5" d="M23.54,45c0-.16,0-.31,0-.47a4.34,4.34,0,0,1,.79,1.34,9.86,9.86,0,0,1,.38,3.31c0,.13.15.2.22.11a4.1,4.1,0,0,0,1-3.15,6.48,6.48,0,0,0-1.16-3.22,2,2,0,0,0-2.8-.74,2.77,2.77,0,0,0-.65,3.54A1.21,1.21,0,0,0,23.54,45Z"/><path class="cls-6" d="M23.54,45c0-.16,0-.31,0-.47a4.34,4.34,0,0,1,.79,1.34,9.86,9.86,0,0,1,.38,3.31c0,.13.15.2.22.11a4.1,4.1,0,0,0,1-3.15,6.48,6.48,0,0,0-1.16-3.22,2,2,0,0,0-2.8-.74,2.77,2.77,0,0,0-.65,3.54A1.21,1.21,0,0,0,23.54,45Z"/><path class="cls-5" d="M40.82,52c-1.27-2.36-4.88-3.33-7.4-3.26a6.1,6.1,0,0,0-2.07.43.72.72,0,0,1,.21.61.71.71,0,0,1-.68.63h-.07a.73.73,0,0,1-.37,0,2,2,0,0,1-.32-.14,1.42,1.42,0,0,1-.25-.15,2.57,2.57,0,0,0-.4,3.16,8.69,8.69,0,0,0,6.06,4.51,5.7,5.7,0,0,0,2.11-.25C40.41,57.28,42.2,54.59,40.82,52Z"/><path class="cls-14" d="M40.82,52c-1.27-2.36-4.88-3.33-7.4-3.26a6.1,6.1,0,0,0-2.07.43.72.72,0,0,1,.21.61.71.71,0,0,1-.68.63h-.07a.73.73,0,0,1-.37,0,2,2,0,0,1-.32-.14,1.42,1.42,0,0,1-.25-.15,2.57,2.57,0,0,0-.4,3.16,8.69,8.69,0,0,0,6.06,4.51,5.7,5.7,0,0,0,2.11-.25C40.41,57.28,42.2,54.59,40.82,52Z"/><path class="cls-5" d="M30.44,50.45a.73.73,0,0,0,.37,0h.07a.71.71,0,0,0,.68-.63.72.72,0,0,0-.21-.61,4.31,4.31,0,0,0-1.49,1,1.42,1.42,0,0,0,.25.15A2,2,0,0,0,30.44,50.45Z"/><path class="cls-10" d="M30.44,50.45a.73.73,0,0,0,.37,0h.07a.71.71,0,0,0,.68-.63.72.72,0,0,0-.21-.61,4.31,4.31,0,0,0-1.49,1,1.42,1.42,0,0,0,.25.15A2,2,0,0,0,30.44,50.45Z"/><path class="cls-14" d="M30.44,50.45a.73.73,0,0,0,.37,0h.07a.71.71,0,0,0,.68-.63.72.72,0,0,0-.21-.61,4.31,4.31,0,0,0-1.49,1,1.42,1.42,0,0,0,.25.15A2,2,0,0,0,30.44,50.45Z"/><path class="cls-5" d="M56.21,45.15c-.22.39-.68.11-.51-.41A7.26,7.26,0,0,1,57.32,42a5.19,5.19,0,0,0-.95,1.11,4.58,4.58,0,0,0-.93,1.66c-.18.58.6.81,1,.53A2.78,2.78,0,0,1,57,44.06,7.26,7.26,0,0,0,56.21,45.15Z"/><path class="cls-6" d="M56.21,45.15c-.22.39-.68.11-.51-.41A7.26,7.26,0,0,1,57.32,42a5.19,5.19,0,0,0-.95,1.11,4.58,4.58,0,0,0-.93,1.66c-.18.58.6.81,1,.53A2.78,2.78,0,0,1,57,44.06,7.26,7.26,0,0,0,56.21,45.15Z"/><path class="cls-5" d="M60.88,40a11.74,11.74,0,0,0-1.92.86,5,5,0,0,1,2.2-.44Z"/><path class="cls-6" d="M60.88,40a11.74,11.74,0,0,0-1.92.86,5,5,0,0,1,2.2-.44Z"/><path class="cls-5" d="M65.22,45c0,.1-.11.2-.17.3a5.22,5.22,0,0,0,1.13-.82l0-.12a4.74,4.74,0,0,1-.92-.24A1,1,0,0,1,65.22,45Z"/><path class="cls-6" d="M65.22,45c0,.1-.11.2-.17.3a5.22,5.22,0,0,0,1.13-.82l0-.12a4.74,4.74,0,0,1-.92-.24A1,1,0,0,1,65.22,45Z"/><path class="cls-6" d="M65.22,45c0,.1-.11.2-.17.3a5.22,5.22,0,0,0,1.13-.82l0-.12a4.74,4.74,0,0,1-.92-.24A1,1,0,0,1,65.22,45Z"/><path class="cls-5" d="M61.16,40.42h.25a7.41,7.41,0,0,1,3.75,1.48c-.43-.81-.88-1.63-1.38-2.45a9.87,9.87,0,0,0-2.9.55Z"/><path class="cls-6" d="M61.16,40.42h.25a7.41,7.41,0,0,1,3.75,1.48c-.43-.81-.88-1.63-1.38-2.45a9.87,9.87,0,0,0-2.9.55Z"/><path class="cls-6" d="M61.16,40.42h.25a7.41,7.41,0,0,1,3.75,1.48c-.43-.81-.88-1.63-1.38-2.45a9.87,9.87,0,0,0-2.9.55Z"/><path class="cls-15" d="M65.05,45.33c.06-.1.12-.2.17-.3a1,1,0,0,0,0-.88,6.53,6.53,0,0,1-.94-.42,11.82,11.82,0,0,0-2.12-.93,4,4,0,0,1,1,.81,2,2,0,0,1,.54,2c-.53,1.66-3.32,2.19-4.7,1.46a2.35,2.35,0,0,1-.58-.44,2.51,2.51,0,0,1-.56-2.14,2.36,2.36,0,0,1,1-1.73A4.42,4.42,0,0,0,57,44.06a2.78,2.78,0,0,0-.49,1.25.89.89,0,0,0,.1.51c.78,1.34,3.28,2,4.87,1.82A4.74,4.74,0,0,0,64,46.53,4.57,4.57,0,0,0,65.05,45.33Z"/><path class="cls-16" d="M57.9,44.43a2.51,2.51,0,0,0,.56,2.14A2.35,2.35,0,0,0,59,47c1.39.74,4.18.2,4.7-1.46a2,2,0,0,0-.54-2,4,4,0,0,0-1-.81,5.1,5.1,0,0,0-3.32-.09A2.36,2.36,0,0,0,57.9,44.43Zm4.91.86a.57.57,0,0,1-.4.49c0,.06-.05.11-.1.17a1.17,1.17,0,0,1-.28.24,2.59,2.59,0,0,1-2.59.25,1.58,1.58,0,0,1-.39-.29,1.84,1.84,0,0,1-.37-1.33.41.41,0,0,1,.08-.74c.55-2,4-1.13,4,.72A1.25,1.25,0,0,1,62.81,45.29Z"/><path class="cls-3" d="M58.77,44.08a.49.49,0,0,1,.16,0,.42.42,0,1,1,0,.83.46.46,0,0,1-.24-.07,1.84,1.84,0,0,0,.37,1.33,1.58,1.58,0,0,0,.39.29A2.59,2.59,0,0,0,62,46.19a1.17,1.17,0,0,0,.28-.24c0-.06.06-.11.1-.17a.6.6,0,0,1-.8-.34,1.68,1.68,0,0,1,0-1.22c.08-.17.33-.18.49-.12a1.11,1.11,0,0,1,.6.7C62.74,42.94,59.32,42.08,58.77,44.08Z"/><path class="cls-17" d="M61.16,40.42a5,5,0,0,0-2.2.44A5.34,5.34,0,0,0,57.32,42a7.26,7.26,0,0,0-1.62,2.73c-.18.52.29.79.51.41A7.26,7.26,0,0,1,57,44.06a4.42,4.42,0,0,1,1.89-1.36,5.1,5.1,0,0,1,3.32.09,11.82,11.82,0,0,1,2.12.93,6.53,6.53,0,0,0,.94.42,4.74,4.74,0,0,0,.92.24c-.08-.34-.16-.68-.24-1-.23-.49-.49-1-.75-1.47a7.41,7.41,0,0,0-3.75-1.48Z"/><path class="cls-15" d="M62.13,44.1c-.16-.06-.41-.06-.49.12a1.68,1.68,0,0,0,0,1.22.6.6,0,0,0,.8.34.57.57,0,0,0,.4-.49,1.25,1.25,0,0,0-.08-.49A1.11,1.11,0,0,0,62.13,44.1Z"/><path class="cls-15" d="M58.92,44a.49.49,0,0,0-.16,0,.41.41,0,0,0-.08.74.46.46,0,0,0,.24.07A.42.42,0,1,0,58.92,44Z"/><path class="cls-5" d="M63.23,48.79c-2.52-.07-6.13.9-7.4,3.26-1.37,2.54.41,5.23,3.19,5.54a5.7,5.7,0,0,0,2.11.25,8.35,8.35,0,0,0,4.78-2.71c-.3-2-.66-4.1-1.16-6.1A6.15,6.15,0,0,0,63.23,48.79Z"/><path class="cls-14" d="M63.23,48.79c-2.52-.07-6.13.9-7.4,3.26-1.37,2.54.41,5.23,3.19,5.54a5.7,5.7,0,0,0,2.11.25,8.35,8.35,0,0,0,4.78-2.71c-.3-2-.66-4.1-1.16-6.1A6.15,6.15,0,0,0,63.23,48.79Z"/><path class="cls-5" d="M66.77,50.14a.72.72,0,0,1-.55.31h-.07a.73.73,0,0,1-.37,0,2,2,0,0,1-.32-.14.87.87,0,0,1-.48-.43.59.59,0,0,1,.08-.64.56.56,0,0,1,.11-.09L64.76,49c.5,2,.86,4.06,1.16,6.1a7.93,7.93,0,0,0,1.28-1.81A2.57,2.57,0,0,0,66.77,50.14Z"/><path class="cls-6" d="M66.77,50.14a.72.72,0,0,1-.55.31h-.07a.73.73,0,0,1-.37,0,2,2,0,0,1-.32-.14.87.87,0,0,1-.48-.43.59.59,0,0,1,.08-.64.56.56,0,0,1,.11-.09L64.76,49c.5,2,.86,4.06,1.16,6.1a7.93,7.93,0,0,0,1.28-1.81A2.57,2.57,0,0,0,66.77,50.14Z"/><path class="cls-14" d="M66.77,50.14a.72.72,0,0,1-.55.31h-.07a.73.73,0,0,1-.37,0,2,2,0,0,1-.32-.14.87.87,0,0,1-.48-.43.59.59,0,0,1,.08-.64.56.56,0,0,1,.11-.09L64.76,49c.5,2,.86,4.06,1.16,6.1a7.93,7.93,0,0,0,1.28-1.81A2.57,2.57,0,0,0,66.77,50.14Z"/><path class="cls-5" d="M65,49.89a.87.87,0,0,0,.48.43,2,2,0,0,0,.32.14.73.73,0,0,0,.37,0h.07a.72.72,0,0,0,.55-.31,4.44,4.44,0,0,0-1.61-1,.56.56,0,0,0-.11.09A.59.59,0,0,0,65,49.89Z"/><path class="cls-6" d="M65,49.89a.87.87,0,0,0,.48.43,2,2,0,0,0,.32.14.73.73,0,0,0,.37,0h.07a.72.72,0,0,0,.55-.31,4.44,4.44,0,0,0-1.61-1,.56.56,0,0,0-.11.09A.59.59,0,0,0,65,49.89Z"/><path class="cls-10" d="M65,49.89a.87.87,0,0,0,.48.43,2,2,0,0,0,.32.14.73.73,0,0,0,.37,0h.07a.72.72,0,0,0,.55-.31,4.44,4.44,0,0,0-1.61-1,.56.56,0,0,0-.11.09A.59.59,0,0,0,65,49.89Z"/><path class="cls-14" d="M65,49.89a.87.87,0,0,0,.48.43,2,2,0,0,0,.32.14.73.73,0,0,0,.37,0h.07a.72.72,0,0,0,.55-.31,4.44,4.44,0,0,0-1.61-1,.56.56,0,0,0-.11.09A.59.59,0,0,0,65,49.89Z"/><path class="cls-3" d="M79.29,19.23c.24.5.48,1,.7,1.5-.36-.83-.74-1.65-1.15-2.46.07.15.14.3.21.45Z"/><path class="cls-3" d="M83.62,33.4C85,44.17,83.18,54.67,80.07,65c-2.82,9.38-6.8,18.4-7.07,28.34a40.59,40.59,0,0,0,1.88,13.46c2.22,6.93,5.44,13.65,1,20.51-2.38,3.69-7.07,7.35-11.36,4.25a6.62,6.62,0,0,1-2-2.13,4.26,4.26,0,0,0,2.61.52,3.38,3.38,0,0,0,2-1.48c2.89-4.18,2.11-9.25.3-13.69-2.27-5.56-4-10.83-3.75-16.95.27-5.79,2.3-11.4,4-16.88,1.12-3.6,2.31-7.18,3.56-10.74a1.8,1.8,0,0,0,.17-.47q1-2.85,2-5.68a61.87,61.87,0,0,0,3.73-15.61c.58-6.28.13-13-2.41-18.84-.06-.14-.13-.26-.19-.4h0q-.39-.86-.81-1.63h0a22.65,22.65,0,0,0-6.12-7.31h0a9.57,9.57,0,0,0-2.83-1.68c4,2.6,6.17,6.82,7.43,11.3h0c.35,1.24.64,2.49.88,3.74a59.52,59.52,0,0,1,0,20.93c-.36,2.18-.82,4.33-1.36,6.46.67-2.68-.2-6.72-.63-9.42a35.7,35.7,0,0,0-2.58-8.93A30.37,30.37,0,0,0,60.73,32h0q-.63-.54-1.28-1.05c-.46-.36-.93-.71-1.42-1a58.45,58.45,0,0,1-9.32-7.15,49.75,49.75,0,0,0,4.56,4.44,54.87,54.87,0,0,1,6.23,6.27,32.27,32.27,0,0,0-3.82.28L54,34c-1.7.24-1.16,2.3.52,2.2.75,0,1.77-.25,3-.45a30.37,30.37,0,0,1,3.5-.4,47,47,0,0,1,2.79,4.08c.5.82,1,1.64,1.38,2.45.26.49.52,1,.75,1.47.08.34.16.68.24,1l0,.12c.86,3.72,1.89,7.34,2.54,11.07a38.43,38.43,0,0,1,.63,7c-.06,7.77-4.31,14.62-6.21,22,0,.17-.08.34-.12.51l-.1.43A57.42,57.42,0,0,0,62,107.52h0q.28,1.8.68,3.58.2.88.43,1.76c.7,2.64,2,4.85,1.74,7.7a8.42,8.42,0,0,1-.13.89c-.6,3.1-3,6.79-6,3.4-.47-.53.09,1.35.14,1.48a15.84,15.84,0,0,0,.94,2.12,20.89,20.89,0,0,0,1.37,2.25l.28.41A15.2,15.2,0,0,0,74.56,137a14.64,14.64,0,0,0,4.48-1c-1.21.26-2.87.3-3.12.55a16.3,16.3,0,0,0,3-4c2.5-4.85,2.27-10.63,1.63-15.9a45.55,45.55,0,0,0-.84-8.38c-.08-.4-.16-.8-.24-1.19-1.48-4.62-3-9.26-3.27-14.17-.81-12.47,4-24.81,7.4-36.6.67-2.32,1.39-4.71,2-7.13.25,7.11.33,14.08-1.24,21.19.24-.59.49-1.19.72-1.78h0c.18-2.18.45-4.36.57-6.59a118.84,118.84,0,0,0-.3-17.92,102.46,102.46,0,0,0-1.69-11.54A1.65,1.65,0,0,0,83.62,33.4Z"/><path class="cls-3" d="M90,97.25a82,82,0,0,1,2.45,9.4A50.63,50.63,0,0,1,92.1,113c.1-.81.15-1.62.21-2.44a50.93,50.93,0,0,0,0-7.33v0a51.82,51.82,0,0,0-1.12-7.46,52.24,52.24,0,0,0-1.95-6.61c-1-2.77-2.1-5.55-2.93-8.39C86.06,86.5,88.23,91.78,90,97.25Z"/><path class="cls-3" d="M65.44,4.1l1.06.55Z"/><path class="cls-3" d="M47.53.72l.38-.14Z"/><path class="cls-3" d="M53,.07h0Z"/><path class="cls-3" d="M53.88.17h0Z"/><path class="cls-3" d="M53.94.18c.41.06.83.13,1.24.21C54.77.31,54.35.23,53.94.18Z"/><path class="cls-3" d="M45.68,1.84l.26-.2Z"/><path class="cls-3" d="M46.49,1.25a7.79,7.79,0,0,1,.89-.47A7.16,7.16,0,0,0,46.49,1.25Z"/><path class="cls-3" d="M81.26,23.93c.65,1.82,1.21,3.68,1.69,5.57C82.48,27.62,81.92,25.75,81.26,23.93Z"/><path class="cls-3" d="M83,29.83c.23.93.45,1.86.65,2.8Q83.39,31.22,83,29.83Z"/><path class="cls-3" d="M77.85,16.45c.11.19.2.38.3.57.22.4.46.79.67,1.2-.42-.82-.86-1.61-1.33-2.4.12.21.23.42.35.63Z"/><path class="cls-3" d="M80.24,21.32q.46,1.09.87,2.21Q80.7,22.41,80.24,21.32Z"/><path class="cls-3" d="M73.86,10.72c.59.69,1.14,1.41,1.67,2.14C75,12.12,74.45,11.41,73.86,10.72Z"/><path class="cls-3" d="M76,13.49q.59.85,1.13,1.72Q76.57,14.34,76,13.49Z"/><path class="cls-3" d="M82.74,79.58A38.67,38.67,0,0,0,81,87.77c-.61,7,1.48,13.78,3.22,20.49,1.89,7.26,2.9,15.37-.41,22.33q-.31.65-.67,1.28a12.05,12.05,0,0,1-2.81,3.63,16.17,16.17,0,0,0,5.45-4.67,22.47,22.47,0,0,0,1.37-2,38.27,38.27,0,0,0,4.51-12.78c.18-1,.33-2,.45-3.05a46.52,46.52,0,0,0-1.65-5.88C89,103,87.19,99.07,86.12,94.9c1,4.81,2.78,9.55,3.8,14.51a28.55,28.55,0,0,1-1.75,16.95,13.06,13.06,0,0,1-4.35,5.17,18.3,18.3,0,0,0,3.4-11.25c-.08-5-1.64-9.77-2.78-14.59-1.67-7-1-12.84.82-19.37,0,.07,0,.14,0,.21a32.28,32.28,0,0,1,.93-6.24,37.28,37.28,0,0,1-.95-4.14A23.76,23.76,0,0,1,85,72.94l-.21.62A33.91,33.91,0,0,0,82.74,79.58Z"/><path class="cls-3" d="M85.24,87.83q0-.08,0-.16C85.24,87.73,85.24,87.78,85.24,87.83Z"/><path class="cls-3" d="M77.78,98.35c-.07-.83-.12-1.67-.15-2.51A45.83,45.83,0,0,1,78.86,83.7a94.85,94.85,0,0,1,4-9.62c.54-1.2,1.06-2.41,1.55-3.62,1.58-7.11,1.49-14.07,1.24-21.19-.64,2.42-1.36,4.8-2,7.13C80.18,68.19,75.38,80.53,76.2,93c.32,4.91,1.8,9.54,3.27,14.17C78.88,104.23,78.21,101.3,77.78,98.35Z"/><path class="cls-18" d="M77.78,98.35c-.07-.83-.12-1.67-.15-2.51A45.83,45.83,0,0,1,78.86,83.7a94.85,94.85,0,0,1,4-9.62c.54-1.2,1.06-2.41,1.55-3.62,1.58-7.11,1.49-14.07,1.24-21.19-.64,2.42-1.36,4.8-2,7.13C80.18,68.19,75.38,80.53,76.2,93c.32,4.91,1.8,9.54,3.27,14.17C78.88,104.23,78.21,101.3,77.78,98.35Z"/><path class="cls-3" d="M85.23,88.84c0-.33,0-.67,0-1,0-.05,0-.11,0-.16,0-.38,0-.75,0-1.13,0-.07,0-.14,0-.21-1.85,6.52-2.49,12.32-.82,19.37,1.15,4.82,2.7,9.59,2.78,14.59a18.3,18.3,0,0,1-3.4,11.25,13.06,13.06,0,0,0,4.35-5.17,28.55,28.55,0,0,0,1.75-16.95c-1-5-2.75-9.71-3.8-14.51A27,27,0,0,1,85.23,88.84Z"/><path class="cls-18" d="M85.23,88.84c0-.33,0-.67,0-1,0-.05,0-.11,0-.16,0-.38,0-.75,0-1.13,0-.07,0-.14,0-.21-1.85,6.52-2.49,12.32-.82,19.37,1.15,4.82,2.7,9.59,2.78,14.59a18.3,18.3,0,0,1-3.4,11.25,13.06,13.06,0,0,0,4.35-5.17,28.55,28.55,0,0,0,1.75-16.95c-1-5-2.75-9.71-3.8-14.51A27,27,0,0,1,85.23,88.84Z"/><path class="cls-12" d="M85.24,87.67q0,.08,0,.16c0,.33,0,.67,0,1a27,27,0,0,0,.89,6.06c1.07,4.16,2.88,8.13,4.33,12.22A46.52,46.52,0,0,1,92.09,113h0v0a50.63,50.63,0,0,0,.34-6.31A82,82,0,0,0,90,97.25c-1.76-5.47-3.92-10.75-3.68-16.53v0l-.12-.38h0a32.28,32.28,0,0,0-.93,6.24C85.24,86.92,85.24,87.3,85.24,87.67Z"/><path class="cls-12" d="M84.38,70.46c-.5,1.21-1,2.42-1.55,3.62a94.85,94.85,0,0,0-4,9.62,45.83,45.83,0,0,0-1.23,12.14c0,.84.08,1.68.15,2.51.43,3,1.1,5.88,1.69,8.82.08.4.16.79.24,1.19a45.55,45.55,0,0,1,.84,8.38c.65,5.27.87,11-1.63,15.9a16.3,16.3,0,0,1-3,4c.24-.25,1.91-.29,3.12-.55a3,3,0,0,0,1-.37c.08-.06.15-.14.23-.2a12.05,12.05,0,0,0,2.81-3.63q.36-.63.67-1.28c3.31-7,2.3-15.07.41-22.33-1.74-6.71-3.83-13.47-3.22-20.49a38.67,38.67,0,0,1,1.76-8.19,33.91,33.91,0,0,1,2-6l.21-.62h0a40.53,40.53,0,0,1,.14-4.26h0C84.87,69.27,84.63,69.87,84.38,70.46Z"/><path class="cls-12" d="M82.05,26.31l-1.84.92-.24.12c-1,.38-2,.74-2.94,1.08-.81.28-1.63.54-2.45.79.06.14.13.26.19.4,2.54,5.83,3,12.56,2.41,18.84a61.87,61.87,0,0,1-3.73,15.61q-1,2.83-2,5.68a1.8,1.8,0,0,1-.17.47C70,73.78,68.81,77.36,67.69,81c-1.71,5.49-3.73,11.1-4,16.88-.29,6.11,1.48,11.38,3.75,16.95,1.81,4.44,2.59,9.5-.3,13.69a3.38,3.38,0,0,1-2,1.48,4.26,4.26,0,0,1-2.61-.52,6.62,6.62,0,0,0,2,2.13c4.29,3.1,9-.56,11.36-4.25,4.43-6.87,1.21-13.58-1-20.51A40.59,40.59,0,0,1,73,93.33c.27-9.94,4.25-19,7.07-28.34C83.18,54.67,85,44.17,83.62,33.4a1.65,1.65,0,0,1,.07-.77h0q-.3-1.4-.65-2.8L83,29.5c-.48-1.88-1-3.75-1.69-5.57l-.15-.4q-.41-1.12-.87-2.21L80,20.73c-.22-.51-.46-1-.7-1.5A52.49,52.49,0,0,1,82.05,26.31Z"/><path class="cls-12" d="M79.06,18.73c-.07-.15-.14-.3-.21-.45l0-.06c-.21-.41-.45-.8-.67-1.2C78.46,17.58,78.77,18.15,79.06,18.73Z"/><path class="cls-12" d="M73.76,27.59h0Z"/><path class="cls-12" d="M65.92,31.34l-1.81.31c1.18-.21-1.19.18-1.71.23L60.73,32A30.37,30.37,0,0,1,68.6,42.66a35.7,35.7,0,0,1,2.58,8.93c.43,2.7,1.3,6.74.63,9.42.54-2.13,1-4.29,1.36-6.46a59.52,59.52,0,0,0,0-20.93c-.24-1.25-.53-2.5-.88-3.74C70.16,30.45,68,30.94,65.92,31.34Z"/><path class="cls-12" d="M58,29.94c.49.33,1,.68,1.42,1C59,30.62,58.51,30.27,58,29.94Z"/><path class="cls-9" d="M14.42,123.19a94,94,0,0,1-1.28,13.09l2.3.51C15.89,128.13,14.42,123.19,14.42,123.19Z"/><polygon class="cls-3" points="72.25 29.88 72.25 29.88 72.25 29.88 72.25 29.88"/><polygon class="cls-19" points="72.25 29.88 72.25 29.88 72.25 29.88 72.25 29.88"/><path class="cls-3" d="M60.73,32h0c-.42-.36-.84-.72-1.28-1.05Q60.1,31.49,60.73,32Z"/><path class="cls-19" d="M60.73,32h0c-.42-.36-.84-.72-1.28-1.05Q60.1,31.49,60.73,32Z"/><path class="cls-12" d="M60.73,32l1.67-.14c.52-.05,2.89-.44,1.71-.23l1.81-.31c2.13-.4,4.24-.89,6.33-1.46h0a21,21,0,0,0-5.16-9.45,82.28,82.28,0,0,1-17.42,3.28A67.5,67.5,0,0,0,58,29.94c.49.33,1,.68,1.42,1S60.31,31.67,60.73,32Z"/><path class="cls-19" d="M60.73,32l1.67-.14c.52-.05,2.89-.44,1.71-.23l1.81-.31c2.13-.4,4.24-.89,6.33-1.46h0a21,21,0,0,0-5.16-9.45,82.28,82.28,0,0,1-17.42,3.28A67.5,67.5,0,0,0,58,29.94c.49.33,1,.68,1.42,1S60.31,31.67,60.73,32Z"/><path class="cls-3" d="M77.85,16.45h0l.31.56C78,16.83,78,16.64,77.85,16.45Z"/><path class="cls-19" d="M77.85,16.45h0l.31.56C78,16.83,78,16.64,77.85,16.45Z"/><path class="cls-3" d="M79.06,18.73l.23.5Z"/><path class="cls-19" d="M79.06,18.73l.23.5Z"/><path class="cls-3" d="M74.57,29.22h0q-.39-.86-.81-1.63Q74.18,28.36,74.57,29.22Z"/><path class="cls-19" d="M74.57,29.22h0q-.39-.86-.81-1.63Q74.18,28.36,74.57,29.22Z"/><path class="cls-3" d="M73.76,27.58a22.65,22.65,0,0,0-6.11-7.32h0A22.65,22.65,0,0,1,73.76,27.58Z"/><path class="cls-19" d="M73.76,27.58a22.65,22.65,0,0,0-6.11-7.32h0A22.65,22.65,0,0,1,73.76,27.58Z"/><path class="cls-12" d="M73.76,27.58h0q.42.78.81,1.63c.82-.25,1.64-.51,2.45-.79,1-.34,2-.71,2.94-1.08l.24-.12,1.84-.92a52.49,52.49,0,0,0-2.76-7.08l-.23-.5c-.29-.58-.59-1.14-.9-1.71l-.31-.56a91.65,91.65,0,0,1-10.19,3.81A22.65,22.65,0,0,1,73.76,27.58Z"/><path class="cls-19" d="M73.76,27.58h0q.42.78.81,1.63c.82-.25,1.64-.51,2.45-.79,1-.34,2-.71,2.94-1.08l.24-.12,1.84-.92a52.49,52.49,0,0,0-2.76-7.08l-.23-.5c-.29-.58-.59-1.14-.9-1.71l-.31-.56a91.65,91.65,0,0,1-10.19,3.81A22.65,22.65,0,0,1,73.76,27.58Z"/><polygon class="cls-3" points="18.81 24.78 18.81 24.78 18.81 24.77 18.81 24.78"/><polygon class="cls-19" points="18.81 24.78 18.81 24.78 18.81 24.77 18.81 24.78"/><path class="cls-12" d="M26.37,26.33c.22-.34.45-.68.69-1l.29-.42c.23-.31.47-.63.71-.94l.38-.49c.24-.29.49-.58.74-.86l.29-.34A58.28,58.28,0,0,1,22.07,20c-.45-.17-.88-.35-1.3-.55a54,54,0,0,0-2,5.31h0l2.84,1.47.53.28c.6.24,1.21.49,1.82.71s1,.35,1.5.53c.22-.39.46-.77.7-1.16Z"/><path class="cls-19" d="M26.37,26.33c.22-.34.45-.68.69-1l.29-.42c.23-.31.47-.63.71-.94l.38-.49c.24-.29.49-.58.74-.86l.29-.34A58.28,58.28,0,0,1,22.07,20c-.45-.17-.88-.35-1.3-.55a54,54,0,0,0-2,5.31h0l2.84,1.47.53.28c.6.24,1.21.49,1.82.71s1,.35,1.5.53c.22-.39.46-.77.7-1.16Z"/><path class="cls-3" d="M29.19,22.6c-.25.29-.5.57-.74.86C28.69,23.17,28.94,22.89,29.19,22.6Z"/><path class="cls-19" d="M29.19,22.6c-.25.29-.5.57-.74.86C28.69,23.17,28.94,22.89,29.19,22.6Z"/><path class="cls-3" d="M26.2,26.61c-.24.39-.48.77-.7,1.16h0C25.72,27.38,26,27,26.2,26.61Z"/><path class="cls-19" d="M26.2,26.61c-.24.39-.48.77-.7,1.16h0C25.72,27.38,26,27,26.2,26.61Z"/><path class="cls-3" d="M27.06,25.31c-.24.34-.47.68-.69,1C26.59,26,26.82,25.65,27.06,25.31Z"/><path class="cls-19" d="M27.06,25.31c-.24.34-.47.68-.69,1C26.59,26,26.82,25.65,27.06,25.31Z"/><path class="cls-3" d="M27.35,24.89c.23-.31.47-.63.71-.94C27.82,24.26,27.58,24.57,27.35,24.89Z"/><path class="cls-19" d="M27.35,24.89c.23-.31.47-.63.71-.94C27.82,24.26,27.58,24.57,27.35,24.89Z"/><path class="cls-5" d="M35.49,23.35h0a28.15,28.15,0,0,0-7.54,5.24h0A28.2,28.2,0,0,1,35.49,23.35Z"/><path class="cls-6" d="M35.49,23.35h0a28.15,28.15,0,0,0-7.54,5.24h0A28.2,28.2,0,0,1,35.49,23.35Z"/><path class="cls-19" d="M35.49,23.35h0a28.15,28.15,0,0,0-7.54,5.24h0A28.2,28.2,0,0,1,35.49,23.35Z"/><path class="cls-12" d="M35.49,23.35c-1.83-.24-3.65-.56-5.45-1a41.13,41.13,0,0,0-2.9,5.94l.81.25A28.15,28.15,0,0,1,35.49,23.35Z"/><path class="cls-19" d="M35.49,23.35c-1.83-.24-3.65-.56-5.45-1a41.13,41.13,0,0,0-2.9,5.94l.81.25A28.15,28.15,0,0,1,35.49,23.35Z"/><path class="cls-5" d="M45.89,71.83a2.25,2.25,0,0,0-.76.48,1.53,1.53,0,0,0,.29,2.36,4.06,4.06,0,0,0,3,.45c1.19-.14,3.38-.69,3.05-2.34a1.37,1.37,0,0,0-.76-1,2.13,2.13,0,0,0-.3-.12A5.76,5.76,0,0,1,45.89,71.83Z"/><path class="cls-20" d="M45.89,71.83a2.25,2.25,0,0,0-.76.48,1.53,1.53,0,0,0,.29,2.36,4.06,4.06,0,0,0,3,.45c1.19-.14,3.38-.69,3.05-2.34a1.37,1.37,0,0,0-.76-1,2.13,2.13,0,0,0-.3-.12A5.76,5.76,0,0,1,45.89,71.83Z"/><path class="cls-3" d="M33,34.89c3.74.06,6.83,1.28,8.57,1.52s2.37-1.78.69-2.16c-7.21-1.61-7.89-1-11.74,0C25.33,35.47,32,34.88,33,34.89Z"/><path class="cls-5" d="M32.15,42A7.45,7.45,0,0,1,36,40.41a5,5,0,0,1,2.45.44c-2.78-1.56-6.68-2.16-8.13-.14a2.31,2.31,0,0,0-.06,2.52A8.43,8.43,0,0,0,32.15,42Z"/><path class="cls-6" d="M32.15,42A7.45,7.45,0,0,1,36,40.41a5,5,0,0,1,2.45.44c-2.78-1.56-6.68-2.16-8.13-.14a2.31,2.31,0,0,0-.06,2.52A8.43,8.43,0,0,0,32.15,42Z"/><path class="cls-5" d="M32.19,44.14a4.66,4.66,0,0,1-1,.27,5.27,5.27,0,0,0,1.22.92c-.06-.1-.12-.2-.17-.3A1,1,0,0,1,32.19,44.14Z"/><path class="cls-6" d="M32.19,44.14a4.66,4.66,0,0,1-1,.27,5.27,5.27,0,0,0,1.22.92c-.06-.1-.12-.2-.17-.3A1,1,0,0,1,32.19,44.14Z"/><path class="cls-5" d="M41.72,44.74c.18.52-.29.79-.51.41-.1-.18-.21-.35-.32-.51a2.1,2.1,0,0,1,.08.68c.44.24,1.18,0,1-.56A4.58,4.58,0,0,0,41,43.12,5.19,5.19,0,0,0,40.1,42,7.26,7.26,0,0,1,41.72,44.74Z"/><path class="cls-6" d="M41.72,44.74c.18.52-.29.79-.51.41-.1-.18-.21-.35-.32-.51a2.1,2.1,0,0,1,.08.68c.44.24,1.18,0,1-.56A4.58,4.58,0,0,0,41,43.12,5.19,5.19,0,0,0,40.1,42,7.26,7.26,0,0,1,41.72,44.74Z"/><path class="cls-15" d="M38.56,42.7a2.36,2.36,0,0,1,1,1.73A2.51,2.51,0,0,1,39,46.57a2.35,2.35,0,0,1-.58.44c-1.39.74-4.18.2-4.7-1.46a2,2,0,0,1,.54-2,4,4,0,0,1,1-.81,11.81,11.81,0,0,0-2.12.93,6.53,6.53,0,0,1-.94.42,1,1,0,0,0,0,.88c0,.1.11.2.17.3A4.72,4.72,0,0,0,36,47.63c1.6.16,4.09-.47,4.87-1.82a1.13,1.13,0,0,0,.13-.49,2.1,2.1,0,0,0-.08-.68A4.78,4.78,0,0,0,38.56,42.7Z"/><path class="cls-16" d="M33.68,45.55c.53,1.66,3.32,2.19,4.7,1.46a2.35,2.35,0,0,0,.58-.44,2.51,2.51,0,0,0,.56-2.14,2.36,2.36,0,0,0-1-1.73,5.1,5.1,0,0,0-3.32.09,4,4,0,0,0-1,.81A2,2,0,0,0,33.68,45.55Zm5-1.47a.41.41,0,0,1,.08.74,1.84,1.84,0,0,1-.37,1.33,1.58,1.58,0,0,1-.39.29,2.59,2.59,0,0,1-2.59-.25A1.17,1.17,0,0,1,35.1,46c0-.06-.06-.11-.1-.17a.57.57,0,0,1-.4-.49,1.25,1.25,0,0,1,.08-.49C34.68,42.94,38.09,42.08,38.65,44.08Z"/><path class="cls-3" d="M35.28,44.1c.16-.06.41-.06.49.12a1.68,1.68,0,0,1,0,1.22.6.6,0,0,1-.8.34c0,.06.05.11.1.17a1.17,1.17,0,0,0,.28.24,2.59,2.59,0,0,0,2.59.25,1.58,1.58,0,0,0,.39-.29,1.84,1.84,0,0,0,.37-1.33.46.46,0,0,1-.24.07.42.42,0,1,1,0-.83.49.49,0,0,1,.16,0c-.55-2-4-1.13-4,.72A1.11,1.11,0,0,1,35.28,44.1Z"/><path class="cls-17" d="M28.73,43.16a2.18,2.18,0,0,0,2.41,1.25,4.66,4.66,0,0,0,1-.27,6.53,6.53,0,0,0,.94-.42,11.81,11.81,0,0,1,2.12-.93,5.1,5.1,0,0,1,3.32-.09,4.78,4.78,0,0,1,2.33,1.94c.11.16.21.33.32.51.22.39.68.11.51-.41A7.26,7.26,0,0,0,40.1,42a5.34,5.34,0,0,0-1.64-1.16A5,5,0,0,0,36,40.41,7.45,7.45,0,0,0,32.15,42a8.43,8.43,0,0,1-1.89,1.27A1.23,1.23,0,0,1,28.88,43C28.79,42.89,28.67,43,28.73,43.16Z"/><path class="cls-15" d="M35,45.78a.6.6,0,0,0,.8-.34,1.68,1.68,0,0,0,0-1.22c-.08-.17-.33-.18-.49-.12a1.11,1.11,0,0,0-.6.7,1.25,1.25,0,0,0-.08.49A.57.57,0,0,0,35,45.78Z"/><path class="cls-15" d="M38.49,44.88a.46.46,0,0,0,.24-.07.41.41,0,0,0-.08-.74.49.49,0,0,0-.16,0A.42.42,0,1,0,38.49,44.88Z"/><path class="cls-9" d="M38.36,63a.85.85,0,0,0,.26.35h0Z"/><path class="cls-9" d="M43.57,67.27a2.22,2.22,0,0,1,.83-.67,8.06,8.06,0,0,1,3.6-.46,7.29,7.29,0,0,1,3.71.87c1.86-1.57,3.44-3.81,5.22-5.1-.59.13-1.25.25-1.78.35l-.11.08.32.06c-.19.2-.39.39-.57.6-4.14,1.35-10.16,2-14.22.53a9,9,0,0,0-.62-1h0a7.81,7.81,0,0,1-1.22-.18,29.81,29.81,0,0,1,2.87,3.24A8.56,8.56,0,0,0,43.57,67.27Z"/><path class="cls-9" d="M44.4,66.61a2.22,2.22,0,0,0-.83.67c.32.21.66.4,1,.58a22.26,22.26,0,0,1,6.17-.08,10,10,0,0,0,1-.75A7.29,7.29,0,0,0,48,66.14,8.06,8.06,0,0,0,44.4,66.61Z"/><path class="cls-21" d="M44.4,66.61a2.22,2.22,0,0,0-.83.67c.32.21.66.4,1,.58a22.26,22.26,0,0,1,6.17-.08,10,10,0,0,0,1-.75A7.29,7.29,0,0,0,48,66.14,8.06,8.06,0,0,0,44.4,66.61Z"/><path class="cls-15" d="M44.55,67.85c.35.19.7.36,1,.48a5.27,5.27,0,0,0,2.39.41,5.71,5.71,0,0,0,2.77-1A22.26,22.26,0,0,0,44.55,67.85Z"/><path class="cls-15" d="M40.57,63.54c4.06,1.49,10.08.82,14.22-.53.18-.21.38-.4.57-.6L55,62.35l-.14,0a5.69,5.69,0,0,0-.68.16,8.51,8.51,0,0,1-1.84.25c-1.79.13-3.53-.34-5.31-.17a30.91,30.91,0,0,1-3.58.3c-1.18,0-2.38-.19-3.54-.29A9,9,0,0,1,40.57,63.54Z"/><path class="cls-5" d="M37.44,61.53a1.83,1.83,0,0,1,.27-.45c.2-.3-.17-.66-.47-.56-.55.18-1,.92-.7,1.47a.44.44,0,0,0,.69.06.79.79,0,0,0,.13-.24l-.12-.14A.27.27,0,0,1,37.44,61.53Z"/><path class="cls-6" d="M37.44,61.53a1.83,1.83,0,0,1,.27-.45c.2-.3-.17-.66-.47-.56-.55.18-1,.92-.7,1.47a.44.44,0,0,0,.69.06.79.79,0,0,0,.13-.24l-.12-.14A.27.27,0,0,1,37.44,61.53Z"/><path class="cls-5" d="M58.49,61.28a1.32,1.32,0,0,0,.23.51.44.44,0,0,0,.69-.08c.33-.55-.18-1.28-.74-1.45-.31-.09-.67.28-.46.57A1.82,1.82,0,0,1,58.49,61.28Z"/><path class="cls-6" d="M58.49,61.28a1.32,1.32,0,0,0,.23.51.44.44,0,0,0,.69-.08c.33-.55-.18-1.28-.74-1.45-.31-.09-.67.28-.46.57A1.82,1.82,0,0,1,58.49,61.28Z"/><path class="cls-7" d="M47.86,60.73a3.71,3.71,0,0,0-2.72-.8,12.08,12.08,0,0,0-3,1,11.9,11.9,0,0,1-1.37.53,5.45,5.45,0,0,1-1.39.25,8.36,8.36,0,0,1-1.25-.1,3.13,3.13,0,0,0-.4,0,.45.45,0,0,0-.23,0,.27.27,0,0,0-.21.15l.12.14c.36.4.69.8,1,1.21l.27.35c1.18,1.65,2.06,3.38,3.32,5.1a13,13,0,0,0,2.79,2.75,5,5,0,0,0,1.15.61,5.76,5.76,0,0,0,4.51-.18c.14-.07.28-.12.41-.2,2.21-1.3,3.1-3.69,4.36-5.67.62-1,1.26-2,1.92-2.89A9.59,9.59,0,0,1,58,61.61a1.05,1.05,0,0,0,.39-.23h0a.07.07,0,0,1,.08,0s0,0-.07,0c.17-.23-.34-.15-.44-.13h-.09l0,0a6,6,0,0,1-3.1-.14,33,33,0,0,0-4.17-1.25A3.71,3.71,0,0,0,47.86,60.73ZM38.7,62.38a7.81,7.81,0,0,0,1.22.18h0c1.16.1,2.36.27,3.54.29a30.91,30.91,0,0,0,3.58-.3c1.78-.17,3.52.3,5.31.17a8.51,8.51,0,0,0,1.84-.25,5.69,5.69,0,0,1,.68-.16l.26,0c.53-.1,1.19-.22,1.78-.35-1.78,1.29-3.36,3.53-5.22,5.1a10,10,0,0,1-1,.75,5.71,5.71,0,0,1-2.77,1,5.27,5.27,0,0,1-2.39-.41c-.31-.13-.65-.29-1-.48s-.65-.37-1-.58a8.56,8.56,0,0,1-2-1.65A29.81,29.81,0,0,0,38.7,62.38Zm11.68,8.41a3.14,3.14,0,0,1-2.48.68.38.38,0,0,1,0-.77A7.74,7.74,0,0,0,50,70.09.42.42,0,0,1,50.38,70.79Z"/><path class="cls-7" d="M50,70.09a7.74,7.74,0,0,1-2.08.61.38.38,0,0,0,0,.77,3.14,3.14,0,0,0,2.48-.68A.42.42,0,0,0,50,70.09Z"/><path class="cls-22" d="M50,70.09a7.74,7.74,0,0,1-2.08.61.38.38,0,0,0,0,.77,3.14,3.14,0,0,0,2.48-.68A.42.42,0,0,0,50,70.09Z"/></g></g></g></svg>