<svg xmlns="http://www.w3.org/2000/svg" viewBox="0 0 103.68 140.51"><defs><style>.cls-1{isolation:isolate;}.cls-2{fill:none;}.cls-17,.cls-3,.cls-4{fill:#3f2d2b;}.cls-12,.cls-21,.cls-4,.cls-6,.cls-9{opacity:0.5;}.cls-17,.cls-4{mix-blend-mode:multiply;}.cls-20,.cls-5,.cls-9{fill:#fac494;}.cls-6{fill:#ed8c72;}.cls-10,.cls-21,.cls-22,.cls-7{fill:#f24469;}.cls-12,.cls-18,.cls-8{fill:#c61443;}.cls-10,.cls-17,.cls-19,.cls-20,.cls-8{opacity:0.2;}.cls-10,.cls-20,.cls-22,.cls-9{mix-blend-mode:screen;}.cls-11{fill:#533734;}.cls-13{fill:#ff5a5a;opacity:0.15;}.cls-14{fill:#fff;}.cls-15,.cls-19{fill:#8f705e;}.cls-16{fill:#211313;}</style></defs><title>Ресурс 12</title><g class="cls-1"><g id="Слой_2" data-name="Слой 2"><g id="Layer_1" data-name="Layer 1"><path class="cls-2" d="M20,65.9a205,205,0,0,0,3.79,25.59h.12c2.16-.54,4-.53,5.71-1.18a98.65,98.65,0,0,1-5-10.45A106.38,106.38,0,0,1,20,65.9Z"/><path class="cls-3" d="M20,65.9a106.38,106.38,0,0,0,4.57,13.95,98.65,98.65,0,0,0,5,10.45A7.33,7.33,0,0,0,32,88.79c-2.09-3.75-4.57-8.36-6.32-12.28A121.89,121.89,0,0,1,16.8,45.4c-.05-.35-.1-.7-.14-1.05-.11-2.5-.1-5,0-7.33,0-.08,0-.15-.05-.23-.81,12.45-.9,33.71,4.92,54.83l2.19-.13A205,205,0,0,1,20,65.9Z"/><path class="cls-3" d="M18.82,24.78h0c.13-.41.25-.83.39-1.24q-.28.82-.52,1.64l.13-.39Z"/><path class="cls-3" d="M35.7,82.66c.1-.3.18-.6.26-.91s.13-.51.18-.76l.08-.39c.16-.82.28-1.66.37-2.5-2.16-4.35-4.25-9-6-13.15-2.16-2.45-3.06-4.81-3.35-9.15l-.07-1.09a2.11,2.11,0,0,1-.85.28h0a2.74,2.74,0,0,1-.48,0h-.1a3.88,3.88,0,0,1-.6-.11,2.77,2.77,0,0,1-.56-.22l-.17-.1a3.65,3.65,0,0,1-.36-.24l-.18-.15-.33-.31-.16-.17c-.11-.13-.22-.26-.33-.4l-.12-.16q-.21-.28-.4-.59l0,0c-.14-.23-.28-.47-.41-.72a50.27,50.27,0,0,0,1.09,7.61c1.61,7.22,5,13.56,8.91,19.77a25.77,25.77,0,0,0,3.21,4.72c.13-.32.25-.63.36-1Z"/><path class="cls-3" d="M19.22,23.51q.28-.85.6-1.69Q19.51,22.66,19.22,23.51Z"/><path class="cls-3" d="M17.81,28.54c.11-.5.23-1,.37-1.53C18,27.53,17.93,28,17.81,28.54Z"/><path class="cls-3" d="M18.2,26.94q.2-.76.43-1.53C18.48,25.92,18.33,26.43,18.2,26.94Z"/><path class="cls-3" d="M22.4,16.12C27.1,9.07,34.2,3.58,42.72,3a12.8,12.8,0,0,0-.7,7.62h0v.08a8.1,8.1,0,0,0,.27.9h0A9.08,9.08,0,0,0,43,13a14.61,14.61,0,0,0,.58,1.85c-1.48-4.41-1.43-10,2-13a15,15,0,0,0-8-.4c-8.1,2.07-14.33,11-17.77,20.22A52.22,52.22,0,0,1,22.1,16.6Z"/><path class="cls-3" d="M33.72,86.77a14.59,14.59,0,0,0,1.13-2,14.84,14.84,0,0,1-2.8,4A12,12,0,0,0,33.72,86.77Z"/><path class="cls-3" d="M17.44,30.37c.09-.49.19-1,.3-1.49C17.63,29.38,17.53,29.88,17.44,30.37Z"/><path class="cls-3" d="M16.7,36.86c.05-.88.13-1.75.21-2.61C16.82,35.11,16.75,36,16.7,36.86Z"/><path class="cls-3" d="M17,33.49c.12-1.07.27-2.11.46-3.13C17.26,31.38,17.11,32.43,17,33.49Z"/><path class="cls-3" d="M36.8,70.56a60.16,60.16,0,0,1-6.21-5.61c1.75,4.13,3.84,8.79,6,13.15A73.21,73.21,0,0,0,36.8,70.56Z"/><path class="cls-4" d="M36.8,70.56a60.16,60.16,0,0,1-6.21-5.61c1.75,4.13,3.84,8.79,6,13.15A73.21,73.21,0,0,0,36.8,70.56Z"/><path class="cls-3" d="M63,85c0-.17.08-.34.12-.51a65.84,65.84,0,0,1,2.31-6.9,4.31,4.31,0,0,1-.62-2.49c.1-.74.54-1.68,1.42-1.74a1.19,1.19,0,0,1,.72.2,33.26,33.26,0,0,0,2.39-11.05,38.43,38.43,0,0,0-.63-7l0,.23c0,.49-.08.94-.13,1.38,0,.13,0,.26,0,.39q-.06.47-.14.91c0,.12,0,.25-.06.37-.07.37-.15.73-.24,1.08,0,.09-.05.17-.08.26-.07.26-.15.51-.24.75l-.14.37c-.08.21-.17.41-.26.61l-.15.32c-.13.26-.27.52-.42.76h0c-1.33,2.19-3.48,4.07-6.88,6.91v0c0,.29-.08.58-.11.87,0,.13,0,.26,0,.39-.51,4.68.07,9.5,2.6,13.43l0-.07A7.48,7.48,0,0,0,63,85Z"/><path class="cls-4" d="M63,85c0-.17.08-.34.12-.51a65.84,65.84,0,0,1,2.31-6.9,4.31,4.31,0,0,1-.62-2.49c.1-.74.54-1.68,1.42-1.74a1.19,1.19,0,0,1,.72.2,33.26,33.26,0,0,0,2.39-11.05,38.43,38.43,0,0,0-.63-7l0,.23c0,.49-.08.94-.13,1.38,0,.13,0,.26,0,.39q-.06.47-.14.91c0,.12,0,.25-.06.37-.07.37-.15.73-.24,1.08,0,.09-.05.17-.08.26-.07.26-.15.51-.24.75l-.14.37c-.08.21-.17.41-.26.61l-.15.32c-.13.26-.27.52-.42.76h0c-1.33,2.19-3.48,4.07-6.88,6.91v0c0,.29-.08.58-.11.87,0,.13,0,.26,0,.39-.51,4.68.07,9.5,2.6,13.43l0-.07A7.48,7.48,0,0,0,63,85Z"/><path class="cls-5" d="M7,97l.14.12.13.09.23.14.18.11.3.17.21.12.37.2.23.12.45.23.2.1.55.27.15.07.71.35h0c1.6.77,3.13,1.46,3.35,1.56a63.37,63.37,0,0,0,13,4.13,151.22,151.22,0,0,0,32.43,2.8l1.18,0h0c-1.62-7.78-1-13.44.78-20.45.22-.83.46-1.66.73-2.48-2.53-3.93-3.11-8.75-2.6-13.43a25.24,25.24,0,0,0,.2,7.43,115.7,115.7,0,0,0-25.67,7.29,15.16,15.16,0,0,0,.87-1.79l-.31.63a14.59,14.59,0,0,1-1.13,2,12,12,0,0,1-1.67,2l0,0h0a7.33,7.33,0,0,1-2.43,1.52c-1.73.65-3.55.64-5.71,1.18h-.12l-2.19.13c-5.34.39-11.13,1.43-14.64,5.26,0,0,0,.06,0,.11Zm45-1.84a.19.19,0,0,1,.16.27A6,6,0,0,1,48,98.06c-2,.13-3-1.26-4.67-2a.13.13,0,0,1,0-.2c.93-1,2-.38,3.11-.08C48.44,96.29,50.13,95.41,52.06,95.2Z"/><path class="cls-5" d="M95.21,102.61l.19,0,.5-.09.19,0,.47-.08.14,0,.53-.08h0l.42-.05h.11l.23,0h.3s.08,0,.09,0c.29.49.56,1,.81,1.54a16.29,16.29,0,0,0-8-8,51.81,51.81,0,0,1,1.12,7.46Z"/><path class="cls-5" d="M99.32,104c.24.53.47,1.08.67,1.66C99.79,105.07,99.56,104.53,99.32,104Z"/><path class="cls-5" d="M5.93,98.16l.21-.31Z"/><path class="cls-5" d="M5.24,99.31,5.43,99Z"/><path class="cls-5" d="M36,81.75c-.08.3-.16.61-.26.91C35.79,82.36,35.88,82.06,36,81.75Z"/><path class="cls-5" d="M36.22,80.6l-.08.39Z"/><path class="cls-5" d="M35.25,83.89h0q.19-.48.35-1C35.5,83.26,35.37,83.58,35.25,83.89Z"/><path class="cls-5" d="M59.92,70c0,.29-.08.58-.11.87C59.84,70.53,59.88,70.24,59.92,70Z"/><path class="cls-3" d="M36.14,81c-.06.26-.12.51-.18.76C36,81.5,36.08,81.25,36.14,81Z"/><path class="cls-6" d="M36.14,81c-.06.26-.12.51-.18.76C36,81.5,36.08,81.25,36.14,81Z"/><path class="cls-3" d="M36.22,80.6q.25-1.22.38-2.48v0C36.51,78.94,36.38,79.77,36.22,80.6Z"/><path class="cls-6" d="M36.22,80.6q.25-1.22.38-2.48v0C36.51,78.94,36.38,79.77,36.22,80.6Z"/><path class="cls-3" d="M35.7,82.66l-.09.28Z"/><path class="cls-6" d="M35.7,82.66l-.09.28Z"/><path class="cls-3" d="M59.76,71.21c0-.13,0-.26,0-.39C59.79,71,59.77,71.08,59.76,71.21Z"/><path class="cls-4" d="M59.76,71.21c0-.13,0-.26,0-.39C59.79,71,59.77,71.08,59.76,71.21Z"/><path class="cls-6" d="M59.76,71.21c0-.13,0-.26,0-.39C59.79,71,59.77,71.08,59.76,71.21Z"/><path class="cls-3" d="M59.92,70v0h0Z"/><path class="cls-4" d="M59.92,70v0h0Z"/><path class="cls-6" d="M59.92,70v0h0Z"/><path class="cls-3" d="M36.59,78.09v0a69.82,69.82,0,0,0,.23-7.53l0,0A73.21,73.21,0,0,1,36.59,78.09Z"/><path class="cls-4" d="M36.59,78.09v0a69.82,69.82,0,0,0,.23-7.53l0,0A73.21,73.21,0,0,1,36.59,78.09Z"/><path class="cls-6" d="M36.59,78.09v0a69.82,69.82,0,0,0,.23-7.53l0,0A73.21,73.21,0,0,1,36.59,78.09Z"/><path class="cls-5" d="M59.92,70v0c-1.63,1.36-3.53,2.94-5.79,4.91a9.28,9.28,0,0,1-12.33,0c-1.89-1.65-3.53-3-5-4.23a69.82,69.82,0,0,1-.23,7.53q-.13,1.26-.38,2.48l-.08.39c-.06.26-.12.51-.18.76s-.17.61-.26.91l-.09.28q-.16.49-.35,1h0l-.11.23a15.16,15.16,0,0,1-.87,1.79A115.7,115.7,0,0,1,60,78.65a25.24,25.24,0,0,1-.2-7.43c0-.13,0-.26,0-.39C59.85,70.53,59.88,70.24,59.92,70Z"/><path class="cls-6" d="M59.92,70v0c-1.63,1.36-3.53,2.94-5.79,4.91a9.28,9.28,0,0,1-12.33,0c-1.89-1.65-3.53-3-5-4.23a69.82,69.82,0,0,1-.23,7.53q-.13,1.26-.38,2.48l-.08.39c-.06.26-.12.51-.18.76s-.17.61-.26.91l-.09.28q-.16.49-.35,1h0l-.11.23a15.16,15.16,0,0,1-.87,1.79A115.7,115.7,0,0,1,60,78.65a25.24,25.24,0,0,1-.2-7.43c0-.13,0-.26,0-.39C59.85,70.53,59.88,70.24,59.92,70Z"/><path class="cls-7" d="M98.3,102.18s.08,0,.09,0S98.35,102.18,98.3,102.18Z"/><path class="cls-7" d="M96.7,102.34l.53-.08Z"/><path class="cls-7" d="M98.1,102.17h0Z"/><path class="cls-7" d="M97.24,102.26l.42-.05Z"/><path class="cls-7" d="M80.07,138.17,81.4,138l-.18-.43C80.85,137.76,80.47,138,80.07,138.17Z"/><path class="cls-7" d="M96.09,102.45l.47-.08Z"/><path class="cls-7" d="M61.35,133.72A21.31,21.31,0,0,1,59.66,131a41.49,41.49,0,0,1-18.13-1.18A42.52,42.52,0,0,1,30,125c-3.8-1.5-7.52-3.77-8.14-7.9-1.12-7.46,6.85-8.17,12.1-7.56,7.47.88,15,1.33,22.5,1.51,1.76,0,3.51.06,5.27.07q-.49-1.84-.85-3.54l-1.18,0a151.22,151.22,0,0,1-32.43-2.8,63.37,63.37,0,0,1-13-4.13c-.23-.1-1.75-.79-3.35-1.56-5.17,9.52-7,22.66-8.66,34.17,2.5.82,6.2,1.92,10.93,3a94.09,94.09,0,0,0,1.29-13.12s1.48,5,1,13.63a174.92,174.92,0,0,0,55.41,2.61A14.84,14.84,0,0,1,61.35,133.72Z"/><path class="cls-7" d="M97.13,111.33c-.75-2.15-1.49-4.3-2.11-6.49-.2-.69-.38-1.39-.55-2.09l.74-.14-2.89.58v0a50.93,50.93,0,0,1,0,7.33,50.13,50.13,0,0,1-.78,8.12c-.23,1.24-.5,2.51-.84,3.78,3.4,5.78,6.4,10.66,7.25,11.94q2.51-.66,5.05-1.41c-.54-2.85-1.19-5.71-1.93-8.61C99.94,119.93,98.63,115.64,97.13,111.33Z"/><path class="cls-7" d="M97.77,102.19l.23,0Z"/><path class="cls-7" d="M8.21,97.79,8,97.67Z"/><path class="cls-7" d="M7.7,97.5l-.18-.11Z"/><path class="cls-7" d="M7.29,97.25l-.13-.09Z"/><path class="cls-7" d="M9.46,98.44l-.2-.1Z"/><path class="cls-7" d="M8.81,98.1,8.58,98Z"/><path class="cls-7" d="M10.16,98.78,10,98.71Z"/><path class="cls-7" d="M7,97,7,97Z"/><path class="cls-7" d="M95.4,102.57l.5-.09Z"/><path class="cls-8" d="M100.72,109l.15.85c-.2-1.18-.39-2.2-.55-3l.13.62C100.53,108,100.62,108.5,100.72,109Z"/><path class="cls-8" d="M100.2,106.41l.12.53a12.08,12.08,0,0,0-.33-1.28h0C100,105.83,100.12,106.09,100.2,106.41Z"/><path class="cls-8" d="M101.34,112.82c-.11-.7-.21-1.36-.32-2l.16,1Z"/><path class="cls-8" d="M102.15,118.4l-.16-1.16.14,1Z"/><path class="cls-8" d="M99.32,104h0l-.11-.24h0Z"/><path class="cls-5" d="M98,102.17h0Z"/><path class="cls-8" d="M98,102.17h0Z"/><path class="cls-5" d="M102.61,121.87c.1.76.19,1.51.28,2.24C102.8,123.37,102.7,122.63,102.61,121.87Z"/><path class="cls-8" d="M102.61,121.87c.1.76.19,1.51.28,2.24C102.8,123.37,102.7,122.63,102.61,121.87Z"/><path class="cls-5" d="M100,105.65h0c-.2-.58-.43-1.13-.67-1.66h0C99.56,104.52,99.79,105.07,100,105.65Z"/><path class="cls-8" d="M100,105.65h0c-.2-.58-.43-1.13-.67-1.66h0C99.56,104.52,99.79,105.07,100,105.65Z"/><path class="cls-5" d="M98.25,102.17h0Z"/><path class="cls-8" d="M98.25,102.17h0Z"/><path class="cls-5" d="M95.9,102.48l.19,0Z"/><path class="cls-8" d="M95.9,102.48l.19,0Z"/><path class="cls-5" d="M95.21,102.61l.19,0Z"/><path class="cls-8" d="M95.21,102.61l.19,0Z"/><path class="cls-5" d="M96.56,102.37l.14,0Z"/><path class="cls-8" d="M96.56,102.37l.14,0Z"/><path class="cls-5" d="M97.66,102.2h0Z"/><path class="cls-8" d="M97.66,102.2h0Z"/><path class="cls-5" d="M103.66,132.76a4,4,0,0,0,0-.58,4,4,0,0,1,0,.58Z"/><path class="cls-8" d="M103.66,132.76a4,4,0,0,0,0-.58,4,4,0,0,1,0,.58Z"/><path class="cls-5" d="M103.14,126.21c.12,1,.22,2,.3,2.79C103.35,128.16,103.25,127.22,103.14,126.21Z"/><path class="cls-8" d="M103.14,126.21c.12,1,.22,2,.3,2.79C103.35,128.16,103.25,127.22,103.14,126.21Z"/><path class="cls-5" d="M97.24,102.26h0Z"/><path class="cls-8" d="M97.24,102.26h0Z"/><path class="cls-5" d="M103.51,129.8c.09,1,.15,1.84.16,2.38C103.66,131.65,103.61,130.83,103.51,129.8Z"/><path class="cls-8" d="M103.51,129.8c.09,1,.15,1.84.16,2.38C103.66,131.65,103.61,130.83,103.51,129.8Z"/><path class="cls-5" d="M99.21,103.75h0c-.25-.54-.52-1.05-.81-1.54C98.69,102.7,99,103.22,99.21,103.75Z"/><path class="cls-8" d="M99.21,103.75h0c-.25-.54-.52-1.05-.81-1.54C98.69,102.7,99,103.22,99.21,103.75Z"/><path class="cls-5" d="M102,117.25l-.16-1.14c.1.71.2,1.43.3,2.16Z"/><path class="cls-8" d="M102,117.25l-.16-1.14c.1.71.2,1.43.3,2.16Z"/><path class="cls-7" d="M100,105.65c-.2-.58-.43-1.13-.67-1.66l-.11-.24c-.25-.54-.52-1.05-.81-1.54,0,0,0,0-.09,0H98l-.23,0h-.11l-.42.05h0l-.53.08-.14,0-.47.08-.19,0-.5.09-.19,0-.74.14c.17.7.35,1.4.55,2.09.62,2.19,1.37,4.34,2.11,6.49,1.5,4.31,2.81,8.6,3.93,13,.74,2.9,1.39,5.76,1.93,8.61l.66-.19a4,4,0,0,0,0-.58c0-.54-.07-1.36-.16-2.38q0-.38-.08-.8c-.08-.84-.18-1.78-.3-2.79-.08-.67-.16-1.38-.25-2.11s-.18-1.48-.28-2.24-.2-1.53-.3-2.3l-.16-1.16,0-.14c-.1-.73-.2-1.45-.3-2.16-.16-1.13-.33-2.24-.49-3.29l-.16-1-.16-1-.15-.92-.15-.85c-.1-.55-.19-1-.28-1.49l-.13-.62-.12-.53C100.12,106.09,100,105.83,100,105.65Z"/><path class="cls-8" d="M100,105.65c-.2-.58-.43-1.13-.67-1.66l-.11-.24c-.25-.54-.52-1.05-.81-1.54,0,0,0,0-.09,0H98l-.23,0h-.11l-.42.05h0l-.53.08-.14,0-.47.08-.19,0-.5.09-.19,0-.74.14c.17.7.35,1.4.55,2.09.62,2.19,1.37,4.34,2.11,6.49,1.5,4.31,2.81,8.6,3.93,13,.74,2.9,1.39,5.76,1.93,8.61l.66-.19a4,4,0,0,0,0-.58c0-.54-.07-1.36-.16-2.38q0-.38-.08-.8c-.08-.84-.18-1.78-.3-2.79-.08-.67-.16-1.38-.25-2.11s-.18-1.48-.28-2.24-.2-1.53-.3-2.3l-.16-1.16,0-.14c-.1-.73-.2-1.45-.3-2.16-.16-1.13-.33-2.24-.49-3.29l-.16-1-.16-1-.15-.92-.15-.85c-.1-.55-.19-1-.28-1.49l-.13-.62-.12-.53C100.12,106.09,100,105.83,100,105.65Z"/><path class="cls-8" d="M5.24,99.31h0a12.09,12.09,0,0,0-.56,1.23q-.37,1-.67,1.92.31-1,.67-1.92A12.09,12.09,0,0,1,5.24,99.31Z"/><path class="cls-8" d="M5.93,98.16h0q-.26.39-.5.81h0Q5.66,98.55,5.93,98.16Z"/><path class="cls-8" d="M6.92,96.88h0a11.3,11.3,0,0,0-.78,1h0A11.31,11.31,0,0,1,6.92,96.88Z"/><path class="cls-8" d="M1.73,116.52c.1-1.37.21-2.73.35-4.09C1.94,113.78,1.82,115.15,1.73,116.52Z"/><path class="cls-5" d="M9.26,98.33l-.45-.23Z"/><path class="cls-8" d="M9.26,98.33l-.45-.23Z"/><path class="cls-5" d="M10,98.71l-.55-.27Z"/><path class="cls-8" d="M10,98.71l-.55-.27Z"/><path class="cls-5" d="M7,97s-.06-.08,0-.11h0S6.91,96.94,7,97Z"/><path class="cls-8" d="M7,97s-.06-.08,0-.11h0S6.91,96.94,7,97Z"/><path class="cls-5" d="M8,97.67l-.3-.17Z"/><path class="cls-8" d="M8,97.67l-.3-.17Z"/><path class="cls-5" d="M8.58,98l-.37-.2Z"/><path class="cls-8" d="M8.58,98l-.37-.2Z"/><path class="cls-5" d="M5.43,99h0l-.19.34h0Z"/><path class="cls-8" d="M5.43,99h0l-.19.34h0Z"/><path class="cls-5" d="M10.16,98.78l.71.35h0Z"/><path class="cls-8" d="M10.16,98.78l.71.35h0Z"/><path class="cls-5" d="M6.14,97.85h0l-.21.31h0Z"/><path class="cls-8" d="M6.14,97.85h0l-.21.31h0Z"/><path class="cls-5" d="M7.52,97.39l-.23-.14Z"/><path class="cls-8" d="M7.52,97.39l-.23-.14Z"/><path class="cls-5" d="M7.16,97.16,7,97Z"/><path class="cls-8" d="M7.16,97.16,7,97Z"/><path class="cls-7" d="M10.87,99.13l-.71-.35L10,98.71l-.55-.27-.2-.1-.45-.23L8.58,98l-.37-.2L8,97.67l-.3-.17-.18-.11-.23-.14-.13-.09L7,97,7,97s-.06-.08,0-.11h0a11.29,11.29,0,0,0-.78,1l-.21.31q-.26.39-.5.81l-.19.34a12.09,12.09,0,0,0-.56,1.23q-.37,1-.67,1.92a50.2,50.2,0,0,0-1.92,10c-.14,1.36-.25,2.72-.35,4.09-.39,5.4-.6,10.84-1.72,16,.58.21,1.32.47,2.21.76C3.9,121.78,5.7,108.65,10.87,99.13Z"/><path class="cls-8" d="M10.87,99.13l-.71-.35L10,98.71l-.55-.27-.2-.1-.45-.23L8.58,98l-.37-.2L8,97.67l-.3-.17-.18-.11-.23-.14-.13-.09L7,97,7,97s-.06-.08,0-.11h0a11.29,11.29,0,0,0-.78,1l-.21.31q-.26.39-.5.81l-.19.34a12.09,12.09,0,0,0-.56,1.23q-.37,1-.67,1.92a50.2,50.2,0,0,0-1.92,10c-.14,1.36-.25,2.72-.35,4.09-.39,5.4-.6,10.84-1.72,16,.58.21,1.32.47,2.21.76C3.9,121.78,5.7,108.65,10.87,99.13Z"/><path class="cls-5" d="M26.72,30.05l0,0q-.05.65-.1,1.35Q26.65,30.72,26.72,30.05Z"/><path class="cls-5" d="M68.4,58.48c0,.12,0,.25-.06.37C68.36,58.73,68.38,58.6,68.4,58.48Z"/><path class="cls-5" d="M68.59,57.18c0,.13,0,.26,0,.39C68.56,57.44,68.57,57.31,68.59,57.18Z"/><path class="cls-5" d="M67.78,60.93l-.14.37Z"/><path class="cls-5" d="M67.38,61.91l-.15.32Z"/><path class="cls-5" d="M68.1,59.92c0,.09-.05.17-.08.26C68,60.1,68.08,60,68.1,59.92Z"/><path class="cls-3" d="M26.44,34l0-.06q0-1.31.11-2.49C26.53,32.25,26.48,33.1,26.44,34Z"/><path class="cls-6" d="M26.44,34l0-.06q0-1.31.11-2.49C26.53,32.25,26.48,33.1,26.44,34Z"/><path class="cls-5" d="M26.49,33.94A43.26,43.26,0,0,1,39.28,21.32c-.42.2-.81.39-1.16.59-.89.51-1.77,1-2.63,1.44h0A28.21,28.21,0,0,0,28,28.58h0a16.61,16.61,0,0,0-1.23,1.47q-.07.67-.13,1.39Q26.53,32.62,26.49,33.94Z"/><path class="cls-6" d="M26.49,33.94A43.26,43.26,0,0,1,39.28,21.32c-.42.2-.81.39-1.16.59-.89.51-1.77,1-2.63,1.44h0A28.21,28.21,0,0,0,28,28.58h0a16.61,16.61,0,0,0-1.23,1.47q-.07.67-.13,1.39Q26.53,32.62,26.49,33.94Z"/><path class="cls-3" d="M68.54,57.57c0,.31-.09.62-.14.91Q68.48,58,68.54,57.57Z"/><path class="cls-4" d="M68.54,57.57c0,.31-.09.62-.14.91Q68.48,58,68.54,57.57Z"/><path class="cls-6" d="M68.54,57.57c0,.31-.09.62-.14.91Q68.48,58,68.54,57.57Z"/><path class="cls-3" d="M68.34,58.85c-.07.37-.15.73-.24,1.08C68.19,59.58,68.27,59.22,68.34,58.85Z"/><path class="cls-4" d="M68.34,58.85c-.07.37-.15.73-.24,1.08C68.19,59.58,68.27,59.22,68.34,58.85Z"/><path class="cls-6" d="M68.34,58.85c-.07.37-.15.73-.24,1.08C68.19,59.58,68.27,59.22,68.34,58.85Z"/><path class="cls-3" d="M66.81,63c.15-.25.29-.5.42-.76-.13.26-.27.51-.42.76Z"/><path class="cls-4" d="M66.81,63c.15-.25.29-.5.42-.76-.13.26-.27.51-.42.76Z"/><path class="cls-6" d="M66.81,63c.15-.25.29-.5.42-.76-.13.26-.27.51-.42.76Z"/><path class="cls-3" d="M67.64,61.3c-.08.21-.17.41-.26.61C67.47,61.71,67.56,61.51,67.64,61.3Z"/><path class="cls-4" d="M67.64,61.3c-.08.21-.17.41-.26.61C67.47,61.71,67.56,61.51,67.64,61.3Z"/><path class="cls-6" d="M67.64,61.3c-.08.21-.17.41-.26.61C67.47,61.71,67.56,61.51,67.64,61.3Z"/><path class="cls-3" d="M68.71,55.8c0,.49-.08.94-.13,1.38C68.64,56.74,68.68,56.29,68.71,55.8Z"/><path class="cls-4" d="M68.71,55.8c0,.49-.08.94-.13,1.38C68.64,56.74,68.68,56.29,68.71,55.8Z"/><path class="cls-6" d="M68.71,55.8c0,.49-.08.94-.13,1.38C68.64,56.74,68.68,56.29,68.71,55.8Z"/><path class="cls-3" d="M68,60.18q-.11.38-.24.75C67.87,60.69,67.95,60.44,68,60.18Z"/><path class="cls-4" d="M68,60.18q-.11.38-.24.75C67.87,60.69,67.95,60.44,68,60.18Z"/><path class="cls-6" d="M68,60.18q-.11.38-.24.75C67.87,60.69,67.95,60.44,68,60.18Z"/><path class="cls-5" d="M59.5,33.5a54.87,54.87,0,0,0-6.23-6.27,49.75,49.75,0,0,1-4.56-4.44,26.17,26.17,0,0,1-3-3.69c1.46,5.93,5.83,10.24,10,14.69A32.27,32.27,0,0,1,59.5,33.5Z"/><path class="cls-6" d="M59.5,33.5a54.87,54.87,0,0,0-6.23-6.27,49.75,49.75,0,0,1-4.56-4.44,26.17,26.17,0,0,1-3-3.69c1.46,5.93,5.83,10.24,10,14.69A32.27,32.27,0,0,1,59.5,33.5Z"/><path class="cls-5" d="M61,35.36a30.37,30.37,0,0,0-3.5.4A41.83,41.83,0,0,1,60.89,40a9.87,9.87,0,0,1,2.9-.55A47,47,0,0,0,61,35.36Z"/><path class="cls-6" d="M61,35.36a30.37,30.37,0,0,0-3.5.4A41.83,41.83,0,0,1,60.89,40a9.87,9.87,0,0,1,2.9-.55A47,47,0,0,0,61,35.36Z"/><path class="cls-5" d="M65.06,45.33a4.57,4.57,0,0,1-1,1.2c.27.82.51,1.65.72,2.5l.39.13a1,1,0,0,1,.46-.21,1.7,1.7,0,0,1,.35,0,.73.73,0,0,1,.38.11h0a.73.73,0,0,1,.5.8.71.71,0,0,1-.13.32,2.57,2.57,0,0,1,.43,3.19,7.93,7.93,0,0,1-1.28,1.81c.21,1.45.4,2.89.58,4.3.15,1.19.26,2.38.31,3.57.15-.25.29-.5.42-.76l.15-.32c.09-.2.18-.4.26-.61l.14-.37q.13-.36.24-.75c0-.09.05-.17.08-.26.09-.34.17-.7.24-1.08,0-.12,0-.24.06-.37,0-.29.1-.59.14-.91,0-.13,0-.26,0-.39,0-.44.09-.89.13-1.38l0-.23c-.65-3.73-1.68-7.35-2.54-11.07A5.22,5.22,0,0,1,65.06,45.33Z"/><path class="cls-6" d="M65.06,45.33a4.57,4.57,0,0,1-1,1.2c.27.82.51,1.65.72,2.5l.39.13a1,1,0,0,1,.46-.21,1.7,1.7,0,0,1,.35,0,.73.73,0,0,1,.38.11h0a.73.73,0,0,1,.5.8.71.71,0,0,1-.13.32,2.57,2.57,0,0,1,.43,3.19,7.93,7.93,0,0,1-1.28,1.81c.21,1.45.4,2.89.58,4.3.15,1.19.26,2.38.31,3.57.15-.25.29-.5.42-.76l.15-.32c.09-.2.18-.4.26-.61l.14-.37q.13-.36.24-.75c0-.09.05-.17.08-.26.09-.34.17-.7.24-1.08,0-.12,0-.24.06-.37,0-.29.1-.59.14-.91,0-.13,0-.26,0-.39,0-.44.09-.89.13-1.38l0-.23c-.65-3.73-1.68-7.35-2.54-11.07A5.22,5.22,0,0,1,65.06,45.33Z"/><path class="cls-5" d="M48,58.5a4.88,4.88,0,0,0,3.4-2.1.15.15,0,0,0-.13-.22c-1.57.17-2.94.89-4.56.45-.89-.24-1.77-.72-2.52.06a.11.11,0,0,0,0,.17C45.57,57.48,46.39,58.61,48,58.5Z"/><path class="cls-6" d="M48,58.5a4.88,4.88,0,0,0,3.4-2.1.15.15,0,0,0-.13-.22c-1.57.17-2.94.89-4.56.45-.89-.24-1.77-.72-2.52.06a.11.11,0,0,0,0,.17C45.57,57.48,46.39,58.61,48,58.5Z"/><path class="cls-5" d="M46.45,95.75c-1.1-.3-2.18-.89-3.11.08a.13.13,0,0,0,0,.2c1.67.77,2.69,2.16,4.67,2a6,6,0,0,0,4.18-2.58.19.19,0,0,0-.16-.27C50.13,95.41,48.44,96.29,46.45,95.75Z"/><path class="cls-6" d="M46.45,95.75c-1.1-.3-2.18-.89-3.11.08a.13.13,0,0,0,0,.2c1.67.77,2.69,2.16,4.67,2a6,6,0,0,0,4.18-2.58.19.19,0,0,0-.16-.27C50.13,95.41,48.44,96.29,46.45,95.75Z"/><path class="cls-5" d="M46.43,55.48a2,2,0,0,0,.32.14.73.73,0,0,0,.37,0h.07a.71.71,0,0,0,.68-.63.73.73,0,0,0-.5-.8h0a.73.73,0,0,0-.38-.11,1.71,1.71,0,0,0-.35,0,.85.85,0,0,0-.57.29.59.59,0,0,0-.08.64A.87.87,0,0,0,46.43,55.48Z"/><path class="cls-9" d="M46.43,55.48a2,2,0,0,0,.32.14.73.73,0,0,0,.37,0h.07a.71.71,0,0,0,.68-.63.73.73,0,0,0-.5-.8h0a.73.73,0,0,0-.38-.11,1.71,1.71,0,0,0-.35,0,.85.85,0,0,0-.57.29.59.59,0,0,0-.08.64A.87.87,0,0,0,46.43,55.48Z"/><path class="cls-5" d="M31.36,49.21a.74.74,0,0,0-.29-.19h0a.73.73,0,0,0-.38-.11,1.7,1.7,0,0,0-.35,0,.85.85,0,0,0-.57.29.59.59,0,0,0-.08.64.68.68,0,0,0,.23.28A4.31,4.31,0,0,1,31.36,49.21Z"/><path class="cls-9" d="M31.36,49.21a.74.74,0,0,0-.29-.19h0a.73.73,0,0,0-.38-.11,1.7,1.7,0,0,0-.35,0,.85.85,0,0,0-.57.29.59.59,0,0,0-.08.64.68.68,0,0,0,.23.28A4.31,4.31,0,0,1,31.36,49.21Z"/><path class="cls-5" d="M66.77,50.14a.71.71,0,0,0,.13-.32.73.73,0,0,0-.5-.8h0a.73.73,0,0,0-.38-.11,1.7,1.7,0,0,0-.35,0,1,1,0,0,0-.46.21A4.44,4.44,0,0,1,66.77,50.14Z"/><path class="cls-6" d="M66.77,50.14a.71.71,0,0,0,.13-.32.73.73,0,0,0-.5-.8h0a.73.73,0,0,0-.38-.11,1.7,1.7,0,0,0-.35,0,1,1,0,0,0-.46.21A4.44,4.44,0,0,1,66.77,50.14Z"/><path class="cls-9" d="M66.77,50.14a.71.71,0,0,0,.13-.32.73.73,0,0,0-.5-.8h0a.73.73,0,0,0-.38-.11,1.7,1.7,0,0,0-.35,0,1,1,0,0,0-.46.21A4.44,4.44,0,0,1,66.77,50.14Z"/><path class="cls-7" d="M58.62,127.46a4.83,4.83,0,0,0,1.19,1,15.84,15.84,0,0,1-.94-2.12c0-.13-.61-2-.14-1.48,3,3.39,5.38-.3,6-3.4a28.37,28.37,0,0,0-1.72-6c-.5-1.54-.93-3-1.3-4.36-1.76,0-3.51,0-5.27-.07-7.52-.19-15-.63-22.5-1.51-5.25-.62-13.23.1-12.1,7.56.62,4.13,4.34,6.4,8.14,7.9a42.52,42.52,0,0,0,11.57,4.83A41.49,41.49,0,0,0,59.66,131a15.75,15.75,0,0,1-.91-2.05C58.71,128.8,58.15,126.93,58.62,127.46Z"/><path class="cls-10" d="M58.62,127.46a4.83,4.83,0,0,0,1.19,1,15.84,15.84,0,0,1-.94-2.12c0-.13-.61-2-.14-1.48,3,3.39,5.38-.3,6-3.4a28.37,28.37,0,0,0-1.72-6c-.5-1.54-.93-3-1.3-4.36-1.76,0-3.51,0-5.27-.07-7.52-.19-15-.63-22.5-1.51-5.25-.62-13.23.1-12.1,7.56.62,4.13,4.34,6.4,8.14,7.9a42.52,42.52,0,0,0,11.57,4.83A41.49,41.49,0,0,0,59.66,131a15.75,15.75,0,0,1-.91-2.05C58.71,128.8,58.15,126.93,58.62,127.46Z"/><path class="cls-11" d="M20.78,19.46c.42.19.86.38,1.3.55a58.28,58.28,0,0,0,7.41,2.24l-.29.34a32,32,0,0,1,2.23-2.31,37.79,37.79,0,0,0-5.1,10.3l.07-.11.3-.4,0,0A16.61,16.61,0,0,1,28,28.58l-.81-.25A41.13,41.13,0,0,1,30,22.39c1.8.4,3.62.72,5.45,1,.86-.46,1.74-.93,2.63-1.44.34-.2.74-.39,1.16-.59,1.7-.81,3.94-1.67,6.09-2.7l.31.47a26.17,26.17,0,0,0,3,3.69A58.45,58.45,0,0,0,58,29.94a67.5,67.5,0,0,1-8.36-6.23A82.29,82.29,0,0,0,67.1,20.43a21,21,0,0,1,5.16,9.45c-1.27-4.47-3.4-8.69-7.43-11.29a9.57,9.57,0,0,1,2.83,1.68,91.65,91.65,0,0,0,10.19-3.81c-.12-.21-.23-.42-.35-.63l-.38-.61q-.54-.88-1.13-1.72l-.45-.64c-.53-.73-1.08-1.45-1.67-2.14a28.26,28.26,0,0,0-3.4-3.37,24.44,24.44,0,0,0-4-2.69h0L65.44,4.1A37.78,37.78,0,0,0,55.19.39C54.78.31,54.37.23,54,.18h-.06l-.8-.09H53a11.8,11.8,0,0,0-5.07.51l-.38.14-.06,0-.09,0a7.83,7.83,0,0,0-.89.47c-.2.12-.38.26-.57.39l-.25.19-.11.08c-3.46,2.93-3.51,8.54-2,13A14.61,14.61,0,0,1,43,13a9.08,9.08,0,0,1-.66-1.43h0a8.1,8.1,0,0,1-.27-.9v-.08h0A12.8,12.8,0,0,1,42.72,3C34.2,3.58,27.1,9.07,22.4,16.12l-.3.48a52.22,52.22,0,0,0-2.25,5.15l0,.06q-.32.85-.6,1.69v0c-.14.42-.27.83-.39,1.24A54,54,0,0,1,20.78,19.46Z"/><path class="cls-11" d="M16.65,44.35c0,.35.09.7.14,1.05a121.89,121.89,0,0,0,8.89,31.11C27.44,80.43,29.92,85,32,88.79h0l0,0a14.84,14.84,0,0,0,2.8-4l.31-.63.11-.23h0A25.77,25.77,0,0,1,32,79.17C28.14,73,24.74,66.62,23.13,59.4A50.27,50.27,0,0,1,22,51.79,20.45,20.45,0,0,1,20.15,46c-.34-2.2-.72-5,1.55-6.11a31.82,31.82,0,0,1,3.82-12.12c-.5-.18-1-.34-1.5-.53s-1.22-.47-1.82-.71l-.53-.28-2.84-1.47-.12.39-.07.24q-.23.77-.43,1.53l0,.07c-.13.51-.25,1-.37,1.53l-.07.34c-.11.5-.21,1-.3,1.49-.18,1-.33,2.06-.46,3.13,0,.25,0,.51-.07.76-.09.86-.16,1.72-.21,2.61,0,.05,0,.1,0,.16C16.55,39.39,16.55,41.85,16.65,44.35Z"/><path class="cls-11" d="M27.36,24.89l-.29.42Z"/><path class="cls-11" d="M26.38,26.33l-.17.28Z"/><path class="cls-11" d="M28.07,24l.38-.49Z"/><path class="cls-3" d="M63,85a7.48,7.48,0,0,1-.65-.46l0,.07c.18.28.36.55.56.82Z"/><path class="cls-4" d="M63,85a7.48,7.48,0,0,1-.65-.46l0,.07c.18.28.36.55.56.82Z"/><path class="cls-6" d="M63,85a7.48,7.48,0,0,1-.65-.46l0,.07c.18.28.36.55.56.82Z"/><path class="cls-5" d="M62.92,85.46c-.2-.27-.38-.54-.56-.82-.27.82-.52,1.65-.73,2.48-1.81,7-2.4,12.66-.78,20.45l1.14-.05A57.42,57.42,0,0,1,62.92,85.46Z"/><path class="cls-6" d="M62.92,85.46c-.2-.27-.38-.54-.56-.82-.27.82-.52,1.65-.73,2.48-1.81,7-2.4,12.66-.78,20.45l1.14-.05A57.42,57.42,0,0,1,62.92,85.46Z"/><path class="cls-5" d="M62,107.52l-1.14.05h0l1.14,0Z"/><path class="cls-12" d="M62,107.52l-1.14.05h0l1.14,0Z"/><path class="cls-7" d="M90.27,121.7l.43.73c.34-1.27.62-2.55.84-3.78a50.13,50.13,0,0,0,.78-8.12c-.06.81-.11,1.63-.21,2.44v0h0c-.12,1-.27,2-.45,3.05A47.8,47.8,0,0,1,90.27,121.7Z"/><path class="cls-12" d="M90.27,121.7l.43.73c.34-1.27.62-2.55.84-3.78a50.13,50.13,0,0,0,.78-8.12c-.06.81-.11,1.63-.21,2.44v0h0c-.12,1-.27,2-.45,3.05A47.8,47.8,0,0,1,90.27,121.7Z"/><path class="cls-7" d="M80.42,135.45l-.11.05c-.08.06-.15.14-.23.2a3,3,0,0,1-1,.37,14.64,14.64,0,0,1-4.48,1,15.2,15.2,0,0,1-13.11-5.92l-.28-.41-.2,0c-.44.09-.88.15-1.32.23a21.31,21.31,0,0,0,1.69,2.73,14.84,14.84,0,0,0,9.5,5.71q4.51-.5,9.22-1.25c.4-.2.78-.41,1.16-.64C81,137,80.73,136.28,80.42,135.45Z"/><path class="cls-12" d="M80.42,135.45l-.11.05c-.08.06-.15.14-.23.2a3,3,0,0,1-1,.37,14.64,14.64,0,0,1-4.48,1,15.2,15.2,0,0,1-13.11-5.92l-.28-.41-.2,0c-.44.09-.88.15-1.32.23a21.31,21.31,0,0,0,1.69,2.73,14.84,14.84,0,0,0,9.5,5.71q4.51-.5,9.22-1.25c.4-.2.78-.41,1.16-.64C81,137,80.73,136.28,80.42,135.45Z"/><path class="cls-7" d="M61.69,111.1h1q-.4-1.78-.68-3.58l-1.14,0Q61.2,109.26,61.69,111.1Z"/><path class="cls-12" d="M61.69,111.1h1q-.4-1.78-.68-3.58l-1.14,0Q61.2,109.26,61.69,111.1Z"/><path class="cls-7" d="M58.62,127.46c-.47-.53.09,1.35.14,1.48a15.75,15.75,0,0,0,.91,2.05c.44-.07.88-.14,1.32-.23l.2,0a20.89,20.89,0,0,1-1.37-2.25A4.83,4.83,0,0,1,58.62,127.46Z"/><path class="cls-10" d="M58.62,127.46c-.47-.53.09,1.35.14,1.48a15.75,15.75,0,0,0,.91,2.05c.44-.07.88-.14,1.32-.23l.2,0a20.89,20.89,0,0,1-1.37-2.25A4.83,4.83,0,0,1,58.62,127.46Z"/><path class="cls-12" d="M58.62,127.46c-.47-.53.09,1.35.14,1.48a15.75,15.75,0,0,0,.91,2.05c.44-.07.88-.14,1.32-.23l.2,0a20.89,20.89,0,0,1-1.37-2.25A4.83,4.83,0,0,1,58.62,127.46Z"/><path class="cls-7" d="M64.71,121.46a8.42,8.42,0,0,0,.13-.89c.24-2.85-1-5.07-1.74-7.7q-.23-.87-.43-1.76h-1c.37,1.38.8,2.82,1.3,4.36A28.37,28.37,0,0,1,64.71,121.46Z"/><path class="cls-10" d="M64.71,121.46a8.42,8.42,0,0,0,.13-.89c.24-2.85-1-5.07-1.74-7.7q-.23-.87-.43-1.76h-1c.37,1.38.8,2.82,1.3,4.36A28.37,28.37,0,0,1,64.71,121.46Z"/><path class="cls-12" d="M64.71,121.46a8.42,8.42,0,0,0,.13-.89c.24-2.85-1-5.07-1.74-7.7q-.23-.87-.43-1.76h-1c.37,1.38.8,2.82,1.3,4.36A28.37,28.37,0,0,1,64.71,121.46Z"/><path class="cls-3" d="M21.78,39.84a4.09,4.09,0,0,1,3.54.09,5.37,5.37,0,0,1,1.16.8c-.06-2.53-.06-4.78,0-6.79l0,.06c0-.9.09-1.75.15-2.56q0-.7.1-1.35l-.3.4-.07.11a37.79,37.79,0,0,1,5.1-10.3A32,32,0,0,0,29.2,22.6c-.25.29-.5.57-.74.86l-.38.49c-.24.31-.49.62-.71.94l-.29.42c-.24.34-.47.68-.69,1l-.17.28c-.24.39-.48.77-.69,1.16h0A31.81,31.81,0,0,0,21.7,39.89Z"/><path class="cls-5" d="M26.28,55a2.7,2.7,0,0,1-.48,0A2.74,2.74,0,0,0,26.28,55Z"/><path class="cls-5" d="M23.82,54.18l-.33-.31Z"/><path class="cls-5" d="M25.1,54.89a2.76,2.76,0,0,1-.56-.22A2.77,2.77,0,0,0,25.1,54.89Z"/><path class="cls-5" d="M22.88,53.14q-.21-.28-.4-.59Q22.67,52.86,22.88,53.14Z"/><path class="cls-5" d="M25.1,54.89a3.88,3.88,0,0,0,.6.11A3.74,3.74,0,0,1,25.1,54.89Z"/><path class="cls-5" d="M22.45,52.51a15.06,15.06,0,0,1-1.14-2.33,8.15,8.15,0,0,0,2.92,2.07,5.61,5.61,0,0,0,2.88.42c0,.79.06,1.77.09,2a2.14,2.14,0,0,1-.9.32,2.11,2.11,0,0,0,.85-.28l.07,1.09c.3,4.34,1.19,6.7,3.35,9.15a60.16,60.16,0,0,0,6.21,5.61l0,0c1.45,1.21,3.09,2.58,5,4.23a9.28,9.28,0,0,0,12.33,0c2.26-2,4.16-3.54,5.79-4.91h0c3.4-2.84,5.55-4.71,6.88-6.91,0-1.19-.15-2.38-.31-3.57-.18-1.41-.37-2.85-.58-4.3a8.35,8.35,0,0,1-4.78,2.71A5.7,5.7,0,0,1,59,57.59c-2.78-.31-4.56-3-3.19-5.54,1.27-2.36,4.88-3.33,7.4-3.26a6.15,6.15,0,0,1,1.53.24c-.21-.85-.45-1.68-.72-2.5a4.74,4.74,0,0,1-2.59,1.11c-1.6.16-4.09-.47-4.87-1.82a.89.89,0,0,1-.1-.51c-.44.28-1.22,0-1-.53a4.58,4.58,0,0,1,.93-1.66A5.19,5.19,0,0,1,57.33,42,5.34,5.34,0,0,1,59,40.85,11.75,11.75,0,0,1,60.89,40a41.83,41.83,0,0,0-3.39-4.23c-1.21.2-2.23.41-3,.45-1.69.1-2.23-2-.52-2.2l1.69-.22c-4.18-4.45-8.55-8.75-10-14.69l-.31-.47c-2.15,1-4.38,1.89-6.09,2.7A43.26,43.26,0,0,0,26.49,33.94c-.06,2-.06,4.27,0,6.79a5.37,5.37,0,0,0-1.16-.8,4.09,4.09,0,0,0-3.54-.09l-.09,0C19.43,41,19.81,43.81,20.15,46A20.45,20.45,0,0,0,22,51.79C22.17,52,22.31,52.28,22.45,52.51Zm7.81-9.28a2.31,2.31,0,0,1,.06-2.52c1.45-2,5.35-1.42,8.13.14A5.34,5.34,0,0,1,40.1,42a5.18,5.18,0,0,1,.95,1.11A4.58,4.58,0,0,1,42,44.77c.18.56-.56.8-1,.56a1.13,1.13,0,0,1-.13.49c-.78,1.34-3.28,2-4.87,1.82a4.72,4.72,0,0,1-3.6-2.31,5.27,5.27,0,0,1-1.22-.92,2.18,2.18,0,0,1-2.41-1.25c-.05-.12.06-.27.16-.18A1.23,1.23,0,0,0,30.27,43.23Zm-.8,10.09a2.57,2.57,0,0,1,.4-3.16.68.68,0,0,1-.23-.28.59.59,0,0,1,.08-.64.85.85,0,0,1,.57-.29,1.7,1.7,0,0,1,.35,0A.73.73,0,0,1,31,49h0a.74.74,0,0,1,.29.19,6.1,6.1,0,0,1,2.07-.43c2.52-.07,6.13.9,7.4,3.26,1.37,2.54-.41,5.23-3.19,5.54a5.7,5.7,0,0,1-2.11.25A8.69,8.69,0,0,1,29.47,53.33ZM48.4,75.11a4.06,4.06,0,0,1-3-.45,1.53,1.53,0,0,1-.29-2.36,3.31,3.31,0,0,1,2.33-.79,7.4,7.4,0,0,1,3.23.24,1.37,1.37,0,0,1,.76,1C51.78,74.42,49.59,75,48.4,75.11Zm6.66-13.53a12.84,12.84,0,0,0,4.08-.4L59,61c-.22-.3.17-.67.5-.57.59.18,1.12.91.76,1.46a.49.49,0,0,1-.73.07.82.82,0,0,1-.16-.29l-.11.07c-.58.6-2.54,3.14-2.74,3.39-1.45,1.84-3.62,4.75-5.88,5.75a6.67,6.67,0,0,1-5.25,0c-2.35-1-4.46-3.77-5.92-5.75a21.15,21.15,0,0,0-2.67-3.36.73.73,0,0,1-.12.19.49.49,0,0,1-.73-.07c-.36-.55.17-1.29.76-1.46.33-.1.72.27.5.57L37,61.2a12,12,0,0,0,3.92.38c1.4-.21,2.74-.72,4.14-.94a3.94,3.94,0,0,1,2.91.91,3.94,3.94,0,0,1,2.91-.91C52.32,60.86,53.66,61.37,55.07,61.58Zm-9-7.17a.85.85,0,0,1,.57-.29,1.71,1.71,0,0,1,.35,0,.73.73,0,0,1,.38.11h0a.73.73,0,0,1,.5.8.71.71,0,0,1-.68.63h-.07a.73.73,0,0,1-.37,0,2,2,0,0,1-.32-.14.87.87,0,0,1-.48-.43A.59.59,0,0,1,46,54.41Zm-1.85,2.28c.76-.79,1.63-.31,2.52-.06,1.61.44,3-.28,4.56-.45a.15.15,0,0,1,.13.22A4.88,4.88,0,0,1,48,58.5c-1.61.1-2.43-1-3.79-1.65A.11.11,0,0,1,44.18,56.69ZM30.54,34.23c3.85-.92,4.53-1.58,11.74,0,1.68.37,1,2.38-.69,2.16S36.76,35,33,34.89C32,34.88,25.34,35.47,30.54,34.23Zm-8.61,7.94a2,2,0,0,1,2.8.74,6.48,6.48,0,0,1,1.16,3.22,4.1,4.1,0,0,1-1,3.15c-.07.1-.23,0-.22-.11a9.86,9.86,0,0,0-.38-3.31,4.34,4.34,0,0,0-.79-1.34c0,.16,0,.31,0,.47a1.21,1.21,0,0,1-2.28.72A2.77,2.77,0,0,1,21.92,42.17Z"/><path class="cls-5" d="M23.33,53.7q-.17-.19-.33-.4C23.11,53.44,23.22,53.57,23.33,53.7Z"/><path class="cls-5" d="M24.37,54.57a3.62,3.62,0,0,1-.36-.24A3.65,3.65,0,0,0,24.37,54.57Z"/><path class="cls-3" d="M25.81,55h0Z"/><path class="cls-6" d="M25.81,55h0Z"/><path class="cls-3" d="M26.31,55h0Z"/><path class="cls-6" d="M26.31,55h0Z"/><path class="cls-3" d="M23,53.3l-.12-.16Z"/><path class="cls-6" d="M23,53.3l-.12-.16Z"/><path class="cls-3" d="M23.49,53.87l-.16-.17Z"/><path class="cls-6" d="M23.49,53.87l-.16-.17Z"/><path class="cls-3" d="M22.48,52.55l0,0Z"/><path class="cls-6" d="M22.48,52.55l0,0Z"/><path class="cls-3" d="M24.54,54.67l-.17-.1Z"/><path class="cls-6" d="M24.54,54.67l-.17-.1Z"/><path class="cls-3" d="M24,54.33l-.18-.15Z"/><path class="cls-6" d="M24,54.33l-.18-.15Z"/><path class="cls-5" d="M27.2,54.67c0-.23-.07-1.21-.09-2a5.61,5.61,0,0,1-2.88-.42,8.15,8.15,0,0,1-2.92-2.07,15.06,15.06,0,0,0,1.14,2.33l0,0q.19.31.4.59l.12.16q.16.21.33.4l.16.17.33.31.18.15a3.62,3.62,0,0,0,.36.24l.17.1a2.76,2.76,0,0,0,.56.22,3.74,3.74,0,0,0,.6.11h.1a2.7,2.7,0,0,0,.48,0h0A2.14,2.14,0,0,0,27.2,54.67Z"/><path class="cls-6" d="M27.2,54.67c0-.23-.07-1.21-.09-2a5.61,5.61,0,0,1-2.88-.42,8.15,8.15,0,0,1-2.92-2.07,15.06,15.06,0,0,0,1.14,2.33l0,0q.19.31.4.59l.12.16q.16.21.33.4l.16.17.33.31.18.15a3.62,3.62,0,0,0,.36.24l.17.1a2.76,2.76,0,0,0,.56.22,3.74,3.74,0,0,0,.6.11h.1a2.7,2.7,0,0,0,.48,0h0A2.14,2.14,0,0,0,27.2,54.67Z"/><path class="cls-5" d="M23.55,45c0-.16,0-.31,0-.47a4.34,4.34,0,0,1,.79,1.34,9.86,9.86,0,0,1,.38,3.31c0,.13.15.2.22.11a4.1,4.1,0,0,0,1-3.15,6.48,6.48,0,0,0-1.16-3.22,2,2,0,0,0-2.8-.74,2.77,2.77,0,0,0-.65,3.54A1.21,1.21,0,0,0,23.55,45Z"/><path class="cls-6" d="M23.55,45c0-.16,0-.31,0-.47a4.34,4.34,0,0,1,.79,1.34,9.86,9.86,0,0,1,.38,3.31c0,.13.15.2.22.11a4.1,4.1,0,0,0,1-3.15,6.48,6.48,0,0,0-1.16-3.22,2,2,0,0,0-2.8-.74,2.77,2.77,0,0,0-.65,3.54A1.21,1.21,0,0,0,23.55,45Z"/><path class="cls-5" d="M37.64,57.59c2.78-.31,4.56-3,3.19-5.54-1.27-2.36-4.88-3.33-7.4-3.26a6.1,6.1,0,0,0-2.07.43.72.72,0,0,1,.21.61.71.71,0,0,1-.68.63h-.07a.73.73,0,0,1-.37,0,2,2,0,0,1-.32-.14,1.43,1.43,0,0,1-.25-.15,2.57,2.57,0,0,0-.4,3.16,8.69,8.69,0,0,0,6.06,4.51A5.7,5.7,0,0,0,37.64,57.59Z"/><path class="cls-13" d="M37.64,57.59c2.78-.31,4.56-3,3.19-5.54-1.27-2.36-4.88-3.33-7.4-3.26a6.1,6.1,0,0,0-2.07.43.72.72,0,0,1,.21.61.71.71,0,0,1-.68.63h-.07a.73.73,0,0,1-.37,0,2,2,0,0,1-.32-.14,1.43,1.43,0,0,1-.25-.15,2.57,2.57,0,0,0-.4,3.16,8.69,8.69,0,0,0,6.06,4.51A5.7,5.7,0,0,0,37.64,57.59Z"/><path class="cls-5" d="M30.45,50.45a.73.73,0,0,0,.37,0h.07a.71.71,0,0,0,.68-.63.72.72,0,0,0-.21-.61,4.31,4.31,0,0,0-1.49,1,1.43,1.43,0,0,0,.25.15A2,2,0,0,0,30.45,50.45Z"/><path class="cls-9" d="M30.45,50.45a.73.73,0,0,0,.37,0h.07a.71.71,0,0,0,.68-.63.72.72,0,0,0-.21-.61,4.31,4.31,0,0,0-1.49,1,1.43,1.43,0,0,0,.25.15A2,2,0,0,0,30.45,50.45Z"/><path class="cls-13" d="M30.45,50.45a.73.73,0,0,0,.37,0h.07a.71.71,0,0,0,.68-.63.72.72,0,0,0-.21-.61,4.31,4.31,0,0,0-1.49,1,1.43,1.43,0,0,0,.25.15A2,2,0,0,0,30.45,50.45Z"/><path class="cls-5" d="M60.89,40a11.75,11.75,0,0,0-1.92.86,5,5,0,0,1,2.2-.43Z"/><path class="cls-6" d="M60.89,40a11.75,11.75,0,0,0-1.92.86,5,5,0,0,1,2.2-.43Z"/><path class="cls-5" d="M56.21,45.15c-.22.39-.68.11-.51-.41A7.26,7.26,0,0,1,57.33,42a5.19,5.19,0,0,0-.95,1.11,4.58,4.58,0,0,0-.93,1.66c-.18.58.6.81,1,.53A2.78,2.78,0,0,1,57,44.06,7.26,7.26,0,0,0,56.21,45.15Z"/><path class="cls-6" d="M56.21,45.15c-.22.39-.68.11-.51-.41A7.26,7.26,0,0,1,57.33,42a5.19,5.19,0,0,0-.95,1.11,4.58,4.58,0,0,0-.93,1.66c-.18.58.6.81,1,.53A2.78,2.78,0,0,1,57,44.06,7.26,7.26,0,0,0,56.21,45.15Z"/><path class="cls-5" d="M61.42,40.41a7.41,7.41,0,0,1,3.75,1.48c-.43-.81-.88-1.63-1.38-2.45a9.87,9.87,0,0,0-2.9.55l.28.43Z"/><path class="cls-6" d="M61.42,40.41a7.41,7.41,0,0,1,3.75,1.48c-.43-.81-.88-1.63-1.38-2.45a9.87,9.87,0,0,0-2.9.55l.28.43Z"/><path class="cls-6" d="M61.42,40.41a7.41,7.41,0,0,1,3.75,1.48c-.43-.81-.88-1.63-1.38-2.45a9.87,9.87,0,0,0-2.9.55l.28.43Z"/><path class="cls-5" d="M65.23,45c0,.1-.11.2-.17.3a5.22,5.22,0,0,0,1.13-.82l0-.12a4.74,4.74,0,0,1-.92-.24A1,1,0,0,1,65.23,45Z"/><path class="cls-6" d="M65.23,45c0,.1-.11.2-.17.3a5.22,5.22,0,0,0,1.13-.82l0-.12a4.74,4.74,0,0,1-.92-.24A1,1,0,0,1,65.23,45Z"/><path class="cls-6" d="M65.23,45c0,.1-.11.2-.17.3a5.22,5.22,0,0,0,1.13-.82l0-.12a4.74,4.74,0,0,1-.92-.24A1,1,0,0,1,65.23,45Z"/><path class="cls-14" d="M65.06,45.33c.06-.1.12-.2.17-.3a1,1,0,0,0,0-.88,6.52,6.52,0,0,1-.94-.42,11.82,11.82,0,0,0-2.12-.93,4,4,0,0,1,1,.81,2,2,0,0,1,.54,2c-.53,1.66-3.32,2.19-4.7,1.46a2.35,2.35,0,0,1-.58-.44,2.51,2.51,0,0,1-.56-2.14,2.36,2.36,0,0,1,1-1.73A4.42,4.42,0,0,0,57,44.06a2.78,2.78,0,0,0-.49,1.25.89.89,0,0,0,.1.51c.78,1.34,3.28,2,4.87,1.82A4.74,4.74,0,0,0,64,46.53,4.57,4.57,0,0,0,65.06,45.33Z"/><path class="cls-15" d="M58.86,42.7a2.36,2.36,0,0,0-1,1.73,2.51,2.51,0,0,0,.56,2.14A2.35,2.35,0,0,0,59,47c1.39.74,4.18.2,4.7-1.46a2,2,0,0,0-.54-2,4,4,0,0,0-1-.81A5.1,5.1,0,0,0,58.86,42.7Zm4,2.59a.57.57,0,0,1-.4.49c0,.06-.05.11-.1.17a1.17,1.17,0,0,1-.28.24,2.58,2.58,0,0,1-2.59.25,1.58,1.58,0,0,1-.39-.29,1.84,1.84,0,0,1-.37-1.33.41.41,0,0,1,.08-.74c.55-2,4-1.13,4,.72A1.25,1.25,0,0,1,62.82,45.29Z"/><path class="cls-3" d="M58.77,44.08a.49.49,0,0,1,.16,0,.42.42,0,1,1,0,.83.46.46,0,0,1-.24-.07,1.84,1.84,0,0,0,.37,1.33,1.58,1.58,0,0,0,.39.29A2.58,2.58,0,0,0,62,46.19a1.17,1.17,0,0,0,.28-.24c0-.06.06-.11.1-.17a.6.6,0,0,1-.8-.34,1.68,1.68,0,0,1,0-1.22c.08-.17.33-.18.49-.12a1.11,1.11,0,0,1,.6.7C62.75,42.94,59.33,42.08,58.77,44.08Z"/><path class="cls-16" d="M55.71,44.74c-.18.52.29.79.51.41A7.26,7.26,0,0,1,57,44.06a4.42,4.42,0,0,1,1.89-1.35,5.1,5.1,0,0,1,3.32.09,11.82,11.82,0,0,1,2.12.93,6.52,6.52,0,0,0,.94.42,4.74,4.74,0,0,0,.92.24c-.08-.34-.16-.68-.24-1-.23-.49-.49-1-.75-1.47a7.41,7.41,0,0,0-3.75-1.48h-.25a5,5,0,0,0-2.2.43A5.34,5.34,0,0,0,57.33,42,7.26,7.26,0,0,0,55.71,44.74Z"/><path class="cls-14" d="M62.14,44.1c-.16-.06-.41-.06-.49.12a1.68,1.68,0,0,0,0,1.22.6.6,0,0,0,.8.34.57.57,0,0,0,.4-.49,1.25,1.25,0,0,0-.08-.49A1.11,1.11,0,0,0,62.14,44.1Z"/><path class="cls-14" d="M58.93,44a.49.49,0,0,0-.16,0,.41.41,0,0,0-.08.74.46.46,0,0,0,.24.07A.42.42,0,1,0,58.93,44Z"/><path class="cls-5" d="M63.24,48.79c-2.52-.07-6.13.9-7.4,3.26-1.37,2.54.41,5.23,3.19,5.54a5.7,5.7,0,0,0,2.11.25,8.35,8.35,0,0,0,4.78-2.71c-.3-2-.66-4.1-1.16-6.1A6.15,6.15,0,0,0,63.24,48.79Z"/><path class="cls-13" d="M63.24,48.79c-2.52-.07-6.13.9-7.4,3.26-1.37,2.54.41,5.23,3.19,5.54a5.7,5.7,0,0,0,2.11.25,8.35,8.35,0,0,0,4.78-2.71c-.3-2-.66-4.1-1.16-6.1A6.15,6.15,0,0,0,63.24,48.79Z"/><path class="cls-5" d="M66.77,50.14a.72.72,0,0,1-.55.31h-.07a.73.73,0,0,1-.37,0,2,2,0,0,1-.32-.14.87.87,0,0,1-.48-.43.59.59,0,0,1,.08-.64.56.56,0,0,1,.11-.09L64.77,49c.5,2,.86,4.06,1.16,6.1a7.93,7.93,0,0,0,1.28-1.81A2.57,2.57,0,0,0,66.77,50.14Z"/><path class="cls-6" d="M66.77,50.14a.72.72,0,0,1-.55.31h-.07a.73.73,0,0,1-.37,0,2,2,0,0,1-.32-.14.87.87,0,0,1-.48-.43.59.59,0,0,1,.08-.64.56.56,0,0,1,.11-.09L64.77,49c.5,2,.86,4.06,1.16,6.1a7.93,7.93,0,0,0,1.28-1.81A2.57,2.57,0,0,0,66.77,50.14Z"/><path class="cls-13" d="M66.77,50.14a.72.72,0,0,1-.55.31h-.07a.73.73,0,0,1-.37,0,2,2,0,0,1-.32-.14.87.87,0,0,1-.48-.43.59.59,0,0,1,.08-.64.56.56,0,0,1,.11-.09L64.77,49c.5,2,.86,4.06,1.16,6.1a7.93,7.93,0,0,0,1.28-1.81A2.57,2.57,0,0,0,66.77,50.14Z"/><path class="cls-5" d="M65,49.89a.87.87,0,0,0,.48.43,2,2,0,0,0,.32.14.73.73,0,0,0,.37,0h.07a.72.72,0,0,0,.55-.31,4.44,4.44,0,0,0-1.61-1,.56.56,0,0,0-.11.09A.59.59,0,0,0,65,49.89Z"/><path class="cls-6" d="M65,49.89a.87.87,0,0,0,.48.43,2,2,0,0,0,.32.14.73.73,0,0,0,.37,0h.07a.72.72,0,0,0,.55-.31,4.44,4.44,0,0,0-1.61-1,.56.56,0,0,0-.11.09A.59.59,0,0,0,65,49.89Z"/><path class="cls-9" d="M65,49.89a.87.87,0,0,0,.48.43,2,2,0,0,0,.32.14.73.73,0,0,0,.37,0h.07a.72.72,0,0,0,.55-.31,4.44,4.44,0,0,0-1.61-1,.56.56,0,0,0-.11.09A.59.59,0,0,0,65,49.89Z"/><path class="cls-13" d="M65,49.89a.87.87,0,0,0,.48.43,2,2,0,0,0,.32.14.73.73,0,0,0,.37,0h.07a.72.72,0,0,0,.55-.31,4.44,4.44,0,0,0-1.61-1,.56.56,0,0,0-.11.09A.59.59,0,0,0,65,49.89Z"/><path class="cls-3" d="M77.86,16.45c.11.19.2.38.3.57.22.4.46.79.67,1.2-.42-.82-.86-1.61-1.33-2.4.12.21.23.42.35.63Z"/><path class="cls-3" d="M90,97.25a82,82,0,0,1,2.45,9.4,50.68,50.68,0,0,1-.33,6.31c.1-.81.15-1.62.21-2.44a50.93,50.93,0,0,0,0-7.33v0a51.81,51.81,0,0,0-1.12-7.46,52.24,52.24,0,0,0-1.95-6.61c-1-2.77-2.1-5.55-2.93-8.39C86.07,86.5,88.24,91.78,90,97.25Z"/><path class="cls-3" d="M82.75,79.58q-.32,1-.6,2a3.43,3.43,0,0,1-.44,1.77c-.14.62-.27,1.25-.38,1.89a3.13,3.13,0,0,1-.08,2.13,3,3,0,0,1,.56,2.69,3.39,3.39,0,0,1-.18.52A13.39,13.39,0,0,1,81,93.22c.44,5.09,1.91,10.08,3.2,15,.4,1.52.75,3.09,1,4.67l1.52,2.71c-.56-3.35-1.53-6.63-2.32-9.93-1.67-7-1-12.84.82-19.37,0,.07,0,.14,0,.21a32.29,32.29,0,0,1,.93-6.24h0a37.26,37.26,0,0,1-.95-4.14A23.76,23.76,0,0,1,85,72.94l-.21.62A33.91,33.91,0,0,0,82.75,79.58Z"/><path class="cls-3" d="M79.3,19.23c.24.5.48,1,.7,1.5-.36-.83-.74-1.65-1.15-2.46.07.15.14.3.21.45Z"/><path class="cls-3" d="M83.63,33.4c1.23,9.5-.06,18.8-2.51,27.94a5,5,0,0,1,1.34-1.11c.39-1.28.78-2.56,1.14-3.82.67-2.32,1.39-4.71,2-7.13.25,7.11.33,14.08-1.24,21.19.24-.59.49-1.19.72-1.78h0c.18-2.18.45-4.36.57-6.59a118.84,118.84,0,0,0-.3-17.92A95.9,95.9,0,0,0,83,29.83q.35,1.39.65,2.8A1.65,1.65,0,0,0,83.63,33.4Z"/><path class="cls-3" d="M81.27,23.93c.65,1.82,1.21,3.69,1.69,5.57C82.48,27.62,81.92,25.75,81.27,23.93Z"/><path class="cls-3" d="M54,.18c.41.06.83.13,1.24.21C54.78.31,54.36.23,54,.18Z"/><path class="cls-3" d="M53.89.17h0Z"/><path class="cls-3" d="M80.25,21.32q.46,1.09.87,2.21Q80.71,22.41,80.25,21.32Z"/><path class="cls-3" d="M76,13.49q.59.85,1.13,1.72Q76.58,14.34,76,13.49Z"/><path class="cls-3" d="M73.87,10.72c.59.69,1.14,1.41,1.67,2.14C75,12.12,74.46,11.41,73.87,10.72Z"/><path class="cls-3" d="M65.44,4.1l1.06.56Z"/><path class="cls-3" d="M45.68,1.84l.25-.19Z"/><path class="cls-3" d="M47.53.72l.38-.14Z"/><path class="cls-3" d="M46.5,1.25a7.83,7.83,0,0,1,.89-.47A7.17,7.17,0,0,0,46.5,1.25Z"/><path class="cls-3" d="M53,.07h0Z"/><path class="cls-3" d="M65.46,77.62a65.84,65.84,0,0,0-2.31,6.9c0,.17-.08.34-.12.51l-.1.43A57.42,57.42,0,0,0,62,107.52h0q.28,1.8.68,3.58.2.88.43,1.76c.7,2.64,2,4.85,1.74,7.7a8.42,8.42,0,0,1-.13.89c-.6,3.1-3,6.79-6,3.4-.47-.53.09,1.35.14,1.48a15.84,15.84,0,0,0,.94,2.12,20.89,20.89,0,0,0,1.37,2.25l.28.41A15.2,15.2,0,0,0,74.57,137a14.64,14.64,0,0,0,4.48-1c-1.21.26-2.87.3-3.12.55a16.3,16.3,0,0,0,3-4c.09-.18.18-.37.27-.56-.7-2-1.49-4.22-2.31-6.61a14.38,14.38,0,0,1-1,1.84c-2.38,3.69-7.07,7.35-11.36,4.25a6.62,6.62,0,0,1-2-2.13,4.25,4.25,0,0,0,2.61.52,3.38,3.38,0,0,0,2-1.48c2.89-4.18,2.11-9.25.3-13.69-2.27-5.56-4-10.83-3.75-16.95.25-5.35,2-10.54,3.61-15.63a8.29,8.29,0,0,1-.06-1.12c-.47-.83-.85-1.72-1.26-2.5C65.81,78.28,65.63,78,65.46,77.62Z"/><path class="cls-3" d="M53.27,27.23A54.87,54.87,0,0,1,59.5,33.5a32.27,32.27,0,0,0-3.82.28L54,34c-1.7.24-1.16,2.3.52,2.2.75,0,1.77-.25,3-.45a30.37,30.37,0,0,1,3.5-.4,47,47,0,0,1,2.79,4.08c.5.82,1,1.64,1.38,2.45.26.49.52,1,.75,1.47.08.34.16.68.24,1l0,.12c.86,3.72,1.89,7.34,2.54,11.07a38.43,38.43,0,0,1,.63,7A33.26,33.26,0,0,1,67,73.6a4.18,4.18,0,0,1,1.09,1.25c.16.24.51.72.92,1.3a4.07,4.07,0,0,1,.36-.33q.93-2.81,1.9-5.6a1.8,1.8,0,0,0,.17-.47q1-2.85,2-5.68a61.87,61.87,0,0,0,3.73-15.61c.58-6.28.13-13-2.41-18.84-.06-.14-.13-.26-.19-.4h0q-.39-.86-.81-1.63h0a22.65,22.65,0,0,0-6.12-7.31h0a9.57,9.57,0,0,0-2.83-1.68c4,2.6,6.17,6.82,7.43,11.29h0c.35,1.24.64,2.49.88,3.74a59.52,59.52,0,0,1,0,20.93c-.36,2.18-.82,4.33-1.36,6.46.67-2.68-.2-6.72-.63-9.42a35.7,35.7,0,0,0-2.58-8.93A30.37,30.37,0,0,0,60.74,32h0q-.63-.54-1.28-1.05c-.46-.36-.93-.71-1.42-1a58.45,58.45,0,0,1-9.32-7.15A49.75,49.75,0,0,0,53.27,27.23Z"/><path class="cls-3" d="M85.25,87.83s0-.1,0-.15S85.24,87.78,85.25,87.83Z"/><path class="cls-3" d="M89.92,109.42A29.48,29.48,0,0,1,89.87,121l.4.68a47.8,47.8,0,0,0,1.38-5.65c.18-1,.33-2,.45-3.05a46.53,46.53,0,0,0-1.65-5.88C89,103,87.2,99.07,86.13,94.9,87.18,99.71,88.91,104.45,89.92,109.42Z"/><path class="cls-3" d="M80.42,135.45v0l-.09.08Z"/><path class="cls-3" d="M83.34,60.32c.22.08-1.77,9.19-2.47,13-.28,1.51-.37,3.54-.63,5.52v0l0,.2.33.21c.74-1.75,1.53-3.49,2.31-5.22.54-1.2,1.06-2.41,1.55-3.62,1.58-7.11,1.49-14.07,1.24-21.19-.64,2.42-1.36,4.8-2,7.13-.37,1.27-.75,2.54-1.14,3.82C82.86,60,83.18,60,83.34,60.32Z"/><path class="cls-17" d="M83.34,60.32c.22.08-1.77,9.19-2.47,13-.28,1.51-.37,3.54-.63,5.52v0l0,.2.33.21c.74-1.75,1.53-3.49,2.31-5.22.54-1.2,1.06-2.41,1.55-3.62,1.58-7.11,1.49-14.07,1.24-21.19-.64,2.42-1.36,4.8-2,7.13-.37,1.27-.75,2.54-1.14,3.82C82.86,60,83.18,60,83.34,60.32Z"/><path class="cls-3" d="M89.92,109.42c-1-5-2.75-9.71-3.8-14.51a27,27,0,0,1-.89-6.07c0-.34,0-.67,0-1,0,0,0-.1,0-.15,0-.38,0-.76,0-1.13,0-.07,0-.14,0-.21-1.85,6.52-2.49,12.32-.82,19.37.79,3.3,1.75,6.58,2.32,9.93,1,1.81,2.07,3.63,3.1,5.39A29.48,29.48,0,0,0,89.92,109.42Z"/><path class="cls-17" d="M89.92,109.42c-1-5-2.75-9.71-3.8-14.51a27,27,0,0,1-.89-6.07c0-.34,0-.67,0-1,0,0,0-.1,0-.15,0-.38,0-.76,0-1.13,0-.07,0-.14,0-.21-1.85,6.52-2.49,12.32-.82,19.37.79,3.3,1.75,6.58,2.32,9.93,1,1.81,2.07,3.63,3.1,5.39A29.48,29.48,0,0,0,89.92,109.42Z"/><path class="cls-11" d="M85.27,86.55c0,.38,0,.76,0,1.13,0,0,0,.1,0,.15,0,.34,0,.67,0,1a27,27,0,0,0,.89,6.07C87.2,99.07,89,103,90.46,107.12A46.53,46.53,0,0,1,92.1,113h0v0a50.68,50.68,0,0,0,.33-6.31A82,82,0,0,0,90,97.25c-1.76-5.47-3.92-10.75-3.68-16.53v0l-.12-.38h0A32.29,32.29,0,0,0,85.27,86.55Z"/><path class="cls-11" d="M84.39,70.46c-.5,1.21-1,2.42-1.55,3.62-.78,1.73-1.57,3.47-2.31,5.22A3.53,3.53,0,0,1,82.06,81a2.18,2.18,0,0,1,.08.57q.28-1,.6-2a33.91,33.91,0,0,1,2-6l.21-.62h0a40.55,40.55,0,0,1,.14-4.26h0C84.88,69.27,84.64,69.87,84.39,70.46Z"/><path class="cls-11" d="M81.08,84.1h0l-.12.09a1.67,1.67,0,0,1-.2.08,3.29,3.29,0,0,1,.56,1c.11-.63.23-1.26.38-1.89A2.26,2.26,0,0,1,81.08,84.1Z"/><path class="cls-11" d="M75.93,136.62c.24-.25,1.91-.29,3.12-.55a3,3,0,0,0,1-.37c.08-.06.15-.14.23-.2l.09-.08c-.36-1-.76-2.08-1.21-3.33-.09.19-.17.38-.27.56A16.3,16.3,0,0,1,75.93,136.62Z"/><path class="cls-11" d="M78.81,98.93c-.39,1.15,2.66,7.19,6.44,14-.29-1.58-.64-3.14-1-4.67-1.29-5-2.76-9.94-3.2-15C80.28,95.5,79.13,98,78.81,98.93Z"/><path class="cls-11" d="M73.77,27.59h0Z"/><path class="cls-11" d="M82.06,26.31l-1.84.92-.24.12c-1,.38-2,.74-2.94,1.08-.81.28-1.63.54-2.45.79.06.14.13.26.19.4,2.54,5.83,3,12.56,2.41,18.84a61.87,61.87,0,0,1-3.73,15.61q-1,2.83-2,5.68a1.8,1.8,0,0,1-.17.47q-1,2.79-1.9,5.6l.12-.11c1.18-.87,2.47-.1,3.68.37l2.66,1,.12-.5.12-.51,0-.14.14-.56v0h0c.54-2.07,1.48-5.36,2.86-10.5a9.24,9.24,0,0,1,2-3.53c2.45-9.15,3.73-18.44,2.51-27.94a1.65,1.65,0,0,1,.07-.77q-.3-1.4-.65-2.8L83,29.5c-.48-1.88-1-3.75-1.69-5.57l-.15-.41q-.41-1.12-.87-2.21L80,20.73c-.22-.51-.46-1-.7-1.5A52.49,52.49,0,0,1,82.06,26.31Z"/><path class="cls-11" d="M79.06,18.73c-.07-.15-.14-.3-.21-.45l0-.06c-.21-.41-.45-.8-.67-1.2C78.47,17.58,78.78,18.15,79.06,18.73Z"/><path class="cls-11" d="M65.93,31.34l-1.81.31c1.18-.21-1.19.18-1.71.23L60.74,32a30.37,30.37,0,0,1,7.87,10.63,35.7,35.7,0,0,1,2.58,8.93c.43,2.7,1.3,6.74.63,9.42.54-2.13,1-4.29,1.36-6.46a59.52,59.52,0,0,0,0-20.93c-.24-1.25-.53-2.5-.88-3.74C70.17,30.45,68.06,30.94,65.93,31.34Z"/><path class="cls-11" d="M58,29.94c.49.33,1,.68,1.42,1C59,30.62,58.52,30.27,58,29.94Z"/><path class="cls-11" d="M63.69,97.84c-.29,6.11,1.48,11.38,3.75,16.95,1.81,4.44,2.59,9.5-.3,13.69a3.38,3.38,0,0,1-2,1.48,4.25,4.25,0,0,1-2.61-.52,6.62,6.62,0,0,0,2,2.13c4.29,3.1,9-.56,11.36-4.25a14.38,14.38,0,0,0,1-1.84c-3.59-10.41-7.83-23.17-7.83-23.17-2.28-3.81-3-7.1-1.55-19.07a6.75,6.75,0,0,1-.21-1C65.69,87.3,63.94,92.49,63.69,97.84Z"/><path class="cls-18" d="M14.43,123.19a94.09,94.09,0,0,1-1.29,13.12l2.3.51C15.9,128.14,14.43,123.19,14.43,123.19Z"/><polygon class="cls-3" points="72.26 29.88 72.26 29.88 72.26 29.88 72.26 29.88"/><polygon class="cls-19" points="72.26 29.88 72.26 29.88 72.26 29.88 72.26 29.88"/><path class="cls-3" d="M60.74,32h0c-.42-.36-.84-.72-1.28-1.05Q60.11,31.49,60.74,32Z"/><path class="cls-19" d="M60.74,32h0c-.42-.36-.84-.72-1.28-1.05Q60.11,31.49,60.74,32Z"/><path class="cls-11" d="M60.74,32l1.67-.14c.52-.05,2.89-.44,1.71-.23l1.81-.31c2.13-.4,4.24-.89,6.33-1.46h0a21,21,0,0,0-5.16-9.45,82.29,82.29,0,0,1-17.42,3.28A67.5,67.5,0,0,0,58,29.94c.49.33,1,.68,1.42,1S60.32,31.67,60.74,32Z"/><path class="cls-19" d="M60.74,32l1.67-.14c.52-.05,2.89-.44,1.71-.23l1.81-.31c2.13-.4,4.24-.89,6.33-1.46h0a21,21,0,0,0-5.16-9.45,82.29,82.29,0,0,1-17.42,3.28A67.5,67.5,0,0,0,58,29.94c.49.33,1,.68,1.42,1S60.32,31.67,60.74,32Z"/><path class="cls-3" d="M79.06,18.73l.23.5Z"/><path class="cls-19" d="M79.06,18.73l.23.5Z"/><path class="cls-3" d="M74.58,29.22h0q-.39-.86-.81-1.63Q74.19,28.36,74.58,29.22Z"/><path class="cls-19" d="M74.58,29.22h0q-.39-.86-.81-1.63Q74.19,28.36,74.58,29.22Z"/><path class="cls-3" d="M77.86,16.45h0l.31.56C78.06,16.83,78,16.64,77.86,16.45Z"/><path class="cls-19" d="M77.86,16.45h0l.31.56C78.06,16.83,78,16.64,77.86,16.45Z"/><path class="cls-3" d="M73.76,27.58a22.65,22.65,0,0,0-6.11-7.32h0A22.65,22.65,0,0,1,73.76,27.58Z"/><path class="cls-19" d="M73.76,27.58a22.65,22.65,0,0,0-6.11-7.32h0A22.65,22.65,0,0,1,73.76,27.58Z"/><path class="cls-11" d="M73.76,27.58h0q.42.78.81,1.63c.82-.25,1.64-.51,2.45-.79,1-.34,2-.71,2.94-1.08l.24-.12,1.84-.92a52.49,52.49,0,0,0-2.76-7.08l-.23-.5c-.29-.58-.59-1.14-.9-1.71l-.31-.56a91.65,91.65,0,0,1-10.19,3.81A22.65,22.65,0,0,1,73.76,27.58Z"/><path class="cls-19" d="M73.76,27.58h0q.42.78.81,1.63c.82-.25,1.64-.51,2.45-.79,1-.34,2-.71,2.94-1.08l.24-.12,1.84-.92a52.49,52.49,0,0,0-2.76-7.08l-.23-.5c-.29-.58-.59-1.14-.9-1.71l-.31-.56a91.65,91.65,0,0,1-10.19,3.81A22.65,22.65,0,0,1,73.76,27.58Z"/><polygon class="cls-3" points="18.82 24.78 18.82 24.78 18.82 24.77 18.82 24.78"/><polygon class="cls-19" points="18.82 24.78 18.82 24.78 18.82 24.77 18.82 24.78"/><path class="cls-11" d="M26.38,26.33c.22-.34.45-.68.69-1l.29-.42c.23-.31.47-.63.71-.94l.38-.49c.24-.29.49-.58.74-.86l.29-.34A58.28,58.28,0,0,1,22.08,20c-.45-.17-.88-.35-1.3-.55a54,54,0,0,0-2,5.31h0l2.84,1.47.53.28c.6.24,1.21.49,1.82.71s1,.35,1.5.53c.22-.39.46-.77.7-1.16Z"/><path class="cls-19" d="M26.38,26.33c.22-.34.45-.68.69-1l.29-.42c.23-.31.47-.63.71-.94l.38-.49c.24-.29.49-.58.74-.86l.29-.34A58.28,58.28,0,0,1,22.08,20c-.45-.17-.88-.35-1.3-.55a54,54,0,0,0-2,5.31h0l2.84,1.47.53.28c.6.24,1.21.49,1.82.71s1,.35,1.5.53c.22-.39.46-.77.7-1.16Z"/><path class="cls-3" d="M29.2,22.6c-.25.29-.5.57-.74.86C28.69,23.17,28.94,22.89,29.2,22.6Z"/><path class="cls-19" d="M29.2,22.6c-.25.29-.5.57-.74.86C28.69,23.17,28.94,22.89,29.2,22.6Z"/><path class="cls-3" d="M27.07,25.31c-.24.34-.47.68-.69,1C26.6,26,26.83,25.65,27.07,25.31Z"/><path class="cls-19" d="M27.07,25.31c-.24.34-.47.68-.69,1C26.6,26,26.83,25.65,27.07,25.31Z"/><path class="cls-3" d="M26.21,26.61c-.24.39-.48.77-.7,1.16h0C25.73,27.38,26,27,26.21,26.61Z"/><path class="cls-19" d="M26.21,26.61c-.24.39-.48.77-.7,1.16h0C25.73,27.38,26,27,26.21,26.61Z"/><path class="cls-3" d="M27.36,24.89c.23-.31.47-.63.71-.94C27.83,24.26,27.59,24.57,27.36,24.89Z"/><path class="cls-19" d="M27.36,24.89c.23-.31.47-.63.71-.94C27.83,24.26,27.59,24.57,27.36,24.89Z"/><path class="cls-5" d="M35.5,23.35h0A28.15,28.15,0,0,0,28,28.58h0A28.2,28.2,0,0,1,35.5,23.35Z"/><path class="cls-6" d="M35.5,23.35h0A28.15,28.15,0,0,0,28,28.58h0A28.2,28.2,0,0,1,35.5,23.35Z"/><path class="cls-19" d="M35.5,23.35h0A28.15,28.15,0,0,0,28,28.58h0A28.2,28.2,0,0,1,35.5,23.35Z"/><path class="cls-11" d="M35.5,23.35c-1.83-.24-3.65-.56-5.45-1a41.13,41.13,0,0,0-2.9,5.94l.81.25A28.15,28.15,0,0,1,35.5,23.35Z"/><path class="cls-19" d="M35.5,23.35c-1.83-.24-3.65-.56-5.45-1a41.13,41.13,0,0,0-2.9,5.94l.81.25A28.15,28.15,0,0,1,35.5,23.35Z"/><path class="cls-5" d="M50.7,71.76a7.4,7.4,0,0,0-3.23-.24,3.31,3.31,0,0,0-2.33.79,1.53,1.53,0,0,0,.29,2.36,4.06,4.06,0,0,0,3,.45c1.19-.14,3.38-.69,3.05-2.34A1.37,1.37,0,0,0,50.7,71.76Z"/><path class="cls-20" d="M50.7,71.76a7.4,7.4,0,0,0-3.23-.24,3.31,3.31,0,0,0-2.33.79,1.53,1.53,0,0,0,.29,2.36,4.06,4.06,0,0,0,3,.45c1.19-.14,3.38-.69,3.05-2.34A1.37,1.37,0,0,0,50.7,71.76Z"/><path class="cls-3" d="M33,34.89c3.74.06,6.83,1.28,8.57,1.52s2.37-1.78.69-2.16c-7.21-1.61-7.89-1-11.74,0C25.34,35.47,32,34.88,33,34.89Z"/><path class="cls-5" d="M32.2,44.14a4.65,4.65,0,0,1-1,.27,5.27,5.27,0,0,0,1.22.92c-.06-.1-.12-.2-.17-.3A1,1,0,0,1,32.2,44.14Z"/><path class="cls-6" d="M32.2,44.14a4.65,4.65,0,0,1-1,.27,5.27,5.27,0,0,0,1.22.92c-.06-.1-.12-.2-.17-.3A1,1,0,0,1,32.2,44.14Z"/><path class="cls-5" d="M32.16,42A7.45,7.45,0,0,1,36,40.41a5,5,0,0,1,2.45.44c-2.78-1.56-6.68-2.16-8.13-.14a2.31,2.31,0,0,0-.06,2.52A8.43,8.43,0,0,0,32.16,42Z"/><path class="cls-6" d="M32.16,42A7.45,7.45,0,0,1,36,40.41a5,5,0,0,1,2.45.44c-2.78-1.56-6.68-2.16-8.13-.14a2.31,2.31,0,0,0-.06,2.52A8.43,8.43,0,0,0,32.16,42Z"/><path class="cls-5" d="M41.72,44.74c.18.52-.29.79-.51.41-.1-.18-.21-.35-.32-.51a2.09,2.09,0,0,1,.08.68c.44.24,1.18,0,1-.56a4.58,4.58,0,0,0-.93-1.66A5.18,5.18,0,0,0,40.1,42,7.26,7.26,0,0,1,41.72,44.74Z"/><path class="cls-6" d="M41.72,44.74c.18.52-.29.79-.51.41-.1-.18-.21-.35-.32-.51a2.09,2.09,0,0,1,.08.68c.44.24,1.18,0,1-.56a4.58,4.58,0,0,0-.93-1.66A5.18,5.18,0,0,0,40.1,42,7.26,7.26,0,0,1,41.72,44.74Z"/><path class="cls-14" d="M38.57,42.7a2.36,2.36,0,0,1,1,1.73A2.51,2.51,0,0,1,39,46.57a2.35,2.35,0,0,1-.58.44c-1.39.74-4.18.2-4.7-1.46a2,2,0,0,1,.54-2,4,4,0,0,1,1-.81,11.81,11.81,0,0,0-2.12.93,6.52,6.52,0,0,1-.94.42,1,1,0,0,0,0,.88c0,.1.11.2.17.3A4.72,4.72,0,0,0,36,47.63c1.6.16,4.09-.47,4.87-1.82a1.13,1.13,0,0,0,.13-.49,2.09,2.09,0,0,0-.08-.68A4.78,4.78,0,0,0,38.57,42.7Z"/><path class="cls-15" d="M33.68,45.55c.53,1.66,3.32,2.19,4.7,1.46a2.35,2.35,0,0,0,.58-.44,2.51,2.51,0,0,0,.56-2.14,2.36,2.36,0,0,0-1-1.73,5.1,5.1,0,0,0-3.32.09,4,4,0,0,0-1,.81A2,2,0,0,0,33.68,45.55Zm5-1.47a.41.41,0,0,1,.08.74,1.84,1.84,0,0,1-.37,1.33,1.58,1.58,0,0,1-.39.29,2.59,2.59,0,0,1-2.59-.25A1.17,1.17,0,0,1,35.1,46c0-.06-.06-.11-.1-.17a.57.57,0,0,1-.4-.49,1.25,1.25,0,0,1,.08-.49C34.69,42.94,38.1,42.08,38.66,44.08Z"/><path class="cls-3" d="M35.29,44.1c.16-.06.41-.06.49.12a1.68,1.68,0,0,1,0,1.22.6.6,0,0,1-.8.34c0,.06.05.11.1.17a1.17,1.17,0,0,0,.28.24,2.59,2.59,0,0,0,2.59.25,1.58,1.58,0,0,0,.39-.29,1.84,1.84,0,0,0,.37-1.33.46.46,0,0,1-.24.07.42.42,0,1,1,0-.83.49.49,0,0,1,.16,0c-.55-2-4-1.13-4,.72A1.11,1.11,0,0,1,35.29,44.1Z"/><path class="cls-16" d="M28.73,43.16a2.18,2.18,0,0,0,2.41,1.25,4.65,4.65,0,0,0,1-.27,6.52,6.52,0,0,0,.94-.42,11.81,11.81,0,0,1,2.12-.93,5.1,5.1,0,0,1,3.32-.09,4.78,4.78,0,0,1,2.33,1.94c.11.16.22.33.32.51.22.39.68.11.51-.41A7.26,7.26,0,0,0,40.1,42a5.34,5.34,0,0,0-1.64-1.16A5,5,0,0,0,36,40.41,7.45,7.45,0,0,0,32.16,42a8.43,8.43,0,0,1-1.89,1.27A1.23,1.23,0,0,1,28.89,43C28.8,42.89,28.68,43,28.73,43.16Z"/><path class="cls-14" d="M35,45.78a.6.6,0,0,0,.8-.34,1.68,1.68,0,0,0,0-1.22c-.08-.17-.33-.18-.49-.12a1.11,1.11,0,0,0-.6.7,1.25,1.25,0,0,0-.08.49A.57.57,0,0,0,35,45.78Z"/><path class="cls-14" d="M38.5,44.88a.46.46,0,0,0,.24-.07.41.41,0,0,0-.08-.74.49.49,0,0,0-.16,0A.42.42,0,1,0,38.5,44.88Z"/><path class="cls-5" d="M36.63,61.58a1.48,1.48,0,0,1-.36-.26c-.23-.27.35-.18.46-.17l.29,0,.17-.23c.22-.3-.17-.67-.5-.57-.59.18-1.12.91-.76,1.46a.49.49,0,0,0,.73.07.73.73,0,0,0,.12-.19l-.16-.16Z"/><path class="cls-6" d="M36.63,61.58a1.48,1.48,0,0,1-.36-.26c-.23-.27.35-.18.46-.17l.29,0,.17-.23c.22-.3-.17-.67-.5-.57-.59.18-1.12.91-.76,1.46a.49.49,0,0,0,.73.07.73.73,0,0,0,.12-.19l-.16-.16Z"/><path class="cls-18" d="M57.82,62.25l-.51.16c-.28.1-.57.19-.86.27A16.37,16.37,0,0,1,55,64.16a15.66,15.66,0,0,1-3.38.83A38.39,38.39,0,0,1,44,64.84c-.91-.2-2.5-.4-3.22-1a6.83,6.83,0,0,1-.64-.85c-.56-.17-1.28-.42-2-.69a24.08,24.08,0,0,0,5.91,4.64c1.56-1.38,4.78-1.63,6.87-1.11a4.74,4.74,0,0,1,1.09.4,2.18,2.18,0,0,1,.49.36C54.74,65.36,56.33,63.5,57.82,62.25Z"/><path class="cls-18" d="M51,65.83c-2.08-.52-5.31-.27-6.87,1.11l.36.17c2-.1,5.09-.1,7.15-.05a10.35,10.35,0,0,0,.94-.46,2.18,2.18,0,0,0-.49-.36A4.74,4.74,0,0,0,51,65.83Z"/><path class="cls-21" d="M51,65.83c-2.08-.52-5.31-.27-6.87,1.11l.36.17c2-.1,5.09-.1,7.15-.05a10.35,10.35,0,0,0,.94-.46,2.18,2.18,0,0,0-.49-.36A4.74,4.74,0,0,0,51,65.83Z"/><path class="cls-5" d="M59.74,61.32a1.67,1.67,0,0,1-.39.32.82.82,0,0,0,.16.29.49.49,0,0,0,.73-.07c.36-.55-.17-1.29-.76-1.46-.33-.1-.72.27-.5.57l.16.2.13,0C59.39,61.14,60,61,59.74,61.32Z"/><path class="cls-6" d="M59.74,61.32a1.67,1.67,0,0,1-.39.32.82.82,0,0,0,.16.29.49.49,0,0,0,.73-.07c.36-.55-.17-1.29-.76-1.46-.33-.1-.72.27-.5.57l.16.2.13,0C59.39,61.14,60,61,59.74,61.32Z"/><path class="cls-14" d="M40.81,63.84c.72.61,2.31.8,3.22,1a38.39,38.39,0,0,0,7.61.14A15.66,15.66,0,0,0,55,64.16a16.37,16.37,0,0,0,1.42-1.47,30,30,0,0,1-7.16.89A41.33,41.33,0,0,1,41,63.2a7.18,7.18,0,0,1-.79-.21A6.83,6.83,0,0,0,40.81,63.84Z"/><path class="cls-14" d="M44.47,67.11a8.6,8.6,0,0,0,3.56.73,9.23,9.23,0,0,0,3.59-.78C49.56,67,46.5,67,44.47,67.11Z"/><path class="cls-7" d="M48,61.55a3.94,3.94,0,0,0-2.91-.91c-1.4.22-2.74.73-4.14.94A12,12,0,0,1,37,61.2l-.29,0c-.11,0-.69-.1-.46.17a1.48,1.48,0,0,0,.36.26h0l.16.16a21.15,21.15,0,0,1,2.67,3.36c1.46,2,3.57,4.71,5.92,5.75a6.67,6.67,0,0,0,5.25,0c2.25-1,4.42-3.91,5.88-5.75.2-.25,2.16-2.79,2.74-3.39l.11-.07a1.67,1.67,0,0,0,.39-.32c.23-.27-.35-.18-.46-.17l-.13,0a12.84,12.84,0,0,1-4.08.4c-1.4-.21-2.74-.72-4.14-.94A3.94,3.94,0,0,0,48,61.55Zm4.55,5a10.35,10.35,0,0,1-.94.46,9.23,9.23,0,0,1-3.59.78,8.6,8.6,0,0,1-3.56-.73l-.36-.17A24.08,24.08,0,0,1,38.2,62.3c.68.27,1.41.52,2,.69a7.18,7.18,0,0,0,.79.21,41.33,41.33,0,0,0,8.34.38,30,30,0,0,0,7.16-.89c.29-.08.57-.17.86-.27l.51-.16C56.33,63.5,54.74,65.36,52.56,66.59Zm-5.13,3.85a.38.38,0,0,1,.09-.76,7.74,7.74,0,0,0,2.14-.35.42.42,0,0,1,.33.75A3.14,3.14,0,0,1,47.44,70.44Z"/><path class="cls-5" d="M80.35,78c0,.3-.07.6-.11.9.27-2,.36-4,.63-5.52.7-3.83,2.69-12.94,2.47-13-.16-.28-.48-.28-.88-.09a5,5,0,0,0-1.34,1.11,9.24,9.24,0,0,0-2,3.53c-1.38,5.14-2.32,8.44-2.86,10.5h0C77.56,76.26,78.92,77.18,80.35,78Z"/><path class="cls-5" d="M76.1,76l.14-.56Z"/><path class="cls-5" d="M75.94,76.6l.12-.51Z"/><path class="cls-3" d="M80.23,78.9v0Z"/><path class="cls-17" d="M80.23,78.9v0Z"/><path class="cls-6" d="M80.23,78.9v0Z"/><path class="cls-11" d="M76.06,76.1l0-.14Z"/><path class="cls-6" d="M76.06,76.1l0-.14Z"/><path class="cls-11" d="M76.25,75.37v0Z"/><path class="cls-6" d="M76.25,75.37v0Z"/><path class="cls-5" d="M78.7,78.33c.45.21,1,.46,1.5.77l0-.2v0c0-.3.08-.6.11-.9-1.42-.78-2.78-1.69-4.1-2.58h0v0L76.1,76l0,.14-.12.51-.12.5C76.79,77.49,77.76,77.89,78.7,78.33Z"/><path class="cls-6" d="M78.7,78.33c.45.21,1,.46,1.5.77l0-.2v0c0-.3.08-.6.11-.9-1.42-.78-2.78-1.69-4.1-2.58h0v0L76.1,76l0,.14-.12.51-.12.5C76.79,77.49,77.76,77.89,78.7,78.33Z"/><path class="cls-5" d="M67,73.6a1.19,1.19,0,0,0-.72-.2c-.87.05-1.32,1-1.42,1.74a4.31,4.31,0,0,0,.62,2.49c.17.33.35.66.51,1,.41.78.8,1.68,1.26,2.5A7.44,7.44,0,0,1,69,76.15c-.4-.59-.76-1.06-.92-1.3A4.18,4.18,0,0,0,67,73.6Z"/><path class="cls-6" d="M67,73.6a1.19,1.19,0,0,0-.72-.2c-.87.05-1.32,1-1.42,1.74a4.31,4.31,0,0,0,.62,2.49c.17.33.35.66.51,1,.41.78.8,1.68,1.26,2.5A7.44,7.44,0,0,1,69,76.15c-.4-.59-.76-1.06-.92-1.3A4.18,4.18,0,0,0,67,73.6Z"/><path class="cls-5" d="M90.27,121.7l-.4-.68c-1-1.76-2.08-3.58-3.1-5.39l-1.52-2.71c-3.78-6.8-6.82-12.84-6.44-14,.32-1,1.47-3.43,2.2-5.71a13.39,13.39,0,0,0,.61-2.61,3.39,3.39,0,0,0,.18-.52,3,3,0,0,0-.56-2.69,3.13,3.13,0,0,0,.08-2.13,3.29,3.29,0,0,0-.56-1,1.67,1.67,0,0,0,.2-.08,1.68,1.68,0,0,1-.2.08,6.6,6.6,0,0,0-2.67-1.82c-1.8-.7-3.72-1-5.57-1.54-1.07-.32-2.37-.85-3.41-.12s-1,2-.76,3.4a.26.26,0,0,1-.31.19.22.22,0,0,1-.12-.11,6.49,6.49,0,0,1-.69-3.14,6.16,6.16,0,0,1,.94-1c2.26-1.79,5.59.15,7.87,1a29.25,29.25,0,0,1,5,2.92,2.26,2.26,0,0,0,.62-.72,3.43,3.43,0,0,0,.44-1.77,2.18,2.18,0,0,0-.08-.57,3.53,3.53,0,0,0-1.54-1.74l-.33-.21,0-.2,0,.2c-.52-.31-1.05-.56-1.5-.77-.94-.44-1.91-.84-2.89-1.22l-2.66-1c-1.21-.47-2.51-1.24-3.68-.37l-.12.11a4.07,4.07,0,0,0-.36.33,7.44,7.44,0,0,0-1.75,4.94,8.29,8.29,0,0,0,.06,1.12,6.75,6.75,0,0,0,.21,1c-1.49,12-.74,15.26,1.55,19.07,0,0,4.24,12.76,7.83,23.17.83,2.39,1.62,4.65,2.31,6.61.45,1.26.85,2.38,1.21,3.33v0c.31.83.58,1.55.8,2.08l.18.43c5.35-.91,10.88-2.08,16.55-3.58-.85-1.28-3.85-6.16-7.25-11.94ZM75.9,93.16s-1.28-2.36-1.83-3.43a2.39,2.39,0,0,1-.33-.78,4.8,4.8,0,0,0,3.72,1.28A3.23,3.23,0,0,1,75,90.5,4.2,4.2,0,0,1,75.9,93.16ZM81,87.09h0ZM69,87a17.09,17.09,0,0,0,.85,2.11,18,18,0,0,1-.73-1.78,6.67,6.67,0,0,1,.85-2.87A3,3,0,0,1,72,83.35,14.79,14.79,0,0,1,77.4,85c.74.42,1.51.89,2.28,1.35-.38-.13-.77-.24-1.15-.34a17.56,17.56,0,0,0-4.23-.85c-.73-.07-2-.35-2.66.07-1,.59-2,3.66-1.79,4.64a1,1,0,0,0,.28.51,6.5,6.5,0,0,0,2.39,2.15,21.39,21.39,0,0,0-1.43,5.68C69.64,94.9,69.34,91,69,87Z"/><path class="cls-5" d="M72.54,92.54a6.5,6.5,0,0,1-2.39-2.15,1,1,0,0,1-.28-.51c-.21-1,.82-4,1.79-4.64.68-.42,1.93-.14,2.66-.07a17.56,17.56,0,0,1,4.23.85c.39.1.77.21,1.15.34-.78-.46-1.54-.93-2.28-1.35A14.79,14.79,0,0,0,72,83.35a3,3,0,0,0-2.1,1.15,6.67,6.67,0,0,0-.85,2.87,18,18,0,0,0,.73,1.78A17.09,17.09,0,0,1,69,87c.39,3.94.69,7.87,2.15,11.18A21.39,21.39,0,0,1,72.54,92.54Z"/><path class="cls-6" d="M72.54,92.54a6.5,6.5,0,0,1-2.39-2.15,1,1,0,0,1-.28-.51c-.21-1,.82-4,1.79-4.64.68-.42,1.93-.14,2.66-.07a17.56,17.56,0,0,1,4.23.85c.39.1.77.21,1.15.34-.78-.46-1.54-.93-2.28-1.35A14.79,14.79,0,0,0,72,83.35a3,3,0,0,0-2.1,1.15,6.67,6.67,0,0,0-.85,2.87,18,18,0,0,0,.73,1.78A17.09,17.09,0,0,1,69,87c.39,3.94.69,7.87,2.15,11.18A21.39,21.39,0,0,1,72.54,92.54Z"/><path class="cls-11" d="M81.08,84.1l-.12.09.12-.09Z"/><path class="cls-6" d="M81.08,84.1l-.12.09.12-.09Z"/><path class="cls-5" d="M76.06,81.18c-2.28-.87-5.61-2.81-7.87-1a6.16,6.16,0,0,0-.94,1,6.49,6.49,0,0,0,.69,3.14.22.22,0,0,0,.12.11.26.26,0,0,0,.31-.19c-.26-1.41-.2-2.71.76-3.4s2.33-.21,3.41.12c1.84.55,3.77.84,5.57,1.54a6.6,6.6,0,0,1,2.67,1.82,1.68,1.68,0,0,0,.2-.08l.12-.09A29.25,29.25,0,0,0,76.06,81.18Z"/><path class="cls-6" d="M76.06,81.18c-2.28-.87-5.61-2.81-7.87-1a6.16,6.16,0,0,0-.94,1,6.49,6.49,0,0,0,.69,3.14.22.22,0,0,0,.12.11.26.26,0,0,0,.31-.19c-.26-1.41-.2-2.71.76-3.4s2.33-.21,3.41.12c1.84.55,3.77.84,5.57,1.54a6.6,6.6,0,0,1,2.67,1.82,1.68,1.68,0,0,0,.2-.08l.12-.09A29.25,29.25,0,0,0,76.06,81.18Z"/><path class="cls-5" d="M81,87.09h0Z"/><path class="cls-6" d="M81,87.09h0Z"/><path class="cls-5" d="M73.82,89.23l.14.11A6.93,6.93,0,0,1,75,90.5a3.23,3.23,0,0,0,2.45-.27A4.8,4.8,0,0,1,73.74,89a2.39,2.39,0,0,0,.33.78C73.93,89.47,73.84,89.29,73.82,89.23Z"/><path class="cls-6" d="M73.82,89.23l.14.11A6.93,6.93,0,0,1,75,90.5a3.23,3.23,0,0,0,2.45-.27A4.8,4.8,0,0,1,73.74,89a2.39,2.39,0,0,0,.33.78C73.93,89.47,73.84,89.29,73.82,89.23Z"/><path class="cls-5" d="M75,90.5a1.94,1.94,0,0,1-.95-.77c.55,1.07,1.83,3.43,1.83,3.43A4.2,4.2,0,0,0,75,90.5Z"/><path class="cls-6" d="M75,90.5a1.94,1.94,0,0,1-.95-.77c.55,1.07,1.83,3.43,1.83,3.43A4.2,4.2,0,0,0,75,90.5Z"/><path class="cls-5" d="M75,90.5A6.93,6.93,0,0,0,74,89.34l-.14-.11c0,.05.11.24.24.5A1.94,1.94,0,0,0,75,90.5Z"/><path class="cls-6" d="M75,90.5A6.93,6.93,0,0,0,74,89.34l-.14-.11c0,.05.11.24.24.5A1.94,1.94,0,0,0,75,90.5Z"/><path class="cls-6" d="M75,90.5A6.93,6.93,0,0,0,74,89.34l-.14-.11c0,.05.11.24.24.5A1.94,1.94,0,0,0,75,90.5Z"/><path class="cls-7" d="M49.66,69.33a7.74,7.74,0,0,1-2.14.35.38.38,0,0,0-.09.76A3.14,3.14,0,0,0,50,70.07.42.42,0,0,0,49.66,69.33Z"/><path class="cls-22" d="M49.66,69.33a7.74,7.74,0,0,1-2.14.35.38.38,0,0,0-.09.76A3.14,3.14,0,0,0,50,70.07.42.42,0,0,0,49.66,69.33Z"/></g></g></g></svg>