<svg xmlns="http://www.w3.org/2000/svg" viewBox="0 0 103.65 140.43"><defs><style>.cls-1{isolation:isolate;}.cls-2{fill:none;}.cls-18,.cls-3,.cls-4{fill:#3f2d2b;}.cls-10,.cls-16,.cls-4,.cls-6{opacity:0.5;}.cls-18,.cls-4{mix-blend-mode:multiply;}.cls-10,.cls-20,.cls-5{fill:#fac494;}.cls-6{fill:#ed8c72;}.cls-14,.cls-21,.cls-7{fill:#f24469;}.cls-16,.cls-8,.cls-9{fill:#c61443;}.cls-14,.cls-18,.cls-19,.cls-20,.cls-8{opacity:0.2;}.cls-10,.cls-14,.cls-20,.cls-21{mix-blend-mode:screen;}.cls-11{fill:#fff;}.cls-12,.cls-19{fill:#8f705e;}.cls-13{fill:#211313;}.cls-15{fill:#533734;}.cls-17{fill:#ff5a5a;opacity:0.15;}</style></defs><title>Ресурс 2</title><g class="cls-1"><g id="Слой_2" data-name="Слой 2"><g id="Layer_1" data-name="Layer 1"><path class="cls-2" d="M19.93,65.9a205,205,0,0,0,3.79,25.59h.12c2.16-.54,4-.53,5.71-1.18a98.66,98.66,0,0,1-5-10.45A106.38,106.38,0,0,1,19.93,65.9Z"/><path class="cls-3" d="M19.93,65.9A106.38,106.38,0,0,0,24.5,79.85a98.66,98.66,0,0,0,5,10.45A7.33,7.33,0,0,0,32,88.79c-2.09-3.75-4.57-8.36-6.32-12.28A121.89,121.89,0,0,1,16.77,45.4c-.05-.35-.1-.7-.14-1.05-.11-2.5-.1-5,0-7.33,0-.08,0-.15-.05-.23-.81,12.45-.9,33.71,4.92,54.83l2.19-.13A205,205,0,0,1,19.93,65.9Z"/><path class="cls-3" d="M18.8,24.78h0c.13-.41.25-.83.39-1.24q-.28.82-.52,1.64l.12-.39Z"/><path class="cls-3" d="M42.7,3a12.8,12.8,0,0,0-.7,7.62h0v.08a8.1,8.1,0,0,0,.27.9h0A9.07,9.07,0,0,0,42.94,13a14.6,14.6,0,0,0,.58,1.85c-1.48-4.41-1.43-10,2-13a15,15,0,0,0-8-.4C31,3.21,25.7,9.42,22.08,16.6l.3-.48C27.08,9.06,34.18,3.58,42.7,3Z"/><path class="cls-3" d="M33.7,86.77a14.59,14.59,0,0,0,1.13-2,14.84,14.84,0,0,1-2.8,4A12,12,0,0,0,33.7,86.77Z"/><path class="cls-3" d="M35.67,82.66c.1-.3.18-.6.26-.91s.13-.51.18-.76l.08-.39c.16-.82.28-1.66.37-2.5-2.16-4.35-4.25-9-6-13.15-2.16-2.45-3.06-4.81-3.35-9.15l-.07-1.09a2.11,2.11,0,0,1-.85.28h0a2.74,2.74,0,0,1-.48,0h-.1a3.88,3.88,0,0,1-.6-.11,2.77,2.77,0,0,1-.56-.22l-.17-.1a3.67,3.67,0,0,1-.36-.24l-.18-.15-.33-.31-.16-.17c-.11-.13-.22-.26-.33-.4l-.12-.16q-.21-.28-.4-.59l0,0c-.14-.23-.28-.47-.41-.72a50.27,50.27,0,0,0,1.09,7.61c1.61,7.22,5,13.56,8.91,19.77a25.76,25.76,0,0,0,3.21,4.72c.13-.32.25-.63.36-1Z"/><path class="cls-3" d="M16.67,36.86c.05-.88.13-1.75.21-2.6C16.8,35.11,16.73,36,16.67,36.86Z"/><path class="cls-3" d="M19.83,21.75a52.2,52.2,0,0,1,2.25-5.15A52,52,0,0,0,19.83,21.75Z"/><path class="cls-3" d="M18.18,26.93q.2-.76.42-1.52C18.45,25.92,18.31,26.43,18.18,26.93Z"/><path class="cls-3" d="M19.2,23.51q.28-.84.6-1.69Q19.49,22.66,19.2,23.51Z"/><path class="cls-3" d="M17.42,30.36c.09-.49.19-1,.3-1.48C17.61,29.38,17.51,29.87,17.42,30.36Z"/><path class="cls-3" d="M17,33.49c.12-1.06.27-2.1.45-3.12C17.23,31.39,17.09,32.43,17,33.49Z"/><path class="cls-3" d="M17.79,28.54c.11-.5.23-1,.37-1.52C18,27.53,17.91,28,17.79,28.54Z"/><path class="cls-3" d="M63,85c0-.17.08-.34.12-.51,1.9-7.35,6.15-14.21,6.21-22a38.43,38.43,0,0,0-.63-7l0,.23c0,.49-.08.94-.13,1.38,0,.13,0,.26,0,.39q-.06.47-.14.91c0,.12,0,.25-.06.37-.07.37-.15.73-.24,1.08l-.08.26c-.07.26-.15.51-.24.75l-.14.37c-.08.21-.17.41-.26.61l-.15.32c-.13.26-.27.52-.42.76h0c-1.33,2.19-3.48,4.07-6.88,6.91v0c0,.29-.08.58-.11.87,0,.13,0,.26,0,.39-.51,4.68.07,9.5,2.6,13.43l0-.07A7.5,7.5,0,0,0,63,85Z"/><path class="cls-4" d="M63,85c0-.17.08-.34.12-.51,1.9-7.35,6.15-14.21,6.21-22a38.43,38.43,0,0,0-.63-7l0,.23c0,.49-.08.94-.13,1.38,0,.13,0,.26,0,.39q-.06.47-.14.91c0,.12,0,.25-.06.37-.07.37-.15.73-.24,1.08l-.08.26c-.07.26-.15.51-.24.75l-.14.37c-.08.21-.17.41-.26.61l-.15.32c-.13.26-.27.52-.42.76h0c-1.33,2.19-3.48,4.07-6.88,6.91v0c0,.29-.08.58-.11.87,0,.13,0,.26,0,.39-.51,4.68.07,9.5,2.6,13.43l0-.07A7.5,7.5,0,0,0,63,85Z"/><path class="cls-3" d="M36.78,70.56a60.17,60.17,0,0,1-6.21-5.61c1.75,4.13,3.84,8.79,6,13.15A73.21,73.21,0,0,0,36.78,70.56Z"/><path class="cls-4" d="M36.78,70.56a60.17,60.17,0,0,1-6.21-5.61c1.75,4.13,3.84,8.79,6,13.15A73.21,73.21,0,0,0,36.78,70.56Z"/><path class="cls-5" d="M7,97l.14.12.13.09.23.14.18.11.3.17.21.12.37.2.23.12.45.23.2.1.55.27.15.07.71.35h0c1.6.77,3.13,1.46,3.35,1.56a63.37,63.37,0,0,0,13,4.13,151.23,151.23,0,0,0,32.43,2.8l1.18,0h0c-1.62-7.78-1-13.44.78-20.45.22-.83.46-1.66.73-2.48-2.53-3.92-3.11-8.75-2.6-13.43a25.24,25.24,0,0,0,.2,7.43,115.71,115.71,0,0,0-25.67,7.29,15.14,15.14,0,0,0,.87-1.79l-.31.63a14.59,14.59,0,0,1-1.13,2,12,12,0,0,1-1.67,2l0,0h0a7.33,7.33,0,0,1-2.43,1.52c-1.73.65-3.55.64-5.71,1.18h-.12l-2.19.13C16.19,92,10.4,93.05,6.9,96.88c0,0,0,.06,0,.11ZM52,95.2a.19.19,0,0,1,.16.27A6,6,0,0,1,48,98.06c-2,.13-3-1.26-4.67-2a.13.13,0,0,1,0-.2c.93-1,2-.38,3.11-.08C48.41,96.29,50.11,95.41,52,95.2Z"/><path class="cls-5" d="M95.19,102.61l.19,0,.5-.09.19,0,.47-.08.14,0,.53-.08h0l.42-.05h.11l.23,0h.3s.08,0,.09,0c.29.49.56,1,.81,1.54a16.29,16.29,0,0,0-8-8,51.82,51.82,0,0,1,1.12,7.46Z"/><path class="cls-5" d="M5.91,98.16l.21-.31Z"/><path class="cls-5" d="M5.22,99.31,5.41,99Z"/><path class="cls-5" d="M99.3,104c.24.53.47,1.08.67,1.66C99.76,105.07,99.54,104.53,99.3,104Z"/><path class="cls-5" d="M35.22,83.89h0q.19-.48.35-1C35.48,83.26,35.35,83.58,35.22,83.89Z"/><path class="cls-5" d="M36.2,80.6l-.08.39Z"/><path class="cls-5" d="M35.93,81.75c-.08.3-.16.61-.26.91C35.77,82.36,35.86,82.06,35.93,81.75Z"/><path class="cls-5" d="M59.9,70c0,.29-.08.58-.11.87C59.82,70.53,59.86,70.24,59.9,70Z"/><path class="cls-3" d="M35.67,82.66l-.09.28Z"/><path class="cls-6" d="M35.67,82.66l-.09.28Z"/><path class="cls-3" d="M36.12,81c-.06.26-.12.51-.18.76C36,81.5,36.06,81.25,36.12,81Z"/><path class="cls-6" d="M36.12,81c-.06.26-.12.51-.18.76C36,81.5,36.06,81.25,36.12,81Z"/><path class="cls-3" d="M36.2,80.6q.25-1.22.38-2.48v0C36.48,78.94,36.36,79.77,36.2,80.6Z"/><path class="cls-6" d="M36.2,80.6q.25-1.22.38-2.48v0C36.48,78.94,36.36,79.77,36.2,80.6Z"/><path class="cls-3" d="M59.74,71.21c0-.13,0-.26,0-.39C59.77,71,59.75,71.08,59.74,71.21Z"/><path class="cls-4" d="M59.74,71.21c0-.13,0-.26,0-.39C59.77,71,59.75,71.08,59.74,71.21Z"/><path class="cls-6" d="M59.74,71.21c0-.13,0-.26,0-.39C59.77,71,59.75,71.08,59.74,71.21Z"/><path class="cls-3" d="M59.9,70v0h0Z"/><path class="cls-4" d="M59.9,70v0h0Z"/><path class="cls-6" d="M59.9,70v0h0Z"/><path class="cls-3" d="M36.57,78.09v0a69.82,69.82,0,0,0,.23-7.53l0,0A73.21,73.21,0,0,1,36.57,78.09Z"/><path class="cls-4" d="M36.57,78.09v0a69.82,69.82,0,0,0,.23-7.53l0,0A73.21,73.21,0,0,1,36.57,78.09Z"/><path class="cls-6" d="M36.57,78.09v0a69.82,69.82,0,0,0,.23-7.53l0,0A73.21,73.21,0,0,1,36.57,78.09Z"/><path class="cls-5" d="M59.9,70v0c-1.63,1.36-3.53,2.94-5.79,4.91a9.28,9.28,0,0,1-12.33,0c-1.89-1.65-3.53-3-5-4.23a69.82,69.82,0,0,1-.23,7.53q-.13,1.26-.38,2.48l-.08.39c-.06.26-.12.51-.18.76s-.17.61-.26.91l-.09.28q-.16.49-.35,1h0l-.11.23a15.14,15.14,0,0,1-.87,1.79,115.71,115.71,0,0,1,25.67-7.29,25.24,25.24,0,0,1-.2-7.43c0-.13,0-.26,0-.39C59.82,70.53,59.86,70.24,59.9,70Z"/><path class="cls-6" d="M59.9,70v0c-1.63,1.36-3.53,2.94-5.79,4.91a9.28,9.28,0,0,1-12.33,0c-1.89-1.65-3.53-3-5-4.23a69.82,69.82,0,0,1-.23,7.53q-.13,1.26-.38,2.48l-.08.39c-.06.26-.12.51-.18.76s-.17.61-.26.91l-.09.28q-.16.49-.35,1h0l-.11.23a15.14,15.14,0,0,1-.87,1.79,115.71,115.71,0,0,1,25.67-7.29,25.24,25.24,0,0,1-.2-7.43c0-.13,0-.26,0-.39C59.82,70.53,59.86,70.24,59.9,70Z"/><path class="cls-7" d="M8.79,98.1,8.56,98Z"/><path class="cls-7" d="M10.14,98.78,10,98.71Z"/><path class="cls-7" d="M8.19,97.79,8,97.67Z"/><path class="cls-7" d="M9.44,98.44l-.2-.1Z"/><path class="cls-7" d="M97.11,111.33c-.75-2.15-1.49-4.3-2.11-6.49-.2-.69-.38-1.39-.55-2.09l.74-.14-2.89.58v0a50.93,50.93,0,0,1,0,7.33,50.13,50.13,0,0,1-.78,8.12,39.1,39.1,0,0,1-4.18,12.23c.23,2,.51,3.93.79,5.75,4.83-1,9.78-2.22,14.84-3.71-.54-2.83-1.19-5.68-1.92-8.57C99.92,119.93,98.61,115.64,97.11,111.33Z"/><path class="cls-7" d="M97.22,102.26l.42-.05Z"/><path class="cls-7" d="M97.75,102.19l.23,0Z"/><path class="cls-7" d="M96.68,102.34l.53-.08Z"/><path class="cls-7" d="M96.07,102.45l.47-.08Z"/><path class="cls-7" d="M7.67,97.5l-.18-.11Z"/><path class="cls-7" d="M98.07,102.17h0Z"/><path class="cls-7" d="M95.38,102.57l.5-.09Z"/><path class="cls-7" d="M98.28,102.18s.08,0,.09,0S98.33,102.18,98.28,102.18Z"/><path class="cls-7" d="M7.27,97.25l-.13-.09Z"/><path class="cls-7" d="M7,97,6.93,97Z"/><path class="cls-7" d="M80.21,138.09q2.76-.45,5.59-1c-.08-1.33-.11-2.57-.11-3.73A16.21,16.21,0,0,1,80.21,138.09Z"/><path class="cls-7" d="M61.33,133.72A21.32,21.32,0,0,1,59.64,131a41.49,41.49,0,0,1-18.13-1.18A42.52,42.52,0,0,1,29.94,125c-3.8-1.5-7.52-3.77-8.14-7.9-1.12-7.46,6.85-8.17,12.1-7.56,7.47.88,15,1.33,22.5,1.51,1.76,0,3.51.06,5.27.07q-.49-1.84-.85-3.54l-1.18,0a151.23,151.23,0,0,1-32.43-2.8,63.37,63.37,0,0,1-13-4.13c-.23-.1-1.75-.79-3.35-1.56-5.15,9.49-7,22.57-8.64,34.06,2.49.82,6.18,1.92,10.92,3a93.62,93.62,0,0,0,1.27-13s1.47,4.91,1,13.53a174.86,174.86,0,0,0,55.17,2.67A14.81,14.81,0,0,1,61.33,133.72Z"/><path class="cls-8" d="M101.31,112.82c-.11-.7-.21-1.36-.32-2l.16,1Z"/><path class="cls-8" d="M100.7,109l.15.85c-.2-1.18-.39-2.2-.55-3l.13.62C100.51,108,100.6,108.5,100.7,109Z"/><path class="cls-8" d="M100.17,106.41l.12.53a12.08,12.08,0,0,0-.33-1.28h0C100,105.83,100.1,106.09,100.17,106.41Z"/><path class="cls-8" d="M99.3,104l-.06-.14.06.14Z"/><path class="cls-5" d="M98.23,102.17h0Z"/><path class="cls-8" d="M98.23,102.17h0Z"/><path class="cls-5" d="M100,105.65h0c-.2-.58-.43-1.13-.67-1.66h0C99.54,104.52,99.76,105.07,100,105.65Z"/><path class="cls-8" d="M100,105.65h0c-.2-.58-.43-1.13-.67-1.66h0C99.54,104.52,99.76,105.07,100,105.65Z"/><path class="cls-5" d="M96.54,102.37l.14,0Z"/><path class="cls-8" d="M96.54,102.37l.14,0Z"/><path class="cls-5" d="M97.21,102.26h0Z"/><path class="cls-8" d="M97.21,102.26h0Z"/><path class="cls-5" d="M95.88,102.48l.19,0Z"/><path class="cls-8" d="M95.88,102.48l.19,0Z"/><path class="cls-5" d="M95.19,102.61l.19,0Z"/><path class="cls-8" d="M95.19,102.61l.19,0Z"/><path class="cls-5" d="M98,102.17h0Z"/><path class="cls-8" d="M98,102.17h0Z"/><path class="cls-5" d="M97.64,102.2h0Z"/><path class="cls-8" d="M97.64,102.2h0Z"/><path class="cls-7" d="M98.28,102.18H98l-.23,0h-.11l-.42.05h0l-.53.08-.14,0-.47.08-.19,0-.5.09-.19,0-.74.14c.17.7.35,1.4.55,2.09.62,2.19,1.37,4.34,2.11,6.49,1.5,4.31,2.81,8.6,3.93,13,.74,2.89,1.39,5.73,1.92,8.57l.67-.2a53.72,53.72,0,0,0-.53-6.51c-.08-.67-.16-1.38-.25-2.11-.18-1.45-.38-3-.58-4.54-.1-.77-.21-1.55-.32-2.32l-.16-1.14c-.16-1.13-.33-2.24-.49-3.29l-.16-1-.16-1-.15-.92-.15-.85c-.1-.55-.19-1-.28-1.49l-.13-.62-.12-.53c-.08-.32-.15-.57-.21-.75-.2-.58-.43-1.13-.67-1.66l-.06-.14-.05-.1c-.25-.54-.52-1.05-.81-1.54C98.37,102.19,98.33,102.18,98.28,102.18Z"/><path class="cls-8" d="M98.28,102.18H98l-.23,0h-.11l-.42.05h0l-.53.08-.14,0-.47.08-.19,0-.5.09-.19,0-.74.14c.17.7.35,1.4.55,2.09.62,2.19,1.37,4.34,2.11,6.49,1.5,4.31,2.81,8.6,3.93,13,.74,2.89,1.39,5.73,1.92,8.57l.67-.2a53.72,53.72,0,0,0-.53-6.51c-.08-.67-.16-1.38-.25-2.11-.18-1.45-.38-3-.58-4.54-.1-.77-.21-1.55-.32-2.32l-.16-1.14c-.16-1.13-.33-2.24-.49-3.29l-.16-1-.16-1-.15-.92-.15-.85c-.1-.55-.19-1-.28-1.49l-.13-.62-.12-.53c-.08-.32-.15-.57-.21-.75-.2-.58-.43-1.13-.67-1.66l-.06-.14-.05-.1c-.25-.54-.52-1.05-.81-1.54C98.37,102.19,98.33,102.18,98.28,102.18Z"/><path class="cls-8" d="M5.22,99.31h0a12.09,12.09,0,0,0-.56,1.23q-.37,1-.67,1.92.31-1,.67-1.92A12.08,12.08,0,0,1,5.22,99.31Z"/><path class="cls-8" d="M6.9,96.88h0a11.3,11.3,0,0,0-.78,1h0A11.27,11.27,0,0,1,6.9,96.88Z"/><path class="cls-8" d="M1.7,116.52c.1-1.37.21-2.73.35-4.09C1.91,113.78,1.8,115.15,1.7,116.52Z"/><path class="cls-8" d="M5.91,98.16h0q-.26.39-.5.81h0Q5.64,98.55,5.91,98.16Z"/><path class="cls-5" d="M10,98.71l-.55-.27Z"/><path class="cls-8" d="M10,98.71l-.55-.27Z"/><path class="cls-5" d="M5.41,99h0l-.19.34h0Z"/><path class="cls-8" d="M5.41,99h0l-.19.34h0Z"/><path class="cls-5" d="M6.12,97.85h0l-.21.31h0Z"/><path class="cls-8" d="M6.12,97.85h0l-.21.31h0Z"/><path class="cls-5" d="M6.93,97s-.06-.08,0-.11h0S6.89,96.94,6.93,97Z"/><path class="cls-8" d="M6.93,97s-.06-.08,0-.11h0S6.89,96.94,6.93,97Z"/><path class="cls-5" d="M8,97.67l-.3-.17Z"/><path class="cls-8" d="M8,97.67l-.3-.17Z"/><path class="cls-5" d="M7.49,97.39l-.23-.14Z"/><path class="cls-8" d="M7.49,97.39l-.23-.14Z"/><path class="cls-5" d="M9.24,98.33l-.45-.23Z"/><path class="cls-8" d="M9.24,98.33l-.45-.23Z"/><path class="cls-5" d="M8.56,98l-.37-.2Z"/><path class="cls-8" d="M8.56,98l-.37-.2Z"/><path class="cls-5" d="M7.14,97.16,7,97Z"/><path class="cls-8" d="M7.14,97.16,7,97Z"/><path class="cls-5" d="M10.14,98.78l.71.35h0Z"/><path class="cls-8" d="M10.14,98.78l.71.35h0Z"/><path class="cls-7" d="M2.21,133.19c1.68-11.49,3.49-24.57,8.64-34.06l-.71-.35L10,98.71l-.55-.27-.2-.1-.45-.23L8.56,98l-.37-.2L8,97.67l-.3-.17-.18-.11-.23-.14-.13-.09L7,97,6.93,97s-.06-.08,0-.11h0a11.27,11.27,0,0,0-.78,1l-.21.31q-.26.39-.5.81l-.19.34a12.08,12.08,0,0,0-.56,1.23q-.37,1-.67,1.92a50.2,50.2,0,0,0-1.92,10c-.14,1.36-.25,2.72-.35,4.09q-.07,1-.14,2.05A97,97,0,0,1,0,132.43C.57,132.63,1.31,132.89,2.21,133.19Z"/><path class="cls-8" d="M2.21,133.19c1.68-11.49,3.49-24.57,8.64-34.06l-.71-.35L10,98.71l-.55-.27-.2-.1-.45-.23L8.56,98l-.37-.2L8,97.67l-.3-.17-.18-.11-.23-.14-.13-.09L7,97,6.93,97s-.06-.08,0-.11h0a11.27,11.27,0,0,0-.78,1l-.21.31q-.26.39-.5.81l-.19.34a12.08,12.08,0,0,0-.56,1.23q-.37,1-.67,1.92a50.2,50.2,0,0,0-1.92,10c-.14,1.36-.25,2.72-.35,4.09q-.07,1-.14,2.05A97,97,0,0,1,0,132.43C.57,132.63,1.31,132.89,2.21,133.19Z"/><path class="cls-9" d="M85.69,133.37c0,1.15,0,2.4.11,3.73l2.33-.47c-.29-1.82-.56-3.78-.79-5.75A23,23,0,0,1,85.69,133.37Z"/><path class="cls-5" d="M26.7,30.05l0,0q-.05.65-.1,1.35Q26.63,30.72,26.7,30.05Z"/><path class="cls-5" d="M60.17,41.75l.57,0a.91.91,0,0,1,0-.13Z"/><path class="cls-5" d="M68.57,57.18c0,.13,0,.26,0,.39C68.53,57.44,68.55,57.31,68.57,57.18Z"/><path class="cls-5" d="M67.36,61.91l-.15.32Z"/><path class="cls-5" d="M68.08,59.92l-.08.26Z"/><path class="cls-5" d="M67.76,60.93l-.14.37Z"/><path class="cls-5" d="M68.38,58.48c0,.12,0,.25-.06.37C68.34,58.73,68.36,58.6,68.38,58.48Z"/><path class="cls-3" d="M26.42,34l0-.06q0-1.31.11-2.49C26.51,32.25,26.46,33.1,26.42,34Z"/><path class="cls-6" d="M26.42,34l0-.06q0-1.31.11-2.49C26.51,32.25,26.46,33.1,26.42,34Z"/><path class="cls-5" d="M26.47,33.94A43.26,43.26,0,0,1,39.26,21.32c-.42.2-.81.39-1.16.59-.89.51-1.77,1-2.63,1.44h0a28.2,28.2,0,0,0-7.54,5.24h0a16.63,16.63,0,0,0-1.23,1.47q-.07.67-.13,1.39Q26.5,32.62,26.47,33.94Z"/><path class="cls-6" d="M26.47,33.94A43.26,43.26,0,0,1,39.26,21.32c-.42.2-.81.39-1.16.59-.89.51-1.77,1-2.63,1.44h0a28.2,28.2,0,0,0-7.54,5.24h0a16.63,16.63,0,0,0-1.23,1.47q-.07.67-.13,1.39Q26.5,32.62,26.47,33.94Z"/><path class="cls-3" d="M68.52,57.57c0,.31-.09.62-.14.91Q68.46,58,68.52,57.57Z"/><path class="cls-4" d="M68.52,57.57c0,.31-.09.62-.14.91Q68.46,58,68.52,57.57Z"/><path class="cls-6" d="M68.52,57.57c0,.31-.09.62-.14.91Q68.46,58,68.52,57.57Z"/><path class="cls-3" d="M68.69,55.8c0,.49-.08.94-.13,1.38C68.61,56.74,68.66,56.29,68.69,55.8Z"/><path class="cls-4" d="M68.69,55.8c0,.49-.08.94-.13,1.38C68.61,56.74,68.66,56.29,68.69,55.8Z"/><path class="cls-6" d="M68.69,55.8c0,.49-.08.94-.13,1.38C68.61,56.74,68.66,56.29,68.69,55.8Z"/><path class="cls-3" d="M68,60.18c-.07.26-.15.51-.24.75C67.85,60.69,67.93,60.44,68,60.18Z"/><path class="cls-4" d="M68,60.18c-.07.26-.15.51-.24.75C67.85,60.69,67.93,60.44,68,60.18Z"/><path class="cls-6" d="M68,60.18c-.07.26-.15.51-.24.75C67.85,60.69,67.93,60.44,68,60.18Z"/><path class="cls-3" d="M67.62,61.3c-.08.21-.17.41-.26.61C67.45,61.71,67.54,61.51,67.62,61.3Z"/><path class="cls-4" d="M67.62,61.3c-.08.21-.17.41-.26.61C67.45,61.71,67.54,61.51,67.62,61.3Z"/><path class="cls-6" d="M67.62,61.3c-.08.21-.17.41-.26.61C67.45,61.71,67.54,61.51,67.62,61.3Z"/><path class="cls-3" d="M68.32,58.85c-.07.37-.15.73-.24,1.08C68.17,59.58,68.25,59.22,68.32,58.85Z"/><path class="cls-4" d="M68.32,58.85c-.07.37-.15.73-.24,1.08C68.17,59.58,68.25,59.22,68.32,58.85Z"/><path class="cls-6" d="M68.32,58.85c-.07.37-.15.73-.24,1.08C68.17,59.58,68.25,59.22,68.32,58.85Z"/><path class="cls-3" d="M66.79,63c.15-.25.29-.5.42-.76-.13.26-.27.51-.42.76Z"/><path class="cls-4" d="M66.79,63c.15-.25.29-.5.42-.76-.13.26-.27.51-.42.76Z"/><path class="cls-6" d="M66.79,63c.15-.25.29-.5.42-.76-.13.26-.27.51-.42.76Z"/><path class="cls-5" d="M64,39.77q-.84-1.41-1.83-2.83a22,22,0,0,0-3.13.57c.66.8,1.29,1.63,1.87,2.48A11.08,11.08,0,0,1,64,39.77Z"/><path class="cls-6" d="M64,39.77q-.84-1.41-1.83-2.83a22,22,0,0,0-3.13.57c.66.8,1.29,1.63,1.87,2.48A11.08,11.08,0,0,1,64,39.77Z"/><path class="cls-5" d="M63.56,44.78l-.19-.07A33.56,33.56,0,0,1,64.75,49l.39.13a1,1,0,0,1,.46-.21,1.71,1.71,0,0,1,.35,0,.73.73,0,0,1,.38.11h0a.73.73,0,0,1,.5.8.71.71,0,0,1-.13.32,2.57,2.57,0,0,1,.43,3.18,7.93,7.93,0,0,1-1.28,1.81c.21,1.45.4,2.89.58,4.3.15,1.19.26,2.38.31,3.57.15-.25.29-.5.42-.76l.15-.32c.09-.2.18-.4.26-.61l.14-.37c.09-.24.16-.49.24-.75l.08-.26c.09-.34.17-.7.24-1.08,0-.12,0-.24.06-.37,0-.29.1-.59.14-.91,0-.13,0-.26,0-.39,0-.44.09-.89.13-1.38l0-.23c-.63-3.61-1.61-7.11-2.46-10.7A3.92,3.92,0,0,1,63.56,44.78Z"/><path class="cls-6" d="M63.56,44.78l-.19-.07A33.56,33.56,0,0,1,64.75,49l.39.13a1,1,0,0,1,.46-.21,1.71,1.71,0,0,1,.35,0,.73.73,0,0,1,.38.11h0a.73.73,0,0,1,.5.8.71.71,0,0,1-.13.32,2.57,2.57,0,0,1,.43,3.18,7.93,7.93,0,0,1-1.28,1.81c.21,1.45.4,2.89.58,4.3.15,1.19.26,2.38.31,3.57.15-.25.29-.5.42-.76l.15-.32c.09-.2.18-.4.26-.61l.14-.37c.09-.24.16-.49.24-.75l.08-.26c.09-.34.17-.7.24-1.08,0-.12,0-.24.06-.37,0-.29.1-.59.14-.91,0-.13,0-.26,0-.39,0-.44.09-.89.13-1.38l0-.23c-.63-3.61-1.61-7.11-2.46-10.7A3.92,3.92,0,0,1,63.56,44.78Z"/><path class="cls-5" d="M61,35.44a53.57,53.57,0,0,0-7.79-8.21,49.75,49.75,0,0,1-4.56-4.44,26.17,26.17,0,0,1-3-3.69c1.68,6.81,7.2,11.48,11.84,16.68A13.9,13.9,0,0,1,61,35.44Z"/><path class="cls-6" d="M61,35.44a53.57,53.57,0,0,0-7.79-8.21,49.75,49.75,0,0,1-4.56-4.44,26.17,26.17,0,0,1-3-3.69c1.68,6.81,7.2,11.48,11.84,16.68A13.9,13.9,0,0,1,61,35.44Z"/><path class="cls-5" d="M48,58.5a4.88,4.88,0,0,0,3.4-2.1.15.15,0,0,0-.13-.22c-1.57.17-2.94.89-4.56.45-.89-.24-1.77-.72-2.52.06a.11.11,0,0,0,0,.17C45.55,57.48,46.37,58.61,48,58.5Z"/><path class="cls-6" d="M48,58.5a4.88,4.88,0,0,0,3.4-2.1.15.15,0,0,0-.13-.22c-1.57.17-2.94.89-4.56.45-.89-.24-1.77-.72-2.52.06a.11.11,0,0,0,0,.17C45.55,57.48,46.37,58.61,48,58.5Z"/><path class="cls-5" d="M46.43,95.75c-1.1-.3-2.18-.89-3.11.08a.13.13,0,0,0,0,.2c1.67.77,2.69,2.16,4.67,2a6,6,0,0,0,4.18-2.58A.19.19,0,0,0,52,95.2C50.11,95.41,48.41,96.29,46.43,95.75Z"/><path class="cls-6" d="M46.43,95.75c-1.1-.3-2.18-.89-3.11.08a.13.13,0,0,0,0,.2c1.67.77,2.69,2.16,4.67,2a6,6,0,0,0,4.18-2.58A.19.19,0,0,0,52,95.2C50.11,95.41,48.41,96.29,46.43,95.75Z"/><path class="cls-5" d="M46.41,55.48a2,2,0,0,0,.32.14.73.73,0,0,0,.37,0h.07a.71.71,0,0,0,.68-.63.73.73,0,0,0-.5-.8h0a.73.73,0,0,0-.38-.11,1.71,1.71,0,0,0-.35,0,.85.85,0,0,0-.57.29.59.59,0,0,0-.08.64A.87.87,0,0,0,46.41,55.48Z"/><path class="cls-10" d="M46.41,55.48a2,2,0,0,0,.32.14.73.73,0,0,0,.37,0h.07a.71.71,0,0,0,.68-.63.73.73,0,0,0-.5-.8h0a.73.73,0,0,0-.38-.11,1.71,1.71,0,0,0-.35,0,.85.85,0,0,0-.57.29.59.59,0,0,0-.08.64A.87.87,0,0,0,46.41,55.48Z"/><path class="cls-5" d="M31.34,49.21a.74.74,0,0,0-.29-.19h0a.73.73,0,0,0-.38-.11,1.71,1.71,0,0,0-.35,0,.85.85,0,0,0-.57.29.59.59,0,0,0-.08.64.68.68,0,0,0,.23.28A4.31,4.31,0,0,1,31.34,49.21Z"/><path class="cls-10" d="M31.34,49.21a.74.74,0,0,0-.29-.19h0a.73.73,0,0,0-.38-.11,1.71,1.71,0,0,0-.35,0,.85.85,0,0,0-.57.29.59.59,0,0,0-.08.64.68.68,0,0,0,.23.28A4.31,4.31,0,0,1,31.34,49.21Z"/><path class="cls-5" d="M66.75,50.14a.71.71,0,0,0,.13-.32.73.73,0,0,0-.5-.8h0a.73.73,0,0,0-.38-.11,1.71,1.71,0,0,0-.35,0,1,1,0,0,0-.46.21A4.44,4.44,0,0,1,66.75,50.14Z"/><path class="cls-6" d="M66.75,50.14a.71.71,0,0,0,.13-.32.73.73,0,0,0-.5-.8h0a.73.73,0,0,0-.38-.11,1.71,1.71,0,0,0-.35,0,1,1,0,0,0-.46.21A4.44,4.44,0,0,1,66.75,50.14Z"/><path class="cls-10" d="M66.75,50.14a.71.71,0,0,0,.13-.32.73.73,0,0,0-.5-.8h0a.73.73,0,0,0-.38-.11,1.71,1.71,0,0,0-.35,0,1,1,0,0,0-.46.21A4.44,4.44,0,0,1,66.75,50.14Z"/><path class="cls-3" d="M33.08,36.89c3.72.3,6.73,1.71,8.45,2.06s2.48-1.63.83-2.11c-7.09-2.07-7.81-1.46-11.71-.78C25.38,37,32.08,36.81,33.08,36.89Z"/><path class="cls-5" d="M32.1,44.53c-.12,0-.25,0-.37,0a4.7,4.7,0,0,0,.57.36c-.06-.1-.12-.2-.17-.3A1.09,1.09,0,0,1,32.1,44.53Z"/><path class="cls-6" d="M32.1,44.53c-.12,0-.25,0-.37,0a4.7,4.7,0,0,0,.57.36c-.06-.1-.12-.2-.17-.3A1.09,1.09,0,0,1,32.1,44.53Z"/><path class="cls-5" d="M35.75,41.23a6.2,6.2,0,0,1,5.84,3.54.4.4,0,0,1,0,.19.45.45,0,0,0,.28-.58A4.58,4.58,0,0,0,41,42.72c-1.78-2.92-8.69-5.24-10.73-2.41a2.43,2.43,0,0,0,.11,2.82,10.61,10.61,0,0,0,1.6-.85A8.18,8.18,0,0,1,35.75,41.23Z"/><path class="cls-6" d="M35.75,41.23a6.2,6.2,0,0,1,5.84,3.54.4.4,0,0,1,0,.19.45.45,0,0,0,.28-.58A4.58,4.58,0,0,0,41,42.72c-1.78-2.92-8.69-5.24-10.73-2.41a2.43,2.43,0,0,0,.11,2.82,10.61,10.61,0,0,0,1.6-.85A8.18,8.18,0,0,1,35.75,41.23Z"/><path class="cls-5" d="M41,45,41,45,41,44.9Z"/><path class="cls-6" d="M41,45,41,45,41,44.9Z"/><path class="cls-11" d="M39.23,43.56a2.43,2.43,0,0,1,.22.48,2.16,2.16,0,0,1-.56,2.14,2.35,2.35,0,0,1-.58.44,3.85,3.85,0,0,1-3.86-.37,2.81,2.81,0,0,1-.41-.36,1.6,1.6,0,0,1-.41-1.83l-.59.23a4,4,0,0,1-.94.24,1.09,1.09,0,0,0,0,.11c0,.1.11.2.17.3a4.72,4.72,0,0,0,3.6,2.31c1.6.16,4.09-.47,4.87-1.82A1.67,1.67,0,0,0,41,45V44.9A4.54,4.54,0,0,0,39.23,43.56Z"/><path class="cls-12" d="M34,45.89a2.81,2.81,0,0,0,.41.36,3.85,3.85,0,0,0,3.86.37,2.35,2.35,0,0,0,.58-.44A2.16,2.16,0,0,0,39.45,44a2.43,2.43,0,0,0-.22-.48,4.21,4.21,0,0,0-.93-.27,1.66,1.66,0,0,1,.14.37.41.41,0,0,1,.07.81,1.72,1.72,0,0,1-.37,1.23,1.58,1.58,0,0,1-.39.29,2.59,2.59,0,0,1-2.59-.25,1.17,1.17,0,0,1-.28-.24c-.05-.07-.08-.14-.12-.21a.55.55,0,0,1-.22-.4s0-.05,0-.08a1.51,1.51,0,0,1,.05-1.09l-1,.34A1.6,1.6,0,0,0,34,45.89Z"/><path class="cls-3" d="M34.54,44.82a1.22,1.22,0,0,1,.67-1.11c.16-.06.41-.06.49.12a1.68,1.68,0,0,1,0,1.22.61.61,0,0,1-1,.25c0,.07.07.14.12.21a1.17,1.17,0,0,0,.28.24,2.59,2.59,0,0,0,2.59.25,1.58,1.58,0,0,0,.39-.29,1.72,1.72,0,0,0,.37-1.23l-.08,0a.42.42,0,1,1,0-.83h0a1.66,1.66,0,0,0-.14-.37,7.92,7.92,0,0,0-3.71.44A1.51,1.51,0,0,0,34.54,44.82Z"/><path class="cls-13" d="M28.68,43.18a3.48,3.48,0,0,0,3,1.4c.12,0,.25,0,.37,0a4,4,0,0,0,.94-.24l.59-.23,1-.34a7.92,7.92,0,0,1,3.71-.44,4.21,4.21,0,0,1,.93.27A4.54,4.54,0,0,1,41,44.9L41,45l.07.08c.19.25.52.16.53-.1a.4.4,0,0,0,0-.19,6.2,6.2,0,0,0-5.84-3.54A8.18,8.18,0,0,0,32,42.29a10.61,10.61,0,0,1-1.6.85A1.62,1.62,0,0,1,28.76,43a.1.1,0,0,0-.16.08A1.36,1.36,0,0,1,28.68,43.18Z"/><path class="cls-11" d="M35.73,45a1.68,1.68,0,0,0,0-1.22c-.08-.17-.33-.18-.49-.12a1.22,1.22,0,0,0-.67,1.11s0,.05,0,.08a.55.55,0,0,0,.22.4A.61.61,0,0,0,35.73,45Z"/><path class="cls-11" d="M38.42,44.48l.08,0a.41.41,0,0,0-.07-.81h0A.42.42,0,1,0,38.42,44.48Z"/><path class="cls-7" d="M61.67,111.1c-1.76,0-3.51,0-5.27-.07-7.52-.19-15-.63-22.5-1.51-5.25-.62-13.23.1-12.1,7.56.62,4.13,4.34,6.4,8.14,7.9a42.52,42.52,0,0,0,11.57,4.83A41.49,41.49,0,0,0,59.64,131a15.76,15.76,0,0,1-.91-2.05c0-.13-.61-2-.14-1.48a4.83,4.83,0,0,0,1.19,1,15.84,15.84,0,0,1-.94-2.12c0-.13-.61-2-.14-1.48,3,3.39,5.38-.3,6-3.4a28.37,28.37,0,0,0-1.72-6C62.47,113.92,62,112.48,61.67,111.1Z"/><path class="cls-14" d="M61.67,111.1c-1.76,0-3.51,0-5.27-.07-7.52-.19-15-.63-22.5-1.51-5.25-.62-13.23.1-12.1,7.56.62,4.13,4.34,6.4,8.14,7.9a42.52,42.52,0,0,0,11.57,4.83A41.49,41.49,0,0,0,59.64,131a15.76,15.76,0,0,1-.91-2.05c0-.13-.61-2-.14-1.48a4.83,4.83,0,0,0,1.19,1,15.84,15.84,0,0,1-.94-2.12c0-.13-.61-2-.14-1.48,3,3.39,5.38-.3,6-3.4a28.37,28.37,0,0,0-1.72-6C62.47,113.92,62,112.48,61.67,111.1Z"/><path class="cls-15" d="M20.76,19.46c.42.19.86.38,1.3.55a58.27,58.27,0,0,0,7.41,2.24l-.29.34A32,32,0,0,1,31.4,20.3a37.8,37.8,0,0,0-5.1,10.3l.07-.11.3-.4,0,0a16.63,16.63,0,0,1,1.23-1.47l-.81-.25A41.13,41.13,0,0,1,30,22.39c1.8.4,3.62.72,5.45,1,.86-.46,1.74-.93,2.63-1.44.34-.2.74-.39,1.16-.59,1.7-.81,3.94-1.67,6.09-2.7l.31.47a26.17,26.17,0,0,0,3,3.69A58.46,58.46,0,0,0,58,29.94a67.51,67.51,0,0,1-8.36-6.23,82.28,82.28,0,0,0,17.42-3.28,21,21,0,0,1,5.16,9.45c-1.27-4.47-3.4-8.69-7.43-11.29a9.57,9.57,0,0,1,2.83,1.68,91.67,91.67,0,0,0,10.19-3.81c-.12-.21-.23-.42-.35-.63l-.38-.61q-.54-.88-1.13-1.72l-.45-.64c-.53-.73-1.08-1.45-1.67-2.14S72.78,9.52,72.21,9a25.62,25.62,0,0,0-5-3.85c-.25-.15-.49-.31-.74-.45h0L65.42,4.1A37.78,37.78,0,0,0,55.17.39c-.41-.08-.82-.15-1.24-.21h-.06l-.8-.09H53a11.8,11.8,0,0,0-5.07.51l-.38.14-.05,0-.09,0a7.79,7.79,0,0,0-.89.47c-.2.12-.38.26-.56.39l-.26.2-.11.08c-3.46,2.93-3.51,8.54-2,13A14.6,14.6,0,0,1,42.94,13a9.07,9.07,0,0,1-.66-1.43h0a8.1,8.1,0,0,1-.27-.9v-.08h0A12.8,12.8,0,0,1,42.7,3c-8.52.58-15.63,6.06-20.32,13.12l-.3.48h0a52.2,52.2,0,0,0-2.25,5.15l0,.07q-.32.84-.6,1.69v0c-.14.42-.27.83-.39,1.24A54,54,0,0,1,20.76,19.46Z"/><path class="cls-15" d="M16.63,44.35c0,.35.09.7.14,1.05a121.89,121.89,0,0,0,8.89,31.11C27.42,80.43,29.89,85,32,88.79h0l0,0a14.84,14.84,0,0,0,2.8-4l.31-.63.11-.23h0A25.76,25.76,0,0,1,32,79.17C28.11,73,24.72,66.62,23.11,59.4A50.27,50.27,0,0,1,22,51.79,20.45,20.45,0,0,1,20.13,46c-.34-2.2-.72-5,1.55-6.11a31.82,31.82,0,0,1,3.82-12.12c-.5-.18-1-.34-1.5-.53s-1.22-.47-1.82-.71l-.53-.28L18.8,24.78l-.12.39-.07.24q-.23.77-.42,1.52l0,.08c-.13.51-.25,1-.37,1.52l-.07.34c-.11.5-.21,1-.3,1.48h0c-.18,1-.33,2.05-.45,3.12,0,.25,0,.51-.07.77-.09.86-.16,1.72-.21,2.6,0,.05,0,.11,0,.16C16.53,39.39,16.52,41.84,16.63,44.35Z"/><path class="cls-15" d="M27.34,24.89l-.29.42Z"/><path class="cls-15" d="M26.36,26.33l-.17.28Z"/><path class="cls-15" d="M28.05,24l.38-.49Z"/><path class="cls-3" d="M63,85a7.5,7.5,0,0,1-.65-.46l0,.07c.18.28.36.55.56.82Z"/><path class="cls-4" d="M63,85a7.5,7.5,0,0,1-.65-.46l0,.07c.18.28.36.55.56.82Z"/><path class="cls-6" d="M63,85a7.5,7.5,0,0,1-.65-.46l0,.07c.18.28.36.55.56.82Z"/><path class="cls-5" d="M62.9,85.46c-.2-.27-.38-.54-.56-.82-.27.82-.52,1.65-.73,2.48-1.81,7-2.4,12.66-.78,20.45l1.14-.05A57.42,57.42,0,0,1,62.9,85.46Z"/><path class="cls-6" d="M62.9,85.46c-.2-.27-.38-.54-.56-.82-.27.82-.52,1.65-.73,2.48-1.81,7-2.4,12.66-.78,20.45l1.14-.05A57.42,57.42,0,0,1,62.9,85.46Z"/><path class="cls-5" d="M62,107.52l-1.14.05h0l1.14,0Z"/><path class="cls-16" d="M62,107.52l-1.14.05h0l1.14,0Z"/><path class="cls-7" d="M61.67,111.1h1q-.4-1.78-.68-3.58l-1.14,0Q61.18,109.26,61.67,111.1Z"/><path class="cls-16" d="M61.67,111.1h1q-.4-1.78-.68-3.58l-1.14,0Q61.18,109.26,61.67,111.1Z"/><path class="cls-7" d="M85.69,133.37c0-.9,0-1.75.06-2.54a16.17,16.17,0,0,1-5.45,4.67c-.08.06-.15.14-.23.2a3,3,0,0,1-1,.37,14.64,14.64,0,0,1-4.48,1,15.2,15.2,0,0,1-13.11-5.92l-.28-.41-.2,0c-.44.09-.88.15-1.32.23a21.32,21.32,0,0,0,1.69,2.73,14.81,14.81,0,0,0,9.26,5.67q4.7-.51,9.62-1.3A16.21,16.21,0,0,0,85.69,133.37Z"/><path class="cls-16" d="M85.69,133.37c0-.9,0-1.75.06-2.54a16.17,16.17,0,0,1-5.45,4.67c-.08.06-.15.14-.23.2a3,3,0,0,1-1,.37,14.64,14.64,0,0,1-4.48,1,15.2,15.2,0,0,1-13.11-5.92l-.28-.41-.2,0c-.44.09-.88.15-1.32.23a21.32,21.32,0,0,0,1.69,2.73,14.81,14.81,0,0,0,9.26,5.67q4.7-.51,9.62-1.3A16.21,16.21,0,0,0,85.69,133.37Z"/><path class="cls-7" d="M91.52,118.65a50.13,50.13,0,0,0,.78-8.12c-.06.81-.11,1.63-.21,2.44v0h0c-.12,1-.27,2-.45,3.05a38.27,38.27,0,0,1-4.51,12.78q.1,1,.22,2A39.1,39.1,0,0,0,91.52,118.65Z"/><path class="cls-16" d="M91.52,118.65a50.13,50.13,0,0,0,.78-8.12c-.06.81-.11,1.63-.21,2.44v0h0c-.12,1-.27,2-.45,3.05a38.27,38.27,0,0,1-4.51,12.78q.1,1,.22,2A39.1,39.1,0,0,0,91.52,118.65Z"/><path class="cls-9" d="M85.69,133.37a23,23,0,0,0,1.65-2.49q-.12-1-.22-2a22.46,22.46,0,0,1-1.37,2C85.71,131.62,85.69,132.47,85.69,133.37Z"/><path class="cls-16" d="M85.69,133.37a23,23,0,0,0,1.65-2.49q-.12-1-.22-2a22.46,22.46,0,0,1-1.37,2C85.71,131.62,85.69,132.47,85.69,133.37Z"/><path class="cls-7" d="M61.67,111.1c.37,1.38.8,2.82,1.3,4.36a28.37,28.37,0,0,1,1.72,6,8.42,8.42,0,0,0,.13-.89c.24-2.85-1-5.07-1.74-7.7q-.23-.87-.43-1.76Z"/><path class="cls-14" d="M61.67,111.1c.37,1.38.8,2.82,1.3,4.36a28.37,28.37,0,0,1,1.72,6,8.42,8.42,0,0,0,.13-.89c.24-2.85-1-5.07-1.74-7.7q-.23-.87-.43-1.76Z"/><path class="cls-16" d="M61.67,111.1c.37,1.38.8,2.82,1.3,4.36a28.37,28.37,0,0,1,1.72,6,8.42,8.42,0,0,0,.13-.89c.24-2.85-1-5.07-1.74-7.7q-.23-.87-.43-1.76Z"/><path class="cls-7" d="M58.74,128.93a15.76,15.76,0,0,0,.91,2.05c.44-.07.88-.14,1.32-.23l.2,0a20.9,20.9,0,0,1-1.37-2.25,4.83,4.83,0,0,1-1.19-1C58.13,126.93,58.69,128.8,58.74,128.93Z"/><path class="cls-14" d="M58.74,128.93a15.76,15.76,0,0,0,.91,2.05c.44-.07.88-.14,1.32-.23l.2,0a20.9,20.9,0,0,1-1.37-2.25,4.83,4.83,0,0,1-1.19-1C58.13,126.93,58.69,128.8,58.74,128.93Z"/><path class="cls-16" d="M58.74,128.93a15.76,15.76,0,0,0,.91,2.05c.44-.07.88-.14,1.32-.23l.2,0a20.9,20.9,0,0,1-1.37-2.25,4.83,4.83,0,0,1-1.19-1C58.13,126.93,58.69,128.8,58.74,128.93Z"/><path class="cls-3" d="M21.76,39.84a4.09,4.09,0,0,1,3.54.09,5.37,5.37,0,0,1,1.16.8c-.06-2.53-.06-4.78,0-6.79l0,.06c0-.9.09-1.75.15-2.56q0-.7.1-1.35l-.3.4-.07.11a37.8,37.8,0,0,1,5.1-10.3,32,32,0,0,0-2.23,2.31c-.25.29-.5.57-.74.86l-.38.49c-.24.31-.49.62-.71.94l-.29.42c-.24.34-.47.68-.69,1l-.17.28c-.24.39-.48.77-.69,1.16h0a31.81,31.81,0,0,0-3.82,12.12Z"/><path class="cls-5" d="M26.26,55a2.71,2.71,0,0,1-.48,0A2.74,2.74,0,0,0,26.26,55Z"/><path class="cls-5" d="M24.35,54.57a3.67,3.67,0,0,1-.36-.24A3.67,3.67,0,0,0,24.35,54.57Z"/><path class="cls-5" d="M23.31,53.7q-.17-.19-.33-.4C23.08,53.44,23.19,53.57,23.31,53.7Z"/><path class="cls-5" d="M25.08,54.89a2.76,2.76,0,0,1-.56-.22,2.77,2.77,0,0,0,.56.22,3.88,3.88,0,0,0,.6.11A3.74,3.74,0,0,1,25.08,54.89Z"/><path class="cls-5" d="M22.85,53.14q-.21-.28-.4-.59Q22.65,52.86,22.85,53.14Z"/><path class="cls-5" d="M22.43,52.51a15.07,15.07,0,0,1-1.14-2.33,8.15,8.15,0,0,0,2.92,2.07,5.61,5.61,0,0,0,2.88.42c0,.79.06,1.77.09,2a2.14,2.14,0,0,1-.9.32,2.11,2.11,0,0,0,.85-.28l.07,1.09c.3,4.34,1.19,6.7,3.35,9.15a60.17,60.17,0,0,0,6.21,5.61l0,0c1.45,1.21,3.09,2.58,5,4.23a9.28,9.28,0,0,0,12.33,0c2.26-2,4.16-3.54,5.79-4.91h0c3.4-2.84,5.55-4.72,6.88-6.91,0-1.19-.15-2.38-.31-3.57-.18-1.41-.37-2.85-.58-4.3a8.35,8.35,0,0,1-4.78,2.71A5.7,5.7,0,0,1,59,57.59c-2.78-.31-4.56-3-3.19-5.54,1.27-2.36,4.88-3.33,7.4-3.26a6.15,6.15,0,0,1,1.53.24,33.56,33.56,0,0,0-1.38-4.33c-3-1.18-5.38-1.53-7.2.12l0,.06a.79.79,0,0,1-.27.25c-.12.13-.24.27-.36.42-.23.31-.68.11-.49-.3l.07-.13a.67.67,0,0,1-.29-1c1.29-1.88,2.61-3.34,4.91-3.86L60.87,40c-.58-.85-1.21-1.67-1.87-2.48-2.06.53-3.74,1.21-4.86,1.43-1.66.34-2.48-1.63-.83-2.11s3.07-.85,4.18-1.07c-4.65-5.2-10.17-9.87-11.84-16.68l-.31-.47c-2.15,1-4.38,1.89-6.09,2.7A43.26,43.26,0,0,0,26.47,33.94c-.06,2-.06,4.27,0,6.79a5.37,5.37,0,0,0-1.16-.8,4.09,4.09,0,0,0-3.54-.09l-.09,0C19.41,41,19.79,43.81,20.13,46A20.45,20.45,0,0,0,22,51.79C22.15,52,22.29,52.28,22.43,52.51Zm13.07,5.33a8.69,8.69,0,0,1-6.06-4.51,2.57,2.57,0,0,1,.4-3.16.68.68,0,0,1-.23-.28.59.59,0,0,1,.08-.64.85.85,0,0,1,.57-.29,1.71,1.71,0,0,1,.35,0A.73.73,0,0,1,31,49h0a.74.74,0,0,1,.29.19,6.1,6.1,0,0,1,2.07-.43c2.52-.07,6.13.9,7.4,3.26,1.37,2.54-.41,5.23-3.19,5.54A5.7,5.7,0,0,1,35.51,57.84ZM48.26,74.37a4.06,4.06,0,0,1-3-.45A1.53,1.53,0,0,1,45,71.57a3.3,3.3,0,0,1,2.33-.79,7.4,7.4,0,0,1,3.23.24,1.37,1.37,0,0,1,.76,1C51.64,73.69,49.45,74.23,48.26,74.37Zm6.48-12.91a12.69,12.69,0,0,0,3.84-.71l-.12-.13c-.23-.28.1-.68.42-.61.57.13,1.13.82.84,1.4a.44.44,0,0,1-.68.13,1.14,1.14,0,0,1-.24-.44l0,0h0a58.71,58.71,0,0,0-4,4.79A16.74,16.74,0,0,1,51.24,69a6.3,6.3,0,0,1-4.87.41,16.74,16.74,0,0,1-4-2.43c-.28-.2-3.51-3.26-4.65-4a.88.88,0,0,1-.14.34.44.44,0,0,1-.69,0c-.38-.52.06-1.29.59-1.52.3-.12.69.22.51.53l-.11.18a11.55,11.55,0,0,0,3.71,0c1.28-.3,2.49-.87,3.77-1.18a3.71,3.71,0,0,1,2.77.6,3.71,3.71,0,0,1,2.63-1.06C52.14,61,53.42,61.38,54.74,61.46ZM46,54.41a.85.85,0,0,1,.57-.29,1.71,1.71,0,0,1,.35,0,.73.73,0,0,1,.38.11h0a.73.73,0,0,1,.5.8.71.71,0,0,1-.68.63h-.07a.73.73,0,0,1-.37,0,2,2,0,0,1-.32-.14.87.87,0,0,1-.48-.43A.59.59,0,0,1,46,54.41Zm-1.85,2.28c.76-.79,1.63-.31,2.52-.06,1.61.44,3-.28,4.56-.45a.15.15,0,0,1,.13.22A4.88,4.88,0,0,1,48,58.5c-1.61.1-2.43-1-3.79-1.65A.11.11,0,0,1,44.16,56.69ZM30.65,36.07c3.9-.68,4.62-1.29,11.71.78,1.65.48.83,2.44-.83,2.11s-4.73-1.76-8.45-2.06C32.08,36.81,25.38,37,30.65,36.07ZM28.76,43a1.62,1.62,0,0,0,1.61.18,2.43,2.43,0,0,1-.11-2.82c2-2.83,8.94-.51,10.73,2.41a4.58,4.58,0,0,1,.93,1.66.45.45,0,0,1-.28.58c0,.26-.34.35-.53.1L41,45,41,45a1.67,1.67,0,0,1-.18.46c-.78,1.34-3.28,2-4.87,1.82a4.72,4.72,0,0,1-3.6-2.31,4.7,4.7,0,0,1-.57-.36,3.48,3.48,0,0,1-3-1.4A1.36,1.36,0,0,0,28.6,43,.1.1,0,0,1,28.76,43Zm-6.86-.79a2,2,0,0,1,2.8.74,6.48,6.48,0,0,1,1.16,3.22,4.1,4.1,0,0,1-1,3.15c-.07.1-.23,0-.22-.11a9.86,9.86,0,0,0-.38-3.31,4.34,4.34,0,0,0-.79-1.34c0,.16,0,.31,0,.47a1.21,1.21,0,0,1-2.28.72A2.77,2.77,0,0,1,21.9,42.17Z"/><path class="cls-5" d="M23.8,54.18c-.11-.1-.22-.2-.33-.31Z"/><path class="cls-3" d="M26.29,55h0Z"/><path class="cls-6" d="M26.29,55h0Z"/><path class="cls-3" d="M25.78,55h0Z"/><path class="cls-6" d="M25.78,55h0Z"/><path class="cls-3" d="M24.52,54.67l-.17-.1Z"/><path class="cls-6" d="M24.52,54.67l-.17-.1Z"/><path class="cls-3" d="M24,54.33l-.18-.15Z"/><path class="cls-6" d="M24,54.33l-.18-.15Z"/><path class="cls-3" d="M23.47,53.87l-.16-.17Z"/><path class="cls-6" d="M23.47,53.87l-.16-.17Z"/><path class="cls-3" d="M22.46,52.55l0,0Z"/><path class="cls-6" d="M22.46,52.55l0,0Z"/><path class="cls-3" d="M23,53.3l-.12-.16Z"/><path class="cls-6" d="M23,53.3l-.12-.16Z"/><path class="cls-5" d="M27.18,54.67c0-.23-.07-1.21-.09-2a5.61,5.61,0,0,1-2.88-.42,8.15,8.15,0,0,1-2.92-2.07,15.07,15.07,0,0,0,1.14,2.33l0,0q.19.31.4.59l.12.16q.16.21.33.4l.16.17c.11.11.22.21.33.31l.18.15a3.67,3.67,0,0,0,.36.24l.17.1a2.76,2.76,0,0,0,.56.22,3.74,3.74,0,0,0,.6.11h.1a2.71,2.71,0,0,0,.48,0h0A2.14,2.14,0,0,0,27.18,54.67Z"/><path class="cls-6" d="M27.18,54.67c0-.23-.07-1.21-.09-2a5.61,5.61,0,0,1-2.88-.42,8.15,8.15,0,0,1-2.92-2.07,15.07,15.07,0,0,0,1.14,2.33l0,0q.19.31.4.59l.12.16q.16.21.33.4l.16.17c.11.11.22.21.33.31l.18.15a3.67,3.67,0,0,0,.36.24l.17.1a2.76,2.76,0,0,0,.56.22,3.74,3.74,0,0,0,.6.11h.1a2.71,2.71,0,0,0,.48,0h0A2.14,2.14,0,0,0,27.18,54.67Z"/><path class="cls-5" d="M23.53,45c0-.16,0-.31,0-.47a4.34,4.34,0,0,1,.79,1.34,9.86,9.86,0,0,1,.38,3.31c0,.13.15.2.22.11a4.1,4.1,0,0,0,1-3.15,6.48,6.48,0,0,0-1.16-3.22,2,2,0,0,0-2.8-.74,2.77,2.77,0,0,0-.65,3.54A1.21,1.21,0,0,0,23.53,45Z"/><path class="cls-6" d="M23.53,45c0-.16,0-.31,0-.47a4.34,4.34,0,0,1,.79,1.34,9.86,9.86,0,0,1,.38,3.31c0,.13.15.2.22.11a4.1,4.1,0,0,0,1-3.15,6.48,6.48,0,0,0-1.16-3.22,2,2,0,0,0-2.8-.74,2.77,2.77,0,0,0-.65,3.54A1.21,1.21,0,0,0,23.53,45Z"/><path class="cls-5" d="M40.81,52c-1.27-2.36-4.88-3.33-7.4-3.26a6.1,6.1,0,0,0-2.07.43.72.72,0,0,1,.21.61.71.71,0,0,1-.68.63H30.8a.73.73,0,0,1-.37,0,2,2,0,0,1-.32-.14,1.42,1.42,0,0,1-.25-.15,2.57,2.57,0,0,0-.4,3.16,8.69,8.69,0,0,0,6.06,4.51,5.7,5.7,0,0,0,2.11-.25C40.4,57.28,42.18,54.59,40.81,52Z"/><path class="cls-17" d="M40.81,52c-1.27-2.36-4.88-3.33-7.4-3.26a6.1,6.1,0,0,0-2.07.43.72.72,0,0,1,.21.61.71.71,0,0,1-.68.63H30.8a.73.73,0,0,1-.37,0,2,2,0,0,1-.32-.14,1.42,1.42,0,0,1-.25-.15,2.57,2.57,0,0,0-.4,3.16,8.69,8.69,0,0,0,6.06,4.51,5.7,5.7,0,0,0,2.11-.25C40.4,57.28,42.18,54.59,40.81,52Z"/><path class="cls-5" d="M30.42,50.45a.73.73,0,0,0,.37,0h.07a.71.71,0,0,0,.68-.63.72.72,0,0,0-.21-.61,4.31,4.31,0,0,0-1.49,1,1.42,1.42,0,0,0,.25.15A2,2,0,0,0,30.42,50.45Z"/><path class="cls-10" d="M30.42,50.45a.73.73,0,0,0,.37,0h.07a.71.71,0,0,0,.68-.63.72.72,0,0,0-.21-.61,4.31,4.31,0,0,0-1.49,1,1.42,1.42,0,0,0,.25.15A2,2,0,0,0,30.42,50.45Z"/><path class="cls-17" d="M30.42,50.45a.73.73,0,0,0,.37,0h.07a.71.71,0,0,0,.68-.63.72.72,0,0,0-.21-.61,4.31,4.31,0,0,0-1.49,1,1.42,1.42,0,0,0,.25.15A2,2,0,0,0,30.42,50.45Z"/><path class="cls-5" d="M55.85,45.13a.79.79,0,0,0,.27-.25l0-.06C56.06,44.92,56,45,55.85,45.13Z"/><path class="cls-6" d="M55.85,45.13a.79.79,0,0,0,.27-.25l0-.06C56.06,44.92,56,45,55.85,45.13Z"/><path class="cls-5" d="M60.17,41.75l.53-.15a.91.91,0,0,0,0,.13h.11a7.74,7.74,0,0,1,1.18.13q-.54-1-1.16-1.85l-1.17.25c-2.3.52-3.62,2-4.91,3.86a.67.67,0,0,0,.29,1A6.15,6.15,0,0,1,60.17,41.75Z"/><path class="cls-6" d="M60.17,41.75l.53-.15a.91.91,0,0,0,0,.13h.11a7.74,7.74,0,0,1,1.18.13q-.54-1-1.16-1.85l-1.17.25c-2.3.52-3.62,2-4.91,3.86a.67.67,0,0,0,.29,1A6.15,6.15,0,0,1,60.17,41.75Z"/><path class="cls-5" d="M60.87,40q.62.9,1.16,1.85a8.33,8.33,0,0,1,2.6.93c.41.23.85.52,1.31.73l0-.14C65.33,42.18,64.68,41,64,39.77A11.08,11.08,0,0,0,60.87,40Z"/><path class="cls-6" d="M60.87,40q.62.9,1.16,1.85a8.33,8.33,0,0,1,2.6.93c.41.23.85.52,1.31.73l0-.14C65.33,42.18,64.68,41,64,39.77A11.08,11.08,0,0,0,60.87,40Z"/><path class="cls-6" d="M60.87,40q.62.9,1.16,1.85a8.33,8.33,0,0,1,2.6.93c.41.23.85.52,1.31.73l0-.14C65.33,42.18,64.68,41,64,39.77A11.08,11.08,0,0,0,60.87,40Z"/><path class="cls-13" d="M62,41.85a7.74,7.74,0,0,0-1.18-.13h-.11l-.57,0a6.15,6.15,0,0,0-5.09,3.38l-.07.13c-.19.41.26.6.49.3.12-.15.24-.29.36-.42s.21-.21.32-.31c1.81-1.65,4.2-1.3,7.2-.12l.19.07a3.92,3.92,0,0,0,2.69.1c-.11-.46-.22-.91-.32-1.37-.46-.21-.91-.5-1.31-.73A8.33,8.33,0,0,0,62,41.85Z"/><path class="cls-5" d="M63.22,48.79c-2.52-.07-6.13.9-7.4,3.26-1.37,2.54.41,5.23,3.19,5.54a5.7,5.7,0,0,0,2.11.25,8.35,8.35,0,0,0,4.78-2.71c-.3-2-.66-4.1-1.16-6.1A6.15,6.15,0,0,0,63.22,48.79Z"/><path class="cls-17" d="M63.22,48.79c-2.52-.07-6.13.9-7.4,3.26-1.37,2.54.41,5.23,3.19,5.54a5.7,5.7,0,0,0,2.11.25,8.35,8.35,0,0,0,4.78-2.71c-.3-2-.66-4.1-1.16-6.1A6.15,6.15,0,0,0,63.22,48.79Z"/><path class="cls-5" d="M66.75,50.14a.72.72,0,0,1-.55.31h-.07a.73.73,0,0,1-.37,0,2,2,0,0,1-.32-.14.87.87,0,0,1-.48-.43.59.59,0,0,1,.08-.64.56.56,0,0,1,.11-.09L64.75,49c.5,2,.86,4.06,1.16,6.1a7.93,7.93,0,0,0,1.28-1.81A2.57,2.57,0,0,0,66.75,50.14Z"/><path class="cls-6" d="M66.75,50.14a.72.72,0,0,1-.55.31h-.07a.73.73,0,0,1-.37,0,2,2,0,0,1-.32-.14.87.87,0,0,1-.48-.43.59.59,0,0,1,.08-.64.56.56,0,0,1,.11-.09L64.75,49c.5,2,.86,4.06,1.16,6.1a7.93,7.93,0,0,0,1.28-1.81A2.57,2.57,0,0,0,66.75,50.14Z"/><path class="cls-17" d="M66.75,50.14a.72.72,0,0,1-.55.31h-.07a.73.73,0,0,1-.37,0,2,2,0,0,1-.32-.14.87.87,0,0,1-.48-.43.59.59,0,0,1,.08-.64.56.56,0,0,1,.11-.09L64.75,49c.5,2,.86,4.06,1.16,6.1a7.93,7.93,0,0,0,1.28-1.81A2.57,2.57,0,0,0,66.75,50.14Z"/><path class="cls-5" d="M65,49.89a.87.87,0,0,0,.48.43,2,2,0,0,0,.32.14.73.73,0,0,0,.37,0h.07a.72.72,0,0,0,.55-.31,4.44,4.44,0,0,0-1.61-1,.56.56,0,0,0-.11.09A.59.59,0,0,0,65,49.89Z"/><path class="cls-6" d="M65,49.89a.87.87,0,0,0,.48.43,2,2,0,0,0,.32.14.73.73,0,0,0,.37,0h.07a.72.72,0,0,0,.55-.31,4.44,4.44,0,0,0-1.61-1,.56.56,0,0,0-.11.09A.59.59,0,0,0,65,49.89Z"/><path class="cls-10" d="M65,49.89a.87.87,0,0,0,.48.43,2,2,0,0,0,.32.14.73.73,0,0,0,.37,0h.07a.72.72,0,0,0,.55-.31,4.44,4.44,0,0,0-1.61-1,.56.56,0,0,0-.11.09A.59.59,0,0,0,65,49.89Z"/><path class="cls-17" d="M65,49.89a.87.87,0,0,0,.48.43,2,2,0,0,0,.32.14.73.73,0,0,0,.37,0h.07a.72.72,0,0,0,.55-.31,4.44,4.44,0,0,0-1.61-1,.56.56,0,0,0-.11.09A.59.59,0,0,0,65,49.89Z"/><path class="cls-3" d="M47.51.72l.38-.14Z"/><path class="cls-3" d="M45.66,1.84l.26-.2Z"/><path class="cls-3" d="M46.48,1.25a7.79,7.79,0,0,1,.89-.47A7.16,7.16,0,0,0,46.48,1.25Z"/><path class="cls-3" d="M65.42,4.1l1.07.56Z"/><path class="cls-3" d="M79.28,19.23c.24.5.48,1,.7,1.5-.36-.83-.74-1.65-1.15-2.46.07.15.14.3.21.45Z"/><path class="cls-3" d="M82,26.31h0c.33,1.05.63,2.12.91,3.19-.48-1.88-1-3.75-1.69-5.57.28.78.54,1.58.79,2.38Z"/><path class="cls-3" d="M80.23,21.32q.46,1.09.87,2.21Q80.69,22.41,80.23,21.32Z"/><path class="cls-3" d="M53,.07h0Z"/><path class="cls-3" d="M90,97.25a82,82,0,0,1,2.45,9.4,50.63,50.63,0,0,1-.34,6.31c.1-.81.15-1.62.21-2.44a50.93,50.93,0,0,0,0-7.33v0a51.82,51.82,0,0,0-1.12-7.46,52.24,52.24,0,0,0-1.95-6.61c-1-2.77-2.1-5.55-2.93-8.39C86,86.5,88.21,91.78,90,97.25Z"/><path class="cls-3" d="M82.72,79.58A38.67,38.67,0,0,0,81,87.77c-.61,7,1.48,13.77,3.22,20.49,1.89,7.26,2.9,15.37-.41,22.33q-.31.65-.67,1.28a12.05,12.05,0,0,1-2.81,3.63,16.17,16.17,0,0,0,5.45-4.67,22.46,22.46,0,0,0,1.37-2,38.27,38.27,0,0,0,4.51-12.78c.18-1,.33-2,.45-3.05a46.52,46.52,0,0,0-1.65-5.88C89,103,87.17,99.07,86.11,94.9c1,4.81,2.78,9.55,3.8,14.51a28.55,28.55,0,0,1-1.75,16.95,13.06,13.06,0,0,1-4.35,5.17,18.3,18.3,0,0,0,3.4-11.25c-.08-5-1.64-9.77-2.78-14.59-1.67-7-1-12.84.82-19.37,0,.07,0,.14,0,.21a32.28,32.28,0,0,1,.93-6.24,37.27,37.27,0,0,1-.95-4.14,23.77,23.77,0,0,1-.29-3.24l-.21.62A33.91,33.91,0,0,0,82.72,79.58Z"/><path class="cls-3" d="M83.6,33.4C85,44.17,83.16,54.67,80.06,65c-2.82,9.38-6.8,18.4-7.07,28.34a40.59,40.59,0,0,0,1.88,13.46c2.22,6.93,5.44,13.65,1,20.51-2.38,3.69-7.07,7.35-11.36,4.25a6.62,6.62,0,0,1-2-2.13,4.26,4.26,0,0,0,2.61.52,3.38,3.38,0,0,0,2-1.48c2.89-4.18,2.11-9.25.3-13.69-2.27-5.56-4-10.83-3.75-16.94.27-5.79,2.3-11.4,4-16.88,1.12-3.6,2.31-7.18,3.56-10.74a1.8,1.8,0,0,0,.17-.47q1-2.85,2-5.68a61.87,61.87,0,0,0,3.73-15.61c.58-6.28.13-13-2.41-18.84-.06-.14-.13-.26-.19-.4h0q-.39-.86-.81-1.63h0a22.65,22.65,0,0,0-6.12-7.31h0a9.57,9.57,0,0,0-2.83-1.68c4,2.6,6.17,6.82,7.43,11.29h0c.35,1.24.64,2.49.88,3.74a59.52,59.52,0,0,1,0,20.93c-.36,2.18-.82,4.33-1.36,6.46.67-2.68-.2-6.72-.63-9.42a35.71,35.71,0,0,0-2.58-8.93A30.37,30.37,0,0,0,60.71,32h0q-.63-.54-1.28-1.05c-.46-.36-.93-.71-1.42-1a58.46,58.46,0,0,1-9.32-7.15,49.75,49.75,0,0,0,4.56,4.44A53.57,53.57,0,0,1,61,35.44a13.9,13.9,0,0,0-3.54.33c-1.11.22-2.45.57-4.18,1.07s-.83,2.44.83,2.11c1.12-.23,2.8-.9,4.86-1.43a22,22,0,0,1,3.13-.57q1,1.42,1.83,2.83c.72,1.21,1.37,2.41,1.94,3.59l0,.14c.1.46.21.91.32,1.37.85,3.59,1.83,7.09,2.46,10.7a38.43,38.43,0,0,1,.63,7c-.06,7.77-4.31,14.62-6.21,22,0,.17-.08.34-.12.51l-.1.43A57.42,57.42,0,0,0,62,107.52h0q.28,1.8.68,3.58.2.88.43,1.76c.7,2.64,2,4.85,1.74,7.7a8.42,8.42,0,0,1-.13.89c-.6,3.1-3,6.79-6,3.4-.47-.53.09,1.35.14,1.48a15.84,15.84,0,0,0,.94,2.12,20.9,20.9,0,0,0,1.37,2.25l.28.41A15.2,15.2,0,0,0,74.54,137a14.64,14.64,0,0,0,4.48-1c-1.21.26-2.87.3-3.12.55a16.3,16.3,0,0,0,3-4c2.5-4.85,2.27-10.63,1.63-15.9a45.55,45.55,0,0,0-.84-8.38c-.08-.4-.16-.8-.24-1.19-1.48-4.62-3-9.26-3.27-14.17-.81-12.47,4-24.81,7.4-36.6.67-2.32,1.39-4.71,2-7.13.25,7.11.33,14.08-1.24,21.19.24-.59.49-1.19.72-1.78h0c.18-2.18.45-4.36.57-6.59a118.84,118.84,0,0,0-.3-17.92A95.89,95.89,0,0,0,83,29.83q.35,1.39.65,2.8A1.65,1.65,0,0,0,83.6,33.4Z"/><path class="cls-3" d="M77.84,16.45c.11.19.2.38.3.57.22.4.46.79.67,1.2-.42-.82-.86-1.61-1.33-2.4.12.21.23.42.35.63Z"/><path class="cls-3" d="M67.23,5.11a25.62,25.62,0,0,1,5,3.85A25.62,25.62,0,0,0,67.23,5.11Z"/><path class="cls-3" d="M73.84,10.72c.59.69,1.14,1.41,1.67,2.14C75,12.12,74.43,11.41,73.84,10.72Z"/><path class="cls-3" d="M53.87.17h0Z"/><path class="cls-3" d="M53.93.18c.41.06.83.13,1.24.21C54.75.31,54.34.23,53.93.18Z"/><path class="cls-3" d="M76,13.49q.59.85,1.13,1.72Q76.56,14.34,76,13.49Z"/><path class="cls-3" d="M85.22,87.83q0-.08,0-.16C85.23,87.73,85.22,87.78,85.22,87.83Z"/><path class="cls-3" d="M77.77,98.35c-.07-.83-.12-1.67-.15-2.51A45.83,45.83,0,0,1,78.84,83.7a94.86,94.86,0,0,1,4-9.62c.54-1.2,1.06-2.41,1.55-3.62,1.58-7.11,1.49-14.07,1.24-21.19-.64,2.42-1.36,4.8-2,7.13-3.42,11.79-8.21,24.12-7.4,36.6.32,4.91,1.8,9.54,3.27,14.17C78.87,104.23,78.2,101.3,77.77,98.35Z"/><path class="cls-18" d="M77.77,98.35c-.07-.83-.12-1.67-.15-2.51A45.83,45.83,0,0,1,78.84,83.7a94.86,94.86,0,0,1,4-9.62c.54-1.2,1.06-2.41,1.55-3.62,1.58-7.11,1.49-14.07,1.24-21.19-.64,2.42-1.36,4.8-2,7.13-3.42,11.79-8.21,24.12-7.4,36.6.32,4.91,1.8,9.54,3.27,14.17C78.87,104.23,78.2,101.3,77.77,98.35Z"/><path class="cls-3" d="M85.21,88.84c0-.33,0-.67,0-1,0-.05,0-.11,0-.16,0-.38,0-.75,0-1.13,0-.07,0-.14,0-.21-1.85,6.52-2.49,12.32-.82,19.37,1.15,4.82,2.7,9.59,2.78,14.59a18.3,18.3,0,0,1-3.4,11.25,13.06,13.06,0,0,0,4.35-5.17,28.55,28.55,0,0,0,1.75-16.95c-1-5-2.75-9.71-3.8-14.51A27,27,0,0,1,85.21,88.84Z"/><path class="cls-18" d="M85.21,88.84c0-.33,0-.67,0-1,0-.05,0-.11,0-.16,0-.38,0-.75,0-1.13,0-.07,0-.14,0-.21-1.85,6.52-2.49,12.32-.82,19.37,1.15,4.82,2.7,9.59,2.78,14.59a18.3,18.3,0,0,1-3.4,11.25,13.06,13.06,0,0,0,4.35-5.17,28.55,28.55,0,0,0,1.75-16.95c-1-5-2.75-9.71-3.8-14.51A27,27,0,0,1,85.21,88.84Z"/><path class="cls-15" d="M85.23,87.67q0,.08,0,.16c0,.33,0,.67,0,1a27,27,0,0,0,.89,6.06c1.07,4.16,2.88,8.13,4.33,12.22A46.52,46.52,0,0,1,92.08,113h0v0a50.63,50.63,0,0,0,.34-6.31A82,82,0,0,0,90,97.25C88.21,91.78,86,86.5,86.29,80.72v0l-.12-.38h0a32.28,32.28,0,0,0-.93,6.24C85.23,86.92,85.23,87.3,85.23,87.67Z"/><path class="cls-15" d="M84.37,70.46c-.5,1.21-1,2.42-1.55,3.62a94.86,94.86,0,0,0-4,9.62,45.83,45.83,0,0,0-1.23,12.14c0,.84.08,1.68.15,2.51.43,3,1.1,5.88,1.69,8.82.08.4.16.79.24,1.19a45.55,45.55,0,0,1,.84,8.38c.65,5.27.87,11-1.63,15.9a16.3,16.3,0,0,1-3,4c.24-.25,1.91-.29,3.12-.55a3,3,0,0,0,1-.37c.08-.06.15-.14.23-.2a12.05,12.05,0,0,0,2.81-3.63q.36-.63.67-1.28c3.31-7,2.3-15.07.41-22.33-1.74-6.71-3.83-13.47-3.22-20.49a38.67,38.67,0,0,1,1.76-8.19,33.91,33.91,0,0,1,2-6l.21-.62h0a40.43,40.43,0,0,1,.14-4.26h0C84.86,69.27,84.61,69.87,84.37,70.46Z"/><path class="cls-15" d="M73.75,27.59h0Z"/><path class="cls-15" d="M80.19,27.23l-.24.12c-1,.38-2,.74-2.94,1.08-.81.28-1.63.54-2.45.79.06.14.13.26.19.4,2.54,5.83,3,12.56,2.41,18.84a61.87,61.87,0,0,1-3.73,15.61q-1,2.83-2,5.68a1.8,1.8,0,0,1-.17.47C70,73.78,68.79,77.36,67.67,81c-1.71,5.49-3.73,11.1-4,16.88-.29,6.11,1.48,11.38,3.75,16.94,1.81,4.44,2.59,9.5-.3,13.69a3.38,3.38,0,0,1-2,1.48,4.26,4.26,0,0,1-2.61-.52,6.62,6.62,0,0,0,2,2.13c4.29,3.1,9-.56,11.36-4.25,4.43-6.87,1.21-13.58-1-20.51A40.59,40.59,0,0,1,73,93.33c.27-9.94,4.25-19,7.07-28.34C83.16,54.67,85,44.17,83.6,33.4a1.65,1.65,0,0,1,.07-.77q-.3-1.4-.65-2.8l-.08-.33c-.27-1.07-.58-2.13-.91-3.19Z"/><path class="cls-15" d="M79,18.73c-.07-.15-.14-.3-.21-.45l0-.06c-.21-.41-.45-.8-.67-1.2C78.45,17.58,78.76,18.15,79,18.73Z"/><path class="cls-15" d="M82,26.31c-.25-.8-.51-1.59-.79-2.38l-.15-.4q-.41-1.12-.87-2.21L80,20.73c-.22-.51-.46-1-.7-1.5A52.47,52.47,0,0,1,82,26.31Z"/><path class="cls-15" d="M65.9,31.34l-1.81.31c1.18-.21-1.19.18-1.71.23L60.71,32a30.37,30.37,0,0,1,7.87,10.63,35.71,35.71,0,0,1,2.58,8.93c.43,2.7,1.3,6.74.63,9.42.54-2.13,1-4.29,1.36-6.46a59.52,59.52,0,0,0,0-20.93c-.24-1.25-.53-2.5-.88-3.74C70.15,30.45,68,30.94,65.9,31.34Z"/><path class="cls-15" d="M58,29.94c.49.33,1,.68,1.42,1C59,30.62,58.5,30.27,58,29.94Z"/><path class="cls-9" d="M14.4,123.19a93.62,93.62,0,0,1-1.27,13l2.29.51C15.87,128.1,14.4,123.19,14.4,123.19Z"/><polygon class="cls-3" points="72.24 29.88 72.24 29.88 72.24 29.88 72.24 29.88"/><polygon class="cls-19" points="72.24 29.88 72.24 29.88 72.24 29.88 72.24 29.88"/><path class="cls-3" d="M60.71,32h0c-.42-.36-.84-.72-1.28-1.05Q60.09,31.49,60.71,32Z"/><path class="cls-19" d="M60.71,32h0c-.42-.36-.84-.72-1.28-1.05Q60.09,31.49,60.71,32Z"/><path class="cls-15" d="M60.71,32l1.67-.14c.52-.05,2.89-.44,1.71-.23l1.81-.31c2.13-.4,4.24-.89,6.33-1.46h0a21,21,0,0,0-5.16-9.45,82.28,82.28,0,0,1-17.42,3.28A67.51,67.51,0,0,0,58,29.94c.49.33,1,.68,1.42,1S60.3,31.67,60.71,32Z"/><path class="cls-19" d="M60.71,32l1.67-.14c.52-.05,2.89-.44,1.71-.23l1.81-.31c2.13-.4,4.24-.89,6.33-1.46h0a21,21,0,0,0-5.16-9.45,82.28,82.28,0,0,1-17.42,3.28A67.51,67.51,0,0,0,58,29.94c.49.33,1,.68,1.42,1S60.3,31.67,60.71,32Z"/><path class="cls-3" d="M77.84,16.45h0l.31.56C78,16.83,77.94,16.64,77.84,16.45Z"/><path class="cls-19" d="M77.84,16.45h0l.31.56C78,16.83,77.94,16.64,77.84,16.45Z"/><polygon class="cls-3" points="82.04 26.31 82.04 26.31 82.04 26.31 82.04 26.31"/><polygon class="cls-19" points="82.04 26.31 82.04 26.31 82.04 26.31 82.04 26.31"/><path class="cls-3" d="M79,18.73l.24.5Z"/><path class="cls-19" d="M79,18.73l.24.5Z"/><path class="cls-3" d="M74.56,29.22h0q-.39-.86-.81-1.63Q74.16,28.36,74.56,29.22Z"/><path class="cls-19" d="M74.56,29.22h0q-.39-.86-.81-1.63Q74.16,28.36,74.56,29.22Z"/><path class="cls-3" d="M73.74,27.58a22.65,22.65,0,0,0-6.11-7.32h0A22.65,22.65,0,0,1,73.74,27.58Z"/><path class="cls-19" d="M73.74,27.58a22.65,22.65,0,0,0-6.11-7.32h0A22.65,22.65,0,0,1,73.74,27.58Z"/><path class="cls-15" d="M73.74,27.58h0q.42.78.81,1.63c.82-.25,1.64-.51,2.45-.79,1-.34,2-.71,2.94-1.08l.24-.12L82,26.31h0a52.47,52.47,0,0,0-2.76-7.08l-.24-.5c-.29-.58-.59-1.14-.9-1.71l-.31-.56a91.67,91.67,0,0,1-10.19,3.81A22.65,22.65,0,0,1,73.74,27.58Z"/><path class="cls-19" d="M73.74,27.58h0q.42.78.81,1.63c.82-.25,1.64-.51,2.45-.79,1-.34,2-.71,2.94-1.08l.24-.12L82,26.31h0a52.47,52.47,0,0,0-2.76-7.08l-.24-.5c-.29-.58-.59-1.14-.9-1.71l-.31-.56a91.67,91.67,0,0,1-10.19,3.81A22.65,22.65,0,0,1,73.74,27.58Z"/><polygon class="cls-3" points="18.8 24.78 18.8 24.78 18.8 24.77 18.8 24.78"/><polygon class="cls-19" points="18.8 24.78 18.8 24.78 18.8 24.77 18.8 24.78"/><path class="cls-15" d="M26.36,26.33c.22-.34.45-.68.69-1l.29-.42c.23-.31.47-.63.71-.94l.38-.49c.24-.29.49-.58.74-.86l.29-.34A58.27,58.27,0,0,1,22.06,20c-.45-.17-.88-.35-1.3-.55a54,54,0,0,0-2,5.31h0l2.84,1.47.53.28c.6.24,1.21.49,1.82.71s1,.35,1.5.53c.22-.39.46-.77.7-1.16Z"/><path class="cls-19" d="M26.36,26.33c.22-.34.45-.68.69-1l.29-.42c.23-.31.47-.63.71-.94l.38-.49c.24-.29.49-.58.74-.86l.29-.34A58.27,58.27,0,0,1,22.06,20c-.45-.17-.88-.35-1.3-.55a54,54,0,0,0-2,5.31h0l2.84,1.47.53.28c.6.24,1.21.49,1.82.71s1,.35,1.5.53c.22-.39.46-.77.7-1.16Z"/><path class="cls-3" d="M29.17,22.6c-.25.29-.5.57-.74.86C28.67,23.17,28.92,22.89,29.17,22.6Z"/><path class="cls-19" d="M29.17,22.6c-.25.29-.5.57-.74.86C28.67,23.17,28.92,22.89,29.17,22.6Z"/><path class="cls-3" d="M27,25.31c-.24.34-.47.68-.69,1C26.57,26,26.81,25.65,27,25.31Z"/><path class="cls-19" d="M27,25.31c-.24.34-.47.68-.69,1C26.57,26,26.81,25.65,27,25.31Z"/><path class="cls-3" d="M26.19,26.61c-.24.39-.48.77-.7,1.16h0C25.71,27.38,25.95,27,26.19,26.61Z"/><path class="cls-19" d="M26.19,26.61c-.24.39-.48.77-.7,1.16h0C25.71,27.38,25.95,27,26.19,26.61Z"/><path class="cls-3" d="M27.34,24.89c.23-.31.47-.63.71-.94C27.81,24.26,27.57,24.57,27.34,24.89Z"/><path class="cls-19" d="M27.34,24.89c.23-.31.47-.63.71-.94C27.81,24.26,27.57,24.57,27.34,24.89Z"/><path class="cls-5" d="M35.48,23.35h0a28.15,28.15,0,0,0-7.54,5.24h0A28.2,28.2,0,0,1,35.48,23.35Z"/><path class="cls-6" d="M35.48,23.35h0a28.15,28.15,0,0,0-7.54,5.24h0A28.2,28.2,0,0,1,35.48,23.35Z"/><path class="cls-19" d="M35.48,23.35h0a28.15,28.15,0,0,0-7.54,5.24h0A28.2,28.2,0,0,1,35.48,23.35Z"/><path class="cls-15" d="M35.48,23.35c-1.83-.24-3.65-.56-5.45-1a41.13,41.13,0,0,0-2.9,5.94l.81.25A28.15,28.15,0,0,1,35.48,23.35Z"/><path class="cls-19" d="M35.48,23.35c-1.83-.24-3.65-.56-5.45-1a41.13,41.13,0,0,0-2.9,5.94l.81.25A28.15,28.15,0,0,1,35.48,23.35Z"/><path class="cls-11" d="M52.9,63.88c-1.77.26-3.54-.09-5.31.21s-3.44.84-5.16.42l1,.41c.47.19,1,.36,1.44.52s1,.29,1.44.4a10.17,10.17,0,0,0,1.4.22c.22,0,.44,0,.67,0h.19a4.91,4.91,0,0,0,.79-.15,10.17,10.17,0,0,0,1.34-.46c.46-.19.92-.41,1.36-.64s.9-.49,1.34-.76l.91-.57A5.55,5.55,0,0,1,52.9,63.88Z"/><path class="cls-5" d="M50.56,71a7.4,7.4,0,0,0-3.23-.24,3.3,3.3,0,0,0-2.33.79,1.53,1.53,0,0,0,.29,2.36,4.06,4.06,0,0,0,3,.45c1.19-.14,3.38-.69,3.05-2.34A1.37,1.37,0,0,0,50.56,71Z"/><path class="cls-20" d="M50.56,71a7.4,7.4,0,0,0-3.23-.24,3.3,3.3,0,0,0-2.33.79,1.53,1.53,0,0,0,.29,2.36,4.06,4.06,0,0,0,3,.45c1.19-.14,3.38-.69,3.05-2.34A1.37,1.37,0,0,0,50.56,71Z"/><path class="cls-5" d="M37.63,62.91a1.43,1.43,0,0,1-.34-.21c-.23-.23.31-.19.42-.19l.23,0,.11-.18c.18-.31-.22-.65-.51-.53-.54.22-1,1-.59,1.52a.44.44,0,0,0,.69,0,.88.88,0,0,0,.14-.34l-.15-.09Z"/><path class="cls-6" d="M37.63,62.91a1.43,1.43,0,0,1-.34-.21c-.23-.23.31-.19.42-.19l.23,0,.11-.18c.18-.31-.22-.65-.51-.53-.54.22-1,1-.59,1.52a.44.44,0,0,0,.69,0,.88.88,0,0,0,.14-.34l-.15-.09Z"/><path class="cls-5" d="M59.06,60.85a1.31,1.31,0,0,1-.26.23,1.14,1.14,0,0,0,.24.44.44.44,0,0,0,.68-.13c.29-.58-.27-1.27-.84-1.4-.31-.07-.65.33-.42.61l.12.13h0C58.72,60.71,59.25,60.59,59.06,60.85Z"/><path class="cls-6" d="M59.06,60.85a1.31,1.31,0,0,1-.26.23,1.14,1.14,0,0,0,.24.44.44.44,0,0,0,.68-.13c.29-.58-.27-1.27-.84-1.4-.31-.07-.65.33-.42.61l.12.13h0C58.72,60.71,59.25,60.59,59.06,60.85Z"/><path class="cls-7" d="M48.19,62a3.71,3.71,0,0,0-2.77-.6c-1.28.31-2.49.88-3.77,1.18a11.55,11.55,0,0,1-3.71,0l-.23,0c-.1,0-.65,0-.42.19a1.43,1.43,0,0,0,.34.21h0l.15.09c1.13.69,4.37,3.76,4.65,4a16.74,16.74,0,0,0,4,2.43A6.3,6.3,0,0,0,51.24,69a16.74,16.74,0,0,0,3.49-3.06,58.71,58.71,0,0,1,4-4.79h0l0,0a1.31,1.31,0,0,0,.26-.23c.19-.26-.34-.14-.44-.12h0a12.69,12.69,0,0,1-3.84.71c-1.32-.08-2.6-.44-3.92-.53A3.71,3.71,0,0,0,48.19,62Zm5.2,2.09c-.44.26-.88.52-1.34.76s-.9.45-1.36.64a10.17,10.17,0,0,1-1.34.46,4.91,4.91,0,0,1-.79.15h-.19c-.22,0-.45,0-.67,0a10.17,10.17,0,0,1-1.4-.22c-.49-.11-1-.25-1.44-.4s-1-.33-1.44-.52l-1-.41c1.73.42,3.46-.13,5.16-.42s3.54,0,5.31-.21a5.55,5.55,0,0,0,1.4-.38Zm-1.68,3.3a3.14,3.14,0,0,1-2.43.86.38.38,0,0,1-.06-.77,7.74,7.74,0,0,0,2-.76A.42.42,0,0,1,51.71,67.38Z"/><path class="cls-7" d="M51.24,66.71a7.74,7.74,0,0,1-2,.76.38.38,0,0,0,.06.77,3.14,3.14,0,0,0,2.43-.86A.42.42,0,0,0,51.24,66.71Z"/><path class="cls-21" d="M51.24,66.71a7.74,7.74,0,0,1-2,.76.38.38,0,0,0,.06.77,3.14,3.14,0,0,0,2.43-.86A.42.42,0,0,0,51.24,66.71Z"/></g></g></g></svg>