<svg xmlns="http://www.w3.org/2000/svg" viewBox="0 0 103.66 140.43"><defs><style>.cls-1{isolation:isolate;}.cls-2{fill:none;}.cls-18,.cls-3,.cls-4{fill:#3f2d2b;}.cls-10,.cls-13,.cls-4,.cls-6{opacity:0.5;}.cls-18,.cls-4{mix-blend-mode:multiply;}.cls-10,.cls-20,.cls-5{fill:#fac494;}.cls-6{fill:#ed8c72;}.cls-11,.cls-21,.cls-7{fill:#f24469;}.cls-13,.cls-8,.cls-9{fill:#c61443;}.cls-11,.cls-18,.cls-19,.cls-20,.cls-8{opacity:0.2;}.cls-10,.cls-11,.cls-20,.cls-21{mix-blend-mode:screen;}.cls-12{fill:#533734;}.cls-14{fill:#ff5a5a;opacity:0.15;}.cls-15{fill:#fff;}.cls-16,.cls-19{fill:#8f705e;}.cls-17{fill:#211313;}</style></defs><title>Ресурс 3</title><g class="cls-1"><g id="Слой_2" data-name="Слой 2"><g id="Layer_1" data-name="Layer 1"><path class="cls-2" d="M19.93,65.9a205,205,0,0,0,3.79,25.59h.12c2.16-.54,4-.53,5.71-1.18a98.68,98.68,0,0,1-5-10.45A106.4,106.4,0,0,1,19.93,65.9Z"/><path class="cls-3" d="M19.93,65.9A106.4,106.4,0,0,0,24.5,79.85a98.68,98.68,0,0,0,5,10.45A7.33,7.33,0,0,0,32,88.79c-2.09-3.75-4.57-8.36-6.32-12.28A121.89,121.89,0,0,1,16.77,45.4c-.05-.35-.1-.7-.14-1.05-.11-2.5-.1-5,0-7.33,0-.08,0-.15-.05-.23-.81,12.45-.9,33.71,4.92,54.83l2.19-.13A205,205,0,0,1,19.93,65.9Z"/><path class="cls-3" d="M16.67,36.86c.05-.88.13-1.75.21-2.61C16.8,35.11,16.73,36,16.67,36.86Z"/><path class="cls-3" d="M35.67,82.66c.1-.3.18-.6.26-.91s.13-.51.18-.76l.08-.39c.16-.82.28-1.66.37-2.5-2.16-4.35-4.25-9-6-13.15-2.16-2.45-3.06-4.81-3.35-9.15l-.07-1.09a2.11,2.11,0,0,1-.85.28h0a2.74,2.74,0,0,1-.48,0h-.1a3.88,3.88,0,0,1-.6-.11,2.77,2.77,0,0,1-.56-.22l-.17-.1a3.66,3.66,0,0,1-.36-.24l-.18-.15-.33-.31-.16-.17c-.11-.13-.22-.26-.33-.4l-.12-.16q-.21-.28-.4-.59l0,0c-.14-.23-.28-.47-.41-.72a50.27,50.27,0,0,0,1.09,7.61c1.61,7.22,5,13.56,8.91,19.77a25.76,25.76,0,0,0,3.21,4.72c.13-.32.25-.63.36-1Z"/><path class="cls-3" d="M22.38,16.12C27.08,9.06,34.18,3.58,42.7,3a12.8,12.8,0,0,0-.7,7.62h0v.08a8.1,8.1,0,0,0,.27.9h0A9.09,9.09,0,0,0,42.94,13a14.61,14.61,0,0,0,.58,1.85c-1.48-4.41-1.43-10,2-13a15,15,0,0,0-8-.4c-8.1,2.07-14.33,11-17.77,20.23a52.22,52.22,0,0,1,2.25-5.15Z"/><path class="cls-3" d="M18.8,24.78h0c.13-.42.25-.83.39-1.25q-.28.82-.52,1.64l.13-.4Z"/><path class="cls-3" d="M33.7,86.77a14.59,14.59,0,0,0,1.13-2,14.85,14.85,0,0,1-2.8,4A12,12,0,0,0,33.7,86.77Z"/><path class="cls-3" d="M17.42,30.37c.09-.49.19-1,.3-1.49C17.61,29.38,17.51,29.88,17.42,30.37Z"/><path class="cls-3" d="M17,33.49c.12-1.07.27-2.11.46-3.13C17.23,31.38,17.09,32.43,17,33.49Z"/><path class="cls-3" d="M19.2,23.51q.29-.85.6-1.7Q19.49,22.66,19.2,23.51Z"/><path class="cls-3" d="M17.79,28.54c.11-.51.23-1,.37-1.53C18,27.53,17.9,28,17.79,28.54Z"/><path class="cls-3" d="M18.18,26.94q.2-.76.43-1.53C18.45,25.92,18.31,26.43,18.18,26.94Z"/><path class="cls-3" d="M36.78,70.56a60.17,60.17,0,0,1-6.21-5.61c1.75,4.13,3.84,8.79,6,13.15A73.21,73.21,0,0,0,36.78,70.56Z"/><path class="cls-4" d="M36.78,70.56a60.17,60.17,0,0,1-6.21-5.61c1.75,4.13,3.84,8.79,6,13.15A73.21,73.21,0,0,0,36.78,70.56Z"/><path class="cls-3" d="M63,85c0-.17.08-.34.12-.51,1.9-7.35,6.15-14.21,6.21-22a38.44,38.44,0,0,0-.63-7l0,.23c0,.49-.08.94-.13,1.38,0,.13,0,.26,0,.39q-.06.47-.14.91c0,.12,0,.25-.06.37-.07.37-.15.73-.24,1.08,0,.09-.05.17-.08.26-.07.26-.15.51-.24.75l-.14.37c-.08.21-.17.41-.26.61l-.15.32c-.13.26-.27.52-.42.76h0c-1.33,2.19-3.48,4.07-6.88,6.91v0c0,.29-.08.58-.12.87,0,.13,0,.26,0,.39-.51,4.68.07,9.5,2.6,13.43l0-.07A7.51,7.51,0,0,0,63,85Z"/><path class="cls-4" d="M63,85c0-.17.08-.34.12-.51,1.9-7.35,6.15-14.21,6.21-22a38.44,38.44,0,0,0-.63-7l0,.23c0,.49-.08.94-.13,1.38,0,.13,0,.26,0,.39q-.06.47-.14.91c0,.12,0,.25-.06.37-.07.37-.15.73-.24,1.08,0,.09-.05.17-.08.26-.07.26-.15.51-.24.75l-.14.37c-.08.21-.17.41-.26.61l-.15.32c-.13.26-.27.52-.42.76h0c-1.33,2.19-3.48,4.07-6.88,6.91v0c0,.29-.08.58-.12.87,0,.13,0,.26,0,.39-.51,4.68.07,9.5,2.6,13.43l0-.07A7.51,7.51,0,0,0,63,85Z"/><path class="cls-5" d="M7,97l.14.12.13.08.23.14.18.1.3.17.21.12.37.2.22.12.46.23.2.1.56.28.14.07.72.35h0c1.6.77,3.13,1.46,3.35,1.56a63.37,63.37,0,0,0,13,4.13,151.23,151.23,0,0,0,32.43,2.8l1.18,0h0c-1.62-7.78-1-13.44.78-20.45.22-.83.46-1.66.73-2.48-2.53-3.92-3.11-8.75-2.6-13.43a25.24,25.24,0,0,0,.2,7.43,115.71,115.71,0,0,0-25.67,7.29,15.13,15.13,0,0,0,.87-1.79l-.31.63a14.59,14.59,0,0,1-1.13,2,12,12,0,0,1-1.67,2l0,0h0a7.33,7.33,0,0,1-2.43,1.52c-1.73.65-3.55.64-5.71,1.18h-.12l-2.19.13C16.19,92,10.4,93.05,6.9,96.88c0,0,0,.06,0,.11ZM52,95.2a.19.19,0,0,1,.16.27A6,6,0,0,1,48,98.06c-2,.13-3-1.26-4.67-2a.13.13,0,0,1,0-.2c.93-1,2-.38,3.11-.08C48.41,96.29,50.11,95.41,52,95.2Z"/><path class="cls-5" d="M5.21,99.31,5.41,99Z"/><path class="cls-5" d="M95.19,102.61l.19,0,.5-.09.19,0,.47-.08.14,0,.53-.08h0l.42-.05h.11l.23,0h.3s.08,0,.09,0c.29.49.56,1,.81,1.54a16.29,16.29,0,0,0-8-8,51.82,51.82,0,0,1,1.12,7.46Z"/><path class="cls-5" d="M5.91,98.16l.21-.31Z"/><path class="cls-5" d="M99.3,104c.24.53.47,1.08.67,1.66C99.76,105.07,99.54,104.53,99.3,104Z"/><path class="cls-5" d="M36.2,80.6l-.08.39Z"/><path class="cls-5" d="M35.22,83.89h0q.19-.48.35-1C35.48,83.26,35.35,83.58,35.22,83.89Z"/><path class="cls-5" d="M35.93,81.75c-.08.3-.16.61-.26.91C35.77,82.36,35.86,82.06,35.93,81.75Z"/><path class="cls-5" d="M59.9,70c0,.29-.08.58-.12.87C59.82,70.53,59.86,70.24,59.9,70Z"/><path class="cls-3" d="M35.67,82.66l-.09.28Z"/><path class="cls-6" d="M35.67,82.66l-.09.28Z"/><path class="cls-3" d="M36.2,80.6q.25-1.23.38-2.48v0C36.48,78.94,36.36,79.78,36.2,80.6Z"/><path class="cls-6" d="M36.2,80.6q.25-1.23.38-2.48v0C36.48,78.94,36.36,79.78,36.2,80.6Z"/><path class="cls-3" d="M36.12,81c-.06.26-.12.51-.18.76C36,81.5,36.06,81.24,36.12,81Z"/><path class="cls-6" d="M36.12,81c-.06.26-.12.51-.18.76C36,81.5,36.06,81.24,36.12,81Z"/><path class="cls-3" d="M36.57,78.09v0a69.85,69.85,0,0,0,.23-7.53l0,0A73.21,73.21,0,0,1,36.57,78.09Z"/><path class="cls-4" d="M36.57,78.09v0a69.85,69.85,0,0,0,.23-7.53l0,0A73.21,73.21,0,0,1,36.57,78.09Z"/><path class="cls-6" d="M36.57,78.09v0a69.85,69.85,0,0,0,.23-7.53l0,0A73.21,73.21,0,0,1,36.57,78.09Z"/><path class="cls-3" d="M59.9,70v0h0Z"/><path class="cls-4" d="M59.9,70v0h0Z"/><path class="cls-6" d="M59.9,70v0h0Z"/><path class="cls-3" d="M59.74,71.21c0-.13,0-.26,0-.39C59.77,71,59.75,71.08,59.74,71.21Z"/><path class="cls-4" d="M59.74,71.21c0-.13,0-.26,0-.39C59.77,71,59.75,71.08,59.74,71.21Z"/><path class="cls-6" d="M59.74,71.21c0-.13,0-.26,0-.39C59.77,71,59.75,71.08,59.74,71.21Z"/><path class="cls-5" d="M59.9,70v0c-1.63,1.36-3.53,2.94-5.79,4.91a9.28,9.28,0,0,1-12.33,0c-1.89-1.65-3.53-3-5-4.23a69.85,69.85,0,0,1-.23,7.53q-.13,1.26-.38,2.48l-.08.39c-.06.26-.12.51-.18.76s-.17.61-.26.91l-.09.28q-.16.49-.35,1h0l-.11.23a15.13,15.13,0,0,1-.87,1.79,115.71,115.71,0,0,1,25.67-7.29,25.24,25.24,0,0,1-.2-7.43c0-.13,0-.26,0-.39C59.82,70.53,59.86,70.24,59.9,70Z"/><path class="cls-6" d="M59.9,70v0c-1.63,1.36-3.53,2.94-5.79,4.91a9.28,9.28,0,0,1-12.33,0c-1.89-1.65-3.53-3-5-4.23a69.85,69.85,0,0,1-.23,7.53q-.13,1.26-.38,2.48l-.08.39c-.06.26-.12.51-.18.76s-.17.61-.26.91l-.09.28q-.16.49-.35,1h0l-.11.23a15.13,15.13,0,0,1-.87,1.79,115.71,115.71,0,0,1,25.67-7.29,25.24,25.24,0,0,1-.2-7.43c0-.13,0-.26,0-.39C59.82,70.53,59.86,70.24,59.9,70Z"/><path class="cls-7" d="M8.19,97.78,8,97.67Z"/><path class="cls-7" d="M96.68,102.34l.53-.08Z"/><path class="cls-7" d="M1.56,118.57c.09-1.32.18-2.64.29-4C1.74,115.93,1.65,117.25,1.56,118.57Z"/><path class="cls-7" d="M97.22,102.26l.42-.05Z"/><path class="cls-7" d="M10.13,98.78,10,98.71Z"/><path class="cls-7" d="M95.38,102.57l.5-.09Z"/><path class="cls-7" d="M8.78,98.1,8.56,98Z"/><path class="cls-7" d="M96.07,102.45l.47-.08Z"/><path class="cls-7" d="M7.67,97.5l-.18-.1Z"/><path class="cls-7" d="M97.11,111.33c-.75-2.15-1.49-4.3-2.11-6.49-.2-.69-.38-1.39-.55-2.09l.74-.14-2.89.58v0a50.92,50.92,0,0,1,0,7.33,50.14,50.14,0,0,1-.78,8.12,39.11,39.11,0,0,1-4.18,12.23c.23,2,.51,3.93.79,5.75,4.83-1,9.78-2.22,14.84-3.71-.54-2.83-1.19-5.68-1.92-8.57C99.92,119.93,98.61,115.64,97.11,111.33Z"/><path class="cls-7" d="M98.28,102.18s.08,0,.09,0S98.33,102.18,98.28,102.18Z"/><path class="cls-7" d="M7.27,97.25l-.13-.08Z"/><path class="cls-7" d="M80.21,138.09q2.76-.45,5.59-1c-.08-1.33-.11-2.57-.11-3.73A16.21,16.21,0,0,1,80.21,138.09Z"/><path class="cls-7" d="M61.33,133.72A21.32,21.32,0,0,1,59.64,131a41.49,41.49,0,0,1-18.13-1.18A42.52,42.52,0,0,1,29.94,125c-3.8-1.5-7.52-3.77-8.14-7.9-1.12-7.46,6.85-8.17,12.1-7.56,7.47.88,15,1.33,22.5,1.51,1.76,0,3.51.06,5.27.07q-.49-1.84-.85-3.54l-1.18,0a151.23,151.23,0,0,1-32.43-2.8,63.37,63.37,0,0,1-13-4.13c-.23-.1-1.75-.79-3.35-1.56-5.15,9.49-7,22.57-8.64,34.06,2.49.82,6.18,1.92,10.92,3a93.62,93.62,0,0,0,1.27-13s1.47,4.91,1,13.53a174.86,174.86,0,0,0,55.17,2.67A14.81,14.81,0,0,1,61.33,133.72Z"/><path class="cls-7" d="M98.07,102.17h0Z"/><path class="cls-7" d="M97.75,102.19l.23,0Z"/><path class="cls-7" d="M9.44,98.43l-.2-.1Z"/><path class="cls-7" d="M7,97,6.93,97Z"/><path class="cls-8" d="M103.65,132.19c0-1.08-.23-3.28-.54-6,.27,2.36.46,4.34.52,5.52C103.65,131.9,103.65,132.05,103.65,132.19Z"/><path class="cls-8" d="M103.64,132.72h0a4.25,4.25,0,0,0,0-.54c0,.13,0,.25,0,.35S103.65,132.67,103.64,132.72Z"/><path class="cls-8" d="M102.28,119.56c-.16-1.16-.32-2.32-.48-3.46l.16,1.14C102.07,118,102.18,118.79,102.28,119.56Z"/><path class="cls-8" d="M102.86,124.1c-.09-.73-.18-1.48-.28-2.24C102.68,122.62,102.78,123.37,102.86,124.1Z"/><path class="cls-8" d="M102.86,124.1c.09.73.17,1.43.25,2.11C103,125.53,103,124.83,102.86,124.1Z"/><path class="cls-8" d="M100.7,109l.15.85c-.2-1.18-.39-2.2-.55-3,.08.38.17.83.26,1.33Z"/><path class="cls-8" d="M100.06,106c.07.25.15.57.23,1a12.06,12.06,0,0,0-.33-1.28h0C100,105.74,100,105.85,100.06,106Z"/><path class="cls-8" d="M99.3,104h0l-.11-.24h0Z"/><path class="cls-8" d="M102.58,121.87c-.1-.76-.2-1.53-.3-2.3C102.39,120.33,102.49,121.11,102.58,121.87Z"/><path class="cls-8" d="M101,110.82c.1.63.21,1.3.32,2C101.21,112.12,101.1,111.45,101,110.82Z"/><path class="cls-8" d="M101.31,112.82c.11.7.22,1.42.32,2.16C101.53,114.24,101.42,113.51,101.31,112.82Z"/><path class="cls-5" d="M97.64,102.2h0Z"/><path class="cls-8" d="M97.64,102.2h0Z"/><path class="cls-5" d="M99.19,103.75h0c-.25-.54-.52-1.05-.81-1.54C98.67,102.7,98.94,103.22,99.19,103.75Z"/><path class="cls-8" d="M99.19,103.75h0c-.25-.54-.52-1.05-.81-1.54C98.67,102.7,98.94,103.22,99.19,103.75Z"/><path class="cls-5" d="M97.21,102.26h0Z"/><path class="cls-8" d="M97.21,102.26h0Z"/><path class="cls-5" d="M98,102.17h0Z"/><path class="cls-8" d="M98,102.17h0Z"/><path class="cls-5" d="M100,105.65h0c-.2-.58-.43-1.13-.67-1.66h0C99.54,104.52,99.76,105.07,100,105.65Z"/><path class="cls-8" d="M100,105.65h0c-.2-.58-.43-1.13-.67-1.66h0C99.54,104.52,99.76,105.07,100,105.65Z"/><path class="cls-5" d="M98.23,102.17h0Z"/><path class="cls-8" d="M98.23,102.17h0Z"/><path class="cls-5" d="M95.88,102.48l.19,0Z"/><path class="cls-8" d="M95.88,102.48l.19,0Z"/><path class="cls-5" d="M95.19,102.61l.19,0Z"/><path class="cls-8" d="M95.19,102.61l.19,0Z"/><path class="cls-5" d="M96.54,102.37l.14,0Z"/><path class="cls-8" d="M96.54,102.37l.14,0Z"/><path class="cls-7" d="M100,105.65c-.2-.58-.43-1.13-.67-1.66l-.11-.24c-.25-.54-.52-1.05-.81-1.54,0,0,0,0-.09,0H98l-.23,0h-.11l-.42.05h0l-.53.08-.14,0-.47.08-.19,0-.5.09-.19,0-.74.14c.17.7.35,1.4.55,2.09.62,2.19,1.37,4.34,2.11,6.49,1.5,4.31,2.81,8.6,3.93,13,.74,2.89,1.39,5.73,1.92,8.57l.67-.2c0-.05,0-.11,0-.18s0-.22,0-.35,0-.29,0-.46c-.06-1.18-.25-3.16-.52-5.52-.08-.67-.16-1.38-.25-2.11s-.18-1.48-.28-2.24-.2-1.53-.3-2.3-.21-1.55-.32-2.32l-.16-1.14-.16-1.12c-.11-.74-.22-1.47-.32-2.16s-.21-1.36-.32-2l-.15-.92-.15-.85-.14-.78c-.09-.5-.18-.94-.26-1.33s-.16-.71-.23-1S100,105.74,100,105.65Z"/><path class="cls-8" d="M100,105.65c-.2-.58-.43-1.13-.67-1.66l-.11-.24c-.25-.54-.52-1.05-.81-1.54,0,0,0,0-.09,0H98l-.23,0h-.11l-.42.05h0l-.53.08-.14,0-.47.08-.19,0-.5.09-.19,0-.74.14c.17.7.35,1.4.55,2.09.62,2.19,1.37,4.34,2.11,6.49,1.5,4.31,2.81,8.6,3.93,13,.74,2.89,1.39,5.73,1.92,8.57l.67-.2c0-.05,0-.11,0-.18s0-.22,0-.35,0-.29,0-.46c-.06-1.18-.25-3.16-.52-5.52-.08-.67-.16-1.38-.25-2.11s-.18-1.48-.28-2.24-.2-1.53-.3-2.3-.21-1.55-.32-2.32l-.16-1.14-.16-1.12c-.11-.74-.22-1.47-.32-2.16s-.21-1.36-.32-2l-.15-.92-.15-.85-.14-.78c-.09-.5-.18-.94-.26-1.33s-.16-.71-.23-1S100,105.74,100,105.65Z"/><path class="cls-8" d="M1.85,114.61c.06-.73.13-1.46.2-2.19C2,113.15,1.91,113.88,1.85,114.61Z"/><path class="cls-8" d="M5.21,99.31h0a12.08,12.08,0,0,0-.56,1.23q-.37,1-.67,1.92.31-1,.67-1.92A12.08,12.08,0,0,1,5.21,99.31Z"/><path class="cls-8" d="M6.9,96.88h0a11.27,11.27,0,0,0-.78,1h0A11.28,11.28,0,0,1,6.9,96.88Z"/><path class="cls-8" d="M5.91,98.16h0q-.26.39-.5.81h0Q5.64,98.55,5.91,98.16Z"/><path class="cls-5" d="M9.24,98.34l-.46-.23Z"/><path class="cls-8" d="M9.24,98.34l-.46-.23Z"/><path class="cls-5" d="M10,98.71l-.56-.28Z"/><path class="cls-8" d="M10,98.71l-.56-.28Z"/><path class="cls-5" d="M6.12,97.85h0l-.21.31h0Z"/><path class="cls-8" d="M6.12,97.85h0l-.21.31h0Z"/><path class="cls-5" d="M8.56,98l-.37-.2Z"/><path class="cls-8" d="M8.56,98l-.37-.2Z"/><path class="cls-5" d="M5.41,99h0l-.19.34h0Z"/><path class="cls-8" d="M5.41,99h0l-.19.34h0Z"/><path class="cls-5" d="M6.93,97s-.06-.08,0-.11h0S6.89,96.94,6.93,97Z"/><path class="cls-8" d="M6.93,97s-.06-.08,0-.11h0S6.89,96.94,6.93,97Z"/><path class="cls-5" d="M10.13,98.78l.72.35h0Z"/><path class="cls-8" d="M10.13,98.78l.72.35h0Z"/><path class="cls-5" d="M7.49,97.39l-.23-.14Z"/><path class="cls-8" d="M7.49,97.39l-.23-.14Z"/><path class="cls-5" d="M8,97.67l-.3-.17Z"/><path class="cls-8" d="M8,97.67l-.3-.17Z"/><path class="cls-5" d="M7.14,97.16,7,97Z"/><path class="cls-8" d="M7.14,97.16,7,97Z"/><path class="cls-7" d="M2.21,133.19c1.68-11.49,3.49-24.57,8.64-34.06l-.72-.35L10,98.71l-.56-.28-.2-.1-.46-.23L8.56,98l-.37-.2L8,97.67l-.3-.17-.18-.1-.23-.14-.13-.08L7,97,6.93,97s-.06-.08,0-.11h0a11.28,11.28,0,0,0-.78,1l-.21.31q-.26.39-.5.81l-.19.34a12.08,12.08,0,0,0-.56,1.23q-.37,1-.67,1.92a50.2,50.2,0,0,0-1.92,10c-.08.73-.14,1.46-.2,2.19-.11,1.31-.2,2.63-.29,4q-.07,1-.14,2.05A83.13,83.13,0,0,1,0,132.43C.57,132.63,1.31,132.89,2.21,133.19Z"/><path class="cls-8" d="M2.21,133.19c1.68-11.49,3.49-24.57,8.64-34.06l-.72-.35L10,98.71l-.56-.28-.2-.1-.46-.23L8.56,98l-.37-.2L8,97.67l-.3-.17-.18-.1-.23-.14-.13-.08L7,97,6.93,97s-.06-.08,0-.11h0a11.28,11.28,0,0,0-.78,1l-.21.31q-.26.39-.5.81l-.19.34a12.08,12.08,0,0,0-.56,1.23q-.37,1-.67,1.92a50.2,50.2,0,0,0-1.92,10c-.08.73-.14,1.46-.2,2.19-.11,1.31-.2,2.63-.29,4q-.07,1-.14,2.05A83.13,83.13,0,0,1,0,132.43C.57,132.63,1.31,132.89,2.21,133.19Z"/><path class="cls-9" d="M85.69,133.37c0,1.15,0,2.4.11,3.73l2.33-.47c-.29-1.82-.56-3.78-.79-5.75A23,23,0,0,1,85.69,133.37Z"/><path class="cls-5" d="M26.7,30.05l0,0q-.05.65-.1,1.35Q26.63,30.72,26.7,30.05Z"/><path class="cls-5" d="M68.38,58.48c0,.12,0,.25-.06.37C68.34,58.73,68.36,58.6,68.38,58.48Z"/><path class="cls-5" d="M68.08,59.92c0,.09-.05.17-.08.26C68,60.1,68.05,60,68.08,59.92Z"/><path class="cls-5" d="M62.37,42.86l-.21-.07.08.05Z"/><path class="cls-5" d="M68.57,57.18c0,.13,0,.26,0,.39C68.53,57.44,68.55,57.31,68.57,57.18Z"/><path class="cls-5" d="M35.23,42.79l-.21.07.13,0Z"/><path class="cls-5" d="M67.76,60.93l-.14.37Z"/><path class="cls-5" d="M67.36,61.91l-.15.32Z"/><path class="cls-3" d="M26.42,34l0-.06q0-1.31.11-2.49C26.51,32.25,26.46,33.1,26.42,34Z"/><path class="cls-6" d="M26.42,34l0-.06q0-1.31.11-2.49C26.51,32.25,26.46,33.1,26.42,34Z"/><path class="cls-5" d="M26.47,33.94A43.26,43.26,0,0,1,39.26,21.32c-.42.2-.81.39-1.16.59-.89.51-1.77,1-2.62,1.44h0a28.2,28.2,0,0,0-7.54,5.24h0a16.61,16.61,0,0,0-1.23,1.47q-.07.67-.13,1.39Q26.5,32.62,26.47,33.94Z"/><path class="cls-6" d="M26.47,33.94A43.26,43.26,0,0,1,39.26,21.32c-.42.2-.81.39-1.16.59-.89.51-1.77,1-2.62,1.44h0a28.2,28.2,0,0,0-7.54,5.24h0a16.61,16.61,0,0,0-1.23,1.47q-.07.67-.13,1.39Q26.5,32.62,26.47,33.94Z"/><path class="cls-3" d="M68.69,55.8c0,.49-.08.94-.13,1.38C68.61,56.74,68.66,56.29,68.69,55.8Z"/><path class="cls-4" d="M68.69,55.8c0,.49-.08.94-.13,1.38C68.61,56.74,68.66,56.29,68.69,55.8Z"/><path class="cls-6" d="M68.69,55.8c0,.49-.08.94-.13,1.38C68.61,56.74,68.66,56.29,68.69,55.8Z"/><path class="cls-3" d="M66.79,63c.15-.25.29-.5.42-.76-.13.26-.27.51-.42.76Z"/><path class="cls-4" d="M66.79,63c.15-.25.29-.5.42-.76-.13.26-.27.51-.42.76Z"/><path class="cls-6" d="M66.79,63c.15-.25.29-.5.42-.76-.13.26-.27.51-.42.76Z"/><path class="cls-3" d="M68.52,57.57c0,.31-.09.62-.14.91Q68.46,58,68.52,57.57Z"/><path class="cls-4" d="M68.52,57.57c0,.31-.09.62-.14.91Q68.46,58,68.52,57.57Z"/><path class="cls-6" d="M68.52,57.57c0,.31-.09.62-.14.91Q68.46,58,68.52,57.57Z"/><path class="cls-3" d="M68.32,58.85c-.07.37-.15.73-.24,1.08C68.17,59.58,68.25,59.22,68.32,58.85Z"/><path class="cls-4" d="M68.32,58.85c-.07.37-.15.73-.24,1.08C68.17,59.58,68.25,59.22,68.32,58.85Z"/><path class="cls-6" d="M68.32,58.85c-.07.37-.15.73-.24,1.08C68.17,59.58,68.25,59.22,68.32,58.85Z"/><path class="cls-3" d="M67.62,61.3c-.08.21-.17.41-.26.61C67.45,61.71,67.54,61.51,67.62,61.3Z"/><path class="cls-4" d="M67.62,61.3c-.08.21-.17.41-.26.61C67.45,61.71,67.54,61.51,67.62,61.3Z"/><path class="cls-6" d="M67.62,61.3c-.08.21-.17.41-.26.61C67.45,61.71,67.54,61.51,67.62,61.3Z"/><path class="cls-3" d="M68,60.18q-.11.38-.24.75C67.85,60.69,67.93,60.44,68,60.18Z"/><path class="cls-4" d="M68,60.18q-.11.38-.24.75C67.85,60.69,67.93,60.44,68,60.18Z"/><path class="cls-6" d="M68,60.18q-.11.38-.24.75C67.85,60.69,67.93,60.44,68,60.18Z"/><path class="cls-5" d="M63.77,39.44c-.63-1-1.33-2.07-2.09-3.11a25.92,25.92,0,0,0-3.43.31A38.29,38.29,0,0,1,60.87,40,9.87,9.87,0,0,1,63.77,39.44Z"/><path class="cls-6" d="M63.77,39.44c-.63-1-1.33-2.07-2.09-3.11a25.92,25.92,0,0,0-3.43.31A38.29,38.29,0,0,1,60.87,40,9.87,9.87,0,0,1,63.77,39.44Z"/><path class="cls-5" d="M64,46.53c.27.82.51,1.65.72,2.5l.39.13a1,1,0,0,1,.46-.21,1.71,1.71,0,0,1,.35,0,.73.73,0,0,1,.38.11h0a.73.73,0,0,1,.5.8.71.71,0,0,1-.13.32,2.57,2.57,0,0,1,.43,3.18,7.94,7.94,0,0,1-1.28,1.81c.21,1.45.4,2.89.58,4.3.15,1.19.26,2.38.31,3.57.15-.25.29-.5.42-.76l.15-.32c.09-.2.18-.4.26-.61l.14-.37q.13-.36.24-.75c0-.09.05-.17.08-.26.09-.34.17-.7.24-1.08,0-.12,0-.24.06-.37,0-.29.1-.59.14-.91,0-.13,0-.26,0-.39,0-.44.09-.89.13-1.38l0-.23c-.65-3.73-1.68-7.35-2.54-11.07a5.22,5.22,0,0,1-1.13.82A4.57,4.57,0,0,1,64,46.53Z"/><path class="cls-6" d="M64,46.53c.27.82.51,1.65.72,2.5l.39.13a1,1,0,0,1,.46-.21,1.71,1.71,0,0,1,.35,0,.73.73,0,0,1,.38.11h0a.73.73,0,0,1,.5.8.71.71,0,0,1-.13.32,2.57,2.57,0,0,1,.43,3.18,7.94,7.94,0,0,1-1.28,1.81c.21,1.45.4,2.89.58,4.3.15,1.19.26,2.38.31,3.57.15-.25.29-.5.42-.76l.15-.32c.09-.2.18-.4.26-.61l.14-.37q.13-.36.24-.75c0-.09.05-.17.08-.26.09-.34.17-.7.24-1.08,0-.12,0-.24.06-.37,0-.29.1-.59.14-.91,0-.13,0-.26,0-.39,0-.44.09-.89.13-1.38l0-.23c-.65-3.73-1.68-7.35-2.54-11.07a5.22,5.22,0,0,1-1.13.82A4.57,4.57,0,0,1,64,46.53Z"/><path class="cls-5" d="M60.3,34.52a54,54,0,0,0-7.05-7.29,49.75,49.75,0,0,1-4.56-4.44,26.17,26.17,0,0,1-3-3.69c1.56,6.33,6.44,10.81,10.85,15.59A23.77,23.77,0,0,1,60.3,34.52Z"/><path class="cls-6" d="M60.3,34.52a54,54,0,0,0-7.05-7.29,49.75,49.75,0,0,1-4.56-4.44,26.17,26.17,0,0,1-3-3.69c1.56,6.33,6.44,10.81,10.85,15.59A23.77,23.77,0,0,1,60.3,34.52Z"/><path class="cls-5" d="M48,58.5a4.88,4.88,0,0,0,3.4-2.1.15.15,0,0,0-.13-.22c-1.57.17-2.94.89-4.56.45-.89-.24-1.77-.72-2.52.06a.11.11,0,0,0,0,.17C45.55,57.48,46.37,58.61,48,58.5Z"/><path class="cls-6" d="M48,58.5a4.88,4.88,0,0,0,3.4-2.1.15.15,0,0,0-.13-.22c-1.57.17-2.94.89-4.56.45-.89-.24-1.77-.72-2.52.06a.11.11,0,0,0,0,.17C45.55,57.48,46.37,58.61,48,58.5Z"/><path class="cls-5" d="M46.43,95.75c-1.1-.3-2.18-.89-3.11.08a.13.13,0,0,0,0,.2c1.67.77,2.69,2.16,4.67,2a6,6,0,0,0,4.18-2.58A.19.19,0,0,0,52,95.2C50.11,95.41,48.41,96.29,46.43,95.75Z"/><path class="cls-6" d="M46.43,95.75c-1.1-.3-2.18-.89-3.11.08a.13.13,0,0,0,0,.2c1.67.77,2.69,2.16,4.67,2a6,6,0,0,0,4.18-2.58A.19.19,0,0,0,52,95.2C50.11,95.41,48.41,96.29,46.43,95.75Z"/><path class="cls-5" d="M46.41,55.48a2,2,0,0,0,.32.14.73.73,0,0,0,.37,0h.07a.71.71,0,0,0,.68-.63.73.73,0,0,0-.5-.8h0a.73.73,0,0,0-.38-.11,1.71,1.71,0,0,0-.35,0,.85.85,0,0,0-.57.29.59.59,0,0,0-.08.64A.87.87,0,0,0,46.41,55.48Z"/><path class="cls-10" d="M46.41,55.48a2,2,0,0,0,.32.14.73.73,0,0,0,.37,0h.07a.71.71,0,0,0,.68-.63.73.73,0,0,0-.5-.8h0a.73.73,0,0,0-.38-.11,1.71,1.71,0,0,0-.35,0,.85.85,0,0,0-.57.29.59.59,0,0,0-.08.64A.87.87,0,0,0,46.41,55.48Z"/><path class="cls-5" d="M31.34,49.21a.74.74,0,0,0-.29-.19h0a.72.72,0,0,0-.38-.11,1.71,1.71,0,0,0-.35,0,.85.85,0,0,0-.57.29.59.59,0,0,0-.08.64.68.68,0,0,0,.23.28A4.31,4.31,0,0,1,31.34,49.21Z"/><path class="cls-10" d="M31.34,49.21a.74.74,0,0,0-.29-.19h0a.72.72,0,0,0-.38-.11,1.71,1.71,0,0,0-.35,0,.85.85,0,0,0-.57.29.59.59,0,0,0-.08.64.68.68,0,0,0,.23.28A4.31,4.31,0,0,1,31.34,49.21Z"/><path class="cls-5" d="M66.75,50.14a.71.71,0,0,0,.13-.32.73.73,0,0,0-.5-.8h0a.73.73,0,0,0-.38-.11,1.71,1.71,0,0,0-.35,0,1,1,0,0,0-.46.21A4.44,4.44,0,0,1,66.75,50.14Z"/><path class="cls-6" d="M66.75,50.14a.71.71,0,0,0,.13-.32.73.73,0,0,0-.5-.8h0a.73.73,0,0,0-.38-.11,1.71,1.71,0,0,0-.35,0,1,1,0,0,0-.46.21A4.44,4.44,0,0,1,66.75,50.14Z"/><path class="cls-10" d="M66.75,50.14a.71.71,0,0,0,.13-.32.73.73,0,0,0-.5-.8h0a.73.73,0,0,0-.38-.11,1.71,1.71,0,0,0-.35,0,1,1,0,0,0-.46.21A4.44,4.44,0,0,1,66.75,50.14Z"/><path class="cls-7" d="M61.67,111.1c-1.76,0-3.51,0-5.27-.07-7.52-.19-15-.63-22.5-1.51-5.25-.62-13.23.1-12.1,7.56.62,4.13,4.34,6.4,8.14,7.9a42.52,42.52,0,0,0,11.57,4.83A41.49,41.49,0,0,0,59.64,131a15.76,15.76,0,0,1-.91-2.05c0-.13-.61-2-.14-1.48a4.83,4.83,0,0,0,1.19,1,15.84,15.84,0,0,1-.94-2.12c0-.13-.61-2-.14-1.48,3,3.39,5.38-.3,6-3.4a28.38,28.38,0,0,0-1.72-6C62.47,113.92,62,112.48,61.67,111.1Z"/><path class="cls-11" d="M61.67,111.1c-1.76,0-3.51,0-5.27-.07-7.52-.19-15-.63-22.5-1.51-5.25-.62-13.23.1-12.1,7.56.62,4.13,4.34,6.4,8.14,7.9a42.52,42.52,0,0,0,11.57,4.83A41.49,41.49,0,0,0,59.64,131a15.76,15.76,0,0,1-.91-2.05c0-.13-.61-2-.14-1.48a4.83,4.83,0,0,0,1.19,1,15.84,15.84,0,0,1-.94-2.12c0-.13-.61-2-.14-1.48,3,3.39,5.38-.3,6-3.4a28.38,28.38,0,0,0-1.72-6C62.47,113.92,62,112.48,61.67,111.1Z"/><path class="cls-12" d="M20.76,19.46c.42.19.86.38,1.3.55a58.27,58.27,0,0,0,7.41,2.24l-.29.34a32,32,0,0,1,2.22-2.3,37.79,37.79,0,0,0-5.1,10.3l.07-.11.3-.4,0,0a16.61,16.61,0,0,1,1.23-1.47l-.81-.25A41.11,41.11,0,0,1,30,22.39c1.8.4,3.62.72,5.45,1,.86-.46,1.74-.93,2.63-1.44.34-.2.74-.39,1.16-.59,1.7-.81,3.94-1.67,6.09-2.7l.31.47a26.17,26.17,0,0,0,3,3.69A58.46,58.46,0,0,0,58,29.94c.49.33,1,.68,1.42,1-.46-.36-.94-.71-1.42-1a67.51,67.51,0,0,1-8.36-6.23,82.29,82.29,0,0,0,17.42-3.28,21,21,0,0,1,5.16,9.45c-1.27-4.47-3.4-8.69-7.43-11.29a9.57,9.57,0,0,1,2.83,1.68,91.71,91.71,0,0,0,10.19-3.81c-.12-.21-.23-.42-.35-.63l-.38-.61q-.54-.88-1.13-1.72l-.45-.64c-.53-.73-1.08-1.44-1.67-2.13h0A28.33,28.33,0,0,0,70.6,7.5a24.51,24.51,0,0,0-4.12-2.84L65.42,4.1A37.77,37.77,0,0,0,55.17.39c-.41-.08-.82-.15-1.24-.21h-.06l-.8-.09H53a11.8,11.8,0,0,0-5.07.51l-.38.14-.05,0-.09,0a7.79,7.79,0,0,0-.89.47c-.2.12-.38.26-.56.39l-.26.2-.11.08c-3.46,2.93-3.51,8.54-2,13A14.61,14.61,0,0,1,42.94,13a9.09,9.09,0,0,1-.66-1.43h0a8.1,8.1,0,0,1-.27-.9v-.08h0A12.8,12.8,0,0,1,42.7,3c-8.52.58-15.63,6.06-20.32,13.12l-.3.48a52.22,52.22,0,0,0-2.25,5.15l0,.06q-.32.85-.6,1.7v0c-.14.42-.27.83-.39,1.25A54,54,0,0,1,20.76,19.46Z"/><path class="cls-12" d="M16.63,44.35c0,.35.09.7.14,1.05a121.89,121.89,0,0,0,8.89,31.11C27.42,80.43,29.89,85,32,88.79h0l0,0a14.85,14.85,0,0,0,2.8-4l.31-.63.11-.23h0A25.76,25.76,0,0,1,32,79.17C28.11,73,24.72,66.62,23.11,59.4A50.27,50.27,0,0,1,22,51.79,20.45,20.45,0,0,1,20.13,46c-.34-2.2-.72-5,1.55-6.11a31.81,31.81,0,0,1,3.82-12.12c-.5-.18-1-.34-1.5-.53s-1.22-.47-1.82-.71l-.53-.28L18.8,24.78l-.13.4-.07.23q-.23.77-.43,1.53l0,.07c-.13.51-.25,1-.37,1.53l-.07.33c-.11.5-.21,1-.3,1.49-.18,1-.33,2.06-.46,3.13,0,.25,0,.51-.07.76-.09.86-.16,1.72-.21,2.61,0,.05,0,.1,0,.16C16.53,39.39,16.52,41.84,16.63,44.35Z"/><path class="cls-12" d="M26.36,26.33l-.17.28Z"/><path class="cls-12" d="M27.34,24.89l-.29.42Z"/><path class="cls-12" d="M28.05,23.95l.38-.48Z"/><path class="cls-3" d="M63,85a7.51,7.51,0,0,1-.65-.46l0,.07c.18.28.36.55.56.82Z"/><path class="cls-4" d="M63,85a7.51,7.51,0,0,1-.65-.46l0,.07c.18.28.36.55.56.82Z"/><path class="cls-6" d="M63,85a7.51,7.51,0,0,1-.65-.46l0,.07c.18.28.36.55.56.82Z"/><path class="cls-5" d="M62.9,85.46c-.2-.27-.38-.54-.56-.82-.27.82-.52,1.65-.73,2.48-1.81,7-2.4,12.66-.78,20.45l1.14-.05A57.42,57.42,0,0,1,62.9,85.46Z"/><path class="cls-6" d="M62.9,85.46c-.2-.27-.38-.54-.56-.82-.27.82-.52,1.65-.73,2.48-1.81,7-2.4,12.66-.78,20.45l1.14-.05A57.42,57.42,0,0,1,62.9,85.46Z"/><path class="cls-5" d="M62,107.52l-1.14.05h0l1.14,0Z"/><path class="cls-13" d="M62,107.52l-1.14.05h0l1.14,0Z"/><path class="cls-7" d="M85.69,133.37c0-.9,0-1.75.06-2.54a16.16,16.16,0,0,1-5.45,4.67c-.08.06-.15.14-.23.2a3,3,0,0,1-1,.37,14.65,14.65,0,0,1-4.48,1,15.2,15.2,0,0,1-13.11-5.92l-.28-.41-.2,0c-.44.09-.88.15-1.32.23a21.32,21.32,0,0,0,1.69,2.73,14.81,14.81,0,0,0,9.26,5.67q4.7-.51,9.62-1.3A16.21,16.21,0,0,0,85.69,133.37Z"/><path class="cls-13" d="M85.69,133.37c0-.9,0-1.75.06-2.54a16.16,16.16,0,0,1-5.45,4.67c-.08.06-.15.14-.23.2a3,3,0,0,1-1,.37,14.65,14.65,0,0,1-4.48,1,15.2,15.2,0,0,1-13.11-5.92l-.28-.41-.2,0c-.44.09-.88.15-1.32.23a21.32,21.32,0,0,0,1.69,2.73,14.81,14.81,0,0,0,9.26,5.67q4.7-.51,9.62-1.3A16.21,16.21,0,0,0,85.69,133.37Z"/><path class="cls-7" d="M91.52,118.65a50.14,50.14,0,0,0,.78-8.12c-.06.81-.11,1.63-.21,2.44v0h0c-.12,1-.27,2-.45,3.05a38.27,38.27,0,0,1-4.51,12.78q.1,1,.22,2A39.11,39.11,0,0,0,91.52,118.65Z"/><path class="cls-13" d="M91.52,118.65a50.14,50.14,0,0,0,.78-8.12c-.06.81-.11,1.63-.21,2.44v0h0c-.12,1-.27,2-.45,3.05a38.27,38.27,0,0,1-4.51,12.78q.1,1,.22,2A39.11,39.11,0,0,0,91.52,118.65Z"/><path class="cls-7" d="M61.67,111.1h1q-.4-1.78-.68-3.58l-1.14,0Q61.18,109.26,61.67,111.1Z"/><path class="cls-13" d="M61.67,111.1h1q-.4-1.78-.68-3.58l-1.14,0Q61.18,109.26,61.67,111.1Z"/><path class="cls-9" d="M85.69,133.37a23,23,0,0,0,1.65-2.49q-.12-1-.22-2a22.42,22.42,0,0,1-1.36,2C85.71,131.62,85.69,132.47,85.69,133.37Z"/><path class="cls-13" d="M85.69,133.37a23,23,0,0,0,1.65-2.49q-.12-1-.22-2a22.42,22.42,0,0,1-1.36,2C85.71,131.62,85.69,132.47,85.69,133.37Z"/><path class="cls-7" d="M61.67,111.1c.37,1.38.8,2.82,1.3,4.36a28.38,28.38,0,0,1,1.72,6,8.46,8.46,0,0,0,.13-.89c.24-2.85-1-5.07-1.74-7.7q-.23-.87-.43-1.76Z"/><path class="cls-11" d="M61.67,111.1c.37,1.38.8,2.82,1.3,4.36a28.38,28.38,0,0,1,1.72,6,8.46,8.46,0,0,0,.13-.89c.24-2.85-1-5.07-1.74-7.7q-.23-.87-.43-1.76Z"/><path class="cls-13" d="M61.67,111.1c.37,1.38.8,2.82,1.3,4.36a28.38,28.38,0,0,1,1.72,6,8.46,8.46,0,0,0,.13-.89c.24-2.85-1-5.07-1.74-7.7q-.23-.87-.43-1.76Z"/><path class="cls-7" d="M58.74,128.93a15.76,15.76,0,0,0,.91,2.05c.44-.07.88-.14,1.32-.23l.2,0a20.88,20.88,0,0,1-1.37-2.25,4.83,4.83,0,0,1-1.19-1C58.13,126.93,58.69,128.8,58.74,128.93Z"/><path class="cls-11" d="M58.74,128.93a15.76,15.76,0,0,0,.91,2.05c.44-.07.88-.14,1.32-.23l.2,0a20.88,20.88,0,0,1-1.37-2.25,4.83,4.83,0,0,1-1.19-1C58.13,126.93,58.69,128.8,58.74,128.93Z"/><path class="cls-13" d="M58.74,128.93a15.76,15.76,0,0,0,.91,2.05c.44-.07.88-.14,1.32-.23l.2,0a20.88,20.88,0,0,1-1.37-2.25,4.83,4.83,0,0,1-1.19-1C58.13,126.93,58.69,128.8,58.74,128.93Z"/><path class="cls-3" d="M21.76,39.84a4.09,4.09,0,0,1,3.54.09,5.37,5.37,0,0,1,1.16.8c-.06-2.53-.06-4.78,0-6.79l0,.06c0-.9.09-1.75.15-2.56q0-.7.1-1.35l-.3.4-.07.11a37.79,37.79,0,0,1,5.1-10.3,32,32,0,0,0-2.22,2.3c-.25.29-.5.57-.74.86l-.38.48c-.24.31-.49.62-.71.94l-.29.42c-.24.34-.47.68-.69,1l-.17.28c-.24.39-.48.77-.7,1.16h0a31.81,31.81,0,0,0-3.82,12.12Z"/><path class="cls-5" d="M26.26,55a2.71,2.71,0,0,1-.48,0A2.74,2.74,0,0,0,26.26,55Z"/><path class="cls-5" d="M25.08,54.89a2.77,2.77,0,0,1-.56-.22,2.77,2.77,0,0,0,.56.22,3.88,3.88,0,0,0,.6.11A3.74,3.74,0,0,1,25.08,54.89Z"/><path class="cls-5" d="M22.85,53.14q-.2-.28-.4-.59Q22.65,52.86,22.85,53.14Z"/><path class="cls-5" d="M24.35,54.57a3.67,3.67,0,0,1-.36-.24A3.66,3.66,0,0,0,24.35,54.57Z"/><path class="cls-5" d="M23.31,53.7q-.17-.19-.33-.4C23.08,53.44,23.19,53.57,23.31,53.7Z"/><path class="cls-5" d="M22.43,52.51a15.07,15.07,0,0,1-1.14-2.33,8.15,8.15,0,0,0,2.92,2.07,5.61,5.61,0,0,0,2.88.42c0,.79.06,1.77.09,2a2.14,2.14,0,0,1-.9.32,2.11,2.11,0,0,0,.85-.28l.07,1.09c.3,4.34,1.19,6.7,3.35,9.15a60.17,60.17,0,0,0,6.21,5.61l0,0c1.45,1.21,3.09,2.58,5,4.23a9.28,9.28,0,0,0,12.33,0c2.26-2,4.16-3.54,5.79-4.91h0c3.4-2.84,5.55-4.71,6.88-6.91,0-1.19-.15-2.38-.31-3.57-.18-1.41-.37-2.85-.58-4.3a8.35,8.35,0,0,1-4.78,2.71A5.7,5.7,0,0,1,59,57.59c-2.78-.31-4.56-3-3.19-5.54,1.27-2.36,4.88-3.33,7.4-3.26a6.15,6.15,0,0,1,1.53.24c-.21-.85-.45-1.68-.72-2.5a4.74,4.74,0,0,1-2.59,1.11c-1.6.16-4.09-.47-4.87-1.82a1.67,1.67,0,0,1-.18-.46c-.45.2-1.13,0-1-.58a4.58,4.58,0,0,1,.93-1.66A5.19,5.19,0,0,1,57.3,42a5.34,5.34,0,0,1,1.64-1.16A11.75,11.75,0,0,1,60.87,40a38.29,38.29,0,0,0-2.62-3.36c-1.55.23-2.85.52-3.75.57-1.69.1-2.23-2-.52-2.2.95-.14,1.78-.24,2.53-.32-4.41-4.77-9.29-9.25-10.85-15.59l-.31-.47c-2.15,1-4.38,1.89-6.09,2.7A43.26,43.26,0,0,0,26.47,33.94c-.06,2-.06,4.27,0,6.79a5.37,5.37,0,0,0-1.16-.8,4.09,4.09,0,0,0-3.54-.09l-.09,0C19.41,41,19.79,43.81,20.13,46A20.45,20.45,0,0,0,22,51.79C22.15,52,22.29,52.28,22.43,52.51Zm7.81-9.28a2.31,2.31,0,0,1,.06-2.52c1.45-2,5.35-1.41,8.13.14A5.34,5.34,0,0,1,40.08,42,5.18,5.18,0,0,1,41,43.12,4.58,4.58,0,0,1,42,44.77c.17.54-.51.78-1,.58a1.67,1.67,0,0,1-.18.46c-.78,1.34-3.28,2-4.87,1.82a4.72,4.72,0,0,1-3.6-2.31,5.27,5.27,0,0,1-1.22-.92,2.18,2.18,0,0,1-2.41-1.25c-.05-.12.06-.27.16-.18A1.23,1.23,0,0,0,30.24,43.23Zm5.26,14.61a8.69,8.69,0,0,1-6.06-4.51,2.57,2.57,0,0,1,.4-3.16.68.68,0,0,1-.23-.28.59.59,0,0,1,.08-.64.85.85,0,0,1,.57-.29,1.71,1.71,0,0,1,.35,0A.72.72,0,0,1,31,49h0a.74.74,0,0,1,.29.19,6.1,6.1,0,0,1,2.07-.43c2.52-.07,6.13.9,7.4,3.26,1.37,2.54-.41,5.23-3.19,5.54A5.7,5.7,0,0,1,35.51,57.84ZM48.26,74.37a4.06,4.06,0,0,1-3-.45A1.53,1.53,0,0,1,45,71.57a3.3,3.3,0,0,1,2.33-.79,7.4,7.4,0,0,1,3.23.24,1.37,1.37,0,0,1,.76,1C51.64,73.69,49.45,74.23,48.26,74.37Zm6.5-12a12.7,12.7,0,0,0,3.88-.43l-.11-.14c-.21-.29.15-.67.46-.57.56.17,1.07.9.74,1.45a.44.44,0,0,1-.69.08,1.13,1.13,0,0,1-.21-.46l0,0h0c-.2.12-.47.26-.77.41s-.47.5-.61.64c-.67.66-1.3,1.35-1.93,2-1.42,1.58-2.78,3.3-4.76,4.2a6.3,6.3,0,0,1-4.89.06,10.7,10.7,0,0,1-3.07-2.32c-.43-.41-3.24-3.44-4.55-4.46l-.49-.24a.91.91,0,0,1-.17.36.44.44,0,0,1-.69-.06c-.34-.55.15-1.29.7-1.47.3-.1.68.27.47.56l-.13.18a11.56,11.56,0,0,0,3.7.31c1.3-.21,2.55-.69,3.85-.9a3.65,3.65,0,0,1,2.43.61l.59,0a3.65,3.65,0,0,1,2.4-.65C52.2,61.72,53.45,62.18,54.76,62.35ZM46,54.41a.85.85,0,0,1,.57-.29,1.71,1.71,0,0,1,.35,0,.73.73,0,0,1,.38.11h0a.73.73,0,0,1,.5.8.71.71,0,0,1-.68.63h-.07a.73.73,0,0,1-.37,0,2,2,0,0,1-.32-.14.87.87,0,0,1-.48-.43A.59.59,0,0,1,46,54.41Zm-1.85,2.28c.76-.79,1.63-.31,2.52-.06,1.61.44,3-.28,4.56-.45a.15.15,0,0,1,.13.22A4.88,4.88,0,0,1,48,58.5c-1.61.1-2.43-1-3.79-1.65A.11.11,0,0,1,44.16,56.69ZM30.52,35.23c3.85-.92,4.53-1.58,11.74,0,1.68.37,1,2.38-.69,2.16S36.73,36,33,35.89C32,35.88,25.32,36.47,30.52,35.23ZM21.9,42.17a2,2,0,0,1,2.8.74,6.48,6.48,0,0,1,1.16,3.22,4.1,4.1,0,0,1-1,3.15c-.07.1-.23,0-.22-.11a9.87,9.87,0,0,0-.38-3.31,4.34,4.34,0,0,0-.79-1.34c0,.16,0,.31,0,.47a1.21,1.21,0,0,1-2.28.72A2.77,2.77,0,0,1,21.9,42.17Z"/><path class="cls-5" d="M23.8,54.18l-.33-.31Z"/><path class="cls-3" d="M25.78,55h0Z"/><path class="cls-6" d="M25.78,55h0Z"/><path class="cls-3" d="M26.29,55h0Z"/><path class="cls-6" d="M26.29,55h0Z"/><path class="cls-3" d="M23,53.3l-.12-.16Z"/><path class="cls-6" d="M23,53.3l-.12-.16Z"/><path class="cls-3" d="M22.46,52.55l0,0Z"/><path class="cls-6" d="M22.46,52.55l0,0Z"/><path class="cls-3" d="M24.52,54.67l-.17-.1Z"/><path class="cls-6" d="M24.52,54.67l-.17-.1Z"/><path class="cls-3" d="M23.47,53.87l-.16-.17Z"/><path class="cls-6" d="M23.47,53.87l-.16-.17Z"/><path class="cls-3" d="M24,54.33l-.18-.15Z"/><path class="cls-6" d="M24,54.33l-.18-.15Z"/><path class="cls-5" d="M27.18,54.67c0-.23-.07-1.21-.09-2a5.61,5.61,0,0,1-2.88-.42,8.15,8.15,0,0,1-2.92-2.07,15.07,15.07,0,0,0,1.14,2.33l0,0q.19.31.4.59l.12.16q.16.21.33.4l.16.17.33.31.18.15a3.67,3.67,0,0,0,.36.24l.17.1a2.77,2.77,0,0,0,.56.22,3.74,3.74,0,0,0,.6.11h.1a2.71,2.71,0,0,0,.48,0h0A2.14,2.14,0,0,0,27.18,54.67Z"/><path class="cls-6" d="M27.18,54.67c0-.23-.07-1.21-.09-2a5.61,5.61,0,0,1-2.88-.42,8.15,8.15,0,0,1-2.92-2.07,15.07,15.07,0,0,0,1.14,2.33l0,0q.19.31.4.59l.12.16q.16.21.33.4l.16.17.33.31.18.15a3.67,3.67,0,0,0,.36.24l.17.1a2.77,2.77,0,0,0,.56.22,3.74,3.74,0,0,0,.6.11h.1a2.71,2.71,0,0,0,.48,0h0A2.14,2.14,0,0,0,27.18,54.67Z"/><path class="cls-5" d="M23.53,45c0-.16,0-.31,0-.47a4.34,4.34,0,0,1,.79,1.34,9.87,9.87,0,0,1,.38,3.31c0,.13.15.2.22.11a4.1,4.1,0,0,0,1-3.15,6.48,6.48,0,0,0-1.16-3.22,2,2,0,0,0-2.8-.74,2.77,2.77,0,0,0-.65,3.54A1.21,1.21,0,0,0,23.53,45Z"/><path class="cls-6" d="M23.53,45c0-.16,0-.31,0-.47a4.34,4.34,0,0,1,.79,1.34,9.87,9.87,0,0,1,.38,3.31c0,.13.15.2.22.11a4.1,4.1,0,0,0,1-3.15,6.48,6.48,0,0,0-1.16-3.22,2,2,0,0,0-2.8-.74,2.77,2.77,0,0,0-.65,3.54A1.21,1.21,0,0,0,23.53,45Z"/><path class="cls-5" d="M40.81,52c-1.27-2.36-4.88-3.33-7.4-3.26a6.1,6.1,0,0,0-2.07.43.72.72,0,0,1,.21.61.71.71,0,0,1-.68.63H30.8a.73.73,0,0,1-.37,0,2,2,0,0,1-.32-.14,1.42,1.42,0,0,1-.25-.15,2.57,2.57,0,0,0-.4,3.16,8.69,8.69,0,0,0,6.06,4.51,5.7,5.7,0,0,0,2.11-.25C40.4,57.28,42.18,54.59,40.81,52Z"/><path class="cls-14" d="M40.81,52c-1.27-2.36-4.88-3.33-7.4-3.26a6.1,6.1,0,0,0-2.07.43.72.72,0,0,1,.21.61.71.71,0,0,1-.68.63H30.8a.73.73,0,0,1-.37,0,2,2,0,0,1-.32-.14,1.42,1.42,0,0,1-.25-.15,2.57,2.57,0,0,0-.4,3.16,8.69,8.69,0,0,0,6.06,4.51,5.7,5.7,0,0,0,2.11-.25C40.4,57.28,42.18,54.59,40.81,52Z"/><path class="cls-5" d="M30.42,50.45a.73.73,0,0,0,.37,0h.07a.71.71,0,0,0,.68-.63.72.72,0,0,0-.21-.61,4.31,4.31,0,0,0-1.49,1,1.42,1.42,0,0,0,.25.15A2,2,0,0,0,30.42,50.45Z"/><path class="cls-10" d="M30.42,50.45a.73.73,0,0,0,.37,0h.07a.71.71,0,0,0,.68-.63.72.72,0,0,0-.21-.61,4.31,4.31,0,0,0-1.49,1,1.42,1.42,0,0,0,.25.15A2,2,0,0,0,30.42,50.45Z"/><path class="cls-14" d="M30.42,50.45a.73.73,0,0,0,.37,0h.07a.71.71,0,0,0,.68-.63.72.72,0,0,0-.21-.61,4.31,4.31,0,0,0-1.49,1,1.42,1.42,0,0,0,.25.15A2,2,0,0,0,30.42,50.45Z"/><path class="cls-5" d="M58.35,43.18a2,2,0,0,1,.49-.48,4.08,4.08,0,0,0-1.21.69l.13-.05Z"/><path class="cls-6" d="M58.35,43.18a2,2,0,0,1,.49-.48,4.08,4.08,0,0,0-1.21.69l.13-.05Z"/><path class="cls-5" d="M56.35,44.9l-.16.25c-.22.39-.68.11-.51-.41A7.26,7.26,0,0,1,57.3,42a5.19,5.19,0,0,0-.95,1.11,4.58,4.58,0,0,0-.93,1.66c-.17.54.51.78,1,.58A1.47,1.47,0,0,1,56.35,44.9Z"/><path class="cls-6" d="M56.35,44.9l-.16.25c-.22.39-.68.11-.51-.41A7.26,7.26,0,0,1,57.3,42a5.19,5.19,0,0,0-.95,1.11,4.58,4.58,0,0,0-.93,1.66c-.17.54.51.78,1,.58A1.47,1.47,0,0,1,56.35,44.9Z"/><path class="cls-5" d="M60.87,40a11.75,11.75,0,0,0-1.92.86,5,5,0,0,1,2.2-.44Z"/><path class="cls-6" d="M60.87,40a11.75,11.75,0,0,0-1.92.86,5,5,0,0,1,2.2-.44Z"/><path class="cls-5" d="M61.15,40.42h.25a7.41,7.41,0,0,1,3.75,1.48c-.43-.81-.88-1.63-1.38-2.45a9.87,9.87,0,0,0-2.9.55Z"/><path class="cls-6" d="M61.15,40.42h.25a7.41,7.41,0,0,1,3.75,1.48c-.43-.81-.88-1.63-1.38-2.45a9.87,9.87,0,0,0-2.9.55Z"/><path class="cls-6" d="M61.15,40.42h.25a7.41,7.41,0,0,1,3.75,1.48c-.43-.81-.88-1.63-1.38-2.45a9.87,9.87,0,0,0-2.9.55Z"/><path class="cls-5" d="M65.2,45c0,.1-.11.2-.17.3a5.22,5.22,0,0,0,1.13-.82l0-.12a4.74,4.74,0,0,1-.92-.24A1,1,0,0,1,65.2,45Z"/><path class="cls-6" d="M65.2,45c0,.1-.11.2-.17.3a5.22,5.22,0,0,0,1.13-.82l0-.12a4.74,4.74,0,0,1-.92-.24A1,1,0,0,1,65.2,45Z"/><path class="cls-6" d="M65.2,45c0,.1-.11.2-.17.3a5.22,5.22,0,0,0,1.13-.82l0-.12a4.74,4.74,0,0,1-.92-.24A1,1,0,0,1,65.2,45Z"/><path class="cls-15" d="M65,45.33c.06-.1.12-.2.17-.3a1,1,0,0,0,0-.88,6.51,6.51,0,0,1-.94-.42,12.32,12.32,0,0,0-1.9-.87l-.13,0a3.92,3.92,0,0,1,.95.76,2,2,0,0,1,.54,2C63.2,47.21,60.41,47.74,59,47a2.35,2.35,0,0,1-.58-.44,2.51,2.51,0,0,1-.56-2.14,2.66,2.66,0,0,1,.46-1.25l-.58.15-.13.05a6,6,0,0,0-1.28,1.51,1.47,1.47,0,0,0,0,.45,1.67,1.67,0,0,0,.18.46c.78,1.34,3.28,2,4.87,1.82A4.74,4.74,0,0,0,64,46.53,4.57,4.57,0,0,0,65,45.33Z"/><path class="cls-16" d="M58.35,43.18a2.66,2.66,0,0,0-.46,1.25,2.51,2.51,0,0,0,.56,2.14A2.35,2.35,0,0,0,59,47c1.39.74,4.18.2,4.7-1.46a2,2,0,0,0-.54-2,3.92,3.92,0,0,0-.95-.76l-.08-.05a5.1,5.1,0,0,0-3.32-.09A2,2,0,0,0,58.35,43.18Zm4.45,2.11a.57.57,0,0,1-.4.49c0,.06-.05.11-.1.17a1.17,1.17,0,0,1-.28.24,2.59,2.59,0,0,1-2.59.25,1.58,1.58,0,0,1-.39-.29,1.84,1.84,0,0,1-.37-1.33.41.41,0,0,1,.08-.74c.55-2,4-1.13,4,.72A1.25,1.25,0,0,1,62.8,45.29Z"/><path class="cls-3" d="M58.75,44.08a.49.49,0,0,1,.16,0,.42.42,0,1,1,0,.83.46.46,0,0,1-.24-.07A1.84,1.84,0,0,0,59,46.15a1.58,1.58,0,0,0,.39.29A2.59,2.59,0,0,0,62,46.19a1.17,1.17,0,0,0,.28-.24c0-.06.06-.11.1-.17a.6.6,0,0,1-.8-.34,1.68,1.68,0,0,1,0-1.22c.08-.17.33-.18.49-.12a1.11,1.11,0,0,1,.6.7C62.72,42.94,59.31,42.08,58.75,44.08Z"/><path class="cls-17" d="M61.15,40.42a5,5,0,0,0-2.2.44A5.34,5.34,0,0,0,57.3,42a7.26,7.26,0,0,0-1.62,2.73c-.18.52.29.79.51.41l.16-.25a6,6,0,0,1,1.28-1.51,4.08,4.08,0,0,1,1.21-.69,5.1,5.1,0,0,1,3.32.09l.21.07a12.32,12.32,0,0,1,1.9.87,6.51,6.51,0,0,0,.94.42,4.74,4.74,0,0,0,.92.24c-.08-.34-.16-.68-.24-1-.23-.49-.49-1-.75-1.47a7.41,7.41,0,0,0-3.75-1.48Z"/><path class="cls-15" d="M62.12,44.1c-.16-.06-.41-.06-.49.12a1.68,1.68,0,0,0,0,1.22.6.6,0,0,0,.8.34.57.57,0,0,0,.4-.49,1.25,1.25,0,0,0-.08-.49A1.11,1.11,0,0,0,62.12,44.1Z"/><path class="cls-15" d="M58.91,44a.49.49,0,0,0-.16,0,.41.41,0,0,0-.08.74.46.46,0,0,0,.24.07A.42.42,0,1,0,58.91,44Z"/><path class="cls-5" d="M63.22,48.79c-2.52-.07-6.13.9-7.4,3.26-1.37,2.54.41,5.23,3.19,5.54a5.7,5.7,0,0,0,2.11.25,8.35,8.35,0,0,0,4.78-2.71c-.3-2-.66-4.1-1.16-6.1A6.15,6.15,0,0,0,63.22,48.79Z"/><path class="cls-14" d="M63.22,48.79c-2.52-.07-6.13.9-7.4,3.26-1.37,2.54.41,5.23,3.19,5.54a5.7,5.7,0,0,0,2.11.25,8.35,8.35,0,0,0,4.78-2.71c-.3-2-.66-4.1-1.16-6.1A6.15,6.15,0,0,0,63.22,48.79Z"/><path class="cls-5" d="M66.75,50.14a.72.72,0,0,1-.55.31h-.07a.73.73,0,0,1-.37,0,2,2,0,0,1-.32-.14.87.87,0,0,1-.48-.43.59.59,0,0,1,.08-.64.56.56,0,0,1,.11-.09L64.75,49c.5,2,.86,4.06,1.16,6.1a7.94,7.94,0,0,0,1.28-1.81A2.57,2.57,0,0,0,66.75,50.14Z"/><path class="cls-6" d="M66.75,50.14a.72.72,0,0,1-.55.31h-.07a.73.73,0,0,1-.37,0,2,2,0,0,1-.32-.14.87.87,0,0,1-.48-.43.59.59,0,0,1,.08-.64.56.56,0,0,1,.11-.09L64.75,49c.5,2,.86,4.06,1.16,6.1a7.94,7.94,0,0,0,1.28-1.81A2.57,2.57,0,0,0,66.75,50.14Z"/><path class="cls-14" d="M66.75,50.14a.72.72,0,0,1-.55.31h-.07a.73.73,0,0,1-.37,0,2,2,0,0,1-.32-.14.87.87,0,0,1-.48-.43.59.59,0,0,1,.08-.64.56.56,0,0,1,.11-.09L64.75,49c.5,2,.86,4.06,1.16,6.1a7.94,7.94,0,0,0,1.28-1.81A2.57,2.57,0,0,0,66.75,50.14Z"/><path class="cls-5" d="M65,49.89a.87.87,0,0,0,.48.43,2,2,0,0,0,.32.14.73.73,0,0,0,.37,0h.07a.72.72,0,0,0,.55-.31,4.44,4.44,0,0,0-1.61-1,.56.56,0,0,0-.11.09A.59.59,0,0,0,65,49.89Z"/><path class="cls-6" d="M65,49.89a.87.87,0,0,0,.48.43,2,2,0,0,0,.32.14.73.73,0,0,0,.37,0h.07a.72.72,0,0,0,.55-.31,4.44,4.44,0,0,0-1.61-1,.56.56,0,0,0-.11.09A.59.59,0,0,0,65,49.89Z"/><path class="cls-10" d="M65,49.89a.87.87,0,0,0,.48.43,2,2,0,0,0,.32.14.73.73,0,0,0,.37,0h.07a.72.72,0,0,0,.55-.31,4.44,4.44,0,0,0-1.61-1,.56.56,0,0,0-.11.09A.59.59,0,0,0,65,49.89Z"/><path class="cls-14" d="M65,49.89a.87.87,0,0,0,.48.43,2,2,0,0,0,.32.14.73.73,0,0,0,.37,0h.07a.72.72,0,0,0,.55-.31,4.44,4.44,0,0,0-1.61-1,.56.56,0,0,0-.11.09A.59.59,0,0,0,65,49.89Z"/><path class="cls-3" d="M77.84,16.45c.11.19.2.38.3.57.22.4.46.79.66,1.2-.42-.82-.86-1.61-1.33-2.4.12.21.23.42.35.63Z"/><path class="cls-3" d="M45.66,1.84l.26-.2Z"/><path class="cls-3" d="M46.48,1.25a7.79,7.79,0,0,1,.89-.47A7.16,7.16,0,0,0,46.48,1.25Z"/><path class="cls-3" d="M70.6,7.5a24.51,24.51,0,0,0-4.12-2.84L65.42,4.1l1.07.56A24.51,24.51,0,0,1,70.6,7.5Z"/><path class="cls-3" d="M80.23,21.32q.46,1.09.87,2.21Q80.69,22.41,80.23,21.32Z"/><path class="cls-3" d="M76,13.49q.59.84,1.13,1.72Q76.56,14.34,76,13.49Z"/><path class="cls-3" d="M73.85,10.72c.59.69,1.14,1.4,1.67,2.13C75,12.12,74.43,11.41,73.85,10.72Z"/><path class="cls-3" d="M90,97.25a82,82,0,0,1,2.45,9.4,50.64,50.64,0,0,1-.33,6.31c.1-.81.15-1.62.21-2.44a50.92,50.92,0,0,0,0-7.33v0a51.82,51.82,0,0,0-1.12-7.46,52.24,52.24,0,0,0-1.95-6.61c-1-2.77-2.1-5.55-2.93-8.39C86,86.5,88.21,91.78,90,97.25Z"/><path class="cls-3" d="M83.6,33.4C85,44.17,83.16,54.67,80.06,65c-2.82,9.38-6.8,18.4-7.07,28.34a40.6,40.6,0,0,0,1.88,13.46c2.22,6.93,5.44,13.65,1,20.51-2.38,3.69-7.07,7.35-11.36,4.25a6.62,6.62,0,0,1-2-2.13,4.25,4.25,0,0,0,2.61.52,3.38,3.38,0,0,0,2-1.48c2.89-4.18,2.11-9.25.3-13.69-2.27-5.56-4-10.83-3.75-16.94.27-5.79,2.3-11.4,4-16.88,1.12-3.6,2.31-7.18,3.56-10.74a1.8,1.8,0,0,0,.17-.47q1-2.85,2-5.68a61.88,61.88,0,0,0,3.73-15.61c.58-6.28.13-13-2.41-18.84-.06-.14-.13-.26-.19-.4h0q-.39-.86-.81-1.63h0a22.65,22.65,0,0,0-6.12-7.31h0a9.57,9.57,0,0,0-2.83-1.68c4,2.6,6.17,6.82,7.43,11.29h0c.35,1.24.64,2.49.88,3.74a59.52,59.52,0,0,1,0,20.93c-.36,2.18-.82,4.33-1.36,6.46.67-2.68-.2-6.72-.63-9.42a35.71,35.71,0,0,0-2.58-8.93A30.37,30.37,0,0,0,60.71,32q-.63-.54-1.28-1.05c-.47-.36-.94-.71-1.42-1a58.46,58.46,0,0,1-9.32-7.15,49.75,49.75,0,0,0,4.56,4.44,54,54,0,0,1,7.05,7.29,23.77,23.77,0,0,0-3.8.16c-.75.08-1.58.19-2.53.32-1.7.24-1.16,2.3.52,2.2.91-.05,2.2-.34,3.75-.57a25.92,25.92,0,0,1,3.43-.31c.75,1,1.46,2.08,2.09,3.11.5.82,1,1.64,1.38,2.45.26.49.52,1,.75,1.47.08.34.16.68.24,1l0,.12c.86,3.72,1.89,7.34,2.54,11.07a38.44,38.44,0,0,1,.63,7c-.06,7.77-4.31,14.62-6.21,22,0,.17-.08.34-.12.51l-.1.43A57.42,57.42,0,0,0,62,107.52h0q.28,1.8.68,3.58.2.88.43,1.76c.7,2.64,2,4.85,1.74,7.7a8.46,8.46,0,0,1-.13.89c-.6,3.1-3,6.79-6,3.4-.47-.53.09,1.35.14,1.48a15.84,15.84,0,0,0,.94,2.12,20.88,20.88,0,0,0,1.37,2.25l.28.41A15.2,15.2,0,0,0,74.54,137a14.65,14.65,0,0,0,4.48-1c-1.21.26-2.87.3-3.12.55a16.3,16.3,0,0,0,3-4c2.5-4.85,2.27-10.63,1.63-15.9a45.56,45.56,0,0,0-.84-8.38c-.08-.4-.16-.8-.24-1.19-1.48-4.62-3-9.26-3.27-14.17-.81-12.47,4-24.81,7.4-36.6.67-2.32,1.39-4.71,2-7.13.25,7.11.33,14.08-1.24,21.19.24-.59.49-1.19.72-1.78h0c.18-2.18.45-4.36.57-6.59a118.84,118.84,0,0,0-.3-17.92A95.9,95.9,0,0,0,83,29.83c.23.93.45,1.86.65,2.8A1.65,1.65,0,0,0,83.6,33.4Z"/><path class="cls-3" d="M79.28,19.23c.24.5.48,1,.7,1.5-.36-.83-.74-1.65-1.14-2.45.07.15.14.3.21.44Z"/><path class="cls-3" d="M82,26.31h0c.33,1.05.63,2.12.91,3.19-.48-1.88-1-3.75-1.69-5.57.28.78.54,1.58.79,2.38Z"/><path class="cls-3" d="M82.72,79.58A38.67,38.67,0,0,0,81,87.77c-.61,7,1.48,13.77,3.22,20.49,1.89,7.26,2.9,15.37-.41,22.33q-.31.65-.67,1.28a12,12,0,0,1-2.81,3.63,16.16,16.16,0,0,0,5.45-4.67,22.42,22.42,0,0,0,1.36-2,38.27,38.27,0,0,0,4.51-12.78c.18-1,.33-2,.45-3.05a46.55,46.55,0,0,0-1.65-5.88C89,103,87.17,99.07,86.11,94.9c1,4.81,2.78,9.55,3.8,14.51a28.55,28.55,0,0,1-1.75,16.95,13.06,13.06,0,0,1-4.35,5.17,18.3,18.3,0,0,0,3.4-11.25c-.08-5-1.64-9.77-2.78-14.59-1.67-7-1-12.84.82-19.37,0,.07,0,.14,0,.21a32.29,32.29,0,0,1,.93-6.24h0a37.29,37.29,0,0,1-.95-4.14,23.75,23.75,0,0,1-.29-3.24l-.21.62A33.92,33.92,0,0,0,82.72,79.58Z"/><path class="cls-3" d="M53.93.18c.41.06.83.13,1.24.21C54.75.31,54.34.23,53.93.18Z"/><path class="cls-3" d="M53.87.17h0Z"/><path class="cls-3" d="M47.51.72l.38-.14Z"/><path class="cls-3" d="M53,.07h0Z"/><path class="cls-3" d="M85.22,87.83s0-.1,0-.15S85.22,87.78,85.22,87.83Z"/><path class="cls-3" d="M77.77,98.35c-.07-.83-.12-1.67-.15-2.51A45.83,45.83,0,0,1,78.84,83.7a94.86,94.86,0,0,1,4-9.62c.54-1.2,1.06-2.41,1.55-3.62,1.58-7.11,1.49-14.07,1.24-21.19-.64,2.42-1.36,4.8-2,7.13-3.42,11.79-8.21,24.12-7.4,36.6.32,4.91,1.8,9.54,3.27,14.17C78.87,104.23,78.2,101.3,77.77,98.35Z"/><path class="cls-18" d="M77.77,98.35c-.07-.83-.12-1.67-.15-2.51A45.83,45.83,0,0,1,78.84,83.7a94.86,94.86,0,0,1,4-9.62c.54-1.2,1.06-2.41,1.55-3.62,1.58-7.11,1.49-14.07,1.24-21.19-.64,2.42-1.36,4.8-2,7.13-3.42,11.79-8.21,24.12-7.4,36.6.32,4.91,1.8,9.54,3.27,14.17C78.87,104.23,78.2,101.3,77.77,98.35Z"/><path class="cls-3" d="M85.21,88.84c0-.34,0-.67,0-1,0,0,0-.1,0-.15,0-.38,0-.76,0-1.13,0-.07,0-.14,0-.21-1.85,6.52-2.49,12.32-.82,19.37,1.15,4.82,2.7,9.59,2.78,14.59a18.3,18.3,0,0,1-3.4,11.25,13.06,13.06,0,0,0,4.35-5.17,28.55,28.55,0,0,0,1.75-16.95c-1-5-2.75-9.71-3.8-14.51A27,27,0,0,1,85.21,88.84Z"/><path class="cls-18" d="M85.21,88.84c0-.34,0-.67,0-1,0,0,0-.1,0-.15,0-.38,0-.76,0-1.13,0-.07,0-.14,0-.21-1.85,6.52-2.49,12.32-.82,19.37,1.15,4.82,2.7,9.59,2.78,14.59a18.3,18.3,0,0,1-3.4,11.25,13.06,13.06,0,0,0,4.35-5.17,28.55,28.55,0,0,0,1.75-16.95c-1-5-2.75-9.71-3.8-14.51A27,27,0,0,1,85.21,88.84Z"/><path class="cls-12" d="M85.25,86.55c0,.38,0,.76,0,1.13q0,.07,0,.15c0,.34,0,.67,0,1a27,27,0,0,0,.89,6.07c1.07,4.16,2.88,8.13,4.33,12.22A46.55,46.55,0,0,1,92.08,113h0v0a50.64,50.64,0,0,0,.33-6.31A82,82,0,0,0,90,97.25C88.21,91.78,86,86.5,86.29,80.72v0l-.12-.38h0A32.27,32.27,0,0,0,85.25,86.55Z"/><path class="cls-12" d="M84.37,70.46c-.5,1.21-1,2.42-1.55,3.62a94.86,94.86,0,0,0-4,9.62,45.83,45.83,0,0,0-1.23,12.14c0,.84.08,1.68.15,2.51.43,3,1.1,5.88,1.69,8.82.08.4.16.79.24,1.19a45.56,45.56,0,0,1,.84,8.38c.65,5.27.87,11-1.63,15.9a16.3,16.3,0,0,1-3,4c.24-.25,1.91-.29,3.12-.55a3,3,0,0,0,1-.37c.08-.06.15-.14.23-.2a12,12,0,0,0,2.81-3.63q.36-.63.67-1.28c3.31-7,2.3-15.07.41-22.33-1.74-6.71-3.83-13.47-3.22-20.49a38.67,38.67,0,0,1,1.76-8.19,33.92,33.92,0,0,1,2-6l.21-.62h0a40.43,40.43,0,0,1,.14-4.26h0C84.86,69.27,84.61,69.87,84.37,70.46Z"/><path class="cls-12" d="M80.19,27.23l-.24.12c-1,.38-2,.74-2.94,1.08-.81.28-1.63.54-2.45.79.06.14.13.26.19.4,2.54,5.83,3,12.56,2.41,18.84a61.88,61.88,0,0,1-3.73,15.61q-1,2.83-2,5.68a1.8,1.8,0,0,1-.17.47C70,73.78,68.79,77.36,67.67,81c-1.71,5.49-3.73,11.1-4,16.88-.29,6.11,1.48,11.38,3.75,16.94,1.81,4.44,2.59,9.5-.3,13.69a3.38,3.38,0,0,1-2,1.48,4.25,4.25,0,0,1-2.61-.52,6.62,6.62,0,0,0,2,2.13c4.29,3.1,9-.56,11.36-4.25,4.43-6.87,1.21-13.58-1-20.51A40.6,40.6,0,0,1,73,93.33c.27-9.94,4.25-19,7.07-28.34C83.16,54.67,85,44.17,83.6,33.4a1.65,1.65,0,0,1,.07-.77c-.2-.94-.41-1.87-.65-2.8l-.08-.33c-.27-1.07-.58-2.13-.91-3.19Z"/><path class="cls-12" d="M79,18.73c-.07-.15-.13-.3-.21-.44l0-.06c-.21-.41-.44-.8-.66-1.2C78.45,17.58,78.76,18.15,79,18.73Z"/><path class="cls-12" d="M82,26.31c-.25-.8-.51-1.59-.79-2.38l-.15-.41q-.41-1.12-.87-2.21L80,20.73c-.22-.51-.46-1-.7-1.5A52.49,52.49,0,0,1,82,26.31Z"/><path class="cls-12" d="M73.75,27.59h0Z"/><path class="cls-12" d="M65.9,31.34l-1.81.31c1.18-.21-1.19.18-1.71.23L60.71,32h0a30.37,30.37,0,0,1,7.87,10.63,35.71,35.71,0,0,1,2.58,8.93c.43,2.7,1.3,6.74.63,9.42.54-2.13,1-4.29,1.36-6.46a59.52,59.52,0,0,0,0-20.93c-.24-1.25-.53-2.5-.88-3.74C70.15,30.45,68,30.94,65.9,31.34Z"/><path class="cls-9" d="M14.4,123.19a93.62,93.62,0,0,1-1.27,13l2.29.51C15.87,128.1,14.4,123.19,14.4,123.19Z"/><polygon class="cls-3" points="72.24 29.88 72.24 29.88 72.24 29.88 72.24 29.88"/><polygon class="cls-19" points="72.24 29.88 72.24 29.88 72.24 29.88 72.24 29.88"/><path class="cls-3" d="M59.43,31q.65.51,1.28,1.05C60.3,31.67,59.87,31.31,59.43,31Z"/><path class="cls-19" d="M59.43,31q.65.51,1.28,1.05C60.3,31.67,59.87,31.31,59.43,31Z"/><path class="cls-12" d="M60.71,32l1.67-.14c.52-.05,2.89-.44,1.71-.23l1.81-.31c2.13-.4,4.24-.89,6.33-1.46h0a21,21,0,0,0-5.16-9.45,82.29,82.29,0,0,1-17.42,3.28A67.51,67.51,0,0,0,58,29.94c.49.33,1,.68,1.42,1s.86.69,1.28,1.05Z"/><path class="cls-19" d="M60.71,32l1.67-.14c.52-.05,2.89-.44,1.71-.23l1.81-.31c2.13-.4,4.24-.89,6.33-1.46h0a21,21,0,0,0-5.16-9.45,82.29,82.29,0,0,1-17.42,3.28A67.51,67.51,0,0,0,58,29.94c.49.33,1,.68,1.42,1s.86.69,1.28,1.05Z"/><polygon class="cls-3" points="82.04 26.31 82.04 26.31 82.04 26.31 82.04 26.31"/><polygon class="cls-19" points="82.04 26.31 82.04 26.31 82.04 26.31 82.04 26.31"/><path class="cls-3" d="M74.56,29.22h0q-.39-.86-.81-1.63Q74.16,28.36,74.56,29.22Z"/><path class="cls-19" d="M74.56,29.22h0q-.39-.86-.81-1.63Q74.16,28.36,74.56,29.22Z"/><path class="cls-3" d="M79,18.73l.24.5Z"/><path class="cls-19" d="M79,18.73l.24.5Z"/><path class="cls-3" d="M77.84,16.45h0l.31.56C78,16.83,77.94,16.64,77.84,16.45Z"/><path class="cls-19" d="M77.84,16.45h0l.31.56C78,16.83,77.94,16.64,77.84,16.45Z"/><path class="cls-3" d="M73.74,27.58a22.65,22.65,0,0,0-6.11-7.32h0A22.65,22.65,0,0,1,73.74,27.58Z"/><path class="cls-19" d="M73.74,27.58a22.65,22.65,0,0,0-6.11-7.32h0A22.65,22.65,0,0,1,73.74,27.58Z"/><path class="cls-12" d="M73.74,27.58h0q.42.78.81,1.63c.82-.25,1.64-.51,2.45-.79,1-.34,2-.71,2.94-1.08l.24-.12L82,26.31h0a52.49,52.49,0,0,0-2.76-7.08l-.24-.5c-.29-.58-.59-1.14-.9-1.71l-.31-.56a91.71,91.71,0,0,1-10.19,3.81A22.65,22.65,0,0,1,73.74,27.58Z"/><path class="cls-19" d="M73.74,27.58h0q.42.78.81,1.63c.82-.25,1.64-.51,2.45-.79,1-.34,2-.71,2.94-1.08l.24-.12L82,26.31h0a52.49,52.49,0,0,0-2.76-7.08l-.24-.5c-.29-.58-.59-1.14-.9-1.71l-.31-.56a91.71,91.71,0,0,1-10.19,3.81A22.65,22.65,0,0,1,73.74,27.58Z"/><polygon class="cls-3" points="18.8 24.78 18.8 24.78 18.8 24.77 18.8 24.78"/><polygon class="cls-19" points="18.8 24.78 18.8 24.78 18.8 24.77 18.8 24.78"/><path class="cls-12" d="M26.36,26.33c.22-.34.45-.68.69-1l.29-.42c.23-.31.47-.63.71-.94l.38-.48c.24-.29.49-.58.74-.86l.29-.34A58.27,58.27,0,0,1,22.06,20c-.45-.17-.88-.35-1.3-.55a54,54,0,0,0-2,5.31h0l2.84,1.47.53.28c.6.24,1.21.49,1.82.71s1,.35,1.5.53c.22-.39.46-.78.7-1.16Z"/><path class="cls-19" d="M26.36,26.33c.22-.34.45-.68.69-1l.29-.42c.23-.31.47-.63.71-.94l.38-.48c.24-.29.49-.58.74-.86l.29-.34A58.27,58.27,0,0,1,22.06,20c-.45-.17-.88-.35-1.3-.55a54,54,0,0,0-2,5.31h0l2.84,1.47.53.28c.6.24,1.21.49,1.82.71s1,.35,1.5.53c.22-.39.46-.78.7-1.16Z"/><path class="cls-3" d="M29.17,22.6c-.25.29-.5.57-.74.86C28.67,23.17,28.92,22.89,29.17,22.6Z"/><path class="cls-19" d="M29.17,22.6c-.25.29-.5.57-.74.86C28.67,23.17,28.92,22.89,29.17,22.6Z"/><path class="cls-3" d="M27,25.31c-.24.34-.47.68-.69,1C26.57,26,26.81,25.65,27,25.31Z"/><path class="cls-19" d="M27,25.31c-.24.34-.47.68-.69,1C26.57,26,26.81,25.65,27,25.31Z"/><path class="cls-3" d="M26.19,26.6c-.24.39-.48.77-.7,1.16h0C25.71,27.38,25.95,27,26.19,26.6Z"/><path class="cls-19" d="M26.19,26.6c-.24.39-.48.77-.7,1.16h0C25.71,27.38,25.95,27,26.19,26.6Z"/><path class="cls-3" d="M27.34,24.89c.23-.31.47-.63.71-.94C27.81,24.26,27.57,24.57,27.34,24.89Z"/><path class="cls-19" d="M27.34,24.89c.23-.31.47-.63.71-.94C27.81,24.26,27.57,24.57,27.34,24.89Z"/><path class="cls-5" d="M35.48,23.35h0a28.14,28.14,0,0,0-7.54,5.24h0A28.2,28.2,0,0,1,35.48,23.35Z"/><path class="cls-6" d="M35.48,23.35h0a28.14,28.14,0,0,0-7.54,5.24h0A28.2,28.2,0,0,1,35.48,23.35Z"/><path class="cls-19" d="M35.48,23.35h0a28.14,28.14,0,0,0-7.54,5.24h0A28.2,28.2,0,0,1,35.48,23.35Z"/><path class="cls-12" d="M35.48,23.35c-1.83-.24-3.65-.56-5.45-1a41.11,41.11,0,0,0-2.9,5.94l.81.25A28.14,28.14,0,0,1,35.48,23.35Z"/><path class="cls-19" d="M35.48,23.35c-1.83-.24-3.65-.56-5.45-1a41.11,41.11,0,0,0-2.9,5.94l.81.25A28.14,28.14,0,0,1,35.48,23.35Z"/><path class="cls-5" d="M50.56,71a7.4,7.4,0,0,0-3.23-.24,3.3,3.3,0,0,0-2.33.79,1.53,1.53,0,0,0,.29,2.36,4.06,4.06,0,0,0,3,.45c1.19-.14,3.38-.69,3.05-2.34A1.37,1.37,0,0,0,50.56,71Z"/><path class="cls-20" d="M50.56,71a7.4,7.4,0,0,0-3.23-.24,3.3,3.3,0,0,0-2.33.79,1.53,1.53,0,0,0,.29,2.36,4.06,4.06,0,0,0,3,.45c1.19-.14,3.38-.69,3.05-2.34A1.37,1.37,0,0,0,50.56,71Z"/><path class="cls-3" d="M33,35.89c3.74.06,6.83,1.28,8.57,1.52s2.37-1.78.69-2.16c-7.21-1.61-7.89-1-11.74,0C25.32,36.47,32,35.88,33,35.89Z"/><path class="cls-5" d="M32.13,42A7.45,7.45,0,0,1,36,40.41a5,5,0,0,1,2.45.44c-2.78-1.56-6.68-2.16-8.13-.14a2.31,2.31,0,0,0-.06,2.52A8.43,8.43,0,0,0,32.13,42Z"/><path class="cls-6" d="M32.13,42A7.45,7.45,0,0,1,36,40.41a5,5,0,0,1,2.45.44c-2.78-1.56-6.68-2.16-8.13-.14a2.31,2.31,0,0,0-.06,2.52A8.43,8.43,0,0,0,32.13,42Z"/><path class="cls-5" d="M32.17,44.14a4.66,4.66,0,0,1-1,.27,5.27,5.27,0,0,0,1.22.92c-.06-.1-.12-.2-.17-.3A1,1,0,0,1,32.17,44.14Z"/><path class="cls-6" d="M32.17,44.14a4.66,4.66,0,0,1-1,.27,5.27,5.27,0,0,0,1.22.92c-.06-.1-.12-.2-.17-.3A1,1,0,0,1,32.17,44.14Z"/><path class="cls-5" d="M41.7,44.74c.18.52-.29.79-.51.41L41,44.9a1.48,1.48,0,0,1,0,.45c.45.2,1.13,0,1-.58A4.58,4.58,0,0,0,41,43.12,5.18,5.18,0,0,0,40.08,42,7.26,7.26,0,0,1,41.7,44.74Z"/><path class="cls-6" d="M41.7,44.74c.18.52-.29.79-.51.41L41,44.9a1.48,1.48,0,0,1,0,.45c.45.2,1.13,0,1-.58A4.58,4.58,0,0,0,41,43.12,5.18,5.18,0,0,0,40.08,42,7.26,7.26,0,0,1,41.7,44.74Z"/><path class="cls-5" d="M39,43.18l.58.15.13.05a4.08,4.08,0,0,0-1.21-.69A2,2,0,0,1,39,43.18Z"/><path class="cls-6" d="M39,43.18l.58.15.13.05a4.08,4.08,0,0,0-1.21-.69A2,2,0,0,1,39,43.18Z"/><path class="cls-15" d="M41,44.9a6,6,0,0,0-1.28-1.51l-.13-.05L39,43.18a2.66,2.66,0,0,1,.46,1.25,2.51,2.51,0,0,1-.56,2.14,2.35,2.35,0,0,1-.58.44c-1.39.74-4.18.2-4.7-1.46a2,2,0,0,1,.54-2,3.92,3.92,0,0,1,.95-.76l-.13,0a12.32,12.32,0,0,0-1.9.87,6.52,6.52,0,0,1-.94.42,1,1,0,0,0,0,.88c0,.1.11.2.17.3A4.72,4.72,0,0,0,36,47.63c1.6.16,4.09-.47,4.87-1.82a1.67,1.67,0,0,0,.18-.46A1.48,1.48,0,0,0,41,44.9Z"/><path class="cls-16" d="M34.2,43.6a2,2,0,0,0-.54,2c.53,1.66,3.32,2.19,4.7,1.46a2.35,2.35,0,0,0,.58-.44,2.51,2.51,0,0,0,.56-2.14A2.66,2.66,0,0,0,39,43.18a2,2,0,0,0-.49-.48,5.1,5.1,0,0,0-3.32.09l-.08.05A3.92,3.92,0,0,0,34.2,43.6Zm4.51,1.21a1.84,1.84,0,0,1-.37,1.33,1.58,1.58,0,0,1-.39.29,2.59,2.59,0,0,1-2.59-.25,1.17,1.17,0,0,1-.28-.24c0-.06-.06-.11-.1-.17a.57.57,0,0,1-.4-.49,1.25,1.25,0,0,1,.08-.49c0-1.85,3.41-2.71,4-.72A.41.41,0,0,1,38.71,44.81Z"/><path class="cls-3" d="M38.48,44a.49.49,0,0,1,.16,0c-.55-2-4-1.13-4,.72a1.11,1.11,0,0,1,.6-.7c.16-.06.41-.06.49.12a1.68,1.68,0,0,1,0,1.22.6.6,0,0,1-.8.34c0,.06.05.11.1.17a1.17,1.17,0,0,0,.28.24,2.59,2.59,0,0,0,2.59.25,1.58,1.58,0,0,0,.39-.29,1.84,1.84,0,0,0,.37-1.33.46.46,0,0,1-.24.07A.42.42,0,1,1,38.48,44Z"/><path class="cls-17" d="M28.71,43.16a2.18,2.18,0,0,0,2.41,1.25,4.66,4.66,0,0,0,1-.27,6.52,6.52,0,0,0,.94-.42,12.32,12.32,0,0,1,1.9-.87l.21-.07a5.1,5.1,0,0,1,3.32-.09,4.08,4.08,0,0,1,1.21.69A6,6,0,0,1,41,44.9l.16.25c.22.39.68.11.51-.41A7.26,7.26,0,0,0,40.08,42a5.34,5.34,0,0,0-1.64-1.16A5,5,0,0,0,36,40.41,7.45,7.45,0,0,0,32.13,42a8.43,8.43,0,0,1-1.89,1.27A1.23,1.23,0,0,1,28.87,43C28.78,42.89,28.66,43,28.71,43.16Z"/><path class="cls-15" d="M35.78,45.44a1.68,1.68,0,0,0,0-1.22c-.08-.17-.33-.18-.49-.12a1.11,1.11,0,0,0-.6.7,1.25,1.25,0,0,0-.08.49.57.57,0,0,0,.4.49A.6.6,0,0,0,35.78,45.44Z"/><path class="cls-15" d="M38.63,44.08a.49.49,0,0,0-.16,0,.42.42,0,1,0,0,.83.46.46,0,0,0,.24-.07A.41.41,0,0,0,38.63,44.08Z"/><path class="cls-9" d="M53.8,64.31c-3.44,1.09-7.93,1.52-11.06.17v0a5.42,5.42,0,0,1-1-.21l.14.07c.44.23.89.45,1.34.67s.93.43,1.4.62.93.36,1.41.51a10.16,10.16,0,0,0,1.38.32c.22,0,.44.06.66.07h.19a4.91,4.91,0,0,0,.8-.1,10.17,10.17,0,0,0,1.37-.36c.48-.16.94-.34,1.4-.54s.93-.43,1.39-.66.89-.46,1.33-.7A3.75,3.75,0,0,1,53.8,64.31Z"/><path class="cls-15" d="M48.49,62.19l-.59,0a3.1,3.1,0,0,1,.29.19A3.13,3.13,0,0,1,48.49,62.19Z"/><path class="cls-15" d="M53.8,64.31c-.39,0-.8.07-1.09.1-1.79.13-3.53-.34-5.31-.17a21.47,21.47,0,0,1-4.67.22v0C45.88,65.83,50.37,65.4,53.8,64.31Z"/><path class="cls-5" d="M37.57,62.56h0a1.41,1.41,0,0,1-.32-.24c-.21-.24.33-.17.43-.16l.22,0L38,62c.2-.3-.17-.66-.47-.56-.55.18-1,.92-.7,1.47a.44.44,0,0,0,.69.06.91.91,0,0,0,.17-.36l-.13-.07Z"/><path class="cls-6" d="M37.57,62.56h0a1.41,1.41,0,0,1-.32-.24c-.21-.24.33-.17.43-.16l.22,0L38,62c.2-.3-.17-.66-.47-.56-.55.18-1,.92-.7,1.47a.44.44,0,0,0,.69.06.91.91,0,0,0,.17-.36l-.13-.07Z"/><path class="cls-5" d="M59.11,62.06a1.27,1.27,0,0,1-.27.22,1.13,1.13,0,0,0,.21.46.44.44,0,0,0,.69-.08c.33-.55-.18-1.28-.74-1.45-.31-.09-.67.28-.46.57l.11.14h0C58.78,61.9,59.32,61.81,59.11,62.06Z"/><path class="cls-6" d="M59.11,62.06a1.27,1.27,0,0,1-.27.22,1.13,1.13,0,0,0,.21.46.44.44,0,0,0,.69-.08c.33-.55-.18-1.28-.74-1.45-.31-.09-.67.28-.46.57l.11.14h0C58.78,61.9,59.32,61.81,59.11,62.06Z"/><path class="cls-7" d="M48.49,62.19a3.13,3.13,0,0,0-.3.21,3.1,3.1,0,0,0-.29-.19,3.65,3.65,0,0,0-2.43-.61c-1.3.21-2.54.7-3.85.9a11.56,11.56,0,0,1-3.7-.31l-.22,0c-.1,0-.64-.09-.43.16a1.41,1.41,0,0,0,.32.24h0l.13.07.49.24c1.3,1,4.12,4,4.55,4.46a10.7,10.7,0,0,0,3.07,2.32,6.3,6.3,0,0,0,4.89-.06c2-.9,3.34-2.62,4.76-4.2.63-.7,1.26-1.39,1.93-2,.14-.14.37-.41.61-.64s.57-.29.77-.41h0l0,0a1.27,1.27,0,0,0,.27-.22c.21-.25-.33-.16-.43-.15h0a12.7,12.7,0,0,1-3.88.43c-1.31-.18-2.56-.63-3.87-.81A3.65,3.65,0,0,0,48.49,62.19Zm3.35,3.32c-.46.2-.93.38-1.4.54a10.17,10.17,0,0,1-1.37.36,4.91,4.91,0,0,1-.8.1h-.19c-.22,0-.44,0-.66-.07A10.16,10.16,0,0,1,46,66.11c-.48-.15-.95-.32-1.41-.51s-.94-.4-1.4-.62-.9-.44-1.34-.67l-.14-.07a5.42,5.42,0,0,0,1,.21,21.47,21.47,0,0,0,4.67-.22c1.78-.17,3.52.3,5.31.17.29,0,.7,0,1.09-.1a3.75,3.75,0,0,0,.75-.15c-.44.24-.88.48-1.33.7S52.31,65.31,51.84,65.52ZM51.31,68a3.14,3.14,0,0,1-2.48.68.38.38,0,0,1,0-.77,7.74,7.74,0,0,0,2.08-.61A.42.42,0,0,1,51.31,68Z"/><path class="cls-7" d="M50.89,67.33a7.74,7.74,0,0,1-2.08.61.38.38,0,0,0,0,.77A3.14,3.14,0,0,0,51.31,68,.42.42,0,0,0,50.89,67.33Z"/><path class="cls-21" d="M50.89,67.33a7.74,7.74,0,0,1-2.08.61.38.38,0,0,0,0,.77A3.14,3.14,0,0,0,51.31,68,.42.42,0,0,0,50.89,67.33Z"/></g></g></g></svg>