<svg xmlns="http://www.w3.org/2000/svg" viewBox="0 0 103.62 140.43"><defs><style>.cls-1{isolation:isolate;}.cls-2{fill:none;}.cls-17,.cls-3,.cls-4{fill:#3f2d2b;}.cls-12,.cls-21,.cls-4,.cls-6,.cls-9{opacity:0.5;}.cls-17,.cls-4{mix-blend-mode:multiply;}.cls-20,.cls-5,.cls-9{fill:#fac494;}.cls-6{fill:#ed8c72;}.cls-10,.cls-22,.cls-7{fill:#f24469;}.cls-12,.cls-18,.cls-21,.cls-8{fill:#c61443;}.cls-10,.cls-17,.cls-19,.cls-20,.cls-8{opacity:0.2;}.cls-10,.cls-20,.cls-21,.cls-22,.cls-9{mix-blend-mode:screen;}.cls-11{fill:#533734;}.cls-13{fill:#ff5a5a;opacity:0.15;}.cls-14{fill:#fff;}.cls-15,.cls-19{fill:#8f705e;}.cls-16{fill:#211313;}</style></defs><title>Ресурс 4</title><g class="cls-1"><g id="Слой_2" data-name="Слой 2"><g id="Layer_1" data-name="Layer 1"><path class="cls-2" d="M19.89,65.9a205,205,0,0,0,3.79,25.59h.12c2.16-.54,4-.53,5.71-1.18a98.66,98.66,0,0,1-5-10.45A106.39,106.39,0,0,1,19.89,65.9Z"/><path class="cls-3" d="M19.89,65.9a106.39,106.39,0,0,0,4.57,13.95,98.66,98.66,0,0,0,5,10.45,7.33,7.33,0,0,0,2.43-1.52c-2.09-3.75-4.57-8.36-6.32-12.28A121.89,121.89,0,0,1,16.73,45.4c-.05-.35-.1-.7-.14-1.05-.11-2.5-.1-5,0-7.33,0-.08,0-.15-.05-.23-.81,12.45-.9,33.71,4.92,54.83l2.19-.13A205,205,0,0,1,19.89,65.9Z"/><path class="cls-3" d="M19.78,21.75A52.17,52.17,0,0,1,22,16.6,52,52,0,0,0,19.78,21.75Z"/><path class="cls-3" d="M18.14,26.94q.2-.76.43-1.53C18.41,25.92,18.27,26.43,18.14,26.94Z"/><path class="cls-3" d="M19.16,23.51q.28-.84.6-1.69Q19.44,22.66,19.16,23.51Z"/><path class="cls-3" d="M17.75,28.54c.11-.5.23-1,.37-1.53C18,27.53,17.86,28,17.75,28.54Z"/><path class="cls-3" d="M17.38,30.37c.09-.49.19-1,.3-1.49C17.57,29.38,17.47,29.88,17.38,30.37Z"/><path class="cls-3" d="M18.76,24.78h0c.13-.41.25-.83.39-1.24q-.28.82-.52,1.64l.13-.39Z"/><path class="cls-3" d="M42.66,3a12.8,12.8,0,0,0-.7,7.62h0v.08a8.1,8.1,0,0,0,.27.9h0A9.07,9.07,0,0,0,42.9,13a14.6,14.6,0,0,0,.58,1.85c-1.48-4.41-1.43-10,2-13a15,15,0,0,0-8-.4C31,3.21,25.66,9.42,22,16.6l.3-.48C27,9.07,34.14,3.58,42.66,3Z"/><path class="cls-3" d="M16.63,36.86c.05-.88.13-1.75.21-2.61C16.76,35.11,16.69,36,16.63,36.86Z"/><path class="cls-3" d="M16.92,33.49c.12-1.07.27-2.11.46-3.13C17.19,31.38,17,32.43,16.92,33.49Z"/><path class="cls-3" d="M35.63,82.66c.1-.3.18-.6.26-.91s.13-.51.18-.76l.08-.39c.16-.82.28-1.66.37-2.5-2.16-4.35-4.25-9-6-13.15-2.16-2.45-3.06-4.81-3.35-9.15l-.07-1.09a2.11,2.11,0,0,1-.85.28h0a2.74,2.74,0,0,1-.48,0h-.1a3.88,3.88,0,0,1-.6-.11,2.77,2.77,0,0,1-.56-.22l-.17-.1a3.67,3.67,0,0,1-.36-.24l-.18-.15-.33-.31-.16-.17q-.17-.19-.33-.4l-.12-.16q-.21-.28-.4-.59l0,0c-.14-.23-.28-.47-.41-.72a50.27,50.27,0,0,0,1.09,7.61c1.61,7.22,5,13.56,8.91,19.77a25.76,25.76,0,0,0,3.21,4.72c.13-.32.25-.63.36-1Z"/><path class="cls-3" d="M33.65,86.77a14.59,14.59,0,0,0,1.13-2,14.84,14.84,0,0,1-2.8,4A12,12,0,0,0,33.65,86.77Z"/><path class="cls-3" d="M63,85c0-.17.08-.34.12-.51,1.9-7.35,6.15-14.21,6.21-22a38.43,38.43,0,0,0-.63-7l0,.23c0,.49-.08.94-.13,1.38,0,.13,0,.26,0,.39q-.06.47-.14.91c0,.12,0,.25-.06.37-.07.37-.15.73-.24,1.08l-.08.26c-.07.26-.15.51-.24.75l-.14.37c-.08.21-.17.41-.26.61l-.15.32c-.13.26-.27.52-.42.76h0c-1.33,2.19-3.48,4.07-6.88,6.91v0c0,.29-.08.58-.11.87,0,.13,0,.26,0,.39-.51,4.68.07,9.5,2.6,13.43l0-.07A7.49,7.49,0,0,0,63,85Z"/><path class="cls-4" d="M63,85c0-.17.08-.34.12-.51,1.9-7.35,6.15-14.21,6.21-22a38.43,38.43,0,0,0-.63-7l0,.23c0,.49-.08.94-.13,1.38,0,.13,0,.26,0,.39q-.06.47-.14.91c0,.12,0,.25-.06.37-.07.37-.15.73-.24,1.08l-.08.26c-.07.26-.15.51-.24.75l-.14.37c-.08.21-.17.41-.26.61l-.15.32c-.13.26-.27.52-.42.76h0c-1.33,2.19-3.48,4.07-6.88,6.91v0c0,.29-.08.58-.11.87,0,.13,0,.26,0,.39-.51,4.68.07,9.5,2.6,13.43l0-.07A7.49,7.49,0,0,0,63,85Z"/><path class="cls-3" d="M36.74,70.56a60.17,60.17,0,0,1-6.21-5.61c1.75,4.13,3.84,8.79,6,13.15A73.21,73.21,0,0,0,36.74,70.56Z"/><path class="cls-4" d="M36.74,70.56a60.17,60.17,0,0,1-6.21-5.61c1.75,4.13,3.84,8.79,6,13.15A73.21,73.21,0,0,0,36.74,70.56Z"/><path class="cls-5" d="M102.09,133.34h0l1.51-.56h0Z"/><path class="cls-5" d="M95.14,102.61l.19,0,.5-.09.19,0,.47-.08.14,0,.53-.08h0l.42-.05h.11l.23,0h.3s.08,0,.09,0c.29.49.56,1,.81,1.54a16.29,16.29,0,0,0-8-8,51.81,51.81,0,0,1,1.12,7.46Z"/><path class="cls-5" d="M5.86,98.16l.21-.31Z"/><path class="cls-5" d="M7,97l.14.12.13.09.23.14.18.11.3.17.21.12.37.2.23.12.45.23.2.1.55.27.15.07.71.35h0c1.6.77,3.13,1.46,3.35,1.56a63.37,63.37,0,0,0,13,4.13,151.23,151.23,0,0,0,32.43,2.8l1.18,0h0c-1.62-7.78-1-13.44.78-20.45.22-.83.46-1.66.73-2.48-2.53-3.92-3.11-8.75-2.6-13.43a25.24,25.24,0,0,0,.2,7.43,115.71,115.71,0,0,0-25.67,7.29,15.14,15.14,0,0,0,.87-1.79l-.31.63a14.59,14.59,0,0,1-1.13,2,12,12,0,0,1-1.67,2l0,0h0a7.33,7.33,0,0,1-2.43,1.52c-1.73.65-3.55.64-5.71,1.18h-.12l-2.19.13c-5.34.39-11.13,1.43-14.64,5.26,0,0,0,.06,0,.11ZM52,95.2a.19.19,0,0,1,.16.27A6,6,0,0,1,48,98.06c-2,.13-3-1.26-4.67-2a.13.13,0,0,1,0-.2c.93-1,2-.38,3.11-.08C48.37,96.29,50.07,95.41,52,95.2Z"/><path class="cls-5" d="M5.17,99.31,5.36,99Z"/><path class="cls-5" d="M99.26,104c.24.53.47,1.08.67,1.66C99.72,105.07,99.5,104.53,99.26,104Z"/><path class="cls-5" d="M36.16,80.6l-.08.39Z"/><path class="cls-5" d="M35.89,81.75c-.08.3-.16.61-.26.91C35.73,82.36,35.81,82.06,35.89,81.75Z"/><path class="cls-5" d="M35.18,83.89h0q.19-.48.35-1C35.44,83.26,35.31,83.58,35.18,83.89Z"/><path class="cls-5" d="M59.86,70c0,.29-.08.58-.11.87C59.78,70.53,59.82,70.24,59.86,70Z"/><path class="cls-3" d="M36.16,80.6q.25-1.22.38-2.48v0C36.44,78.94,36.32,79.77,36.16,80.6Z"/><path class="cls-6" d="M36.16,80.6q.25-1.22.38-2.48v0C36.44,78.94,36.32,79.77,36.16,80.6Z"/><path class="cls-3" d="M35.63,82.66l-.09.28Z"/><path class="cls-6" d="M35.63,82.66l-.09.28Z"/><path class="cls-3" d="M36.08,81c-.06.26-.12.51-.18.76C36,81.5,36,81.25,36.08,81Z"/><path class="cls-6" d="M36.08,81c-.06.26-.12.51-.18.76C36,81.5,36,81.25,36.08,81Z"/><path class="cls-3" d="M36.53,78.09v0a69.82,69.82,0,0,0,.23-7.53l0,0A73.21,73.21,0,0,1,36.53,78.09Z"/><path class="cls-4" d="M36.53,78.09v0a69.82,69.82,0,0,0,.23-7.53l0,0A73.21,73.21,0,0,1,36.53,78.09Z"/><path class="cls-6" d="M36.53,78.09v0a69.82,69.82,0,0,0,.23-7.53l0,0A73.21,73.21,0,0,1,36.53,78.09Z"/><path class="cls-3" d="M59.7,71.21c0-.13,0-.26,0-.39C59.73,71,59.71,71.08,59.7,71.21Z"/><path class="cls-4" d="M59.7,71.21c0-.13,0-.26,0-.39C59.73,71,59.71,71.08,59.7,71.21Z"/><path class="cls-6" d="M59.7,71.21c0-.13,0-.26,0-.39C59.73,71,59.71,71.08,59.7,71.21Z"/><path class="cls-3" d="M59.86,70v0h0Z"/><path class="cls-4" d="M59.86,70v0h0Z"/><path class="cls-6" d="M59.86,70v0h0Z"/><path class="cls-5" d="M59.86,70v0c-1.63,1.36-3.53,2.94-5.79,4.91a9.28,9.28,0,0,1-12.33,0c-1.89-1.65-3.53-3-5-4.23a69.82,69.82,0,0,1-.23,7.53q-.13,1.26-.38,2.48l-.08.39c-.06.26-.12.51-.18.76s-.17.61-.26.91l-.09.28q-.16.49-.35,1h0l-.11.23a15.14,15.14,0,0,1-.87,1.79A115.71,115.71,0,0,1,59.9,78.65a25.24,25.24,0,0,1-.2-7.43c0-.13,0-.26,0-.39C59.78,70.53,59.82,70.24,59.86,70Z"/><path class="cls-6" d="M59.86,70v0c-1.63,1.36-3.53,2.94-5.79,4.91a9.28,9.28,0,0,1-12.33,0c-1.89-1.65-3.53-3-5-4.23a69.82,69.82,0,0,1-.23,7.53q-.13,1.26-.38,2.48l-.08.39c-.06.26-.12.51-.18.76s-.17.61-.26.91l-.09.28q-.16.49-.35,1h0l-.11.23a15.14,15.14,0,0,1-.87,1.79A115.71,115.71,0,0,1,59.9,78.65a25.24,25.24,0,0,1-.2-7.43c0-.13,0-.26,0-.39C59.78,70.53,59.82,70.24,59.86,70Z"/><path class="cls-7" d="M102.95,133c-.54-2.86-1.2-5.74-1.94-8.66-1.13-4.42-2.44-8.71-3.93-13-.75-2.15-1.49-4.3-2.11-6.49-.2-.69-.38-1.39-.55-2.09l.74-.14-2.89.58v0a50.93,50.93,0,0,1,0,7.33,50.13,50.13,0,0,1-.78,8.12c-.21,1.14-.46,2.32-.77,3.5,2.46,5.54,5,11.3,5.63,12.73q2.85-.72,5.75-1.54l1.5-.56Z"/><path class="cls-7" d="M7,97,6.89,97Z"/><path class="cls-7" d="M97.71,102.19l.23,0Z"/><path class="cls-7" d="M95.33,102.57l.5-.09Z"/><path class="cls-7" d="M79.89,138.23q1.59-.25,3.19-.53l-.42-1.23A14.52,14.52,0,0,1,79.89,138.23Z"/><path class="cls-7" d="M98.24,102.18s.08,0,.09,0S98.29,102.18,98.24,102.18Z"/><path class="cls-7" d="M96,102.45l.47-.08Z"/><path class="cls-7" d="M96.64,102.34l.53-.08Z"/><path class="cls-7" d="M61.29,133.72A21.32,21.32,0,0,1,59.6,131a41.49,41.49,0,0,1-18.13-1.18A42.52,42.52,0,0,1,29.9,125c-3.8-1.5-7.52-3.77-8.14-7.9-1.12-7.46,6.85-8.17,12.1-7.56,7.47.88,15,1.33,22.5,1.51,1.76,0,3.51.06,5.27.07q-.49-1.84-.85-3.54l-1.18,0a151.23,151.23,0,0,1-32.43-2.8,63.37,63.37,0,0,1-13-4.13c-.23-.1-1.75-.79-3.35-1.56C5.68,108.57,3.87,121.56,2.19,133c2.38.8,6.08,1.94,10.92,3.08a93,93,0,0,0,1.25-12.89s1.45,4.86,1,13.4a174.61,174.61,0,0,0,55.39,2.84A14.84,14.84,0,0,1,61.29,133.72Z"/><path class="cls-7" d="M97.18,102.26l.42-.05Z"/><path class="cls-7" d="M8.74,98.1,8.52,98Z"/><path class="cls-7" d="M7.23,97.25l-.13-.09Z"/><path class="cls-7" d="M10.1,98.78l-.15-.07Z"/><path class="cls-7" d="M8.15,97.79l-.21-.12Z"/><path class="cls-7" d="M7.63,97.5l-.18-.11Z"/><path class="cls-7" d="M9.4,98.44l-.2-.1Z"/><path class="cls-7" d="M98,102.17h0Z"/><path class="cls-8" d="M101.27,112.82c-.11-.7-.21-1.36-.32-2l.16,1Z"/><path class="cls-8" d="M102.08,118.4l-.16-1.16.14,1Z"/><path class="cls-8" d="M99.26,104h0l-.11-.24h0Z"/><path class="cls-8" d="M100.66,109l.15.85c-.2-1.18-.39-2.2-.55-3l.13.62C100.47,108,100.56,108.5,100.66,109Z"/><path class="cls-8" d="M100.13,106.41l.12.53a12.08,12.08,0,0,0-.33-1.28h0C100,105.83,100.06,106.09,100.13,106.41Z"/><path class="cls-5" d="M102.54,121.87c.1.76.19,1.51.28,2.24C102.73,123.37,102.64,122.63,102.54,121.87Z"/><path class="cls-8" d="M102.54,121.87c.1.76.19,1.51.28,2.24C102.73,123.37,102.64,122.63,102.54,121.87Z"/><path class="cls-5" d="M97.6,102.2h0Z"/><path class="cls-8" d="M97.6,102.2h0Z"/><path class="cls-5" d="M101.92,117.25l-.16-1.14c.1.71.2,1.43.3,2.16Z"/><path class="cls-8" d="M101.92,117.25l-.16-1.14c.1.71.2,1.43.3,2.16Z"/><path class="cls-5" d="M99.15,103.75h0c-.25-.54-.52-1.05-.81-1.54C98.63,102.7,98.89,103.22,99.15,103.75Z"/><path class="cls-8" d="M99.15,103.75h0c-.25-.54-.52-1.05-.81-1.54C98.63,102.7,98.89,103.22,99.15,103.75Z"/><path class="cls-5" d="M99.92,105.65h0c-.2-.58-.43-1.13-.67-1.66h0C99.5,104.52,99.72,105.07,99.92,105.65Z"/><path class="cls-8" d="M99.92,105.65h0c-.2-.58-.43-1.13-.67-1.66h0C99.5,104.52,99.72,105.07,99.92,105.65Z"/><path class="cls-5" d="M98.19,102.17h0Z"/><path class="cls-8" d="M98.19,102.17h0Z"/><path class="cls-5" d="M97.17,102.26h0Z"/><path class="cls-8" d="M97.17,102.26h0Z"/><path class="cls-5" d="M103.07,126.21c.12,1,.22,2,.3,2.79C103.29,128.16,103.19,127.22,103.07,126.21Z"/><path class="cls-8" d="M103.07,126.21c.12,1,.22,2,.3,2.79C103.29,128.16,103.19,127.22,103.07,126.21Z"/><path class="cls-5" d="M95.84,102.48l.19,0Z"/><path class="cls-8" d="M95.84,102.48l.19,0Z"/><path class="cls-5" d="M96.5,102.37l.14,0Z"/><path class="cls-8" d="M96.5,102.37l.14,0Z"/><path class="cls-5" d="M103.59,132.78h0a3.87,3.87,0,0,0,0-.59,3.89,3.89,0,0,1,0,.59Z"/><path class="cls-8" d="M103.59,132.78h0a3.87,3.87,0,0,0,0-.59,3.89,3.89,0,0,1,0,.59Z"/><path class="cls-5" d="M97.94,102.17h0Z"/><path class="cls-8" d="M97.94,102.17h0Z"/><path class="cls-5" d="M95.14,102.61l.19,0Z"/><path class="cls-8" d="M95.14,102.61l.19,0Z"/><path class="cls-5" d="M103.45,129.8c.09,1,.15,1.84.16,2.38C103.6,131.65,103.54,130.83,103.45,129.8Z"/><path class="cls-8" d="M103.45,129.8c.09,1,.15,1.84.16,2.38C103.6,131.65,103.54,130.83,103.45,129.8Z"/><path class="cls-7" d="M99.92,105.65c-.2-.58-.43-1.13-.67-1.66l-.11-.24c-.25-.54-.52-1.05-.81-1.54,0,0,0,0-.09,0h-.3l-.23,0H97.6l-.42.05h0l-.53.08-.14,0-.47.08-.19,0-.5.09-.19,0-.74.14c.17.7.35,1.4.55,2.09.62,2.19,1.37,4.34,2.11,6.49,1.5,4.31,2.81,8.6,3.93,13,.74,2.92,1.4,5.8,1.94,8.66l.64-.23h0a3.89,3.89,0,0,0,0-.59c0-.54-.07-1.36-.16-2.38,0-.26,0-.52-.08-.8-.08-.84-.18-1.78-.3-2.79-.08-.67-.16-1.38-.25-2.11s-.18-1.48-.28-2.24-.2-1.53-.3-2.3l-.16-1.16,0-.14c-.1-.73-.2-1.45-.3-2.16-.16-1.13-.33-2.24-.49-3.29l-.16-1-.16-1-.15-.92-.15-.85c-.1-.55-.19-1-.28-1.49l-.13-.62-.12-.53C100.06,106.09,100,105.83,99.92,105.65Z"/><path class="cls-8" d="M99.92,105.65c-.2-.58-.43-1.13-.67-1.66l-.11-.24c-.25-.54-.52-1.05-.81-1.54,0,0,0,0-.09,0h-.3l-.23,0H97.6l-.42.05h0l-.53.08-.14,0-.47.08-.19,0-.5.09-.19,0-.74.14c.17.7.35,1.4.55,2.09.62,2.19,1.37,4.34,2.11,6.49,1.5,4.31,2.81,8.6,3.93,13,.74,2.92,1.4,5.8,1.94,8.66l.64-.23h0a3.89,3.89,0,0,0,0-.59c0-.54-.07-1.36-.16-2.38,0-.26,0-.52-.08-.8-.08-.84-.18-1.78-.3-2.79-.08-.67-.16-1.38-.25-2.11s-.18-1.48-.28-2.24-.2-1.53-.3-2.3l-.16-1.16,0-.14c-.1-.73-.2-1.45-.3-2.16-.16-1.13-.33-2.24-.49-3.29l-.16-1-.16-1-.15-.92-.15-.85c-.1-.55-.19-1-.28-1.49l-.13-.62-.12-.53C100.06,106.09,100,105.83,99.92,105.65Z"/><path class="cls-8" d="M5.86,98.16h0q-.26.39-.5.81h0Q5.6,98.55,5.86,98.16Z"/><path class="cls-8" d="M1.66,116.52c.1-1.37.21-2.73.35-4.09C1.87,113.78,1.76,115.15,1.66,116.52Z"/><path class="cls-8" d="M6.86,96.88h0a11.3,11.3,0,0,0-.78,1h0A11.27,11.27,0,0,1,6.86,96.88Z"/><path class="cls-8" d="M5.17,99.31h0a12.08,12.08,0,0,0-.56,1.23q-.37,1-.67,1.92.31-1,.67-1.92A12.08,12.08,0,0,1,5.17,99.31Z"/><path class="cls-5" d="M7.93,97.67l-.3-.17Z"/><path class="cls-8" d="M7.93,97.67l-.3-.17Z"/><path class="cls-5" d="M10.1,98.78l.71.35h0Z"/><path class="cls-8" d="M10.1,98.78l.71.35h0Z"/><path class="cls-5" d="M8.52,98l-.37-.2Z"/><path class="cls-8" d="M8.52,98l-.37-.2Z"/><path class="cls-5" d="M7.1,97.16,7,97Z"/><path class="cls-8" d="M7.1,97.16,7,97Z"/><path class="cls-5" d="M7.45,97.39l-.23-.14Z"/><path class="cls-8" d="M7.45,97.39l-.23-.14Z"/><path class="cls-5" d="M6.89,97s-.06-.08,0-.11h0S6.85,96.94,6.89,97Z"/><path class="cls-8" d="M6.89,97s-.06-.08,0-.11h0S6.85,96.94,6.89,97Z"/><path class="cls-5" d="M6.08,97.85h0l-.21.31h0Z"/><path class="cls-8" d="M6.08,97.85h0l-.21.31h0Z"/><path class="cls-5" d="M9.95,98.71l-.55-.27Z"/><path class="cls-8" d="M9.95,98.71l-.55-.27Z"/><path class="cls-5" d="M5.36,99h0l-.19.34h0Z"/><path class="cls-8" d="M5.36,99h0l-.19.34h0Z"/><path class="cls-5" d="M9.19,98.33l-.45-.23Z"/><path class="cls-8" d="M9.19,98.33l-.45-.23Z"/><path class="cls-7" d="M2.19,133c1.67-11.44,3.49-24.43,8.61-33.87l-.71-.35-.15-.07-.55-.27-.2-.1-.45-.23L8.52,98l-.37-.2-.21-.12-.3-.17-.18-.11-.23-.14-.13-.09L7,97,6.89,97s-.06-.08,0-.11h0a11.27,11.27,0,0,0-.78,1l-.22.31q-.26.39-.5.81l-.19.34a12.08,12.08,0,0,0-.56,1.23q-.37,1-.67,1.92a50.2,50.2,0,0,0-1.92,10c-.14,1.36-.25,2.72-.35,4.09s-.19,2.74-.28,4.11A84.4,84.4,0,0,1,0,132.22C.52,132.41,1.25,132.68,2.19,133Z"/><path class="cls-8" d="M2.19,133c1.67-11.44,3.49-24.43,8.61-33.87l-.71-.35-.15-.07-.55-.27-.2-.1-.45-.23L8.52,98l-.37-.2-.21-.12-.3-.17-.18-.11-.23-.14-.13-.09L7,97,6.89,97s-.06-.08,0-.11h0a11.27,11.27,0,0,0-.78,1l-.22.31q-.26.39-.5.81l-.19.34a12.08,12.08,0,0,0-.56,1.23q-.37,1-.67,1.92a50.2,50.2,0,0,0-1.92,10c-.14,1.36-.25,2.72-.35,4.09s-.19,2.74-.28,4.11A84.4,84.4,0,0,1,0,132.22C.52,132.41,1.25,132.68,2.19,133Z"/><path class="cls-5" d="M26.66,30.05l0,0q-.05.65-.1,1.35Q26.59,30.72,26.66,30.05Z"/><path class="cls-5" d="M68,59.92l-.08.26Z"/><path class="cls-5" d="M68.52,57.18c0,.13,0,.26,0,.39C68.49,57.44,68.51,57.31,68.52,57.18Z"/><path class="cls-5" d="M68.34,58.48c0,.12,0,.25-.06.37C68.3,58.73,68.32,58.6,68.34,58.48Z"/><path class="cls-5" d="M67.72,60.93l-.14.37Z"/><path class="cls-5" d="M67.32,61.91l-.15.32Z"/><path class="cls-3" d="M26.38,34l0-.06q0-1.31.11-2.49C26.47,32.25,26.42,33.1,26.38,34Z"/><path class="cls-6" d="M26.38,34l0-.06q0-1.31.11-2.49C26.47,32.25,26.42,33.1,26.38,34Z"/><path class="cls-5" d="M26.43,33.94A43.26,43.26,0,0,1,39.22,21.32c-.42.2-.81.39-1.16.59-.89.51-1.77,1-2.63,1.44h0a28.21,28.21,0,0,0-7.54,5.24h0a16.63,16.63,0,0,0-1.23,1.47q-.07.67-.13,1.39Q26.46,32.62,26.43,33.94Z"/><path class="cls-6" d="M26.43,33.94A43.26,43.26,0,0,1,39.22,21.32c-.42.2-.81.39-1.16.59-.89.51-1.77,1-2.63,1.44h0a28.21,28.21,0,0,0-7.54,5.24h0a16.63,16.63,0,0,0-1.23,1.47q-.07.67-.13,1.39Q26.46,32.62,26.43,33.94Z"/><path class="cls-3" d="M68.48,57.57c0,.31-.09.62-.14.91Q68.41,58,68.48,57.57Z"/><path class="cls-4" d="M68.48,57.57c0,.31-.09.62-.14.91Q68.41,58,68.48,57.57Z"/><path class="cls-6" d="M68.48,57.57c0,.31-.09.62-.14.91Q68.41,58,68.48,57.57Z"/><path class="cls-3" d="M68,60.18q-.11.39-.24.75C67.81,60.69,67.89,60.44,68,60.18Z"/><path class="cls-4" d="M68,60.18q-.11.39-.24.75C67.81,60.69,67.89,60.44,68,60.18Z"/><path class="cls-6" d="M68,60.18q-.11.39-.24.75C67.81,60.69,67.89,60.44,68,60.18Z"/><path class="cls-3" d="M66.75,63c.15-.25.29-.5.42-.76-.13.26-.27.51-.42.76Z"/><path class="cls-4" d="M66.75,63c.15-.25.29-.5.42-.76-.13.26-.27.51-.42.76Z"/><path class="cls-6" d="M66.75,63c.15-.25.29-.5.42-.76-.13.26-.27.51-.42.76Z"/><path class="cls-3" d="M68.65,55.8c0,.49-.08.94-.13,1.38C68.57,56.74,68.62,56.29,68.65,55.8Z"/><path class="cls-4" d="M68.65,55.8c0,.49-.08.94-.13,1.38C68.57,56.74,68.62,56.29,68.65,55.8Z"/><path class="cls-6" d="M68.65,55.8c0,.49-.08.94-.13,1.38C68.57,56.74,68.62,56.29,68.65,55.8Z"/><path class="cls-3" d="M68.28,58.85c-.07.37-.15.73-.24,1.08C68.13,59.58,68.21,59.22,68.28,58.85Z"/><path class="cls-4" d="M68.28,58.85c-.07.37-.15.73-.24,1.08C68.13,59.58,68.21,59.22,68.28,58.85Z"/><path class="cls-6" d="M68.28,58.85c-.07.37-.15.73-.24,1.08C68.13,59.58,68.21,59.22,68.28,58.85Z"/><path class="cls-3" d="M67.58,61.3c-.08.21-.17.41-.26.61C67.41,61.71,67.5,61.51,67.58,61.3Z"/><path class="cls-4" d="M67.58,61.3c-.08.21-.17.41-.26.61C67.41,61.71,67.5,61.51,67.58,61.3Z"/><path class="cls-6" d="M67.58,61.3c-.08.21-.17.41-.26.61C67.41,61.71,67.5,61.51,67.58,61.3Z"/><path class="cls-5" d="M59.4,33.45a54.94,54.94,0,0,0-6.19-6.22,49.75,49.75,0,0,1-4.56-4.44,26.17,26.17,0,0,1-3-3.69C47,24.93,51.29,29.18,55.4,33.55A34.52,34.52,0,0,1,59.4,33.45Z"/><path class="cls-6" d="M59.4,33.45a54.94,54.94,0,0,0-6.19-6.22,49.75,49.75,0,0,1-4.56-4.44,26.17,26.17,0,0,1-3-3.69C47,24.93,51.29,29.18,55.4,33.55A34.52,34.52,0,0,1,59.4,33.45Z"/><path class="cls-5" d="M65,45.33a4.57,4.57,0,0,1-1,1.2c.27.82.51,1.65.72,2.5l.39.13a1,1,0,0,1,.46-.21,1.71,1.71,0,0,1,.35,0,.73.73,0,0,1,.38.11h0a.73.73,0,0,1,.5.8.71.71,0,0,1-.13.32,2.57,2.57,0,0,1,.43,3.18,7.94,7.94,0,0,1-1.28,1.81c.21,1.45.4,2.89.58,4.3.15,1.19.26,2.38.31,3.57.15-.25.29-.5.42-.76l.15-.32c.09-.2.18-.4.26-.61l.14-.37q.13-.36.24-.75l.08-.26c.09-.34.17-.7.24-1.08,0-.12,0-.24.06-.37,0-.29.1-.59.14-.91,0-.13,0-.26,0-.39,0-.44.09-.89.13-1.38l0-.23C68,51.84,67,48.22,66.12,44.5A5.22,5.22,0,0,1,65,45.33Z"/><path class="cls-6" d="M65,45.33a4.57,4.57,0,0,1-1,1.2c.27.82.51,1.65.72,2.5l.39.13a1,1,0,0,1,.46-.21,1.71,1.71,0,0,1,.35,0,.73.73,0,0,1,.38.11h0a.73.73,0,0,1,.5.8.71.71,0,0,1-.13.32,2.57,2.57,0,0,1,.43,3.18,7.94,7.94,0,0,1-1.28,1.81c.21,1.45.4,2.89.58,4.3.15,1.19.26,2.38.31,3.57.15-.25.29-.5.42-.76l.15-.32c.09-.2.18-.4.26-.61l.14-.37q.13-.36.24-.75l.08-.26c.09-.34.17-.7.24-1.08,0-.12,0-.24.06-.37,0-.29.1-.59.14-.91,0-.13,0-.26,0-.39,0-.44.09-.89.13-1.38l0-.23C68,51.84,67,48.22,66.12,44.5A5.22,5.22,0,0,1,65,45.33Z"/><path class="cls-5" d="M61,35.4a30.68,30.68,0,0,0-3.66.22A42.5,42.5,0,0,1,60.82,40a9.87,9.87,0,0,1,2.9-.55A47,47,0,0,0,61,35.4Z"/><path class="cls-6" d="M61,35.4a30.68,30.68,0,0,0-3.66.22A42.5,42.5,0,0,1,60.82,40a9.87,9.87,0,0,1,2.9-.55A47,47,0,0,0,61,35.4Z"/><path class="cls-5" d="M47.94,58.5a4.88,4.88,0,0,0,3.4-2.1.15.15,0,0,0-.13-.22c-1.57.17-2.94.89-4.56.45-.89-.24-1.77-.72-2.52.06a.11.11,0,0,0,0,.17C45.51,57.48,46.33,58.61,47.94,58.5Z"/><path class="cls-6" d="M47.94,58.5a4.88,4.88,0,0,0,3.4-2.1.15.15,0,0,0-.13-.22c-1.57.17-2.94.89-4.56.45-.89-.24-1.77-.72-2.52.06a.11.11,0,0,0,0,.17C45.51,57.48,46.33,58.61,47.94,58.5Z"/><path class="cls-5" d="M46.38,95.75c-1.1-.3-2.18-.89-3.11.08a.13.13,0,0,0,0,.2c1.67.77,2.69,2.16,4.67,2a6,6,0,0,0,4.18-2.58A.19.19,0,0,0,52,95.2C50.07,95.41,48.37,96.29,46.38,95.75Z"/><path class="cls-6" d="M46.38,95.75c-1.1-.3-2.18-.89-3.11.08a.13.13,0,0,0,0,.2c1.67.77,2.69,2.16,4.67,2a6,6,0,0,0,4.18-2.58A.19.19,0,0,0,52,95.2C50.07,95.41,48.37,96.29,46.38,95.75Z"/><path class="cls-5" d="M46.37,55.48a2,2,0,0,0,.32.14.73.73,0,0,0,.37,0h.07a.71.71,0,0,0,.68-.63.73.73,0,0,0-.5-.8h0a.73.73,0,0,0-.38-.11,1.71,1.71,0,0,0-.35,0,.85.85,0,0,0-.57.29.59.59,0,0,0-.08.64A.87.87,0,0,0,46.37,55.48Z"/><path class="cls-9" d="M46.37,55.48a2,2,0,0,0,.32.14.73.73,0,0,0,.37,0h.07a.71.71,0,0,0,.68-.63.73.73,0,0,0-.5-.8h0a.73.73,0,0,0-.38-.11,1.71,1.71,0,0,0-.35,0,.85.85,0,0,0-.57.29.59.59,0,0,0-.08.64A.87.87,0,0,0,46.37,55.48Z"/><path class="cls-5" d="M31.3,49.21A.74.74,0,0,0,31,49h0a.73.73,0,0,0-.38-.11,1.71,1.71,0,0,0-.35,0,.85.85,0,0,0-.57.29.59.59,0,0,0-.08.64.68.68,0,0,0,.23.28A4.31,4.31,0,0,1,31.3,49.21Z"/><path class="cls-9" d="M31.3,49.21A.74.74,0,0,0,31,49h0a.73.73,0,0,0-.38-.11,1.71,1.71,0,0,0-.35,0,.85.85,0,0,0-.57.29.59.59,0,0,0-.08.64.68.68,0,0,0,.23.28A4.31,4.31,0,0,1,31.3,49.21Z"/><path class="cls-5" d="M66.71,50.14a.71.71,0,0,0,.13-.32.73.73,0,0,0-.5-.8h0a.73.73,0,0,0-.38-.11,1.71,1.71,0,0,0-.35,0,1,1,0,0,0-.46.21A4.44,4.44,0,0,1,66.71,50.14Z"/><path class="cls-6" d="M66.71,50.14a.71.71,0,0,0,.13-.32.73.73,0,0,0-.5-.8h0a.73.73,0,0,0-.38-.11,1.71,1.71,0,0,0-.35,0,1,1,0,0,0-.46.21A4.44,4.44,0,0,1,66.71,50.14Z"/><path class="cls-9" d="M66.71,50.14a.71.71,0,0,0,.13-.32.73.73,0,0,0-.5-.8h0a.73.73,0,0,0-.38-.11,1.71,1.71,0,0,0-.35,0,1,1,0,0,0-.46.21A4.44,4.44,0,0,1,66.71,50.14Z"/><path class="cls-7" d="M58.56,127.46a4.83,4.83,0,0,0,1.19,1,15.84,15.84,0,0,1-.94-2.12c0-.13-.61-2-.14-1.48,3,3.39,5.38-.3,6-3.4a28.37,28.37,0,0,0-1.72-6c-.5-1.54-.93-3-1.3-4.36-1.76,0-3.51,0-5.27-.07-7.52-.19-15-.63-22.5-1.51-5.25-.62-13.23.1-12.1,7.56.62,4.13,4.34,6.4,8.14,7.9a42.52,42.52,0,0,0,11.57,4.83A41.49,41.49,0,0,0,59.6,131a15.76,15.76,0,0,1-.91-2.05C58.65,128.8,58.09,126.93,58.56,127.46Z"/><path class="cls-10" d="M58.56,127.46a4.83,4.83,0,0,0,1.19,1,15.84,15.84,0,0,1-.94-2.12c0-.13-.61-2-.14-1.48,3,3.39,5.38-.3,6-3.4a28.37,28.37,0,0,0-1.72-6c-.5-1.54-.93-3-1.3-4.36-1.76,0-3.51,0-5.27-.07-7.52-.19-15-.63-22.5-1.51-5.25-.62-13.23.1-12.1,7.56.62,4.13,4.34,6.4,8.14,7.9a42.52,42.52,0,0,0,11.57,4.83A41.49,41.49,0,0,0,59.6,131a15.76,15.76,0,0,1-.91-2.05C58.65,128.8,58.09,126.93,58.56,127.46Z"/><path class="cls-11" d="M20.72,19.46c.42.19.86.38,1.3.55a58.27,58.27,0,0,0,7.41,2.24l-.29.34a32,32,0,0,1,2.23-2.31,37.79,37.79,0,0,0-5.1,10.3l.07-.11.3-.4,0,0a16.63,16.63,0,0,1,1.23-1.47l-.81-.25A41.13,41.13,0,0,1,30,22.39c1.8.4,3.62.72,5.45,1,.86-.46,1.74-.93,2.63-1.44.34-.2.74-.39,1.16-.59,1.7-.81,3.94-1.67,6.09-2.7l.31.47a26.17,26.17,0,0,0,3,3.69A58.46,58.46,0,0,0,58,29.94a67.51,67.51,0,0,1-8.36-6.23A82.29,82.29,0,0,0,67,20.43a21,21,0,0,1,5.16,9.45c-1.27-4.47-3.4-8.69-7.43-11.29a9.57,9.57,0,0,1,2.83,1.68,91.67,91.67,0,0,0,10.19-3.81c-.12-.21-.23-.42-.35-.63l-.38-.61q-.54-.88-1.13-1.72l-.45-.64c-.53-.73-1.08-1.45-1.67-2.14S72.74,9.52,72.17,9a25.31,25.31,0,0,0-5.73-4.3L65.37,4.1A37.77,37.77,0,0,0,55.13.39C54.71.31,54.3.23,53.89.18h-.06L53,.08h-.11a11.8,11.8,0,0,0-5.07.51l-.38.14-.06,0-.09,0a7.83,7.83,0,0,0-.89.47c-.2.12-.38.26-.57.39l-.25.19-.11.08c-3.46,2.93-3.51,8.54-2,13A14.6,14.6,0,0,1,42.9,13a9.07,9.07,0,0,1-.66-1.43h0a8.1,8.1,0,0,1-.27-.9v-.08h0A12.8,12.8,0,0,1,42.66,3C34.14,3.58,27,9.07,22.34,16.12l-.3.48h0a52.17,52.17,0,0,0-2.25,5.15l0,.07q-.32.84-.6,1.69v0c-.14.42-.27.83-.39,1.24A54,54,0,0,1,20.72,19.46Z"/><path class="cls-11" d="M16.59,44.35c0,.35.09.7.14,1.05a121.89,121.89,0,0,0,8.89,31.11c1.75,3.92,4.23,8.53,6.32,12.28h0l0,0a14.84,14.84,0,0,0,2.8-4l.31-.63.11-.23h0A25.76,25.76,0,0,1,32,79.17C28.07,73,24.68,66.62,23.07,59.4A50.27,50.27,0,0,1,22,51.79,20.45,20.45,0,0,1,20.09,46c-.34-2.2-.72-5,1.55-6.11a31.82,31.82,0,0,1,3.82-12.12c-.5-.18-1-.34-1.5-.53s-1.22-.47-1.82-.71l-.53-.28-2.84-1.47-.12.39-.07.24q-.23.77-.43,1.53l0,.07c-.13.51-.25,1-.37,1.53l-.07.34c-.11.5-.21,1-.3,1.49-.18,1-.33,2.06-.46,3.13,0,.25,0,.51-.07.76-.09.86-.16,1.72-.21,2.61,0,.05,0,.1,0,.16C16.49,39.39,16.48,41.85,16.59,44.35Z"/><path class="cls-11" d="M26.32,26.33l-.17.28Z"/><path class="cls-11" d="M27.3,24.89l-.29.42Z"/><path class="cls-11" d="M28,24l.38-.49Z"/><path class="cls-3" d="M63,85a7.49,7.49,0,0,1-.65-.46l0,.07c.18.28.36.55.56.82Z"/><path class="cls-4" d="M63,85a7.49,7.49,0,0,1-.65-.46l0,.07c.18.28.36.55.56.82Z"/><path class="cls-6" d="M63,85a7.49,7.49,0,0,1-.65-.46l0,.07c.18.28.36.55.56.82Z"/><path class="cls-5" d="M62.86,85.46c-.2-.27-.38-.54-.56-.82-.27.82-.52,1.65-.73,2.48-1.81,7-2.4,12.66-.78,20.45l1.14-.05A57.42,57.42,0,0,1,62.86,85.46Z"/><path class="cls-6" d="M62.86,85.46c-.2-.27-.38-.54-.56-.82-.27.82-.52,1.65-.73,2.48-1.81,7-2.4,12.66-.78,20.45l1.14-.05A57.42,57.42,0,0,1,62.86,85.46Z"/><path class="cls-5" d="M61.93,107.52l-1.14.05h0l1.14,0Z"/><path class="cls-12" d="M61.93,107.52l-1.14.05h0l1.14,0Z"/><path class="cls-7" d="M82,134.46a14.34,14.34,0,0,1-1.73,1c-.08.06-.15.14-.23.2a3,3,0,0,1-1,.37,14.64,14.64,0,0,1-4.48,1,15.2,15.2,0,0,1-13.11-5.92l-.28-.41-.2,0c-.44.09-.88.15-1.32.23a21.32,21.32,0,0,0,1.69,2.73,14.84,14.84,0,0,0,9.49,5.71q4.46-.47,9.11-1.2a14.52,14.52,0,0,0,2.77-1.77Z"/><path class="cls-12" d="M82,134.46a14.34,14.34,0,0,1-1.73,1c-.08.06-.15.14-.23.2a3,3,0,0,1-1,.37,14.64,14.64,0,0,1-4.48,1,15.2,15.2,0,0,1-13.11-5.92l-.28-.41-.2,0c-.44.09-.88.15-1.32.23a21.32,21.32,0,0,0,1.69,2.73,14.84,14.84,0,0,0,9.49,5.71q4.46-.47,9.11-1.2a14.52,14.52,0,0,0,2.77-1.77Z"/><path class="cls-7" d="M90.33,121.29l.38.85c.3-1.18.56-2.35.77-3.5a50.13,50.13,0,0,0,.78-8.12c-.06.81-.11,1.63-.21,2.44v0h0c-.12,1-.27,2-.45,3.05A48.29,48.29,0,0,1,90.33,121.29Z"/><path class="cls-12" d="M90.33,121.29l.38.85c.3-1.18.56-2.35.77-3.5a50.13,50.13,0,0,0,.78-8.12c-.06.81-.11,1.63-.21,2.44v0h0c-.12,1-.27,2-.45,3.05A48.29,48.29,0,0,1,90.33,121.29Z"/><path class="cls-7" d="M61.63,111.1h1q-.4-1.78-.68-3.58l-1.14,0Q61.14,109.26,61.63,111.1Z"/><path class="cls-12" d="M61.63,111.1h1q-.4-1.78-.68-3.58l-1.14,0Q61.14,109.26,61.63,111.1Z"/><path class="cls-7" d="M58.56,127.46c-.47-.53.09,1.35.14,1.48A15.76,15.76,0,0,0,59.6,131c.44-.07.88-.14,1.32-.23l.2,0a20.9,20.9,0,0,1-1.37-2.25A4.83,4.83,0,0,1,58.56,127.46Z"/><path class="cls-10" d="M58.56,127.46c-.47-.53.09,1.35.14,1.48A15.76,15.76,0,0,0,59.6,131c.44-.07.88-.14,1.32-.23l.2,0a20.9,20.9,0,0,1-1.37-2.25A4.83,4.83,0,0,1,58.56,127.46Z"/><path class="cls-12" d="M58.56,127.46c-.47-.53.09,1.35.14,1.48A15.76,15.76,0,0,0,59.6,131c.44-.07.88-.14,1.32-.23l.2,0a20.9,20.9,0,0,1-1.37-2.25A4.83,4.83,0,0,1,58.56,127.46Z"/><path class="cls-7" d="M64.65,121.46a8.41,8.41,0,0,0,.13-.89c.24-2.85-1-5.07-1.74-7.7q-.23-.87-.43-1.76h-1c.37,1.38.8,2.82,1.3,4.36A28.37,28.37,0,0,1,64.65,121.46Z"/><path class="cls-10" d="M64.65,121.46a8.41,8.41,0,0,0,.13-.89c.24-2.85-1-5.07-1.74-7.7q-.23-.87-.43-1.76h-1c.37,1.38.8,2.82,1.3,4.36A28.37,28.37,0,0,1,64.65,121.46Z"/><path class="cls-12" d="M64.65,121.46a8.41,8.41,0,0,0,.13-.89c.24-2.85-1-5.07-1.74-7.7q-.23-.87-.43-1.76h-1c.37,1.38.8,2.82,1.3,4.36A28.37,28.37,0,0,1,64.65,121.46Z"/><path class="cls-3" d="M21.72,39.84a4.09,4.09,0,0,1,3.54.09,5.37,5.37,0,0,1,1.16.8c-.06-2.53-.06-4.78,0-6.79l0,.06c0-.9.09-1.75.15-2.56q0-.7.1-1.35l-.3.4-.07.11a37.79,37.79,0,0,1,5.1-10.3,32,32,0,0,0-2.23,2.31c-.25.29-.5.57-.74.86L28,24c-.24.31-.49.62-.71.94l-.29.42c-.24.34-.47.68-.69,1l-.17.28c-.24.39-.48.77-.69,1.16h0a31.82,31.82,0,0,0-3.82,12.12Z"/><path class="cls-5" d="M26.22,55a2.71,2.71,0,0,1-.48,0A2.74,2.74,0,0,0,26.22,55Z"/><path class="cls-5" d="M22.39,52.51a15.06,15.06,0,0,1-1.14-2.33,8.15,8.15,0,0,0,2.92,2.07,5.61,5.61,0,0,0,2.88.42c0,.79.06,1.77.09,2a2.14,2.14,0,0,1-.9.32,2.11,2.11,0,0,0,.85-.28l.07,1.09c.3,4.34,1.19,6.7,3.35,9.15a60.17,60.17,0,0,0,6.21,5.61l0,0c1.45,1.21,3.09,2.58,5,4.23a9.28,9.28,0,0,0,12.33,0c2.26-2,4.16-3.54,5.79-4.91h0c3.4-2.84,5.55-4.71,6.88-6.91,0-1.19-.15-2.38-.31-3.57-.18-1.41-.37-2.85-.58-4.3a8.35,8.35,0,0,1-4.78,2.71A5.7,5.7,0,0,1,59,57.59c-2.78-.31-4.57-3-3.19-5.54,1.27-2.36,4.88-3.33,7.4-3.26a6.15,6.15,0,0,1,1.53.24c-.21-.85-.45-1.68-.72-2.5a4.74,4.74,0,0,1-2.59,1.11c-1.6.16-4.09-.47-4.87-1.82a.89.89,0,0,1-.1-.51c-.44.28-1.22,0-1-.53a4.58,4.58,0,0,1,.93-1.66A5.19,5.19,0,0,1,57.26,42a5.34,5.34,0,0,1,1.64-1.16A11.75,11.75,0,0,1,60.82,40a42.5,42.5,0,0,0-3.52-4.38c-1.17.13-2.17.27-2.9.27-1.69,0-2.11-2.08-.4-2.23l1.39-.11C51.29,29.18,47,24.93,45.61,19.1l-.31-.47c-2.15,1-4.38,1.89-6.09,2.7A43.26,43.26,0,0,0,26.43,33.94c-.06,2-.06,4.27,0,6.79a5.37,5.37,0,0,0-1.16-.8,4.09,4.09,0,0,0-3.54-.09l-.09,0C19.37,41,19.75,43.81,20.09,46A20.45,20.45,0,0,0,22,51.79C22.11,52,22.25,52.28,22.39,52.51Zm7.81-9.28a2.31,2.31,0,0,1,.06-2.52c1.45-2,5.35-1.42,8.13.14A5.34,5.34,0,0,1,40,42,5.19,5.19,0,0,1,41,43.12a4.58,4.58,0,0,1,.93,1.66c.18.56-.56.8-1,.56a1.13,1.13,0,0,1-.13.49c-.78,1.34-3.28,2-4.87,1.82a4.72,4.72,0,0,1-3.6-2.31,5.27,5.27,0,0,1-1.22-.92,2.18,2.18,0,0,1-2.41-1.25c-.05-.12.06-.27.16-.18A1.23,1.23,0,0,0,30.2,43.23Zm5.26,14.61a8.69,8.69,0,0,1-6.06-4.51,2.57,2.57,0,0,1,.4-3.16.68.68,0,0,1-.23-.28.59.59,0,0,1,.08-.64.85.85,0,0,1,.57-.29,1.71,1.71,0,0,1,.35,0A.73.73,0,0,1,31,49h0a.74.74,0,0,1,.29.19,6.1,6.1,0,0,1,2.07-.43c2.52-.07,6.13.9,7.4,3.26,1.37,2.54-.41,5.23-3.19,5.54A5.7,5.7,0,0,1,35.47,57.84ZM53.61,62a6.38,6.38,0,0,0,1.86,1.67,4.82,4.82,0,0,0,1.24.21l-.16-.22c-.19-.26.14-.6.42-.52.51.15,1,.81.67,1.31a.4.4,0,0,1-.63.07.89.89,0,0,1-.17-.36c-.25.23-.61.63-.67.7A12.11,12.11,0,0,0,55.4,66c-.58.86-1.15,1.72-1.74,2.58a8,8,0,0,1-2.85,2.79,5.37,5.37,0,0,1-.65.28,2.31,2.31,0,0,1,.48.17,1.37,1.37,0,0,1,.76,1c.32,1.66-1.87,2.2-3.05,2.34a4.06,4.06,0,0,1-3-.45,1.53,1.53,0,0,1-.29-2.36,2.58,2.58,0,0,1,1.31-.66,4.9,4.9,0,0,1-1.12-.5,10.84,10.84,0,0,1-2.67-2.4l-.18-.1.06,0a15.48,15.48,0,0,1-1.08-1.52c-.33-.54-.67-1.09-1-1.6l-.07-.08-.08-.1c-.17-.22-.34-.44-.53-.64s-.28-.33-.46-.52a.84.84,0,0,1-.16.33.4.4,0,0,1-.63-.05c-.31-.49.14-1.16.64-1.33.28-.09.62.24.43.51l-.17.26a4.68,4.68,0,0,0,1.17-.25,7.43,7.43,0,0,0,2.24-2,5.83,5.83,0,0,1,2.9-1.74,2.64,2.64,0,0,1,2.35.57,2.64,2.64,0,0,1,2.35-.57A7.06,7.06,0,0,1,53.61,62ZM46,54.41a.85.85,0,0,1,.57-.29,1.71,1.71,0,0,1,.35,0,.73.73,0,0,1,.38.11h0a.73.73,0,0,1,.5.8.71.71,0,0,1-.68.63h-.07a.73.73,0,0,1-.37,0,2,2,0,0,1-.32-.14.87.87,0,0,1-.48-.43A.59.59,0,0,1,46,54.41Zm-1.85,2.28c.76-.79,1.63-.31,2.52-.06,1.61.44,3-.28,4.56-.45a.15.15,0,0,1,.13.22,4.88,4.88,0,0,1-3.4,2.1c-1.61.1-2.43-1-3.79-1.65A.11.11,0,0,1,44.12,56.69Zm-13.68-22c3.76-1.25,4.38-2,11.7-1,1.71.23,1.18,2.29-.51,2.21s-4.94-1-8.66-.79C32,35.21,25.37,36.37,30.44,34.68Zm-8.58,7.48a2,2,0,0,1,2.8.74,6.48,6.48,0,0,1,1.16,3.22,4.1,4.1,0,0,1-1,3.15c-.07.1-.23,0-.22-.11a9.86,9.86,0,0,0-.38-3.31,4.34,4.34,0,0,0-.79-1.34c0,.16,0,.31,0,.47a1.21,1.21,0,0,1-2.28.72A2.77,2.77,0,0,1,21.86,42.17Z"/><path class="cls-5" d="M23.27,53.7q-.17-.19-.33-.4Q23.1,53.51,23.27,53.7Z"/><path class="cls-5" d="M25,54.89a2.76,2.76,0,0,1-.56-.22,2.77,2.77,0,0,0,.56.22,3.88,3.88,0,0,0,.6.11A3.74,3.74,0,0,1,25,54.89Z"/><path class="cls-5" d="M22.81,53.14c-.14-.19-.27-.39-.4-.59Q22.61,52.86,22.81,53.14Z"/><path class="cls-5" d="M24.3,54.57a3.67,3.67,0,0,1-.36-.24A3.67,3.67,0,0,0,24.3,54.57Z"/><path class="cls-5" d="M23.76,54.18c-.11-.1-.22-.2-.33-.31Z"/><path class="cls-3" d="M26.24,55h0Z"/><path class="cls-6" d="M26.24,55h0Z"/><path class="cls-3" d="M25.74,55h0Z"/><path class="cls-6" d="M25.74,55h0Z"/><path class="cls-3" d="M23.43,53.87l-.16-.17Z"/><path class="cls-6" d="M23.43,53.87l-.16-.17Z"/><path class="cls-3" d="M22.41,52.55l0,0Z"/><path class="cls-6" d="M22.41,52.55l0,0Z"/><path class="cls-3" d="M24.48,54.67l-.17-.1Z"/><path class="cls-6" d="M24.48,54.67l-.17-.1Z"/><path class="cls-3" d="M22.93,53.3l-.12-.16Z"/><path class="cls-6" d="M22.93,53.3l-.12-.16Z"/><path class="cls-3" d="M23.94,54.33l-.18-.15Z"/><path class="cls-6" d="M23.94,54.33l-.18-.15Z"/><path class="cls-5" d="M27.14,54.67c0-.23-.07-1.21-.09-2a5.61,5.61,0,0,1-2.88-.42,8.15,8.15,0,0,1-2.92-2.07,15.06,15.06,0,0,0,1.14,2.33l0,0c.13.21.26.4.4.59l.12.16q.16.21.33.4l.16.17c.11.11.22.21.33.31l.18.15a3.67,3.67,0,0,0,.36.24l.17.1a2.76,2.76,0,0,0,.56.22,3.74,3.74,0,0,0,.6.11h.1a2.71,2.71,0,0,0,.48,0h0A2.14,2.14,0,0,0,27.14,54.67Z"/><path class="cls-6" d="M27.14,54.67c0-.23-.07-1.21-.09-2a5.61,5.61,0,0,1-2.88-.42,8.15,8.15,0,0,1-2.92-2.07,15.06,15.06,0,0,0,1.14,2.33l0,0c.13.21.26.4.4.59l.12.16q.16.21.33.4l.16.17c.11.11.22.21.33.31l.18.15a3.67,3.67,0,0,0,.36.24l.17.1a2.76,2.76,0,0,0,.56.22,3.74,3.74,0,0,0,.6.11h.1a2.71,2.71,0,0,0,.48,0h0A2.14,2.14,0,0,0,27.14,54.67Z"/><path class="cls-5" d="M23.49,45c0-.16,0-.31,0-.47a4.34,4.34,0,0,1,.79,1.34,9.86,9.86,0,0,1,.38,3.31c0,.13.15.2.22.11a4.1,4.1,0,0,0,1-3.15,6.48,6.48,0,0,0-1.16-3.22,2,2,0,0,0-2.8-.74,2.77,2.77,0,0,0-.65,3.54A1.21,1.21,0,0,0,23.49,45Z"/><path class="cls-6" d="M23.49,45c0-.16,0-.31,0-.47a4.34,4.34,0,0,1,.79,1.34,9.86,9.86,0,0,1,.38,3.31c0,.13.15.2.22.11a4.1,4.1,0,0,0,1-3.15,6.48,6.48,0,0,0-1.16-3.22,2,2,0,0,0-2.8-.74,2.77,2.77,0,0,0-.65,3.54A1.21,1.21,0,0,0,23.49,45Z"/><path class="cls-5" d="M40.77,52c-1.27-2.36-4.88-3.33-7.4-3.26a6.1,6.1,0,0,0-2.07.43.72.72,0,0,1,.21.61.71.71,0,0,1-.68.63h-.07a.73.73,0,0,1-.37,0,2,2,0,0,1-.32-.14,1.42,1.42,0,0,1-.25-.15,2.57,2.57,0,0,0-.4,3.16,8.69,8.69,0,0,0,6.06,4.51,5.7,5.7,0,0,0,2.11-.25C40.35,57.28,42.14,54.59,40.77,52Z"/><path class="cls-13" d="M40.77,52c-1.27-2.36-4.88-3.33-7.4-3.26a6.1,6.1,0,0,0-2.07.43.72.72,0,0,1,.21.61.71.71,0,0,1-.68.63h-.07a.73.73,0,0,1-.37,0,2,2,0,0,1-.32-.14,1.42,1.42,0,0,1-.25-.15,2.57,2.57,0,0,0-.4,3.16,8.69,8.69,0,0,0,6.06,4.51,5.7,5.7,0,0,0,2.11-.25C40.35,57.28,42.14,54.59,40.77,52Z"/><path class="cls-5" d="M30.38,50.45a.73.73,0,0,0,.37,0h.07a.71.71,0,0,0,.68-.63.72.72,0,0,0-.21-.61,4.31,4.31,0,0,0-1.49,1,1.42,1.42,0,0,0,.25.15A2,2,0,0,0,30.38,50.45Z"/><path class="cls-9" d="M30.38,50.45a.73.73,0,0,0,.37,0h.07a.71.71,0,0,0,.68-.63.72.72,0,0,0-.21-.61,4.31,4.31,0,0,0-1.49,1,1.42,1.42,0,0,0,.25.15A2,2,0,0,0,30.38,50.45Z"/><path class="cls-13" d="M30.38,50.45a.73.73,0,0,0,.37,0h.07a.71.71,0,0,0,.68-.63.72.72,0,0,0-.21-.61,4.31,4.31,0,0,0-1.49,1,1.42,1.42,0,0,0,.25.15A2,2,0,0,0,30.38,50.45Z"/><path class="cls-5" d="M56.15,45.15c-.22.39-.68.11-.51-.41A7.26,7.26,0,0,1,57.26,42a5.19,5.19,0,0,0-.95,1.11,4.58,4.58,0,0,0-.93,1.66c-.18.58.6.81,1,.53a2.78,2.78,0,0,1,.49-1.25A7.26,7.26,0,0,0,56.15,45.15Z"/><path class="cls-6" d="M56.15,45.15c-.22.39-.68.11-.51-.41A7.26,7.26,0,0,1,57.26,42a5.19,5.19,0,0,0-.95,1.11,4.58,4.58,0,0,0-.93,1.66c-.18.58.6.81,1,.53a2.78,2.78,0,0,1,.49-1.25A7.26,7.26,0,0,0,56.15,45.15Z"/><path class="cls-5" d="M60.82,40a11.75,11.75,0,0,0-1.92.86,5,5,0,0,1,2.2-.44Z"/><path class="cls-6" d="M60.82,40a11.75,11.75,0,0,0-1.92.86,5,5,0,0,1,2.2-.44Z"/><path class="cls-5" d="M65.16,45c0,.1-.11.2-.17.3a5.22,5.22,0,0,0,1.13-.82l0-.12a4.74,4.74,0,0,1-.92-.24A1,1,0,0,1,65.16,45Z"/><path class="cls-6" d="M65.16,45c0,.1-.11.2-.17.3a5.22,5.22,0,0,0,1.13-.82l0-.12a4.74,4.74,0,0,1-.92-.24A1,1,0,0,1,65.16,45Z"/><path class="cls-6" d="M65.16,45c0,.1-.11.2-.17.3a5.22,5.22,0,0,0,1.13-.82l0-.12a4.74,4.74,0,0,1-.92-.24A1,1,0,0,1,65.16,45Z"/><path class="cls-5" d="M61.36,40.41a7.41,7.41,0,0,1,3.75,1.48c-.43-.81-.88-1.63-1.38-2.45a9.87,9.87,0,0,0-2.9.55l.28.43Z"/><path class="cls-6" d="M61.36,40.41a7.41,7.41,0,0,1,3.75,1.48c-.43-.81-.88-1.63-1.38-2.45a9.87,9.87,0,0,0-2.9.55l.28.43Z"/><path class="cls-6" d="M61.36,40.41a7.41,7.41,0,0,1,3.75,1.48c-.43-.81-.88-1.63-1.38-2.45a9.87,9.87,0,0,0-2.9.55l.28.43Z"/><path class="cls-14" d="M65,45.33c.06-.1.12-.2.17-.3a1,1,0,0,0,0-.88,6.51,6.51,0,0,1-.94-.42,11.82,11.82,0,0,0-2.12-.93,4,4,0,0,1,1,.81,2,2,0,0,1,.54,2c-.53,1.66-3.32,2.19-4.7,1.46a2.35,2.35,0,0,1-.58-.44,2.51,2.51,0,0,1-.56-2.14,2.36,2.36,0,0,1,1-1.73,4.42,4.42,0,0,0-1.89,1.35,2.78,2.78,0,0,0-.49,1.25.89.89,0,0,0,.1.51c.78,1.34,3.28,2,4.87,1.82A4.74,4.74,0,0,0,64,46.53,4.57,4.57,0,0,0,65,45.33Z"/><path class="cls-15" d="M58.8,42.7a2.36,2.36,0,0,0-1,1.73,2.51,2.51,0,0,0,.56,2.14A2.35,2.35,0,0,0,59,47c1.39.74,4.18.2,4.7-1.46a2,2,0,0,0-.54-2,4,4,0,0,0-1-.81A5.1,5.1,0,0,0,58.8,42.7Zm4,2.59a.57.57,0,0,1-.4.49c0,.06-.05.11-.1.17a1.17,1.17,0,0,1-.28.24,2.58,2.58,0,0,1-2.59.25,1.58,1.58,0,0,1-.39-.29,1.84,1.84,0,0,1-.37-1.33.41.41,0,0,1,.08-.74c.55-2,4-1.13,4,.72A1.25,1.25,0,0,1,62.76,45.29Z"/><path class="cls-3" d="M58.71,44.08a.49.49,0,0,1,.16,0,.42.42,0,1,1,0,.83.46.46,0,0,1-.24-.07A1.84,1.84,0,0,0,59,46.15a1.58,1.58,0,0,0,.39.29A2.58,2.58,0,0,0,62,46.19a1.17,1.17,0,0,0,.28-.24c0-.06.06-.11.1-.17a.6.6,0,0,1-.8-.34,1.68,1.68,0,0,1,0-1.22c.08-.17.33-.18.49-.12a1.11,1.11,0,0,1,.6.7C62.68,42.94,59.27,42.08,58.71,44.08Z"/><path class="cls-16" d="M55.64,44.74c-.18.52.29.79.51.41a7.26,7.26,0,0,1,.76-1.09A4.42,4.42,0,0,1,58.8,42.7a5.1,5.1,0,0,1,3.32.09,11.82,11.82,0,0,1,2.12.93,6.51,6.51,0,0,0,.94.42,4.74,4.74,0,0,0,.92.24c-.08-.34-.16-.68-.24-1-.23-.49-.49-1-.75-1.47a7.41,7.41,0,0,0-3.75-1.48h-.25a5,5,0,0,0-2.2.44A5.34,5.34,0,0,0,57.26,42,7.26,7.26,0,0,0,55.64,44.74Z"/><path class="cls-14" d="M62.08,44.1c-.16-.06-.41-.06-.49.12a1.68,1.68,0,0,0,0,1.22.6.6,0,0,0,.8.34.57.57,0,0,0,.4-.49,1.25,1.25,0,0,0-.08-.49A1.11,1.11,0,0,0,62.08,44.1Z"/><path class="cls-14" d="M58.87,44a.49.49,0,0,0-.16,0,.41.41,0,0,0-.08.74.46.46,0,0,0,.24.07A.42.42,0,1,0,58.87,44Z"/><path class="cls-5" d="M63.18,48.79c-2.52-.07-6.13.9-7.4,3.26-1.37,2.54.41,5.23,3.19,5.54a5.7,5.7,0,0,0,2.11.25,8.35,8.35,0,0,0,4.78-2.71c-.3-2-.66-4.1-1.16-6.1A6.15,6.15,0,0,0,63.18,48.79Z"/><path class="cls-13" d="M63.18,48.79c-2.52-.07-6.13.9-7.4,3.26-1.37,2.54.41,5.23,3.19,5.54a5.7,5.7,0,0,0,2.11.25,8.35,8.35,0,0,0,4.78-2.71c-.3-2-.66-4.1-1.16-6.1A6.15,6.15,0,0,0,63.18,48.79Z"/><path class="cls-5" d="M66.71,50.14a.72.72,0,0,1-.55.31h-.07a.73.73,0,0,1-.37,0,2,2,0,0,1-.32-.14.87.87,0,0,1-.48-.43.59.59,0,0,1,.08-.64.56.56,0,0,1,.11-.09L64.71,49c.5,2,.86,4.06,1.16,6.1a7.94,7.94,0,0,0,1.28-1.81A2.57,2.57,0,0,0,66.71,50.14Z"/><path class="cls-6" d="M66.71,50.14a.72.72,0,0,1-.55.31h-.07a.73.73,0,0,1-.37,0,2,2,0,0,1-.32-.14.87.87,0,0,1-.48-.43.59.59,0,0,1,.08-.64.56.56,0,0,1,.11-.09L64.71,49c.5,2,.86,4.06,1.16,6.1a7.94,7.94,0,0,0,1.28-1.81A2.57,2.57,0,0,0,66.71,50.14Z"/><path class="cls-13" d="M66.71,50.14a.72.72,0,0,1-.55.31h-.07a.73.73,0,0,1-.37,0,2,2,0,0,1-.32-.14.87.87,0,0,1-.48-.43.59.59,0,0,1,.08-.64.56.56,0,0,1,.11-.09L64.71,49c.5,2,.86,4.06,1.16,6.1a7.94,7.94,0,0,0,1.28-1.81A2.57,2.57,0,0,0,66.71,50.14Z"/><path class="cls-5" d="M64.91,49.89a.87.87,0,0,0,.48.43,2,2,0,0,0,.32.14.73.73,0,0,0,.37,0h.07a.72.72,0,0,0,.55-.31,4.44,4.44,0,0,0-1.61-1,.56.56,0,0,0-.11.09A.59.59,0,0,0,64.91,49.89Z"/><path class="cls-6" d="M64.91,49.89a.87.87,0,0,0,.48.43,2,2,0,0,0,.32.14.73.73,0,0,0,.37,0h.07a.72.72,0,0,0,.55-.31,4.44,4.44,0,0,0-1.61-1,.56.56,0,0,0-.11.09A.59.59,0,0,0,64.91,49.89Z"/><path class="cls-9" d="M64.91,49.89a.87.87,0,0,0,.48.43,2,2,0,0,0,.32.14.73.73,0,0,0,.37,0h.07a.72.72,0,0,0,.55-.31,4.44,4.44,0,0,0-1.61-1,.56.56,0,0,0-.11.09A.59.59,0,0,0,64.91,49.89Z"/><path class="cls-13" d="M64.91,49.89a.87.87,0,0,0,.48.43,2,2,0,0,0,.32.14.73.73,0,0,0,.37,0h.07a.72.72,0,0,0,.55-.31,4.44,4.44,0,0,0-1.61-1,.56.56,0,0,0-.11.09A.59.59,0,0,0,64.91,49.89Z"/><path class="cls-3" d="M47.47.72l.38-.14Z"/><path class="cls-3" d="M53.83.17h0Z"/><path class="cls-3" d="M45.62,1.84l.25-.19Z"/><path class="cls-3" d="M46.44,1.25a7.83,7.83,0,0,1,.89-.47A7.18,7.18,0,0,0,46.44,1.25Z"/><path class="cls-3" d="M80.19,21.32q.46,1.09.87,2.21Q80.65,22.41,80.19,21.32Z"/><path class="cls-3" d="M75.93,13.49q.59.85,1.13,1.72Q76.51,14.34,75.93,13.49Z"/><path class="cls-3" d="M53.89.18c.41.06.83.13,1.24.21C54.71.31,54.3.23,53.89.18Z"/><path class="cls-3" d="M73.8,10.72c.59.69,1.14,1.41,1.67,2.14C74.94,12.12,74.39,11.41,73.8,10.72Z"/><path class="cls-3" d="M52.92.07h0Z"/><path class="cls-3" d="M79.24,19.23c.24.5.48,1,.7,1.5-.36-.83-.74-1.65-1.15-2.46.07.15.14.3.21.45Z"/><path class="cls-3" d="M72.17,9a25.31,25.31,0,0,0-5.73-4.3L65.37,4.1l1.07.56A25.31,25.31,0,0,1,72.17,9Z"/><path class="cls-3" d="M77.8,16.45c.11.19.2.38.3.57.22.4.46.79.67,1.2-.42-.82-.86-1.61-1.33-2.4.12.21.23.42.35.63Z"/><path class="cls-3" d="M83.56,33.4c1.34,10.38-.32,20.51-3.22,30.48.2.41.38.82.55,1.23.89-2.93,1.81-5.83,2.64-8.7.67-2.32,1.39-4.71,2-7.13.25,7.11.33,14.08-1.24,21.19.24-.59.49-1.19.72-1.78h0c.18-2.18.45-4.36.58-6.59a118.84,118.84,0,0,0-.3-17.92A95.89,95.89,0,0,0,83,29.83q.35,1.39.65,2.8A1.65,1.65,0,0,0,83.56,33.4Z"/><path class="cls-3" d="M89.93,97.25a82,82,0,0,1,2.45,9.4A50.67,50.67,0,0,1,92,113c.1-.81.15-1.62.21-2.44a50.93,50.93,0,0,0,0-7.33v0a51.81,51.81,0,0,0-1.12-7.46,52.24,52.24,0,0,0-1.95-6.61c-1-2.77-2.1-5.55-2.93-8.39C86,86.5,88.17,91.78,89.93,97.25Z"/><path class="cls-3" d="M83.68,76.15C84.32,78,85,79.44,84.47,81a14.88,14.88,0,0,1-1.76,3.06,30.66,30.66,0,0,0-1.78,3.64v.05c-.54,6.19,1,12.18,2.6,18.11.73,1.53,1.44,3,2.13,4.87l0,.08c-.43-1.71-.88-3.42-1.29-5.13-1.67-7-1-12.84.82-19.37,0,.07,0,.14,0,.21a32.29,32.29,0,0,1,.93-6.24h0a37.27,37.27,0,0,1-.95-4.14,23.76,23.76,0,0,1-.29-3.23l-.21.62C84.32,74.42,84,75.28,83.68,76.15Z"/><path class="cls-3" d="M82,26.31h0c.33,1.06.63,2.12.91,3.19-.48-1.88-1-3.75-1.69-5.57.28.78.54,1.58.79,2.38Z"/><path class="cls-3" d="M76.19,81.24c0,.16,0,.31,0,.46a4.83,4.83,0,0,0,.42-1.38c.07-.54.08-3.07.23-4.48,0-.4,0-.79,0-1.15-.41,1.25-.81,2.5-1.19,3.76A13.77,13.77,0,0,1,76.19,81.24Z"/><path class="cls-3" d="M53.21,27.23a54.94,54.94,0,0,1,6.19,6.22,34.52,34.52,0,0,0-4,.1L54,33.66c-1.71.15-1.29,2.23.4,2.23.73,0,1.73-.14,2.9-.27A30.68,30.68,0,0,1,61,35.4a47,47,0,0,1,2.76,4c.5.82,1,1.64,1.38,2.45.26.49.52,1,.75,1.47.08.34.16.68.24,1l0,.12C67,48.22,68,51.84,68.67,55.57a38.43,38.43,0,0,1,.63,7c-.06,7.77-4.31,14.62-6.21,22,0,.17-.08.34-.12.51l-.1.43a57.42,57.42,0,0,0-.93,22.05h0q.28,1.8.68,3.58.2.88.43,1.76c.7,2.64,2,4.85,1.74,7.7a8.41,8.41,0,0,1-.13.89c-.6,3.1-3,6.79-6,3.4-.47-.53.09,1.35.14,1.48a15.84,15.84,0,0,0,.94,2.12,20.9,20.9,0,0,0,1.37,2.25l.28.41A15.2,15.2,0,0,0,74.5,137a14.64,14.64,0,0,0,4.48-1c-1.21.26-2.87.3-3.12.55a16.3,16.3,0,0,0,3-4,17,17,0,0,0,1.31-3.47l-2.35-6.9a13.46,13.46,0,0,1-2,5c-2.38,3.69-7.07,7.35-11.36,4.25a6.62,6.62,0,0,1-2-2.13,4.25,4.25,0,0,0,2.61.52,3.38,3.38,0,0,0,2-1.48c2.89-4.18,2.11-9.25.3-13.69-2.27-5.56-4-10.83-3.75-16.94.27-5.79,2.3-11.4,4-16.88C68.4,78.49,69.21,76,70,73.58c-.18-1.44,0-2.59,1-2.91l.15-.45a1.8,1.8,0,0,0,.17-.47c.5-1.42,1-2.84,1.52-4.25a3.4,3.4,0,0,1-.42-2.37c.27-.69.79-.63,1.36-.26.58-1.66,1.11-3.35,1.57-5.05,0-.19,0-.38-.06-.57a.82.82,0,0,1,0-.4,1.55,1.55,0,0,1,.42-.52,53.94,53.94,0,0,0,1.35-7.88c.58-6.28.13-13-2.41-18.84-.06-.14-.13-.26-.19-.4h0q-.39-.86-.81-1.63h0a22.65,22.65,0,0,0-6.12-7.31h0a9.57,9.57,0,0,0-2.83-1.68c4,2.6,6.17,6.82,7.43,11.29h0c.35,1.24.64,2.49.88,3.74a59.52,59.52,0,0,1,0,20.93c-.36,2.18-.82,4.33-1.36,6.46.67-2.68-.2-6.72-.63-9.42a35.71,35.71,0,0,0-2.58-8.93A30.37,30.37,0,0,0,60.67,32h0Q60,31.49,59.39,31c-.47-.36-.93-.71-1.42-1a58.46,58.46,0,0,1-9.32-7.15A49.75,49.75,0,0,0,53.21,27.23Z"/><path class="cls-3" d="M85.18,87.83s0-.1,0-.15S85.18,87.78,85.18,87.83Z"/><path class="cls-3" d="M89.86,109.42a29.5,29.5,0,0,1,.08,11l.39.88a48.29,48.29,0,0,0,1.25-5.24c.18-1,.33-2,.45-3.05a46.53,46.53,0,0,0-1.65-5.88c-1.44-4.09-3.26-8.05-4.33-12.22C87.11,99.71,88.85,104.45,89.86,109.42Z"/><path class="cls-3" d="M80.25,135.5a14.34,14.34,0,0,0,1.73-1l-.19-.57A8.14,8.14,0,0,1,80.25,135.5Z"/><path class="cls-3" d="M83.12,73.3q.63-1.42,1.21-2.84c1.58-7.11,1.49-14.07,1.24-21.19-.64,2.42-1.36,4.8-2,7.13-.83,2.87-1.75,5.77-2.64,8.7A34.65,34.65,0,0,1,83.12,73.3Z"/><path class="cls-17" d="M83.12,73.3q.63-1.42,1.21-2.84c1.58-7.11,1.49-14.07,1.24-21.19-.64,2.42-1.36,4.8-2,7.13-.83,2.87-1.75,5.77-2.64,8.7A34.65,34.65,0,0,1,83.12,73.3Z"/><path class="cls-3" d="M89.86,109.42c-1-5-2.75-9.71-3.8-14.51a27,27,0,0,1-.89-6.07c0-.34,0-.67,0-1,0,0,0-.1,0-.15,0-.38,0-.76,0-1.13,0-.07,0-.14,0-.21-1.85,6.52-2.49,12.32-.82,19.37.41,1.71.86,3.42,1.29,5.13l4.26,9.58A29.5,29.5,0,0,0,89.86,109.42Z"/><path class="cls-17" d="M89.86,109.42c-1-5-2.75-9.71-3.8-14.51a27,27,0,0,1-.89-6.07c0-.34,0-.67,0-1,0,0,0-.1,0-.15,0-.38,0-.76,0-1.13,0-.07,0-.14,0-.21-1.85,6.52-2.49,12.32-.82,19.37.41,1.71.86,3.42,1.29,5.13l4.26,9.58A29.5,29.5,0,0,0,89.86,109.42Z"/><path class="cls-11" d="M85.21,86.55c0,.38,0,.76,0,1.13,0,0,0,.1,0,.15,0,.34,0,.67,0,1a27,27,0,0,0,.89,6.07c1.07,4.16,2.88,8.13,4.33,12.22A46.53,46.53,0,0,1,92,113h0v0a50.67,50.67,0,0,0,.34-6.31,82,82,0,0,0-2.45-9.4C88.17,91.78,86,86.5,86.25,80.72v0l-.12-.38h0A32.28,32.28,0,0,0,85.21,86.55Z"/><path class="cls-11" d="M84.33,70.46q-.58,1.42-1.21,2.84c.1.65.2,1.31.28,2q.14.45.28.87c.3-.87.64-1.74,1-2.59l.21-.62h0A40.46,40.46,0,0,1,85,68.68h0C84.82,69.27,84.57,69.87,84.33,70.46Z"/><path class="cls-11" d="M79.51,95.31a57.07,57.07,0,0,0,2.26,6.7c.59,1.43,1.17,2.66,1.75,3.87-1.57-5.93-3.13-11.92-2.6-18.11v-.05c-.24.56-.48,1.11-.72,1.66A8.36,8.36,0,0,0,79.51,95.31Z"/><path class="cls-11" d="M75.87,136.62c.24-.25,1.91-.29,3.12-.55a3,3,0,0,0,1-.37c.08-.06.15-.14.23-.2a8.14,8.14,0,0,0,1.54-1.61l-1.61-4.72a17,17,0,0,1-1.31,3.47A16.3,16.3,0,0,1,75.87,136.62Z"/><path class="cls-11" d="M79,18.73c-.07-.15-.13-.3-.21-.45l0-.06c-.21-.41-.45-.8-.67-1.2C78.41,17.58,78.72,18.15,79,18.73Z"/><path class="cls-11" d="M73.7,27.59h0Z"/><path class="cls-11" d="M80.15,27.23l-.24.12c-1,.38-2,.74-2.94,1.08-.81.28-1.63.54-2.45.79.06.14.13.26.19.4,2.54,5.83,3,12.56,2.41,18.84a53.94,53.94,0,0,1-1.35,7.88.91.91,0,0,1,.76-.29c1.11.38,1.16,1.56,1.54,2.58.64,1.74,1.41,3.42,2.21,5.08l.07.16c2.9-10,4.56-20.09,3.22-30.48a1.65,1.65,0,0,1,.07-.77q-.3-1.4-.65-2.8l-.08-.33c-.27-1.07-.58-2.14-.91-3.19Z"/><path class="cls-11" d="M82,26.31c-.25-.8-.51-1.59-.79-2.38l-.15-.4q-.41-1.12-.87-2.21l-.25-.58c-.22-.51-.46-1-.7-1.5A52.47,52.47,0,0,1,82,26.31Z"/><path class="cls-11" d="M65.86,31.34l-1.81.31c1.18-.21-1.19.18-1.71.23L60.67,32a30.37,30.37,0,0,1,7.87,10.63,35.71,35.71,0,0,1,2.58,8.93c.43,2.7,1.3,6.74.63,9.42.54-2.13,1-4.29,1.36-6.46a59.52,59.52,0,0,0,0-20.93c-.24-1.25-.53-2.5-.88-3.74C70.11,30.45,68,30.94,65.86,31.34Z"/><path class="cls-11" d="M76.08,65.21c.73.84,1.41,1.72,2.06,2.62-.45-1.41-1-2.76-1.49-4.16a16.4,16.4,0,0,1-1.26-5.86c-.46,1.7-1,3.39-1.57,5.05A13.16,13.16,0,0,1,76.08,65.21Z"/><path class="cls-11" d="M71.19,70.22l-.15.45a1.78,1.78,0,0,1,.5-.1c1.37-.05,2,1.48,2.34,2.54.53,1.7,1.29,3.52,1.79,5.34.38-1.26.78-2.51,1.19-3.76,0-.08,0-.15,0-.23a14,14,0,0,0-2.18-5.81c-.38-.68-1.24-1.94-1.8-3.16-.51,1.41-1,2.83-1.52,4.25A1.8,1.8,0,0,1,71.19,70.22Z"/><path class="cls-11" d="M58,29.94c.49.33,1,.68,1.42,1C58.93,30.62,58.46,30.27,58,29.94Z"/><path class="cls-11" d="M72.05,81c0-1.05-1.67-4.74-2-7.44C69.21,76,68.4,78.49,67.63,81c-1.71,5.49-3.73,11.1-4,16.88-.29,6.11,1.48,11.38,3.75,16.94,1.81,4.44,2.59,9.5-.3,13.69a3.38,3.38,0,0,1-2,1.48,4.25,4.25,0,0,1-2.61-.52,6.62,6.62,0,0,0,2,2.13c4.29,3.1,9-.56,11.36-4.25a13.46,13.46,0,0,0,2-5c-1.75-5.14-3.25-9.54-3.29-9.64-2.06-5.13-4.64-10.8-4.73-16.39,0-.16,0-.33,0-.49a.48.48,0,0,1-.22-.17C65.83,90.45,72.29,86.15,72.05,81Z"/><path class="cls-18" d="M14.36,123.19a93,93,0,0,1-1.25,12.89l2.28.52C15.82,128,14.36,123.19,14.36,123.19Z"/><polygon class="cls-3" points="72.2 29.88 72.2 29.88 72.2 29.88 72.2 29.88"/><polygon class="cls-19" points="72.2 29.88 72.2 29.88 72.2 29.88 72.2 29.88"/><path class="cls-3" d="M60.67,32h0c-.42-.36-.84-.72-1.28-1.05Q60,31.49,60.67,32Z"/><path class="cls-19" d="M60.67,32h0c-.42-.36-.84-.72-1.28-1.05Q60,31.49,60.67,32Z"/><path class="cls-11" d="M60.67,32l1.67-.14c.52-.05,2.89-.44,1.71-.23l1.81-.31c2.13-.4,4.24-.89,6.33-1.46h0A21,21,0,0,0,67,20.43a82.29,82.29,0,0,1-17.42,3.28A67.51,67.51,0,0,0,58,29.94c.49.33,1,.68,1.42,1S60.26,31.67,60.67,32Z"/><path class="cls-19" d="M60.67,32l1.67-.14c.52-.05,2.89-.44,1.71-.23l1.81-.31c2.13-.4,4.24-.89,6.33-1.46h0A21,21,0,0,0,67,20.43a82.29,82.29,0,0,1-17.42,3.28A67.51,67.51,0,0,0,58,29.94c.49.33,1,.68,1.42,1S60.26,31.67,60.67,32Z"/><path class="cls-3" d="M77.8,16.45h0l.31.56C78,16.83,77.9,16.64,77.8,16.45Z"/><path class="cls-19" d="M77.8,16.45h0l.31.56C78,16.83,77.9,16.64,77.8,16.45Z"/><polygon class="cls-3" points="82 26.31 82 26.31 82 26.31 82 26.31"/><polygon class="cls-19" points="82 26.31 82 26.31 82 26.31 82 26.31"/><path class="cls-3" d="M79,18.73l.24.5Z"/><path class="cls-19" d="M79,18.73l.24.5Z"/><path class="cls-3" d="M74.52,29.22h0q-.39-.86-.81-1.63Q74.12,28.36,74.52,29.22Z"/><path class="cls-19" d="M74.52,29.22h0q-.39-.86-.81-1.63Q74.12,28.36,74.52,29.22Z"/><path class="cls-3" d="M73.7,27.58a22.65,22.65,0,0,0-6.11-7.32h0A22.65,22.65,0,0,1,73.7,27.58Z"/><path class="cls-19" d="M73.7,27.58a22.65,22.65,0,0,0-6.11-7.32h0A22.65,22.65,0,0,1,73.7,27.58Z"/><path class="cls-11" d="M73.7,27.58h0q.42.78.81,1.63c.82-.25,1.64-.51,2.45-.79,1-.34,2-.71,2.94-1.08l.24-.12L82,26.31h0a52.47,52.47,0,0,0-2.76-7.08l-.24-.5c-.29-.58-.59-1.14-.9-1.71l-.31-.56a91.67,91.67,0,0,1-10.19,3.81A22.65,22.65,0,0,1,73.7,27.58Z"/><path class="cls-19" d="M73.7,27.58h0q.42.78.81,1.63c.82-.25,1.64-.51,2.45-.79,1-.34,2-.71,2.94-1.08l.24-.12L82,26.31h0a52.47,52.47,0,0,0-2.76-7.08l-.24-.5c-.29-.58-.59-1.14-.9-1.71l-.31-.56a91.67,91.67,0,0,1-10.19,3.81A22.65,22.65,0,0,1,73.7,27.58Z"/><polygon class="cls-3" points="18.76 24.78 18.76 24.78 18.76 24.77 18.76 24.78"/><polygon class="cls-19" points="18.76 24.78 18.76 24.78 18.76 24.77 18.76 24.78"/><path class="cls-11" d="M26.32,26.33c.22-.34.45-.68.69-1l.29-.42c.23-.31.47-.63.71-.94l.38-.49c.24-.29.49-.58.74-.86l.29-.34A58.27,58.27,0,0,1,22,20c-.45-.17-.88-.35-1.3-.55a54,54,0,0,0-2,5.31h0l2.84,1.47.53.28c.6.24,1.21.49,1.82.71s1,.35,1.5.53c.22-.39.46-.77.7-1.16Z"/><path class="cls-19" d="M26.32,26.33c.22-.34.45-.68.69-1l.29-.42c.23-.31.47-.63.71-.94l.38-.49c.24-.29.49-.58.74-.86l.29-.34A58.27,58.27,0,0,1,22,20c-.45-.17-.88-.35-1.3-.55a54,54,0,0,0-2,5.31h0l2.84,1.47.53.28c.6.24,1.21.49,1.82.71s1,.35,1.5.53c.22-.39.46-.77.7-1.16Z"/><path class="cls-3" d="M29.13,22.6c-.25.29-.5.57-.74.86C28.63,23.17,28.88,22.89,29.13,22.6Z"/><path class="cls-19" d="M29.13,22.6c-.25.29-.5.57-.74.86C28.63,23.17,28.88,22.89,29.13,22.6Z"/><path class="cls-3" d="M26.15,26.61c-.24.39-.48.77-.7,1.16h0C25.67,27.38,25.9,27,26.15,26.61Z"/><path class="cls-19" d="M26.15,26.61c-.24.39-.48.77-.7,1.16h0C25.67,27.38,25.9,27,26.15,26.61Z"/><path class="cls-3" d="M27,25.31c-.24.34-.47.68-.69,1C26.53,26,26.77,25.65,27,25.31Z"/><path class="cls-19" d="M27,25.31c-.24.34-.47.68-.69,1C26.53,26,26.77,25.65,27,25.31Z"/><path class="cls-3" d="M27.3,24.89c.23-.31.47-.63.71-.94C27.77,24.26,27.52,24.57,27.3,24.89Z"/><path class="cls-19" d="M27.3,24.89c.23-.31.47-.63.71-.94C27.77,24.26,27.52,24.57,27.3,24.89Z"/><path class="cls-5" d="M35.43,23.35h0a28.15,28.15,0,0,0-7.54,5.24h0A28.2,28.2,0,0,1,35.43,23.35Z"/><path class="cls-6" d="M35.43,23.35h0a28.15,28.15,0,0,0-7.54,5.24h0A28.2,28.2,0,0,1,35.43,23.35Z"/><path class="cls-19" d="M35.43,23.35h0a28.15,28.15,0,0,0-7.54,5.24h0A28.2,28.2,0,0,1,35.43,23.35Z"/><path class="cls-11" d="M35.43,23.35c-1.83-.24-3.65-.56-5.45-1a41.13,41.13,0,0,0-2.9,5.94l.81.25A28.15,28.15,0,0,1,35.43,23.35Z"/><path class="cls-19" d="M35.43,23.35c-1.83-.24-3.65-.56-5.45-1a41.13,41.13,0,0,0-2.9,5.94l.81.25A28.15,28.15,0,0,1,35.43,23.35Z"/><path class="cls-5" d="M46.39,71.65a2.58,2.58,0,0,0-1.31.66,1.53,1.53,0,0,0,.29,2.36,4.06,4.06,0,0,0,3,.45c1.19-.14,3.38-.69,3.05-2.34a1.37,1.37,0,0,0-.76-1,2.31,2.31,0,0,0-.48-.17A6.09,6.09,0,0,1,46.39,71.65Z"/><path class="cls-20" d="M46.39,71.65a2.58,2.58,0,0,0-1.31.66,1.53,1.53,0,0,0,.29,2.36,4.06,4.06,0,0,0,3,.45c1.19-.14,3.38-.69,3.05-2.34a1.37,1.37,0,0,0-.76-1,2.31,2.31,0,0,0-.48-.17A6.09,6.09,0,0,1,46.39,71.65Z"/><path class="cls-3" d="M33,35.14c3.73-.25,6.91.7,8.66.79s2.21-2,.51-2.21c-7.32-1-7.94-.28-11.7,1C25.37,36.37,32,35.21,33,35.14Z"/><path class="cls-5" d="M32.13,44.14a4.66,4.66,0,0,1-1,.27,5.27,5.27,0,0,0,1.22.92c-.06-.1-.12-.2-.17-.3A1,1,0,0,1,32.13,44.14Z"/><path class="cls-6" d="M32.13,44.14a4.66,4.66,0,0,1-1,.27,5.27,5.27,0,0,0,1.22.92c-.06-.1-.12-.2-.17-.3A1,1,0,0,1,32.13,44.14Z"/><path class="cls-5" d="M41.66,44.74c.18.52-.29.79-.51.41-.1-.18-.21-.35-.32-.51a2.09,2.09,0,0,1,.08.68c.44.24,1.18,0,1-.56A4.58,4.58,0,0,0,41,43.12,5.19,5.19,0,0,0,40,42,7.26,7.26,0,0,1,41.66,44.74Z"/><path class="cls-6" d="M41.66,44.74c.18.52-.29.79-.51.41-.1-.18-.21-.35-.32-.51a2.09,2.09,0,0,1,.08.68c.44.24,1.18,0,1-.56A4.58,4.58,0,0,0,41,43.12,5.19,5.19,0,0,0,40,42,7.26,7.26,0,0,1,41.66,44.74Z"/><path class="cls-5" d="M32.09,42a7.45,7.45,0,0,1,3.85-1.55,5,5,0,0,1,2.45.44c-2.78-1.56-6.68-2.16-8.13-.14a2.31,2.31,0,0,0-.06,2.52A8.43,8.43,0,0,0,32.09,42Z"/><path class="cls-6" d="M32.09,42a7.45,7.45,0,0,1,3.85-1.55,5,5,0,0,1,2.45.44c-2.78-1.56-6.68-2.16-8.13-.14a2.31,2.31,0,0,0-.06,2.52A8.43,8.43,0,0,0,32.09,42Z"/><path class="cls-14" d="M38.51,42.7a2.36,2.36,0,0,1,1,1.73,2.51,2.51,0,0,1-.56,2.14,2.36,2.36,0,0,1-.58.44c-1.39.74-4.18.2-4.7-1.46a2,2,0,0,1,.54-2,4,4,0,0,1,1-.81,11.83,11.83,0,0,0-2.12.93,6.51,6.51,0,0,1-.94.42,1,1,0,0,0,0,.88c0,.1.11.2.17.3a4.72,4.72,0,0,0,3.6,2.31c1.6.16,4.09-.47,4.87-1.82a1.13,1.13,0,0,0,.13-.49,2.09,2.09,0,0,0-.08-.68A4.78,4.78,0,0,0,38.51,42.7Z"/><path class="cls-15" d="M33.62,45.55c.53,1.66,3.32,2.19,4.7,1.46a2.36,2.36,0,0,0,.58-.44,2.51,2.51,0,0,0,.56-2.14,2.36,2.36,0,0,0-1-1.73,5.1,5.1,0,0,0-3.32.09,4,4,0,0,0-1,.81A2,2,0,0,0,33.62,45.55Zm5-1.47a.41.41,0,0,1,.08.74,1.84,1.84,0,0,1-.37,1.33,1.58,1.58,0,0,1-.39.29,2.59,2.59,0,0,1-2.59-.25A1.17,1.17,0,0,1,35,46c0-.06-.06-.11-.1-.17a.57.57,0,0,1-.4-.49,1.25,1.25,0,0,1,.08-.49C34.62,42.94,38,42.08,38.59,44.08Z"/><path class="cls-3" d="M35.23,44.1c.16-.06.41-.06.49.12a1.68,1.68,0,0,1,0,1.22.6.6,0,0,1-.8.34c0,.06.05.11.1.17a1.17,1.17,0,0,0,.28.24,2.59,2.59,0,0,0,2.59.25,1.58,1.58,0,0,0,.39-.29,1.84,1.84,0,0,0,.37-1.33.46.46,0,0,1-.24.07.42.42,0,1,1,0-.83.49.49,0,0,1,.16,0c-.55-2-4-1.13-4,.72A1.11,1.11,0,0,1,35.23,44.1Z"/><path class="cls-16" d="M28.67,43.16a2.18,2.18,0,0,0,2.41,1.25,4.66,4.66,0,0,0,1-.27,6.51,6.51,0,0,0,.94-.42,11.83,11.83,0,0,1,2.12-.93,5.1,5.1,0,0,1,3.32-.09,4.78,4.78,0,0,1,2.33,1.94c.11.16.22.33.32.51.22.39.68.11.51-.41A7.26,7.26,0,0,0,40,42a5.34,5.34,0,0,0-1.64-1.16,5,5,0,0,0-2.45-.44A7.45,7.45,0,0,0,32.09,42a8.43,8.43,0,0,1-1.89,1.27A1.23,1.23,0,0,1,28.83,43C28.73,42.89,28.62,43,28.67,43.16Z"/><path class="cls-14" d="M34.95,45.78a.6.6,0,0,0,.8-.34,1.68,1.68,0,0,0,0-1.22c-.08-.17-.33-.18-.49-.12a1.11,1.11,0,0,0-.6.7,1.25,1.25,0,0,0-.08.49A.57.57,0,0,0,34.95,45.78Z"/><path class="cls-14" d="M38.43,44.88a.46.46,0,0,0,.24-.07.41.41,0,0,0-.08-.74.49.49,0,0,0-.16,0A.42.42,0,1,0,38.43,44.88Z"/><path class="cls-18" d="M40.29,65.4l-.08-.1Z"/><path class="cls-18" d="M42.14,66.54a8,8,0,0,0,1.7,1,2.24,2.24,0,0,1,.69-.51,8.05,8.05,0,0,1,3.6-.46,7.49,7.49,0,0,1,3.65.83c1.22-.81,2.32-1.85,3.45-2.72a4.19,4.19,0,0,1-1-.17,5.23,5.23,0,0,1-1-.43,26.43,26.43,0,0,1-10.39,0,7,7,0,0,1-1.47.57,2.56,2.56,0,0,1-1.25,0A25.52,25.52,0,0,0,42.14,66.54Z"/><path class="cls-18" d="M44.52,67a2.24,2.24,0,0,0-.69.51c.43.19.87.37,1.31.53A22.37,22.37,0,0,1,50.76,68a9.71,9.71,0,0,0,1-.59,7.49,7.49,0,0,0-3.65-.83A8.05,8.05,0,0,0,44.52,67Z"/><path class="cls-21" d="M44.52,67a2.24,2.24,0,0,0-.69.51c.43.19.87.37,1.31.53A22.37,22.37,0,0,1,50.76,68a9.71,9.71,0,0,0,1-.59,7.49,7.49,0,0,0-3.65-.83A8.05,8.05,0,0,0,44.52,67Z"/><path class="cls-14" d="M53.23,64.05a7.37,7.37,0,0,0-1.63-.74A13.1,13.1,0,0,0,47.95,63a12.39,12.39,0,0,0-3.47.38,12,12,0,0,0-1.64.72A26.43,26.43,0,0,0,53.23,64.05Z"/><path class="cls-14" d="M42.42,68.65l.18.1-.12-.14Z"/><path class="cls-14" d="M45.15,68l.87.31a5.5,5.5,0,0,0,2.18.32A6.49,6.49,0,0,0,50.76,68,22.37,22.37,0,0,0,45.15,68Z"/><path class="cls-5" d="M38.94,64a.38.38,0,0,1,.17,0,2.14,2.14,0,0,1-.17-.22c.05.08.2.1.39.09l.17-.26c.18-.27-.15-.6-.43-.51-.5.16-1,.83-.64,1.33a.4.4,0,0,0,.63.05.84.84,0,0,0,.16-.33C39.1,64,39,63.95,38.94,64Z"/><path class="cls-6" d="M38.94,64a.38.38,0,0,1,.17,0,2.14,2.14,0,0,1-.17-.22c.05.08.2.1.39.09l.17-.26c.18-.27-.15-.6-.43-.51-.5.16-1,.83-.64,1.33a.4.4,0,0,0,.63.05.84.84,0,0,0,.16-.33C39.1,64,39,63.95,38.94,64Z"/><path class="cls-5" d="M57.13,63.74a2.19,2.19,0,0,1-.18.22h.12s-.11.07-.22.17a.89.89,0,0,0,.17.36.4.4,0,0,0,.63-.07c.3-.5-.16-1.16-.67-1.31-.28-.08-.61.25-.42.52l.16.22C56.91,63.84,57.07,63.81,57.13,63.74Z"/><path class="cls-6" d="M57.13,63.74a2.19,2.19,0,0,1-.18.22h.12s-.11.07-.22.17a.89.89,0,0,0,.17.36.4.4,0,0,0,.63-.07c.3-.5-.16-1.16-.67-1.31-.28-.08-.61.25-.42.52l.16.22C56.91,63.84,57.07,63.81,57.13,63.74Z"/><path class="cls-7" d="M48,60.41a2.64,2.64,0,0,0-2.35-.57,5.83,5.83,0,0,0-2.9,1.74,7.43,7.43,0,0,1-2.24,2,4.68,4.68,0,0,1-1.17.25c-.19,0-.34,0-.39-.09a2.14,2.14,0,0,0,.17.22.38.38,0,0,0-.17,0c.06,0,.16.08.28.19s.4.45.46.52.36.42.53.64l.08.1.07.08c.38.51.72,1.05,1,1.6a15.48,15.48,0,0,0,1.08,1.52l.12.14a10.84,10.84,0,0,0,2.67,2.4,4.9,4.9,0,0,0,1.12.5,6.09,6.09,0,0,0,3.76-.06,5.37,5.37,0,0,0,.65-.28,8,8,0,0,0,2.85-2.79c.59-.85,1.16-1.71,1.74-2.58a12.11,12.11,0,0,1,.78-1.13c.06-.07.43-.46.67-.7s.2-.18.22-.17h-.12a2.19,2.19,0,0,0,.18-.22c-.05.08-.21.1-.41.1a4.82,4.82,0,0,1-1.24-.21A6.38,6.38,0,0,1,53.61,62a7.06,7.06,0,0,0-3.26-2.1A2.64,2.64,0,0,0,48,60.41Zm-7.87,4.21a2.56,2.56,0,0,0,1.25,0,7,7,0,0,0,1.47-.57,12,12,0,0,1,1.64-.72A12.39,12.39,0,0,1,47.95,63a13.1,13.1,0,0,1,3.66.34,7.37,7.37,0,0,1,1.63.74,5.23,5.23,0,0,0,1,.43,4.19,4.19,0,0,0,1,.17c-1.13.87-2.23,1.92-3.45,2.72a9.71,9.71,0,0,1-1,.59,6.49,6.49,0,0,1-2.57.71A5.5,5.5,0,0,1,46,68.36L45.15,68c-.44-.16-.88-.33-1.31-.53a8,8,0,0,1-1.7-1A25.52,25.52,0,0,1,40.13,64.63Zm8.55,6.48a.35.35,0,0,1,0-.69,7.11,7.11,0,0,0,1.89-.55.38.38,0,0,1,.38.63A2.88,2.88,0,0,1,48.68,71.11Z"/><path class="cls-7" d="M50.57,69.86a7.11,7.11,0,0,1-1.89.55.35.35,0,0,0,0,.69,2.88,2.88,0,0,0,2.27-.62A.38.38,0,0,0,50.57,69.86Z"/><path class="cls-22" d="M50.57,69.86a7.11,7.11,0,0,1-1.89.55.35.35,0,0,0,0,.69,2.88,2.88,0,0,0,2.27-.62A.38.38,0,0,0,50.57,69.86Z"/><path class="cls-5" d="M75.68,78.45c-.5-1.82-1.26-3.65-1.79-5.34-.33-1.06-1-2.59-2.34-2.54a1.78,1.78,0,0,0-.5.1c-1,.32-1.18,1.47-1,2.91.34,2.7,2,6.39,2,7.44.23,5.13-6.23,9.43-2.43,14.56a.48.48,0,0,0,.22.17,20.14,20.14,0,0,1,1.55-5.56,23.84,23.84,0,0,1,3-5.66,18.1,18.1,0,0,0,1.83-2.83c0-.15,0-.31,0-.46A13.77,13.77,0,0,0,75.68,78.45Z"/><path class="cls-6" d="M75.68,78.45c-.5-1.82-1.26-3.65-1.79-5.34-.33-1.06-1-2.59-2.34-2.54a1.78,1.78,0,0,0-.5.1c-1,.32-1.18,1.47-1,2.91.34,2.7,2,6.39,2,7.44.23,5.13-6.23,9.43-2.43,14.56a.48.48,0,0,0,.22.17,20.14,20.14,0,0,1,1.55-5.56,23.84,23.84,0,0,1,3-5.66,18.1,18.1,0,0,0,1.83-2.83c0-.15,0-.31,0-.46A13.77,13.77,0,0,0,75.68,78.45Z"/><path class="cls-5" d="M90.33,121.29l-.39-.88-4.26-9.58,0-.08c-.68-1.84-1.4-3.34-2.13-4.87-.57-1.21-1.16-2.44-1.75-3.87a57.07,57.07,0,0,1-2.26-6.7,8.36,8.36,0,0,1,.7-5.94c.24-.55.48-1.1.72-1.66a30.66,30.66,0,0,1,1.78-3.64A14.88,14.88,0,0,0,84.47,81c.5-1.58-.15-3-.79-4.87q-.14-.42-.28-.87c-.08-.67-.18-1.33-.28-2A34.65,34.65,0,0,0,80.9,65.1c-.17-.41-.36-.82-.55-1.23l-.07-.16c-.8-1.67-1.57-3.34-2.21-5.08-.38-1-.43-2.21-1.54-2.58a.91.91,0,0,0-.76.29,1.55,1.55,0,0,0-.42.52.82.82,0,0,0,0,.4c0,.19,0,.38.06.57a16.4,16.4,0,0,0,1.26,5.86c.49,1.4,1,2.75,1.49,4.16-.65-.9-1.32-1.79-2.06-2.62a13.16,13.16,0,0,0-2.27-2.34c-.57-.37-1.09-.43-1.36.26a3.4,3.4,0,0,0,.42,2.37c.56,1.22,1.41,2.48,1.8,3.16a14,14,0,0,1,2.18,5.81c0,.07,0,.15,0,.23,0,.36,0,.75,0,1.15-.15,1.41-.16,3.94-.23,4.48a4.83,4.83,0,0,1-.42,1.38,18.1,18.1,0,0,1-1.83,2.83,23.84,23.84,0,0,0-3,5.66,20.14,20.14,0,0,0-1.55,5.56c0,.16,0,.33,0,.49.09,5.58,2.67,11.26,4.73,16.39,0,.1,1.54,4.5,3.29,9.64l2.35,6.9,1.61,4.72.19.57.68,2,.42,1.23q6.47-1.13,13.25-2.82c-.61-1.43-3.17-7.19-5.63-12.73Z"/></g></g></g></svg>