<svg xmlns="http://www.w3.org/2000/svg" viewBox="0 0 103.72 140.6"><defs><style>.cls-1{isolation:isolate;}.cls-2{fill:none;}.cls-16,.cls-3,.cls-4{fill:#3f2d2b;}.cls-10,.cls-13,.cls-4,.cls-6{opacity:0.5;}.cls-16,.cls-4{mix-blend-mode:multiply;}.cls-10,.cls-18,.cls-5{fill:#fac494;}.cls-6{fill:#ed8c72;}.cls-11,.cls-7{fill:#f24469;}.cls-13,.cls-8,.cls-9{fill:#c61443;}.cls-11,.cls-16,.cls-17,.cls-18,.cls-8{opacity:0.2;}.cls-10,.cls-11,.cls-18{mix-blend-mode:screen;}.cls-12{fill:#533734;}.cls-14{fill:#ff5a5a;opacity:0.15;}.cls-15{fill:#211313;}.cls-17{fill:#8f705e;}.cls-19{fill:#fff;}</style></defs><title>Ресурс 5</title><g class="cls-1"><g id="Слой_2" data-name="Слой 2"><g id="Layer_1" data-name="Layer 1"><path class="cls-2" d="M20,65.9a205,205,0,0,0,3.79,25.59h.12c2.16-.54,4-.53,5.71-1.18a98.68,98.68,0,0,1-5-10.45A106.37,106.37,0,0,1,20,65.9Z"/><path class="cls-3" d="M20,65.9a106.37,106.37,0,0,0,4.57,13.95,98.68,98.68,0,0,0,5,10.45A7.33,7.33,0,0,0,32,88.79C30,85,27.48,80.43,25.73,76.51A121.89,121.89,0,0,1,16.84,45.4c-.05-.35-.1-.7-.14-1.05-.11-2.5-.1-5,0-7.33,0-.08,0-.15-.05-.23-.81,12.45-.9,33.71,4.92,54.83l2.19-.13A205,205,0,0,1,20,65.9Z"/><path class="cls-3" d="M35.74,82.66c.1-.3.18-.6.26-.91s.13-.51.18-.76l.08-.39c.16-.82.28-1.66.37-2.5-2.16-4.35-4.25-9-6-13.15-2.16-2.45-3.06-4.81-3.35-9.15l-.07-1.09a2.11,2.11,0,0,1-.85.28h0a2.74,2.74,0,0,1-.48,0h-.1a3.88,3.88,0,0,1-.6-.11,2.77,2.77,0,0,1-.56-.22l-.17-.1a3.64,3.64,0,0,1-.36-.24l-.18-.15-.33-.31-.17-.18c-.11-.13-.22-.26-.33-.4l-.12-.16q-.21-.28-.4-.59l0,0c-.14-.23-.28-.47-.41-.72a50.27,50.27,0,0,0,1.09,7.61c1.61,7.22,5,13.56,8.91,19.77a25.77,25.77,0,0,0,3.21,4.72c.13-.32.25-.63.36-1Z"/><path class="cls-3" d="M17.86,28.54c.11-.51.23-1,.37-1.53C18.09,27.53,18,28,17.86,28.54Z"/><path class="cls-3" d="M33.76,86.77a14.59,14.59,0,0,0,1.13-2,14.84,14.84,0,0,1-2.8,4A12,12,0,0,0,33.76,86.77Z"/><path class="cls-3" d="M18.24,26.94c.13-.51.28-1,.43-1.53C18.52,25.92,18.38,26.43,18.24,26.94Z"/><path class="cls-3" d="M22.44,16.12C27.14,9.07,34.25,3.58,42.77,3a12.8,12.8,0,0,0-.7,7.62h0v.08a8.1,8.1,0,0,0,.27.9h0A9.07,9.07,0,0,0,43,13a14.6,14.6,0,0,0,.58,1.85c-1.48-4.41-1.43-10,2-13a15,15,0,0,0-8-.4c-8.1,2.07-14.33,11-17.77,20.23a52.22,52.22,0,0,1,2.25-5.16Z"/><path class="cls-3" d="M19.26,23.51q.29-.85.6-1.7Q19.55,22.66,19.26,23.51Z"/><path class="cls-3" d="M17.48,30.37c.09-.49.19-1,.3-1.49C17.67,29.38,17.57,29.88,17.48,30.37Z"/><path class="cls-3" d="M16.74,36.86c.05-.88.13-1.75.21-2.61C16.86,35.11,16.79,36,16.74,36.86Z"/><path class="cls-3" d="M17,33.49c.12-1.07.27-2.11.46-3.13C17.3,31.38,17.15,32.43,17,33.49Z"/><path class="cls-3" d="M18.86,24.78h0c.13-.41.25-.83.39-1.25q-.28.82-.52,1.64l.13-.4Z"/><path class="cls-3" d="M63.07,85c0-.17.08-.34.12-.51,1.9-7.35,6.15-14.21,6.21-22a38.44,38.44,0,0,0-.63-7l0,.23c0,.49-.08.94-.13,1.38,0,.13,0,.26,0,.39q-.06.47-.14.91c0,.12,0,.25-.06.37-.07.37-.15.73-.24,1.08,0,.09-.05.17-.08.26-.07.26-.15.51-.24.75l-.14.37c-.08.21-.17.41-.26.61l-.15.32c-.13.26-.27.52-.42.76h0c-1.33,2.19-3.48,4.07-6.88,6.91v0c0,.29-.08.58-.12.87,0,.13,0,.26,0,.39-.51,4.68.07,9.5,2.6,13.43l0-.07A7.47,7.47,0,0,0,63.07,85Z"/><path class="cls-4" d="M63.07,85c0-.17.08-.34.12-.51,1.9-7.35,6.15-14.21,6.21-22a38.44,38.44,0,0,0-.63-7l0,.23c0,.49-.08.94-.13,1.38,0,.13,0,.26,0,.39q-.06.47-.14.91c0,.12,0,.25-.06.37-.07.37-.15.73-.24,1.08,0,.09-.05.17-.08.26-.07.26-.15.51-.24.75l-.14.37c-.08.21-.17.41-.26.61l-.15.32c-.13.26-.27.52-.42.76h0c-1.33,2.19-3.48,4.07-6.88,6.91v0c0,.29-.08.58-.12.87,0,.13,0,.26,0,.39-.51,4.68.07,9.5,2.6,13.43l0-.07A7.47,7.47,0,0,0,63.07,85Z"/><path class="cls-3" d="M36.84,70.56a60.17,60.17,0,0,1-6.21-5.61c1.75,4.13,3.84,8.79,6,13.15A73.21,73.21,0,0,0,36.84,70.56Z"/><path class="cls-4" d="M36.84,70.56a60.17,60.17,0,0,1-6.21-5.61c1.75,4.13,3.84,8.79,6,13.15A73.21,73.21,0,0,0,36.84,70.56Z"/><path class="cls-5" d="M6,98.16l.21-.31Z"/><path class="cls-5" d="M5.28,99.31,5.47,99Z"/><path class="cls-5" d="M98.44,102.21c.29.49.56,1,.81,1.54C99,103.21,98.73,102.7,98.44,102.21Z"/><path class="cls-5" d="M99.36,104c.24.53.47,1.08.67,1.66C99.83,105.07,99.6,104.53,99.36,104Z"/><path class="cls-5" d="M95.25,102.61l.19,0,.51-.09.19,0,.47-.08.14,0,.53-.08h0l.43-.05h.11l.23,0h.3s.08,0,.09,0h0a16.3,16.3,0,0,0-7.21-6.49,51.8,51.8,0,0,1,1.12,7.46Z"/><path class="cls-5" d="M7.06,97l.14.12.13.09.23.14.18.11.3.17.22.12.37.2.23.12.44.23.21.11.55.27.15.07.71.35h0c1.6.77,3.13,1.46,3.35,1.56a63.37,63.37,0,0,0,13,4.13,151.23,151.23,0,0,0,32.43,2.8l1.18,0h0c-1.62-7.78-1-13.44.78-20.45.22-.83.46-1.66.73-2.48-2.53-3.93-3.11-8.75-2.6-13.43a25.25,25.25,0,0,0,.2,7.43,115.72,115.72,0,0,0-25.67,7.29,15.12,15.12,0,0,0,.87-1.79l-.31.63a14.59,14.59,0,0,1-1.13,2,12,12,0,0,1-1.67,2l0,0h0a7.33,7.33,0,0,1-2.43,1.52c-1.73.65-3.55.64-5.71,1.18h-.12l-2.19.13C16.26,92,10.47,93.05,7,96.88c0,0,0,.06,0,.11Zm45-1.84a.19.19,0,0,1,.16.27,6,6,0,0,1-4.18,2.58c-2,.13-3-1.26-4.67-2a.13.13,0,0,1,0-.2c.93-1,2-.38,3.11-.08C48.48,96.29,50.17,95.41,52.1,95.2Z"/><path class="cls-5" d="M36,81.75c-.08.3-.16.61-.26.91C35.83,82.36,35.92,82.06,36,81.75Z"/><path class="cls-5" d="M36.26,80.6l-.08.39Z"/><path class="cls-5" d="M35.29,83.89h0q.19-.48.35-1C35.54,83.26,35.42,83.58,35.29,83.89Z"/><path class="cls-5" d="M60,70c0,.29-.08.58-.12.87C59.89,70.53,59.92,70.24,60,70Z"/><path class="cls-3" d="M36.26,80.6q.25-1.22.38-2.48v0C36.55,78.94,36.43,79.77,36.26,80.6Z"/><path class="cls-6" d="M36.26,80.6q.25-1.22.38-2.48v0C36.55,78.94,36.43,79.77,36.26,80.6Z"/><path class="cls-3" d="M35.74,82.66l-.09.28Z"/><path class="cls-6" d="M35.74,82.66l-.09.28Z"/><path class="cls-3" d="M36.18,81c-.06.26-.12.51-.18.76C36.07,81.5,36.12,81.25,36.18,81Z"/><path class="cls-6" d="M36.18,81c-.06.26-.12.51-.18.76C36.07,81.5,36.12,81.25,36.18,81Z"/><path class="cls-3" d="M59.8,71.21c0-.13,0-.26,0-.39C59.84,71,59.82,71.08,59.8,71.21Z"/><path class="cls-4" d="M59.8,71.21c0-.13,0-.26,0-.39C59.84,71,59.82,71.08,59.8,71.21Z"/><path class="cls-6" d="M59.8,71.21c0-.13,0-.26,0-.39C59.84,71,59.82,71.08,59.8,71.21Z"/><path class="cls-3" d="M60,70v0h0Z"/><path class="cls-4" d="M60,70v0h0Z"/><path class="cls-6" d="M60,70v0h0Z"/><path class="cls-3" d="M36.63,78.09v0a69.88,69.88,0,0,0,.23-7.53l0,0A73.21,73.21,0,0,1,36.63,78.09Z"/><path class="cls-4" d="M36.63,78.09v0a69.88,69.88,0,0,0,.23-7.53l0,0A73.21,73.21,0,0,1,36.63,78.09Z"/><path class="cls-6" d="M36.63,78.09v0a69.88,69.88,0,0,0,.23-7.53l0,0A73.21,73.21,0,0,1,36.63,78.09Z"/><path class="cls-5" d="M60,70v0c-1.63,1.36-3.53,2.94-5.79,4.91a9.28,9.28,0,0,1-12.33,0c-1.89-1.65-3.53-3-5-4.23a69.88,69.88,0,0,1-.23,7.53q-.13,1.26-.38,2.48l-.08.39c-.06.26-.12.51-.18.76s-.17.61-.26.91l-.09.28q-.16.49-.35,1h0l-.11.23a15.12,15.12,0,0,1-.87,1.79A115.72,115.72,0,0,1,60,78.65a25.25,25.25,0,0,1-.2-7.43c0-.13,0-.26,0-.39C59.89,70.53,59.92,70.24,60,70Z"/><path class="cls-6" d="M60,70v0c-1.63,1.36-3.53,2.94-5.79,4.91a9.28,9.28,0,0,1-12.33,0c-1.89-1.65-3.53-3-5-4.23a69.88,69.88,0,0,1-.23,7.53q-.13,1.26-.38,2.48l-.08.39c-.06.26-.12.51-.18.76s-.17.61-.26.91l-.09.28q-.16.49-.35,1h0l-.11.23a15.12,15.12,0,0,1-.87,1.79A115.72,115.72,0,0,1,60,78.65a25.25,25.25,0,0,1-.2-7.43c0-.13,0-.26,0-.39C59.89,70.53,59.92,70.24,60,70Z"/><path class="cls-7" d="M2.12,112.42a50.2,50.2,0,0,1,1.92-10A50.2,50.2,0,0,0,2.12,112.42Z"/><path class="cls-7" d="M1.93,114.47q-.09,1-.16,2t-.14,2.05C1.72,117.2,1.81,115.83,1.93,114.47Z"/><path class="cls-7" d="M5.17,99.5q-.25.5-.46,1-.37,1-.67,1.92.31-1,.67-1.92Q4.92,100,5.17,99.5Z"/><path class="cls-7" d="M10.2,98.78l-.15-.07Z"/><path class="cls-7" d="M97.18,111.33c-.75-2.15-1.49-4.3-2.11-6.49-.2-.69-.38-1.39-.55-2.09l.74-.14-2.9.58v0a50.92,50.92,0,0,1,0,7.33,50.13,50.13,0,0,1-.78,8.12,39.11,39.11,0,0,1-4.18,12.23c.23,2,.51,4,.8,5.8,4.83-1,9.78-2.25,14.83-3.75-.54-2.84-1.19-5.68-1.93-8.57C100,119.93,98.67,115.64,97.18,111.33Z"/><path class="cls-7" d="M98.35,102.18s.08,0,.09,0S98.4,102.18,98.35,102.18Z"/><path class="cls-7" d="M61.39,133.72A21.34,21.34,0,0,1,59.7,131a41.49,41.49,0,0,1-18.13-1.18A42.53,42.53,0,0,1,30,125c-3.8-1.5-7.52-3.77-8.14-7.9-1.12-7.46,6.85-8.17,12.1-7.56,7.47.88,15,1.33,22.5,1.51,1.76,0,3.51.06,5.27.07q-.49-1.84-.85-3.54l-1.18,0a151.23,151.23,0,0,1-32.43-2.8,63.37,63.37,0,0,1-13-4.13c-.23-.1-1.75-.79-3.35-1.56-5.2,9.58-7,22.82-8.69,34.39,2.56.83,6.25,1.91,10.93,3a95,95,0,0,0,1.31-13.3s1.5,5,1,13.81A175.17,175.17,0,0,0,71,139.45,14.86,14.86,0,0,1,61.39,133.72Z"/><path class="cls-7" d="M80.06,138.2q2.87-.47,5.81-1c-.08-1.35-.12-2.62-.11-3.79A16.11,16.11,0,0,1,80.06,138.2Z"/><path class="cls-7" d="M98.14,102.17h0Z"/><path class="cls-7" d="M96.75,102.34l.53-.08Z"/><path class="cls-7" d="M96.14,102.45l.47-.08Z"/><path class="cls-7" d="M95.44,102.57l.51-.09Z"/><path class="cls-7" d="M7.74,97.5l-.18-.11Z"/><path class="cls-7" d="M8.25,97.79,8,97.67Z"/><path class="cls-7" d="M97.81,102.19l.23,0Z"/><path class="cls-7" d="M97.28,102.26l.42-.05Z"/><path class="cls-7" d="M8.85,98.1,8.62,98Z"/><path class="cls-7" d="M9.51,98.44l-.21-.11Z"/><path class="cls-7" d="M7.06,97,7,97Z"/><path class="cls-7" d="M7.33,97.25l-.13-.09Z"/><path class="cls-8" d="M100.76,109c-.1-.55-.19-1-.28-1.49l.14.71Z"/><path class="cls-8" d="M102.35,119.56c-.16-1.16-.32-2.32-.48-3.46.11.76.22,1.53.32,2.3Z"/><path class="cls-8" d="M101.7,115c-.11-.74-.22-1.47-.32-2.16l.16,1.06Z"/><path class="cls-8" d="M102.65,121.87c-.1-.76-.2-1.53-.3-2.3C102.45,120.33,102.55,121.11,102.65,121.87Z"/><path class="cls-8" d="M99.36,104h0l-.11-.24h0Z"/><path class="cls-8" d="M103.18,126.21c-.08-.67-.16-1.38-.25-2.11l.13,1.07Z"/><path class="cls-8" d="M103.7,132.72h0a4.26,4.26,0,0,0,0-.53c0,.14,0,.25,0,.35S103.71,132.67,103.7,132.72Z"/><path class="cls-8" d="M103.72,132.19c0-1.08-.23-3.28-.54-6,.27,2.36.46,4.34.52,5.52C103.71,131.9,103.72,132.05,103.72,132.19Z"/><polygon class="cls-8" points="98.44 102.21 98.44 102.21 98.44 102.21 98.44 102.21"/><path class="cls-8" d="M102.93,124.1c-.09-.73-.18-1.48-.28-2.24C102.75,122.63,102.84,123.37,102.93,124.1Z"/><path class="cls-5" d="M96.6,102.37l.14,0Z"/><path class="cls-8" d="M96.6,102.37l.14,0Z"/><path class="cls-5" d="M98,102.17h0Z"/><path class="cls-8" d="M98,102.17h0Z"/><path class="cls-5" d="M100,105.65c-.2-.58-.43-1.13-.67-1.66h0C99.6,104.52,99.83,105.07,100,105.65Z"/><path class="cls-8" d="M100,105.65c-.2-.58-.43-1.13-.67-1.66h0C99.6,104.52,99.83,105.07,100,105.65Z"/><path class="cls-5" d="M98.29,102.17h0Z"/><path class="cls-8" d="M98.29,102.17h0Z"/><path class="cls-5" d="M97.28,102.26h0Z"/><path class="cls-8" d="M97.28,102.26h0Z"/><path class="cls-5" d="M98.44,102.21c.29.49.56,1,.81,1.54h0c-.25-.54-.52-1.05-.81-1.54Z"/><path class="cls-8" d="M98.44,102.21c.29.49.56,1,.81,1.54h0c-.25-.54-.52-1.05-.81-1.54Z"/><path class="cls-5" d="M97.71,102.2h0Z"/><path class="cls-8" d="M97.71,102.2h0Z"/><path class="cls-5" d="M95.95,102.48l.19,0Z"/><path class="cls-8" d="M95.95,102.48l.19,0Z"/><path class="cls-5" d="M95.25,102.61l.19,0Z"/><path class="cls-8" d="M95.25,102.61l.19,0Z"/><path class="cls-7" d="M99.25,103.75c-.25-.54-.52-1.05-.81-1.54h0s0,0-.09,0H98l-.23,0h-.11l-.42.05h0l-.53.08-.14,0-.47.08-.19,0-.51.09-.19,0-.74.14c.17.7.35,1.4.55,2.09.62,2.19,1.37,4.34,2.11,6.49,1.5,4.31,2.81,8.6,3.93,13,.74,2.89,1.39,5.74,1.93,8.57l.67-.2c0-.05,0-.11,0-.18s0-.22,0-.35,0-.29,0-.46c-.06-1.18-.25-3.16-.52-5.52l-.12-1-.13-1.07c-.09-.73-.18-1.48-.28-2.24s-.2-1.53-.3-2.3l-.16-1.16c-.11-.77-.21-1.54-.32-2.3L101.7,115l-.16-1.1-.16-1.06c-.16-1-.32-2-.47-2.91l-.15-.85-.14-.78-.14-.71c-.13-.67-.25-1.2-.36-1.58,0-.13-.07-.23-.1-.32-.2-.58-.43-1.13-.67-1.66Z"/><path class="cls-8" d="M99.25,103.75c-.25-.54-.52-1.05-.81-1.54h0s0,0-.09,0H98l-.23,0h-.11l-.42.05h0l-.53.08-.14,0-.47.08-.19,0-.51.09-.19,0-.74.14c.17.7.35,1.4.55,2.09.62,2.19,1.37,4.34,2.11,6.49,1.5,4.31,2.81,8.6,3.93,13,.74,2.89,1.39,5.74,1.93,8.57l.67-.2c0-.05,0-.11,0-.18s0-.22,0-.35,0-.29,0-.46c-.06-1.18-.25-3.16-.52-5.52l-.12-1-.13-1.07c-.09-.73-.18-1.48-.28-2.24s-.2-1.53-.3-2.3l-.16-1.16c-.11-.77-.21-1.54-.32-2.3L101.7,115l-.16-1.1-.16-1.06c-.16-1-.32-2-.47-2.91l-.15-.85-.14-.78-.14-.71c-.13-.67-.25-1.2-.36-1.58,0-.13-.07-.23-.1-.32-.2-.58-.43-1.13-.67-1.66Z"/><polygon class="cls-8" points="6.96 96.88 6.96 96.88 6.96 96.88 6.96 96.88"/><path class="cls-5" d="M7.56,97.39l-.23-.14Z"/><path class="cls-8" d="M7.56,97.39l-.23-.14Z"/><path class="cls-5" d="M7.2,97.16,7.06,97Z"/><path class="cls-8" d="M7.2,97.16,7.06,97Z"/><path class="cls-5" d="M10.2,98.78l.71.35h0Z"/><path class="cls-8" d="M10.2,98.78l.71.35h0Z"/><path class="cls-5" d="M8,97.67l-.3-.17Z"/><path class="cls-8" d="M8,97.67l-.3-.17Z"/><path class="cls-5" d="M10.05,98.71l-.55-.27Z"/><path class="cls-8" d="M10.05,98.71l-.55-.27Z"/><path class="cls-5" d="M9.3,98.33l-.44-.23Z"/><path class="cls-8" d="M9.3,98.33l-.44-.23Z"/><path class="cls-5" d="M7,97s-.06-.08,0-.11H7S7,96.94,7,97Z"/><path class="cls-8" d="M7,97s-.06-.08,0-.11H7S7,96.94,7,97Z"/><path class="cls-5" d="M8.62,98l-.37-.2Z"/><path class="cls-8" d="M8.62,98l-.37-.2Z"/><path class="cls-7" d="M10.91,99.13l-.71-.35-.15-.07-.55-.27-.21-.11-.44-.23L8.62,98l-.37-.2L8,97.67l-.3-.17-.18-.11-.23-.14-.13-.09L7.06,97,7,97s-.06-.08,0-.11H7a11.29,11.29,0,0,0-.78,1L6,98.16q-.26.39-.5.81l-.19.34-.11.19q-.25.5-.46,1-.37,1-.67,1.92a50.2,50.2,0,0,0-1.92,10q-.11,1-.19,2c-.12,1.36-.21,2.73-.3,4.1A94.53,94.53,0,0,1,0,132.74a.1.1,0,0,0,0,0c.61.21,1.35.47,2.22.75C3.92,122,5.71,108.71,10.91,99.13Z"/><path class="cls-8" d="M10.91,99.13l-.71-.35-.15-.07-.55-.27-.21-.11-.44-.23L8.62,98l-.37-.2L8,97.67l-.3-.17-.18-.11-.23-.14-.13-.09L7.06,97,7,97s-.06-.08,0-.11H7a11.29,11.29,0,0,0-.78,1L6,98.16q-.26.39-.5.81l-.19.34-.11.19q-.25.5-.46,1-.37,1-.67,1.92a50.2,50.2,0,0,0-1.92,10q-.11,1-.19,2c-.12,1.36-.21,2.73-.3,4.1A94.53,94.53,0,0,1,0,132.74a.1.1,0,0,0,0,0c.61.21,1.35.47,2.22.75C3.92,122,5.71,108.71,10.91,99.13Z"/><path class="cls-9" d="M85.75,133.37c0,1.17,0,2.44.11,3.79l2.34-.48c-.29-1.84-.57-3.82-.8-5.8A23,23,0,0,1,85.75,133.37Z"/><path class="cls-5" d="M26.77,30.05l0,0q-.05.65-.1,1.35Q26.69,30.72,26.77,30.05Z"/><path class="cls-5" d="M68.45,58.48c0,.12,0,.25-.06.37C68.41,58.73,68.43,58.6,68.45,58.48Z"/><path class="cls-5" d="M68.63,57.18c0,.13,0,.26,0,.39C68.6,57.44,68.61,57.31,68.63,57.18Z"/><path class="cls-5" d="M68.14,59.92c0,.09-.05.17-.08.26C68.09,60.1,68.12,60,68.14,59.92Z"/><path class="cls-5" d="M67.42,61.91l-.15.32Z"/><path class="cls-5" d="M67.83,60.93l-.14.37Z"/><path class="cls-3" d="M26.49,34l0-.06q0-1.31.11-2.49C26.58,32.25,26.52,33.1,26.49,34Z"/><path class="cls-6" d="M26.49,34l0-.06q0-1.31.11-2.49C26.58,32.25,26.52,33.1,26.49,34Z"/><path class="cls-5" d="M26.53,33.94A43.26,43.26,0,0,1,39.32,21.32c-.42.2-.81.39-1.16.59-.89.51-1.77,1-2.63,1.44h0A28.2,28.2,0,0,0,28,28.58h0a16.61,16.61,0,0,0-1.23,1.47q-.07.67-.13,1.39Q26.57,32.62,26.53,33.94Z"/><path class="cls-6" d="M26.53,33.94A43.26,43.26,0,0,1,39.32,21.32c-.42.2-.81.39-1.16.59-.89.51-1.77,1-2.63,1.44h0A28.2,28.2,0,0,0,28,28.58h0a16.61,16.61,0,0,0-1.23,1.47q-.07.67-.13,1.39Q26.57,32.62,26.53,33.94Z"/><path class="cls-3" d="M66.85,63c.15-.25.29-.5.42-.76-.13.26-.27.51-.42.76Z"/><path class="cls-4" d="M66.85,63c.15-.25.29-.5.42-.76-.13.26-.27.51-.42.76Z"/><path class="cls-6" d="M66.85,63c.15-.25.29-.5.42-.76-.13.26-.27.51-.42.76Z"/><path class="cls-3" d="M68.06,60.18q-.11.38-.24.75C67.91,60.69,68,60.44,68.06,60.18Z"/><path class="cls-4" d="M68.06,60.18q-.11.38-.24.75C67.91,60.69,68,60.44,68.06,60.18Z"/><path class="cls-6" d="M68.06,60.18q-.11.38-.24.75C67.91,60.69,68,60.44,68.06,60.18Z"/><path class="cls-3" d="M68.58,57.57c0,.31-.09.62-.14.91Q68.52,58,68.58,57.57Z"/><path class="cls-4" d="M68.58,57.57c0,.31-.09.62-.14.91Q68.52,58,68.58,57.57Z"/><path class="cls-6" d="M68.58,57.57c0,.31-.09.62-.14.91Q68.52,58,68.58,57.57Z"/><path class="cls-3" d="M67.69,61.3c-.08.21-.17.41-.26.61C67.52,61.71,67.61,61.51,67.69,61.3Z"/><path class="cls-4" d="M67.69,61.3c-.08.21-.17.41-.26.61C67.52,61.71,67.61,61.51,67.69,61.3Z"/><path class="cls-6" d="M67.69,61.3c-.08.21-.17.41-.26.61C67.52,61.71,67.61,61.51,67.69,61.3Z"/><path class="cls-3" d="M68.38,58.85c-.07.37-.15.73-.24,1.08C68.23,59.58,68.31,59.22,68.38,58.85Z"/><path class="cls-4" d="M68.38,58.85c-.07.37-.15.73-.24,1.08C68.23,59.58,68.31,59.22,68.38,58.85Z"/><path class="cls-6" d="M68.38,58.85c-.07.37-.15.73-.24,1.08C68.23,59.58,68.31,59.22,68.38,58.85Z"/><path class="cls-3" d="M68.76,55.8c0,.49-.08.94-.13,1.38C68.68,56.74,68.72,56.29,68.76,55.8Z"/><path class="cls-4" d="M68.76,55.8c0,.49-.08.94-.13,1.38C68.68,56.74,68.72,56.29,68.76,55.8Z"/><path class="cls-6" d="M68.76,55.8c0,.49-.08.94-.13,1.38C68.68,56.74,68.72,56.29,68.76,55.8Z"/><path class="cls-5" d="M61.87,36.51a52.75,52.75,0,0,0-8.56-9.28,49.72,49.72,0,0,1-4.56-4.44,26.17,26.17,0,0,1-3-3.69c1.77,7.19,7.81,12,12.6,17.54A11.86,11.86,0,0,1,61.87,36.51Z"/><path class="cls-6" d="M61.87,36.51a52.75,52.75,0,0,0-8.56-9.28,49.72,49.72,0,0,1-4.56-4.44,26.17,26.17,0,0,1-3-3.69c1.77,7.19,7.81,12,12.6,17.54A11.86,11.86,0,0,1,61.87,36.51Z"/><path class="cls-5" d="M64.29,41.19a3.28,3.28,0,0,1,1,.94,45.44,45.44,0,0,0-2.5-4.25h-.17a20.41,20.41,0,0,0-2.92.47q.86,1.11,1.62,2.28A6,6,0,0,1,64.29,41.19Z"/><path class="cls-6" d="M64.29,41.19a3.28,3.28,0,0,1,1,.94,45.44,45.44,0,0,0-2.5-4.25h-.17a20.41,20.41,0,0,0-2.92.47q.86,1.11,1.62,2.28A6,6,0,0,1,64.29,41.19Z"/><path class="cls-5" d="M65,45.91a3.55,3.55,0,0,1,1.29.72s-1.2-.16-2.33-.4c.31.92.58,1.85.82,2.8l.39.13a1,1,0,0,1,.46-.21,1.71,1.71,0,0,1,.35,0,.73.73,0,0,1,.38.11h0a.73.73,0,0,1,.5.8.71.71,0,0,1-.13.32,2.57,2.57,0,0,1,.43,3.18A7.94,7.94,0,0,1,66,55.13c.21,1.45.4,2.89.58,4.3.15,1.19.26,2.38.31,3.57.15-.25.29-.5.42-.76l.15-.32c.09-.2.18-.4.26-.61l.14-.37q.13-.36.24-.75c0-.09.05-.17.08-.26.09-.34.17-.7.24-1.08,0-.12,0-.24.06-.37,0-.29.1-.59.14-.91,0-.13,0-.26,0-.39,0-.44.09-.89.13-1.38l0-.23c-.66-3.79-1.71-7.46-2.59-11.25C65.82,45,65.6,45.59,65,45.91Z"/><path class="cls-6" d="M65,45.91a3.55,3.55,0,0,1,1.29.72s-1.2-.16-2.33-.4c.31.92.58,1.85.82,2.8l.39.13a1,1,0,0,1,.46-.21,1.71,1.71,0,0,1,.35,0,.73.73,0,0,1,.38.11h0a.73.73,0,0,1,.5.8.71.71,0,0,1-.13.32,2.57,2.57,0,0,1,.43,3.18A7.94,7.94,0,0,1,66,55.13c.21,1.45.4,2.89.58,4.3.15,1.19.26,2.38.31,3.57.15-.25.29-.5.42-.76l.15-.32c.09-.2.18-.4.26-.61l.14-.37q.13-.36.24-.75c0-.09.05-.17.08-.26.09-.34.17-.7.24-1.08,0-.12,0-.24.06-.37,0-.29.1-.59.14-.91,0-.13,0-.26,0-.39,0-.44.09-.89.13-1.38l0-.23c-.66-3.79-1.71-7.46-2.59-11.25C65.82,45,65.6,45.59,65,45.91Z"/><path class="cls-5" d="M65.87,44.14l.24-.14c0-.21-.1-.42-.15-.64l-.06-.13A1.41,1.41,0,0,1,65.87,44.14Z"/><path class="cls-6" d="M65.87,44.14l.24-.14c0-.21-.1-.42-.15-.64l-.06-.13A1.41,1.41,0,0,1,65.87,44.14Z"/><path class="cls-5" d="M48,58.5a4.88,4.88,0,0,0,3.4-2.1.15.15,0,0,0-.13-.22c-1.57.17-2.94.89-4.56.45-.89-.24-1.77-.72-2.52.06a.11.11,0,0,0,0,.17C45.61,57.48,46.44,58.61,48,58.5Z"/><path class="cls-6" d="M48,58.5a4.88,4.88,0,0,0,3.4-2.1.15.15,0,0,0-.13-.22c-1.57.17-2.94.89-4.56.45-.89-.24-1.77-.72-2.52.06a.11.11,0,0,0,0,.17C45.61,57.48,46.44,58.61,48,58.5Z"/><path class="cls-5" d="M46.49,95.75c-1.1-.3-2.18-.89-3.11.08a.13.13,0,0,0,0,.2c1.67.77,2.69,2.16,4.67,2a6,6,0,0,0,4.18-2.58.19.19,0,0,0-.16-.27C50.17,95.41,48.48,96.29,46.49,95.75Z"/><path class="cls-6" d="M46.49,95.75c-1.1-.3-2.18-.89-3.11.08a.13.13,0,0,0,0,.2c1.67.77,2.69,2.16,4.67,2a6,6,0,0,0,4.18-2.58.19.19,0,0,0-.16-.27C50.17,95.41,48.48,96.29,46.49,95.75Z"/><path class="cls-5" d="M46.48,55.48a2,2,0,0,0,.32.14.73.73,0,0,0,.37,0h.07a.71.71,0,0,0,.68-.63.73.73,0,0,0-.5-.8h0a.73.73,0,0,0-.38-.11,1.72,1.72,0,0,0-.35,0,.85.85,0,0,0-.57.29.59.59,0,0,0-.08.64A.87.87,0,0,0,46.48,55.48Z"/><path class="cls-10" d="M46.48,55.48a2,2,0,0,0,.32.14.73.73,0,0,0,.37,0h.07a.71.71,0,0,0,.68-.63.73.73,0,0,0-.5-.8h0a.73.73,0,0,0-.38-.11,1.72,1.72,0,0,0-.35,0,.85.85,0,0,0-.57.29.59.59,0,0,0-.08.64A.87.87,0,0,0,46.48,55.48Z"/><path class="cls-5" d="M31.4,49.21a.74.74,0,0,0-.29-.19h0a.73.73,0,0,0-.38-.11,1.71,1.71,0,0,0-.35,0,.85.85,0,0,0-.57.29.59.59,0,0,0-.08.64.68.68,0,0,0,.23.28A4.31,4.31,0,0,1,31.4,49.21Z"/><path class="cls-10" d="M31.4,49.21a.74.74,0,0,0-.29-.19h0a.73.73,0,0,0-.38-.11,1.71,1.71,0,0,0-.35,0,.85.85,0,0,0-.57.29.59.59,0,0,0-.08.64.68.68,0,0,0,.23.28A4.31,4.31,0,0,1,31.4,49.21Z"/><path class="cls-5" d="M66.82,50.14a.71.71,0,0,0,.13-.32.73.73,0,0,0-.5-.8h0a.73.73,0,0,0-.38-.11,1.71,1.71,0,0,0-.35,0,1,1,0,0,0-.46.21A4.44,4.44,0,0,1,66.82,50.14Z"/><path class="cls-6" d="M66.82,50.14a.71.71,0,0,0,.13-.32.73.73,0,0,0-.5-.8h0a.73.73,0,0,0-.38-.11,1.71,1.71,0,0,0-.35,0,1,1,0,0,0-.46.21A4.44,4.44,0,0,1,66.82,50.14Z"/><path class="cls-10" d="M66.82,50.14a.71.71,0,0,0,.13-.32.73.73,0,0,0-.5-.8h0a.73.73,0,0,0-.38-.11,1.71,1.71,0,0,0-.35,0,1,1,0,0,0-.46.21A4.44,4.44,0,0,1,66.82,50.14Z"/><path class="cls-3" d="M33.15,37.89c3.72.3,6.73,1.71,8.45,2.06s2.48-1.63.83-2.11c-7.09-2.07-7.81-1.46-11.71-.78C25.45,38,32.15,37.81,33.15,37.89Z"/><path class="cls-7" d="M61.74,111.1c-1.76,0-3.51,0-5.27-.07-7.52-.19-15-.63-22.5-1.51-5.25-.62-13.23.1-12.1,7.56.62,4.13,4.34,6.4,8.14,7.9a42.53,42.53,0,0,0,11.57,4.83A41.49,41.49,0,0,0,59.7,131a15.76,15.76,0,0,1-.91-2.05c0-.13-.61-2-.14-1.48a4.83,4.83,0,0,0,1.19,1,15.82,15.82,0,0,1-.94-2.12c0-.13-.61-2-.14-1.48,3,3.39,5.38-.3,6-3.4a28.38,28.38,0,0,0-1.72-6C62.54,113.92,62.11,112.48,61.74,111.1Z"/><path class="cls-11" d="M61.74,111.1c-1.76,0-3.51,0-5.27-.07-7.52-.19-15-.63-22.5-1.51-5.25-.62-13.23.1-12.1,7.56.62,4.13,4.34,6.4,8.14,7.9a42.53,42.53,0,0,0,11.57,4.83A41.49,41.49,0,0,0,59.7,131a15.76,15.76,0,0,1-.91-2.05c0-.13-.61-2-.14-1.48a4.83,4.83,0,0,0,1.19,1,15.82,15.82,0,0,1-.94-2.12c0-.13-.61-2-.14-1.48,3,3.39,5.38-.3,6-3.4a28.38,28.38,0,0,0-1.72-6C62.54,113.92,62.11,112.48,61.74,111.1Z"/><path class="cls-12" d="M20.82,19.46c.42.19.86.38,1.3.55a58.26,58.26,0,0,0,7.41,2.24l-.29.34a32,32,0,0,1,2.22-2.3,37.79,37.79,0,0,0-5.1,10.3l.07-.11.3-.4,0,0A16.61,16.61,0,0,1,28,28.58l-.81-.25a41.11,41.11,0,0,1,2.9-5.94c1.8.4,3.62.72,5.45,1,.86-.46,1.74-.93,2.63-1.44.34-.2.74-.39,1.16-.59,1.7-.81,3.94-1.67,6.09-2.7l.31.47a26.17,26.17,0,0,0,3,3.69,58.45,58.45,0,0,0,9.32,7.15c.49.33,1,.68,1.42,1-.46-.36-.94-.71-1.42-1a67.52,67.52,0,0,1-8.36-6.23,82.29,82.29,0,0,0,17.42-3.28,21,21,0,0,1,5.16,9.45c-1.27-4.47-3.4-8.69-7.43-11.29a9.57,9.57,0,0,1,2.83,1.68,91.69,91.69,0,0,0,10.19-3.81c-.12-.21-.23-.42-.35-.63l-.38-.61q-.54-.88-1.13-1.72l-.45-.64c-.53-.73-1.08-1.45-1.67-2.14a26.22,26.22,0,0,0-7.36-6.05h0L65.49,4.1A37.78,37.78,0,0,0,55.23.39C54.82.31,54.41.23,54,.18h-.06l-.8-.09H53A11.8,11.8,0,0,0,48,.58l-.37.14-.06,0-.09,0a7.82,7.82,0,0,0-.89.47c-.2.12-.39.26-.57.4l-.25.19-.11.08c-3.46,2.93-3.51,8.54-2,13A14.6,14.6,0,0,1,43,13a9.07,9.07,0,0,1-.66-1.43h0a8.1,8.1,0,0,1-.27-.9v-.08h0A12.8,12.8,0,0,1,42.77,3c-8.52.58-15.63,6.06-20.32,13.12l-.3.48a52.22,52.22,0,0,0-2.25,5.16l0,.06q-.32.85-.6,1.7v0c-.14.42-.27.83-.39,1.25A54,54,0,0,1,20.82,19.46Z"/><path class="cls-12" d="M16.7,44.35c0,.35.09.7.14,1.05a121.89,121.89,0,0,0,8.89,31.11C27.48,80.43,30,85,32,88.79h0l0,0a14.84,14.84,0,0,0,2.8-4l.31-.63.11-.23h0a25.77,25.77,0,0,1-3.21-4.72C28.18,73,24.79,66.62,23.17,59.4a50.27,50.27,0,0,1-1.09-7.61A20.45,20.45,0,0,1,20.19,46c-.34-2.2-.72-5,1.55-6.11a31.82,31.82,0,0,1,3.82-12.12c-.5-.18-1-.34-1.5-.53s-1.22-.47-1.82-.71l-.53-.28-2.84-1.47-.13.4-.07.23c-.15.51-.29,1-.43,1.53l0,.07c-.13.51-.25,1-.37,1.53l-.07.33c-.11.5-.21,1-.3,1.49-.18,1-.33,2.06-.46,3.13,0,.25,0,.51-.07.76-.09.86-.16,1.72-.21,2.61,0,.05,0,.1,0,.16C16.6,39.39,16.59,41.84,16.7,44.35Z"/><path class="cls-12" d="M26.42,26.33l-.17.27Z"/><path class="cls-12" d="M27.4,24.89l-.29.42Z"/><path class="cls-12" d="M28.12,23.95l.38-.48Z"/><path class="cls-3" d="M63.07,85a7.47,7.47,0,0,1-.65-.46l0,.07c.18.28.36.55.56.82Z"/><path class="cls-4" d="M63.07,85a7.47,7.47,0,0,1-.65-.46l0,.07c.18.28.36.55.56.82Z"/><path class="cls-6" d="M63.07,85a7.47,7.47,0,0,1-.65-.46l0,.07c.18.28.36.55.56.82Z"/><path class="cls-5" d="M63,85.46c-.2-.27-.38-.54-.56-.82-.27.82-.52,1.65-.73,2.48-1.81,7-2.4,12.66-.78,20.45l1.14-.05A57.42,57.42,0,0,1,63,85.46Z"/><path class="cls-6" d="M63,85.46c-.2-.27-.38-.54-.56-.82-.27.82-.52,1.65-.73,2.48-1.81,7-2.4,12.66-.78,20.45l1.14-.05A57.42,57.42,0,0,1,63,85.46Z"/><path class="cls-5" d="M62,107.52l-1.14.05h0l1.14,0Z"/><path class="cls-13" d="M62,107.52l-1.14.05h0l1.14,0Z"/><path class="cls-7" d="M91.58,118.65a50.13,50.13,0,0,0,.78-8.12c-.06.81-.11,1.63-.21,2.44v0h0c-.12,1-.27,2-.45,3.05a38.27,38.27,0,0,1-4.51,12.78q.1,1,.22,2A39.11,39.11,0,0,0,91.58,118.65Z"/><path class="cls-13" d="M91.58,118.65a50.13,50.13,0,0,0,.78-8.12c-.06.81-.11,1.63-.21,2.44v0h0c-.12,1-.27,2-.45,3.05a38.27,38.27,0,0,1-4.51,12.78q.1,1,.22,2A39.11,39.11,0,0,0,91.58,118.65Z"/><path class="cls-7" d="M85.75,133.37c0-.9,0-1.75.06-2.54a16.16,16.16,0,0,1-5.45,4.67c-.08.06-.15.14-.23.2a3,3,0,0,1-1,.37,14.64,14.64,0,0,1-4.48,1,15.2,15.2,0,0,1-13.11-5.92l-.28-.41-.2,0c-.44.09-.88.15-1.32.23a21.34,21.34,0,0,0,1.69,2.73A14.86,14.86,0,0,0,71,139.45q4.41-.5,9-1.25A16.11,16.11,0,0,0,85.75,133.37Z"/><path class="cls-13" d="M85.75,133.37c0-.9,0-1.75.06-2.54a16.16,16.16,0,0,1-5.45,4.67c-.08.06-.15.14-.23.2a3,3,0,0,1-1,.37,14.64,14.64,0,0,1-4.48,1,15.2,15.2,0,0,1-13.11-5.92l-.28-.41-.2,0c-.44.09-.88.15-1.32.23a21.34,21.34,0,0,0,1.69,2.73A14.86,14.86,0,0,0,71,139.45q4.41-.5,9-1.25A16.11,16.11,0,0,0,85.75,133.37Z"/><path class="cls-7" d="M61.74,111.1h1q-.4-1.77-.68-3.58l-1.14,0Q61.24,109.26,61.74,111.1Z"/><path class="cls-13" d="M61.74,111.1h1q-.4-1.77-.68-3.58l-1.14,0Q61.24,109.26,61.74,111.1Z"/><path class="cls-9" d="M85.75,133.37a23,23,0,0,0,1.65-2.49q-.12-1-.22-2a22.45,22.45,0,0,1-1.36,2C85.78,131.62,85.75,132.47,85.75,133.37Z"/><path class="cls-13" d="M85.75,133.37a23,23,0,0,0,1.65-2.49q-.12-1-.22-2a22.45,22.45,0,0,1-1.36,2C85.78,131.62,85.75,132.47,85.75,133.37Z"/><path class="cls-7" d="M61.74,111.1c.37,1.38.8,2.82,1.3,4.36a28.38,28.38,0,0,1,1.72,6,8.46,8.46,0,0,0,.13-.89c.24-2.85-1-5.07-1.74-7.7q-.23-.87-.43-1.76Z"/><path class="cls-11" d="M61.74,111.1c.37,1.38.8,2.82,1.3,4.36a28.38,28.38,0,0,1,1.72,6,8.46,8.46,0,0,0,.13-.89c.24-2.85-1-5.07-1.74-7.7q-.23-.87-.43-1.76Z"/><path class="cls-13" d="M61.74,111.1c.37,1.38.8,2.82,1.3,4.36a28.38,28.38,0,0,1,1.72,6,8.46,8.46,0,0,0,.13-.89c.24-2.85-1-5.07-1.74-7.7q-.23-.87-.43-1.76Z"/><path class="cls-7" d="M58.8,128.93A15.76,15.76,0,0,0,59.7,131c.44-.07.88-.14,1.32-.23l.2,0a20.89,20.89,0,0,1-1.37-2.25,4.83,4.83,0,0,1-1.19-1C58.19,126.93,58.75,128.8,58.8,128.93Z"/><path class="cls-11" d="M58.8,128.93A15.76,15.76,0,0,0,59.7,131c.44-.07.88-.14,1.32-.23l.2,0a20.89,20.89,0,0,1-1.37-2.25,4.83,4.83,0,0,1-1.19-1C58.19,126.93,58.75,128.8,58.8,128.93Z"/><path class="cls-13" d="M58.8,128.93A15.76,15.76,0,0,0,59.7,131c.44-.07.88-.14,1.32-.23l.2,0a20.89,20.89,0,0,1-1.37-2.25,4.83,4.83,0,0,1-1.19-1C58.19,126.93,58.75,128.8,58.8,128.93Z"/><path class="cls-3" d="M21.83,39.84a4.09,4.09,0,0,1,3.54.09,5.38,5.38,0,0,1,1.16.8c-.06-2.53-.06-4.78,0-6.79l0,.06c0-.9.09-1.75.15-2.56q0-.7.1-1.35l-.3.4-.07.11a37.79,37.79,0,0,1,5.1-10.3,32,32,0,0,0-2.22,2.3c-.25.29-.5.57-.74.86l-.38.48c-.24.31-.49.62-.72.94l-.29.42c-.24.34-.47.68-.69,1l-.17.27c-.24.39-.48.78-.7,1.17h0a31.81,31.81,0,0,0-3.82,12.12Z"/><path class="cls-5" d="M26.33,55a2.71,2.71,0,0,1-.48,0A2.74,2.74,0,0,0,26.33,55Z"/><path class="cls-5" d="M22.5,52.51a15.08,15.08,0,0,1-1.14-2.33,8.15,8.15,0,0,0,2.92,2.07,5.61,5.61,0,0,0,2.88.42c0,.79.06,1.77.09,2a2.14,2.14,0,0,1-.9.32,2.11,2.11,0,0,0,.85-.28l.07,1.09c.3,4.34,1.19,6.7,3.35,9.15a60.17,60.17,0,0,0,6.21,5.61l0,0c1.45,1.21,3.09,2.58,5,4.23a9.28,9.28,0,0,0,12.33,0c2.26-2,4.16-3.54,5.79-4.91h0c3.4-2.84,5.55-4.71,6.88-6.91,0-1.19-.15-2.38-.31-3.57-.18-1.41-.37-2.85-.58-4.3a8.35,8.35,0,0,1-4.78,2.71,5.7,5.7,0,0,1-2.11-.25c-2.78-.31-4.56-3-3.19-5.54,1.27-2.36,4.88-3.33,7.4-3.26a6.15,6.15,0,0,1,1.53.24c-.24-1-.51-1.88-.82-2.8a11.33,11.33,0,0,1-1.29-.34l-.38-.11c-3.57-1.13-5.42-1.07-8.06.78-.32.22-.68.11-.49-.3l.07-.13a.67.67,0,0,1-.29-1,9.21,9.21,0,0,1,4.79-3.87,10.92,10.92,0,0,1,3-.6q-.76-1.17-1.62-2.28c-2.37.54-4.29,1.34-5.53,1.6-1.66.34-2.48-1.63-.83-2.11a44.33,44.33,0,0,1,4.94-1.21c-4.79-5.56-10.83-10.35-12.6-17.54l-.31-.47c-2.15,1-4.38,1.89-6.09,2.7A43.26,43.26,0,0,0,26.53,33.94c-.06,2-.06,4.27,0,6.79a5.38,5.38,0,0,0-1.16-.8,4.09,4.09,0,0,0-3.54-.09l-.09,0C19.47,41,19.85,43.81,20.19,46a20.45,20.45,0,0,0,1.9,5.79C22.22,52,22.35,52.28,22.5,52.51Zm19.84-6.26c.19.41-.18.52-.49.3-2.65-1.84-4.49-1.91-8.06-.78l-.38.11a25.22,25.22,0,0,1-3.63.74,3.55,3.55,0,0,1,1.29-.72c-.63-.35-.84-1.09-1.29-1.8a.1.1,0,0,1,.15-.14,2.15,2.15,0,0,0,.3.17c-.42-1,.72-2.53,1.59-3,1.81-.9,4.11-.58,5.95,0a9.21,9.21,0,0,1,4.79,3.87.67.67,0,0,1-.29,1ZM29.91,50.17a.68.68,0,0,1-.23-.28.59.59,0,0,1,.08-.64.85.85,0,0,1,.57-.29,1.71,1.71,0,0,1,.35,0,.73.73,0,0,1,.38.11h0a.74.74,0,0,1,.29.19,6.1,6.1,0,0,1,2.07-.43c2.52-.07,6.13.9,7.4,3.26,1.37,2.54-.41,5.23-3.19,5.54a5.7,5.7,0,0,1-2.11.25,8.69,8.69,0,0,1-6.06-4.51A2.57,2.57,0,0,1,29.91,50.17ZM48.33,75.38a4.73,4.73,0,0,1-3-.38,1.17,1.17,0,0,1-.29-2,3.71,3.71,0,0,1,2.33-.66,8.74,8.74,0,0,1,3.23.2,1.2,1.2,0,0,1,.76.85C51.7,74.81,49.51,75.26,48.33,75.38Zm6.39-14a12.85,12.85,0,0,0,4.08-.4l-.16-.2c-.22-.3.17-.67.5-.57.59.18,1.12.91.76,1.46a.49.49,0,0,1-.73.07.82.82,0,0,1-.16-.29l-.11.07c-.58.6-2.54,3.14-2.74,3.39-1.45,1.84-3.62,4.75-5.88,5.75a6.67,6.67,0,0,1-5.25,0c-2.35-1-4.46-3.77-5.92-5.75a21.15,21.15,0,0,0-2.67-3.36.72.72,0,0,1-.11.19.49.49,0,0,1-.73-.07c-.36-.55.17-1.29.76-1.46.33-.1.72.27.5.57l-.17.23a12,12,0,0,0,3.92.38c1.4-.21,2.74-.72,4.14-.94a3.94,3.94,0,0,1,2.91.91,3.94,3.94,0,0,1,2.91-.91C52,60.68,53.31,61.19,54.71,61.4Zm-8.64-7a.85.85,0,0,1,.57-.29,1.72,1.72,0,0,1,.35,0,.73.73,0,0,1,.38.11h0a.73.73,0,0,1,.5.8.71.71,0,0,1-.68.63h-.07a.73.73,0,0,1-.37,0,2,2,0,0,1-.32-.14.87.87,0,0,1-.48-.43A.59.59,0,0,1,46.07,54.41Zm-1.85,2.28c.76-.79,1.63-.31,2.52-.06,1.61.44,3-.28,4.56-.45a.15.15,0,0,1,.13.22A4.88,4.88,0,0,1,48,58.5c-1.61.1-2.43-1-3.79-1.65A.11.11,0,0,1,44.23,56.69ZM30.71,37.07c3.9-.68,4.62-1.29,11.71.78,1.65.48.83,2.44-.83,2.11s-4.73-1.76-8.45-2.06C32.15,37.81,25.45,38,30.71,37.07ZM22,42.17a2,2,0,0,1,2.8.74,6.48,6.48,0,0,1,1.16,3.22,4.1,4.1,0,0,1-1,3.15c-.07.1-.23,0-.22-.11a9.87,9.87,0,0,0-.38-3.31,4.34,4.34,0,0,0-.79-1.34c0,.16,0,.31,0,.47a1.21,1.21,0,0,1-2.28.72A2.77,2.77,0,0,1,22,42.17Z"/><path class="cls-5" d="M25.14,54.89a2.77,2.77,0,0,1-.56-.22A2.77,2.77,0,0,0,25.14,54.89Z"/><path class="cls-5" d="M24.41,54.57a3.63,3.63,0,0,1-.36-.24A3.64,3.64,0,0,0,24.41,54.57Z"/><path class="cls-5" d="M22.92,53.14c-.14-.19-.27-.38-.4-.59Q22.71,52.86,22.92,53.14Z"/><path class="cls-5" d="M23.37,53.7q-.17-.19-.33-.4C23.15,53.44,23.26,53.57,23.37,53.7Z"/><path class="cls-5" d="M25.14,54.89a3.88,3.88,0,0,0,.6.11A3.75,3.75,0,0,1,25.14,54.89Z"/><path class="cls-5" d="M23.86,54.18l-.33-.31Z"/><path class="cls-3" d="M25.85,55h0Z"/><path class="cls-6" d="M25.85,55h0Z"/><path class="cls-3" d="M26.35,55h0Z"/><path class="cls-6" d="M26.35,55h0Z"/><path class="cls-3" d="M24.58,54.67l-.17-.1Z"/><path class="cls-6" d="M24.58,54.67l-.17-.1Z"/><path class="cls-3" d="M23,53.3l-.12-.16Z"/><path class="cls-6" d="M23,53.3l-.12-.16Z"/><path class="cls-3" d="M22.52,52.55l0,0Z"/><path class="cls-6" d="M22.52,52.55l0,0Z"/><path class="cls-3" d="M23.54,53.87l-.17-.18Z"/><path class="cls-6" d="M23.54,53.87l-.17-.18Z"/><path class="cls-3" d="M24,54.33l-.18-.15Z"/><path class="cls-6" d="M24,54.33l-.18-.15Z"/><path class="cls-5" d="M27.25,54.67c0-.23-.07-1.21-.09-2a5.61,5.61,0,0,1-2.88-.42,8.15,8.15,0,0,1-2.92-2.07,15.08,15.08,0,0,0,1.14,2.33l0,0c.13.21.26.4.4.59l.12.16q.16.21.33.4l.17.18.33.31.18.15a3.63,3.63,0,0,0,.36.24l.17.1a2.77,2.77,0,0,0,.56.22,3.75,3.75,0,0,0,.6.11h.1a2.71,2.71,0,0,0,.48,0h0A2.14,2.14,0,0,0,27.25,54.67Z"/><path class="cls-6" d="M27.25,54.67c0-.23-.07-1.21-.09-2a5.61,5.61,0,0,1-2.88-.42,8.15,8.15,0,0,1-2.92-2.07,15.08,15.08,0,0,0,1.14,2.33l0,0c.13.21.26.4.4.59l.12.16q.16.21.33.4l.17.18.33.31.18.15a3.63,3.63,0,0,0,.36.24l.17.1a2.77,2.77,0,0,0,.56.22,3.75,3.75,0,0,0,.6.11h.1a2.71,2.71,0,0,0,.48,0h0A2.14,2.14,0,0,0,27.25,54.67Z"/><path class="cls-5" d="M23.59,45c0-.16,0-.31,0-.47a4.34,4.34,0,0,1,.79,1.34,9.87,9.87,0,0,1,.38,3.31c0,.13.15.2.22.11a4.1,4.1,0,0,0,1-3.15,6.48,6.48,0,0,0-1.16-3.22,2,2,0,0,0-2.8-.74,2.77,2.77,0,0,0-.65,3.54A1.21,1.21,0,0,0,23.59,45Z"/><path class="cls-6" d="M23.59,45c0-.16,0-.31,0-.47a4.34,4.34,0,0,1,.79,1.34,9.87,9.87,0,0,1,.38,3.31c0,.13.15.2.22.11a4.1,4.1,0,0,0,1-3.15,6.48,6.48,0,0,0-1.16-3.22,2,2,0,0,0-2.8-.74,2.77,2.77,0,0,0-.65,3.54A1.21,1.21,0,0,0,23.59,45Z"/><path class="cls-5" d="M29.51,53.33a8.69,8.69,0,0,0,6.06,4.51,5.7,5.7,0,0,0,2.11-.25c2.78-.31,4.56-3,3.19-5.54-1.27-2.36-4.88-3.33-7.4-3.26a6.1,6.1,0,0,0-2.07.43.72.72,0,0,1,.21.61.71.71,0,0,1-.68.63h-.07a.73.73,0,0,1-.37,0,2,2,0,0,1-.32-.14,1.43,1.43,0,0,1-.25-.15A2.57,2.57,0,0,0,29.51,53.33Z"/><path class="cls-14" d="M29.51,53.33a8.69,8.69,0,0,0,6.06,4.51,5.7,5.7,0,0,0,2.11-.25c2.78-.31,4.56-3,3.19-5.54-1.27-2.36-4.88-3.33-7.4-3.26a6.1,6.1,0,0,0-2.07.43.72.72,0,0,1,.21.61.71.71,0,0,1-.68.63h-.07a.73.73,0,0,1-.37,0,2,2,0,0,1-.32-.14,1.43,1.43,0,0,1-.25-.15A2.57,2.57,0,0,0,29.51,53.33Z"/><path class="cls-5" d="M30.49,50.45a.73.73,0,0,0,.37,0h.07a.71.71,0,0,0,.68-.63.72.72,0,0,0-.21-.61,4.31,4.31,0,0,0-1.49,1,1.43,1.43,0,0,0,.25.15A2,2,0,0,0,30.49,50.45Z"/><path class="cls-10" d="M30.49,50.45a.73.73,0,0,0,.37,0h.07a.71.71,0,0,0,.68-.63.72.72,0,0,0-.21-.61,4.31,4.31,0,0,0-1.49,1,1.43,1.43,0,0,0,.25.15A2,2,0,0,0,30.49,50.45Z"/><path class="cls-14" d="M30.49,50.45a.73.73,0,0,0,.37,0h.07a.71.71,0,0,0,.68-.63.72.72,0,0,0-.21-.61,4.31,4.31,0,0,0-1.49,1,1.43,1.43,0,0,0,.25.15A2,2,0,0,0,30.49,50.45Z"/><path class="cls-5" d="M42.56,45.1a9.21,9.21,0,0,0-4.79-3.87c-1.84-.63-4.14-.95-5.95,0-.86.43-2,2-1.59,3,1.08.58,1.92-.21,3-.59,3-1.08,7.41-.55,9,2.57A.67.67,0,0,0,42.56,45.1Z"/><path class="cls-6" d="M42.56,45.1a9.21,9.21,0,0,0-4.79-3.87c-1.84-.63-4.14-.95-5.95,0-.86.43-2,2-1.59,3,1.08.58,1.92-.21,3-.59,3-1.08,7.41-.55,9,2.57A.67.67,0,0,0,42.56,45.1Z"/><path class="cls-5" d="M62.86,43.55l.11,0,0-.08a22.85,22.85,0,0,0-1.59-2.88,10.92,10.92,0,0,0-3,.6,9.21,9.21,0,0,0-4.79,3.87.67.67,0,0,0,.29,1C55.45,43,59.83,42.47,62.86,43.55Z"/><path class="cls-6" d="M62.86,43.55l.11,0,0-.08a22.85,22.85,0,0,0-1.59-2.88,10.92,10.92,0,0,0-3,.6,9.21,9.21,0,0,0-4.79,3.87.67.67,0,0,0,.29,1C55.45,43,59.83,42.47,62.86,43.55Z"/><path class="cls-5" d="M64.29,41.19a6,6,0,0,0-2.93-.55,22.85,22.85,0,0,1,1.59,2.88l0,.08c1,.4,1.85,1.1,2.9.55a1.41,1.41,0,0,0,0-.9c-.18-.37-.37-.74-.57-1.11A3.28,3.28,0,0,0,64.29,41.19Z"/><path class="cls-6" d="M64.29,41.19a6,6,0,0,0-2.93-.55,22.85,22.85,0,0,1,1.59,2.88l0,.08c1,.4,1.85,1.1,2.9.55a1.41,1.41,0,0,0,0-.9c-.18-.37-.37-.74-.57-1.11A3.28,3.28,0,0,0,64.29,41.19Z"/><path class="cls-6" d="M64.29,41.19a6,6,0,0,0-2.93-.55,22.85,22.85,0,0,1,1.59,2.88l0,.08c1,.4,1.85,1.1,2.9.55a1.41,1.41,0,0,0,0-.9c-.18-.37-.37-.74-.57-1.11A3.28,3.28,0,0,0,64.29,41.19Z"/><path class="cls-15" d="M63,43.6l-.11,0c-3-1.08-7.41-.55-9,2.57l-.07.13c-.19.41.18.52.49.3,2.65-1.84,4.49-1.91,8.06-.78l.38.11a11.33,11.33,0,0,0,1.29.34c1.13.24,2.33.4,2.33.4A3.55,3.55,0,0,0,65,45.91c.56-.32.79-.94,1.16-1.58L66.11,44l-.24.14C64.83,44.7,64,44,63,43.6Z"/><path class="cls-5" d="M63.28,48.79c-2.52-.07-6.13.9-7.4,3.26-1.37,2.54.41,5.23,3.19,5.54a5.7,5.7,0,0,0,2.11.25A8.35,8.35,0,0,0,66,55.13c-.3-2-.66-4.1-1.16-6.1A6.15,6.15,0,0,0,63.28,48.79Z"/><path class="cls-14" d="M63.28,48.79c-2.52-.07-6.13.9-7.4,3.26-1.37,2.54.41,5.23,3.19,5.54a5.7,5.7,0,0,0,2.11.25A8.35,8.35,0,0,0,66,55.13c-.3-2-.66-4.1-1.16-6.1A6.15,6.15,0,0,0,63.28,48.79Z"/><path class="cls-5" d="M66.82,50.14a.72.72,0,0,1-.55.31h-.07a.73.73,0,0,1-.37,0,2,2,0,0,1-.32-.14.87.87,0,0,1-.48-.43.59.59,0,0,1,.08-.64.56.56,0,0,1,.11-.09L64.81,49c.5,2,.86,4.06,1.16,6.1a7.94,7.94,0,0,0,1.28-1.81A2.57,2.57,0,0,0,66.82,50.14Z"/><path class="cls-6" d="M66.82,50.14a.72.72,0,0,1-.55.31h-.07a.73.73,0,0,1-.37,0,2,2,0,0,1-.32-.14.87.87,0,0,1-.48-.43.59.59,0,0,1,.08-.64.56.56,0,0,1,.11-.09L64.81,49c.5,2,.86,4.06,1.16,6.1a7.94,7.94,0,0,0,1.28-1.81A2.57,2.57,0,0,0,66.82,50.14Z"/><path class="cls-14" d="M66.82,50.14a.72.72,0,0,1-.55.31h-.07a.73.73,0,0,1-.37,0,2,2,0,0,1-.32-.14.87.87,0,0,1-.48-.43.59.59,0,0,1,.08-.64.56.56,0,0,1,.11-.09L64.81,49c.5,2,.86,4.06,1.16,6.1a7.94,7.94,0,0,0,1.28-1.81A2.57,2.57,0,0,0,66.82,50.14Z"/><path class="cls-5" d="M65,49.89a.87.87,0,0,0,.48.43,2,2,0,0,0,.32.14.73.73,0,0,0,.37,0h.07a.72.72,0,0,0,.55-.31,4.44,4.44,0,0,0-1.61-1,.56.56,0,0,0-.11.09A.59.59,0,0,0,65,49.89Z"/><path class="cls-6" d="M65,49.89a.87.87,0,0,0,.48.43,2,2,0,0,0,.32.14.73.73,0,0,0,.37,0h.07a.72.72,0,0,0,.55-.31,4.44,4.44,0,0,0-1.61-1,.56.56,0,0,0-.11.09A.59.59,0,0,0,65,49.89Z"/><path class="cls-10" d="M65,49.89a.87.87,0,0,0,.48.43,2,2,0,0,0,.32.14.73.73,0,0,0,.37,0h.07a.72.72,0,0,0,.55-.31,4.44,4.44,0,0,0-1.61-1,.56.56,0,0,0-.11.09A.59.59,0,0,0,65,49.89Z"/><path class="cls-14" d="M65,49.89a.87.87,0,0,0,.48.43,2,2,0,0,0,.32.14.73.73,0,0,0,.37,0h.07a.72.72,0,0,0,.55-.31,4.44,4.44,0,0,0-1.61-1,.56.56,0,0,0-.11.09A.59.59,0,0,0,65,49.89Z"/><path class="cls-3" d="M90,97.25a82,82,0,0,1,2.45,9.4,50.65,50.65,0,0,1-.33,6.31c.1-.81.15-1.62.21-2.44a50.92,50.92,0,0,0,0-7.33v0a51.8,51.8,0,0,0-1.12-7.46,52.21,52.21,0,0,0-1.95-6.61c-1-2.77-2.1-5.55-2.93-8.39C86.11,86.5,88.28,91.78,90,97.25Z"/><path class="cls-3" d="M83.67,33.4c1.39,10.77-.44,21.28-3.55,31.6-2.82,9.38-6.8,18.4-7.07,28.34a40.59,40.59,0,0,0,1.88,13.46c2.22,6.93,5.44,13.65,1,20.51-2.38,3.69-7.07,7.35-11.36,4.25a6.62,6.62,0,0,1-2-2.13,4.25,4.25,0,0,0,2.61.52,3.38,3.38,0,0,0,2-1.48c2.89-4.18,2.11-9.25.3-13.69-2.27-5.56-4-10.83-3.75-16.94.27-5.79,2.3-11.4,4-16.88,1.12-3.6,2.31-7.18,3.56-10.74a1.8,1.8,0,0,0,.17-.47q1-2.85,2-5.68a61.87,61.87,0,0,0,3.73-15.61c.58-6.28.13-13-2.41-18.84-.06-.14-.13-.26-.19-.4h0q-.39-.86-.81-1.63h0a22.65,22.65,0,0,0-6.12-7.31h0a9.57,9.57,0,0,0-2.83-1.68c4,2.6,6.17,6.82,7.43,11.29h0c.35,1.24.64,2.49.88,3.74a59.52,59.52,0,0,1,0,20.93c-.36,2.18-.82,4.33-1.36,6.46.67-2.68-.2-6.72-.63-9.42a35.71,35.71,0,0,0-2.58-8.93A30.37,30.37,0,0,0,60.78,32q-.63-.54-1.28-1.05c-.47-.36-.94-.71-1.42-1a58.45,58.45,0,0,1-9.32-7.15,49.72,49.72,0,0,0,4.56,4.44,52.75,52.75,0,0,1,8.56,9.28,11.86,11.86,0,0,0-3.56.13,44.33,44.33,0,0,0-4.94,1.21c-1.65.48-.83,2.44.83,2.11,1.24-.25,3.16-1.05,5.53-1.6a20.41,20.41,0,0,1,2.92-.47h.17a45.44,45.44,0,0,1,2.5,4.25c.19.37.39.74.57,1.11l.06.13c0,.21.1.42.15.64l.07.32c.87,3.79,1.92,7.46,2.59,11.25a38.44,38.44,0,0,1,.63,7c-.06,7.77-4.31,14.62-6.21,22,0,.17-.08.34-.12.51l-.1.43A57.42,57.42,0,0,0,62,107.52h0q.28,1.8.68,3.58.2.88.43,1.76c.7,2.64,2,4.85,1.74,7.7a8.46,8.46,0,0,1-.13.89c-.6,3.1-3,6.79-6,3.4-.47-.53.09,1.35.14,1.48a15.82,15.82,0,0,0,.94,2.12,20.89,20.89,0,0,0,1.37,2.25l.28.41A15.2,15.2,0,0,0,74.61,137a14.64,14.64,0,0,0,4.48-1c-1.21.26-2.87.3-3.12.55a16.3,16.3,0,0,0,3-4c2.5-4.85,2.27-10.63,1.63-15.9a45.57,45.57,0,0,0-.84-8.38c-.08-.4-.16-.8-.24-1.19-1.48-4.62-3-9.26-3.27-14.17-.81-12.47,4-24.81,7.4-36.6.67-2.32,1.39-4.71,2-7.13.25,7.11.33,14.08-1.24,21.19.24-.59.49-1.19.72-1.78h0c.18-2.18.45-4.36.57-6.59a118.84,118.84,0,0,0-.3-17.92,102.45,102.45,0,0,0-1.69-11.54A1.65,1.65,0,0,0,83.67,33.4Z"/><path class="cls-3" d="M82.79,79.58A38.67,38.67,0,0,0,81,87.77c-.61,7,1.48,13.77,3.22,20.49,1.89,7.26,2.9,15.37-.41,22.33q-.31.65-.67,1.28a12.05,12.05,0,0,1-2.81,3.63,16.16,16.16,0,0,0,5.45-4.67,22.45,22.45,0,0,0,1.36-2,38.27,38.27,0,0,0,4.51-12.78c.18-1,.33-2,.45-3.05a46.53,46.53,0,0,0-1.65-5.88c-1.44-4.09-3.26-8.05-4.33-12.22,1,4.81,2.78,9.55,3.8,14.51a28.56,28.56,0,0,1-1.75,16.95,13.06,13.06,0,0,1-4.35,5.17,18.3,18.3,0,0,0,3.4-11.25c-.08-5-1.64-9.77-2.78-14.59-1.67-7-1-12.84.82-19.37,0,.07,0,.14,0,.21a32.29,32.29,0,0,1,.93-6.24h0a37.25,37.25,0,0,1-.95-4.14A23.77,23.77,0,0,1,85,72.94l-.21.62A33.92,33.92,0,0,0,82.79,79.58Z"/><path class="cls-3" d="M79.34,19.23c.24.5.48,1,.7,1.5-.36-.83-.74-1.65-1.15-2.45.07.15.14.3.21.45Z"/><path class="cls-3" d="M80.29,21.32q.46,1.09.87,2.21Q80.75,22.41,80.29,21.32Z"/><path class="cls-3" d="M77.9,16.45c.11.19.2.38.3.57.22.4.46.79.66,1.2-.42-.82-.86-1.61-1.33-2.4.12.21.23.42.35.63Z"/><path class="cls-3" d="M73.91,10.72c.59.69,1.14,1.41,1.67,2.14C75,12.12,74.5,11.41,73.91,10.72Z"/><path class="cls-3" d="M76,13.49q.59.85,1.13,1.72Q76.62,14.34,76,13.49Z"/><path class="cls-3" d="M81.31,23.93C82,25.75,82.53,27.62,83,29.5,82.53,27.62,82,25.75,81.31,23.93Z"/><path class="cls-3" d="M83.09,29.83q.35,1.39.65,2.8Q83.44,31.22,83.09,29.83Z"/><path class="cls-3" d="M53,.07h0Z"/><path class="cls-3" d="M65.49,4.1l1.06.56Z"/><path class="cls-3" d="M47.58.72,48,.58Z"/><path class="cls-3" d="M45.73,1.84,46,1.65Z"/><path class="cls-3" d="M53.93.17h0Z"/><path class="cls-3" d="M54,.18c.41.06.83.13,1.24.21C54.82.31,54.4.23,54,.18Z"/><path class="cls-3" d="M46.54,1.25a7.82,7.82,0,0,1,.89-.47A7.16,7.16,0,0,0,46.54,1.25Z"/><path class="cls-3" d="M85.29,87.83s0-.1,0-.15S85.29,87.78,85.29,87.83Z"/><path class="cls-3" d="M77.83,98.35c-.07-.83-.12-1.67-.15-2.51A45.82,45.82,0,0,1,78.91,83.7a94.84,94.84,0,0,1,4-9.62c.54-1.2,1.06-2.41,1.55-3.62,1.58-7.11,1.49-14.07,1.24-21.19-.64,2.42-1.36,4.8-2,7.13-3.42,11.79-8.21,24.12-7.4,36.6.32,4.91,1.8,9.54,3.27,14.17C78.93,104.23,78.26,101.3,77.83,98.35Z"/><path class="cls-16" d="M77.83,98.35c-.07-.83-.12-1.67-.15-2.51A45.82,45.82,0,0,1,78.91,83.7a94.84,94.84,0,0,1,4-9.62c.54-1.2,1.06-2.41,1.55-3.62,1.58-7.11,1.49-14.07,1.24-21.19-.64,2.42-1.36,4.8-2,7.13-3.42,11.79-8.21,24.12-7.4,36.6.32,4.91,1.8,9.54,3.27,14.17C78.93,104.23,78.26,101.3,77.83,98.35Z"/><path class="cls-3" d="M85.28,88.84c0-.34,0-.67,0-1,0,0,0-.1,0-.15,0-.38,0-.76,0-1.13,0-.07,0-.14,0-.21-1.85,6.52-2.49,12.32-.82,19.37,1.15,4.82,2.7,9.59,2.78,14.59a18.3,18.3,0,0,1-3.4,11.25,13.06,13.06,0,0,0,4.35-5.17A28.56,28.56,0,0,0,90,109.42c-1-5-2.75-9.71-3.8-14.51A27,27,0,0,1,85.28,88.84Z"/><path class="cls-16" d="M85.28,88.84c0-.34,0-.67,0-1,0,0,0-.1,0-.15,0-.38,0-.76,0-1.13,0-.07,0-.14,0-.21-1.85,6.52-2.49,12.32-.82,19.37,1.15,4.82,2.7,9.59,2.78,14.59a18.3,18.3,0,0,1-3.4,11.25,13.06,13.06,0,0,0,4.35-5.17A28.56,28.56,0,0,0,90,109.42c-1-5-2.75-9.71-3.8-14.51A27,27,0,0,1,85.28,88.84Z"/><path class="cls-12" d="M85.31,86.55c0,.38,0,.76,0,1.13,0,0,0,.1,0,.15,0,.34,0,.67,0,1a27,27,0,0,0,.89,6.07c1.07,4.16,2.88,8.13,4.33,12.22A46.53,46.53,0,0,1,92.14,113h0v0a50.65,50.65,0,0,0,.33-6.31A82,82,0,0,0,90,97.25c-1.76-5.47-3.92-10.75-3.68-16.53v0l-.12-.38h0A32.29,32.29,0,0,0,85.31,86.55Z"/><path class="cls-12" d="M84.43,70.46c-.5,1.21-1,2.42-1.55,3.62a94.84,94.84,0,0,0-4,9.62,45.82,45.82,0,0,0-1.23,12.14c0,.84.08,1.68.15,2.51.43,3,1.1,5.88,1.69,8.82.08.4.16.79.24,1.19a45.57,45.57,0,0,1,.84,8.38c.65,5.27.87,11-1.63,15.9a16.3,16.3,0,0,1-3,4c.24-.25,1.91-.29,3.12-.55a3,3,0,0,0,1-.37c.08-.06.15-.14.23-.2a12.05,12.05,0,0,0,2.81-3.63q.36-.63.67-1.28c3.31-7,2.3-15.07.41-22.33-1.74-6.71-3.83-13.47-3.22-20.49a38.67,38.67,0,0,1,1.76-8.19,33.92,33.92,0,0,1,2-6l.21-.62h0a40.46,40.46,0,0,1,.14-4.26h0C84.92,69.27,84.68,69.87,84.43,70.46Z"/><path class="cls-12" d="M82.1,26.31l-1.84.92-.24.12c-1,.38-2,.74-2.94,1.08-.81.28-1.63.54-2.45.79.06.14.13.26.19.4,2.54,5.83,3,12.56,2.41,18.84a61.87,61.87,0,0,1-3.73,15.61q-1,2.83-2,5.68a1.8,1.8,0,0,1-.17.47c-1.24,3.56-2.44,7.14-3.56,10.74-1.71,5.49-3.73,11.1-4,16.88-.29,6.11,1.48,11.38,3.75,16.94,1.81,4.44,2.59,9.5-.3,13.69a3.38,3.38,0,0,1-2,1.48,4.25,4.25,0,0,1-2.61-.52,6.62,6.62,0,0,0,2,2.13c4.29,3.1,9-.56,11.36-4.25,4.43-6.87,1.21-13.58-1-20.51a40.59,40.59,0,0,1-1.88-13.46c.27-9.94,4.25-19,7.07-28.34,3.11-10.32,4.94-20.83,3.55-31.6a1.65,1.65,0,0,1,.07-.77h0q-.3-1.4-.65-2.8L83,29.5c-.48-1.88-1-3.74-1.69-5.57l-.15-.41q-.41-1.12-.87-2.21L80,20.73c-.22-.51-.46-1-.7-1.5A52.46,52.46,0,0,1,82.1,26.31Z"/><path class="cls-12" d="M79.11,18.73c-.07-.15-.13-.3-.21-.45l0-.06c-.21-.41-.44-.8-.66-1.2C78.51,17.58,78.82,18.15,79.11,18.73Z"/><path class="cls-12" d="M73.81,27.59h0Z"/><path class="cls-12" d="M66,31.34l-1.81.31c1.18-.21-1.19.18-1.71.23L60.78,32h0a30.37,30.37,0,0,1,7.87,10.63,35.71,35.71,0,0,1,2.58,8.93c.43,2.7,1.3,6.74.63,9.42.54-2.13,1-4.29,1.36-6.46a59.52,59.52,0,0,0,0-20.93c-.24-1.25-.53-2.5-.88-3.74C70.21,30.45,68.1,30.94,66,31.34Z"/><path class="cls-9" d="M14.47,123.19a95,95,0,0,1-1.31,13.3l2.32.51C16,128.21,14.47,123.19,14.47,123.19Z"/><polygon class="cls-3" points="72.3 29.88 72.3 29.88 72.3 29.88 72.3 29.88"/><polygon class="cls-17" points="72.3 29.88 72.3 29.88 72.3 29.88 72.3 29.88"/><path class="cls-3" d="M59.5,31q.65.51,1.28,1.05C60.36,31.67,59.94,31.31,59.5,31Z"/><path class="cls-17" d="M59.5,31q.65.51,1.28,1.05C60.36,31.67,59.94,31.31,59.5,31Z"/><path class="cls-12" d="M60.78,32l1.67-.14c.52-.05,2.89-.44,1.71-.23L66,31.34c2.13-.4,4.24-.89,6.33-1.46h0a21,21,0,0,0-5.16-9.45,82.29,82.29,0,0,1-17.42,3.28,67.52,67.52,0,0,0,8.36,6.23c.49.33,1,.68,1.42,1s.86.69,1.28,1.05Z"/><path class="cls-17" d="M60.78,32l1.67-.14c.52-.05,2.89-.44,1.71-.23L66,31.34c2.13-.4,4.24-.89,6.33-1.46h0a21,21,0,0,0-5.16-9.45,82.29,82.29,0,0,1-17.42,3.28,67.52,67.52,0,0,0,8.36,6.23c.49.33,1,.68,1.42,1s.86.69,1.28,1.05Z"/><path class="cls-3" d="M74.62,29.22h0q-.39-.86-.81-1.63Q74.23,28.36,74.62,29.22Z"/><path class="cls-17" d="M74.62,29.22h0q-.39-.86-.81-1.63Q74.23,28.36,74.62,29.22Z"/><path class="cls-3" d="M77.9,16.45h0l.31.56C78.1,16.83,78,16.64,77.9,16.45Z"/><path class="cls-17" d="M77.9,16.45h0l.31.56C78.1,16.83,78,16.64,77.9,16.45Z"/><path class="cls-3" d="M79.11,18.73l.24.51Z"/><path class="cls-17" d="M79.11,18.73l.24.51Z"/><path class="cls-3" d="M73.81,27.58a22.65,22.65,0,0,0-6.11-7.32h0A22.65,22.65,0,0,1,73.81,27.58Z"/><path class="cls-17" d="M73.81,27.58a22.65,22.65,0,0,0-6.11-7.32h0A22.65,22.65,0,0,1,73.81,27.58Z"/><path class="cls-12" d="M73.81,27.58h0q.42.78.81,1.63c.82-.25,1.64-.51,2.45-.79,1-.34,2-.71,2.94-1.08l.24-.12,1.84-.92a52.46,52.46,0,0,0-2.76-7.08l-.24-.51c-.29-.58-.59-1.14-.9-1.71l-.31-.56A91.69,91.69,0,0,1,67.7,20.26,22.65,22.65,0,0,1,73.81,27.58Z"/><path class="cls-17" d="M73.81,27.58h0q.42.78.81,1.63c.82-.25,1.64-.51,2.45-.79,1-.34,2-.71,2.94-1.08l.24-.12,1.84-.92a52.46,52.46,0,0,0-2.76-7.08l-.24-.51c-.29-.58-.59-1.14-.9-1.71l-.31-.56A91.69,91.69,0,0,1,67.7,20.26,22.65,22.65,0,0,1,73.81,27.58Z"/><polygon class="cls-3" points="18.86 24.78 18.86 24.78 18.86 24.77 18.86 24.78"/><polygon class="cls-17" points="18.86 24.78 18.86 24.78 18.86 24.77 18.86 24.78"/><path class="cls-12" d="M26.42,26.33c.22-.34.45-.68.69-1l.29-.42c.23-.32.47-.63.72-.94l.38-.48c.24-.29.49-.58.74-.86l.29-.34A58.26,58.26,0,0,1,22.12,20c-.45-.17-.88-.35-1.3-.55a54,54,0,0,0-2,5.31h0l2.84,1.47.53.28c.6.24,1.21.49,1.82.71s1,.35,1.5.53c.22-.39.46-.78.7-1.17Z"/><path class="cls-17" d="M26.42,26.33c.22-.34.45-.68.69-1l.29-.42c.23-.32.47-.63.72-.94l.38-.48c.24-.29.49-.58.74-.86l.29-.34A58.26,58.26,0,0,1,22.12,20c-.45-.17-.88-.35-1.3-.55a54,54,0,0,0-2,5.31h0l2.84,1.47.53.28c.6.24,1.21.49,1.82.71s1,.35,1.5.53c.22-.39.46-.78.7-1.17Z"/><path class="cls-3" d="M29.24,22.6c-.25.29-.5.57-.74.86C28.74,23.17,29,22.89,29.24,22.6Z"/><path class="cls-17" d="M29.24,22.6c-.25.29-.5.57-.74.86C28.74,23.17,29,22.89,29.24,22.6Z"/><path class="cls-3" d="M27.11,25.31c-.24.34-.47.68-.69,1C26.64,26,26.88,25.65,27.11,25.31Z"/><path class="cls-17" d="M27.11,25.31c-.24.34-.47.68-.69,1C26.64,26,26.88,25.65,27.11,25.31Z"/><path class="cls-3" d="M26.25,26.6c-.24.39-.48.78-.7,1.17h0C25.78,27.38,26,27,26.25,26.6Z"/><path class="cls-17" d="M26.25,26.6c-.24.39-.48.78-.7,1.17h0C25.78,27.38,26,27,26.25,26.6Z"/><path class="cls-3" d="M27.4,24.89c.23-.32.47-.63.72-.94C27.87,24.26,27.63,24.57,27.4,24.89Z"/><path class="cls-17" d="M27.4,24.89c.23-.32.47-.63.72-.94C27.87,24.26,27.63,24.57,27.4,24.89Z"/><path class="cls-5" d="M35.54,23.35h0A28.14,28.14,0,0,0,28,28.58h0A28.2,28.2,0,0,1,35.54,23.35Z"/><path class="cls-6" d="M35.54,23.35h0A28.14,28.14,0,0,0,28,28.58h0A28.2,28.2,0,0,1,35.54,23.35Z"/><path class="cls-17" d="M35.54,23.35h0A28.14,28.14,0,0,0,28,28.58h0A28.2,28.2,0,0,1,35.54,23.35Z"/><path class="cls-12" d="M35.54,23.35c-1.83-.24-3.65-.56-5.45-1a41.11,41.11,0,0,0-2.9,5.94l.81.25A28.14,28.14,0,0,1,35.54,23.35Z"/><path class="cls-17" d="M35.54,23.35c-1.83-.24-3.65-.56-5.45-1a41.11,41.11,0,0,0-2.9,5.94l.81.25A28.14,28.14,0,0,1,35.54,23.35Z"/><path class="cls-5" d="M50.62,72.57a8.74,8.74,0,0,0-3.23-.2,3.71,3.71,0,0,0-2.33.66,1.17,1.17,0,0,0,.29,2,4.73,4.73,0,0,0,3,.38c1.19-.12,3.38-.58,3.05-2A1.2,1.2,0,0,0,50.62,72.57Z"/><path class="cls-18" d="M50.62,72.57a8.74,8.74,0,0,0-3.23-.2,3.71,3.71,0,0,0-2.33.66,1.17,1.17,0,0,0,.29,2,4.73,4.73,0,0,0,3,.38c1.19-.12,3.38-.58,3.05-2A1.2,1.2,0,0,0,50.62,72.57Z"/><path class="cls-15" d="M33.24,43.55c-1.08.38-1.93,1.17-3,.59a2.15,2.15,0,0,1-.3-.17.1.1,0,0,0-.15.14c.45.71.66,1.45,1.29,1.8a3.55,3.55,0,0,0-1.29.72,25.22,25.22,0,0,0,3.63-.74l.38-.11c3.57-1.13,5.42-1.07,8.06.78.32.22.68.11.49-.3l-.07-.13C40.66,43,36.28,42.47,33.24,43.55Z"/><path class="cls-5" d="M36.28,61.4a1.47,1.47,0,0,1-.36-.26c-.23-.27.35-.18.46-.17l.29,0,.17-.23c.22-.3-.17-.67-.5-.57-.59.18-1.12.91-.76,1.46a.49.49,0,0,0,.73.07.72.72,0,0,0,.11-.19l-.16-.16Z"/><path class="cls-6" d="M36.28,61.4a1.47,1.47,0,0,1-.36-.26c-.23-.27.35-.18.46-.17l.29,0,.17-.23c.22-.3-.17-.67-.5-.57-.59.18-1.12.91-.76,1.46a.49.49,0,0,0,.73.07.72.72,0,0,0,.11-.19l-.16-.16Z"/><path class="cls-9" d="M57.46,62.07l-.51.16c-.28.1-.57.19-.86.27A16.41,16.41,0,0,1,54.67,64a15.67,15.67,0,0,1-3.38.83,38.39,38.39,0,0,1-7.61-.14c-.91-.2-2.5-.4-3.22-1a6.84,6.84,0,0,1-.64-.85c-.56-.17-1.28-.42-2-.69a24.08,24.08,0,0,0,5.91,4.64c1.56-1.38,4.79-1.63,6.87-1.11a4.74,4.74,0,0,1,1.09.4,2.18,2.18,0,0,1,.49.36C54.39,65.18,56,63.32,57.46,62.07Z"/><path class="cls-5" d="M59.39,61.14a1.67,1.67,0,0,1-.39.32.82.82,0,0,0,.16.29.49.49,0,0,0,.73-.07c.36-.55-.17-1.29-.76-1.46-.33-.1-.72.27-.5.57l.16.2.13,0C59,61,59.61,60.87,59.39,61.14Z"/><path class="cls-6" d="M59.39,61.14a1.67,1.67,0,0,1-.39.32.82.82,0,0,0,.16.29.49.49,0,0,0,.73-.07c.36-.55-.17-1.29-.76-1.46-.33-.1-.72.27-.5.57l.16.2.13,0C59,61,59.61,60.87,59.39,61.14Z"/><path class="cls-19" d="M40.45,63.66c.72.61,2.31.8,3.22,1a38.39,38.39,0,0,0,7.61.14A15.67,15.67,0,0,0,54.67,64a16.41,16.41,0,0,0,1.42-1.47,30,30,0,0,1-7.16.89A41.32,41.32,0,0,1,40.6,63a7.18,7.18,0,0,1-.79-.21A6.84,6.84,0,0,0,40.45,63.66Z"/><path class="cls-19" d="M44.12,66.92a8.6,8.6,0,0,0,3.56.73,9.23,9.23,0,0,0,3.59-.78C49.21,66.82,46.15,66.82,44.12,66.92Z"/><path class="cls-7" d="M47.65,61.37a3.94,3.94,0,0,0-2.91-.91c-1.4.22-2.74.73-4.14.94A12,12,0,0,1,36.68,61l-.29,0c-.11,0-.69-.1-.46.17a1.47,1.47,0,0,0,.36.26h0l.16.16a21.15,21.15,0,0,1,2.67,3.36c1.46,2,3.57,4.71,5.92,5.75a6.67,6.67,0,0,0,5.25,0c2.25-1,4.42-3.91,5.88-5.75.2-.25,2.16-2.79,2.74-3.39l.11-.07a1.67,1.67,0,0,0,.39-.32c.23-.27-.35-.18-.46-.17l-.13,0a12.85,12.85,0,0,1-4.08.4c-1.4-.21-2.74-.72-4.14-.94A3.94,3.94,0,0,0,47.65,61.37Zm0,6.29a8.6,8.6,0,0,1-3.56-.73c2-.1,5.09-.1,7.15-.05A9.23,9.23,0,0,1,47.68,67.65Zm4.53-1.25a2.18,2.18,0,0,0-.49-.36,4.74,4.74,0,0,0-1.09-.4c-2.08-.52-5.31-.27-6.87,1.11a24.08,24.08,0,0,1-5.91-4.64c.68.27,1.41.52,2,.69a7.18,7.18,0,0,0,.79.21,41.32,41.32,0,0,0,8.34.38,30,30,0,0,0,7.16-.89c.29-.08.57-.17.86-.27l.51-.16C56,63.32,54.39,65.18,52.21,66.41Z"/></g></g></g></svg>