<svg xmlns="http://www.w3.org/2000/svg" viewBox="0 0 103.69 140.72"><defs><style>.cls-1{isolation:isolate;}.cls-2{fill:none;}.cls-18,.cls-3,.cls-4{fill:#3f2d2b;}.cls-10,.cls-13,.cls-4,.cls-6{opacity:0.5;}.cls-18,.cls-4{mix-blend-mode:multiply;}.cls-10,.cls-20,.cls-5{fill:#fac494;}.cls-6{fill:#ed8c72;}.cls-11,.cls-21,.cls-7{fill:#f24469;}.cls-13,.cls-8,.cls-9{fill:#c61443;}.cls-11,.cls-18,.cls-19,.cls-20,.cls-8{opacity:0.2;}.cls-10,.cls-11,.cls-20,.cls-21{mix-blend-mode:screen;}.cls-12{fill:#533734;}.cls-14{fill:#ff5a5a;opacity:0.15;}.cls-15{fill:#fff;}.cls-16,.cls-19{fill:#8f705e;}.cls-17{fill:#211313;}</style></defs><title>Ресурс 6</title><g class="cls-1"><g id="Слой_2" data-name="Слой 2"><g id="Layer_1" data-name="Layer 1"><path class="cls-2" d="M20,66A205,205,0,0,0,23.75,91.6h.12c2.16-.54,4-.53,5.71-1.18a98.66,98.66,0,0,1-5-10.45A106.37,106.37,0,0,1,20,66Z"/><path class="cls-3" d="M20,66A106.37,106.37,0,0,0,24.53,80a98.66,98.66,0,0,0,5,10.45A7.33,7.33,0,0,0,32,88.9c-2.09-3.75-4.57-8.36-6.32-12.28A121.89,121.89,0,0,1,16.8,45.52c-.05-.35-.1-.7-.14-1.05-.11-2.5-.1-5,0-7.33,0-.08,0-.15-.05-.23-.81,12.45-.9,33.71,4.92,54.83l2.19-.13A205,205,0,0,1,20,66Z"/><path class="cls-3" d="M17,33.61c.12-1.06.27-2.1.45-3.12C17.26,31.51,17.12,32.55,17,33.61Z"/><path class="cls-3" d="M18.83,24.89h0c.13-.41.25-.83.39-1.24q-.28.82-.52,1.64l.12-.39Z"/><path class="cls-3" d="M16.71,37c.05-.88.13-1.75.21-2.6C16.83,35.23,16.76,36.1,16.71,37Z"/><path class="cls-3" d="M33.73,86.88a14.59,14.59,0,0,0,1.13-2,14.85,14.85,0,0,1-2.8,4A12,12,0,0,0,33.73,86.88Z"/><path class="cls-3" d="M22.41,16.23C27.11,9.18,34.21,3.7,42.73,3.12a12.8,12.8,0,0,0-.7,7.62h0v.08a8.1,8.1,0,0,0,.27.9h0A9.07,9.07,0,0,0,43,13.14,14.61,14.61,0,0,0,43.55,15a17.72,17.72,0,0,1-.92-5.13c-.1-3,.7-6,2.85-7.86a15,15,0,0,0-7.85-.36c-8.1,2.07-14.33,11-17.77,20.22a52.21,52.21,0,0,1,2.25-5.15Z"/><path class="cls-3" d="M35.71,82.77c.1-.3.18-.6.26-.91s.13-.51.18-.76l.08-.39c.16-.82.28-1.66.37-2.5-2.16-4.35-4.25-9-6-13.15-2.16-2.45-3.06-4.81-3.35-9.15l-.07-1.09a2.11,2.11,0,0,1-.85.28h0a2.74,2.74,0,0,1-.48,0h-.1a3.88,3.88,0,0,1-.6-.11,2.77,2.77,0,0,1-.56-.22l-.17-.1a3.65,3.65,0,0,1-.36-.24l-.18-.15L23.5,54l-.16-.17c-.11-.13-.22-.26-.33-.4l-.12-.16q-.21-.28-.4-.59l0,0c-.14-.23-.28-.47-.41-.72a50.27,50.27,0,0,0,1.09,7.61c1.61,7.22,5,13.56,8.91,19.77A25.76,25.76,0,0,0,35.26,84c.13-.32.25-.63.36-1Z"/><path class="cls-3" d="M18.21,27q.2-.76.42-1.52C18.49,26,18.34,26.54,18.21,27Z"/><path class="cls-3" d="M19.23,23.62q.28-.84.6-1.69Q19.52,22.78,19.23,23.62Z"/><path class="cls-3" d="M17.82,28.65c.11-.5.23-1,.37-1.52C18.06,27.64,17.94,28.15,17.82,28.65Z"/><path class="cls-3" d="M17.45,30.47c.09-.49.19-1,.3-1.48C17.64,29.49,17.54,30,17.45,30.47Z"/><path class="cls-3" d="M63,85.15c0-.17.08-.34.12-.51,1.9-7.35,6.15-14.21,6.21-22a38.43,38.43,0,0,0-.63-7l0,.23c0,.49-.08.94-.13,1.38,0,.13,0,.26,0,.39q-.06.47-.14.91c0,.12,0,.25-.06.37-.07.37-.15.73-.24,1.08L68,60.3c-.07.26-.15.51-.24.75l-.14.37c-.08.21-.17.41-.26.61l-.15.32c-.13.26-.27.51-.42.76h0c-1.33,2.19-3.48,4.07-6.88,6.91v0c0,.29-.08.58-.12.87,0,.13,0,.26,0,.39-.51,4.68.07,9.5,2.6,13.43l0-.07A7.5,7.5,0,0,0,63,85.15Z"/><path class="cls-4" d="M63,85.15c0-.17.08-.34.12-.51,1.9-7.35,6.15-14.21,6.21-22a38.43,38.43,0,0,0-.63-7l0,.23c0,.49-.08.94-.13,1.38,0,.13,0,.26,0,.39q-.06.47-.14.91c0,.12,0,.25-.06.37-.07.37-.15.73-.24,1.08L68,60.3c-.07.26-.15.51-.24.75l-.14.37c-.08.21-.17.41-.26.61l-.15.32c-.13.26-.27.51-.42.76h0c-1.33,2.19-3.48,4.07-6.88,6.91v0c0,.29-.08.58-.12.87,0,.13,0,.26,0,.39-.51,4.68.07,9.5,2.6,13.43l0-.07A7.5,7.5,0,0,0,63,85.15Z"/><path class="cls-3" d="M36.81,70.68a60.16,60.16,0,0,1-6.21-5.61c1.75,4.13,3.84,8.79,6,13.15A73.21,73.21,0,0,0,36.81,70.68Z"/><path class="cls-4" d="M36.81,70.68a60.16,60.16,0,0,1-6.21-5.61c1.75,4.13,3.84,8.79,6,13.15A73.21,73.21,0,0,0,36.81,70.68Z"/><path class="cls-5" d="M5.25,99.43l.19-.34Z"/><path class="cls-5" d="M95.22,102.72l.19,0,.5-.09.19,0,.47-.08.14,0,.53-.08h0l.42-.05h.11l.23,0h.3s.08,0,.09,0c.29.49.56,1,.81,1.54a16.29,16.29,0,0,0-8-8,51.82,51.82,0,0,1,1.12,7.46Z"/><path class="cls-5" d="M7,97.16l.14.12.13.09.22.14.18.11.29.17.22.12.37.2.23.12.44.22.22.11.53.26.16.08.71.35h0c1.6.77,3.13,1.46,3.35,1.56a63.37,63.37,0,0,0,13,4.13,151.23,151.23,0,0,0,32.43,2.8l1.18,0h0c-1.62-7.78-1-13.44.78-20.45.22-.83.46-1.66.73-2.48-2.53-3.92-3.11-8.75-2.6-13.43a25.24,25.24,0,0,0,.2,7.43A115.71,115.71,0,0,0,34.3,86.05a15.15,15.15,0,0,0,.87-1.79l-.31.63a14.59,14.59,0,0,1-1.13,2,12,12,0,0,1-1.67,2l0,0h0a7.33,7.33,0,0,1-2.43,1.52c-1.73.65-3.55.64-5.71,1.18h-.12l-2.19.13c-5.34.39-11.13,1.43-14.64,5.26,0,0,0,.06,0,.11Zm45-1.84a.19.19,0,0,1,.17.27,6,6,0,0,1-4.18,2.58c-2,.13-3-1.26-4.67-2a.13.13,0,0,1,0-.2c.93-1,2-.38,3.11-.08C48.45,96.41,50.14,95.52,52.07,95.32Z"/><path class="cls-5" d="M5.94,98.28,6.15,98Z"/><path class="cls-5" d="M99.33,104.11c.24.53.47,1.08.67,1.66C99.8,105.19,99.57,104.64,99.33,104.11Z"/><path class="cls-5" d="M36,81.87c-.08.3-.16.61-.26.91C35.8,82.47,35.89,82.17,36,81.87Z"/><path class="cls-5" d="M36.23,80.71l-.08.39Z"/><path class="cls-5" d="M35.26,84h0q.19-.48.35-1C35.51,83.38,35.38,83.69,35.26,84Z"/><path class="cls-5" d="M59.93,70.07c0,.29-.08.58-.12.87C59.85,70.65,59.89,70.36,59.93,70.07Z"/><path class="cls-3" d="M35.71,82.77l-.09.28Z"/><path class="cls-6" d="M35.71,82.77l-.09.28Z"/><path class="cls-3" d="M36.15,81.11c-.06.26-.12.51-.18.76C36,81.62,36.09,81.36,36.15,81.11Z"/><path class="cls-6" d="M36.15,81.11c-.06.26-.12.51-.18.76C36,81.62,36.09,81.36,36.15,81.11Z"/><path class="cls-3" d="M36.23,80.71q.25-1.22.38-2.48v0C36.51,79.06,36.39,79.89,36.23,80.71Z"/><path class="cls-6" d="M36.23,80.71q.25-1.22.38-2.48v0C36.51,79.06,36.39,79.89,36.23,80.71Z"/><path class="cls-3" d="M36.6,78.21v0a69.82,69.82,0,0,0,.23-7.53l0,0A73.21,73.21,0,0,1,36.6,78.21Z"/><path class="cls-4" d="M36.6,78.21v0a69.82,69.82,0,0,0,.23-7.53l0,0A73.21,73.21,0,0,1,36.6,78.21Z"/><path class="cls-6" d="M36.6,78.21v0a69.82,69.82,0,0,0,.23-7.53l0,0A73.21,73.21,0,0,1,36.6,78.21Z"/><path class="cls-3" d="M59.77,71.33c0-.13,0-.26,0-.39C59.8,71.07,59.78,71.2,59.77,71.33Z"/><path class="cls-4" d="M59.77,71.33c0-.13,0-.26,0-.39C59.8,71.07,59.78,71.2,59.77,71.33Z"/><path class="cls-6" d="M59.77,71.33c0-.13,0-.26,0-.39C59.8,71.07,59.78,71.2,59.77,71.33Z"/><path class="cls-3" d="M59.93,70.07v0h0Z"/><path class="cls-4" d="M59.93,70.07v0h0Z"/><path class="cls-6" d="M59.93,70.07v0h0Z"/><path class="cls-5" d="M59.93,70.07v0c-1.63,1.36-3.53,2.94-5.79,4.91a9.28,9.28,0,0,1-12.33,0c-1.89-1.65-3.53-3-5-4.23a69.82,69.82,0,0,1-.23,7.53q-.13,1.26-.38,2.48l-.08.39c-.06.26-.12.51-.18.76s-.17.61-.26.91l-.09.28q-.16.49-.35,1h0l-.11.23a15.15,15.15,0,0,1-.87,1.79A115.71,115.71,0,0,1,60,78.76a25.24,25.24,0,0,1-.2-7.43c0-.13,0-.26,0-.39C59.85,70.65,59.89,70.36,59.93,70.07Z"/><path class="cls-6" d="M59.93,70.07v0c-1.63,1.36-3.53,2.94-5.79,4.91a9.28,9.28,0,0,1-12.33,0c-1.89-1.65-3.53-3-5-4.23a69.82,69.82,0,0,1-.23,7.53q-.13,1.26-.38,2.48l-.08.39c-.06.26-.12.51-.18.76s-.17.61-.26.91l-.09.28q-.16.49-.35,1h0l-.11.23a15.15,15.15,0,0,1-.87,1.79A115.71,115.71,0,0,1,60,78.76a25.24,25.24,0,0,1-.2-7.43c0-.13,0-.26,0-.39C59.85,70.65,59.89,70.36,59.93,70.07Z"/><path class="cls-7" d="M97.78,102.31l.23,0Z"/><path class="cls-7" d="M9.48,98.56l-.22-.11Z"/><path class="cls-7" d="M7,97.16,7,97.11Z"/><path class="cls-7" d="M97.25,102.37l.42-.05Z"/><path class="cls-7" d="M96.1,102.56l.47-.08Z"/><path class="cls-7" d="M95.41,102.69l.5-.09Z"/><path class="cls-7" d="M96.71,102.46l.53-.08Z"/><path class="cls-7" d="M7.3,97.36l-.13-.09Z"/><path class="cls-7" d="M10.17,98.9,10,98.82Z"/><path class="cls-7" d="M101.08,124.47c-1.13-4.42-2.44-8.71-3.93-13-.75-2.15-1.49-4.3-2.11-6.49-.2-.69-.38-1.39-.55-2.09l.74-.14-2.89.58v0a50.93,50.93,0,0,1,0,7.33,50.13,50.13,0,0,1-.78,8.12A39.11,39.11,0,0,1,87.37,131c.24,2,.52,4,.82,5.91q6.88-1.42,14.08-3.49l1.4-.52-.65.24C102.48,130.26,101.82,127.39,101.08,124.47Z"/><path class="cls-7" d="M8.82,98.22l-.23-.12Z"/><path class="cls-7" d="M7.71,97.62l-.18-.11Z"/><path class="cls-7" d="M79.73,138.45q3-.48,6.1-1.08c-.08-1.39-.12-2.69-.12-3.89A16,16,0,0,1,79.73,138.45Z"/><path class="cls-7" d="M8.22,97.9,8,97.78Z"/><path class="cls-7" d="M98.31,102.29s.08,0,.09,0S98.36,102.3,98.31,102.29Z"/><path class="cls-7" d="M98.11,102.29h0Z"/><path class="cls-7" d="M61.36,133.83a21.33,21.33,0,0,1-1.69-2.73,41.49,41.49,0,0,1-18.13-1.18A42.52,42.52,0,0,1,30,125.09c-3.8-1.5-7.52-3.77-8.14-7.9-1.12-7.46,6.85-8.17,12.1-7.55,7.47.88,15,1.33,22.5,1.51,1.76,0,3.51.06,5.27.07q-.49-1.84-.85-3.54l-1.18,0a151.23,151.23,0,0,1-32.43-2.8,63.37,63.37,0,0,1-13-4.13c-.23-.1-1.75-.79-3.35-1.56-5.18,9.53-7,22.69-8.67,34.22,2.48.82,6.18,1.92,10.92,3a94.38,94.38,0,0,0,1.3-13.18s1.49,5,1,13.7a174.93,174.93,0,0,0,55.8,2.6A14.89,14.89,0,0,1,61.36,133.83Z"/><path class="cls-5" d="M95.91,102.6l.19,0Z"/><path class="cls-8" d="M95.91,102.6l.19,0Z"/><path class="cls-5" d="M95.22,102.72l.19,0Z"/><path class="cls-8" d="M95.22,102.72l.19,0Z"/><path class="cls-5" d="M96.57,102.48l.14,0Z"/><path class="cls-8" d="M96.57,102.48l.14,0Z"/><path class="cls-5" d="M98.26,102.29h0Z"/><path class="cls-8" d="M98.26,102.29h0Z"/><path class="cls-5" d="M98,102.29h0Z"/><path class="cls-8" d="M98,102.29h0Z"/><path class="cls-5" d="M97.67,102.32h0Z"/><path class="cls-8" d="M97.67,102.32h0Z"/><path class="cls-5" d="M97.25,102.38h0Z"/><path class="cls-8" d="M97.25,102.38h0Z"/><path class="cls-7" d="M98.31,102.29H98l-.23,0h-.11l-.42.05h0l-.53.08-.14,0-.47.08-.19,0-.5.09-.19,0-.74.14c.17.7.35,1.4.55,2.09.62,2.19,1.37,4.34,2.11,6.49,1.5,4.31,2.81,8.6,3.93,13,.74,2.92,1.4,5.8,1.94,8.66l.65-.24C104,131,101,108.61,100,105.77c-.2-.58-.43-1.13-.67-1.66l-.11-.24c-.25-.54-.52-1.05-.81-1.54C98.4,102.31,98.36,102.3,98.31,102.29Z"/><path class="cls-8" d="M98.31,102.29H98l-.23,0h-.11l-.42.05h0l-.53.08-.14,0-.47.08-.19,0-.5.09-.19,0-.74.14c.17.7.35,1.4.55,2.09.62,2.19,1.37,4.34,2.11,6.49,1.5,4.31,2.81,8.6,3.93,13,.74,2.92,1.4,5.8,1.94,8.66l.65-.24C104,131,101,108.61,100,105.77c-.2-.58-.43-1.13-.67-1.66l-.11-.24c-.25-.54-.52-1.05-.81-1.54C98.4,102.31,98.36,102.3,98.31,102.29Z"/><polygon class="cls-8" points="6.93 97 6.93 97 6.93 97 6.93 97"/><path class="cls-5" d="M7,97.11s-.06-.08,0-.11h0S6.92,97.06,7,97.11Z"/><path class="cls-8" d="M7,97.11s-.06-.08,0-.11h0S6.92,97.06,7,97.11Z"/><path class="cls-5" d="M10,98.82l-.53-.26Z"/><path class="cls-8" d="M10,98.82l-.53-.26Z"/><path class="cls-5" d="M8,97.78l-.29-.17Z"/><path class="cls-8" d="M8,97.78l-.29-.17Z"/><path class="cls-5" d="M10.17,98.9l.71.35h0Z"/><path class="cls-8" d="M10.17,98.9l.71.35h0Z"/><path class="cls-5" d="M9.26,98.44l-.44-.22Z"/><path class="cls-8" d="M9.26,98.44l-.44-.22Z"/><path class="cls-5" d="M7.52,97.51l-.22-.14Z"/><path class="cls-8" d="M7.52,97.51l-.22-.14Z"/><path class="cls-5" d="M8.59,98.1l-.37-.2Z"/><path class="cls-8" d="M8.59,98.1l-.37-.2Z"/><path class="cls-5" d="M7.17,97.28,7,97.16Z"/><path class="cls-8" d="M7.17,97.28,7,97.16Z"/><path class="cls-7" d="M2.22,133.46c1.69-11.52,3.49-24.68,8.67-34.22l-.71-.35L10,98.82l-.53-.26-.22-.11-.44-.22-.23-.12-.37-.2L8,97.78l-.29-.17-.18-.11-.22-.14-.13-.09L7,97.16,7,97.11s-.06-.08,0-.11h0a11.31,11.31,0,0,0-.78,1l-.21.31q-.26.39-.5.81l-.19.34a12.09,12.09,0,0,0-.56,1.23q-.37,1-.67,1.92a50.2,50.2,0,0,0-1.92,10c-.14,1.36-.25,2.72-.35,4.09q-.07,1-.14,2.05A95.78,95.78,0,0,1,0,132.7C.57,132.9,1.31,133.16,2.22,133.46Z"/><path class="cls-8" d="M2.22,133.46c1.69-11.52,3.49-24.68,8.67-34.22l-.71-.35L10,98.82l-.53-.26-.22-.11-.44-.22-.23-.12-.37-.2L8,97.78l-.29-.17-.18-.11-.22-.14-.13-.09L7,97.16,7,97.11s-.06-.08,0-.11h0a11.31,11.31,0,0,0-.78,1l-.21.31q-.26.39-.5.81l-.19.34a12.09,12.09,0,0,0-.56,1.23q-.37,1-.67,1.92a50.2,50.2,0,0,0-1.92,10c-.14,1.36-.25,2.72-.35,4.09q-.07,1-.14,2.05A95.78,95.78,0,0,1,0,132.7C.57,132.9,1.31,133.16,2.22,133.46Z"/><path class="cls-9" d="M85.72,133.48c0,1.2,0,2.5.12,3.89l2.35-.47c-.29-1.87-.58-3.89-.82-5.91A23,23,0,0,1,85.72,133.48Z"/><path class="cls-5" d="M26.73,30.17l0,0q-.05.65-.1,1.35Q26.66,30.84,26.73,30.17Z"/><path class="cls-5" d="M68.11,60,68,60.3Z"/><path class="cls-5" d="M68.41,58.6c0,.12,0,.25-.06.37C68.37,58.84,68.39,58.72,68.41,58.6Z"/><path class="cls-5" d="M68.6,57.29c0,.13,0,.26,0,.39C68.56,57.56,68.58,57.43,68.6,57.29Z"/><path class="cls-5" d="M67.39,62l-.15.32Z"/><path class="cls-5" d="M67.79,61l-.14.37Z"/><path class="cls-5" d="M39.84,65.18h0Z"/><path class="cls-5" d="M56,65.18A1.11,1.11,0,0,1,56,65l-.21,0h0l.11,0A.2.2,0,0,1,56,65.18Z"/><path class="cls-3" d="M26.45,34.12l0-.06q0-1.31.11-2.49C26.54,32.37,26.49,33.21,26.45,34.12Z"/><path class="cls-6" d="M26.45,34.12l0-.06q0-1.31.11-2.49C26.54,32.37,26.49,33.21,26.45,34.12Z"/><path class="cls-5" d="M26.5,34.05A43.26,43.26,0,0,1,39.29,21.43c-.42.2-.81.39-1.16.59-.89.51-1.77,1-2.63,1.44h0A28.2,28.2,0,0,0,28,28.7h0a16.6,16.6,0,0,0-1.23,1.47q-.07.67-.13,1.39Q26.53,32.74,26.5,34.05Z"/><path class="cls-6" d="M26.5,34.05A43.26,43.26,0,0,1,39.29,21.43c-.42.2-.81.39-1.16.59-.89.51-1.77,1-2.63,1.44h0A28.2,28.2,0,0,0,28,28.7h0a16.6,16.6,0,0,0-1.23,1.47q-.07.67-.13,1.39Q26.53,32.74,26.5,34.05Z"/><path class="cls-3" d="M68,60.3q-.11.38-.24.75C67.88,60.81,68,60.56,68,60.3Z"/><path class="cls-4" d="M68,60.3q-.11.38-.24.75C67.88,60.81,68,60.56,68,60.3Z"/><path class="cls-6" d="M68,60.3q-.11.38-.24.75C67.88,60.81,68,60.56,68,60.3Z"/><path class="cls-3" d="M68.55,57.69c0,.31-.09.62-.14.91Q68.49,58.16,68.55,57.69Z"/><path class="cls-4" d="M68.55,57.69c0,.31-.09.62-.14.91Q68.49,58.16,68.55,57.69Z"/><path class="cls-6" d="M68.55,57.69c0,.31-.09.62-.14.91Q68.49,58.16,68.55,57.69Z"/><path class="cls-3" d="M66.82,63.12c.15-.25.29-.5.42-.76-.13.26-.27.51-.42.76Z"/><path class="cls-4" d="M66.82,63.12c.15-.25.29-.5.42-.76-.13.26-.27.51-.42.76Z"/><path class="cls-6" d="M66.82,63.12c.15-.25.29-.5.42-.76-.13.26-.27.51-.42.76Z"/><path class="cls-3" d="M68.35,59c-.07.37-.15.73-.24,1.08C68.2,59.7,68.28,59.34,68.35,59Z"/><path class="cls-4" d="M68.35,59c-.07.37-.15.73-.24,1.08C68.2,59.7,68.28,59.34,68.35,59Z"/><path class="cls-6" d="M68.35,59c-.07.37-.15.73-.24,1.08C68.2,59.7,68.28,59.34,68.35,59Z"/><path class="cls-3" d="M67.65,61.42c-.08.21-.17.41-.26.61C67.48,61.83,67.57,61.63,67.65,61.42Z"/><path class="cls-4" d="M67.65,61.42c-.08.21-.17.41-.26.61C67.48,61.83,67.57,61.63,67.65,61.42Z"/><path class="cls-6" d="M67.65,61.42c-.08.21-.17.41-.26.61C67.48,61.83,67.57,61.63,67.65,61.42Z"/><path class="cls-3" d="M68.72,55.92c0,.49-.08.94-.13,1.38C68.65,56.86,68.69,56.4,68.72,55.92Z"/><path class="cls-4" d="M68.72,55.92c0,.49-.08.94-.13,1.38C68.65,56.86,68.69,56.4,68.72,55.92Z"/><path class="cls-6" d="M68.72,55.92c0,.49-.08.94-.13,1.38C68.65,56.86,68.69,56.4,68.72,55.92Z"/><path class="cls-5" d="M63.8,39.55c-.48-.78-1-1.57-1.54-2.36h0a21.91,21.91,0,0,0-4-.52,38.56,38.56,0,0,1,2.68,3.44A9.87,9.87,0,0,1,63.8,39.55Z"/><path class="cls-6" d="M63.8,39.55c-.48-.78-1-1.57-1.54-2.36h0a21.91,21.91,0,0,0-4-.52,38.56,38.56,0,0,1,2.68,3.44A9.87,9.87,0,0,1,63.8,39.55Z"/><path class="cls-5" d="M64.06,46.64c.27.82.51,1.65.72,2.5l.39.13a1,1,0,0,1,.46-.21A1.71,1.71,0,0,1,66,49a.73.73,0,0,1,.38.11h0a.73.73,0,0,1,.5.8.71.71,0,0,1-.13.32,2.57,2.57,0,0,1,.43,3.19,7.93,7.93,0,0,1-1.28,1.81c.21,1.45.4,2.89.58,4.3.15,1.19.26,2.38.31,3.57.15-.25.29-.5.42-.76l.15-.32c.09-.2.18-.4.26-.61l.14-.37q.13-.36.24-.75l.08-.26c.09-.34.17-.7.24-1.08,0-.12,0-.24.06-.37,0-.29.1-.59.14-.91,0-.13,0-.26,0-.39,0-.44.09-.89.13-1.38l0-.23c-.65-3.73-1.68-7.35-2.54-11.07a5.22,5.22,0,0,1-1.13.82A4.57,4.57,0,0,1,64.06,46.64Z"/><path class="cls-6" d="M64.06,46.64c.27.82.51,1.65.72,2.5l.39.13a1,1,0,0,1,.46-.21A1.71,1.71,0,0,1,66,49a.73.73,0,0,1,.38.11h0a.73.73,0,0,1,.5.8.71.71,0,0,1-.13.32,2.57,2.57,0,0,1,.43,3.19,7.93,7.93,0,0,1-1.28,1.81c.21,1.45.4,2.89.58,4.3.15,1.19.26,2.38.31,3.57.15-.25.29-.5.42-.76l.15-.32c.09-.2.18-.4.26-.61l.14-.37q.13-.36.24-.75l.08-.26c.09-.34.17-.7.24-1.08,0-.12,0-.24.06-.37,0-.29.1-.59.14-.91,0-.13,0-.26,0-.39,0-.44.09-.89.13-1.38l0-.23c-.65-3.73-1.68-7.35-2.54-11.07a5.22,5.22,0,0,1-1.13.82A4.57,4.57,0,0,1,64.06,46.64Z"/><path class="cls-5" d="M60.78,35.19a53.76,53.76,0,0,0-7.5-7.85,49.72,49.72,0,0,1-4.56-4.44,26.17,26.17,0,0,1-3-3.69c1.52,6.18,6.2,10.59,10.52,15.23A18.43,18.43,0,0,1,60.78,35.19Z"/><path class="cls-6" d="M60.78,35.19a53.76,53.76,0,0,0-7.5-7.85,49.72,49.72,0,0,1-4.56-4.44,26.17,26.17,0,0,1-3-3.69c1.52,6.18,6.2,10.59,10.52,15.23A18.43,18.43,0,0,1,60.78,35.19Z"/><path class="cls-5" d="M48,58.62a4.88,4.88,0,0,0,3.4-2.1.15.15,0,0,0-.13-.22c-1.57.17-2.94.89-4.56.45-.89-.24-1.77-.72-2.52.06a.11.11,0,0,0,0,.17C45.58,57.59,46.4,58.72,48,58.62Z"/><path class="cls-6" d="M48,58.62a4.88,4.88,0,0,0,3.4-2.1.15.15,0,0,0-.13-.22c-1.57.17-2.94.89-4.56.45-.89-.24-1.77-.72-2.52.06a.11.11,0,0,0,0,.17C45.58,57.59,46.4,58.72,48,58.62Z"/><path class="cls-5" d="M46.46,95.87c-1.1-.3-2.18-.89-3.11.08a.13.13,0,0,0,0,.2c1.67.77,2.69,2.16,4.67,2a6,6,0,0,0,4.18-2.58.19.19,0,0,0-.17-.27C50.14,95.52,48.45,96.41,46.46,95.87Z"/><path class="cls-6" d="M46.46,95.87c-1.1-.3-2.18-.89-3.11.08a.13.13,0,0,0,0,.2c1.67.77,2.69,2.16,4.67,2a6,6,0,0,0,4.18-2.58.19.19,0,0,0-.17-.27C50.14,95.52,48.45,96.41,46.46,95.87Z"/><path class="cls-5" d="M46.44,55.6a2,2,0,0,0,.32.14.73.73,0,0,0,.37,0h.07a.71.71,0,0,0,.68-.63.73.73,0,0,0-.5-.8h0a.73.73,0,0,0-.38-.11,1.72,1.72,0,0,0-.35,0,.85.85,0,0,0-.57.29.59.59,0,0,0-.08.64A.87.87,0,0,0,46.44,55.6Z"/><path class="cls-10" d="M46.44,55.6a2,2,0,0,0,.32.14.73.73,0,0,0,.37,0h.07a.71.71,0,0,0,.68-.63.73.73,0,0,0-.5-.8h0a.73.73,0,0,0-.38-.11,1.72,1.72,0,0,0-.35,0,.85.85,0,0,0-.57.29.59.59,0,0,0-.08.64A.87.87,0,0,0,46.44,55.6Z"/><path class="cls-5" d="M31.37,49.33a.74.74,0,0,0-.29-.19h0a.73.73,0,0,0-.38-.11,1.71,1.71,0,0,0-.35,0,.85.85,0,0,0-.57.29.59.59,0,0,0-.08.64.68.68,0,0,0,.23.28A4.31,4.31,0,0,1,31.37,49.33Z"/><path class="cls-10" d="M31.37,49.33a.74.74,0,0,0-.29-.19h0a.73.73,0,0,0-.38-.11,1.71,1.71,0,0,0-.35,0,.85.85,0,0,0-.57.29.59.59,0,0,0-.08.64.68.68,0,0,0,.23.28A4.31,4.31,0,0,1,31.37,49.33Z"/><path class="cls-5" d="M66.78,50.26a.71.71,0,0,0,.13-.32.73.73,0,0,0-.5-.8h0A.73.73,0,0,0,66,49a1.71,1.71,0,0,0-.35,0,1,1,0,0,0-.46.21A4.44,4.44,0,0,1,66.78,50.26Z"/><path class="cls-6" d="M66.78,50.26a.71.71,0,0,0,.13-.32.73.73,0,0,0-.5-.8h0A.73.73,0,0,0,66,49a1.71,1.71,0,0,0-.35,0,1,1,0,0,0-.46.21A4.44,4.44,0,0,1,66.78,50.26Z"/><path class="cls-10" d="M66.78,50.26a.71.71,0,0,0,.13-.32.73.73,0,0,0-.5-.8h0A.73.73,0,0,0,66,49a1.71,1.71,0,0,0-.35,0,1,1,0,0,0-.46.21A4.44,4.44,0,0,1,66.78,50.26Z"/><path class="cls-7" d="M61.7,111.22c-1.76,0-3.51,0-5.27-.07-7.52-.19-15-.63-22.5-1.51-5.25-.62-13.23.1-12.1,7.55.62,4.13,4.34,6.4,8.14,7.9a42.52,42.52,0,0,0,11.57,4.83,41.49,41.49,0,0,0,18.13,1.18,15.76,15.76,0,0,1-.91-2.05c0-.13-.61-2-.14-1.48a4.83,4.83,0,0,0,1.19,1,15.84,15.84,0,0,1-.94-2.12c0-.13-.61-2-.14-1.48,3,3.39,5.38-.3,6-3.4a28.37,28.37,0,0,0-1.72-6C62.5,114,62.07,112.6,61.7,111.22Z"/><path class="cls-11" d="M61.7,111.22c-1.76,0-3.51,0-5.27-.07-7.52-.19-15-.63-22.5-1.51-5.25-.62-13.23.1-12.1,7.55.62,4.13,4.34,6.4,8.14,7.9a42.52,42.52,0,0,0,11.57,4.83,41.49,41.49,0,0,0,18.13,1.18,15.76,15.76,0,0,1-.91-2.05c0-.13-.61-2-.14-1.48a4.83,4.83,0,0,0,1.19,1,15.84,15.84,0,0,1-.94-2.12c0-.13-.61-2-.14-1.48,3,3.39,5.38-.3,6-3.4a28.37,28.37,0,0,0-1.72-6C62.5,114,62.07,112.6,61.7,111.22Z"/><path class="cls-12" d="M20.79,19.58c.42.19.86.38,1.3.55a58.27,58.27,0,0,0,7.41,2.24l-.29.34a32,32,0,0,1,2.23-2.31,37.8,37.8,0,0,0-5.1,10.3l.07-.11.3-.4,0,0A16.6,16.6,0,0,1,28,28.7l-.81-.25a41.13,41.13,0,0,1,2.9-5.94c1.8.4,3.62.72,5.45,1,.86-.46,1.74-.93,2.63-1.44.34-.2.74-.39,1.16-.59,1.7-.81,3.94-1.67,6.09-2.7l.31.47a26.17,26.17,0,0,0,3,3.69A58.45,58.45,0,0,0,58,30.06a67.52,67.52,0,0,1-8.36-6.23,82.29,82.29,0,0,0,17.42-3.28A21,21,0,0,1,72.27,30c-2.09.57-4.2,1.06-6.33,1.46l-1.81.31c1.18-.21-1.19.18-1.71.23l-1.67.14a30.37,30.37,0,0,1,7.87,10.63,35.71,35.71,0,0,1,2.58,8.93,46.65,46.65,0,0,1,.87,7.12A9.5,9.5,0,0,1,71.82,61l.08-.33c0,.15,0,.3-.08.44.54-2.13,1-4.29,1.36-6.46a64.77,64.77,0,0,0,.91-10.53,54.94,54.94,0,0,0-.94-10.51c-1.07-5.63-3.09-11.46-8-14.82a13.84,13.84,0,0,1,2.52,1.57,91.67,91.67,0,0,0,10.21-3.81,49.64,49.64,0,0,1,4.2,9.86l-1.84.92-.24.12c-1,.38-2,.74-2.94,1.08-.81.28-1.63.54-2.45.79.06.14.13.26.19.4a35.29,35.29,0,0,1,2.63,14c0,1.59-.08,3.16-.22,4.71a61.87,61.87,0,0,1-3.73,15.61q-1,2.83-2,5.68a1.8,1.8,0,0,1-.17.47C70,73.78,68.82,77.36,67.71,81,66,86.45,64,92.06,63.7,97.85q-.05,1.15,0,2.26c.16,5.22,1.76,9.89,3.76,14.79a20,20,0,0,1,1.61,6.93,11.07,11.07,0,0,1-1.91,6.65,3.38,3.38,0,0,1-2,1.48,4.26,4.26,0,0,1-2.61-.52l.11.16-.11,0a6.62,6.62,0,0,0,2,2.13c4.29,3.1,9-.56,11.36-4.25a13.4,13.4,0,0,0,2.21-7.72c0-4.28-1.82-8.55-3.22-12.9A40.39,40.39,0,0,1,73,95.07c0-.54,0-1.08,0-1.62.27-9.94,4.25-19,7.07-28.34a84.45,84.45,0,0,0,4-23.66,58.43,58.43,0,0,0-.47-8.05,1.81,1.81,0,0,1,0-.31,1.49,1.49,0,0,1,.08-.35h0v-.05h0s0,0,0-.06c-1.68-8-4.6-15.8-9.83-21.91a26.23,26.23,0,0,0-7.36-6.05A37.56,37.56,0,0,0,53.95.18a12.26,12.26,0,0,0-6.46.56,7.53,7.53,0,0,0-2,1.27c-2.15,1.89-2.94,4.83-2.85,7.86A17.72,17.72,0,0,0,43.55,15,14.61,14.61,0,0,1,43,13.14a9.07,9.07,0,0,1-.66-1.43h0a8.1,8.1,0,0,1-.27-.9v-.08h0a12.8,12.8,0,0,1,.7-7.62c-8.52.58-15.63,6.06-20.32,13.12l-.3.48a52.21,52.21,0,0,0-2.25,5.15l0,.07q-.32.84-.6,1.69v0c-.14.42-.27.83-.39,1.24A54,54,0,0,1,20.79,19.58Z"/><path class="cls-12" d="M16.66,44.46c0,.35.09.7.14,1.05A121.89,121.89,0,0,0,25.7,76.62c1.75,3.92,4.23,8.53,6.32,12.28h0l0,0a14.85,14.85,0,0,0,2.8-4l.31-.63.11-.23h0A25.76,25.76,0,0,1,32,79.29c-3.9-6.22-7.29-12.55-8.91-19.77a50.27,50.27,0,0,1-1.09-7.61,20.45,20.45,0,0,1-1.9-5.79c-.34-2.2-.72-5,1.55-6.11a31.82,31.82,0,0,1,3.82-12.12c-.5-.18-1-.34-1.5-.53s-1.22-.47-1.82-.71l-.53-.28-2.84-1.47-.12.39-.07.24q-.23.77-.42,1.52l0,.08c-.13.51-.25,1-.37,1.52l-.07.34c-.11.5-.21,1-.3,1.48h0c-.18,1-.33,2.05-.45,3.12,0,.25,0,.51-.07.77-.09.86-.16,1.72-.21,2.6,0,.05,0,.11,0,.16C16.56,39.51,16.56,42,16.66,44.46Z"/><path class="cls-12" d="M27.37,25l-.29.42Z"/><path class="cls-12" d="M26.39,26.44l-.17.28Z"/><path class="cls-12" d="M28.08,24.07l.38-.49Z"/><path class="cls-3" d="M63,85.15a7.5,7.5,0,0,1-.65-.46l0,.07c.18.28.36.55.56.82Z"/><path class="cls-4" d="M63,85.15a7.5,7.5,0,0,1-.65-.46l0,.07c.18.28.36.55.56.82Z"/><path class="cls-6" d="M63,85.15a7.5,7.5,0,0,1-.65-.46l0,.07c.18.28.36.55.56.82Z"/><path class="cls-5" d="M62.93,85.58c-.2-.27-.38-.54-.56-.82-.27.82-.52,1.65-.73,2.48-1.81,7-2.4,12.66-.78,20.45l1.14-.05A57.42,57.42,0,0,1,62.93,85.58Z"/><path class="cls-6" d="M62.93,85.58c-.2-.27-.38-.54-.56-.82-.27.82-.52,1.65-.73,2.48-1.81,7-2.4,12.66-.78,20.45l1.14-.05A57.42,57.42,0,0,1,62.93,85.58Z"/><path class="cls-5" d="M62,107.63l-1.14.05h0l1.14,0Z"/><path class="cls-13" d="M62,107.63l-1.14.05h0l1.14,0Z"/><path class="cls-7" d="M91.55,118.76a50.13,50.13,0,0,0,.78-8.12c-.06.81-.11,1.63-.21,2.44v0h0c-.12,1-.27,2-.45,3.05a38.27,38.27,0,0,1-4.51,12.78q.1,1,.22,2A39.11,39.11,0,0,0,91.55,118.76Z"/><path class="cls-13" d="M91.55,118.76a50.13,50.13,0,0,0,.78-8.12c-.06.81-.11,1.63-.21,2.44v0h0c-.12,1-.27,2-.45,3.05a38.27,38.27,0,0,1-4.51,12.78q.1,1,.22,2A39.11,39.11,0,0,0,91.55,118.76Z"/><path class="cls-7" d="M61.7,111.22h1q-.4-1.77-.68-3.58l-1.14,0Q61.21,109.38,61.7,111.22Z"/><path class="cls-13" d="M61.7,111.22h1q-.4-1.77-.68-3.58l-1.14,0Q61.21,109.38,61.7,111.22Z"/><path class="cls-7" d="M85.72,133.48c0-.9,0-1.75.06-2.54a16.16,16.16,0,0,1-5.45,4.67c-.08.06-.15.14-.23.2a3,3,0,0,1-1,.37,14.64,14.64,0,0,1-4.48,1,15.21,15.21,0,0,1-13.11-5.92l-.28-.41-.2,0c-.44.09-.88.15-1.32.23a21.33,21.33,0,0,0,1.69,2.73,14.89,14.89,0,0,0,9.89,5.77q4.16-.46,8.49-1.15A16,16,0,0,0,85.72,133.48Z"/><path class="cls-13" d="M85.72,133.48c0-.9,0-1.75.06-2.54a16.16,16.16,0,0,1-5.45,4.67c-.08.06-.15.14-.23.2a3,3,0,0,1-1,.37,14.64,14.64,0,0,1-4.48,1,15.21,15.21,0,0,1-13.11-5.92l-.28-.41-.2,0c-.44.09-.88.15-1.32.23a21.33,21.33,0,0,0,1.69,2.73,14.89,14.89,0,0,0,9.89,5.77q4.16-.46,8.49-1.15A16,16,0,0,0,85.72,133.48Z"/><path class="cls-9" d="M85.72,133.48A23,23,0,0,0,87.37,131q-.12-1-.22-2a22.45,22.45,0,0,1-1.37,2C85.74,131.74,85.72,132.58,85.72,133.48Z"/><path class="cls-13" d="M85.72,133.48A23,23,0,0,0,87.37,131q-.12-1-.22-2a22.45,22.45,0,0,1-1.37,2C85.74,131.74,85.72,132.58,85.72,133.48Z"/><path class="cls-7" d="M61.7,111.22c.37,1.38.8,2.82,1.3,4.36a28.37,28.37,0,0,1,1.72,6,8.42,8.42,0,0,0,.13-.89c.24-2.85-1-5.07-1.74-7.7q-.23-.87-.43-1.76Z"/><path class="cls-11" d="M61.7,111.22c.37,1.38.8,2.82,1.3,4.36a28.37,28.37,0,0,1,1.72,6,8.42,8.42,0,0,0,.13-.89c.24-2.85-1-5.07-1.74-7.7q-.23-.87-.43-1.76Z"/><path class="cls-13" d="M61.7,111.22c.37,1.38.8,2.82,1.3,4.36a28.37,28.37,0,0,1,1.72,6,8.42,8.42,0,0,0,.13-.89c.24-2.85-1-5.07-1.74-7.7q-.23-.87-.43-1.76Z"/><path class="cls-7" d="M58.77,129a15.76,15.76,0,0,0,.91,2.05c.44-.07.88-.14,1.32-.23l.2,0a20.89,20.89,0,0,1-1.37-2.25,4.83,4.83,0,0,1-1.19-1C58.16,127,58.72,128.92,58.77,129Z"/><path class="cls-11" d="M58.77,129a15.76,15.76,0,0,0,.91,2.05c.44-.07.88-.14,1.32-.23l.2,0a20.89,20.89,0,0,1-1.37-2.25,4.83,4.83,0,0,1-1.19-1C58.16,127,58.72,128.92,58.77,129Z"/><path class="cls-13" d="M58.77,129a15.76,15.76,0,0,0,.91,2.05c.44-.07.88-.14,1.32-.23l.2,0a20.89,20.89,0,0,1-1.37-2.25,4.83,4.83,0,0,1-1.19-1C58.16,127,58.72,128.92,58.77,129Z"/><path class="cls-3" d="M21.79,40a4.09,4.09,0,0,1,3.54.09,5.37,5.37,0,0,1,1.16.8c-.06-2.53-.06-4.78,0-6.79l0,.06c0-.9.09-1.75.15-2.56q0-.7.1-1.35l-.3.4-.07.11a37.8,37.8,0,0,1,5.1-10.3,32,32,0,0,0-2.23,2.31c-.25.29-.5.57-.74.86l-.38.49c-.24.31-.49.62-.71.94l-.29.42c-.24.34-.47.68-.69,1l-.17.28c-.24.39-.48.77-.69,1.16h0A31.81,31.81,0,0,0,21.7,40Z"/><path class="cls-5" d="M26.29,55.11a2.71,2.71,0,0,1-.48,0A2.74,2.74,0,0,0,26.29,55.11Z"/><path class="cls-5" d="M23.83,54.29c-.11-.1-.22-.2-.33-.31Z"/><path class="cls-5" d="M25.11,55a3.88,3.88,0,0,0,.6.11A3.75,3.75,0,0,1,25.11,55Z"/><path class="cls-5" d="M22.88,53.25q-.21-.28-.4-.59Q22.68,53,22.88,53.25Z"/><path class="cls-5" d="M22.46,52.63a15.06,15.06,0,0,1-1.14-2.33,8.15,8.15,0,0,0,2.92,2.07,5.61,5.61,0,0,0,2.88.42c0,.79.06,1.77.09,2a2.14,2.14,0,0,1-.9.32,2.11,2.11,0,0,0,.85-.28l.07,1.09c.3,4.34,1.19,6.7,3.35,9.15a60.16,60.16,0,0,0,6.21,5.61l0,0c1.45,1.21,3.09,2.58,5,4.23a9.28,9.28,0,0,0,12.33,0c2.26-2,4.16-3.54,5.79-4.91h0c3.4-2.84,5.55-4.71,6.88-6.91,0-1.19-.15-2.38-.31-3.57-.18-1.41-.37-2.85-.58-4.3A8.35,8.35,0,0,1,61.15,58,5.7,5.7,0,0,1,59,57.71c-2.78-.31-4.56-3-3.19-5.54,1.27-2.36,4.88-3.33,7.4-3.26a6.15,6.15,0,0,1,1.53.24c-.21-.85-.45-1.68-.72-2.5a4.74,4.74,0,0,1-2.59,1.11c-1.6.16-4.09-.47-4.87-1.82a1.76,1.76,0,0,1,.3-1.65,7.41,7.41,0,0,0-.67,1,.27.27,0,0,1-.37.15h0l0,0a.45.45,0,0,1-.11-.55,4.1,4.1,0,0,1,.67-1.63,5.19,5.19,0,0,1,1-1.11A5.34,5.34,0,0,1,59,41a11.73,11.73,0,0,1,1.92-.86,38.56,38.56,0,0,0-2.68-3.44c-1.94-.08-3.59,0-4.65-.09-1.68-.18-1.87-2.3-.15-2.26,1.07,0,2,.07,2.79.12-4.33-4.64-9-9.06-10.52-15.23l-.31-.47c-2.15,1-4.38,1.89-6.09,2.7A43.26,43.26,0,0,0,26.5,34.05c-.06,2-.06,4.27,0,6.79a5.37,5.37,0,0,0-1.16-.8A4.09,4.09,0,0,0,21.79,40l-.09,0c-2.26,1.13-1.89,3.92-1.55,6.11a20.45,20.45,0,0,0,1.9,5.79C22.18,52.16,22.32,52.4,22.46,52.63ZM35.54,58a8.69,8.69,0,0,1-6.06-4.51,2.57,2.57,0,0,1,.4-3.16.68.68,0,0,1-.23-.28.59.59,0,0,1,.08-.64.85.85,0,0,1,.57-.29,1.71,1.71,0,0,1,.35,0,.73.73,0,0,1,.38.11h0a.74.74,0,0,1,.29.19,6.1,6.1,0,0,1,2.07-.43c2.52-.07,6.13.9,7.4,3.26,1.37,2.54-.41,5.23-3.19,5.54A5.7,5.7,0,0,1,35.54,58ZM48.29,74.49a4.06,4.06,0,0,1-3-.45A1.53,1.53,0,0,1,45,71.68a3.31,3.31,0,0,1,2.33-.79,7.4,7.4,0,0,1,3.23.24,1.37,1.37,0,0,1,.76,1C51.67,73.8,49.48,74.35,48.29,74.49Zm4-11.39.21.1c1.2.56,2.42,1.09,3.68,1.56a.32.32,0,0,1,.45-.05c.16.07.25.34.1.7-.23.57-.71.6-.76,0a.86.86,0,0,1,0-.1,3.91,3.91,0,0,0-.62-.11,8.63,8.63,0,0,0-1.93.71c-1.06.57-2.48,2-3.66,2.36a6.44,6.44,0,0,1-3.69.16,11.58,11.58,0,0,1-2.61-1.37c-.84-.5-1.71-1.13-2.64-1.6a5.74,5.74,0,0,0-.6.13c-.1,0-.29.09-.47.13-.16.42-.56.31-.71-.24-.1-.38,0-.64.19-.68a.32.32,0,0,1,.43.09l.54-.08a7.14,7.14,0,0,0,.88-.33,12.12,12.12,0,0,0,1.51-.78,8,8,0,0,1,3.06-1.5,3.59,3.59,0,0,1,2.32.6,5.08,5.08,0,0,1,1-.54C50.16,61.93,51.29,62.61,52.3,63.09ZM46,54.52a.85.85,0,0,1,.57-.29,1.72,1.72,0,0,1,.35,0,.73.73,0,0,1,.38.11h0a.73.73,0,0,1,.5.8.71.71,0,0,1-.68.63h-.07a.73.73,0,0,1-.37,0,2,2,0,0,1-.32-.14.87.87,0,0,1-.48-.43A.59.59,0,0,1,46,54.52Zm-1.85,2.28c.76-.79,1.63-.31,2.52-.06,1.61.44,3-.28,4.56-.45a.15.15,0,0,1,.13.22,4.88,4.88,0,0,1-3.4,2.1c-1.61.1-2.43-1-3.79-1.65A.11.11,0,0,1,44.19,56.81ZM30.74,37.11c3.52-1.81,4-2.61,11.41-2.76,1.72,0,1.52,2.08-.16,2.26s-5-.27-8.68.56C32.33,37.4,26,39.56,30.74,37.11Zm-1.84,6a1.23,1.23,0,0,0,1.38.26,2.31,2.31,0,0,1,.06-2.52c1.45-2,5.35-1.41,8.13.14a5.34,5.34,0,0,1,1.64,1.16,5.19,5.19,0,0,1,.95,1.11A4.58,4.58,0,0,1,42,44.89c.1.31-.12.49-.42.54a.23.23,0,0,1-.16,0h-.09a.46.46,0,0,1,0-.06.4.4,0,0,1-.1-.12c-.1-.18-.21-.35-.32-.51a1.56,1.56,0,0,1-.05,1.17c-.78,1.34-3.28,2-4.87,1.82a4.72,4.72,0,0,1-3.6-2.31,5.27,5.27,0,0,1-1.22-.92,2.18,2.18,0,0,1-2.41-1.25C28.69,43.15,28.81,43,28.9,43.09Zm-7-.81a2,2,0,0,1,2.8.74,6.48,6.48,0,0,1,1.16,3.22,4.1,4.1,0,0,1-1,3.15c-.07.1-.23,0-.22-.11A9.86,9.86,0,0,0,24.32,46a4.34,4.34,0,0,0-.79-1.34c0,.16,0,.31,0,.47a1.21,1.21,0,0,1-2.28.72A2.77,2.77,0,0,1,21.93,42.28Z"/><path class="cls-5" d="M24.38,54.69a3.62,3.62,0,0,1-.36-.24A3.65,3.65,0,0,0,24.38,54.69Z"/><path class="cls-5" d="M25.11,55a2.77,2.77,0,0,1-.56-.22A2.77,2.77,0,0,0,25.11,55Z"/><path class="cls-5" d="M23.34,53.81q-.17-.19-.33-.4C23.12,53.55,23.23,53.69,23.34,53.81Z"/><path class="cls-3" d="M25.81,55.12h0Z"/><path class="cls-6" d="M25.81,55.12h0Z"/><path class="cls-3" d="M26.32,55.11h0Z"/><path class="cls-6" d="M26.32,55.11h0Z"/><path class="cls-3" d="M23,53.41l-.12-.16Z"/><path class="cls-6" d="M23,53.41l-.12-.16Z"/><path class="cls-3" d="M22.49,52.66l0,0Z"/><path class="cls-6" d="M22.49,52.66l0,0Z"/><path class="cls-3" d="M24.55,54.79l-.17-.1Z"/><path class="cls-6" d="M24.55,54.79l-.17-.1Z"/><path class="cls-3" d="M24,54.45l-.18-.15Z"/><path class="cls-6" d="M24,54.45l-.18-.15Z"/><path class="cls-3" d="M23.5,54l-.16-.17Z"/><path class="cls-6" d="M23.5,54l-.16-.17Z"/><path class="cls-5" d="M27.21,54.79c0-.23-.07-1.21-.09-2a5.61,5.61,0,0,1-2.88-.42,8.15,8.15,0,0,1-2.92-2.07,15.06,15.06,0,0,0,1.14,2.33l0,0q.19.31.4.59l.12.16q.16.21.33.4l.16.17c.11.11.22.21.33.31l.18.15a3.62,3.62,0,0,0,.36.24l.17.1a2.77,2.77,0,0,0,.56.22,3.75,3.75,0,0,0,.6.11h.1a2.71,2.71,0,0,0,.48,0h0A2.14,2.14,0,0,0,27.21,54.79Z"/><path class="cls-6" d="M27.21,54.79c0-.23-.07-1.21-.09-2a5.61,5.61,0,0,1-2.88-.42,8.15,8.15,0,0,1-2.92-2.07,15.06,15.06,0,0,0,1.14,2.33l0,0q.19.31.4.59l.12.16q.16.21.33.4l.16.17c.11.11.22.21.33.31l.18.15a3.62,3.62,0,0,0,.36.24l.17.1a2.77,2.77,0,0,0,.56.22,3.75,3.75,0,0,0,.6.11h.1a2.71,2.71,0,0,0,.48,0h0A2.14,2.14,0,0,0,27.21,54.79Z"/><path class="cls-5" d="M23.56,45.1c0-.16,0-.31,0-.47A4.34,4.34,0,0,1,24.32,46a9.86,9.86,0,0,1,.38,3.31c0,.13.15.2.22.11a4.1,4.1,0,0,0,1-3.15A6.48,6.48,0,0,0,24.73,43a2,2,0,0,0-2.8-.74,2.77,2.77,0,0,0-.65,3.54A1.21,1.21,0,0,0,23.56,45.1Z"/><path class="cls-6" d="M23.56,45.1c0-.16,0-.31,0-.47A4.34,4.34,0,0,1,24.32,46a9.86,9.86,0,0,1,.38,3.31c0,.13.15.2.22.11a4.1,4.1,0,0,0,1-3.15A6.48,6.48,0,0,0,24.73,43a2,2,0,0,0-2.8-.74,2.77,2.77,0,0,0-.65,3.54A1.21,1.21,0,0,0,23.56,45.1Z"/><path class="cls-5" d="M40.84,52.16c-1.27-2.36-4.88-3.33-7.4-3.26a6.1,6.1,0,0,0-2.07.43.72.72,0,0,1,.21.61.71.71,0,0,1-.68.63h-.07a.73.73,0,0,1-.37,0,2,2,0,0,1-.32-.14,1.43,1.43,0,0,1-.25-.15,2.57,2.57,0,0,0-.4,3.16A8.69,8.69,0,0,0,35.54,58a5.7,5.7,0,0,0,2.11-.25C40.43,57.39,42.21,54.7,40.84,52.16Z"/><path class="cls-14" d="M40.84,52.16c-1.27-2.36-4.88-3.33-7.4-3.26a6.1,6.1,0,0,0-2.07.43.72.72,0,0,1,.21.61.71.71,0,0,1-.68.63h-.07a.73.73,0,0,1-.37,0,2,2,0,0,1-.32-.14,1.43,1.43,0,0,1-.25-.15,2.57,2.57,0,0,0-.4,3.16A8.69,8.69,0,0,0,35.54,58a5.7,5.7,0,0,0,2.11-.25C40.43,57.39,42.21,54.7,40.84,52.16Z"/><path class="cls-5" d="M30.46,50.57a.73.73,0,0,0,.37,0h.07a.71.71,0,0,0,.68-.63.72.72,0,0,0-.21-.61,4.31,4.31,0,0,0-1.49,1,1.43,1.43,0,0,0,.25.15A2,2,0,0,0,30.46,50.57Z"/><path class="cls-10" d="M30.46,50.57a.73.73,0,0,0,.37,0h.07a.71.71,0,0,0,.68-.63.72.72,0,0,0-.21-.61,4.31,4.31,0,0,0-1.49,1,1.43,1.43,0,0,0,.25.15A2,2,0,0,0,30.46,50.57Z"/><path class="cls-14" d="M30.46,50.57a.73.73,0,0,0,.37,0h.07a.71.71,0,0,0,.68-.63.72.72,0,0,0-.21-.61,4.31,4.31,0,0,0-1.49,1,1.43,1.43,0,0,0,.25.15A2,2,0,0,0,30.46,50.57Z"/><path class="cls-5" d="M60.9,40.11A11.73,11.73,0,0,0,59,41a5,5,0,0,1,2.2-.44Z"/><path class="cls-6" d="M60.9,40.11A11.73,11.73,0,0,0,59,41a5,5,0,0,1,2.2-.44Z"/><path class="cls-5" d="M57.34,42.13a5.19,5.19,0,0,0-1,1.11,4.1,4.1,0,0,0-.67,1.63A7.26,7.26,0,0,1,57.34,42.13Z"/><path class="cls-6" d="M57.34,42.13a5.19,5.19,0,0,0-1,1.11,4.1,4.1,0,0,0-.67,1.63A7.26,7.26,0,0,1,57.34,42.13Z"/><path class="cls-5" d="M55.85,45.43h0Z"/><path class="cls-6" d="M55.85,45.43h0Z"/><path class="cls-5" d="M65.24,45.14c0,.1-.11.2-.17.3a5.22,5.22,0,0,0,1.13-.82l0-.12a4.74,4.74,0,0,1-.92-.24A1,1,0,0,1,65.24,45.14Z"/><path class="cls-6" d="M65.24,45.14c0,.1-.11.2-.17.3a5.22,5.22,0,0,0,1.13-.82l0-.12a4.74,4.74,0,0,1-.92-.24A1,1,0,0,1,65.24,45.14Z"/><path class="cls-6" d="M65.24,45.14c0,.1-.11.2-.17.3a5.22,5.22,0,0,0,1.13-.82l0-.12a4.74,4.74,0,0,1-.92-.24A1,1,0,0,1,65.24,45.14Z"/><path class="cls-5" d="M61.18,40.53h.25A7.41,7.41,0,0,1,65.18,42c-.43-.81-.88-1.63-1.38-2.45a9.87,9.87,0,0,0-2.9.55Z"/><path class="cls-6" d="M61.18,40.53h.25A7.41,7.41,0,0,1,65.18,42c-.43-.81-.88-1.63-1.38-2.45a9.87,9.87,0,0,0-2.9.55Z"/><path class="cls-6" d="M61.18,40.53h.25A7.41,7.41,0,0,1,65.18,42c-.43-.81-.88-1.63-1.38-2.45a9.87,9.87,0,0,0-2.9.55Z"/><path class="cls-15" d="M65.07,45.44c.06-.1.12-.2.17-.3a1,1,0,0,0,0-.88,6.53,6.53,0,0,1-.94-.42,11.83,11.83,0,0,0-2.12-.93,4,4,0,0,1,1,.81,2,2,0,0,1,.54,2c-.53,1.66-3.32,2.19-4.7,1.46a2.35,2.35,0,0,1-.58-.44,2.51,2.51,0,0,1-.56-2.14,2.36,2.36,0,0,1,1-1.73,4.49,4.49,0,0,0-2,1.47,1.76,1.76,0,0,0-.3,1.65c.78,1.34,3.28,2,4.87,1.82a4.74,4.74,0,0,0,2.59-1.11A4.57,4.57,0,0,0,65.07,45.44Z"/><path class="cls-16" d="M57.91,44.55a2.51,2.51,0,0,0,.56,2.14,2.35,2.35,0,0,0,.58.44c1.39.74,4.18.2,4.7-1.46a2,2,0,0,0-.54-2,4,4,0,0,0-1-.81,5.1,5.1,0,0,0-3.32-.09A2.36,2.36,0,0,0,57.91,44.55Zm4.83.37a1.25,1.25,0,0,1,.08.49.57.57,0,0,1-.4.49c0,.06-.05.11-.1.17a1.17,1.17,0,0,1-.28.24,2.59,2.59,0,0,1-2.59.25,1.58,1.58,0,0,1-.39-.29,1.84,1.84,0,0,1-.37-1.33.41.41,0,0,1,.08-.74C59.34,42.2,62.75,43.06,62.75,44.91Z"/><path class="cls-3" d="M58.94,44.16a.42.42,0,1,1,0,.83.46.46,0,0,1-.24-.07,1.84,1.84,0,0,0,.37,1.33,1.58,1.58,0,0,0,.39.29,2.59,2.59,0,0,0,2.59-.25,1.17,1.17,0,0,0,.28-.24c0-.06.06-.11.1-.17a.6.6,0,0,1-.8-.34,1.68,1.68,0,0,1,0-1.22c.08-.17.33-.18.49-.12a1.11,1.11,0,0,1,.6.7c0-1.85-3.41-2.71-4-.72A.49.49,0,0,1,58.94,44.16Z"/><path class="cls-17" d="M61.18,40.53A5,5,0,0,0,59,41a5.34,5.34,0,0,0-1.64,1.16,7.26,7.26,0,0,0-1.62,2.73.45.45,0,0,0,.11.55h0a.27.27,0,0,0,.37-.15,7.41,7.41,0,0,1,.67-1,4.49,4.49,0,0,1,2-1.47,5.1,5.1,0,0,1,3.32.09,11.83,11.83,0,0,1,2.12.93,6.53,6.53,0,0,0,.94.42,4.74,4.74,0,0,0,.92.24c-.08-.34-.16-.68-.24-1-.23-.49-.49-1-.75-1.47a7.41,7.41,0,0,0-3.75-1.48Z"/><path class="cls-15" d="M62.15,44.21c-.16-.06-.41-.06-.49.12a1.68,1.68,0,0,0,0,1.22.6.6,0,0,0,.8.34.57.57,0,0,0,.4-.49,1.25,1.25,0,0,0-.08-.49A1.11,1.11,0,0,0,62.15,44.21Z"/><path class="cls-15" d="M58.94,44.16a.49.49,0,0,0-.16,0,.41.41,0,0,0-.08.74.46.46,0,0,0,.24.07A.42.42,0,1,0,58.94,44.16Z"/><path class="cls-5" d="M63.25,48.9c-2.52-.07-6.13.9-7.4,3.26-1.37,2.54.41,5.23,3.19,5.54a5.7,5.7,0,0,0,2.11.25,8.35,8.35,0,0,0,4.78-2.71c-.3-2-.66-4.1-1.16-6.1A6.15,6.15,0,0,0,63.25,48.9Z"/><path class="cls-14" d="M63.25,48.9c-2.52-.07-6.13.9-7.4,3.26-1.37,2.54.41,5.23,3.19,5.54a5.7,5.7,0,0,0,2.11.25,8.35,8.35,0,0,0,4.78-2.71c-.3-2-.66-4.1-1.16-6.1A6.15,6.15,0,0,0,63.25,48.9Z"/><path class="cls-5" d="M66.78,50.26a.72.72,0,0,1-.55.31h-.07a.73.73,0,0,1-.37,0,2,2,0,0,1-.32-.14A.87.87,0,0,1,65,50a.59.59,0,0,1,.08-.64.57.57,0,0,1,.11-.09l-.39-.13c.5,2,.86,4.06,1.16,6.1a7.93,7.93,0,0,0,1.28-1.81A2.57,2.57,0,0,0,66.78,50.26Z"/><path class="cls-6" d="M66.78,50.26a.72.72,0,0,1-.55.31h-.07a.73.73,0,0,1-.37,0,2,2,0,0,1-.32-.14A.87.87,0,0,1,65,50a.59.59,0,0,1,.08-.64.57.57,0,0,1,.11-.09l-.39-.13c.5,2,.86,4.06,1.16,6.1a7.93,7.93,0,0,0,1.28-1.81A2.57,2.57,0,0,0,66.78,50.26Z"/><path class="cls-14" d="M66.78,50.26a.72.72,0,0,1-.55.31h-.07a.73.73,0,0,1-.37,0,2,2,0,0,1-.32-.14A.87.87,0,0,1,65,50a.59.59,0,0,1,.08-.64.57.57,0,0,1,.11-.09l-.39-.13c.5,2,.86,4.06,1.16,6.1a7.93,7.93,0,0,0,1.28-1.81A2.57,2.57,0,0,0,66.78,50.26Z"/><path class="cls-5" d="M65,50a.87.87,0,0,0,.48.43,2,2,0,0,0,.32.14.73.73,0,0,0,.37,0h.07a.72.72,0,0,0,.55-.31,4.44,4.44,0,0,0-1.61-1,.57.57,0,0,0-.11.09A.59.59,0,0,0,65,50Z"/><path class="cls-6" d="M65,50a.87.87,0,0,0,.48.43,2,2,0,0,0,.32.14.73.73,0,0,0,.37,0h.07a.72.72,0,0,0,.55-.31,4.44,4.44,0,0,0-1.61-1,.57.57,0,0,0-.11.09A.59.59,0,0,0,65,50Z"/><path class="cls-10" d="M65,50a.87.87,0,0,0,.48.43,2,2,0,0,0,.32.14.73.73,0,0,0,.37,0h.07a.72.72,0,0,0,.55-.31,4.44,4.44,0,0,0-1.61-1,.57.57,0,0,0-.11.09A.59.59,0,0,0,65,50Z"/><path class="cls-14" d="M65,50a.87.87,0,0,0,.48.43,2,2,0,0,0,.32.14.73.73,0,0,0,.37,0h.07a.72.72,0,0,0,.55-.31,4.44,4.44,0,0,0-1.61-1,.57.57,0,0,0-.11.09A.59.59,0,0,0,65,50Z"/><path class="cls-3" d="M83.64,33.4a58.43,58.43,0,0,1,.47,8.05,84.45,84.45,0,0,1-4,23.66c-2.82,9.38-6.8,18.4-7.07,28.34,0,.54,0,1.08,0,1.62A40.39,40.39,0,0,0,74.9,106.8c1.39,4.36,3.18,8.63,3.22,12.9a13.4,13.4,0,0,1-2.21,7.72c-2.38,3.69-7.07,7.35-11.36,4.25a6.62,6.62,0,0,1-2-2.13l.11,0-.11-.16a4.26,4.26,0,0,0,2.61.52,3.38,3.38,0,0,0,2-1.48,11.07,11.07,0,0,0,1.91-6.65,20,20,0,0,0-1.61-6.93c-2-4.9-3.6-9.57-3.76-14.79q0-1.11,0-2.26c.27-5.79,2.3-11.4,4-16.88,1.12-3.6,2.31-7.18,3.56-10.74a1.8,1.8,0,0,0,.17-.47q1-2.85,2-5.68a61.87,61.87,0,0,0,3.73-15.61c.14-1.55.22-3.13.22-4.71a35.29,35.29,0,0,0-2.63-14c-.06-.14-.13-.26-.19-.4h0q-.39-.86-.81-1.63h0a22.65,22.65,0,0,0-6.12-7.31h0a13.84,13.84,0,0,0-2.52-1.57c4.91,3.36,6.93,9.19,8,14.82a54.94,54.94,0,0,1,.94,10.51,64.77,64.77,0,0,1-.91,10.53c-.36,2.18-.82,4.33-1.36,6.46,0-.14,0-.3.08-.44l-.08.33a9.5,9.5,0,0,0,.24-2.19,46.65,46.65,0,0,0-.87-7.12,35.71,35.71,0,0,0-2.58-8.93,30.37,30.37,0,0,0-7.87-10.63h0q-.63-.54-1.28-1.05c-.46-.36-.93-.71-1.42-1a58.45,58.45,0,0,1-9.32-7.15,49.72,49.72,0,0,0,4.56,4.44,53.76,53.76,0,0,1,7.5,7.85,18.43,18.43,0,0,0-4.57-.74c-.81-.05-1.72-.1-2.79-.12-1.72,0-1.53,2.07.15,2.26,1.06.12,2.71,0,4.65.09a21.91,21.91,0,0,1,4,.52h0c.55.79,1.07,1.58,1.54,2.36s1,1.64,1.38,2.45c.26.49.52,1,.75,1.47.08.34.16.68.24,1l0,.12c.86,3.72,1.89,7.34,2.54,11.07a38.43,38.43,0,0,1,.63,7c-.06,7.77-4.31,14.62-6.21,22,0,.17-.08.34-.12.51l-.1.43A57.42,57.42,0,0,0,62,107.63h0q.28,1.8.68,3.58.2.88.43,1.76c.7,2.64,2,4.85,1.74,7.7a8.42,8.42,0,0,1-.13.89c-.6,3.1-3,6.79-6,3.4-.47-.53.09,1.35.14,1.48a15.84,15.84,0,0,0,.94,2.12,20.89,20.89,0,0,0,1.37,2.25l.28.41a15.21,15.21,0,0,0,13.11,5.92,14.64,14.64,0,0,0,4.48-1c-1.21.26-2.87.3-3.12.55a16.3,16.3,0,0,0,3-4c2.5-4.85,2.27-10.63,1.63-15.9a45.55,45.55,0,0,0-.84-8.38c-.08-.4-.16-.8-.24-1.19-1.48-4.62-3-9.26-3.27-14.17-.81-12.47,4-24.81,7.4-36.6.67-2.32,1.39-4.71,2-7.13.25,7.11.33,14.08-1.24,21.19.24-.59.49-1.19.72-1.78h0c.18-2.18.45-4.36.57-6.59a118.84,118.84,0,0,0-.3-17.92A102.45,102.45,0,0,0,83.7,32.74a1.49,1.49,0,0,0-.08.35A1.81,1.81,0,0,0,83.64,33.4Z"/><path class="cls-3" d="M82.75,79.7A38.67,38.67,0,0,0,81,87.88c-.61,7,1.48,13.77,3.22,20.49,1.89,7.26,2.9,15.37-.41,22.33q-.31.65-.67,1.28a12.05,12.05,0,0,1-2.81,3.63,16.16,16.16,0,0,0,5.45-4.67,22.45,22.45,0,0,0,1.37-2,38.27,38.27,0,0,0,4.51-12.78c.18-1,.33-2,.45-3.05a46.51,46.51,0,0,0-1.65-5.88C89,103.15,87.2,99.18,86.14,95c1,4.81,2.78,9.55,3.8,14.51a28.55,28.55,0,0,1-1.75,16.95,13.06,13.06,0,0,1-4.35,5.17,18.3,18.3,0,0,0,3.4-11.25c-.08-5-1.64-9.77-2.78-14.59-1.67-7-1-12.84.82-19.37,0,.07,0,.14,0,.21a32.28,32.28,0,0,1,.93-6.24,37.28,37.28,0,0,1-.95-4.14A23.77,23.77,0,0,1,85,73.05l-.21.62A33.91,33.91,0,0,0,82.75,79.7Z"/><path class="cls-3" d="M83.7,32.74v-.06h0Z"/><path class="cls-3" d="M90,97.37a82,82,0,0,1,2.45,9.4,50.63,50.63,0,0,1-.34,6.31c.1-.81.15-1.62.21-2.44a50.93,50.93,0,0,0,0-7.33v0a51.82,51.82,0,0,0-1.12-7.46,52.24,52.24,0,0,0-1.95-6.61c-1-2.77-2.1-5.55-2.93-8.39C86.08,86.62,88.24,91.9,90,97.37Z"/><path class="cls-3" d="M85.25,87.95q0-.08,0-.16C85.26,87.84,85.25,87.9,85.25,87.95Z"/><path class="cls-3" d="M77.8,98.46c-.07-.83-.12-1.67-.15-2.51a45.83,45.83,0,0,1,1.23-12.14,94.84,94.84,0,0,1,4-9.62c.54-1.2,1.06-2.41,1.55-3.62C86,63.47,85.89,56.5,85.64,49.39c-.64,2.42-1.36,4.8-2,7.13-3.42,11.79-8.21,24.12-7.4,36.6.32,4.91,1.8,9.54,3.27,14.17C78.9,104.34,78.23,101.42,77.8,98.46Z"/><path class="cls-18" d="M77.8,98.46c-.07-.83-.12-1.67-.15-2.51a45.83,45.83,0,0,1,1.23-12.14,94.84,94.84,0,0,1,4-9.62c.54-1.2,1.06-2.41,1.55-3.62C86,63.47,85.89,56.5,85.64,49.39c-.64,2.42-1.36,4.8-2,7.13-3.42,11.79-8.21,24.12-7.4,36.6.32,4.91,1.8,9.54,3.27,14.17C78.9,104.34,78.23,101.42,77.8,98.46Z"/><path class="cls-3" d="M85.24,89c0-.33,0-.67,0-1,0-.05,0-.11,0-.16,0-.38,0-.75,0-1.13,0-.07,0-.14,0-.21-1.85,6.52-2.49,12.32-.82,19.37,1.15,4.82,2.7,9.59,2.78,14.59a18.3,18.3,0,0,1-3.4,11.25,13.06,13.06,0,0,0,4.35-5.17,28.55,28.55,0,0,0,1.75-16.95c-1-5-2.75-9.71-3.8-14.51A27,27,0,0,1,85.24,89Z"/><path class="cls-18" d="M85.24,89c0-.33,0-.67,0-1,0-.05,0-.11,0-.16,0-.38,0-.75,0-1.13,0-.07,0-.14,0-.21-1.85,6.52-2.49,12.32-.82,19.37,1.15,4.82,2.7,9.59,2.78,14.59a18.3,18.3,0,0,1-3.4,11.25,13.06,13.06,0,0,0,4.35-5.17,28.55,28.55,0,0,0,1.75-16.95c-1-5-2.75-9.71-3.8-14.51A27,27,0,0,1,85.24,89Z"/><path class="cls-12" d="M85.26,87.79q0,.08,0,.16c0,.33,0,.67,0,1A27,27,0,0,0,86.14,95c1.07,4.16,2.88,8.13,4.33,12.22a46.51,46.51,0,0,1,1.65,5.88h0v0a50.63,50.63,0,0,0,.34-6.31A82,82,0,0,0,90,97.37c-1.76-5.47-3.93-10.75-3.68-16.53v0l-.12-.38h0a32.28,32.28,0,0,0-.93,6.24C85.26,87,85.26,87.42,85.26,87.79Z"/><path class="cls-12" d="M84.4,70.58c-.5,1.21-1,2.42-1.55,3.62a94.84,94.84,0,0,0-4,9.62A45.83,45.83,0,0,0,77.65,96c0,.84.08,1.68.15,2.51.43,3,1.1,5.88,1.69,8.82.08.4.16.79.24,1.19a45.55,45.55,0,0,1,.84,8.38c.65,5.27.87,11-1.63,15.9a16.3,16.3,0,0,1-3,4c.24-.25,1.91-.29,3.12-.55a3,3,0,0,0,1-.37c.08-.06.15-.14.23-.2A12.05,12.05,0,0,0,83.14,132q.36-.63.67-1.28c3.31-7,2.3-15.07.41-22.33C82.47,101.66,80.39,94.9,81,87.88a38.67,38.67,0,0,1,1.76-8.19,33.91,33.91,0,0,1,2-6l.21-.62h0a40.44,40.44,0,0,1,.14-4.26h0C84.89,69.39,84.64,70,84.4,70.58Z"/><path class="cls-12" d="M73.78,27.7h0Z"/><path class="cls-12" d="M58,30.06c.49.33,1,.68,1.42,1C59,30.73,58.53,30.38,58,30.06Z"/><path class="cls-9" d="M14.43,123.3a94.38,94.38,0,0,1-1.3,13.18l2.3.52C15.92,128.28,14.43,123.3,14.43,123.3Z"/><path class="cls-3" d="M60.75,32.15h0c-.42-.36-.84-.72-1.28-1.05Q60.12,31.6,60.75,32.15Z"/><path class="cls-19" d="M60.75,32.15h0c-.42-.36-.84-.72-1.28-1.05Q60.12,31.6,60.75,32.15Z"/><path class="cls-12" d="M60.75,32.15,62.42,32c.52-.05,2.89-.44,1.71-.23l1.81-.31c2.13-.4,4.24-.89,6.33-1.46a21,21,0,0,0-5.16-9.45,82.29,82.29,0,0,1-17.42,3.28A67.52,67.52,0,0,0,58,30.06c.49.33,1,.68,1.42,1S60.33,31.78,60.75,32.15Z"/><path class="cls-19" d="M60.75,32.15,62.42,32c.52-.05,2.89-.44,1.71-.23l1.81-.31c2.13-.4,4.24-.89,6.33-1.46a21,21,0,0,0-5.16-9.45,82.29,82.29,0,0,1-17.42,3.28A67.52,67.52,0,0,0,58,30.06c.49.33,1,.68,1.42,1S60.33,31.78,60.75,32.15Z"/><path class="cls-3" d="M74.59,29.34h0q-.39-.86-.81-1.63Q74.2,28.48,74.59,29.34Z"/><path class="cls-19" d="M74.59,29.34h0q-.39-.86-.81-1.63Q74.2,28.48,74.59,29.34Z"/><path class="cls-3" d="M73.77,27.69a22.65,22.65,0,0,0-6.11-7.32h0A22.65,22.65,0,0,1,73.77,27.69Z"/><path class="cls-19" d="M73.77,27.69a22.65,22.65,0,0,0-6.11-7.32h0A22.65,22.65,0,0,1,73.77,27.69Z"/><path class="cls-12" d="M73.77,27.69h0q.42.78.81,1.63c.82-.25,1.64-.51,2.45-.79,1-.34,2-.71,2.94-1.08l.24-.12,1.84-.92a49.64,49.64,0,0,0-4.2-9.86,91.67,91.67,0,0,1-10.21,3.81A22.65,22.65,0,0,1,73.77,27.69Z"/><path class="cls-19" d="M73.77,27.69h0q.42.78.81,1.63c.82-.25,1.64-.51,2.45-.79,1-.34,2-.71,2.94-1.08l.24-.12,1.84-.92a49.64,49.64,0,0,0-4.2-9.86,91.67,91.67,0,0,1-10.21,3.81A22.65,22.65,0,0,1,73.77,27.69Z"/><polygon class="cls-3" points="18.83 24.89 18.83 24.89 18.83 24.89 18.83 24.89"/><polygon class="cls-19" points="18.83 24.89 18.83 24.89 18.83 24.89 18.83 24.89"/><path class="cls-12" d="M26.39,26.44c.22-.34.45-.68.69-1l.29-.42c.23-.31.47-.63.71-.94l.38-.49c.24-.29.49-.58.74-.86l.29-.34a58.27,58.27,0,0,1-7.41-2.24c-.45-.17-.88-.35-1.3-.55a54,54,0,0,0-2,5.31h0l2.84,1.47.53.28c.6.24,1.21.49,1.82.71s1,.35,1.5.53c.22-.39.46-.77.7-1.16Z"/><path class="cls-19" d="M26.39,26.44c.22-.34.45-.68.69-1l.29-.42c.23-.31.47-.63.71-.94l.38-.49c.24-.29.49-.58.74-.86l.29-.34a58.27,58.27,0,0,1-7.41-2.24c-.45-.17-.88-.35-1.3-.55a54,54,0,0,0-2,5.31h0l2.84,1.47.53.28c.6.24,1.21.49,1.82.71s1,.35,1.5.53c.22-.39.46-.77.7-1.16Z"/><path class="cls-3" d="M29.2,22.72c-.25.29-.5.57-.74.86C28.7,23.29,29,23,29.2,22.72Z"/><path class="cls-19" d="M29.2,22.72c-.25.29-.5.57-.74.86C28.7,23.29,29,23,29.2,22.72Z"/><path class="cls-3" d="M27.08,25.42c-.24.34-.47.68-.69,1C26.61,26.1,26.84,25.76,27.08,25.42Z"/><path class="cls-19" d="M27.08,25.42c-.24.34-.47.68-.69,1C26.61,26.1,26.84,25.76,27.08,25.42Z"/><path class="cls-3" d="M26.22,26.72c-.24.39-.48.77-.7,1.16h0C25.74,27.5,26,27.11,26.22,26.72Z"/><path class="cls-19" d="M26.22,26.72c-.24.39-.48.77-.7,1.16h0C25.74,27.5,26,27.11,26.22,26.72Z"/><path class="cls-3" d="M27.37,25c.23-.31.47-.63.71-.94C27.84,24.38,27.6,24.69,27.37,25Z"/><path class="cls-19" d="M27.37,25c.23-.31.47-.63.71-.94C27.84,24.38,27.6,24.69,27.37,25Z"/><path class="cls-5" d="M35.51,23.46h0A28.14,28.14,0,0,0,28,28.7h0A28.2,28.2,0,0,1,35.51,23.46Z"/><path class="cls-6" d="M35.51,23.46h0A28.14,28.14,0,0,0,28,28.7h0A28.2,28.2,0,0,1,35.51,23.46Z"/><path class="cls-19" d="M35.51,23.46h0A28.14,28.14,0,0,0,28,28.7h0A28.2,28.2,0,0,1,35.51,23.46Z"/><path class="cls-12" d="M35.51,23.46c-1.83-.24-3.65-.56-5.45-1a41.13,41.13,0,0,0-2.9,5.94l.81.25A28.14,28.14,0,0,1,35.51,23.46Z"/><path class="cls-19" d="M35.51,23.46c-1.83-.24-3.65-.56-5.45-1a41.13,41.13,0,0,0-2.9,5.94l.81.25A28.14,28.14,0,0,1,35.51,23.46Z"/><path class="cls-5" d="M50.59,71.14a7.4,7.4,0,0,0-3.23-.24,3.31,3.31,0,0,0-2.33.79A1.53,1.53,0,0,0,45.32,74a4.06,4.06,0,0,0,3,.45c1.19-.14,3.38-.69,3.05-2.34A1.37,1.37,0,0,0,50.59,71.14Z"/><path class="cls-20" d="M50.59,71.14a7.4,7.4,0,0,0-3.23-.24,3.31,3.31,0,0,0-2.33.79A1.53,1.53,0,0,0,45.32,74a4.06,4.06,0,0,0,3,.45c1.19-.14,3.38-.69,3.05-2.34A1.37,1.37,0,0,0,50.59,71.14Z"/><path class="cls-5" d="M32.2,44.26a4.66,4.66,0,0,1-1,.27,5.27,5.27,0,0,0,1.22.92c-.06-.1-.12-.2-.17-.3A1,1,0,0,1,32.2,44.26Z"/><path class="cls-6" d="M32.2,44.26a4.66,4.66,0,0,1-1,.27,5.27,5.27,0,0,0,1.22.92c-.06-.1-.12-.2-.17-.3A1,1,0,0,1,32.2,44.26Z"/><path class="cls-5" d="M41.73,44.86c.1.29,0,.5-.16.57.3-.05.52-.22.42-.54a4.58,4.58,0,0,0-.93-1.66,5.19,5.19,0,0,0-.95-1.11A7.26,7.26,0,0,1,41.73,44.86Z"/><path class="cls-6" d="M41.73,44.86c.1.29,0,.5-.16.57.3-.05.52-.22.42-.54a4.58,4.58,0,0,0-.93-1.66,5.19,5.19,0,0,0-.95-1.11A7.26,7.26,0,0,1,41.73,44.86Z"/><path class="cls-5" d="M41.33,45.44h.09l-.09,0A.46.46,0,0,0,41.33,45.44Z"/><path class="cls-6" d="M41.33,45.44h.09l-.09,0A.46.46,0,0,0,41.33,45.44Z"/><path class="cls-5" d="M32.17,42.08A7.45,7.45,0,0,1,36,40.53a5,5,0,0,1,2.45.44c-2.78-1.56-6.68-2.16-8.13-.14a2.31,2.31,0,0,0-.06,2.52A8.43,8.43,0,0,0,32.17,42.08Z"/><path class="cls-6" d="M32.17,42.08A7.45,7.45,0,0,1,36,40.53a5,5,0,0,1,2.45.44c-2.78-1.56-6.68-2.16-8.13-.14a2.31,2.31,0,0,0-.06,2.52A8.43,8.43,0,0,0,32.17,42.08Z"/><path class="cls-15" d="M38.58,42.82a2.36,2.36,0,0,1,1,1.73A2.51,2.51,0,0,1,39,46.69a2.35,2.35,0,0,1-.58.44c-1.39.74-4.18.2-4.7-1.46a2,2,0,0,1,.54-2,4,4,0,0,1,1-.81,11.82,11.82,0,0,0-2.12.93,6.53,6.53,0,0,1-.94.42,1,1,0,0,0,0,.88c0,.1.11.2.17.3A4.72,4.72,0,0,0,36,47.75c1.6.16,4.09-.47,4.87-1.82a1.56,1.56,0,0,0,.05-1.17A4.78,4.78,0,0,0,38.58,42.82Z"/><path class="cls-16" d="M33.69,45.67c.53,1.66,3.32,2.19,4.7,1.46a2.35,2.35,0,0,0,.58-.44,2.51,2.51,0,0,0,.56-2.14,2.36,2.36,0,0,0-1-1.73,5.1,5.1,0,0,0-3.32.09,4,4,0,0,0-1,.81A2,2,0,0,0,33.69,45.67Zm5-1.47a.41.41,0,0,1,.08.74,1.84,1.84,0,0,1-.37,1.33,1.58,1.58,0,0,1-.39.29,2.59,2.59,0,0,1-2.59-.25,1.17,1.17,0,0,1-.28-.24c0-.06-.06-.11-.1-.17a.57.57,0,0,1-.4-.49,1.25,1.25,0,0,1,.08-.49C34.69,43.06,38.11,42.2,38.67,44.19Z"/><path class="cls-3" d="M35.3,44.21c.16-.06.41-.06.49.12a1.68,1.68,0,0,1,0,1.22.6.6,0,0,1-.8.34c0,.06.05.11.1.17a1.17,1.17,0,0,0,.28.24,2.59,2.59,0,0,0,2.59.25,1.58,1.58,0,0,0,.39-.29,1.84,1.84,0,0,0,.37-1.33.46.46,0,0,1-.24.07.42.42,0,1,1,0-.83.49.49,0,0,1,.16,0c-.55-2-4-1.13-4,.72A1.11,1.11,0,0,1,35.3,44.21Z"/><path class="cls-17" d="M31.16,44.53a4.66,4.66,0,0,0,1-.27,6.53,6.53,0,0,0,.94-.42,11.82,11.82,0,0,1,2.12-.93,5.1,5.1,0,0,1,3.32-.09,4.78,4.78,0,0,1,2.33,1.94c.11.16.22.33.32.51a.4.4,0,0,0,.1.12l.09,0a.23.23,0,0,0,.16,0c.15-.06.26-.27.16-.57a7.26,7.26,0,0,0-1.62-2.73A5.34,5.34,0,0,0,38.47,41,5,5,0,0,0,36,40.53a7.45,7.45,0,0,0-3.85,1.55,8.43,8.43,0,0,1-1.89,1.27,1.23,1.23,0,0,1-1.38-.26c-.09-.09-.21.07-.16.18A2.18,2.18,0,0,0,31.16,44.53Z"/><path class="cls-15" d="M35,45.9a.6.6,0,0,0,.8-.34,1.68,1.68,0,0,0,0-1.22c-.08-.17-.33-.18-.49-.12a1.11,1.11,0,0,0-.6.7,1.25,1.25,0,0,0-.08.49A.57.57,0,0,0,35,45.9Z"/><path class="cls-15" d="M38.51,45a.46.46,0,0,0,.24-.07.41.41,0,0,0-.08-.74.49.49,0,0,0-.16,0A.42.42,0,1,0,38.51,45Z"/><path class="cls-3" d="M33.31,37.17c3.64-.83,6.94-.38,8.68-.56s1.88-2.29.16-2.26c-7.39.15-7.89.95-11.41,2.76C26,39.56,32.33,37.4,33.31,37.17Z"/><path class="cls-7" d="M49,62.28a5.08,5.08,0,0,0-1,.54,3.59,3.59,0,0,0-2.32-.6,8,8,0,0,0-3.06,1.5,12.12,12.12,0,0,1-1.51.78,7.14,7.14,0,0,1-.88.33l-.54.08a.62.62,0,0,1,.14.28h0a28.38,28.38,0,0,1,4.28-.36c1.47.06,2.92.73,4.41.45a15.6,15.6,0,0,1,3.37-.64,23.44,23.44,0,0,1,3.88.46h0L56,65a.64.64,0,0,1,.16-.28c-1.26-.47-2.48-1-3.68-1.56l-.21-.1C51.29,62.61,50.16,61.93,49,62.28Z"/><path class="cls-7" d="M51.55,65.38c-.52.13-1,.28-1.55.4a10,10,0,0,1-2.46.5,17.54,17.54,0,0,1-2.8-.74,14.93,14.93,0,0,0-3.19-.14,5.87,5.87,0,0,0-.7.07c.93.47,1.8,1.1,2.64,1.6a11.58,11.58,0,0,0,2.61,1.37,6.44,6.44,0,0,0,3.69-.16c1.18-.37,2.6-1.79,3.66-2.36a8.63,8.63,0,0,1,1.93-.71c-.54-.06-1.22-.11-1.32-.11A9.12,9.12,0,0,0,51.55,65.38Zm-2.19,2.39a3.14,3.14,0,0,1-2.55.37.38.38,0,0,1,.09-.76A7.74,7.74,0,0,0,49,67,.42.42,0,0,1,49.36,67.77Z"/><path class="cls-9" d="M56,65a1.11,1.11,0,0,0,0,.14.2.2,0,0,0-.12-.08l-.11,0a23.44,23.44,0,0,0-3.88-.46,15.6,15.6,0,0,0-3.37.64c-1.49.28-2.94-.4-4.41-.45a28.38,28.38,0,0,0-4.28.36h0a.62.62,0,0,0-.14-.28.32.32,0,0,0-.43-.09c-.17,0-.29.3-.19.68.14.54.55.66.71.24.19,0,.38-.1.47-.13a5.74,5.74,0,0,1,.6-.13,5.87,5.87,0,0,1,.7-.07,14.93,14.93,0,0,1,3.19.14,17.54,17.54,0,0,0,2.8.74,10,10,0,0,0,2.46-.5c.51-.12,1-.27,1.55-.4a9.12,9.12,0,0,1,2.5-.28c.1,0,.78,0,1.32.11a3.91,3.91,0,0,1,.62.11.86.86,0,0,0,0,.1c0,.59.53.55.76,0,.15-.36.06-.64-.1-.7a.32.32,0,0,0-.45.05A.64.64,0,0,0,56,65Z"/><path class="cls-7" d="M49,67a7.74,7.74,0,0,1-2.14.35.38.38,0,0,0-.09.76,3.14,3.14,0,0,0,2.55-.37A.42.42,0,0,0,49,67Z"/><path class="cls-21" d="M49,67a7.74,7.74,0,0,1-2.14.35.38.38,0,0,0-.09.76,3.14,3.14,0,0,0,2.55-.37A.42.42,0,0,0,49,67Z"/></g></g></g></svg>