<svg xmlns="http://www.w3.org/2000/svg" viewBox="0 0 115.25 140.6"><defs><style>.cls-1{isolation:isolate;}.cls-2{fill:none;}.cls-18,.cls-3,.cls-4{fill:#3f2d2b;}.cls-10,.cls-13,.cls-4,.cls-6{opacity:0.5;}.cls-18,.cls-4{mix-blend-mode:multiply;}.cls-10,.cls-20,.cls-5{fill:#fac494;}.cls-6{fill:#ed8c72;}.cls-11,.cls-21,.cls-7{fill:#f24469;}.cls-13,.cls-8,.cls-9{fill:#c61443;}.cls-11,.cls-18,.cls-19,.cls-20,.cls-8{opacity:0.2;}.cls-10,.cls-11,.cls-20,.cls-21{mix-blend-mode:screen;}.cls-12{fill:#533734;}.cls-14{fill:#ff5a5a;opacity:0.15;}.cls-15{fill:#fff;}.cls-16,.cls-19{fill:#8f705e;}.cls-17{fill:#211313;}</style></defs><title>Ресурс 8</title><g class="cls-1"><g id="Слой_2" data-name="Слой 2"><g id="Layer_1" data-name="Layer 1"><path class="cls-2" d="M13.71,65.11v0l-.15,0Z"/><path class="cls-2" d="M13.55,62.38c-.32-2.23-.8-4.42-1.26-6.62l-.21-1c.17,2.71.34,5.4.69,8.12.06.5.23,1.24.39,2.06l.55-.07C13.66,64,13.65,63.1,13.55,62.38Z"/><path class="cls-2" d="M31.53,65.9a205,205,0,0,0,3.79,25.59h.12c2.16-.54,4-.53,5.71-1.18a98.66,98.66,0,0,1-5-10.45A106.39,106.39,0,0,1,31.53,65.9Z"/><path class="cls-3" d="M31.53,65.9A106.39,106.39,0,0,0,36.1,79.85a98.66,98.66,0,0,0,5,10.45,7.33,7.33,0,0,0,2.43-1.52C41.49,85,39,80.43,37.26,76.51A121.89,121.89,0,0,1,28.37,45.4c-.05-.35-.1-.7-.14-1.05-.11-2.5-.1-5,0-7.33,0-.08,0-.15-.05-.23-.81,12.45-.9,33.71,4.92,54.83l2.19-.13A205,205,0,0,1,31.53,65.9Z"/><path class="cls-3" d="M28.27,36.86c.05-.88.13-1.75.21-2.61C28.4,35.11,28.33,36,28.27,36.86Z"/><path class="cls-3" d="M28.56,33.49c.12-1.07.27-2.11.46-3.13C28.83,31.38,28.69,32.43,28.56,33.49Z"/><path class="cls-3" d="M29.78,26.94q.2-.76.43-1.53C30.05,25.92,29.91,26.43,29.78,26.94Z"/><path class="cls-3" d="M30.8,23.51q.28-.85.6-1.69Q31.08,22.66,30.8,23.51Z"/><path class="cls-3" d="M29,30.37c.09-.49.19-1,.3-1.49C29.21,29.38,29.11,29.88,29,30.37Z"/><path class="cls-3" d="M34,16.12C38.67,9.07,45.78,3.58,54.3,3a12.8,12.8,0,0,0-.7,7.62h0v.08a8.1,8.1,0,0,0,.27.9h0A9.07,9.07,0,0,0,54.54,13a14.61,14.61,0,0,0,.58,1.85c-1.48-4.41-1.43-10,2-13a15,15,0,0,0-8-.4c-8.1,2.07-14.33,11-17.77,20.22a52.21,52.21,0,0,1,2.25-5.15Z"/><path class="cls-3" d="M29.39,28.54c.11-.5.23-1,.37-1.53C29.62,27.53,29.5,28,29.39,28.54Z"/><path class="cls-3" d="M47.27,82.66c.1-.3.18-.6.26-.91s.13-.51.18-.76l.08-.39c.16-.82.28-1.66.37-2.5-2.16-4.35-4.25-9-6-13.15C40,62.5,39.11,60.14,38.81,55.8l-.07-1.09a2.11,2.11,0,0,1-.85.28h0a2.74,2.74,0,0,1-.48,0h-.1a3.88,3.88,0,0,1-.6-.11,2.77,2.77,0,0,1-.56-.22l-.17-.1a3.65,3.65,0,0,1-.36-.24l-.18-.15-.33-.31-.16-.17c-.11-.13-.22-.26-.33-.4l-.12-.16q-.21-.28-.4-.59l0,0c-.14-.23-.28-.47-.41-.72a50.27,50.27,0,0,0,1.09,7.61c1.61,7.22,5,13.56,8.91,19.77a25.76,25.76,0,0,0,3.21,4.72c.13-.32.25-.63.36-1Z"/><path class="cls-3" d="M30.4,24.78h0c.13-.41.25-.83.39-1.24q-.28.82-.52,1.64l.13-.4Z"/><path class="cls-3" d="M45.29,86.77a14.59,14.59,0,0,0,1.13-2,14.85,14.85,0,0,1-2.8,4A12,12,0,0,0,45.29,86.77Z"/><path class="cls-3" d="M48.38,70.56a60.16,60.16,0,0,1-6.21-5.61c1.75,4.13,3.84,8.79,6,13.15A73.21,73.21,0,0,0,48.38,70.56Z"/><path class="cls-4" d="M48.38,70.56a60.16,60.16,0,0,1-6.21-5.61c1.75,4.13,3.84,8.79,6,13.15A73.21,73.21,0,0,0,48.38,70.56Z"/><path class="cls-3" d="M74.6,85c0-.17.08-.34.12-.51,1.9-7.35,6.15-14.21,6.21-22a38.43,38.43,0,0,0-.63-7l0,.23c0,.49-.08.94-.13,1.38,0,.13,0,.26,0,.39q-.06.47-.14.91c0,.12,0,.25-.06.37-.07.37-.15.73-.24,1.08,0,.09-.05.17-.08.26-.07.26-.15.51-.24.75l-.14.37c-.08.21-.17.41-.26.61l-.15.32c-.13.26-.27.52-.42.76h0c-1.33,2.19-3.48,4.07-6.88,6.91v0c0,.29-.08.58-.12.87,0,.13,0,.26,0,.39-.51,4.68.07,9.5,2.6,13.43l0-.07A7.46,7.46,0,0,0,74.6,85Z"/><path class="cls-4" d="M74.6,85c0-.17.08-.34.12-.51,1.9-7.35,6.15-14.21,6.21-22a38.43,38.43,0,0,0-.63-7l0,.23c0,.49-.08.94-.13,1.38,0,.13,0,.26,0,.39q-.06.47-.14.91c0,.12,0,.25-.06.37-.07.37-.15.73-.24,1.08,0,.09-.05.17-.08.26-.07.26-.15.51-.24.75l-.14.37c-.08.21-.17.41-.26.61l-.15.32c-.13.26-.27.52-.42.76h0c-1.33,2.19-3.48,4.07-6.88,6.91v0c0,.29-.08.58-.12.87,0,.13,0,.26,0,.39-.51,4.68.07,9.5,2.6,13.43l0-.07A7.46,7.46,0,0,0,74.6,85Z"/><path class="cls-5" d="M110.9,104c.24.53.47,1.08.67,1.66C111.36,105.07,111.14,104.53,110.9,104Z"/><path class="cls-5" d="M106.78,102.61l.19,0,.5-.09.19,0,.47-.08.14,0,.53-.08h0l.42-.05h.11l.23,0h.3s.08,0,.1,0c.29.49.56,1,.81,1.54a16.29,16.29,0,0,0-8-8,51.81,51.81,0,0,1,1.12,7.46Z"/><path class="cls-5" d="M46.82,83.89h0q.19-.48.35-1C47.08,83.26,47,83.58,46.82,83.89Z"/><path class="cls-5" d="M47.53,81.75c-.08.3-.16.61-.26.91C47.37,82.36,47.45,82.06,47.53,81.75Z"/><path class="cls-5" d="M47.8,80.6l-.08.39Z"/><path class="cls-5" d="M71.5,70c0,.29-.08.58-.12.87C71.42,70.53,71.46,70.24,71.5,70Z"/><path class="cls-3" d="M47.8,80.6q.25-1.22.38-2.48v0C48.08,78.94,48,79.77,47.8,80.6Z"/><path class="cls-6" d="M47.8,80.6q.25-1.22.38-2.48v0C48.08,78.94,48,79.77,47.8,80.6Z"/><path class="cls-3" d="M47.27,82.66l-.09.28Z"/><path class="cls-6" d="M47.27,82.66l-.09.28Z"/><path class="cls-3" d="M47.72,81c-.06.26-.12.51-.18.76C47.6,81.5,47.66,81.25,47.72,81Z"/><path class="cls-6" d="M47.72,81c-.06.26-.12.51-.18.76C47.6,81.5,47.66,81.25,47.72,81Z"/><path class="cls-3" d="M71.5,70v0h0Z"/><path class="cls-4" d="M71.5,70v0h0Z"/><path class="cls-6" d="M71.5,70v0h0Z"/><path class="cls-3" d="M48.17,78.09v0a69.82,69.82,0,0,0,.23-7.53l0,0A73.21,73.21,0,0,1,48.17,78.09Z"/><path class="cls-4" d="M48.17,78.09v0a69.82,69.82,0,0,0,.23-7.53l0,0A73.21,73.21,0,0,1,48.17,78.09Z"/><path class="cls-6" d="M48.17,78.09v0a69.82,69.82,0,0,0,.23-7.53l0,0A73.21,73.21,0,0,1,48.17,78.09Z"/><path class="cls-3" d="M71.34,71.21c0-.13,0-.26,0-.39C71.37,71,71.35,71.08,71.34,71.21Z"/><path class="cls-4" d="M71.34,71.21c0-.13,0-.26,0-.39C71.37,71,71.35,71.08,71.34,71.21Z"/><path class="cls-6" d="M71.34,71.21c0-.13,0-.26,0-.39C71.37,71,71.35,71.08,71.34,71.21Z"/><path class="cls-5" d="M71.5,70v0c-1.63,1.36-3.53,2.94-5.79,4.91a9.28,9.28,0,0,1-12.33,0c-1.89-1.65-3.53-3-5-4.23a69.82,69.82,0,0,1-.23,7.53Q48,79.37,47.8,80.6l-.08.39c-.06.26-.12.51-.18.76s-.17.61-.26.91l-.09.28q-.16.49-.35,1h0l-.11.23a15.15,15.15,0,0,1-.87,1.79,115.71,115.71,0,0,1,25.67-7.29,25.24,25.24,0,0,1-.2-7.43c0-.13,0-.26,0-.39C71.42,70.53,71.46,70.24,71.5,70Z"/><path class="cls-6" d="M71.5,70v0c-1.63,1.36-3.53,2.94-5.79,4.91a9.28,9.28,0,0,1-12.33,0c-1.89-1.65-3.53-3-5-4.23a69.82,69.82,0,0,1-.23,7.53Q48,79.37,47.8,80.6l-.08.39c-.06.26-.12.51-.18.76s-.17.61-.26.91l-.09.28q-.16.49-.35,1h0l-.11.23a15.15,15.15,0,0,1-.87,1.79,115.71,115.71,0,0,1,25.67-7.29,25.24,25.24,0,0,1-.2-7.43c0-.13,0-.26,0-.39C71.42,70.53,71.46,70.24,71.5,70Z"/><path class="cls-7" d="M109.35,102.19l.23,0Z"/><path class="cls-7" d="M108.82,102.26l.42-.05Z"/><path class="cls-7" d="M108.28,102.34l.53-.08Z"/><path class="cls-7" d="M109.67,102.17h0Z"/><path class="cls-7" d="M109.88,102.18s.08,0,.1,0S109.93,102.18,109.88,102.18Z"/><path class="cls-7" d="M107,102.57l.5-.09Z"/><path class="cls-7" d="M91.59,138.2q2.87-.47,5.81-1c-.08-1.35-.12-2.62-.11-3.79A16.11,16.11,0,0,1,91.59,138.2Z"/><path class="cls-7" d="M107.67,102.45l.47-.08Z"/><path class="cls-7" d="M82.58,139.45a14.86,14.86,0,0,1-9.65-5.73A21.33,21.33,0,0,1,71.24,131a41.49,41.49,0,0,1-18.13-1.18A42.52,42.52,0,0,1,41.54,125c-3.8-1.5-7.52-3.77-8.14-7.9-1.12-7.46,6.85-8.17,12.1-7.56,7.47.88,15,1.33,22.5,1.51,1.76,0,3.51.06,5.27.07q-.49-1.84-.85-3.54l-1.18,0a151.23,151.23,0,0,1-32.43-2.8,63.37,63.37,0,0,1-13-4.13c-.23-.1-1.75-.79-3.35-1.56-.15.28-.29.57-.44.86,1.82,13.63,5.95,29.74,7.37,37.5A175.89,175.89,0,0,0,82.58,139.45Z"/><path class="cls-7" d="M98.93,130.88c.23,2,.51,4,.8,5.8,4.83-1,9.78-2.25,14.83-3.75-.54-2.84-1.19-5.68-1.93-8.57-1.13-4.42-2.43-8.71-3.93-13-.75-2.15-1.49-4.3-2.11-6.49-.2-.69-.38-1.39-.55-2.09l.74-.14-2.89.58v0a50.93,50.93,0,0,1,0,7.33,50.13,50.13,0,0,1-.78,8.12A39.11,39.11,0,0,1,98.93,130.88Z"/><path class="cls-8" d="M110.89,104h0l-.11-.24h0Z"/><path class="cls-5" d="M113.4,116.1c.11.76.22,1.53.32,2.3C113.62,117.63,113.51,116.86,113.4,116.1Z"/><path class="cls-8" d="M113.4,116.1c.11.76.22,1.53.32,2.3C113.62,117.63,113.51,116.86,113.4,116.1Z"/><path class="cls-5" d="M114.18,121.87c.1.76.19,1.51.28,2.24C114.37,123.37,114.28,122.63,114.18,121.87Z"/><path class="cls-8" d="M114.18,121.87c.1.76.19,1.51.28,2.24C114.37,123.37,114.28,122.63,114.18,121.87Z"/><path class="cls-5" d="M114.71,126.21c.12,1,.22,2,.3,2.79C114.93,128.16,114.83,127.22,114.71,126.21Z"/><path class="cls-8" d="M114.71,126.21c.12,1,.22,2,.3,2.79C114.93,128.16,114.83,127.22,114.71,126.21Z"/><path class="cls-5" d="M111.56,105.65c-.2-.58-.43-1.13-.67-1.66h0C111.14,104.52,111.36,105.07,111.56,105.65Z"/><path class="cls-8" d="M111.56,105.65c-.2-.58-.43-1.13-.67-1.66h0C111.14,104.52,111.36,105.07,111.56,105.65Z"/><path class="cls-5" d="M115.09,129.8c.09,1,.15,1.84.16,2.38C115.24,131.65,115.18,130.83,115.09,129.8Z"/><path class="cls-8" d="M115.09,129.8c.09,1,.15,1.84.16,2.38C115.24,131.65,115.18,130.83,115.09,129.8Z"/><path class="cls-5" d="M115.24,132.72a4.24,4.24,0,0,0,0-.53,4.24,4.24,0,0,1,0,.53Z"/><path class="cls-8" d="M115.24,132.72a4.24,4.24,0,0,0,0-.53,4.24,4.24,0,0,1,0,.53Z"/><path class="cls-5" d="M107.48,102.48l.19,0Z"/><path class="cls-8" d="M107.48,102.48l.19,0Z"/><path class="cls-5" d="M108.14,102.37l.14,0Z"/><path class="cls-8" d="M108.14,102.37l.14,0Z"/><path class="cls-5" d="M106.78,102.61l.19,0Z"/><path class="cls-8" d="M106.78,102.61l.19,0Z"/><path class="cls-5" d="M109.24,102.2h0Z"/><path class="cls-8" d="M109.24,102.2h0Z"/><path class="cls-5" d="M109.58,102.17h0Z"/><path class="cls-8" d="M109.58,102.17h0Z"/><path class="cls-5" d="M109.83,102.17h0Z"/><path class="cls-8" d="M109.83,102.17h0Z"/><path class="cls-5" d="M108.81,102.26h0Z"/><path class="cls-8" d="M108.81,102.26h0Z"/><path class="cls-5" d="M110.79,103.75h0c-.25-.54-.52-1.05-.81-1.54C110.27,102.7,110.53,103.22,110.79,103.75Z"/><path class="cls-8" d="M110.79,103.75h0c-.25-.54-.52-1.05-.81-1.54C110.27,102.7,110.53,103.22,110.79,103.75Z"/><path class="cls-7" d="M110.79,103.75c-.25-.54-.52-1.05-.81-1.54,0,0,0,0-.1,0h-.3l-.23,0h-.11l-.42.05h0l-.53.08-.14,0-.47.08-.19,0-.5.09-.19,0-.74.14c.17.7.35,1.4.55,2.09.62,2.19,1.37,4.34,2.11,6.49,1.5,4.31,2.81,8.6,3.93,13,.74,2.89,1.39,5.74,1.93,8.57l.67-.2a4.24,4.24,0,0,0,0-.53c0-.54-.07-1.36-.16-2.38q0-.38-.08-.8c-.08-.84-.18-1.78-.3-2.79-.08-.67-.16-1.38-.25-2.11s-.18-1.48-.28-2.24c-.15-1.14-.3-2.31-.46-3.46-.11-.77-.21-1.54-.32-2.3a99.08,99.08,0,0,0-1.84-10.45c-.2-.58-.43-1.13-.67-1.66Z"/><path class="cls-8" d="M110.79,103.75c-.25-.54-.52-1.05-.81-1.54,0,0,0,0-.1,0h-.3l-.23,0h-.11l-.42.05h0l-.53.08-.14,0-.47.08-.19,0-.5.09-.19,0-.74.14c.17.7.35,1.4.55,2.09.62,2.19,1.37,4.34,2.11,6.49,1.5,4.31,2.81,8.6,3.93,13,.74,2.89,1.39,5.74,1.93,8.57l.67-.2a4.24,4.24,0,0,0,0-.53c0-.54-.07-1.36-.16-2.38q0-.38-.08-.8c-.08-.84-.18-1.78-.3-2.79-.08-.67-.16-1.38-.25-2.11s-.18-1.48-.28-2.24c-.15-1.14-.3-2.31-.46-3.46-.11-.77-.21-1.54-.32-2.3a99.08,99.08,0,0,0-1.84-10.45c-.2-.58-.43-1.13-.67-1.66Z"/><path class="cls-5" d="M22.45,99.13l-.58-.28h0l.58.28Z"/><path class="cls-8" d="M22.45,99.13l-.58-.28h0l.58.28Z"/><path class="cls-7" d="M21.87,98.85q.07.57.15,1.14c.15-.28.28-.58.44-.86Z"/><path class="cls-8" d="M21.87,98.85q.07.57.15,1.14c.15-.28.28-.58.44-.86Z"/><path class="cls-7" d="M11.54,132.74a.1.1,0,0,0,0,0l.12,0Z"/><path class="cls-8" d="M11.54,132.74a.1.1,0,0,0,0,0l.12,0Z"/><path class="cls-9" d="M97.29,133.37c0,1.17,0,2.44.11,3.79l2.34-.48c-.29-1.84-.57-3.82-.8-5.8A23,23,0,0,1,97.29,133.37Z"/><path class="cls-5" d="M38.3,30.05l0,0q-.05.65-.1,1.35Q38.23,30.72,38.3,30.05Z"/><path class="cls-5" d="M79,61.91l-.15.32Z"/><path class="cls-5" d="M80.16,57.18c0,.13,0,.26,0,.39C80.13,57.44,80.15,57.31,80.16,57.18Z"/><path class="cls-5" d="M79.68,59.92l-.08.26C79.62,60.1,79.65,60,79.68,59.92Z"/><path class="cls-5" d="M79.36,60.93l-.14.37Z"/><path class="cls-5" d="M80,58.48c0,.12,0,.25-.06.37C79.94,58.73,80,58.6,80,58.48Z"/><path class="cls-3" d="M38,34l0-.06q0-1.31.11-2.49C38.11,32.25,38.06,33.1,38,34Z"/><path class="cls-6" d="M38,34l0-.06q0-1.31.11-2.49C38.11,32.25,38.06,33.1,38,34Z"/><path class="cls-5" d="M38.07,33.94A43.26,43.26,0,0,1,50.86,21.32c-.42.2-.81.39-1.16.59-.89.51-1.77,1-2.63,1.44h0a28.21,28.21,0,0,0-7.54,5.24h0a16.6,16.6,0,0,0-1.23,1.47q-.07.67-.13,1.39Q38.1,32.62,38.07,33.94Z"/><path class="cls-6" d="M38.07,33.94A43.26,43.26,0,0,1,50.86,21.32c-.42.2-.81.39-1.16.59-.89.51-1.77,1-2.63,1.44h0a28.21,28.21,0,0,0-7.54,5.24h0a16.6,16.6,0,0,0-1.23,1.47q-.07.67-.13,1.39Q38.1,32.62,38.07,33.94Z"/><path class="cls-3" d="M79.6,60.18q-.11.39-.24.75C79.45,60.69,79.53,60.44,79.6,60.18Z"/><path class="cls-4" d="M79.6,60.18q-.11.39-.24.75C79.45,60.69,79.53,60.44,79.6,60.18Z"/><path class="cls-6" d="M79.6,60.18q-.11.39-.24.75C79.45,60.69,79.53,60.44,79.6,60.18Z"/><path class="cls-3" d="M78.39,63c.15-.25.29-.5.42-.76-.13.26-.27.51-.42.76Z"/><path class="cls-4" d="M78.39,63c.15-.25.29-.5.42-.76-.13.26-.27.51-.42.76Z"/><path class="cls-6" d="M78.39,63c.15-.25.29-.5.42-.76-.13.26-.27.51-.42.76Z"/><path class="cls-3" d="M80.29,55.8c0,.49-.08.94-.13,1.38C80.21,56.74,80.26,56.29,80.29,55.8Z"/><path class="cls-4" d="M80.29,55.8c0,.49-.08.94-.13,1.38C80.21,56.74,80.26,56.29,80.29,55.8Z"/><path class="cls-6" d="M80.29,55.8c0,.49-.08.94-.13,1.38C80.21,56.74,80.26,56.29,80.29,55.8Z"/><path class="cls-3" d="M79.22,61.3c-.08.21-.17.41-.26.61C79.05,61.71,79.14,61.51,79.22,61.3Z"/><path class="cls-4" d="M79.22,61.3c-.08.21-.17.41-.26.61C79.05,61.71,79.14,61.51,79.22,61.3Z"/><path class="cls-6" d="M79.22,61.3c-.08.21-.17.41-.26.61C79.05,61.71,79.14,61.51,79.22,61.3Z"/><path class="cls-3" d="M80.12,57.57c0,.31-.09.62-.14.91Q80.05,58,80.12,57.57Z"/><path class="cls-4" d="M80.12,57.57c0,.31-.09.62-.14.91Q80.05,58,80.12,57.57Z"/><path class="cls-6" d="M80.12,57.57c0,.31-.09.62-.14.91Q80.05,58,80.12,57.57Z"/><path class="cls-3" d="M79.92,58.85c-.07.37-.15.73-.24,1.08C79.77,59.58,79.85,59.22,79.92,58.85Z"/><path class="cls-4" d="M79.92,58.85c-.07.37-.15.73-.24,1.08C79.77,59.58,79.85,59.22,79.92,58.85Z"/><path class="cls-6" d="M79.92,58.85c-.07.37-.15.73-.24,1.08C79.77,59.58,79.85,59.22,79.92,58.85Z"/><path class="cls-5" d="M72.6,35.39a53.63,53.63,0,0,0-7.75-8.16,49.72,49.72,0,0,1-4.56-4.44,26.17,26.17,0,0,1-3-3.69c1.68,6.84,7.24,11.52,11.91,16.75A16.63,16.63,0,0,1,72.6,35.39Z"/><path class="cls-6" d="M72.6,35.39a53.63,53.63,0,0,0-7.75-8.16,49.72,49.72,0,0,1-4.56-4.44,26.17,26.17,0,0,1-3-3.69c1.68,6.84,7.24,11.52,11.91,16.75A16.63,16.63,0,0,1,72.6,35.39Z"/><path class="cls-5" d="M75.1,39q-.64-1-1.36-2.05a23.58,23.58,0,0,0-3.07.64q.71.86,1.36,1.76A8.59,8.59,0,0,1,75.1,39Z"/><path class="cls-6" d="M75.1,39q-.64-1-1.36-2.05a23.58,23.58,0,0,0-3.07.64q.71.86,1.36,1.76A8.59,8.59,0,0,1,75.1,39Z"/><path class="cls-5" d="M76.19,44.53a4.7,4.7,0,0,1-.57.36l-.16.27a1.89,1.89,0,0,1-.17.33A35.09,35.09,0,0,1,76.35,49l.39.13a1,1,0,0,1,.46-.21,1.71,1.71,0,0,1,.35,0,.73.73,0,0,1,.38.11h0a.73.73,0,0,1,.5.8.71.71,0,0,1-.13.32,2.57,2.57,0,0,1,.43,3.18,7.94,7.94,0,0,1-1.28,1.81c.21,1.45.4,2.89.58,4.3.15,1.19.26,2.38.31,3.57.15-.25.29-.5.42-.76l.15-.32c.09-.2.18-.4.26-.61l.14-.37q.13-.36.24-.75l.08-.26c.09-.34.17-.7.24-1.08,0-.12,0-.24.06-.37,0-.29.1-.59.14-.91,0-.13,0-.26,0-.39,0-.44.09-.89.13-1.38l0-.23c-.66-3.8-1.72-7.49-2.59-11.28A3.78,3.78,0,0,1,76.19,44.53Z"/><path class="cls-6" d="M76.19,44.53a4.7,4.7,0,0,1-.57.36l-.16.27a1.89,1.89,0,0,1-.17.33A35.09,35.09,0,0,1,76.35,49l.39.13a1,1,0,0,1,.46-.21,1.71,1.71,0,0,1,.35,0,.73.73,0,0,1,.38.11h0a.73.73,0,0,1,.5.8.71.71,0,0,1-.13.32,2.57,2.57,0,0,1,.43,3.18,7.94,7.94,0,0,1-1.28,1.81c.21,1.45.4,2.89.58,4.3.15,1.19.26,2.38.31,3.57.15-.25.29-.5.42-.76l.15-.32c.09-.2.18-.4.26-.61l.14-.37q.13-.36.24-.75l.08-.26c.09-.34.17-.7.24-1.08,0-.12,0-.24.06-.37,0-.29.1-.59.14-.91,0-.13,0-.26,0-.39,0-.44.09-.89.13-1.38l0-.23c-.66-3.8-1.72-7.49-2.59-11.28A3.78,3.78,0,0,1,76.19,44.53Z"/><path class="cls-5" d="M59.58,58.5A4.88,4.88,0,0,0,63,56.4a.15.15,0,0,0-.13-.22c-1.57.17-2.94.89-4.56.45-.89-.24-1.77-.72-2.52.06a.11.11,0,0,0,0,.17C57.15,57.48,58,58.61,59.58,58.5Z"/><path class="cls-6" d="M59.58,58.5A4.88,4.88,0,0,0,63,56.4a.15.15,0,0,0-.13-.22c-1.57.17-2.94.89-4.56.45-.89-.24-1.77-.72-2.52.06a.11.11,0,0,0,0,.17C57.15,57.48,58,58.61,59.58,58.5Z"/><path class="cls-5" d="M58,95.75c-1.1-.3-2.18-.89-3.11.08a.13.13,0,0,0,0,.2c1.67.77,2.69,2.16,4.67,2a6,6,0,0,0,4.18-2.58.19.19,0,0,0-.16-.27C61.71,95.41,60,96.29,58,95.75Z"/><path class="cls-6" d="M58,95.75c-1.1-.3-2.18-.89-3.11.08a.13.13,0,0,0,0,.2c1.67.77,2.69,2.16,4.67,2a6,6,0,0,0,4.18-2.58.19.19,0,0,0-.16-.27C61.71,95.41,60,96.29,58,95.75Z"/><path class="cls-5" d="M58,55.48a2,2,0,0,0,.32.14.73.73,0,0,0,.37,0h.07a.71.71,0,0,0,.68-.63.73.73,0,0,0-.5-.8h0a.73.73,0,0,0-.38-.11,1.72,1.72,0,0,0-.35,0,.85.85,0,0,0-.57.29.59.59,0,0,0-.08.64A.87.87,0,0,0,58,55.48Z"/><path class="cls-10" d="M58,55.48a2,2,0,0,0,.32.14.73.73,0,0,0,.37,0h.07a.71.71,0,0,0,.68-.63.73.73,0,0,0-.5-.8h0a.73.73,0,0,0-.38-.11,1.72,1.72,0,0,0-.35,0,.85.85,0,0,0-.57.29.59.59,0,0,0-.08.64A.87.87,0,0,0,58,55.48Z"/><path class="cls-5" d="M42.94,49.21a.74.74,0,0,0-.29-.19h0a.73.73,0,0,0-.38-.11,1.71,1.71,0,0,0-.35,0,.85.85,0,0,0-.57.29.59.59,0,0,0-.08.64.68.68,0,0,0,.23.28A4.31,4.31,0,0,1,42.94,49.21Z"/><path class="cls-10" d="M42.94,49.21a.74.74,0,0,0-.29-.19h0a.73.73,0,0,0-.38-.11,1.71,1.71,0,0,0-.35,0,.85.85,0,0,0-.57.29.59.59,0,0,0-.08.64.68.68,0,0,0,.23.28A4.31,4.31,0,0,1,42.94,49.21Z"/><path class="cls-5" d="M78.35,50.14a.71.71,0,0,0,.13-.32A.73.73,0,0,0,78,49h0a.73.73,0,0,0-.38-.11,1.71,1.71,0,0,0-.35,0,1,1,0,0,0-.46.21A4.44,4.44,0,0,1,78.35,50.14Z"/><path class="cls-6" d="M78.35,50.14a.71.71,0,0,0,.13-.32A.73.73,0,0,0,78,49h0a.73.73,0,0,0-.38-.11,1.71,1.71,0,0,0-.35,0,1,1,0,0,0-.46.21A4.44,4.44,0,0,1,78.35,50.14Z"/><path class="cls-10" d="M78.35,50.14a.71.71,0,0,0,.13-.32A.73.73,0,0,0,78,49h0a.73.73,0,0,0-.38-.11,1.71,1.71,0,0,0-.35,0,1,1,0,0,0-.46.21A4.44,4.44,0,0,1,78.35,50.14Z"/><path class="cls-7" d="M73.27,111.1c-1.76,0-3.51,0-5.27-.07-7.52-.19-15-.63-22.5-1.51-5.25-.62-13.23.1-12.1,7.56.62,4.13,4.34,6.4,8.14,7.9a42.52,42.52,0,0,0,11.57,4.83A41.49,41.49,0,0,0,71.24,131a15.76,15.76,0,0,1-.91-2.05c0-.13-.61-2-.14-1.48a4.83,4.83,0,0,0,1.19,1,15.84,15.84,0,0,1-.94-2.12c0-.13-.61-2-.14-1.48,3,3.39,5.38-.3,6-3.4a28.37,28.37,0,0,0-1.72-6C74.07,113.92,73.64,112.48,73.27,111.1Z"/><path class="cls-11" d="M73.27,111.1c-1.76,0-3.51,0-5.27-.07-7.52-.19-15-.63-22.5-1.51-5.25-.62-13.23.1-12.1,7.56.62,4.13,4.34,6.4,8.14,7.9a42.52,42.52,0,0,0,11.57,4.83A41.49,41.49,0,0,0,71.24,131a15.76,15.76,0,0,1-.91-2.05c0-.13-.61-2-.14-1.48a4.83,4.83,0,0,0,1.19,1,15.84,15.84,0,0,1-.94-2.12c0-.13-.61-2-.14-1.48,3,3.39,5.38-.3,6-3.4a28.37,28.37,0,0,0-1.72-6C74.07,113.92,73.64,112.48,73.27,111.1Z"/><path class="cls-12" d="M32.36,19.46c.42.19.86.38,1.3.55a58.27,58.27,0,0,0,7.41,2.24l-.29.34A32,32,0,0,1,43,20.3a37.79,37.79,0,0,0-5.1,10.3l.07-.11.3-.4,0,0a16.6,16.6,0,0,1,1.23-1.47l-.81-.25a41.13,41.13,0,0,1,2.9-5.94c1.8.4,3.62.72,5.45,1,.86-.46,1.74-.93,2.63-1.44.34-.2.74-.39,1.16-.59,1.7-.81,3.94-1.67,6.09-2.7l.31.47a26.17,26.17,0,0,0,3,3.69,58.45,58.45,0,0,0,9.32,7.15,67.52,67.52,0,0,1-8.36-6.23,82.29,82.29,0,0,0,17.42-3.28,21,21,0,0,1,5.16,9.45c-1.27-4.47-3.4-8.69-7.43-11.29a9.57,9.57,0,0,1,2.83,1.68,91.66,91.66,0,0,0,10.19-3.81c-.12-.21-.23-.42-.35-.63l-.38-.61q-.54-.88-1.13-1.72l-.45-.64c-.53-.73-1.08-1.45-1.67-2.14A28.25,28.25,0,0,0,82,7.35a24.44,24.44,0,0,0-4-2.69h0L77,4.1A37.78,37.78,0,0,0,66.77.39c-.41-.08-.82-.15-1.24-.21h-.06l-.8-.09h-.11a11.8,11.8,0,0,0-5.07.51l-.37.14-.06,0L59,.78a7.83,7.83,0,0,0-.89.47c-.2.12-.39.26-.58.4l-.24.19-.11.08c-3.46,2.93-3.51,8.54-2,13A14.61,14.61,0,0,1,54.54,13a9.07,9.07,0,0,1-.66-1.43h0a8.1,8.1,0,0,1-.27-.9v-.08h0A12.8,12.8,0,0,1,54.3,3C45.78,3.58,38.67,9.07,34,16.12l-.3.48a52.21,52.21,0,0,0-2.25,5.15l0,.06q-.32.85-.6,1.69v0c-.14.42-.27.83-.39,1.24A54,54,0,0,1,32.36,19.46Z"/><path class="cls-12" d="M28.23,44.35c0,.35.09.7.14,1.05a121.89,121.89,0,0,0,8.89,31.11C39,80.43,41.49,85,43.58,88.79h0l0,0a14.85,14.85,0,0,0,2.8-4l.31-.63.11-.23h0a25.76,25.76,0,0,1-3.21-4.72C39.71,73,36.32,66.62,34.71,59.4a50.27,50.27,0,0,1-1.09-7.61A20.45,20.45,0,0,1,31.73,46c-.34-2.2-.72-5,1.55-6.11a31.82,31.82,0,0,1,3.82-12.12c-.5-.18-1-.34-1.5-.53s-1.22-.47-1.82-.71l-.53-.28L30.4,24.78l-.12.4-.07.24q-.23.77-.43,1.53l0,.07c-.13.51-.25,1-.37,1.53l-.07.34c-.11.5-.21,1-.3,1.49-.18,1-.33,2.06-.46,3.13,0,.25,0,.51-.07.76-.09.86-.16,1.72-.21,2.61,0,.05,0,.1,0,.16C28.13,39.39,28.12,41.84,28.23,44.35Z"/><path class="cls-12" d="M38,26.33l-.17.28Z"/><path class="cls-12" d="M38.94,24.89l-.29.42Z"/><path class="cls-12" d="M39.65,24l.38-.49Z"/><path class="cls-3" d="M74.6,85a7.46,7.46,0,0,1-.65-.46l0,.07c.18.28.36.55.56.82Z"/><path class="cls-4" d="M74.6,85a7.46,7.46,0,0,1-.65-.46l0,.07c.18.28.36.55.56.82Z"/><path class="cls-6" d="M74.6,85a7.46,7.46,0,0,1-.65-.46l0,.07c.18.28.36.55.56.82Z"/><path class="cls-5" d="M74.5,85.46c-.2-.27-.38-.54-.56-.82-.27.82-.52,1.65-.73,2.48-1.81,7-2.4,12.66-.78,20.45l1.14-.05A57.42,57.42,0,0,1,74.5,85.46Z"/><path class="cls-6" d="M74.5,85.46c-.2-.27-.38-.54-.56-.82-.27.82-.52,1.65-.73,2.48-1.81,7-2.4,12.66-.78,20.45l1.14-.05A57.42,57.42,0,0,1,74.5,85.46Z"/><path class="cls-5" d="M73.57,107.52l-1.14.05h0l1.14,0Z"/><path class="cls-13" d="M73.57,107.52l-1.14.05h0l1.14,0Z"/><path class="cls-7" d="M103.12,118.65a50.13,50.13,0,0,0,.78-8.12c-.06.81-.11,1.63-.21,2.44v0h0c-.12,1-.27,2-.45,3.05a38.27,38.27,0,0,1-4.51,12.78q.1,1,.22,2A39.11,39.11,0,0,0,103.12,118.65Z"/><path class="cls-13" d="M103.12,118.65a50.13,50.13,0,0,0,.78-8.12c-.06.81-.11,1.63-.21,2.44v0h0c-.12,1-.27,2-.45,3.05a38.27,38.27,0,0,1-4.51,12.78q.1,1,.22,2A39.11,39.11,0,0,0,103.12,118.65Z"/><path class="cls-7" d="M71.24,131a21.33,21.33,0,0,0,1.69,2.73,14.86,14.86,0,0,0,9.65,5.73q4.41-.5,9-1.25a16.11,16.11,0,0,0,5.7-4.83c0-.9,0-1.75.06-2.54a16.16,16.16,0,0,1-5.45,4.67c-.08.06-.15.14-.23.2a3,3,0,0,1-1,.37,14.64,14.64,0,0,1-4.48,1A15.21,15.21,0,0,1,73,131.12l-.28-.41-.2,0C72.12,130.85,71.68,130.91,71.24,131Z"/><path class="cls-13" d="M71.24,131a21.33,21.33,0,0,0,1.69,2.73,14.86,14.86,0,0,0,9.65,5.73q4.41-.5,9-1.25a16.11,16.11,0,0,0,5.7-4.83c0-.9,0-1.75.06-2.54a16.16,16.16,0,0,1-5.45,4.67c-.08.06-.15.14-.23.2a3,3,0,0,1-1,.37,14.64,14.64,0,0,1-4.48,1A15.21,15.21,0,0,1,73,131.12l-.28-.41-.2,0C72.12,130.85,71.68,130.91,71.24,131Z"/><path class="cls-7" d="M73.27,111.1h1q-.4-1.77-.68-3.58l-1.14,0Q72.78,109.26,73.27,111.1Z"/><path class="cls-13" d="M73.27,111.1h1q-.4-1.77-.68-3.58l-1.14,0Q72.78,109.26,73.27,111.1Z"/><path class="cls-9" d="M97.29,133.37a23,23,0,0,0,1.65-2.49q-.12-1-.22-2a22.45,22.45,0,0,1-1.36,2C97.31,131.62,97.29,132.47,97.29,133.37Z"/><path class="cls-13" d="M97.29,133.37a23,23,0,0,0,1.65-2.49q-.12-1-.22-2a22.45,22.45,0,0,1-1.36,2C97.31,131.62,97.29,132.47,97.29,133.37Z"/><path class="cls-7" d="M73.27,111.1c.37,1.38.8,2.82,1.3,4.36a28.37,28.37,0,0,1,1.72,6,8.42,8.42,0,0,0,.13-.89c.24-2.85-1-5.07-1.74-7.7q-.23-.87-.43-1.76Z"/><path class="cls-11" d="M73.27,111.1c.37,1.38.8,2.82,1.3,4.36a28.37,28.37,0,0,1,1.72,6,8.42,8.42,0,0,0,.13-.89c.24-2.85-1-5.07-1.74-7.7q-.23-.87-.43-1.76Z"/><path class="cls-13" d="M73.27,111.1c.37,1.38.8,2.82,1.3,4.36a28.37,28.37,0,0,1,1.72,6,8.42,8.42,0,0,0,.13-.89c.24-2.85-1-5.07-1.74-7.7q-.23-.87-.43-1.76Z"/><path class="cls-7" d="M70.33,128.93a15.76,15.76,0,0,0,.91,2.05c.44-.07.88-.14,1.32-.23l.2,0a20.89,20.89,0,0,1-1.37-2.25,4.83,4.83,0,0,1-1.19-1C69.73,126.93,70.29,128.8,70.33,128.93Z"/><path class="cls-11" d="M70.33,128.93a15.76,15.76,0,0,0,.91,2.05c.44-.07.88-.14,1.32-.23l.2,0a20.89,20.89,0,0,1-1.37-2.25,4.83,4.83,0,0,1-1.19-1C69.73,126.93,70.29,128.8,70.33,128.93Z"/><path class="cls-13" d="M70.33,128.93a15.76,15.76,0,0,0,.91,2.05c.44-.07.88-.14,1.32-.23l.2,0a20.89,20.89,0,0,1-1.37-2.25,4.83,4.83,0,0,1-1.19-1C69.73,126.93,70.29,128.8,70.33,128.93Z"/><path class="cls-3" d="M33.36,39.84a4.09,4.09,0,0,1,3.54.09,5.37,5.37,0,0,1,1.16.8C38,38.2,38,36,38.07,33.94L38,34c0-.9.09-1.75.15-2.56q0-.7.1-1.35l-.3.4-.07.11A37.79,37.79,0,0,1,43,20.3a32,32,0,0,0-2.23,2.31c-.25.29-.5.57-.74.86l-.38.49c-.24.31-.49.62-.71.94l-.29.42c-.24.34-.47.68-.69,1l-.17.28c-.24.39-.48.77-.69,1.16h0a31.81,31.81,0,0,0-3.82,12.12Z"/><path class="cls-5" d="M37.86,55a2.71,2.71,0,0,1-.48,0A2.74,2.74,0,0,0,37.86,55Z"/><path class="cls-5" d="M36.68,54.89a2.77,2.77,0,0,1-.56-.22A2.77,2.77,0,0,0,36.68,54.89Z"/><path class="cls-5" d="M34,52.51a15.06,15.06,0,0,1-1.14-2.33,8.15,8.15,0,0,0,2.92,2.07,5.61,5.61,0,0,0,2.88.42c0,.79.06,1.77.09,2a2.14,2.14,0,0,1-.9.32,2.11,2.11,0,0,0,.85-.28l.07,1.09c.3,4.34,1.19,6.7,3.35,9.15a60.16,60.16,0,0,0,6.21,5.61l0,0c1.45,1.21,3.09,2.58,5,4.23a9.28,9.28,0,0,0,12.33,0c2.26-2,4.16-3.54,5.79-4.91h0c3.4-2.84,5.55-4.71,6.88-6.91,0-1.19-.15-2.38-.31-3.57-.18-1.41-.37-2.85-.58-4.3a8.35,8.35,0,0,1-4.78,2.71,5.7,5.7,0,0,1-2.11-.25c-2.78-.31-4.56-3-3.19-5.54,1.27-2.36,4.88-3.33,7.4-3.26a6.15,6.15,0,0,1,1.53.24,35.09,35.09,0,0,0-1.07-3.54,2.34,2.34,0,0,1-.26.36,2.8,2.8,0,0,1-.41.36,3.68,3.68,0,0,1-.76.42A4.72,4.72,0,0,1,72,47.2c-1.6.16-4.09-.47-4.87-1.82a1.67,1.67,0,0,1-.18-.46l-.08,0-.06.08c-.19.25-.52.16-.53-.1a.45.45,0,0,1-.28-.58,4.58,4.58,0,0,1,.93-1.66A9.17,9.17,0,0,1,72,39.37q-.65-.9-1.36-1.76c-1.83.5-3.33,1.09-4.36,1.3-1.66.34-2.48-1.63-.83-2.11,1.47-.43,2.66-.74,3.67-1-4.66-5.23-10.22-9.9-11.91-16.75l-.31-.47c-2.15,1-4.38,1.89-6.09,2.7A43.26,43.26,0,0,0,38.07,33.94c-.06,2-.06,4.27,0,6.79a5.37,5.37,0,0,0-1.16-.8,4.09,4.09,0,0,0-3.54-.09l-.09,0C31,41,31.39,43.81,31.73,46a20.45,20.45,0,0,0,1.9,5.79C33.75,52,33.89,52.28,34,52.51ZM40.79,43a.1.1,0,0,1,.15-.14,1.62,1.62,0,0,0,1.61.18,2.43,2.43,0,0,1-.11-2.82c2-2.83,8.94-.51,10.73,2.41a4.58,4.58,0,0,1,.93,1.66.45.45,0,0,1-.28.58c0,.26-.34.35-.53.1l-.06-.08-.08,0a1.67,1.67,0,0,1-.18.46,2.88,2.88,0,0,1-1,1,2.29,2.29,0,0,1-.32.24,3,3,0,0,1-.8.28,7,7,0,0,1-2.74.35,4.72,4.72,0,0,1-3.6-2.31,4.7,4.7,0,0,1-.57-.36A3.46,3.46,0,0,1,40.79,43Zm6.32,14.79A8.69,8.69,0,0,1,41,53.33a2.57,2.57,0,0,1,.4-3.16.68.68,0,0,1-.23-.28.59.59,0,0,1,.08-.64.85.85,0,0,1,.57-.29,1.71,1.71,0,0,1,.35,0,.73.73,0,0,1,.38.11h0a.74.74,0,0,1,.29.19A6.1,6.1,0,0,1,45,48.79c2.52-.07,6.13.9,7.4,3.26,1.37,2.54-.41,5.23-3.19,5.54A5.7,5.7,0,0,1,47.11,57.84Zm19,4.56a11.41,11.41,0,0,0,3.84-.4l-.15-.2c-.21-.3.16-.67.47-.57.55.18,1.06.91.72,1.46a.44.44,0,0,1-.69.07.84.84,0,0,1-.15-.29l-.11.08c-.63.66-2.86,3.5-3,3.76A14.34,14.34,0,0,1,62,71l.16.07a1.37,1.37,0,0,1,.76,1c.32,1.66-1.87,2.2-3.05,2.34a4.06,4.06,0,0,1-3-.45,1.53,1.53,0,0,1-.29-2.36,2.22,2.22,0,0,1,.71-.46L57,71a14,14,0,0,1-4.39-3.66h0v0c-.46-.55-.88-1.1-1.25-1.64a18.26,18.26,0,0,0-2.43-3.12.74.74,0,0,1-.11.19.44.44,0,0,1-.69-.07c-.34-.55.16-1.29.72-1.46.31-.1.67.27.47.57l-.16.23a10.61,10.61,0,0,0,3.69.38c1.32-.21,2.58-.72,3.9-.94a3.57,3.57,0,0,1,2.74.91,3.57,3.57,0,0,1,2.74-.91C63.53,61.68,64.79,62.19,66.11,62.4Zm-8.5-8a.85.85,0,0,1,.57-.29,1.72,1.72,0,0,1,.35,0,.73.73,0,0,1,.38.11h0a.73.73,0,0,1,.5.8.71.71,0,0,1-.68.63h-.07a.73.73,0,0,1-.37,0,2,2,0,0,1-.32-.14.87.87,0,0,1-.48-.43A.59.59,0,0,1,57.61,54.41Zm-1.85,2.28c.76-.79,1.63-.31,2.52-.06,1.61.44,3-.28,4.56-.45a.15.15,0,0,1,.13.22,4.88,4.88,0,0,1-3.4,2.1c-1.61.1-2.43-1-3.79-1.65A.11.11,0,0,1,55.76,56.69ZM42.82,36c3.9-.68,4.62-1.29,11.71.78,1.65.48.83,2.44-.83,2.11S49,37.15,45.26,36.85C44.26,36.77,37.56,36.94,42.82,36ZM33.5,42.17a2,2,0,0,1,2.8.74,6.48,6.48,0,0,1,1.16,3.22,4.1,4.1,0,0,1-1,3.15c-.07.1-.23,0-.22-.11a9.86,9.86,0,0,0-.38-3.31,4.34,4.34,0,0,0-.79-1.34c0,.16,0,.31,0,.47a1.21,1.21,0,0,1-2.28.72A2.77,2.77,0,0,1,33.5,42.17Z"/><path class="cls-5" d="M35.94,54.57a3.62,3.62,0,0,1-.36-.24A3.65,3.65,0,0,0,35.94,54.57Z"/><path class="cls-5" d="M36.68,54.89a3.88,3.88,0,0,0,.6.11A3.75,3.75,0,0,1,36.68,54.89Z"/><path class="cls-5" d="M34.91,53.7q-.17-.19-.33-.4C34.68,53.44,34.79,53.57,34.91,53.7Z"/><path class="cls-5" d="M34.45,53.14c-.14-.19-.27-.39-.4-.59Q34.25,52.86,34.45,53.14Z"/><path class="cls-5" d="M35.4,54.18c-.11-.1-.22-.2-.33-.31Z"/><path class="cls-3" d="M37.38,55h0Z"/><path class="cls-6" d="M37.38,55h0Z"/><path class="cls-3" d="M37.88,55h0Z"/><path class="cls-6" d="M37.88,55h0Z"/><path class="cls-3" d="M34.05,52.55l0,0Z"/><path class="cls-6" d="M34.05,52.55l0,0Z"/><path class="cls-3" d="M36.12,54.67l-.17-.1Z"/><path class="cls-6" d="M36.12,54.67l-.17-.1Z"/><path class="cls-3" d="M35.58,54.33l-.18-.15Z"/><path class="cls-6" d="M35.58,54.33l-.18-.15Z"/><path class="cls-3" d="M35.07,53.87l-.16-.17Z"/><path class="cls-6" d="M35.07,53.87l-.16-.17Z"/><path class="cls-3" d="M34.57,53.3l-.12-.16Z"/><path class="cls-6" d="M34.57,53.3l-.12-.16Z"/><path class="cls-5" d="M38.78,54.67c0-.23-.07-1.21-.09-2a5.61,5.61,0,0,1-2.88-.42,8.15,8.15,0,0,1-2.92-2.07A15.06,15.06,0,0,0,34,52.51l0,0c.13.21.26.4.4.59l.12.16q.16.21.33.4l.16.17c.11.11.22.21.33.31l.18.15a3.62,3.62,0,0,0,.36.24l.17.1a2.77,2.77,0,0,0,.56.22,3.75,3.75,0,0,0,.6.11h.1a2.71,2.71,0,0,0,.48,0h0A2.14,2.14,0,0,0,38.78,54.67Z"/><path class="cls-6" d="M38.78,54.67c0-.23-.07-1.21-.09-2a5.61,5.61,0,0,1-2.88-.42,8.15,8.15,0,0,1-2.92-2.07A15.06,15.06,0,0,0,34,52.51l0,0c.13.21.26.4.4.59l.12.16q.16.21.33.4l.16.17c.11.11.22.21.33.31l.18.15a3.62,3.62,0,0,0,.36.24l.17.1a2.77,2.77,0,0,0,.56.22,3.75,3.75,0,0,0,.6.11h.1a2.71,2.71,0,0,0,.48,0h0A2.14,2.14,0,0,0,38.78,54.67Z"/><path class="cls-5" d="M35.13,45c0-.16,0-.31,0-.47a4.34,4.34,0,0,1,.79,1.34,9.86,9.86,0,0,1,.38,3.31c0,.13.15.2.22.11a4.1,4.1,0,0,0,1-3.15,6.48,6.48,0,0,0-1.16-3.22,2,2,0,0,0-2.8-.74,2.77,2.77,0,0,0-.65,3.54A1.21,1.21,0,0,0,35.13,45Z"/><path class="cls-6" d="M35.13,45c0-.16,0-.31,0-.47a4.34,4.34,0,0,1,.79,1.34,9.86,9.86,0,0,1,.38,3.31c0,.13.15.2.22.11a4.1,4.1,0,0,0,1-3.15,6.48,6.48,0,0,0-1.16-3.22,2,2,0,0,0-2.8-.74,2.77,2.77,0,0,0-.65,3.54A1.21,1.21,0,0,0,35.13,45Z"/><path class="cls-5" d="M52.41,52c-1.27-2.36-4.88-3.33-7.4-3.26a6.1,6.1,0,0,0-2.07.43.72.72,0,0,1,.21.61.71.71,0,0,1-.68.63H42.4a.73.73,0,0,1-.37,0,2,2,0,0,1-.32-.14,1.43,1.43,0,0,1-.25-.15,2.57,2.57,0,0,0-.4,3.16,8.69,8.69,0,0,0,6.06,4.51,5.7,5.7,0,0,0,2.11-.25C52,57.28,53.78,54.59,52.41,52Z"/><path class="cls-14" d="M52.41,52c-1.27-2.36-4.88-3.33-7.4-3.26a6.1,6.1,0,0,0-2.07.43.72.72,0,0,1,.21.61.71.71,0,0,1-.68.63H42.4a.73.73,0,0,1-.37,0,2,2,0,0,1-.32-.14,1.43,1.43,0,0,1-.25-.15,2.57,2.57,0,0,0-.4,3.16,8.69,8.69,0,0,0,6.06,4.51,5.7,5.7,0,0,0,2.11-.25C52,57.28,53.78,54.59,52.41,52Z"/><path class="cls-5" d="M42,50.45a.73.73,0,0,0,.37,0h.07a.71.71,0,0,0,.68-.63.72.72,0,0,0-.21-.61,4.31,4.31,0,0,0-1.49,1,1.43,1.43,0,0,0,.25.15A2,2,0,0,0,42,50.45Z"/><path class="cls-10" d="M42,50.45a.73.73,0,0,0,.37,0h.07a.71.71,0,0,0,.68-.63.72.72,0,0,0-.21-.61,4.31,4.31,0,0,0-1.49,1,1.43,1.43,0,0,0,.25.15A2,2,0,0,0,42,50.45Z"/><path class="cls-14" d="M42,50.45a.73.73,0,0,0,.37,0h.07a.71.71,0,0,0,.68-.63.72.72,0,0,0-.21-.61,4.31,4.31,0,0,0-1.49,1,1.43,1.43,0,0,0,.25.15A2,2,0,0,0,42,50.45Z"/><path class="cls-5" d="M74.82,48.79c-2.52-.07-6.13.9-7.4,3.26-1.37,2.54.41,5.23,3.19,5.54a5.7,5.7,0,0,0,2.11.25,8.35,8.35,0,0,0,4.78-2.71c-.3-2-.66-4.1-1.16-6.1A6.15,6.15,0,0,0,74.82,48.79Z"/><path class="cls-14" d="M74.82,48.79c-2.52-.07-6.13.9-7.4,3.26-1.37,2.54.41,5.23,3.19,5.54a5.7,5.7,0,0,0,2.11.25,8.35,8.35,0,0,0,4.78-2.71c-.3-2-.66-4.1-1.16-6.1A6.15,6.15,0,0,0,74.82,48.79Z"/><path class="cls-5" d="M78.35,50.14a.72.72,0,0,1-.55.31h-.07a.73.73,0,0,1-.37,0,2,2,0,0,1-.32-.14.87.87,0,0,1-.48-.43.59.59,0,0,1,.08-.64.56.56,0,0,1,.11-.09L76.35,49c.5,2,.86,4.06,1.16,6.1a7.94,7.94,0,0,0,1.28-1.81A2.57,2.57,0,0,0,78.35,50.14Z"/><path class="cls-6" d="M78.35,50.14a.72.72,0,0,1-.55.31h-.07a.73.73,0,0,1-.37,0,2,2,0,0,1-.32-.14.87.87,0,0,1-.48-.43.59.59,0,0,1,.08-.64.56.56,0,0,1,.11-.09L76.35,49c.5,2,.86,4.06,1.16,6.1a7.94,7.94,0,0,0,1.28-1.81A2.57,2.57,0,0,0,78.35,50.14Z"/><path class="cls-14" d="M78.35,50.14a.72.72,0,0,1-.55.31h-.07a.73.73,0,0,1-.37,0,2,2,0,0,1-.32-.14.87.87,0,0,1-.48-.43.59.59,0,0,1,.08-.64.56.56,0,0,1,.11-.09L76.35,49c.5,2,.86,4.06,1.16,6.1a7.94,7.94,0,0,0,1.28-1.81A2.57,2.57,0,0,0,78.35,50.14Z"/><path class="cls-5" d="M76.55,49.89a.87.87,0,0,0,.48.43,2,2,0,0,0,.32.14.73.73,0,0,0,.37,0h.07a.72.72,0,0,0,.55-.31,4.44,4.44,0,0,0-1.61-1,.56.56,0,0,0-.11.09A.59.59,0,0,0,76.55,49.89Z"/><path class="cls-6" d="M76.55,49.89a.87.87,0,0,0,.48.43,2,2,0,0,0,.32.14.73.73,0,0,0,.37,0h.07a.72.72,0,0,0,.55-.31,4.44,4.44,0,0,0-1.61-1,.56.56,0,0,0-.11.09A.59.59,0,0,0,76.55,49.89Z"/><path class="cls-10" d="M76.55,49.89a.87.87,0,0,0,.48.43,2,2,0,0,0,.32.14.73.73,0,0,0,.37,0h.07a.72.72,0,0,0,.55-.31,4.44,4.44,0,0,0-1.61-1,.56.56,0,0,0-.11.09A.59.59,0,0,0,76.55,49.89Z"/><path class="cls-14" d="M76.55,49.89a.87.87,0,0,0,.48.43,2,2,0,0,0,.32.14.73.73,0,0,0,.37,0h.07a.72.72,0,0,0,.55-.31,4.44,4.44,0,0,0-1.61-1,.56.56,0,0,0-.11.09A.59.59,0,0,0,76.55,49.89Z"/><path class="cls-5" d="M66.33,44.72a6.2,6.2,0,0,1,5.84-3.54,7.74,7.74,0,0,1,1.15.12q-.6-1-1.28-1.94a9.17,9.17,0,0,0-5.1,3.31A4.58,4.58,0,0,0,66,44.34a.45.45,0,0,0,.28.58A.4.4,0,0,1,66.33,44.72Z"/><path class="cls-6" d="M66.33,44.72a6.2,6.2,0,0,1,5.84-3.54,7.74,7.74,0,0,1,1.15.12q-.6-1-1.28-1.94a9.17,9.17,0,0,0-5.1,3.31A4.58,4.58,0,0,0,66,44.34a.45.45,0,0,0,.28.58A.4.4,0,0,1,66.33,44.72Z"/><path class="cls-5" d="M66.88,44.94l.08,0v-.06Z"/><path class="cls-6" d="M66.88,44.94l.08,0v-.06Z"/><path class="cls-5" d="M75.61,44.89a4.7,4.7,0,0,0,.57-.36c-.12,0-.25,0-.37,0a1.06,1.06,0,0,1,0,.11C75.73,44.69,75.67,44.79,75.61,44.89Z"/><path class="cls-6" d="M75.61,44.89a4.7,4.7,0,0,0,.57-.36c-.12,0-.25,0-.37,0a1.06,1.06,0,0,1,0,.11C75.73,44.69,75.67,44.79,75.61,44.89Z"/><path class="cls-6" d="M75.61,44.89a4.7,4.7,0,0,0,.57-.36c-.12,0-.25,0-.37,0a1.06,1.06,0,0,1,0,.11C75.73,44.69,75.67,44.79,75.61,44.89Z"/><path class="cls-5" d="M72,39.37q.68.94,1.28,1.94a8.33,8.33,0,0,1,2.63.93,15.36,15.36,0,0,0,1.37.76,45.1,45.1,0,0,0-2.21-4A8.59,8.59,0,0,0,72,39.37Z"/><path class="cls-6" d="M72,39.37q.68.94,1.28,1.94a8.33,8.33,0,0,1,2.63.93,15.36,15.36,0,0,0,1.37.76,45.1,45.1,0,0,0-2.21-4A8.59,8.59,0,0,0,72,39.37Z"/><path class="cls-6" d="M72,39.37q.68.94,1.28,1.94a8.33,8.33,0,0,1,2.63.93,15.36,15.36,0,0,0,1.37.76,45.1,45.1,0,0,0-2.21-4A8.59,8.59,0,0,0,72,39.37Z"/><path class="cls-15" d="M70.74,46.57a2.35,2.35,0,0,1-.58-.44A2.16,2.16,0,0,1,69.6,44a2.31,2.31,0,0,1,.46-.81A4.3,4.3,0,0,0,67,44.86v.06a1.67,1.67,0,0,0,.18.46c.78,1.34,3.28,2,4.87,1.82a4.72,4.72,0,0,0,1.83-.58A3.76,3.76,0,0,1,70.74,46.57Z"/><path class="cls-15" d="M75.45,45.16l.16-.27c.06-.1.12-.2.17-.3a1.06,1.06,0,0,0,0-.11l-.26,0A1.46,1.46,0,0,1,75.45,45.16Z"/><path class="cls-16" d="M75.55,44.45a4.11,4.11,0,0,1-.68-.21l-.3-.11a1.88,1.88,0,0,1-.41,1.33,1.17,1.17,0,0,1-.28.24,2.59,2.59,0,0,1-2.59.25,1.58,1.58,0,0,1-.39-.29,1.09,1.09,0,0,1-.2-.29l-.13,0a1.24,1.24,0,0,1-.68-1.19.62.62,0,0,1,.71-.53,1.6,1.6,0,0,1,.18-.44,5.68,5.68,0,0,0-.74,0,2.31,2.31,0,0,0-.46.81,2.16,2.16,0,0,0,.56,2.14,2.35,2.35,0,0,0,.58.44,3.76,3.76,0,0,0,3.1,0,3.68,3.68,0,0,0,.76-.42,2.8,2.8,0,0,0,.41-.36,2.34,2.34,0,0,0,.26-.36,1.89,1.89,0,0,0,.17-.33A1.46,1.46,0,0,0,75.55,44.45Z"/><path class="cls-3" d="M71.1,44a1.68,1.68,0,0,1,0,1.22.33.33,0,0,1-.36.15,1.09,1.09,0,0,0,.2.29,1.58,1.58,0,0,0,.39.29,2.59,2.59,0,0,0,2.59-.25,1.17,1.17,0,0,0,.28-.24,1.88,1.88,0,0,0,.41-1.33,12.52,12.52,0,0,0-3.78-1,1.6,1.6,0,0,0-.18.44A.56.56,0,0,1,71.1,44Zm2.69.56a.42.42,0,1,1,0,.83A.42.42,0,1,1,73.79,44.56Z"/><path class="cls-17" d="M73.31,41.31a7.74,7.74,0,0,0-1.15-.12,6.2,6.2,0,0,0-5.84,3.54.4.4,0,0,0,0,.19c0,.26.34.35.53.1l.06-.08.07-.08a4.3,4.3,0,0,1,3.11-1.68,5.68,5.68,0,0,1,.74,0,12.52,12.52,0,0,1,3.78,1l.3.11a4.11,4.11,0,0,0,.68.21l.26,0c.12,0,.25,0,.37,0a3.78,3.78,0,0,0,1.53-.25c-.07-.31-.15-.61-.21-.92L77.31,43a15.36,15.36,0,0,1-1.37-.76A8.33,8.33,0,0,0,73.31,41.31Z"/><path class="cls-15" d="M71.08,45.22a1.68,1.68,0,0,0,0-1.22.56.56,0,0,0-.49-.38.62.62,0,0,0-.71.53,1.24,1.24,0,0,0,.68,1.19l.13,0A.33.33,0,0,0,71.08,45.22Z"/><path class="cls-15" d="M73.8,45.39a.42.42,0,1,0,0-.83A.42.42,0,1,0,73.8,45.39Z"/><path class="cls-3" d="M95.2,33.4c1.39,10.77-.44,21.28-3.55,31.6-2.82,9.38-6.8,18.4-7.07,28.34a40.59,40.59,0,0,0,1.88,13.46c2.22,6.93,5.44,13.65,1,20.51-2.38,3.69-7.07,7.35-11.36,4.25a6.62,6.62,0,0,1-2-2.13,4.25,4.25,0,0,0,2.61.52,3.38,3.38,0,0,0,2-1.48c2.89-4.18,2.11-9.25.3-13.69-2.27-5.56-4-10.83-3.75-16.94.27-5.79,2.3-11.4,4-16.88,1.12-3.6,2.31-7.18,3.56-10.74a1.8,1.8,0,0,0,.17-.47q1-2.85,2-5.68a61.87,61.87,0,0,0,3.73-15.61c.58-6.28.13-13-2.41-18.84-.06-.14-.13-.26-.19-.4h0q-.39-.86-.81-1.63h0a22.65,22.65,0,0,0-6.12-7.31h0a9.57,9.57,0,0,0-2.83-1.68c4,2.6,6.17,6.82,7.43,11.29h0c.35,1.24.64,2.49.88,3.74a59.52,59.52,0,0,1,0,20.93c-.36,2.18-.82,4.33-1.36,6.46.67-2.68-.2-6.72-.63-9.42a35.71,35.71,0,0,0-2.58-8.93A30.37,30.37,0,0,0,72.31,32h0Q71.69,31.49,71,31c-.47-.36-.93-.71-1.42-1a58.45,58.45,0,0,1-9.32-7.15,49.72,49.72,0,0,0,4.56,4.44,53.63,53.63,0,0,1,7.75,8.16,16.63,16.63,0,0,0-3.44.46c-1,.22-2.2.53-3.67,1-1.65.48-.83,2.44.83,2.11,1-.21,2.53-.8,4.36-1.3A23.58,23.58,0,0,1,73.74,37q.72,1,1.36,2.05a45.1,45.1,0,0,1,2.21,4l.19.36c.07.31.14.61.21.92.87,3.8,1.93,7.48,2.59,11.28a38.43,38.43,0,0,1,.63,7c-.06,7.77-4.31,14.62-6.21,22,0,.17-.08.34-.12.51l-.1.43a57.42,57.42,0,0,0-.94,22.05h0q.28,1.8.68,3.58.2.88.43,1.76c.7,2.64,2,4.85,1.74,7.7a8.42,8.42,0,0,1-.13.89c-.6,3.1-3,6.79-6,3.4-.47-.53.09,1.35.14,1.48a15.84,15.84,0,0,0,.94,2.12,20.89,20.89,0,0,0,1.37,2.25l.28.41A15.21,15.21,0,0,0,86.14,137a14.64,14.64,0,0,0,4.48-1c-1.21.26-2.87.3-3.12.55a16.3,16.3,0,0,0,3-4c2.5-4.85,2.27-10.63,1.63-15.9a45.55,45.55,0,0,0-.84-8.38c-.08-.4-.16-.8-.24-1.19-1.48-4.62-3-9.26-3.27-14.17-.81-12.47,4-24.81,7.4-36.6.67-2.32,1.39-4.71,2-7.13.25,7.11.33,14.08-1.24,21.19.24-.59.49-1.19.72-1.78h0c.18-2.18.45-4.36.58-6.59A118.84,118.84,0,0,0,97,44.17a95.9,95.9,0,0,0-2.34-14.34q.35,1.39.65,2.8A1.65,1.65,0,0,0,95.2,33.4Z"/><path class="cls-3" d="M77,4.1l1.06.56Z"/><path class="cls-3" d="M90.87,19.23c.24.5.48,1,.7,1.51-.36-.83-.74-1.65-1.15-2.45.07.15.14.3.21.45Z"/><path class="cls-3" d="M89.44,16.45c.11.19.2.38.3.57.22.4.46.79.67,1.2-.42-.82-.86-1.61-1.33-2.4.12.21.23.42.35.63Z"/><path class="cls-3" d="M101.57,97.25a82,82,0,0,1,2.45,9.4,50.67,50.67,0,0,1-.33,6.31c.1-.81.15-1.62.21-2.44a50.93,50.93,0,0,0,0-7.33v0a52.55,52.55,0,0,0-3.07-14.07c-1-2.77-2.1-5.55-2.93-8.39C97.65,86.5,99.81,91.78,101.57,97.25Z"/><path class="cls-3" d="M87.57,13.49q.59.85,1.13,1.72Q88.15,14.34,87.57,13.49Z"/><path class="cls-3" d="M85.44,10.72c.59.69,1.14,1.41,1.67,2.14C86.58,12.12,86,11.41,85.44,10.72Z"/><path class="cls-3" d="M65.53.18c.41.06.83.13,1.24.21C66.35.31,65.94.23,65.53.18Z"/><path class="cls-3" d="M58.08,1.25A7.83,7.83,0,0,1,59,.78,7.17,7.17,0,0,0,58.08,1.25Z"/><path class="cls-3" d="M92.85,23.93c.65,1.82,1.21,3.68,1.69,5.57C94.06,27.62,93.5,25.75,92.85,23.93Z"/><path class="cls-3" d="M64.56.07h0Z"/><path class="cls-3" d="M57.26,1.84l.24-.19Z"/><path class="cls-3" d="M94.32,79.58a38.66,38.66,0,0,0-1.76,8.19c-.61,7,1.48,13.77,3.22,20.49,1.89,7.26,2.9,15.37-.41,22.33q-.31.65-.67,1.28a12.05,12.05,0,0,1-2.81,3.63,16.16,16.16,0,0,0,5.45-4.67,22.45,22.45,0,0,0,1.36-2,38.27,38.27,0,0,0,4.51-12.78c.18-1,.33-2,.45-3.05a46.53,46.53,0,0,0-1.65-5.88c-1.44-4.09-3.26-8.05-4.33-12.22,1,4.81,2.78,9.55,3.8,14.51a28.55,28.55,0,0,1-1.75,16.95,13.06,13.06,0,0,1-4.35,5.17,18.3,18.3,0,0,0,3.4-11.25c-.08-5-1.64-9.77-2.78-14.59-1.67-7-1-12.84.82-19.37,0,.07,0,.14,0,.21a32.29,32.29,0,0,1,.93-6.24h0a37.27,37.27,0,0,1-.95-4.14,23.76,23.76,0,0,1-.29-3.23l-.21.62A33.91,33.91,0,0,0,94.32,79.58Z"/><path class="cls-3" d="M91.83,21.32q.46,1.09.87,2.21Q92.29,22.41,91.83,21.32Z"/><path class="cls-3" d="M65.47.17h0Z"/><path class="cls-3" d="M59.11.72l.37-.14Z"/><path class="cls-3" d="M96.82,87.83s0-.1,0-.15S96.82,87.78,96.82,87.83Z"/><path class="cls-3" d="M89.37,98.35c-.07-.83-.12-1.67-.15-2.51A45.83,45.83,0,0,1,90.44,83.7a94.86,94.86,0,0,1,4-9.62c.54-1.2,1.06-2.41,1.55-3.62,1.58-7.11,1.49-14.07,1.24-21.19-.64,2.42-1.36,4.8-2,7.13C91.76,68.19,87,80.53,87.78,93c.32,4.91,1.8,9.54,3.27,14.17C90.46,104.23,89.8,101.3,89.37,98.35Z"/><path class="cls-18" d="M89.37,98.35c-.07-.83-.12-1.67-.15-2.51A45.83,45.83,0,0,1,90.44,83.7a94.86,94.86,0,0,1,4-9.62c.54-1.2,1.06-2.41,1.55-3.62,1.58-7.11,1.49-14.07,1.24-21.19-.64,2.42-1.36,4.8-2,7.13C91.76,68.19,87,80.53,87.78,93c.32,4.91,1.8,9.54,3.27,14.17C90.46,104.23,89.8,101.3,89.37,98.35Z"/><path class="cls-3" d="M96.81,88.84c0-.34,0-.67,0-1,0,0,0-.1,0-.15,0-.38,0-.76,0-1.13,0-.07,0-.14,0-.21C95,92.86,94.36,98.66,96,105.7c1.15,4.82,2.7,9.59,2.78,14.59a18.3,18.3,0,0,1-3.4,11.25,13.06,13.06,0,0,0,4.35-5.17,28.55,28.55,0,0,0,1.75-16.95c-1-5-2.75-9.71-3.8-14.51A27,27,0,0,1,96.81,88.84Z"/><path class="cls-18" d="M96.81,88.84c0-.34,0-.67,0-1,0,0,0-.1,0-.15,0-.38,0-.76,0-1.13,0-.07,0-.14,0-.21C95,92.86,94.36,98.66,96,105.7c1.15,4.82,2.7,9.59,2.78,14.59a18.3,18.3,0,0,1-3.4,11.25,13.06,13.06,0,0,0,4.35-5.17,28.55,28.55,0,0,0,1.75-16.95c-1-5-2.75-9.71-3.8-14.51A27,27,0,0,1,96.81,88.84Z"/><path class="cls-12" d="M96.85,86.55c0,.38,0,.76,0,1.13,0,0,0,.1,0,.15,0,.34,0,.67,0,1a27,27,0,0,0,.89,6.07c1.07,4.16,2.88,8.13,4.33,12.22a46.53,46.53,0,0,1,1.65,5.88h0v0a50.67,50.67,0,0,0,.33-6.31,82,82,0,0,0-2.45-9.4c-1.76-5.47-3.92-10.75-3.68-16.53v0l-.12-.38h0A32.29,32.29,0,0,0,96.85,86.55Z"/><path class="cls-12" d="M96,70.46c-.5,1.21-1,2.42-1.55,3.62a94.86,94.86,0,0,0-4,9.62,45.83,45.83,0,0,0-1.23,12.14c0,.84.08,1.68.15,2.51.43,3,1.1,5.88,1.69,8.82.08.4.16.79.24,1.19a45.55,45.55,0,0,1,.84,8.38c.65,5.27.87,11-1.63,15.9a16.3,16.3,0,0,1-3,4c.24-.25,1.91-.29,3.12-.55a3,3,0,0,0,1-.37c.08-.06.15-.14.23-.2a12.05,12.05,0,0,0,2.81-3.63q.36-.63.67-1.28c3.31-7,2.3-15.07.41-22.33C94,101.54,92,94.79,92.56,87.77a38.66,38.66,0,0,1,1.76-8.19,33.91,33.91,0,0,1,2-6l.21-.62h0a40.46,40.46,0,0,1,.14-4.26h0C96.46,69.27,96.21,69.87,96,70.46Z"/><path class="cls-12" d="M93.64,26.31l-1.84.92-.24.12c-1,.38-2,.74-2.94,1.08-.81.28-1.63.54-2.45.79.06.14.13.26.19.4,2.54,5.83,3,12.56,2.41,18.84A61.87,61.87,0,0,1,85,64.07q-1,2.83-2,5.68a1.8,1.8,0,0,1-.17.47c-1.24,3.56-2.44,7.14-3.56,10.74-1.71,5.49-3.73,11.1-4,16.88C75,104,76.74,109.22,79,114.79c1.81,4.44,2.59,9.5-.3,13.69a3.38,3.38,0,0,1-2,1.48,4.25,4.25,0,0,1-2.61-.52,6.62,6.62,0,0,0,2,2.13c4.29,3.1,9-.56,11.36-4.25,4.43-6.87,1.21-13.58-1-20.51a40.59,40.59,0,0,1-1.88-13.46c.27-9.94,4.25-19,7.07-28.34,3.11-10.32,4.94-20.83,3.55-31.6a1.65,1.65,0,0,1,.07-.77q-.3-1.4-.65-2.8l-.08-.33c-.48-1.88-1-3.75-1.69-5.57l-.15-.41q-.41-1.12-.87-2.21l-.25-.58c-.22-.51-.47-1-.7-1.51A52.48,52.48,0,0,1,93.64,26.31Z"/><path class="cls-12" d="M90.64,18.73c-.07-.15-.14-.3-.21-.45l0-.06c-.21-.41-.45-.8-.67-1.2C90,17.58,90.36,18.15,90.64,18.73Z"/><path class="cls-12" d="M85.34,27.59h0Z"/><path class="cls-12" d="M77.5,31.34l-1.81.31c1.18-.21-1.19.18-1.71.23L72.31,32a30.37,30.37,0,0,1,7.87,10.63,35.71,35.71,0,0,1,2.58,8.93c.43,2.7,1.3,6.74.63,9.42.54-2.13,1-4.29,1.36-6.46a59.52,59.52,0,0,0,0-20.93c-.24-1.25-.53-2.5-.88-3.74C81.75,30.45,79.63,30.94,77.5,31.34Z"/><path class="cls-12" d="M69.61,29.94c.49.33,1,.68,1.42,1C70.57,30.62,70.1,30.27,69.61,29.94Z"/><polygon class="cls-3" points="83.84 29.88 83.84 29.88 83.84 29.88 83.84 29.88"/><polygon class="cls-19" points="83.84 29.88 83.84 29.88 83.84 29.88 83.84 29.88"/><path class="cls-3" d="M72.31,32h0c-.42-.36-.84-.72-1.28-1.05Q71.69,31.49,72.31,32Z"/><path class="cls-19" d="M72.31,32h0c-.42-.36-.84-.72-1.28-1.05Q71.69,31.49,72.31,32Z"/><path class="cls-12" d="M72.31,32,74,31.89c.52-.05,2.89-.44,1.71-.23l1.81-.31c2.13-.4,4.24-.89,6.33-1.46h0a21,21,0,0,0-5.16-9.45,82.29,82.29,0,0,1-17.42,3.28,67.52,67.52,0,0,0,8.36,6.23c.49.33,1,.68,1.42,1S71.9,31.67,72.31,32Z"/><path class="cls-19" d="M72.31,32,74,31.89c.52-.05,2.89-.44,1.71-.23l1.81-.31c2.13-.4,4.24-.89,6.33-1.46h0a21,21,0,0,0-5.16-9.45,82.29,82.29,0,0,1-17.42,3.28,67.52,67.52,0,0,0,8.36,6.23c.49.33,1,.68,1.42,1S71.9,31.67,72.31,32Z"/><path class="cls-3" d="M89.44,16.45h0l.31.56C89.63,16.83,89.54,16.63,89.44,16.45Z"/><path class="cls-19" d="M89.44,16.45h0l.31.56C89.63,16.83,89.54,16.63,89.44,16.45Z"/><path class="cls-3" d="M86.16,29.22h0q-.39-.86-.81-1.63Q85.76,28.36,86.16,29.22Z"/><path class="cls-19" d="M86.16,29.22h0q-.39-.86-.81-1.63Q85.76,28.36,86.16,29.22Z"/><path class="cls-3" d="M90.64,18.73l.23.5Z"/><path class="cls-19" d="M90.64,18.73l.23.5Z"/><path class="cls-3" d="M85.34,27.58a22.65,22.65,0,0,0-6.11-7.32h0A22.65,22.65,0,0,1,85.34,27.58Z"/><path class="cls-19" d="M85.34,27.58a22.65,22.65,0,0,0-6.11-7.32h0A22.65,22.65,0,0,1,85.34,27.58Z"/><path class="cls-12" d="M85.34,27.58h0q.42.78.81,1.63c.82-.25,1.64-.51,2.45-.79,1-.34,2-.71,2.94-1.08l.24-.12,1.84-.92a52.48,52.48,0,0,0-2.76-7.08l-.23-.5c-.29-.58-.59-1.15-.9-1.71l-.31-.56a91.66,91.66,0,0,1-10.19,3.81A22.65,22.65,0,0,1,85.34,27.58Z"/><path class="cls-19" d="M85.34,27.58h0q.42.78.81,1.63c.82-.25,1.64-.51,2.45-.79,1-.34,2-.71,2.94-1.08l.24-.12,1.84-.92a52.48,52.48,0,0,0-2.76-7.08l-.23-.5c-.29-.58-.59-1.15-.9-1.71l-.31-.56a91.66,91.66,0,0,1-10.19,3.81A22.65,22.65,0,0,1,85.34,27.58Z"/><polygon class="cls-3" points="30.4 24.78 30.4 24.78 30.4 24.77 30.4 24.78"/><polygon class="cls-19" points="30.4 24.78 30.4 24.78 30.4 24.77 30.4 24.78"/><path class="cls-12" d="M38,26.33c.22-.34.45-.68.69-1l.29-.42c.23-.31.47-.63.71-.94l.38-.49c.24-.29.49-.58.74-.86l.29-.34A58.27,58.27,0,0,1,33.66,20c-.45-.17-.88-.35-1.3-.55a54,54,0,0,0-2,5.31h0l2.84,1.47.53.28c.6.24,1.21.49,1.82.71s1,.35,1.5.53c.22-.39.46-.77.7-1.16Z"/><path class="cls-19" d="M38,26.33c.22-.34.45-.68.69-1l.29-.42c.23-.31.47-.63.71-.94l.38-.49c.24-.29.49-.58.74-.86l.29-.34A58.27,58.27,0,0,1,33.66,20c-.45-.17-.88-.35-1.3-.55a54,54,0,0,0-2,5.31h0l2.84,1.47.53.28c.6.24,1.21.49,1.82.71s1,.35,1.5.53c.22-.39.46-.77.7-1.16Z"/><path class="cls-3" d="M40.77,22.6c-.25.29-.5.57-.74.86C40.27,23.17,40.52,22.89,40.77,22.6Z"/><path class="cls-19" d="M40.77,22.6c-.25.29-.5.57-.74.86C40.27,23.17,40.52,22.89,40.77,22.6Z"/><path class="cls-3" d="M37.79,26.61c-.24.39-.48.77-.7,1.16h0C37.31,27.38,37.54,27,37.79,26.61Z"/><path class="cls-19" d="M37.79,26.61c-.24.39-.48.77-.7,1.16h0C37.31,27.38,37.54,27,37.79,26.61Z"/><path class="cls-3" d="M38.64,25.31c-.24.34-.47.68-.69,1C38.17,26,38.41,25.65,38.64,25.31Z"/><path class="cls-19" d="M38.64,25.31c-.24.34-.47.68-.69,1C38.17,26,38.41,25.65,38.64,25.31Z"/><path class="cls-3" d="M38.94,24.89c.23-.31.47-.63.71-.94C39.41,24.26,39.16,24.57,38.94,24.89Z"/><path class="cls-19" d="M38.94,24.89c.23-.31.47-.63.71-.94C39.41,24.26,39.16,24.57,38.94,24.89Z"/><path class="cls-5" d="M47.07,23.35h0a28.14,28.14,0,0,0-7.54,5.24h0A28.2,28.2,0,0,1,47.07,23.35Z"/><path class="cls-6" d="M47.07,23.35h0a28.14,28.14,0,0,0-7.54,5.24h0A28.2,28.2,0,0,1,47.07,23.35Z"/><path class="cls-19" d="M47.07,23.35h0a28.14,28.14,0,0,0-7.54,5.24h0A28.2,28.2,0,0,1,47.07,23.35Z"/><path class="cls-12" d="M47.07,23.35c-1.83-.24-3.65-.56-5.45-1a41.13,41.13,0,0,0-2.9,5.94l.81.25A28.14,28.14,0,0,1,47.07,23.35Z"/><path class="cls-19" d="M47.07,23.35c-1.83-.24-3.65-.56-5.45-1a41.13,41.13,0,0,0-2.9,5.94l.81.25A28.14,28.14,0,0,1,47.07,23.35Z"/><path class="cls-5" d="M57.3,71.11a2.22,2.22,0,0,0-.71.46,1.53,1.53,0,0,0,.29,2.36,4.06,4.06,0,0,0,3,.45c1.19-.14,3.38-.69,3.05-2.34a1.37,1.37,0,0,0-.76-1L62,71l-.05,0A6,6,0,0,1,57.3,71.11Z"/><path class="cls-20" d="M57.3,71.11a2.22,2.22,0,0,0-.71.46,1.53,1.53,0,0,0,.29,2.36,4.06,4.06,0,0,0,3,.45c1.19-.14,3.38-.69,3.05-2.34a1.37,1.37,0,0,0-.76-1L62,71l-.05,0A6,6,0,0,1,57.3,71.11Z"/><path class="cls-3" d="M45.26,36.85c3.72.3,6.73,1.71,8.45,2.06s2.48-1.63.83-2.11c-7.09-2.07-7.81-1.46-11.71-.78C37.56,36.94,44.26,36.77,45.26,36.85Z"/><path class="cls-5" d="M44.27,44.48c-.12,0-.25,0-.37,0a4.7,4.7,0,0,0,.57.36c-.06-.1-.12-.2-.17-.3A1.06,1.06,0,0,1,44.27,44.48Z"/><path class="cls-6" d="M44.27,44.48c-.12,0-.25,0-.37,0a4.7,4.7,0,0,0,.57.36c-.06-.1-.12-.2-.17-.3A1.06,1.06,0,0,1,44.27,44.48Z"/><path class="cls-5" d="M47.93,41.19a6.2,6.2,0,0,1,5.84,3.54.4.4,0,0,1,0,.19.45.45,0,0,0,.28-.58,4.58,4.58,0,0,0-.93-1.66c-1.78-2.92-8.69-5.24-10.73-2.41a2.43,2.43,0,0,0,.11,2.82,10.62,10.62,0,0,0,1.6-.85A8.18,8.18,0,0,1,47.93,41.19Z"/><path class="cls-6" d="M47.93,41.19a6.2,6.2,0,0,1,5.84,3.54.4.4,0,0,1,0,.19.45.45,0,0,0,.28-.58,4.58,4.58,0,0,0-.93-1.66c-1.78-2.92-8.69-5.24-10.73-2.41a2.43,2.43,0,0,0,.11,2.82,10.62,10.62,0,0,0,1.6-.85A8.18,8.18,0,0,1,47.93,41.19Z"/><path class="cls-5" d="M53.13,44.92l.08,0-.07-.08Z"/><path class="cls-6" d="M53.13,44.92l.08,0-.07-.08Z"/><path class="cls-15" d="M47.75,46.2a2.8,2.8,0,0,1-.41-.36,2.24,2.24,0,0,1-.39-.59.61.61,0,0,0,1-.25v0a1.67,1.67,0,0,0,0-1.2h0a.4.4,0,0,0-.48-.1,1,1,0,0,0-.51.48,1.86,1.86,0,0,1,.34-.6,20.36,20.36,0,0,0-2,.7,4,4,0,0,1-.94.24,1.06,1.06,0,0,0,0,.11c0,.1.11.2.17.3a4.72,4.72,0,0,0,3.6,2.31,7,7,0,0,0,2.74-.35A4,4,0,0,1,47.75,46.2Z"/><path class="cls-15" d="M52.84,44.52a2.22,2.22,0,0,1-.64,1.62,2.36,2.36,0,0,1-.26.2,2.88,2.88,0,0,0,1-1,1.67,1.67,0,0,0,.18-.46v-.06C53,44.74,52.94,44.63,52.84,44.52Z"/><path class="cls-16" d="M47.39,43.66a.4.4,0,0,1,.48.1,1.65,1.65,0,0,1,.25-.44c-.29.06-.59.13-.9.22a1.86,1.86,0,0,0-.34.6A1,1,0,0,1,47.39,43.66Z"/><path class="cls-16" d="M52.84,44.52a4.49,4.49,0,0,0-1.07-.83,2.31,2.31,0,0,1,.05.53,2,2,0,0,1-.37,1.44,1.58,1.58,0,0,1-.39.29,2.59,2.59,0,0,1-2.59-.25,1.17,1.17,0,0,1-.28-.24,2.52,2.52,0,0,1-.27-.48v0a.61.61,0,0,1-1,.25,2.24,2.24,0,0,0,.39.59,2.8,2.8,0,0,0,.41.36,4,4,0,0,0,3.07.65,3,3,0,0,0,.8-.28,2.29,2.29,0,0,0,.32-.24,2.36,2.36,0,0,0,.26-.2A2.22,2.22,0,0,0,52.84,44.52Z"/><path class="cls-3" d="M47.88,43.78a1.67,1.67,0,0,1,0,1.2,2.52,2.52,0,0,0,.27.48,1.17,1.17,0,0,0,.28.24,2.59,2.59,0,0,0,2.59.25,1.58,1.58,0,0,0,.39-.29,2,2,0,0,0,.37-1.44,2.31,2.31,0,0,0-.05-.53,5.22,5.22,0,0,0-3.65-.37,1.65,1.65,0,0,0-.25.44Zm2.72-.17a.42.42,0,1,1,0,.83A.42.42,0,1,1,50.6,43.61Z"/><path class="cls-17" d="M43.9,44.53c.12,0,.25,0,.37,0a4,4,0,0,0,.94-.24,20.36,20.36,0,0,1,2-.7c.31-.09.61-.16.9-.22a5.22,5.22,0,0,1,3.65.37,4.49,4.49,0,0,1,1.07.83c.1.11.2.22.3.34l.07.08.06.08c.19.25.52.16.53-.1a.4.4,0,0,0,0-.19,6.2,6.2,0,0,0-5.84-3.54,8.18,8.18,0,0,0-3.78,1.06,10.62,10.62,0,0,1-1.6.85,1.62,1.62,0,0,1-1.61-.18.1.1,0,0,0-.15.14A3.46,3.46,0,0,0,43.9,44.53Z"/><path class="cls-15" d="M50.6,44.44a.42.42,0,1,0,0-.83A.42.42,0,1,0,50.6,44.44Z"/><path class="cls-5" d="M48.76,62.4a1.4,1.4,0,0,1-.33-.26c-.21-.27.33-.18.44-.17l.28,0,.16-.23c.21-.3-.16-.67-.47-.57-.55.18-1.06.91-.72,1.46a.44.44,0,0,0,.69.07.74.74,0,0,0,.11-.19l-.15-.15Z"/><path class="cls-6" d="M48.76,62.4a1.4,1.4,0,0,1-.33-.26c-.21-.27.33-.18.44-.17l.28,0,.16-.23c.21-.3-.16-.67-.47-.57-.55.18-1.06.91-.72,1.46a.44.44,0,0,0,.69.07.74.74,0,0,0,.11-.19l-.15-.15Z"/><path class="cls-15" d="M65.14,64.08c-1.81.12-4.56-.08-6.36.08a24.36,24.36,0,0,1-6-.15l-.32-.08L53.11,65l-.11.53A10.31,10.31,0,0,0,59.49,68a10.64,10.64,0,0,0,7-2.89l0-.43.29-.89A7,7,0,0,1,65.14,64.08Z"/><path class="cls-5" d="M70.51,62.14a1.6,1.6,0,0,1-.36.32.84.84,0,0,0,.15.29.44.44,0,0,0,.69-.07c.34-.55-.16-1.29-.72-1.46-.31-.1-.67.27-.47.57l.15.2.12,0C70.18,62,70.72,61.87,70.51,62.14Z"/><path class="cls-6" d="M70.51,62.14a1.6,1.6,0,0,1-.36.32.84.84,0,0,0,.15.29.44.44,0,0,0,.69-.07c.34-.55-.16-1.29-.72-1.46-.31-.1-.67.27-.47.57l.15.2.12,0C70.18,62,70.72,61.87,70.51,62.14Z"/><path class="cls-9" d="M66.46,64.64l0,.43c.8-.68,1.52-1.39,2.22-2l-.48.16c-.49.19-1,.37-1.47.52Z"/><path class="cls-9" d="M52.61,67.33h0v0Z"/><path class="cls-9" d="M52.5,63.93a23.2,23.2,0,0,1-2.22-.8A35.53,35.53,0,0,0,53,65.52l.11-.53Z"/><path class="cls-7" d="M59.47,62.37a3.57,3.57,0,0,0-2.74-.91c-1.32.22-2.58.73-3.9.94A10.61,10.61,0,0,1,49.14,62l-.28,0c-.11,0-.65-.1-.44.17a1.4,1.4,0,0,0,.33.26h0l.15.15a18.26,18.26,0,0,1,2.43,3.12c.37.53.79,1.09,1.25,1.64v0A14,14,0,0,0,57,71l.3.12A6,6,0,0,0,61.94,71L62,71a14.34,14.34,0,0,0,5-4.66c.19-.25,2.42-3.1,3-3.76l.11-.08a1.6,1.6,0,0,0,.36-.32c.21-.27-.33-.18-.44-.17l-.12,0a11.41,11.41,0,0,1-3.84.4c-1.32-.21-2.58-.72-3.9-.94A3.57,3.57,0,0,0,59.47,62.37Zm8.75.87.48-.16c-.7.62-1.42,1.33-2.22,2a10.64,10.64,0,0,1-7,2.89A10.31,10.31,0,0,1,53,65.52a35.53,35.53,0,0,1-2.71-2.39,23.2,23.2,0,0,0,2.22.8l.32.08a24.36,24.36,0,0,0,6,.15c1.8-.16,4.55,0,6.36-.08a7,7,0,0,0,1.61-.32C67.25,63.61,67.73,63.42,68.22,63.23Zm-5.59,6.67a3.14,3.14,0,0,1-2.49.65.38.38,0,0,1,0-.77,7.74,7.74,0,0,0,2.08-.59A.42.42,0,0,1,62.62,69.91Z"/><path class="cls-7" d="M62.21,69.21a7.74,7.74,0,0,1-2.08.59.38.38,0,0,0,0,.77,3.14,3.14,0,0,0,2.49-.65A.42.42,0,0,0,62.21,69.21Z"/><path class="cls-21" d="M62.21,69.21a7.74,7.74,0,0,1-2.08.59.38.38,0,0,0,0,.77,3.14,3.14,0,0,0,2.49-.65A.42.42,0,0,0,62.21,69.21Z"/><path class="cls-5" d="M4.62,67a6.25,6.25,0,0,1-.09.93c2.18-1.89,6.17-2.69,8.61-3-.16-.83-.32-1.57-.39-2.06-.35-2.71-.52-5.41-.69-8.12l.21,1c.46,2.2.94,4.39,1.26,6.62.1.72.11,1.58.15,2.44.92-.11,1.51-.14,1.51-.14-.51.13-1,.27-1.5.41v0l-.15,0A51.52,51.52,0,0,0,3.34,69.41,4.58,4.58,0,0,1,4.44,68c-.38-1.46-.84-2.82-1-3.66-.44-2.76.07-6.33-.93-9-.22-.59-1.2-1.94-1.74-.85C-.47,57.09.06,63.87.44,67.9c.06.62,0,1.94.13,3.26a24.64,24.64,0,0,0,1.49,5.62,62.36,62.36,0,0,0,4.11,8.92,10,10,0,0,0,1.35,1.78c1.51,15.32,3.1,36.1,4,45.27l.12.07a128.82,128.82,0,0,0,17.72,4.67C28,129.72,23.84,113.62,22,100q-.08-.57-.15-1.14h0l.58.28h0c1.6.77,3.13,1.46,3.35,1.56a63.37,63.37,0,0,0,13,4.13,151.23,151.23,0,0,0,32.43,2.8l1.18,0h0c-1.62-7.78-1-13.44.78-20.45.22-.83.46-1.66.73-2.48-2.53-3.92-3.11-8.75-2.6-13.43a25.24,25.24,0,0,0,.2,7.43,115.71,115.71,0,0,0-25.67,7.29,15.15,15.15,0,0,0,.87-1.79l-.31.63a14.59,14.59,0,0,1-1.13,2,12,12,0,0,1-1.67,2l0,0h0a7.33,7.33,0,0,1-2.43,1.52c-1.73.65-3.55.64-5.71,1.18h-.12l-2.19.13c-4.05.3-8.35,1-11.72,3a64.11,64.11,0,0,1-.26-6.87c1.88-3,2.75-8,3.52-10.6a.54.54,0,0,0,0-.16,17.51,17.51,0,0,0,.78-5.12c.05-3.09-1-5.94-2.14-8.77-.62-1.58-1.08-4.77-3.15-5a.88.88,0,0,0-.89.55,7.09,7.09,0,0,0,.09,5c.52,1.57,1.43,3.09,1.32,4.82a4.14,4.14,0,0,1-.08.48c-.43-1.2-.93-2.37-1.48-3.52a38.23,38.23,0,0,0-1.46-4.88c-1.12-4.05-1.83-8.11-2.72-12.21-.26-1.18-1.55-6.66-3.45-4a4.65,4.65,0,0,0-.36,2.39c-.42-1.2-1.1-2-2.2-.81-.76.79-.44,4-.53,5a42.23,42.23,0,0,0,.06,6.53c.15,2.25.31,4.48.31,6.74a8,8,0,0,1-.18,1.49v0c-.52-4.17-.64-8.29-.94-12.47-.09-1.2-.58-6.82-2.84-4.48-.76.79-.45,4-.54,5a42.23,42.23,0,0,0,0,6.53C4.46,62.49,4.62,64.72,4.62,67Zm59,28.23a.19.19,0,0,1,.16.27,6,6,0,0,1-4.18,2.58c-2,.13-3-1.26-4.67-2a.13.13,0,0,1,0-.2c.93-1,2-.38,3.11-.08C60,96.29,61.71,95.41,63.64,95.2ZM6.54,75.3c7.09.74,8.16,5.38,8.16,5.38A28.06,28.06,0,0,0,6.54,75.3ZM14.59,79s-2.42-6.42,5.78-9.57C20.38,69.41,14.07,74.78,14.59,79Z"/><path class="cls-5" d="M14.59,79c-.53-4.21,5.78-9.57,5.78-9.57C12.18,72.57,14.59,79,14.59,79Z"/><path class="cls-6" d="M14.59,79c-.53-4.21,5.78-9.57,5.78-9.57C12.18,72.57,14.59,79,14.59,79Z"/><path class="cls-6" d="M13.56,65.14l.15,0c0-.09,0-.18,0-.27l-.55.07.06.31Z"/><path class="cls-6" d="M4.53,67.9l-.1.08.05.21C4.51,68.1,4.52,68,4.53,67.9Z"/><path class="cls-5" d="M15.21,64.68s-.59,0-1.51.14c0,.09,0,.18,0,.27C14.2,64.95,14.7,64.81,15.21,64.68Z"/><path class="cls-6" d="M15.21,64.68s-.59,0-1.51.14c0,.09,0,.18,0,.27C14.2,64.95,14.7,64.81,15.21,64.68Z"/><path class="cls-5" d="M3.34,69.41a51.52,51.52,0,0,1,10.21-4.27l-.36.06-.06-.31c-2.44.32-6.43,1.13-8.61,3,0,.1,0,.19,0,.29L4.44,68A4.58,4.58,0,0,0,3.34,69.41Z"/><path class="cls-6" d="M3.34,69.41a51.52,51.52,0,0,1,10.21-4.27l-.36.06-.06-.31c-2.44.32-6.43,1.13-8.61,3,0,.1,0,.19,0,.29L4.44,68A4.58,4.58,0,0,0,3.34,69.41Z"/><path class="cls-5" d="M6.54,75.3a28.06,28.06,0,0,1,8.16,5.38S13.63,76,6.54,75.3Z"/><path class="cls-6" d="M6.54,75.3a28.06,28.06,0,0,1,8.16,5.38S13.63,76,6.54,75.3Z"/></g></g></g></svg>