<svg xmlns="http://www.w3.org/2000/svg" viewBox="0 0 103.71 140.51"><defs><style>.cls-1{isolation:isolate;}.cls-2{fill:none;}.cls-17,.cls-3,.cls-4{fill:#3f2d2b;}.cls-15,.cls-22,.cls-4,.cls-6,.cls-9{opacity:0.5;}.cls-17,.cls-4{mix-blend-mode:multiply;}.cls-21,.cls-5,.cls-9{fill:#fac494;}.cls-6{fill:#ed8c72;}.cls-13,.cls-19,.cls-7{fill:#f24469;}.cls-15,.cls-18,.cls-8{fill:#c61443;}.cls-13,.cls-17,.cls-20,.cls-21,.cls-8{opacity:0.2;}.cls-13,.cls-19,.cls-21,.cls-9{mix-blend-mode:screen;}.cls-10,.cls-22{fill:#fff;}.cls-11,.cls-20{fill:#8f705e;}.cls-12{fill:#211313;}.cls-14{fill:#533734;}.cls-16{fill:#ff5a5a;opacity:0.15;}</style></defs><title>Ресурс 9</title><g class="cls-1"><g id="Слой_2" data-name="Слой 2"><g id="Layer_1" data-name="Layer 1"><path class="cls-2" d="M20,65.9a205,205,0,0,0,3.79,25.59h.12c2.16-.54,4-.53,5.71-1.18a98.67,98.67,0,0,1-5-10.45A106.37,106.37,0,0,1,20,65.9Z"/><path class="cls-3" d="M20,65.9a106.37,106.37,0,0,0,4.57,13.95,98.67,98.67,0,0,0,5,10.45A7.33,7.33,0,0,0,32,88.79c-2.09-3.75-4.57-8.36-6.32-12.28A121.89,121.89,0,0,1,16.82,45.4c-.05-.35-.1-.7-.14-1.05-.11-2.5-.1-5,0-7.33,0-.08,0-.15-.05-.23-.81,12.45-.9,33.71,4.92,54.83l2.19-.13A205,205,0,0,1,20,65.9Z"/><path class="cls-3" d="M35.73,82.66c.1-.3.18-.6.26-.91s.13-.51.18-.76l.08-.39c.16-.82.28-1.66.37-2.5-2.16-4.35-4.25-9-6-13.15-2.16-2.45-3.06-4.81-3.35-9.15l-.07-1.09a2.11,2.11,0,0,1-.85.28h0a2.74,2.74,0,0,1-.48,0h-.1a3.88,3.88,0,0,1-.6-.11,2.77,2.77,0,0,1-.56-.22l-.17-.1a3.64,3.64,0,0,1-.36-.24l-.18-.15-.33-.31-.17-.18c-.11-.13-.22-.26-.33-.4l-.12-.16q-.2-.28-.4-.59l0,0c-.14-.23-.28-.47-.41-.72a50.27,50.27,0,0,0,1.09,7.61c1.61,7.22,5,13.56,8.91,19.77a25.76,25.76,0,0,0,3.21,4.72c.13-.32.25-.63.36-1Z"/><path class="cls-3" d="M19.25,23.51q.29-.85.6-1.7Q19.54,22.66,19.25,23.51Z"/><path class="cls-3" d="M17,33.49c.12-1.07.27-2.11.46-3.13C17.28,31.38,17.14,32.43,17,33.49Z"/><path class="cls-3" d="M33.75,86.77a14.6,14.6,0,0,0,1.13-2,14.84,14.84,0,0,1-2.8,4A12,12,0,0,0,33.75,86.77Z"/><path class="cls-3" d="M16.73,36.86c.05-.88.13-1.75.21-2.61C16.85,35.11,16.78,36,16.73,36.86Z"/><path class="cls-3" d="M18.23,26.94c.13-.51.28-1,.43-1.53C18.51,25.92,18.36,26.43,18.23,26.94Z"/><path class="cls-3" d="M17.47,30.37c.09-.49.19-1,.3-1.49C17.66,29.38,17.56,29.88,17.47,30.37Z"/><path class="cls-3" d="M22.43,16.12C27.13,9.07,34.23,3.58,42.75,3a12.8,12.8,0,0,0-.7,7.62h0v.08a8.1,8.1,0,0,0,.27.9h0A9.07,9.07,0,0,0,43,13a14.6,14.6,0,0,0,.58,1.85c-1.48-4.41-1.43-10,2-13a15,15,0,0,0-8-.4c-8.1,2.07-14.33,11-17.77,20.23a52.23,52.23,0,0,1,2.25-5.16Z"/><path class="cls-3" d="M18.85,24.78h0c.13-.41.25-.83.39-1.25q-.28.82-.52,1.64l.13-.4Z"/><path class="cls-3" d="M17.84,28.54c.11-.51.23-1,.37-1.53C18.08,27.53,18,28,17.84,28.54Z"/><path class="cls-3" d="M63.06,85c0-.17.08-.34.12-.51a64,64,0,0,1,2.22-6.66,4.61,4.61,0,0,1-.73-2.7c.1-.74.54-1.69,1.42-1.74a1.27,1.27,0,0,1,.87.31,33.52,33.52,0,0,0,2.43-11.18,38.44,38.44,0,0,0-.63-7l0,.23c0,.49-.08.94-.13,1.38,0,.13,0,.26,0,.39q-.06.47-.14.91c0,.12,0,.25-.06.37-.07.37-.15.73-.24,1.08,0,.09-.05.17-.08.26-.07.26-.15.51-.24.75l-.14.37c-.08.21-.17.41-.26.61l-.15.32c-.13.26-.27.52-.42.76h0c-1.33,2.19-3.48,4.07-6.88,6.91v0c0,.29-.08.58-.12.87,0,.13,0,.26,0,.39-.51,4.68.07,9.5,2.6,13.43l0-.07A7.5,7.5,0,0,0,63.06,85Z"/><path class="cls-4" d="M63.06,85c0-.17.08-.34.12-.51a64,64,0,0,1,2.22-6.66,4.61,4.61,0,0,1-.73-2.7c.1-.74.54-1.69,1.42-1.74a1.27,1.27,0,0,1,.87.31,33.52,33.52,0,0,0,2.43-11.18,38.44,38.44,0,0,0-.63-7l0,.23c0,.49-.08.94-.13,1.38,0,.13,0,.26,0,.39q-.06.47-.14.91c0,.12,0,.25-.06.37-.07.37-.15.73-.24,1.08,0,.09-.05.17-.08.26-.07.26-.15.51-.24.75l-.14.37c-.08.21-.17.41-.26.61l-.15.32c-.13.26-.27.52-.42.76h0c-1.33,2.19-3.48,4.07-6.88,6.91v0c0,.29-.08.58-.12.87,0,.13,0,.26,0,.39-.51,4.68.07,9.5,2.6,13.43l0-.07A7.5,7.5,0,0,0,63.06,85Z"/><path class="cls-3" d="M36.83,70.56a60.16,60.16,0,0,1-6.21-5.61c1.75,4.13,3.84,8.79,6,13.15A73.21,73.21,0,0,0,36.83,70.56Z"/><path class="cls-4" d="M36.83,70.56a60.16,60.16,0,0,1-6.21-5.61c1.75,4.13,3.84,8.79,6,13.15A73.21,73.21,0,0,0,36.83,70.56Z"/><path class="cls-5" d="M98.43,102.21c.29.49.56,1,.81,1.54C99,103.21,98.72,102.7,98.43,102.21Z"/><path class="cls-5" d="M99.35,104c.24.53.47,1.08.67,1.66C99.82,105.07,99.59,104.53,99.35,104Z"/><path class="cls-5" d="M5.27,99.31,5.46,99Z"/><path class="cls-5" d="M95.24,102.61l.19,0,.51-.09.19,0,.47-.08.14,0,.53-.08h0l.43-.05h.11l.23,0h.3s.08,0,.09,0h0a16.3,16.3,0,0,0-7.21-6.49,51.81,51.81,0,0,1,1.12,7.46Z"/><path class="cls-5" d="M6,98.16l.21-.31Z"/><path class="cls-5" d="M7,97l.14.12.13.08.23.14.18.1.3.17.21.12.37.2.22.12.46.23.2.1.56.28.14.07.72.35h0c1.6.77,3.13,1.46,3.35,1.56a63.37,63.37,0,0,0,13,4.13,151.22,151.22,0,0,0,32.43,2.8l1.18,0h0c-1.62-7.78-1-13.44.78-20.45.22-.83.46-1.66.73-2.48-2.53-3.92-3.11-8.75-2.6-13.43a25.25,25.25,0,0,0,.2,7.43,115.71,115.71,0,0,0-25.67,7.29,15.12,15.12,0,0,0,.87-1.79l-.31.63a14.6,14.6,0,0,1-1.13,2,12,12,0,0,1-1.67,2l0,0h0A7.33,7.33,0,0,1,29.6,90.3c-1.73.65-3.55.64-5.71,1.18h-.12l-2.19.13c-5.34.39-11.13,1.43-14.64,5.26,0,0,0,.06,0,.11Zm45-1.84a.19.19,0,0,1,.17.27,6,6,0,0,1-4.18,2.58c-2,.13-3-1.26-4.67-2a.13.13,0,0,1,0-.2c.93-1,2-.38,3.11-.08C48.46,96.29,50.16,95.41,52.09,95.2Z"/><path class="cls-5" d="M36,81.75c-.08.3-.16.61-.26.91C35.82,82.36,35.91,82.06,36,81.75Z"/><path class="cls-5" d="M36.25,80.6l-.08.39Z"/><path class="cls-5" d="M35.27,83.89h0q.19-.48.35-1C35.53,83.26,35.4,83.58,35.27,83.89Z"/><path class="cls-5" d="M60,70c0,.29-.08.58-.12.87C59.87,70.53,59.91,70.24,60,70Z"/><path class="cls-3" d="M36.17,81c-.06.26-.12.51-.18.76C36.05,81.5,36.11,81.25,36.17,81Z"/><path class="cls-6" d="M36.17,81c-.06.26-.12.51-.18.76C36.05,81.5,36.11,81.25,36.17,81Z"/><path class="cls-3" d="M35.73,82.66l-.09.28Z"/><path class="cls-6" d="M35.73,82.66l-.09.28Z"/><path class="cls-3" d="M36.25,80.6q.25-1.22.38-2.48v0C36.53,78.94,36.41,79.77,36.25,80.6Z"/><path class="cls-6" d="M36.25,80.6q.25-1.22.38-2.48v0C36.53,78.94,36.41,79.77,36.25,80.6Z"/><path class="cls-3" d="M60,70v0h0Z"/><path class="cls-4" d="M60,70v0h0Z"/><path class="cls-6" d="M60,70v0h0Z"/><path class="cls-3" d="M59.79,71.21c0-.13,0-.26,0-.39C59.82,71,59.8,71.08,59.79,71.21Z"/><path class="cls-4" d="M59.79,71.21c0-.13,0-.26,0-.39C59.82,71,59.8,71.08,59.79,71.21Z"/><path class="cls-6" d="M59.79,71.21c0-.13,0-.26,0-.39C59.82,71,59.8,71.08,59.79,71.21Z"/><path class="cls-3" d="M36.62,78.09v0a69.87,69.87,0,0,0,.23-7.53l0,0A73.21,73.21,0,0,1,36.62,78.09Z"/><path class="cls-4" d="M36.62,78.09v0a69.87,69.87,0,0,0,.23-7.53l0,0A73.21,73.21,0,0,1,36.62,78.09Z"/><path class="cls-6" d="M36.62,78.09v0a69.87,69.87,0,0,0,.23-7.53l0,0A73.21,73.21,0,0,1,36.62,78.09Z"/><path class="cls-5" d="M60,70v0c-1.63,1.36-3.53,2.94-5.79,4.91a9.28,9.28,0,0,1-12.33,0c-1.89-1.65-3.53-3-5-4.23a69.87,69.87,0,0,1-.23,7.53q-.13,1.26-.38,2.48l-.08.39c-.06.26-.12.51-.18.76s-.17.61-.26.91l-.09.28q-.16.49-.35,1h0l-.11.23a15.12,15.12,0,0,1-.87,1.79A115.71,115.71,0,0,1,60,78.65a25.25,25.25,0,0,1-.2-7.43c0-.13,0-.26,0-.39C59.87,70.53,59.91,70.24,60,70Z"/><path class="cls-6" d="M60,70v0c-1.63,1.36-3.53,2.94-5.79,4.91a9.28,9.28,0,0,1-12.33,0c-1.89-1.65-3.53-3-5-4.23a69.87,69.87,0,0,1-.23,7.53q-.13,1.26-.38,2.48l-.08.39c-.06.26-.12.51-.18.76s-.17.61-.26.91l-.09.28q-.16.49-.35,1h0l-.11.23a15.12,15.12,0,0,1-.87,1.79A115.71,115.71,0,0,1,60,78.65a25.25,25.25,0,0,1-.2-7.43c0-.13,0-.26,0-.39C59.87,70.53,59.91,70.24,60,70Z"/><path class="cls-7" d="M2.11,112.42a50.2,50.2,0,0,1,1.92-10A50.2,50.2,0,0,0,2.11,112.42Z"/><path class="cls-7" d="M5,100c-.09.19-.18.38-.26.58q-.37,1-.67,1.92.31-1,.67-1.92C4.78,100.34,4.87,100.15,5,100Z"/><path class="cls-7" d="M97.27,102.26l.42-.05Z"/><path class="cls-7" d="M96.73,102.34l.53-.08Z"/><path class="cls-7" d="M97.8,102.19l.23,0Z"/><path class="cls-7" d="M96.12,102.45l.47-.08Z"/><path class="cls-7" d="M98.13,102.17h0Z"/><path class="cls-7" d="M97.16,111.33c-.75-2.15-1.49-4.3-2.11-6.49-.2-.69-.38-1.39-.55-2.09l.74-.14-2.9.58v0a50.92,50.92,0,0,1,0,7.33,50.13,50.13,0,0,1-.78,8.12c-.24,1.32-.54,2.69-.91,4.05,3.24,5.51,6.11,10.19,7.05,11.63q2.63-.7,5.3-1.49c-.54-2.81-1.18-5.63-1.91-8.49C100,119.93,98.66,115.64,97.16,111.33Z"/><path class="cls-7" d="M80.29,138.07l.93-.15-.12-.29Q80.7,137.86,80.29,138.07Z"/><path class="cls-7" d="M61.38,133.72A21.33,21.33,0,0,1,59.69,131a41.49,41.49,0,0,1-18.13-1.18A42.53,42.53,0,0,1,30,125c-3.8-1.5-7.52-3.77-8.14-7.9-1.12-7.46,6.85-8.17,12.1-7.56,7.47.88,15,1.33,22.5,1.51,1.76,0,3.51.06,5.27.07q-.49-1.84-.85-3.54l-1.18,0a151.22,151.22,0,0,1-32.43-2.8,63.37,63.37,0,0,1-13-4.13c-.23-.1-1.75-.79-3.35-1.56-5.19,9.56-7,22.76-8.68,34.3,2.57.83,6.25,1.91,10.93,3a94.55,94.55,0,0,0,1.3-13.22s1.49,5,1,13.72A175.1,175.1,0,0,0,70.7,139.4,14.82,14.82,0,0,1,61.38,133.72Z"/><path class="cls-7" d="M98.33,102.18s.08,0,.09,0S98.38,102.18,98.33,102.18Z"/><path class="cls-7" d="M95.42,102.57l.51-.09Z"/><path class="cls-7" d="M7.32,97.25l-.13-.08Z"/><path class="cls-7" d="M9.49,98.43l-.2-.1Z"/><path class="cls-7" d="M10.19,98.78,10,98.71Z"/><path class="cls-7" d="M1.61,118.57c.09-1.32.18-2.64.29-4C1.79,115.93,1.7,117.25,1.61,118.57Z"/><path class="cls-7" d="M7,97,7,97Z"/><path class="cls-7" d="M8.83,98.1,8.61,98Z"/><path class="cls-7" d="M8.24,97.79,8,97.67Z"/><path class="cls-7" d="M7.72,97.5l-.18-.1Z"/><path class="cls-8" d="M101.37,112.82c.11.7.22,1.42.32,2.16C101.58,114.24,101.47,113.51,101.37,112.82Z"/><path class="cls-8" d="M102.92,124.1c.09.73.17,1.43.25,2.11C103.09,125.53,103,124.83,102.92,124.1Z"/><path class="cls-8" d="M101,110.82c.1.63.21,1.3.32,2C101.26,112.12,101.15,111.45,101,110.82Z"/><path class="cls-8" d="M102.92,124.1c-.09-.73-.18-1.48-.28-2.24C102.73,122.63,102.83,123.37,102.92,124.1Z"/><path class="cls-8" d="M99.35,104h0l-.11-.24h0Z"/><path class="cls-8" d="M102.64,121.87c-.1-.76-.2-1.53-.3-2.3C102.44,120.33,102.54,121.11,102.64,121.87Z"/><path class="cls-8" d="M100.75,109l.15.85c-.2-1.18-.39-2.2-.55-3,.08.38.17.83.26,1.33Z"/><path class="cls-8" d="M103.7,132.19c0-1.08-.23-3.28-.54-6,.27,2.36.46,4.34.52,5.52C103.7,131.9,103.7,132.05,103.7,132.19Z"/><path class="cls-8" d="M103.7,132.63h0c0-.12,0-.26,0-.44,0,.13,0,.25,0,.35S103.7,132.6,103.7,132.63Z"/><path class="cls-8" d="M100.12,106c.07.25.15.57.23,1a12.08,12.08,0,0,0-.33-1.28h0C100,105.74,100.08,105.85,100.12,106Z"/><polygon class="cls-8" points="98.43 102.21 98.43 102.21 98.43 102.21 98.43 102.21"/><path class="cls-8" d="M102.33,119.56c-.16-1.16-.32-2.32-.48-3.46l.16,1.14C102.12,118,102.23,118.79,102.33,119.56Z"/><path class="cls-5" d="M95.24,102.61l.19,0Z"/><path class="cls-8" d="M95.24,102.61l.19,0Z"/><path class="cls-5" d="M96.59,102.37l.14,0Z"/><path class="cls-8" d="M96.59,102.37l.14,0Z"/><path class="cls-5" d="M95.93,102.48l.19,0Z"/><path class="cls-8" d="M95.93,102.48l.19,0Z"/><path class="cls-5" d="M98,102.17h0Z"/><path class="cls-8" d="M98,102.17h0Z"/><path class="cls-5" d="M98.28,102.17h0Z"/><path class="cls-8" d="M98.28,102.17h0Z"/><path class="cls-5" d="M98.43,102.21c.29.49.56,1,.81,1.54h0c-.25-.53-.52-1.05-.81-1.54Z"/><path class="cls-8" d="M98.43,102.21c.29.49.56,1,.81,1.54h0c-.25-.53-.52-1.05-.81-1.54Z"/><path class="cls-5" d="M100,105.65h0c-.2-.58-.43-1.13-.67-1.66h0C99.59,104.52,99.82,105.07,100,105.65Z"/><path class="cls-8" d="M100,105.65h0c-.2-.58-.43-1.13-.67-1.66h0C99.59,104.52,99.82,105.07,100,105.65Z"/><path class="cls-5" d="M97.69,102.2h0Z"/><path class="cls-8" d="M97.69,102.2h0Z"/><path class="cls-5" d="M97.27,102.26h0Z"/><path class="cls-8" d="M97.27,102.26h0Z"/><path class="cls-7" d="M100,105.65c-.2-.58-.43-1.13-.67-1.66l-.11-.24c-.25-.54-.52-1.05-.81-1.54h0s0,0-.09,0H98l-.23,0h-.11l-.42.05h0l-.53.08-.14,0-.47.08-.19,0-.51.09-.19,0-.74.14c.17.7.35,1.4.55,2.09.62,2.19,1.37,4.34,2.11,6.49,1.5,4.31,2.81,8.6,3.93,13,.73,2.86,1.37,5.68,1.91,8.49l.69-.21s0-.05,0-.09,0-.22,0-.35,0-.29,0-.46c-.06-1.18-.25-3.16-.52-5.52-.08-.67-.16-1.38-.25-2.11s-.18-1.48-.28-2.24-.2-1.53-.3-2.3-.21-1.55-.32-2.32l-.16-1.14-.16-1.12c-.11-.74-.22-1.47-.32-2.16s-.21-1.36-.32-2l-.15-.92-.15-.85-.14-.78c-.09-.5-.18-.94-.26-1.33s-.16-.71-.23-1S100,105.74,100,105.65Z"/><path class="cls-8" d="M100,105.65c-.2-.58-.43-1.13-.67-1.66l-.11-.24c-.25-.54-.52-1.05-.81-1.54h0s0,0-.09,0H98l-.23,0h-.11l-.42.05h0l-.53.08-.14,0-.47.08-.19,0-.51.09-.19,0-.74.14c.17.7.35,1.4.55,2.09.62,2.19,1.37,4.34,2.11,6.49,1.5,4.31,2.81,8.6,3.93,13,.73,2.86,1.37,5.68,1.91,8.49l.69-.21s0-.05,0-.09,0-.22,0-.35,0-.29,0-.46c-.06-1.18-.25-3.16-.52-5.52-.08-.67-.16-1.38-.25-2.11s-.18-1.48-.28-2.24-.2-1.53-.3-2.3-.21-1.55-.32-2.32l-.16-1.14-.16-1.12c-.11-.74-.22-1.47-.32-2.16s-.21-1.36-.32-2l-.15-.92-.15-.85-.14-.78c-.09-.5-.18-.94-.26-1.33s-.16-.71-.23-1S100,105.74,100,105.65Z"/><path class="cls-8" d="M1.9,114.61c.06-.73.13-1.46.2-2.19C2,113.15,2,113.88,1.9,114.61Z"/><path class="cls-8" d="M5.27,99.31c-.11.21-.21.43-.31.65.1-.22.2-.44.31-.65Z"/><path class="cls-8" d="M6.95,96.88h0a11.3,11.3,0,0,0-.78,1h0A11.29,11.29,0,0,1,6.95,96.88Z"/><path class="cls-8" d="M6,98.16H6q-.26.39-.5.81h0Q5.69,98.55,6,98.16Z"/><path class="cls-5" d="M10.19,98.78l.72.35h0Z"/><path class="cls-8" d="M10.19,98.78l.72.35h0Z"/><path class="cls-5" d="M5.46,99h0l-.19.34h0Z"/><path class="cls-8" d="M5.46,99h0l-.19.34h0Z"/><path class="cls-5" d="M8,97.67l-.3-.17Z"/><path class="cls-8" d="M8,97.67l-.3-.17Z"/><path class="cls-5" d="M6.17,97.85h0L6,98.16H6Z"/><path class="cls-8" d="M6.17,97.85h0L6,98.16H6Z"/><path class="cls-5" d="M7.55,97.39l-.23-.14Z"/><path class="cls-8" d="M7.55,97.39l-.23-.14Z"/><path class="cls-5" d="M7.19,97.16,7,97Z"/><path class="cls-8" d="M7.19,97.16,7,97Z"/><path class="cls-5" d="M10,98.71l-.56-.28Z"/><path class="cls-8" d="M10,98.71l-.56-.28Z"/><path class="cls-5" d="M7,97s-.06-.08,0-.11h0S6.94,96.94,7,97Z"/><path class="cls-8" d="M7,97s-.06-.08,0-.11h0S6.94,96.94,7,97Z"/><path class="cls-5" d="M9.29,98.34l-.46-.23Z"/><path class="cls-8" d="M9.29,98.34l-.46-.23Z"/><path class="cls-5" d="M8.61,98l-.37-.2Z"/><path class="cls-8" d="M8.61,98l-.37-.2Z"/><path class="cls-7" d="M10.9,99.13l-.72-.35L10,98.71l-.56-.28-.2-.1-.46-.23L8.61,98l-.37-.2L8,97.67l-.3-.17-.18-.1-.23-.14-.13-.08L7,97,7,97s-.06-.08,0-.11h0a11.29,11.29,0,0,0-.78,1L6,98.16q-.26.39-.5.81l-.19.34c-.11.21-.21.43-.31.65s-.18.38-.26.58q-.37,1-.67,1.92a50.2,50.2,0,0,0-1.92,10c-.08.73-.14,1.46-.2,2.19-.11,1.31-.2,2.63-.29,4A95,95,0,0,1,0,132.68c.61.21,1.35.47,2.22.75C3.91,121.89,5.71,108.69,10.9,99.13Z"/><path class="cls-8" d="M10.9,99.13l-.72-.35L10,98.71l-.56-.28-.2-.1-.46-.23L8.61,98l-.37-.2L8,97.67l-.3-.17-.18-.1-.23-.14-.13-.08L7,97,7,97s-.06-.08,0-.11h0a11.29,11.29,0,0,0-.78,1L6,98.16q-.26.39-.5.81l-.19.34c-.11.21-.21.43-.31.65s-.18.38-.26.58q-.37,1-.67,1.92a50.2,50.2,0,0,0-1.92,10c-.08.73-.14,1.46-.2,2.19-.11,1.31-.2,2.63-.29,4A95,95,0,0,1,0,132.68c.61.21,1.35.47,2.22.75C3.91,121.89,5.71,108.69,10.9,99.13Z"/><path class="cls-5" d="M26.75,30.05l0,0q-.05.65-.1,1.35Q26.68,30.72,26.75,30.05Z"/><path class="cls-5" d="M67.41,61.91l-.15.32Z"/><path class="cls-5" d="M68.43,58.48c0,.12,0,.25-.06.37C68.39,58.73,68.41,58.6,68.43,58.48Z"/><path class="cls-5" d="M67.81,60.93l-.14.37Z"/><path class="cls-5" d="M64.63,49l.12-.11a33.73,33.73,0,0,0-1.25-3.95h0a4.72,4.72,0,0,1-3.6,2.31c-1.6.16-4.09-.47-4.87-1.82a1.67,1.67,0,0,1-.18-.46l-.08,0-.07.08c-.19.25-.52.16-.53-.1a.45.45,0,0,1-.28-.58,4.58,4.58,0,0,1,.93-1.66,6.33,6.33,0,0,1,1.87-1.82l-.64.2a22.43,22.43,0,0,0-2.19.93A9.44,9.44,0,0,0,52,43a2.32,2.32,0,0,0-.31.29,3.27,3.27,0,0,0-.58,2.87,5.57,5.57,0,0,0,2,3.26,5.93,5.93,0,0,0,1.82,1,15.49,15.49,0,0,0,1.88.49,9.78,9.78,0,0,1,6.49-2.14A6.14,6.14,0,0,1,64.63,49Z"/><path class="cls-5" d="M26.52,33.94c0,1.58-.06,3.3,0,5.19L28.09,39a34.17,34.17,0,0,1,6.81-.11,23.68,23.68,0,0,1,6.32,1.71c1,.4,1.94.85,2.9,1.29a9.68,9.68,0,0,0,3.09,1h.63a9.68,9.68,0,0,0,3.09-1c1-.44,1.92-.89,2.9-1.29a23.74,23.74,0,0,1,6.27-1.7q-.51-.68-1-1.33C57,38,55.31,38.73,54.19,39c-1.66.34-2.48-1.63-.83-2.11s3.07-.85,4.18-1.07C52.9,30.58,47.38,25.91,45.7,19.1l-.31-.47c-2.15,1-4.38,1.89-6.09,2.7A43.26,43.26,0,0,0,26.52,33.94Zm15.89,2.91c1.65.48.83,2.44-.83,2.11s-4.73-1.76-8.45-2.06c-1-.08-7.7.09-2.43-.83C34.6,35.39,35.32,34.78,42.41,36.85Z"/><path class="cls-5" d="M68.13,59.92l-.08.26C68.08,60.1,68.1,60,68.13,59.92Z"/><path class="cls-5" d="M68.62,57.18c0,.13,0,.26,0,.39C68.58,57.44,68.6,57.31,68.62,57.18Z"/><path class="cls-5" d="M43.06,43a9.44,9.44,0,0,0-1.86-1q-.66-.31-1.34-.59A5.49,5.49,0,0,1,41,42.72,4.58,4.58,0,0,1,42,44.38a.45.45,0,0,1-.28.58c0,.26-.34.35-.53.1L41.08,45,41,45a1.67,1.67,0,0,1-.18.46c-.78,1.34-3.28,2-4.87,1.82a4.72,4.72,0,0,1-3.6-2.31,4.69,4.69,0,0,1-.57-.36,3.48,3.48,0,0,1-3-1.4,1.37,1.37,0,0,0-.08-.15.1.1,0,0,1,.16-.08,1.62,1.62,0,0,0,1.61.18,2.52,2.52,0,0,1-.29-2.51,3.26,3.26,0,0,0-1.69,1.5A4.88,4.88,0,0,0,28.19,45a7,7,0,0,0,2.18,4,1.4,1.4,0,0,1,.3,0,.73.73,0,0,1,.38.11h0a.74.74,0,0,1,.29.19,6.1,6.1,0,0,1,2.07-.43,10.19,10.19,0,0,1,6.13,1.81l.56-.16a5.92,5.92,0,0,0,1.82-1,5.57,5.57,0,0,0,2-3.26,3.27,3.27,0,0,0-.58-2.87A2.32,2.32,0,0,0,43.06,43Z"/><path class="cls-3" d="M26.47,34l0-.06q0-1.31.11-2.49C26.56,32.25,26.51,33.1,26.47,34Z"/><path class="cls-6" d="M26.47,34l0-.06q0-1.31.11-2.49C26.56,32.25,26.51,33.1,26.47,34Z"/><path class="cls-5" d="M26.52,33.94A43.26,43.26,0,0,1,39.31,21.32c-.42.2-.81.39-1.16.59-.89.51-1.77,1-2.63,1.44h0A28.2,28.2,0,0,0,28,28.58h0a16.6,16.6,0,0,0-1.23,1.47q-.07.67-.13,1.39Q26.55,32.62,26.52,33.94Z"/><path class="cls-6" d="M26.52,33.94A43.26,43.26,0,0,1,39.31,21.32c-.42.2-.81.39-1.16.59-.89.51-1.77,1-2.63,1.44h0A28.2,28.2,0,0,0,28,28.58h0a16.6,16.6,0,0,0-1.23,1.47q-.07.67-.13,1.39Q26.55,32.62,26.52,33.94Z"/><path class="cls-3" d="M68.57,57.57c0,.31-.09.62-.14.91Q68.51,58,68.57,57.57Z"/><path class="cls-4" d="M68.57,57.57c0,.31-.09.62-.14.91Q68.51,58,68.57,57.57Z"/><path class="cls-6" d="M68.57,57.57c0,.31-.09.62-.14.91Q68.51,58,68.57,57.57Z"/><path class="cls-3" d="M68.37,58.85c-.07.37-.15.73-.24,1.08C68.22,59.58,68.3,59.22,68.37,58.85Z"/><path class="cls-4" d="M68.37,58.85c-.07.37-.15.73-.24,1.08C68.22,59.58,68.3,59.22,68.37,58.85Z"/><path class="cls-6" d="M68.37,58.85c-.07.37-.15.73-.24,1.08C68.22,59.58,68.3,59.22,68.37,58.85Z"/><path class="cls-3" d="M67.67,61.3c-.08.21-.17.41-.26.61C67.5,61.71,67.59,61.51,67.67,61.3Z"/><path class="cls-4" d="M67.67,61.3c-.08.21-.17.41-.26.61C67.5,61.71,67.59,61.51,67.67,61.3Z"/><path class="cls-6" d="M67.67,61.3c-.08.21-.17.41-.26.61C67.5,61.71,67.59,61.51,67.67,61.3Z"/><path class="cls-3" d="M68.74,55.8c0,.49-.08.94-.13,1.38C68.67,56.74,68.71,56.29,68.74,55.8Z"/><path class="cls-4" d="M68.74,55.8c0,.49-.08.94-.13,1.38C68.67,56.74,68.71,56.29,68.74,55.8Z"/><path class="cls-6" d="M68.74,55.8c0,.49-.08.94-.13,1.38C68.67,56.74,68.71,56.29,68.74,55.8Z"/><path class="cls-3" d="M68.05,60.19q-.11.38-.24.75C67.9,60.69,68,60.44,68.05,60.19Z"/><path class="cls-4" d="M68.05,60.19q-.11.38-.24.75C67.9,60.69,68,60.44,68.05,60.19Z"/><path class="cls-6" d="M68.05,60.19q-.11.38-.24.75C67.9,60.69,68,60.44,68.05,60.19Z"/><path class="cls-3" d="M66.84,63c.15-.25.29-.5.42-.76-.13.26-.27.51-.42.76Z"/><path class="cls-4" d="M66.84,63c.15-.25.29-.5.42-.76-.13.26-.27.51-.42.76Z"/><path class="cls-6" d="M66.84,63c.15-.25.29-.5.42-.76-.13.26-.27.51-.42.76Z"/><path class="cls-5" d="M65.64,42.75a3.94,3.94,0,0,1-.22.39,2.3,2.3,0,0,0,.47.11Z"/><path class="cls-6" d="M65.64,42.75a3.94,3.94,0,0,1-.22.39,2.3,2.3,0,0,0,.47.11Z"/><path class="cls-5" d="M61.09,35.44a53.58,53.58,0,0,0-7.79-8.21,49.74,49.74,0,0,1-4.56-4.44,26.17,26.17,0,0,1-3-3.69c1.68,6.81,7.2,11.48,11.84,16.68A13.9,13.9,0,0,1,61.09,35.44Z"/><path class="cls-6" d="M61.09,35.44a53.58,53.58,0,0,0-7.79-8.21,49.74,49.74,0,0,1-4.56-4.44,26.17,26.17,0,0,1-3-3.69c1.68,6.81,7.2,11.48,11.84,16.68A13.9,13.9,0,0,1,61.09,35.44Z"/><path class="cls-5" d="M64.06,44.58a4.72,4.72,0,0,1-.55.35,33.73,33.73,0,0,1,1.25,3.95,7.13,7.13,0,0,0,1.83-2.81c-.16-.66-.31-1.32-.46-2A3.71,3.71,0,0,1,64.06,44.58Z"/><path class="cls-6" d="M64.06,44.58a4.72,4.72,0,0,1-.55.35,33.73,33.73,0,0,1,1.25,3.95,7.13,7.13,0,0,0,1.83-2.81c-.16-.66-.31-1.32-.46-2A3.71,3.71,0,0,1,64.06,44.58Z"/><path class="cls-5" d="M63.36,38.73c-.38-.59-.77-1.19-1.19-1.79a22,22,0,0,0-3.13.57q.54.66,1,1.33h0A23.84,23.84,0,0,1,63.36,38.73Z"/><path class="cls-6" d="M63.36,38.73c-.38-.59-.77-1.19-1.19-1.79a22,22,0,0,0-3.13.57q.54.66,1,1.33h0A23.84,23.84,0,0,1,63.36,38.73Z"/><path class="cls-5" d="M66.55,49.09a.72.72,0,0,1,.38.74.71.71,0,0,1-.13.32,2.57,2.57,0,0,1,.43,3.19A7.94,7.94,0,0,1,66,55.13c.21,1.45.4,2.89.58,4.3.15,1.19.26,2.38.31,3.57.15-.25.29-.5.42-.76l.15-.32c.09-.2.18-.4.26-.61l.14-.37q.13-.36.24-.75l.08-.26c.09-.34.17-.7.24-1.08,0-.12,0-.24.06-.37,0-.29.1-.59.14-.91,0-.13,0-.26,0-.39,0-.44.09-.89.13-1.38l0-.23c-.43-2.47-1-4.88-1.63-7.31A8.58,8.58,0,0,1,66.55,49.09Z"/><path class="cls-6" d="M66.55,49.09a.72.72,0,0,1,.38.74.71.71,0,0,1-.13.32,2.57,2.57,0,0,1,.43,3.19A7.94,7.94,0,0,1,66,55.13c.21,1.45.4,2.89.58,4.3.15,1.19.26,2.38.31,3.57.15-.25.29-.5.42-.76l.15-.32c.09-.2.18-.4.26-.61l.14-.37q.13-.36.24-.75l.08-.26c.09-.34.17-.7.24-1.08,0-.12,0-.24.06-.37,0-.29.1-.59.14-.91,0-.13,0-.26,0-.39,0-.44.09-.89.13-1.38l0-.23c-.43-2.47-1-4.88-1.63-7.31A8.58,8.58,0,0,1,66.55,49.09Z"/><path class="cls-5" d="M48,58.5a4.88,4.88,0,0,0,3.4-2.1.15.15,0,0,0-.13-.22c-1.57.17-2.94.89-4.56.45-.89-.24-1.77-.72-2.52.06a.11.11,0,0,0,0,.17C45.6,57.48,46.42,58.61,48,58.5Z"/><path class="cls-6" d="M48,58.5a4.88,4.88,0,0,0,3.4-2.1.15.15,0,0,0-.13-.22c-1.57.17-2.94.89-4.56.45-.89-.24-1.77-.72-2.52.06a.11.11,0,0,0,0,.17C45.6,57.48,46.42,58.61,48,58.5Z"/><path class="cls-5" d="M46.48,95.75c-1.1-.3-2.18-.89-3.11.08a.13.13,0,0,0,0,.2c1.67.77,2.69,2.16,4.67,2a6,6,0,0,0,4.18-2.58.19.19,0,0,0-.17-.27C50.16,95.41,48.46,96.29,46.48,95.75Z"/><path class="cls-6" d="M46.48,95.75c-1.1-.3-2.18-.89-3.11.08a.13.13,0,0,0,0,.2c1.67.77,2.69,2.16,4.67,2a6,6,0,0,0,4.18-2.58.19.19,0,0,0-.17-.27C50.16,95.41,48.46,96.29,46.48,95.75Z"/><path class="cls-5" d="M46.46,55.48a2,2,0,0,0,.32.14.73.73,0,0,0,.37,0h.07a.71.71,0,0,0,.68-.63.73.73,0,0,0-.5-.8h0a.73.73,0,0,0-.38-.11,1.71,1.71,0,0,0-.35,0,.85.85,0,0,0-.57.29.59.59,0,0,0-.08.64A.87.87,0,0,0,46.46,55.48Z"/><path class="cls-9" d="M46.46,55.48a2,2,0,0,0,.32.14.73.73,0,0,0,.37,0h.07a.71.71,0,0,0,.68-.63.73.73,0,0,0-.5-.8h0a.73.73,0,0,0-.38-.11,1.71,1.71,0,0,0-.35,0,.85.85,0,0,0-.57.29.59.59,0,0,0-.08.64A.87.87,0,0,0,46.46,55.48Z"/><path class="cls-5" d="M31.1,49h0a.73.73,0,0,0-.38-.11,1.4,1.4,0,0,0-.3,0c.18.17.36.33.56.48l.46-.21A.74.74,0,0,0,31.1,49Z"/><path class="cls-9" d="M31.1,49h0a.73.73,0,0,0-.38-.11,1.4,1.4,0,0,0-.3,0c.18.17.36.33.56.48l.46-.21A.74.74,0,0,0,31.1,49Z"/><path class="cls-5" d="M66.8,50.14a.71.71,0,0,0,.13-.32.72.72,0,0,0-.38-.74c-.14.18-.29.34-.44.51A3.81,3.81,0,0,1,66.8,50.14Z"/><path class="cls-6" d="M66.8,50.14a.71.71,0,0,0,.13-.32.72.72,0,0,0-.38-.74c-.14.18-.29.34-.44.51A3.81,3.81,0,0,1,66.8,50.14Z"/><path class="cls-9" d="M66.8,50.14a.71.71,0,0,0,.13-.32.72.72,0,0,0-.38-.74c-.14.18-.29.34-.44.51A3.81,3.81,0,0,1,66.8,50.14Z"/><path class="cls-3" d="M30.7,36.07c-5.27.91,1.43.75,2.43.83,3.72.3,6.73,1.71,8.45,2.06s2.48-1.63.83-2.11C35.32,34.78,34.6,35.39,30.7,36.07Z"/><path class="cls-5" d="M30.42,43.14a10.61,10.61,0,0,0,1.6-.85,8.18,8.18,0,0,1,3.78-1.06,6.2,6.2,0,0,1,5.84,3.54.4.4,0,0,1,0,.19.45.45,0,0,0,.28-.58A4.58,4.58,0,0,0,41,42.72a5.49,5.49,0,0,0-1.17-1.29c-.28-.12-.57-.24-.86-.34s-.52-.17-.79-.24a21.35,21.35,0,0,0-5.68-.68,6.62,6.62,0,0,0-2.42.45A2.52,2.52,0,0,0,30.42,43.14Z"/><path class="cls-6" d="M30.42,43.14a10.61,10.61,0,0,0,1.6-.85,8.18,8.18,0,0,1,3.78-1.06,6.2,6.2,0,0,1,5.84,3.54.4.4,0,0,1,0,.19.45.45,0,0,0,.28-.58A4.58,4.58,0,0,0,41,42.72a5.49,5.49,0,0,0-1.17-1.29c-.28-.12-.57-.24-.86-.34s-.52-.17-.79-.24a21.35,21.35,0,0,0-5.68-.68,6.62,6.62,0,0,0-2.42.45A2.52,2.52,0,0,0,30.42,43.14Z"/><path class="cls-5" d="M32.15,44.53c-.12,0-.25,0-.37,0a4.69,4.69,0,0,0,.57.36c-.06-.1-.12-.2-.17-.3A1.09,1.09,0,0,1,32.15,44.53Z"/><path class="cls-6" d="M32.15,44.53c-.12,0-.25,0-.37,0a4.69,4.69,0,0,0,.57.36c-.06-.1-.12-.2-.17-.3A1.09,1.09,0,0,1,32.15,44.53Z"/><path class="cls-5" d="M41,45l.08,0L41,44.9Z"/><path class="cls-6" d="M41,45l.08,0L41,44.9Z"/><path class="cls-10" d="M39.28,43.56a2.43,2.43,0,0,1,.22.48,2.16,2.16,0,0,1-.56,2.14,2.35,2.35,0,0,1-.58.44,3.85,3.85,0,0,1-3.86-.37,2.8,2.8,0,0,1-.41-.36,1.6,1.6,0,0,1-.41-1.83l-.59.23a4,4,0,0,1-.94.24,1.09,1.09,0,0,0,0,.11c0,.1.11.2.17.3A4.72,4.72,0,0,0,36,47.24c1.6.16,4.09-.47,4.87-1.82A1.67,1.67,0,0,0,41,45V44.9A4.54,4.54,0,0,0,39.28,43.56Z"/><path class="cls-11" d="M34.08,45.89a2.8,2.8,0,0,0,.41.36,3.85,3.85,0,0,0,3.86.37,2.35,2.35,0,0,0,.58-.44A2.16,2.16,0,0,0,39.5,44a2.43,2.43,0,0,0-.22-.48,4.21,4.21,0,0,0-.93-.27,1.66,1.66,0,0,1,.14.37.41.41,0,0,1,.07.81,1.72,1.72,0,0,1-.37,1.23,1.58,1.58,0,0,1-.39.29,2.59,2.59,0,0,1-2.59-.25,1.17,1.17,0,0,1-.28-.24c-.05-.07-.08-.14-.12-.21a.55.55,0,0,1-.22-.4s0-.05,0-.08a1.51,1.51,0,0,1,.05-1.09l-1,.34A1.6,1.6,0,0,0,34.08,45.89Z"/><path class="cls-3" d="M34.59,44.82a1.22,1.22,0,0,1,.67-1.11c.16-.06.41-.06.49.12a1.68,1.68,0,0,1,0,1.22.61.61,0,0,1-1,.25c0,.07.07.14.12.21a1.17,1.17,0,0,0,.28.24A2.59,2.59,0,0,0,37.8,46a1.58,1.58,0,0,0,.39-.29,1.72,1.72,0,0,0,.37-1.23l-.08,0a.42.42,0,1,1,0-.83h0a1.66,1.66,0,0,0-.14-.37,7.92,7.92,0,0,0-3.71.44A1.51,1.51,0,0,0,34.59,44.82Z"/><path class="cls-12" d="M41.64,44.77a6.2,6.2,0,0,0-5.84-3.54A8.18,8.18,0,0,0,32,42.29a10.61,10.61,0,0,1-1.6.85A1.62,1.62,0,0,1,28.81,43a.1.1,0,0,0-.16.08,1.37,1.37,0,0,1,.08.15,3.48,3.48,0,0,0,3,1.4c.12,0,.25,0,.37,0a4,4,0,0,0,.94-.24l.59-.23,1-.34a7.92,7.92,0,0,1,3.71-.44,4.21,4.21,0,0,1,.93.27A4.54,4.54,0,0,1,41,44.9l.07.08.06.08c.19.25.52.16.53-.1A.4.4,0,0,0,41.64,44.77Z"/><path class="cls-10" d="M35.78,45a1.68,1.68,0,0,0,0-1.22c-.08-.17-.33-.18-.49-.12a1.22,1.22,0,0,0-.67,1.11s0,.05,0,.08a.55.55,0,0,0,.22.4A.61.61,0,0,0,35.78,45Z"/><path class="cls-10" d="M38.47,44.48l.08,0a.41.41,0,0,0-.07-.81h0A.42.42,0,1,0,38.47,44.48Z"/><path class="cls-5" d="M63.49,44.93h0Z"/><path class="cls-6" d="M63.49,44.93h0Z"/><path class="cls-5" d="M54.81,42.72a4.58,4.58,0,0,0-.93,1.66.45.45,0,0,0,.28.58.4.4,0,0,1,0-.19A6.2,6.2,0,0,1,60,41.23a7.87,7.87,0,0,1,1.84.27q-.39-.66-.82-1.3a21.55,21.55,0,0,0-4.23.66l-.15,0A6.33,6.33,0,0,0,54.81,42.72Z"/><path class="cls-6" d="M54.81,42.72a4.58,4.58,0,0,0-.93,1.66.45.45,0,0,0,.28.58.4.4,0,0,1,0-.19A6.2,6.2,0,0,1,60,41.23a7.87,7.87,0,0,1,1.84.27q-.39-.66-.82-1.3a21.55,21.55,0,0,0-4.23.66l-.15,0A6.33,6.33,0,0,0,54.81,42.72Z"/><path class="cls-5" d="M54.76,45l.08,0V44.9Z"/><path class="cls-6" d="M54.76,45l.08,0V44.9Z"/><path class="cls-5" d="M63.81,42.29a10.61,10.61,0,0,0,1.6.85,3.94,3.94,0,0,0,.22-.39q-.57-1.14-1.24-2.31a7.34,7.34,0,0,0-1.89-.27c-.48,0-1,0-1.45,0q.43.64.82,1.3A8.4,8.4,0,0,1,63.81,42.29Z"/><path class="cls-6" d="M63.81,42.29a10.61,10.61,0,0,0,1.6.85,3.94,3.94,0,0,0,.22-.39q-.57-1.14-1.24-2.31a7.34,7.34,0,0,0-1.89-.27c-.48,0-1,0-1.45,0q.43.64.82,1.3A8.4,8.4,0,0,1,63.81,42.29Z"/><path class="cls-6" d="M63.81,42.29a10.61,10.61,0,0,0,1.6.85,3.94,3.94,0,0,0,.22-.39q-.57-1.14-1.24-2.31a7.34,7.34,0,0,0-1.89-.27c-.48,0-1,0-1.45,0q.43.64.82,1.3A8.4,8.4,0,0,1,63.81,42.29Z"/><path class="cls-5" d="M63.69,44.53a1.06,1.06,0,0,1,0,.11c0,.09-.1.18-.15.27h0a4.72,4.72,0,0,0,.55-.35C63.94,44.57,63.81,44.54,63.69,44.53Z"/><path class="cls-6" d="M63.69,44.53a1.06,1.06,0,0,1,0,.11c0,.09-.1.18-.15.27h0a4.72,4.72,0,0,0,.55-.35C63.94,44.57,63.81,44.54,63.69,44.53Z"/><path class="cls-6" d="M63.69,44.53a1.06,1.06,0,0,1,0,.11c0,.09-.1.18-.15.27h0a4.72,4.72,0,0,0,.55-.35C63.94,44.57,63.81,44.54,63.69,44.53Z"/><path class="cls-10" d="M63.66,44.63a1.06,1.06,0,0,0,0-.11,4,4,0,0,1-.94-.24l-.59-.23a1.6,1.6,0,0,1-.41,1.83,2.8,2.8,0,0,1-.41.36,3.85,3.85,0,0,1-3.86.37,2.35,2.35,0,0,1-.58-.44A2.16,2.16,0,0,1,56.34,44a2.43,2.43,0,0,1,.22-.48,4.54,4.54,0,0,0-1.73,1.34V45a1.67,1.67,0,0,0,.18.46c.78,1.34,3.28,2,4.87,1.82a4.72,4.72,0,0,0,3.6-2.31v0C63.56,44.82,63.61,44.73,63.66,44.63Z"/><path class="cls-11" d="M61.2,43.76a.41.41,0,0,1,.12.67,2,2,0,0,1-.41,1.08,1.17,1.17,0,0,1-.28.24A2.59,2.59,0,0,1,58,46a1.58,1.58,0,0,1-.39-.29,1.08,1.08,0,0,1-.18-.26.57.57,0,0,1-.36-.48,1.31,1.31,0,0,1,.16-.7,2,2,0,0,1,.21-1,4.22,4.22,0,0,0-.93.27,2.43,2.43,0,0,0-.22.48,2.16,2.16,0,0,0,.56,2.14,2.35,2.35,0,0,0,.58.44,3.85,3.85,0,0,0,3.86-.37,2.8,2.8,0,0,0,.41-.36,1.6,1.6,0,0,0,.41-1.83l-1-.34Z"/><path class="cls-3" d="M57.79,43.77c.16-.06.41-.06.49.12a1.68,1.68,0,0,1,0,1.22.6.6,0,0,1-.84.33,1.08,1.08,0,0,0,.18.26A1.58,1.58,0,0,0,58,46a2.59,2.59,0,0,0,2.59-.25,1.17,1.17,0,0,0,.28-.24,2,2,0,0,0,.41-1.08.44.44,0,0,1-.32.12.42.42,0,1,1,0-.83.49.49,0,0,1,.2,0v0a7.92,7.92,0,0,0-3.71-.44,2,2,0,0,0-.21,1A1,1,0,0,1,57.79,43.77Z"/><path class="cls-12" d="M56.56,43.56a4.22,4.22,0,0,1,.93-.27,7.92,7.92,0,0,1,3.71.44l1,.34.59.23a4,4,0,0,0,.94.24c.12,0,.25,0,.37,0a3.71,3.71,0,0,0,2.05-.5c-.05-.24-.11-.47-.17-.71l-.06-.12a2.3,2.3,0,0,1-.47-.11,10.61,10.61,0,0,1-1.6-.85,8.4,8.4,0,0,0-1.94-.78A7.87,7.87,0,0,0,60,41.23a6.2,6.2,0,0,0-5.84,3.54.4.4,0,0,0,0,.19c0,.26.34.35.53.1l.07-.08.07-.08A4.54,4.54,0,0,1,56.56,43.56Z"/><path class="cls-10" d="M58.31,45.11a1.68,1.68,0,0,0,0-1.22c-.08-.17-.33-.18-.49-.12a1,1,0,0,0-.52.49,1.31,1.31,0,0,0-.16.7.57.57,0,0,0,.36.48A.6.6,0,0,0,58.31,45.11Z"/><path class="cls-10" d="M61,44.55a.44.44,0,0,0,.32-.12.41.41,0,0,0-.12-.67.49.49,0,0,0-.2,0A.42.42,0,1,0,61,44.55Z"/><path class="cls-7" d="M58.65,127.46a4.83,4.83,0,0,0,1.19,1,15.83,15.83,0,0,1-.94-2.12c0-.13-.61-2-.14-1.48,3,3.39,5.38-.3,6-3.4a28.38,28.38,0,0,0-1.72-6c-.5-1.54-.93-3-1.3-4.36-1.76,0-3.51,0-5.27-.07-7.52-.19-15-.63-22.5-1.51-5.25-.62-13.23.1-12.1,7.56.62,4.13,4.34,6.4,8.14,7.9a42.53,42.53,0,0,0,11.57,4.83A41.49,41.49,0,0,0,59.69,131a15.75,15.75,0,0,1-.91-2.05C58.74,128.8,58.18,126.93,58.65,127.46Z"/><path class="cls-13" d="M58.65,127.46a4.83,4.83,0,0,0,1.19,1,15.83,15.83,0,0,1-.94-2.12c0-.13-.61-2-.14-1.48,3,3.39,5.38-.3,6-3.4a28.38,28.38,0,0,0-1.72-6c-.5-1.54-.93-3-1.3-4.36-1.76,0-3.51,0-5.27-.07-7.52-.19-15-.63-22.5-1.51-5.25-.62-13.23.1-12.1,7.56.62,4.13,4.34,6.4,8.14,7.9a42.53,42.53,0,0,0,11.57,4.83A41.49,41.49,0,0,0,59.69,131a15.75,15.75,0,0,1-.91-2.05C58.74,128.8,58.18,126.93,58.65,127.46Z"/><path class="cls-14" d="M20.81,19.46c.42.19.86.38,1.3.55a58.28,58.28,0,0,0,7.41,2.24l-.29.34a32,32,0,0,1,2.22-2.3,37.79,37.79,0,0,0-5.1,10.3l.07-.11.3-.4,0,0A16.6,16.6,0,0,1,28,28.58l-.81-.25a41.11,41.11,0,0,1,2.9-5.94c1.8.4,3.62.72,5.45,1,.86-.46,1.74-.93,2.63-1.44.34-.2.74-.39,1.16-.59,1.7-.81,3.94-1.67,6.09-2.7l.31.47a26.17,26.17,0,0,0,3,3.69,58.45,58.45,0,0,0,9.32,7.15c.49.33,1,.68,1.42,1-.46-.36-.93-.71-1.42-1a67.5,67.5,0,0,1-8.36-6.23,82.29,82.29,0,0,0,17.42-3.28,21,21,0,0,1,5.16,9.45c-1.27-4.47-3.4-8.69-7.43-11.29a9.57,9.57,0,0,1,2.83,1.68,91.68,91.68,0,0,0,10.19-3.81c-.12-.21-.23-.42-.35-.63l-.38-.61q-.54-.88-1.13-1.72l-.45-.64c-.53-.73-1.08-1.45-1.67-2.14a26.22,26.22,0,0,0-7.36-6.05h0L65.47,4.1A37.78,37.78,0,0,0,55.22.39C54.81.31,54.39.23,54,.18h-.06l-.8-.09H53a11.8,11.8,0,0,0-5.07.51l-.38.14-.05,0-.09,0a7.81,7.81,0,0,0-.89.47c-.2.12-.38.26-.56.39l-.26.2-.11.08c-3.46,2.93-3.51,8.54-2,13A14.6,14.6,0,0,1,43,13a9.07,9.07,0,0,1-.66-1.43h0a8.1,8.1,0,0,1-.27-.9v-.08h0A12.8,12.8,0,0,1,42.75,3c-8.52.58-15.63,6.06-20.32,13.12l-.3.48a52.23,52.23,0,0,0-2.25,5.16l0,.06q-.32.85-.6,1.7v0c-.14.42-.27.83-.39,1.25A54,54,0,0,1,20.81,19.46Z"/><path class="cls-14" d="M16.68,44.35c0,.35.09.7.14,1.05a121.89,121.89,0,0,0,8.89,31.11C27.47,80.43,29.94,85,32,88.79h0l0,0a14.84,14.84,0,0,0,2.8-4l.31-.63.11-.23h0a25.76,25.76,0,0,1-3.21-4.72C28.16,73,24.77,66.62,23.16,59.4a50.27,50.27,0,0,1-1.09-7.61A20.45,20.45,0,0,1,20.18,46c-.34-2.2-.72-5,1.55-6.11a31.82,31.82,0,0,1,3.82-12.12c-.5-.18-1-.34-1.5-.53s-1.22-.47-1.82-.71l-.53-.28-2.84-1.47-.13.4-.07.23c-.15.51-.29,1-.43,1.53l0,.07c-.13.51-.25,1-.37,1.53l-.07.33c-.11.5-.21,1-.3,1.49-.18,1-.33,2.06-.46,3.13,0,.25,0,.51-.07.76-.09.86-.16,1.72-.21,2.61,0,.05,0,.1,0,.16C16.58,39.39,16.58,41.85,16.68,44.35Z"/><path class="cls-14" d="M26.41,26.33l-.17.27Z"/><path class="cls-14" d="M27.39,24.89l-.29.42Z"/><path class="cls-14" d="M28.1,23.95l.38-.48Z"/><path class="cls-3" d="M63.06,85a7.5,7.5,0,0,1-.65-.46l0,.07c.18.28.36.55.56.82Z"/><path class="cls-4" d="M63.06,85a7.5,7.5,0,0,1-.65-.46l0,.07c.18.28.36.55.56.82Z"/><path class="cls-6" d="M63.06,85a7.5,7.5,0,0,1-.65-.46l0,.07c.18.28.36.55.56.82Z"/><path class="cls-5" d="M63,85.46c-.2-.27-.38-.54-.56-.82-.27.82-.52,1.65-.73,2.48-1.81,7-2.4,12.66-.78,20.45l1.14-.05A57.42,57.42,0,0,1,63,85.46Z"/><path class="cls-6" d="M63,85.46c-.2-.27-.38-.54-.56-.82-.27.82-.52,1.65-.73,2.48-1.81,7-2.4,12.66-.78,20.45l1.14-.05A57.42,57.42,0,0,1,63,85.46Z"/><path class="cls-5" d="M62,107.52l-1.14.05h0l1.14,0Z"/><path class="cls-15" d="M62,107.52l-1.14.05h0l1.14,0Z"/><path class="cls-7" d="M80.29,135.54c-.06,0-.12.11-.18.16a3,3,0,0,1-1,.37,14.64,14.64,0,0,1-4.48,1,15.2,15.2,0,0,1-13.11-5.92l-.28-.41-.2,0c-.44.09-.88.15-1.32.23a21.33,21.33,0,0,0,1.69,2.73,14.82,14.82,0,0,0,9.32,5.68q4.69-.52,9.59-1.33.41-.21.8-.45C80.88,137.09,80.61,136.38,80.29,135.54Z"/><path class="cls-15" d="M80.29,135.54c-.06,0-.12.11-.18.16a3,3,0,0,1-1,.37,14.64,14.64,0,0,1-4.48,1,15.2,15.2,0,0,1-13.11-5.92l-.28-.41-.2,0c-.44.09-.88.15-1.32.23a21.33,21.33,0,0,0,1.69,2.73,14.82,14.82,0,0,0,9.32,5.68q4.69-.52,9.59-1.33.41-.21.8-.45C80.88,137.09,80.61,136.38,80.29,135.54Z"/><path class="cls-7" d="M90.22,122l.44.75c.37-1.36.67-2.73.91-4.05a50.13,50.13,0,0,0,.78-8.12c-.06.81-.11,1.63-.21,2.44v0h0c-.12,1-.27,2-.45,3.05A47.49,47.49,0,0,1,90.22,122Z"/><path class="cls-15" d="M90.22,122l.44.75c.37-1.36.67-2.73.91-4.05a50.13,50.13,0,0,0,.78-8.12c-.06.81-.11,1.63-.21,2.44v0h0c-.12,1-.27,2-.45,3.05A47.49,47.49,0,0,1,90.22,122Z"/><path class="cls-7" d="M61.72,111.1h1q-.4-1.78-.68-3.58l-1.14,0Q61.23,109.26,61.72,111.1Z"/><path class="cls-15" d="M61.72,111.1h1q-.4-1.78-.68-3.58l-1.14,0Q61.23,109.26,61.72,111.1Z"/><path class="cls-7" d="M58.65,127.46c-.47-.53.09,1.35.14,1.48a15.75,15.75,0,0,0,.91,2.05c.44-.07.88-.14,1.32-.23l.2,0a20.91,20.91,0,0,1-1.37-2.25A4.83,4.83,0,0,1,58.65,127.46Z"/><path class="cls-13" d="M58.65,127.46c-.47-.53.09,1.35.14,1.48a15.75,15.75,0,0,0,.91,2.05c.44-.07.88-.14,1.32-.23l.2,0a20.91,20.91,0,0,1-1.37-2.25A4.83,4.83,0,0,1,58.65,127.46Z"/><path class="cls-15" d="M58.65,127.46c-.47-.53.09,1.35.14,1.48a15.75,15.75,0,0,0,.91,2.05c.44-.07.88-.14,1.32-.23l.2,0a20.91,20.91,0,0,1-1.37-2.25A4.83,4.83,0,0,1,58.65,127.46Z"/><path class="cls-7" d="M64.74,121.46a8.47,8.47,0,0,0,.13-.89c.24-2.85-1-5.07-1.74-7.7q-.23-.87-.43-1.76h-1c.37,1.38.8,2.82,1.3,4.36A28.38,28.38,0,0,1,64.74,121.46Z"/><path class="cls-13" d="M64.74,121.46a8.47,8.47,0,0,0,.13-.89c.24-2.85-1-5.07-1.74-7.7q-.23-.87-.43-1.76h-1c.37,1.38.8,2.82,1.3,4.36A28.38,28.38,0,0,1,64.74,121.46Z"/><path class="cls-15" d="M64.74,121.46a8.47,8.47,0,0,0,.13-.89c.24-2.85-1-5.07-1.74-7.7q-.23-.87-.43-1.76h-1c.37,1.38.8,2.82,1.3,4.36A28.38,28.38,0,0,1,64.74,121.46Z"/><path class="cls-3" d="M21.81,39.84a4,4,0,0,1,3.17,0,1,1,0,0,1,.22-.28,2.13,2.13,0,0,1,1.2-.38h.08c0-1.89,0-3.61,0-5.19l0,.06c0-.9.09-1.75.15-2.56q0-.7.1-1.35l-.3.4-.07.11a37.79,37.79,0,0,1,5.1-10.3,32,32,0,0,0-2.22,2.3c-.25.29-.5.57-.74.86l-.38.48c-.24.31-.49.62-.72.94l-.29.42c-.24.34-.47.68-.69,1l-.17.27c-.24.39-.48.78-.7,1.17h0a31.81,31.81,0,0,0-3.82,12.12Z"/><path class="cls-5" d="M26.31,55a2.7,2.7,0,0,1-.48,0A2.74,2.74,0,0,0,26.31,55Z"/><path class="cls-5" d="M23.85,54.18l-.33-.31Z"/><path class="cls-5" d="M24.4,54.57a3.63,3.63,0,0,1-.36-.24A3.64,3.64,0,0,0,24.4,54.57Z"/><path class="cls-5" d="M25.13,54.89a2.76,2.76,0,0,1-.56-.22A2.77,2.77,0,0,0,25.13,54.89Z"/><path class="cls-5" d="M25.13,54.89a3.88,3.88,0,0,0,.6.11A3.74,3.74,0,0,1,25.13,54.89Z"/><path class="cls-5" d="M23.36,53.7q-.17-.19-.33-.4C23.14,53.44,23.25,53.57,23.36,53.7Z"/><path class="cls-5" d="M22.48,52.51a15.07,15.07,0,0,1-1.14-2.33,8.15,8.15,0,0,0,2.92,2.07,5.61,5.61,0,0,0,2.88.42c0,.79.06,1.77.09,2a2.14,2.14,0,0,1-.9.32,2.11,2.11,0,0,0,.85-.28l.07,1.09c.3,4.34,1.19,6.7,3.35,9.15a60.16,60.16,0,0,0,6.21,5.61l0,0c1.45,1.21,3.09,2.58,5,4.23a9.28,9.28,0,0,0,12.33,0c2.26-2,4.16-3.54,5.79-4.91h0c3.4-2.84,5.55-4.71,6.88-6.91,0-1.19-.15-2.38-.31-3.57-.18-1.41-.37-2.85-.58-4.3a8.35,8.35,0,0,1-4.78,2.71,5.7,5.7,0,0,1-2.11-.25c-2.71-.31-4.47-2.88-3.27-5.36h0A9.1,9.1,0,0,1,51.28,50a10.25,10.25,0,0,1-2.16-3.77,1.27,1.27,0,0,0-1.56-1,1.7,1.7,0,0,0-1.62,1A10.25,10.25,0,0,1,43.77,50a8,8,0,0,1-3.08,1.82c.05.08.12.15.16.23,1.37,2.54-.41,5.23-3.19,5.54a5.7,5.7,0,0,1-2.11.25,8.69,8.69,0,0,1-6.06-4.51,2.58,2.58,0,0,1,.23-3A8.58,8.58,0,0,1,27.3,47c-.34-.84-.51-1.73-.8-2.59a5.44,5.44,0,0,0-.56-1.21c-.25-.38-.66-.66-.86-1.07a4,4,0,0,1-.24-1.47,1.73,1.73,0,0,1,.15-.89,4,4,0,0,0-3.17,0l-.09,0C19.46,41,19.84,43.81,20.18,46a20.45,20.45,0,0,0,1.9,5.79C22.2,52,22.34,52.28,22.48,52.51ZM48.31,74.37a4.06,4.06,0,0,1-3-.45A1.53,1.53,0,0,1,45,71.57a3.3,3.3,0,0,1,2.33-.79,7.4,7.4,0,0,1,3.23.24,1.37,1.37,0,0,1,.76,1C51.69,73.69,49.5,74.23,48.31,74.37Zm-2.25-20a.85.85,0,0,1,.57-.29,1.71,1.71,0,0,1,.35,0,.73.73,0,0,1,.38.11h0a.73.73,0,0,1,.5.8.71.71,0,0,1-.68.63h-.07a.73.73,0,0,1-.37,0,2,2,0,0,1-.32-.14.87.87,0,0,1-.48-.43A.59.59,0,0,1,46.06,54.41Zm-1.85,2.28c.76-.79,1.63-.31,2.52-.06,1.61.44,3-.28,4.56-.45a.15.15,0,0,1,.13.22A4.88,4.88,0,0,1,48,58.5c-1.61.1-2.43-1-3.79-1.65A.11.11,0,0,1,44.21,56.69Zm-4.5,5.63c.18-.06.39.16.27.33l-.09.13.93.13a5.65,5.65,0,0,0,2.39,0A18,18,0,0,1,45.68,62a3.16,3.16,0,0,1,2.32.71,2.26,2.26,0,0,1,2.39-.64c.77.21,1.42.69,2.21.86a7.82,7.82,0,0,0,2.47.07c.06,0,.55-.1.94-.13l.11-.06L56,62.65c-.12-.17.09-.39.27-.33s.61.53.42.85a.26.26,0,0,1-.4,0v0l-.18.12a24.07,24.07,0,0,0-3.23,3.33,6.86,6.86,0,0,1-7.06,1.62,14.27,14.27,0,0,1-3.18-2.35,29.18,29.18,0,0,0-2.87-2.77h0a.44.44,0,0,1-.06.1.26.26,0,0,1-.4,0C39.1,62.84,39.4,62.42,39.72,62.32ZM22,42.17a2,2,0,0,1,2.8.74,6.48,6.48,0,0,1,1.16,3.22,4.1,4.1,0,0,1-1,3.15c-.07.1-.23,0-.22-.11a9.87,9.87,0,0,0-.38-3.31,4.34,4.34,0,0,0-.79-1.34c0,.16,0,.31,0,.47a1.21,1.21,0,0,1-2.28.72A2.77,2.77,0,0,1,22,42.17Z"/><path class="cls-5" d="M22.9,53.14q-.2-.28-.4-.59Q22.7,52.86,22.9,53.14Z"/><path class="cls-3" d="M25.83,55h0Z"/><path class="cls-6" d="M25.83,55h0Z"/><path class="cls-3" d="M26.34,55h0Z"/><path class="cls-6" d="M26.34,55h0Z"/><path class="cls-3" d="M24,54.33l-.18-.15Z"/><path class="cls-6" d="M24,54.33l-.18-.15Z"/><path class="cls-3" d="M22.51,52.55l0,0Z"/><path class="cls-6" d="M22.51,52.55l0,0Z"/><path class="cls-3" d="M24.57,54.67l-.17-.1Z"/><path class="cls-6" d="M24.57,54.67l-.17-.1Z"/><path class="cls-3" d="M23.52,53.87l-.17-.18Z"/><path class="cls-6" d="M23.52,53.87l-.17-.18Z"/><path class="cls-3" d="M23,53.3l-.12-.16Z"/><path class="cls-6" d="M23,53.3l-.12-.16Z"/><path class="cls-5" d="M27.23,54.67c0-.23-.07-1.21-.09-2a5.61,5.61,0,0,1-2.88-.42,8.15,8.15,0,0,1-2.92-2.07,15.07,15.07,0,0,0,1.14,2.33l0,0q.19.31.4.59l.12.16q.16.21.33.4l.17.18.33.31.18.15a3.63,3.63,0,0,0,.36.24l.17.1a2.76,2.76,0,0,0,.56.22,3.74,3.74,0,0,0,.6.11h.1a2.7,2.7,0,0,0,.48,0h0A2.14,2.14,0,0,0,27.23,54.67Z"/><path class="cls-6" d="M27.23,54.67c0-.23-.07-1.21-.09-2a5.61,5.61,0,0,1-2.88-.42,8.15,8.15,0,0,1-2.92-2.07,15.07,15.07,0,0,0,1.14,2.33l0,0q.19.31.4.59l.12.16q.16.21.33.4l.17.18.33.31.18.15a3.63,3.63,0,0,0,.36.24l.17.1a2.76,2.76,0,0,0,.56.22,3.74,3.74,0,0,0,.6.11h.1a2.7,2.7,0,0,0,.48,0h0A2.14,2.14,0,0,0,27.23,54.67Z"/><path class="cls-5" d="M23.58,45c0-.16,0-.31,0-.47a4.34,4.34,0,0,1,.79,1.34,9.87,9.87,0,0,1,.38,3.31c0,.13.15.2.22.11a4.1,4.1,0,0,0,1-3.15,6.48,6.48,0,0,0-1.16-3.22,2,2,0,0,0-2.8-.74,2.77,2.77,0,0,0-.65,3.54A1.21,1.21,0,0,0,23.58,45Z"/><path class="cls-6" d="M23.58,45c0-.16,0-.31,0-.47a4.34,4.34,0,0,1,.79,1.34,9.87,9.87,0,0,1,.38,3.31c0,.13.15.2.22.11a4.1,4.1,0,0,0,1-3.15,6.48,6.48,0,0,0-1.16-3.22,2,2,0,0,0-2.8-.74,2.77,2.77,0,0,0-.65,3.54A1.21,1.21,0,0,0,23.58,45Z"/><path class="cls-5" d="M36.1,52.48A10.2,10.2,0,0,1,30.5,51a8.83,8.83,0,0,1-.77-.61,2.58,2.58,0,0,0-.23,3,8.69,8.69,0,0,0,6.06,4.51,5.7,5.7,0,0,0,2.11-.25c2.78-.31,4.56-3,3.19-5.54,0-.08-.11-.15-.16-.23a12.77,12.77,0,0,1-1.39.4A13,13,0,0,1,36.1,52.48Z"/><path class="cls-16" d="M36.1,52.48A10.2,10.2,0,0,1,30.5,51a8.83,8.83,0,0,1-.77-.61,2.58,2.58,0,0,0-.23,3,8.69,8.69,0,0,0,6.06,4.51,5.7,5.7,0,0,0,2.11-.25c2.78-.31,4.56-3,3.19-5.54,0-.08-.11-.15-.16-.23a12.77,12.77,0,0,1-1.39.4A13,13,0,0,1,36.1,52.48Z"/><path class="cls-5" d="M31.39,49.21a.72.72,0,0,1,.21.61s0,0,0,.07a8.07,8.07,0,0,0,1.86.86,9.46,9.46,0,0,0,4.37.28,14.79,14.79,0,0,0,1.78-.43,10.19,10.19,0,0,0-6.13-1.81A6.1,6.1,0,0,0,31.39,49.21Z"/><path class="cls-16" d="M31.39,49.21a.72.72,0,0,1,.21.61s0,0,0,.07a8.07,8.07,0,0,0,1.86.86,9.46,9.46,0,0,0,4.37.28,14.79,14.79,0,0,0,1.78-.43,10.19,10.19,0,0,0-6.13-1.81A6.1,6.1,0,0,0,31.39,49.21Z"/><path class="cls-5" d="M31.39,49.21l-.46.21c.21.16.42.33.65.47,0,0,0,0,0-.07A.72.72,0,0,0,31.39,49.21Z"/><path class="cls-9" d="M31.39,49.21l-.46.21c.21.16.42.33.65.47,0,0,0,0,0-.07A.72.72,0,0,0,31.39,49.21Z"/><path class="cls-16" d="M31.39,49.21l-.46.21c.21.16.42.33.65.47,0,0,0,0,0-.07A.72.72,0,0,0,31.39,49.21Z"/><path class="cls-5" d="M64.55,51A10.2,10.2,0,0,1,59,52.48a13.1,13.1,0,0,1-3.17-.25c-1.2,2.48.56,5.06,3.27,5.36a5.7,5.7,0,0,0,2.11.25A8.35,8.35,0,0,0,66,55.13c-.23-1.55-.49-3.09-.82-4.63C64.94,50.66,64.76,50.82,64.55,51Z"/><path class="cls-16" d="M64.55,51A10.2,10.2,0,0,1,59,52.48a13.1,13.1,0,0,1-3.17-.25c-1.2,2.48.56,5.06,3.27,5.36a5.7,5.7,0,0,0,2.11.25A8.35,8.35,0,0,0,66,55.13c-.23-1.55-.49-3.09-.82-4.63C64.94,50.66,64.76,50.82,64.55,51Z"/><path class="cls-5" d="M61.61,50.75a8,8,0,0,0,3-1.77,6.14,6.14,0,0,0-1.37-.19,9.78,9.78,0,0,0-6.49,2.14l.46.1A9.46,9.46,0,0,0,61.61,50.75Z"/><path class="cls-16" d="M61.61,50.75a8,8,0,0,0,3-1.77,6.14,6.14,0,0,0-1.37-.19,9.78,9.78,0,0,0-6.49,2.14l.46.1A9.46,9.46,0,0,0,61.61,50.75Z"/><path class="cls-5" d="M66.8,50.14a.72.72,0,0,1-.55.31h-.07a.73.73,0,0,1-.37,0,2,2,0,0,1-.32-.14l-.06,0-.28.22c.33,1.53.59,3.08.82,4.63a7.94,7.94,0,0,0,1.28-1.81A2.57,2.57,0,0,0,66.8,50.14Z"/><path class="cls-6" d="M66.8,50.14a.72.72,0,0,1-.55.31h-.07a.73.73,0,0,1-.37,0,2,2,0,0,1-.32-.14l-.06,0-.28.22c.33,1.53.59,3.08.82,4.63a7.94,7.94,0,0,0,1.28-1.81A2.57,2.57,0,0,0,66.8,50.14Z"/><path class="cls-16" d="M66.8,50.14a.72.72,0,0,1-.55.31h-.07a.73.73,0,0,1-.37,0,2,2,0,0,1-.32-.14l-.06,0-.28.22c.33,1.53.59,3.08.82,4.63a7.94,7.94,0,0,0,1.28-1.81A2.57,2.57,0,0,0,66.8,50.14Z"/><path class="cls-5" d="M66.1,49.6a8.75,8.75,0,0,1-.69.69l.06,0a2,2,0,0,0,.32.14.73.73,0,0,0,.37,0h.07a.72.72,0,0,0,.55-.31A3.81,3.81,0,0,0,66.1,49.6Z"/><path class="cls-6" d="M66.1,49.6a8.75,8.75,0,0,1-.69.69l.06,0a2,2,0,0,0,.32.14.73.73,0,0,0,.37,0h.07a.72.72,0,0,0,.55-.31A3.81,3.81,0,0,0,66.1,49.6Z"/><path class="cls-9" d="M66.1,49.6a8.75,8.75,0,0,1-.69.69l.06,0a2,2,0,0,0,.32.14.73.73,0,0,0,.37,0h.07a.72.72,0,0,0,.55-.31A3.81,3.81,0,0,0,66.1,49.6Z"/><path class="cls-16" d="M66.1,49.6a8.75,8.75,0,0,1-.69.69l.06,0a2,2,0,0,0,.32.14.73.73,0,0,0,.37,0h.07a.72.72,0,0,0,.55-.31A3.81,3.81,0,0,0,66.1,49.6Z"/><path class="cls-3" d="M53,.07h0Z"/><path class="cls-3" d="M47.56.72l.38-.14Z"/><path class="cls-3" d="M53.92.17h0Z"/><path class="cls-3" d="M54,.18c.41.06.83.13,1.24.21C54.8.31,54.39.23,54,.18Z"/><path class="cls-3" d="M46.53,1.25a7.81,7.81,0,0,1,.89-.47A7.16,7.16,0,0,0,46.53,1.25Z"/><path class="cls-3" d="M65.47,4.1l1.06.56Z"/><path class="cls-3" d="M83.08,29.83q.35,1.39.65,2.8Q83.43,31.22,83.08,29.83Z"/><path class="cls-3" d="M77.89,16.45c.11.19.2.38.3.57.22.4.46.79.66,1.2-.42-.82-.86-1.61-1.33-2.4.12.21.23.42.35.63Z"/><path class="cls-3" d="M81.3,23.93C82,25.75,82.51,27.62,83,29.5,82.51,27.62,82,25.75,81.3,23.93Z"/><path class="cls-3" d="M83.66,33.4c1.21,9.41,0,18.63-2.44,27.69a3.6,3.6,0,0,1,1.29-.91c.38-1.26.76-2.52,1.13-3.77.67-2.32,1.39-4.71,2-7.13.25,7.11.33,14.08-1.24,21.19.24-.59.49-1.19.72-1.78h0c.18-2.18.45-4.36.57-6.59a118.84,118.84,0,0,0-.3-17.92,102.46,102.46,0,0,0-1.69-11.54A1.65,1.65,0,0,0,83.66,33.4Z"/><path class="cls-3" d="M80.28,21.32q.46,1.09.87,2.21Q80.74,22.41,80.28,21.32Z"/><path class="cls-3" d="M45.71,1.84l.26-.2Z"/><path class="cls-3" d="M82.77,79.58a43.67,43.67,0,0,0-1.51,6.18,3.28,3.28,0,0,1-.19,1.67,3,3,0,0,1,.56,2.69,3.39,3.39,0,0,1-.18.52A11.84,11.84,0,0,1,81,92.73c.38,5.27,1.91,10.41,3.24,15.53.45,1.71.84,3.48,1.14,5.26l1.51,2.69c-.54-3.54-1.58-7-2.41-10.5-1.67-7-1-12.84.82-19.37,0,.07,0,.14,0,.21a32.29,32.29,0,0,1,.93-6.24h0a37.27,37.27,0,0,1-.95-4.14A23.76,23.76,0,0,1,85,72.94l-.21.62A33.92,33.92,0,0,0,82.77,79.58Z"/><path class="cls-3" d="M90,97.25a82,82,0,0,1,2.45,9.4,50.66,50.66,0,0,1-.33,6.31c.1-.81.15-1.62.21-2.44a50.92,50.92,0,0,0,0-7.33v0a51.81,51.81,0,0,0-1.12-7.46,52.22,52.22,0,0,0-1.95-6.61c-1-2.77-2.1-5.55-2.93-8.39C86.1,86.5,88.26,91.78,90,97.25Z"/><path class="cls-3" d="M72.29,29.88c.35,1.24.64,2.49.88,3.74a59.52,59.52,0,0,1,0,20.93c-.36,2.18-.82,4.33-1.36,6.46.67-2.68-.2-6.72-.63-9.42A36.22,36.22,0,0,0,69,43.49a6,6,0,0,0-.42.95c-.29.86-.46,1.75-.8,2.59a8.37,8.37,0,0,1-.63,1.24c.61,2.43,1.2,4.84,1.63,7.31a38.44,38.44,0,0,1,.63,7A33.52,33.52,0,0,1,67,73.73a4.88,4.88,0,0,1,.94,1.14c.16.24.51.72.92,1.3a4,4,0,0,1,.49-.44l.12-.07q.91-2.73,1.86-5.46a1.8,1.8,0,0,0,.17-.47q1-2.85,2-5.68a61.87,61.87,0,0,0,3.73-15.61c.58-6.28.13-13-2.41-18.84-.06-.14-.13-.26-.19-.4h0q-.39-.86-.81-1.63h0a22.65,22.65,0,0,0-6.12-7.31h0a9.57,9.57,0,0,0-2.83-1.68c4,2.6,6.17,6.82,7.43,11.29h0Z"/><path class="cls-3" d="M76,13.49q.59.85,1.13,1.72Q76.61,14.34,76,13.49Z"/><path class="cls-3" d="M79.33,19.23c.24.5.48,1,.7,1.5-.36-.83-.74-1.65-1.15-2.46.07.15.14.3.21.45Z"/><path class="cls-3" d="M73.89,10.72c.59.69,1.14,1.41,1.67,2.14C75,12.12,74.48,11.41,73.89,10.72Z"/><path class="cls-3" d="M65.4,77.86a64,64,0,0,0-2.22,6.66c0,.17-.08.34-.12.51l-.1.43A57.42,57.42,0,0,0,62,107.52h0q.28,1.8.68,3.58.2.88.43,1.76c.7,2.64,2,4.85,1.74,7.7a8.47,8.47,0,0,1-.13.89c-.6,3.1-3,6.79-6,3.4-.47-.53.09,1.35.14,1.48a15.83,15.83,0,0,0,.94,2.12,20.91,20.91,0,0,0,1.37,2.25l.28.41A15.2,15.2,0,0,0,74.6,137a14.64,14.64,0,0,0,4.48-1c-1.21.26-2.87.3-3.12.55a16.29,16.29,0,0,0,3-4l.15-.33c-.7-1.95-1.49-4.21-2.31-6.6a14.55,14.55,0,0,1-.88,1.59c-2.38,3.69-7.07,7.35-11.36,4.25a6.62,6.62,0,0,1-2-2.13,4.25,4.25,0,0,0,2.61.52,3.38,3.38,0,0,0,2-1.48c2.89-4.18,2.11-9.25.3-13.69-2.27-5.56-4-10.83-3.75-16.95.24-5.2,1.9-10.25,3.47-15.2a8,8,0,0,1-.13-1.52c-.47-.83-.85-1.72-1.26-2.5Z"/><path class="cls-3" d="M65.89,43.25l.06.12c.05.24.11.48.17.71.15.66.3,1.32.46,2A6.54,6.54,0,0,0,66.86,45a4.88,4.88,0,0,0-.24-2.85,3.46,3.46,0,0,0-2.22-1.69q.67,1.16,1.24,2.31Z"/><path class="cls-3" d="M53.3,27.23a53.58,53.58,0,0,1,7.79,8.21,13.9,13.9,0,0,0-3.54.33c-1.11.22-2.45.57-4.18,1.07s-.83,2.44.83,2.11c1.12-.23,2.8-.9,4.86-1.43a22,22,0,0,1,3.13-.57c.42.6.81,1.19,1.19,1.79,1.1,0,2.2.11,3.3.2a30.06,30.06,0,0,0-5.9-6.9q-.63-.54-1.28-1.05c-.47-.36-.94-.71-1.42-1a58.45,58.45,0,0,1-9.32-7.15A49.74,49.74,0,0,0,53.3,27.23Z"/><path class="cls-3" d="M85.27,87.83s0-.1,0-.15S85.27,87.78,85.27,87.83Z"/><path class="cls-3" d="M90,109.42a29.47,29.47,0,0,1-.11,11.89l.38.65a47.49,47.49,0,0,0,1.46-5.9c.18-1,.33-2,.45-3.05a46.53,46.53,0,0,0-1.65-5.88C89,103,87.22,99.07,86.16,94.9,87.21,99.71,88.94,104.45,90,109.42Z"/><path class="cls-3" d="M83.17,60.34c.22.08-1.77,9.19-2.47,13-.28,1.51-.37,3.54-.63,5.52v0l0,.2.47.3c.75-1.8,1.56-3.58,2.36-5.35.54-1.2,1.06-2.41,1.55-3.62,1.58-7.11,1.49-14.07,1.24-21.19-.64,2.42-1.36,4.8-2,7.13-.36,1.25-.74,2.51-1.13,3.77C82.8,60.08,83,60.12,83.17,60.34Z"/><path class="cls-17" d="M83.17,60.34c.22.08-1.77,9.19-2.47,13-.28,1.51-.37,3.54-.63,5.52v0l0,.2.47.3c.75-1.8,1.56-3.58,2.36-5.35.54-1.2,1.06-2.41,1.55-3.62,1.58-7.11,1.49-14.07,1.24-21.19-.64,2.42-1.36,4.8-2,7.13-.36,1.25-.74,2.51-1.13,3.77C82.8,60.08,83,60.12,83.17,60.34Z"/><path class="cls-3" d="M90,109.42c-1-5-2.75-9.71-3.8-14.51a27,27,0,0,1-.89-6.07c0-.34,0-.67,0-1,0,0,0-.1,0-.15,0-.38,0-.76,0-1.13,0-.07,0-.14,0-.21-1.85,6.52-2.49,12.32-.82,19.37.83,3.49,1.87,7,2.41,10.5,1,1.72,2,3.44,2.95,5.11A29.47,29.47,0,0,0,90,109.42Z"/><path class="cls-17" d="M90,109.42c-1-5-2.75-9.71-3.8-14.51a27,27,0,0,1-.89-6.07c0-.34,0-.67,0-1,0,0,0-.1,0-.15,0-.38,0-.76,0-1.13,0-.07,0-.14,0-.21-1.85,6.52-2.49,12.32-.82,19.37.83,3.49,1.87,7,2.41,10.5,1,1.72,2,3.44,2.95,5.11A29.47,29.47,0,0,0,90,109.42Z"/><path class="cls-14" d="M85.3,86.55c0,.38,0,.76,0,1.13,0,0,0,.1,0,.15,0,.34,0,.67,0,1a27,27,0,0,0,.89,6.07c1.07,4.16,2.88,8.13,4.33,12.22A46.53,46.53,0,0,1,92.13,113h0v0a50.66,50.66,0,0,0,.33-6.31A82,82,0,0,0,90,97.25c-1.76-5.47-3.92-10.75-3.68-16.53v0l-.12-.38h0A32.29,32.29,0,0,0,85.3,86.55Z"/><path class="cls-14" d="M84.42,70.46c-.5,1.21-1,2.42-1.55,3.62-.8,1.78-1.61,3.55-2.36,5.35a3.38,3.38,0,0,1,1.39,1.64,3.11,3.11,0,0,1-1,3.05h0l-.12.09a1.69,1.69,0,0,1-.2.08,3.13,3.13,0,0,1,.67,1.46,43.67,43.67,0,0,1,1.51-6.18,33.92,33.92,0,0,1,2-6l.21-.62h0a40.46,40.46,0,0,1,.14-4.26h0C84.91,69.27,84.66,69.87,84.42,70.46Z"/><path class="cls-14" d="M78.64,99c-.4,1.18,2.82,7.52,6.74,14.55-.3-1.78-.7-3.54-1.14-5.26C82.91,103.14,81.38,98,81,92.73,80.29,95.15,79,97.92,78.64,99Z"/><path class="cls-14" d="M76,136.62c.24-.25,1.91-.29,3.12-.55a3,3,0,0,0,1-.37c.06,0,.12-.11.18-.16-.35-.93-.74-2-1.17-3.23l-.15.33A16.29,16.29,0,0,1,76,136.62Z"/><path class="cls-14" d="M82.09,26.31l-1.84.92-.24.12c-1,.38-2,.74-2.94,1.08-.81.28-1.63.54-2.45.79.06.14.13.26.19.4,2.54,5.83,3,12.56,2.41,18.84a61.87,61.87,0,0,1-3.73,15.61q-1,2.83-2,5.68a1.8,1.8,0,0,1-.17.47q-.95,2.72-1.86,5.46c1.14-.74,2.39,0,3.56.44l2.66,1,.12-.5.12-.51,0-.14.14-.56v0h0c.54-2.07,1.48-5.36,2.86-10.5a9.31,9.31,0,0,1,2.28-3.81C83.62,52,84.87,42.81,83.66,33.4a1.65,1.65,0,0,1,.07-.77h0q-.3-1.4-.65-2.8L83,29.5c-.48-1.88-1-3.75-1.69-5.57l-.15-.41q-.41-1.12-.87-2.21L80,20.73c-.22-.51-.46-1-.7-1.5A52.51,52.51,0,0,1,82.09,26.31Z"/><path class="cls-14" d="M73.8,27.59h0Z"/><path class="cls-14" d="M79.09,18.73c-.07-.15-.14-.3-.21-.45l0-.06c-.21-.41-.44-.8-.66-1.2C78.5,17.58,78.81,18.15,79.09,18.73Z"/><path class="cls-14" d="M68.64,39.13a2.13,2.13,0,0,1,1.2.38,1.37,1.37,0,0,1,.36,1.17A4,4,0,0,1,70,42.15c-.19.41-.61.69-.86,1.07-.05.09-.1.18-.14.27a36.22,36.22,0,0,1,2.25,8.11c.43,2.7,1.3,6.74.63,9.42.54-2.13,1-4.29,1.36-6.46a59.52,59.52,0,0,0,0-20.93c-.24-1.25-.53-2.5-.88-3.74-2.09.57-4.2,1.06-6.33,1.46l-1.81.31c1.18-.21-1.19.18-1.71.23L60.77,32h0a30.06,30.06,0,0,1,5.9,6.9L67,39Z"/><path class="cls-14" d="M63.72,97.84c-.29,6.11,1.48,11.38,3.75,16.95,1.81,4.44,2.59,9.5-.3,13.69a3.38,3.38,0,0,1-2,1.48,4.25,4.25,0,0,1-2.61-.52,6.62,6.62,0,0,0,2,2.13c4.29,3.1,9-.56,11.36-4.25a14.55,14.55,0,0,0,.88-1.59c-3.62-10.45-7.92-23.39-7.92-23.39-2.28-3.81-3-7.1-1.55-19.07-.06-.2-.1-.41-.14-.62C65.62,87.59,64,92.64,63.72,97.84Z"/><path class="cls-7" d="M54.09,63.94c-1,.27-2,.48-2.92.8a11.4,11.4,0,0,0-1.17.45,5.18,5.18,0,0,1-2.45.64A7,7,0,0,1,45.28,65a35.08,35.08,0,0,0-3.4-1,8.31,8.31,0,0,1-1.24-.48,5.22,5.22,0,0,1-.57-.33l-.26-.22a1.12,1.12,0,0,1-.06.15h0a29.18,29.18,0,0,1,2.87,2.77,14.27,14.27,0,0,0,3.18,2.35,6.86,6.86,0,0,0,7.06-1.62,24.07,24.07,0,0,1,3.23-3.33l.18-.12a.54.54,0,0,1-.08-.15C56,63.41,54.27,63.89,54.09,63.94Zm-4.3,3.75a3.14,3.14,0,0,1-2.55.37.38.38,0,0,1,.09-.76,7.73,7.73,0,0,0,2.14-.35A.42.42,0,0,1,49.8,67.69Z"/><path class="cls-7" d="M41.16,63.2a10.62,10.62,0,0,0,1.54.48,23.78,23.78,0,0,1,3,.78,7.75,7.75,0,0,0,1.35.46c1.44.27,3.24-.69,4.69-.92A11.94,11.94,0,0,0,56,62.87c-.39,0-.88.12-.94.13a7.82,7.82,0,0,1-2.47-.07c-.79-.17-1.44-.64-2.21-.86a2.26,2.26,0,0,0-2.39.64A3.16,3.16,0,0,0,45.68,62a18,18,0,0,0-2.47.88,5.65,5.65,0,0,1-2.39,0l-.93-.13,0,0A4.31,4.31,0,0,1,41.16,63.2Z"/><path class="cls-18" d="M39.3,63.16a.26.26,0,0,0,.4,0,.44.44,0,0,0,.06-.1,1.12,1.12,0,0,0,.06-.15l.26.22a5.22,5.22,0,0,0,.57.33,8.31,8.31,0,0,0,1.24.48,35.08,35.08,0,0,1,3.4,1,7,7,0,0,0,2.27.82A5.18,5.18,0,0,0,50,65.19a11.4,11.4,0,0,1,1.17-.45c1-.31,1.94-.53,2.92-.8.18,0,1.91-.53,2.13-.91a.54.54,0,0,0,.08.15v0a.26.26,0,0,0,.4,0c.2-.32-.1-.75-.42-.85s-.39.16-.27.33l.11.16-.11.06A11.94,11.94,0,0,1,51.74,64c-1.45.22-3.25,1.18-4.69.92a7.75,7.75,0,0,1-1.35-.46,23.78,23.78,0,0,0-3-.78,10.62,10.62,0,0,1-1.54-.48,4.31,4.31,0,0,0-1.29-.37l0,0,.09-.13c.12-.17-.09-.39-.27-.33S39.1,62.84,39.3,63.16Z"/><path class="cls-7" d="M49.47,66.94a7.73,7.73,0,0,1-2.14.35.38.38,0,0,0-.09.76,3.14,3.14,0,0,0,2.55-.37A.42.42,0,0,0,49.47,66.94Z"/><path class="cls-19" d="M49.47,66.94a7.73,7.73,0,0,1-2.14.35.38.38,0,0,0-.09.76,3.14,3.14,0,0,0,2.55-.37A.42.42,0,0,0,49.47,66.94Z"/><path class="cls-18" d="M14.45,123.19a94.55,94.55,0,0,1-1.3,13.22l2.31.51C15.94,128.17,14.45,123.19,14.45,123.19Z"/><polygon class="cls-3" points="72.29 29.88 72.29 29.88 72.29 29.88 72.29 29.88"/><polygon class="cls-20" points="72.29 29.88 72.29 29.88 72.29 29.88 72.29 29.88"/><path class="cls-3" d="M59.48,31q.65.51,1.28,1.05C60.35,31.67,59.92,31.31,59.48,31Z"/><path class="cls-20" d="M59.48,31q.65.51,1.28,1.05C60.35,31.67,59.92,31.31,59.48,31Z"/><path class="cls-14" d="M60.77,32l1.67-.14c.52-.05,2.89-.44,1.71-.23L66,31.34c2.13-.4,4.24-.89,6.33-1.46h0a21,21,0,0,0-5.16-9.45,82.29,82.29,0,0,1-17.42,3.28,67.5,67.5,0,0,0,8.36,6.23c.49.33,1,.68,1.42,1s.86.69,1.28,1.05Z"/><path class="cls-20" d="M60.77,32l1.67-.14c.52-.05,2.89-.44,1.71-.23L66,31.34c2.13-.4,4.24-.89,6.33-1.46h0a21,21,0,0,0-5.16-9.45,82.29,82.29,0,0,1-17.42,3.28,67.5,67.5,0,0,0,8.36,6.23c.49.33,1,.68,1.42,1s.86.69,1.28,1.05Z"/><path class="cls-3" d="M74.61,29.22h0q-.39-.86-.81-1.63Q74.22,28.36,74.61,29.22Z"/><path class="cls-20" d="M74.61,29.22h0q-.39-.86-.81-1.63Q74.22,28.36,74.61,29.22Z"/><path class="cls-3" d="M79.09,18.73l.24.51Z"/><path class="cls-20" d="M79.09,18.73l.24.51Z"/><path class="cls-3" d="M77.89,16.45h0l.31.57C78.09,16.83,78,16.64,77.89,16.45Z"/><path class="cls-20" d="M77.89,16.45h0l.31.57C78.09,16.83,78,16.64,77.89,16.45Z"/><path class="cls-3" d="M73.79,27.58a22.65,22.65,0,0,0-6.11-7.32h0A22.65,22.65,0,0,1,73.79,27.58Z"/><path class="cls-20" d="M73.79,27.58a22.65,22.65,0,0,0-6.11-7.32h0A22.65,22.65,0,0,1,73.79,27.58Z"/><path class="cls-14" d="M73.79,27.58h0q.42.78.81,1.63c.82-.25,1.64-.51,2.45-.79,1-.34,2-.71,2.94-1.08l.24-.12,1.84-.92a52.51,52.51,0,0,0-2.76-7.08l-.24-.51c-.28-.58-.59-1.14-.9-1.71l-.31-.57a91.68,91.68,0,0,1-10.19,3.81A22.65,22.65,0,0,1,73.79,27.58Z"/><path class="cls-20" d="M73.79,27.58h0q.42.78.81,1.63c.82-.25,1.64-.51,2.45-.79,1-.34,2-.71,2.94-1.08l.24-.12,1.84-.92a52.51,52.51,0,0,0-2.76-7.08l-.24-.51c-.28-.58-.59-1.14-.9-1.71l-.31-.57a91.68,91.68,0,0,1-10.19,3.81A22.65,22.65,0,0,1,73.79,27.58Z"/><polygon class="cls-3" points="18.85 24.78 18.85 24.78 18.85 24.77 18.85 24.78"/><polygon class="cls-20" points="18.85 24.78 18.85 24.78 18.85 24.77 18.85 24.78"/><path class="cls-14" d="M26.41,26.33c.22-.34.45-.68.69-1l.29-.42c.23-.32.47-.63.72-.94l.38-.48c.24-.29.49-.58.74-.86l.29-.34A58.28,58.28,0,0,1,22.11,20c-.45-.17-.88-.35-1.3-.55a54,54,0,0,0-2,5.31h0l2.84,1.47.53.28c.6.24,1.21.49,1.82.71s1,.35,1.5.53c.22-.39.46-.78.7-1.17Z"/><path class="cls-20" d="M26.41,26.33c.22-.34.45-.68.69-1l.29-.42c.23-.32.47-.63.72-.94l.38-.48c.24-.29.49-.58.74-.86l.29-.34A58.28,58.28,0,0,1,22.11,20c-.45-.17-.88-.35-1.3-.55a54,54,0,0,0-2,5.31h0l2.84,1.47.53.28c.6.24,1.21.49,1.82.71s1,.35,1.5.53c.22-.39.46-.78.7-1.17Z"/><path class="cls-3" d="M29.23,22.6c-.25.29-.5.57-.74.86C28.72,23.17,29,22.89,29.23,22.6Z"/><path class="cls-20" d="M29.23,22.6c-.25.29-.5.57-.74.86C28.72,23.17,29,22.89,29.23,22.6Z"/><path class="cls-3" d="M27.1,25.31c-.24.34-.47.68-.69,1C26.63,26,26.86,25.65,27.1,25.31Z"/><path class="cls-20" d="M27.1,25.31c-.24.34-.47.68-.69,1C26.63,26,26.86,25.65,27.1,25.31Z"/><path class="cls-3" d="M26.24,26.6c-.24.39-.48.78-.7,1.17h0C25.76,27.38,26,27,26.24,26.6Z"/><path class="cls-20" d="M26.24,26.6c-.24.39-.48.78-.7,1.17h0C25.76,27.38,26,27,26.24,26.6Z"/><path class="cls-3" d="M27.39,24.89c.23-.32.47-.63.72-.94C27.86,24.26,27.62,24.57,27.39,24.89Z"/><path class="cls-20" d="M27.39,24.89c.23-.32.47-.63.72-.94C27.86,24.26,27.62,24.57,27.39,24.89Z"/><path class="cls-5" d="M35.53,23.35h0A28.15,28.15,0,0,0,28,28.58h0A28.2,28.2,0,0,1,35.53,23.35Z"/><path class="cls-6" d="M35.53,23.35h0A28.15,28.15,0,0,0,28,28.58h0A28.2,28.2,0,0,1,35.53,23.35Z"/><path class="cls-20" d="M35.53,23.35h0A28.15,28.15,0,0,0,28,28.58h0A28.2,28.2,0,0,1,35.53,23.35Z"/><path class="cls-14" d="M35.53,23.35c-1.83-.24-3.65-.56-5.45-1a41.11,41.11,0,0,0-2.9,5.94l.81.25A28.15,28.15,0,0,1,35.53,23.35Z"/><path class="cls-20" d="M35.53,23.35c-1.83-.24-3.65-.56-5.45-1a41.11,41.11,0,0,0-2.9,5.94l.81.25A28.15,28.15,0,0,1,35.53,23.35Z"/><path class="cls-5" d="M50.61,71a7.4,7.4,0,0,0-3.23-.24,3.3,3.3,0,0,0-2.33.79,1.53,1.53,0,0,0,.29,2.36,4.06,4.06,0,0,0,3,.45c1.19-.14,3.38-.69,3.05-2.34A1.37,1.37,0,0,0,50.61,71Z"/><path class="cls-21" d="M50.61,71a7.4,7.4,0,0,0-3.23-.24,3.3,3.3,0,0,0-2.33.79,1.53,1.53,0,0,0,.29,2.36,4.06,4.06,0,0,0,3,.45c1.19-.14,3.38-.69,3.05-2.34A1.37,1.37,0,0,0,50.61,71Z"/><path class="cls-18" d="M59,52.48A10.2,10.2,0,0,0,64.55,51c.2-.14.39-.3.58-.46l.28-.22a8.75,8.75,0,0,0,.69-.69c.15-.17.31-.33.44-.51a8.58,8.58,0,0,0,.58-.83A8.37,8.37,0,0,0,67.75,47c.34-.84.51-1.73.8-2.59a6,6,0,0,1,.42-.95c0-.09.09-.18.14-.27.25-.38.66-.66.86-1.07a4,4,0,0,0,.24-1.47,1.37,1.37,0,0,0-.36-1.17,2.13,2.13,0,0,0-1.2-.38L67,39l-.29,0c-1.1-.1-2.2-.18-3.3-.2a23.84,23.84,0,0,0-3.22.12h0a23.74,23.74,0,0,0-6.27,1.7c-1,.4-1.94.85-2.9,1.29a9.68,9.68,0,0,1-3.09,1h-.63a9.68,9.68,0,0,1-3.09-1c-1-.44-1.92-.89-2.9-1.29a23.68,23.68,0,0,0-6.32-1.71,34.17,34.17,0,0,0-6.81.11l-1.61.17h-.08a2.13,2.13,0,0,0-1.2.38,1,1,0,0,0-.22.28,1.73,1.73,0,0,0-.15.89,4,4,0,0,0,.24,1.47c.19.41.61.69.86,1.07a5.44,5.44,0,0,1,.56,1.21c.29.86.46,1.75.8,2.59a8.58,8.58,0,0,0,2.43,3.33,8.83,8.83,0,0,0,.77.61,10.2,10.2,0,0,0,5.6,1.52,13,13,0,0,0,3.21-.26,12.77,12.77,0,0,0,1.39-.4A8,8,0,0,0,43.77,50a10.25,10.25,0,0,0,2.16-3.77,1.7,1.7,0,0,1,1.62-1,1.27,1.27,0,0,1,1.56,1A10.25,10.25,0,0,0,51.28,50a9.1,9.1,0,0,0,4.47,2.23h0A13.1,13.1,0,0,0,59,52.48Zm-31-13a1.37,1.37,0,0,1,.65-.28c.39-.09.76.42.42.72a.75.75,0,0,1-1.07.06A.35.35,0,0,1,27.93,39.49ZM26.7,41.8a.75.75,0,0,1-1-.2.76.76,0,0,1,.06-1,1.32,1.32,0,0,1,.64-.36l.28,0h.22a.47.47,0,0,1,.46.12l0,0a.46.46,0,0,1,.08.5,2.27,2.27,0,0,1-.18.26A2.13,2.13,0,0,1,26.7,41.8Zm2.62,7.3c-.1-.27.34-.45.47-.2a1.65,1.65,0,0,0,.56.63c.29.22,0,.69-.29.5A1.65,1.65,0,0,1,29.32,49.1Zm1.55,1.59-.11-.07c-.35-.21-.11-.83.28-.67l.12,0C31.67,50.22,31.32,51,30.87,50.69ZM44,46.21a5.57,5.57,0,0,1-2,3.26,5.92,5.92,0,0,1-1.82,1l-.56.16a14.79,14.79,0,0,1-1.78.43,9.46,9.46,0,0,1-4.37-.28,8.07,8.07,0,0,1-1.86-.86c-.23-.14-.44-.3-.65-.47s-.38-.31-.56-.48a7,7,0,0,1-2.18-4,4.88,4.88,0,0,1,.24-2.85,3.26,3.26,0,0,1,1.69-1.5,6.62,6.62,0,0,1,2.42-.45,21.35,21.35,0,0,1,5.68.68c.27.07.53.15.79.24s.57.22.86.34q.68.28,1.34.59a9.44,9.44,0,0,1,1.86,1,2.32,2.32,0,0,1,.31.29A3.27,3.27,0,0,1,44,46.21Zm3.95-2.3a2,2,0,0,1-2.1-.27c-.29-.24,0-.62.33-.57a9.79,9.79,0,0,0,1.57.08A.41.41,0,0,1,47.9,43.91Zm1.91-.49a1.85,1.85,0,0,1-1.08.31.3.3,0,0,1-.08-.59c.31-.08.62-.18.93-.28S50.09,43.24,49.81,43.42Zm13.86,7.14c-.18-.07-.32-.34-.13-.49s.62-.37.91-.61a.37.37,0,0,1,.57.44A1.22,1.22,0,0,1,63.67,50.55Zm-6.89.37a15.49,15.49,0,0,1-1.88-.49,5.93,5.93,0,0,1-1.82-1,5.57,5.57,0,0,1-2-3.26,3.27,3.27,0,0,1,.58-2.87A2.32,2.32,0,0,1,52,43a9.44,9.44,0,0,1,1.86-1A22.43,22.43,0,0,1,56,41.1l.64-.2.15,0a21.55,21.55,0,0,1,4.23-.66c.49,0,1,0,1.45,0a7.34,7.34,0,0,1,1.89.27,3.46,3.46,0,0,1,2.22,1.69A4.88,4.88,0,0,1,66.86,45a6.54,6.54,0,0,1-.28,1.08,7.13,7.13,0,0,1-1.83,2.81l-.12.11a8,8,0,0,1-3,1.77,9.46,9.46,0,0,1-4.37.28Z"/><path class="cls-18" d="M27.3,41.09a2.27,2.27,0,0,0,.18-.26.46.46,0,0,0-.08-.5l0,0a.47.47,0,0,0-.46-.12h-.22l-.28,0a1.32,1.32,0,0,0-.64.36.76.76,0,0,0-.06,1,.75.75,0,0,0,1,.2A2.13,2.13,0,0,0,27.3,41.09Z"/><path class="cls-22" d="M27.3,41.09a2.27,2.27,0,0,0,.18-.26.46.46,0,0,0-.08-.5l0,0a.47.47,0,0,0-.46-.12h-.22l-.28,0a1.32,1.32,0,0,0-.64.36.76.76,0,0,0-.06,1,.75.75,0,0,0,1,.2A2.13,2.13,0,0,0,27.3,41.09Z"/><path class="cls-18" d="M47.7,43.15a9.79,9.79,0,0,1-1.57-.08c-.29,0-.62.33-.33.57a2,2,0,0,0,2.1.27A.41.41,0,0,0,47.7,43.15Z"/><path class="cls-22" d="M47.7,43.15a9.79,9.79,0,0,1-1.57-.08c-.29,0-.62.33-.33.57a2,2,0,0,0,2.1.27A.41.41,0,0,0,47.7,43.15Z"/><path class="cls-18" d="M49.58,42.86c-.31.1-.62.2-.93.28a.3.3,0,0,0,.08.59,1.85,1.85,0,0,0,1.08-.31C50.09,43.24,49.92,42.75,49.58,42.86Z"/><path class="cls-22" d="M49.58,42.86c-.31.1-.62.2-.93.28a.3.3,0,0,0,.08.59,1.85,1.85,0,0,0,1.08-.31C50.09,43.24,49.92,42.75,49.58,42.86Z"/><path class="cls-18" d="M65,49.9a.37.37,0,0,0-.57-.44c-.29.24-.62.38-.91.61s-.05.42.13.49A1.22,1.22,0,0,0,65,49.9Z"/><path class="cls-22" d="M65,49.9a.37.37,0,0,0-.57-.44c-.29.24-.62.38-.91.61s-.05.42.13.49A1.22,1.22,0,0,0,65,49.9Z"/><path class="cls-18" d="M30.05,50c.33.19.59-.28.29-.5a1.65,1.65,0,0,1-.56-.63c-.13-.26-.57-.08-.47.2A1.65,1.65,0,0,0,30.05,50Z"/><path class="cls-22" d="M30.05,50c.33.19.59-.28.29-.5a1.65,1.65,0,0,1-.56-.63c-.13-.26-.57-.08-.47.2A1.65,1.65,0,0,0,30.05,50Z"/><path class="cls-18" d="M31.16,50,31,50c-.39-.16-.63.46-.28.67l.11.07C31.32,51,31.67,50.22,31.16,50Z"/><path class="cls-22" d="M31.16,50,31,50c-.39-.16-.63.46-.28.67l.11.07C31.32,51,31.67,50.22,31.16,50Z"/><path class="cls-18" d="M29,39.93c.34-.3,0-.8-.42-.72a1.37,1.37,0,0,0-.65.28.35.35,0,0,0,0,.49A.75.75,0,0,0,29,39.93Z"/><path class="cls-22" d="M29,39.93c.34-.3,0-.8-.42-.72a1.37,1.37,0,0,0-.65.28.35.35,0,0,0,0,.49A.75.75,0,0,0,29,39.93Z"/><path class="cls-5" d="M75.77,76.63l.12-.51Z"/><path class="cls-5" d="M75.93,76l.14-.56Z"/><path class="cls-5" d="M80.17,78c0,.3-.07.6-.11.9.27-2,.36-4,.63-5.52.7-3.83,2.69-12.94,2.47-13s-.37-.27-.66-.17a3.6,3.6,0,0,0-1.29.91,9.31,9.31,0,0,0-2.28,3.81c-1.38,5.14-2.32,8.44-2.86,10.5h0C77.39,76.29,78.75,77.21,80.17,78Z"/><path class="cls-3" d="M80.06,78.92v0Z"/><path class="cls-17" d="M80.06,78.92v0Z"/><path class="cls-6" d="M80.06,78.92v0Z"/><path class="cls-14" d="M76.07,75.4v0Z"/><path class="cls-6" d="M76.07,75.4v0Z"/><path class="cls-14" d="M75.77,76.63l-.12.5h0Z"/><path class="cls-6" d="M75.77,76.63l-.12.5h0Z"/><path class="cls-14" d="M75.89,76.13l0-.14Z"/><path class="cls-6" d="M75.89,76.13l0-.14Z"/><path class="cls-5" d="M78.53,78.36c.45.21,1,.46,1.5.77l0-.2v0c0-.3.08-.6.11-.9-1.42-.78-2.78-1.69-4.1-2.58h0v0l-.14.56,0,.14-.12.51-.12.5C76.62,77.52,77.59,77.92,78.53,78.36Z"/><path class="cls-6" d="M78.53,78.36c.45.21,1,.46,1.5.77l0-.2v0c0-.3.08-.6.11-.9-1.42-.78-2.78-1.69-4.1-2.58h0v0l-.14.56,0,.14-.12.51-.12.5C76.62,77.52,77.59,77.92,78.53,78.36Z"/><path class="cls-5" d="M67,73.73a1.27,1.27,0,0,0-.87-.31c-.87.05-1.32,1-1.42,1.74a4.61,4.61,0,0,0,.73,2.7l.41.76c.41.78.8,1.68,1.26,2.5a7.44,7.44,0,0,1,1.75-4.94c-.4-.59-.76-1.06-.92-1.3A4.88,4.88,0,0,0,67,73.73Z"/><path class="cls-6" d="M67,73.73a1.27,1.27,0,0,0-.87-.31c-.87.05-1.32,1-1.42,1.74a4.61,4.61,0,0,0,.73,2.7l.41.76c.41.78.8,1.68,1.26,2.5a7.44,7.44,0,0,1,1.75-4.94c-.4-.59-.76-1.06-.92-1.3A4.88,4.88,0,0,0,67,73.73Z"/><path class="cls-5" d="M90.22,122l-.38-.65c-1-1.67-2-3.39-2.95-5.11l-1.51-2.69c-3.92-7-7.14-13.37-6.74-14.55s1.65-3.82,2.37-6.24a11.84,11.84,0,0,0,.45-2.09,3.39,3.39,0,0,0,.18-.52,3,3,0,0,0-.56-2.69,3.28,3.28,0,0,0,.19-1.67,3.13,3.13,0,0,0-.67-1.46,6.6,6.6,0,0,0-2.67-1.82c-1.8-.7-3.72-1-5.57-1.54-1.07-.32-2.37-.85-3.41-.12s-1,2-.76,3.4a.28.28,0,0,1,0,.1.29.29,0,0,1-.13.09.21.21,0,0,1-.27-.1,6.49,6.49,0,0,1-.69-3.14,6.17,6.17,0,0,1,.94-1c2.26-1.78,5.59.15,7.87,1a29.25,29.25,0,0,1,5,2.92,3.11,3.11,0,0,0,1-3.05,3.38,3.38,0,0,0-1.39-1.64l-.47-.3,0-.2,0,.2c-.52-.31-1.05-.56-1.5-.77-.94-.44-1.91-.84-2.89-1.22h0l-2.66-1c-1.17-.45-2.42-1.18-3.56-.44l-.12.07a4,4,0,0,0-.49.44,7.44,7.44,0,0,0-1.75,4.94,8,8,0,0,0,.13,1.52c0,.21.09.42.14.62-1.49,12-.74,15.26,1.55,19.07,0,0,4.3,12.94,7.92,23.39.83,2.39,1.62,4.65,2.31,6.6.43,1.22.83,2.3,1.17,3.23s.59,1.55.8,2.08l.12.29c5.33-.91,10.84-2.09,16.48-3.59-.94-1.43-3.81-6.11-7.05-11.63ZM69.75,84.52a3,3,0,0,1,2.1-1.15A14.79,14.79,0,0,1,77.23,85c.74.42,1.51.89,2.28,1.35-.38-.13-.77-.24-1.15-.34a17.57,17.57,0,0,0-4.23-.85c-.73-.07-2-.34-2.66.07s-1.65,2.7-1.79,4a.57.57,0,0,1-.06-.08,18,18,0,0,1-.73-1.78A6.67,6.67,0,0,1,69.75,84.52Zm6,8.66s-1.28-2.36-1.83-3.43a2.39,2.39,0,0,1-.33-.78,4.8,4.8,0,0,0,3.72,1.28,3.23,3.23,0,0,1-2.45.27A4.2,4.2,0,0,1,75.73,93.19Zm5.06-6.06v0h0Zm-12-.06a17.1,17.1,0,0,0,.85,2.11.55.55,0,0,0,.06.08,2.16,2.16,0,0,0,0,.65,1,1,0,0,0,.29.51,6.51,6.51,0,0,0,2.39,2.15,21.39,21.39,0,0,0-1.43,5.68C69.47,94.93,69.17,91,68.78,87.06Z"/><path class="cls-5" d="M72.36,92.57A6.51,6.51,0,0,1,70,90.41a1,1,0,0,1-.29-.51,2.16,2.16,0,0,1,0-.65.55.55,0,0,1-.06-.08,17.1,17.1,0,0,1-.85-2.11c.39,3.94.69,7.87,2.15,11.18A21.39,21.39,0,0,1,72.36,92.57Z"/><path class="cls-6" d="M72.36,92.57A6.51,6.51,0,0,1,70,90.41a1,1,0,0,1-.29-.51,2.16,2.16,0,0,1,0-.65.55.55,0,0,1-.06-.08,17.1,17.1,0,0,1-.85-2.11c.39,3.94.69,7.87,2.15,11.18A21.39,21.39,0,0,1,72.36,92.57Z"/><path class="cls-14" d="M80.91,84.13h0l-.12.09Z"/><path class="cls-6" d="M80.91,84.13h0l-.12.09Z"/><path class="cls-5" d="M75.88,81.21c-2.28-.87-5.61-2.81-7.87-1a6.17,6.17,0,0,0-.94,1,6.49,6.49,0,0,0,.69,3.14.21.21,0,0,0,.27.1.29.29,0,0,0,.13-.09.28.28,0,0,0,0-.1c-.26-1.41-.2-2.72.76-3.4s2.33-.21,3.41.12c1.84.55,3.77.84,5.57,1.54A6.6,6.6,0,0,1,80.6,84.3a1.69,1.69,0,0,0,.2-.08l.12-.09A29.25,29.25,0,0,0,75.88,81.21Z"/><path class="cls-6" d="M75.88,81.21c-2.28-.87-5.61-2.81-7.87-1a6.17,6.17,0,0,0-.94,1,6.49,6.49,0,0,0,.69,3.14.21.21,0,0,0,.27.1.29.29,0,0,0,.13-.09.28.28,0,0,0,0-.1c-.26-1.41-.2-2.72.76-3.4s2.33-.21,3.41.12c1.84.55,3.77.84,5.57,1.54A6.6,6.6,0,0,1,80.6,84.3a1.69,1.69,0,0,0,.2-.08l.12-.09A29.25,29.25,0,0,0,75.88,81.21Z"/><path class="cls-5" d="M80.78,87.12h0Z"/><path class="cls-6" d="M80.78,87.12h0Z"/><path class="cls-5" d="M69.68,89.25c.14-1.29,1-3.49,1.79-4s1.93-.14,2.66-.07a17.57,17.57,0,0,1,4.23.85c.39.1.77.21,1.15.34-.78-.46-1.54-.93-2.28-1.35a14.79,14.79,0,0,0-5.38-1.65,3,3,0,0,0-2.1,1.15,6.67,6.67,0,0,0-.85,2.87,18,18,0,0,0,.73,1.78A.57.57,0,0,0,69.68,89.25Z"/><path class="cls-6" d="M69.68,89.25c.14-1.29,1-3.49,1.79-4s1.93-.14,2.66-.07a17.57,17.57,0,0,1,4.23.85c.39.1.77.21,1.15.34-.78-.46-1.54-.93-2.28-1.35a14.79,14.79,0,0,0-5.38-1.65,3,3,0,0,0-2.1,1.15,6.67,6.67,0,0,0-.85,2.87,18,18,0,0,0,.73,1.78A.57.57,0,0,0,69.68,89.25Z"/><path class="cls-5" d="M73.65,89.26l.14.11a6.94,6.94,0,0,1,1.05,1.16,3.23,3.23,0,0,0,2.45-.27A4.8,4.8,0,0,1,73.56,89a2.39,2.39,0,0,0,.33.78C73.76,89.5,73.67,89.32,73.65,89.26Z"/><path class="cls-6" d="M73.65,89.26l.14.11a6.94,6.94,0,0,1,1.05,1.16,3.23,3.23,0,0,0,2.45-.27A4.8,4.8,0,0,1,73.56,89a2.39,2.39,0,0,0,.33.78C73.76,89.5,73.67,89.32,73.65,89.26Z"/><path class="cls-5" d="M74.84,90.53a1.94,1.94,0,0,1-.95-.77c.55,1.07,1.83,3.43,1.83,3.43A4.2,4.2,0,0,0,74.84,90.53Z"/><path class="cls-6" d="M74.84,90.53a1.94,1.94,0,0,1-.95-.77c.55,1.07,1.83,3.43,1.83,3.43A4.2,4.2,0,0,0,74.84,90.53Z"/><path class="cls-5" d="M74.84,90.53a6.94,6.94,0,0,0-1.05-1.16l-.14-.11c0,.05.11.24.24.5A1.94,1.94,0,0,0,74.84,90.53Z"/><path class="cls-6" d="M74.84,90.53a6.94,6.94,0,0,0-1.05-1.16l-.14-.11c0,.05.11.24.24.5A1.94,1.94,0,0,0,74.84,90.53Z"/><path class="cls-6" d="M74.84,90.53a6.94,6.94,0,0,0-1.05-1.16l-.14-.11c0,.05.11.24.24.5A1.94,1.94,0,0,0,74.84,90.53Z"/></g></g></g></svg>