<?xml version="1.0" encoding="utf-8"?>
<svg version="1.1" id="Capa_1" xmlns="http://www.w3.org/2000/svg" xmlns:xlink="http://www.w3.org/1999/xlink" x="0px" y="0px"
	 viewBox="0 0 100 15" style="enable-background:new 0 0 100 15;" xml:space="preserve">
<style type="text/css">
	.st0{fill:#DFDFDF;}
</style>
<polygon class="st0" points="7.9,0 10.3,4.9 15.8,5.7 11.8,9.6 12.7,15 7.9,12.4 3,15 3.9,9.6 0,5.7 5.4,4.9 "/>
<polygon class="st0" points="92.1,0 94.6,4.9 100,5.7 96.1,9.6 97,15 92.1,12.4 87.3,15 88.2,9.6 84.2,5.7 89.7,4.9 "/>
<polygon class="st0" points="28.9,0 31.4,4.9 36.8,5.7 32.9,9.6 33.8,15 28.9,12.4 24.1,15 25,9.6 21.1,5.7 26.5,4.9 "/>
<polygon class="st0" points="50,0 52.4,4.9 57.9,5.7 53.9,9.6 54.9,15 50,12.4 45.1,15 46.1,9.6 42.1,5.7 47.6,4.9 "/>
<polygon class="st0" points="71.1,0 73.5,4.9 78.9,5.7 75,9.6 75.9,15 71.1,12.4 66.2,15 67.1,9.6 63.2,5.7 68.6,4.9 "/>
</svg>
